G04*
G04 #@! TF.GenerationSoftware,Altium Limited,Altium Designer,20.0.14 (345)*
G04*
G04 Layer_Color=8388736*
%FSLAX25Y25*%
%MOIN*%
G70*
G01*
G75*
%ADD34R,0.03556X0.04147*%
%ADD35R,0.06706X0.05131*%
%ADD36R,0.04147X0.03556*%
%ADD37R,0.05131X0.06706*%
%ADD38R,0.04147X0.03556*%
%ADD39R,0.03556X0.04147*%
%ADD40R,0.04934X0.04540*%
%ADD41R,0.04737X0.04343*%
%ADD42R,0.03950X0.04343*%
%ADD43R,0.04737X0.05131*%
G04:AMPARAMS|DCode=44|XSize=29.65mil|YSize=39.5mil|CornerRadius=5.95mil|HoleSize=0mil|Usage=FLASHONLY|Rotation=180.000|XOffset=0mil|YOffset=0mil|HoleType=Round|Shape=RoundedRectangle|*
%AMROUNDEDRECTD44*
21,1,0.02965,0.02760,0,0,180.0*
21,1,0.01776,0.03950,0,0,180.0*
1,1,0.01190,-0.00888,0.01380*
1,1,0.01190,0.00888,0.01380*
1,1,0.01190,0.00888,-0.01380*
1,1,0.01190,-0.00888,-0.01380*
%
%ADD44ROUNDEDRECTD44*%
%ADD45R,0.01981X0.06509*%
G04:AMPARAMS|DCode=46|XSize=25.72mil|YSize=61.15mil|CornerRadius=5.95mil|HoleSize=0mil|Usage=FLASHONLY|Rotation=90.000|XOffset=0mil|YOffset=0mil|HoleType=Round|Shape=RoundedRectangle|*
%AMROUNDEDRECTD46*
21,1,0.02572,0.04925,0,0,90.0*
21,1,0.01382,0.06115,0,0,90.0*
1,1,0.01190,0.02463,0.00691*
1,1,0.01190,0.02463,-0.00691*
1,1,0.01190,-0.02463,-0.00691*
1,1,0.01190,-0.02463,0.00691*
%
%ADD46ROUNDEDRECTD46*%
%ADD47R,0.14186X0.07887*%
%ADD48R,0.03162X0.03950*%
%ADD49R,0.03950X0.03950*%
%ADD50C,0.08674*%
%ADD51C,0.14580*%
%ADD52C,0.07887*%
%ADD53C,0.06902*%
%ADD54C,0.22453*%
%ADD55C,0.07800*%
G36*
X105858Y278486D02*
X105969D01*
X106205Y278472D01*
X106497Y278445D01*
X106802Y278389D01*
X107121Y278333D01*
X107427Y278250D01*
X107441D01*
X107468Y278236D01*
X107510Y278222D01*
X107566Y278195D01*
X107704Y278139D01*
X107899Y278056D01*
X108107Y277945D01*
X108343Y277820D01*
X108565Y277667D01*
X108787Y277501D01*
X108815Y277473D01*
X108884Y277417D01*
X108981Y277306D01*
X109106Y277168D01*
X109245Y276987D01*
X109384Y276779D01*
X109509Y276557D01*
X109634Y276307D01*
Y276293D01*
X109648Y276279D01*
X109661Y276238D01*
X109675Y276182D01*
X109731Y276043D01*
X109786Y275849D01*
X109828Y275627D01*
X109883Y275363D01*
X109911Y275072D01*
X109925Y274752D01*
Y274405D01*
X109911Y274225D01*
Y274128D01*
X109897Y274072D01*
X109883Y273920D01*
X109856Y273739D01*
Y273697D01*
X109842Y273656D01*
Y273587D01*
X109814Y273434D01*
X109773Y273253D01*
Y273239D01*
X109759Y273212D01*
X109745Y273156D01*
X109731Y273101D01*
X109689Y272934D01*
X109634Y272740D01*
X108107D01*
X108121Y272768D01*
X108149Y272837D01*
X108190Y272934D01*
X108246Y273073D01*
X108301Y273226D01*
X108357Y273406D01*
X108454Y273767D01*
Y273781D01*
X108468Y273850D01*
X108495Y273934D01*
X108509Y274044D01*
X108537Y274183D01*
X108551Y274322D01*
X108565Y274627D01*
Y274725D01*
X108551Y274836D01*
X108537Y274974D01*
X108509Y275127D01*
X108468Y275294D01*
X108412Y275460D01*
X108343Y275627D01*
X108329Y275641D01*
X108301Y275696D01*
X108260Y275766D01*
X108190Y275863D01*
X108107Y275974D01*
X108010Y276085D01*
X107899Y276196D01*
X107760Y276307D01*
X107746Y276321D01*
X107691Y276349D01*
X107607Y276390D01*
X107510Y276460D01*
X107371Y276515D01*
X107219Y276585D01*
X107052Y276640D01*
X106858Y276696D01*
X106830D01*
X106774Y276710D01*
X106663Y276723D01*
X106525Y276751D01*
X106358Y276765D01*
X106164Y276793D01*
X105942Y276807D01*
X105719D01*
X105706D01*
X105692D01*
X105608D01*
X105484Y276793D01*
X105317D01*
X105137Y276779D01*
X104942Y276751D01*
X104526Y276682D01*
X104498D01*
X104443Y276654D01*
X104345Y276626D01*
X104220Y276585D01*
X104082Y276529D01*
X103943Y276460D01*
X103790Y276390D01*
X103651Y276293D01*
X103638Y276279D01*
X103596Y276238D01*
X103526Y276182D01*
X103443Y276099D01*
X103360Y276002D01*
X103263Y275877D01*
X103180Y275752D01*
X103096Y275599D01*
X103082Y275585D01*
X103068Y275530D01*
X103041Y275432D01*
X103013Y275322D01*
X102971Y275169D01*
X102944Y275002D01*
X102930Y274822D01*
X102916Y274614D01*
Y274475D01*
X102930Y274336D01*
X102944Y274169D01*
Y274156D01*
X102957Y274128D01*
Y274072D01*
X102971Y274017D01*
X103013Y273864D01*
X103055Y273684D01*
Y273670D01*
X103068Y273642D01*
X103082Y273587D01*
X103096Y273531D01*
X103152Y273378D01*
X103207Y273198D01*
Y273184D01*
X103221Y273156D01*
X103249Y273101D01*
X103263Y273045D01*
X103332Y272892D01*
X103402Y272740D01*
X101958D01*
X101944Y272768D01*
X101916Y272837D01*
X101889Y272948D01*
X101833Y273087D01*
X101778Y273239D01*
X101736Y273420D01*
X101639Y273809D01*
Y273836D01*
X101625Y273892D01*
X101611Y273989D01*
X101583Y274128D01*
X101569Y274281D01*
X101542Y274461D01*
X101528Y274655D01*
Y275016D01*
X101542Y275085D01*
Y275169D01*
X101556Y275391D01*
X101583Y275627D01*
X101639Y275891D01*
X101694Y276154D01*
X101778Y276418D01*
Y276432D01*
X101792Y276446D01*
X101833Y276529D01*
X101889Y276654D01*
X101972Y276820D01*
X102083Y277001D01*
X102222Y277195D01*
X102374Y277390D01*
X102555Y277570D01*
X102583Y277584D01*
X102652Y277639D01*
X102763Y277723D01*
X102902Y277834D01*
X103096Y277945D01*
X103304Y278056D01*
X103554Y278167D01*
X103818Y278264D01*
X103832D01*
X103860Y278278D01*
X103901Y278292D01*
X103957Y278306D01*
X104026Y278320D01*
X104109Y278333D01*
X104332Y278375D01*
X104581Y278431D01*
X104887Y278458D01*
X105234Y278486D01*
X105595Y278500D01*
X105608D01*
X105636D01*
X105692D01*
X105775D01*
X105858Y278486D01*
D02*
G37*
G36*
X122883Y276751D02*
X117956Y275377D01*
X116346Y274933D01*
X118053Y274475D01*
X122883Y273101D01*
Y271463D01*
X114722Y273975D01*
Y276002D01*
X122883Y278500D01*
Y276751D01*
D02*
G37*
G36*
X103610Y271282D02*
X103721Y271269D01*
X103846Y271255D01*
X103984Y271213D01*
X104137Y271171D01*
X104276Y271116D01*
X104290Y271102D01*
X104345Y271074D01*
X104415Y271033D01*
X104498Y270963D01*
X104609Y270894D01*
X104720Y270783D01*
X104831Y270672D01*
X104928Y270533D01*
X104942Y270519D01*
X104970Y270463D01*
X105025Y270380D01*
X105081Y270269D01*
X105150Y270130D01*
X105234Y269964D01*
X105303Y269770D01*
X105359Y269561D01*
Y269547D01*
X105373Y269533D01*
X105386Y269450D01*
X105414Y269325D01*
X105442Y269159D01*
X105470Y268964D01*
X105497Y268728D01*
X105525Y268465D01*
Y267340D01*
X105900D01*
X105914D01*
X105942D01*
X105983D01*
X106053Y267354D01*
X106191Y267368D01*
X106344Y267410D01*
X106358D01*
X106372Y267424D01*
X106455Y267465D01*
X106566Y267535D01*
X106677Y267632D01*
X106705Y267660D01*
X106761Y267743D01*
X106830Y267868D01*
X106885Y268035D01*
Y268048D01*
X106899Y268076D01*
X106913Y268132D01*
X106927Y268201D01*
X106941Y268284D01*
X106955Y268395D01*
X106969Y268631D01*
Y268840D01*
X106955Y268978D01*
X106941Y269159D01*
X106913Y269339D01*
X106830Y269756D01*
Y269783D01*
X106802Y269853D01*
X106774Y269950D01*
X106747Y270089D01*
X106691Y270241D01*
X106636Y270422D01*
X106483Y270797D01*
X107704D01*
X107718Y270783D01*
X107732Y270713D01*
X107760Y270630D01*
X107801Y270505D01*
X107843Y270352D01*
X107899Y270172D01*
X107954Y269978D01*
X107996Y269756D01*
Y269728D01*
X108010Y269658D01*
X108037Y269533D01*
X108065Y269381D01*
X108079Y269186D01*
X108107Y268978D01*
X108121Y268742D01*
Y268257D01*
X108107Y268090D01*
X108093Y267896D01*
X108065Y267701D01*
X108024Y267493D01*
X107982Y267299D01*
Y267271D01*
X107954Y267216D01*
X107926Y267118D01*
X107885Y267007D01*
X107815Y266869D01*
X107746Y266730D01*
X107663Y266591D01*
X107566Y266466D01*
X107552Y266452D01*
X107524Y266410D01*
X107455Y266355D01*
X107385Y266286D01*
X107288Y266202D01*
X107177Y266119D01*
X107038Y266050D01*
X106899Y265980D01*
X106885Y265966D01*
X106830Y265952D01*
X106747Y265925D01*
X106636Y265897D01*
X106497Y265869D01*
X106344Y265841D01*
X106164Y265814D01*
X105969D01*
X101639D01*
Y267132D01*
X102458Y267160D01*
X102444Y267174D01*
X102416Y267202D01*
X102388Y267243D01*
X102333Y267285D01*
X102208Y267424D01*
X102069Y267590D01*
X102055Y267604D01*
X102041Y267632D01*
X102014Y267674D01*
X101972Y267729D01*
X101875Y267882D01*
X101764Y268062D01*
Y268076D01*
X101750Y268104D01*
X101722Y268159D01*
X101694Y268229D01*
X101667Y268326D01*
X101625Y268423D01*
X101569Y268645D01*
Y268659D01*
X101556Y268701D01*
X101542Y268756D01*
Y268840D01*
X101528Y268951D01*
X101514Y269062D01*
X101500Y269325D01*
Y269409D01*
X101514Y269492D01*
Y269617D01*
X101528Y269742D01*
X101556Y269894D01*
X101639Y270186D01*
Y270200D01*
X101667Y270241D01*
X101694Y270311D01*
X101736Y270394D01*
X101861Y270588D01*
X102027Y270797D01*
X102041Y270811D01*
X102069Y270838D01*
X102125Y270880D01*
X102208Y270935D01*
X102291Y270991D01*
X102402Y271060D01*
X102652Y271171D01*
X102666D01*
X102721Y271185D01*
X102791Y271213D01*
X102888Y271227D01*
X102999Y271255D01*
X103138Y271282D01*
X103443Y271296D01*
X103471D01*
X103526D01*
X103610Y271282D01*
D02*
G37*
G36*
X118123Y271005D02*
X118317Y270991D01*
X118525Y270963D01*
X118747Y270935D01*
X118983Y270880D01*
X119219Y270811D01*
X119233D01*
X119247Y270797D01*
X119330Y270769D01*
X119441Y270713D01*
X119580Y270644D01*
X119747Y270561D01*
X119927Y270450D01*
X120107Y270325D01*
X120274Y270186D01*
X120288Y270172D01*
X120343Y270116D01*
X120427Y270033D01*
X120524Y269908D01*
X120635Y269770D01*
X120746Y269603D01*
X120857Y269423D01*
X120954Y269214D01*
X120968Y269186D01*
X120996Y269117D01*
X121037Y268992D01*
X121079Y268826D01*
X121121Y268631D01*
X121162Y268409D01*
X121190Y268159D01*
X121204Y267896D01*
Y267771D01*
X121190Y267646D01*
X121176Y267465D01*
X121149Y267271D01*
X121107Y267063D01*
X121051Y266841D01*
X120982Y266633D01*
X120968Y266605D01*
X120940Y266535D01*
X120899Y266438D01*
X120829Y266300D01*
X120732Y266161D01*
X120635Y265994D01*
X120510Y265841D01*
X120357Y265689D01*
X120343Y265675D01*
X120288Y265619D01*
X120205Y265550D01*
X120080Y265467D01*
X119927Y265370D01*
X119761Y265272D01*
X119566Y265175D01*
X119344Y265092D01*
X119316Y265078D01*
X119233Y265064D01*
X119108Y265022D01*
X118942Y264981D01*
X118733Y264953D01*
X118498Y264912D01*
X118234Y264898D01*
X117942Y264884D01*
X117928D01*
X117914D01*
X117873D01*
X117817D01*
X117678Y264898D01*
X117484Y264912D01*
X117276Y264939D01*
X117040Y264981D01*
X116804Y265036D01*
X116568Y265106D01*
X116540Y265120D01*
X116471Y265147D01*
X116346Y265189D01*
X116207Y265259D01*
X116027Y265342D01*
X115860Y265453D01*
X115680Y265578D01*
X115499Y265717D01*
X115486Y265730D01*
X115430Y265786D01*
X115347Y265869D01*
X115250Y265994D01*
X115138Y266133D01*
X115027Y266300D01*
X114916Y266494D01*
X114819Y266702D01*
X114805Y266730D01*
X114778Y266799D01*
X114750Y266924D01*
X114708Y267077D01*
X114653Y267271D01*
X114625Y267493D01*
X114597Y267743D01*
X114583Y268021D01*
Y268145D01*
X114597Y268270D01*
X114611Y268437D01*
X114625Y268645D01*
X114667Y268853D01*
X114708Y269075D01*
X114778Y269284D01*
X114792Y269311D01*
X114819Y269381D01*
X114861Y269478D01*
X114930Y269603D01*
X115014Y269756D01*
X115125Y269922D01*
X115250Y270075D01*
X115388Y270228D01*
X115402Y270241D01*
X115458Y270297D01*
X115555Y270366D01*
X115680Y270450D01*
X115819Y270547D01*
X115999Y270644D01*
X116193Y270741D01*
X116416Y270824D01*
X116429D01*
X116443Y270838D01*
X116526Y270852D01*
X116651Y270880D01*
X116832Y270921D01*
X117040Y270963D01*
X117290Y270991D01*
X117568Y271005D01*
X117859Y271019D01*
X117873D01*
X117887D01*
X117928D01*
X117984D01*
X118123Y271005D01*
D02*
G37*
G36*
X107982Y262441D02*
X107052Y262371D01*
X107066Y262358D01*
X107094Y262344D01*
X107135Y262316D01*
X107191Y262274D01*
X107330Y262163D01*
X107482Y262024D01*
X107496Y262011D01*
X107510Y261997D01*
X107552Y261955D01*
X107593Y261899D01*
X107704Y261761D01*
X107815Y261594D01*
X107829Y261580D01*
X107843Y261553D01*
X107871Y261497D01*
X107899Y261428D01*
X107968Y261261D01*
X108037Y261053D01*
Y261039D01*
X108051Y260997D01*
X108065Y260942D01*
X108079Y260858D01*
X108093Y260775D01*
X108107Y260664D01*
X108121Y260414D01*
Y260331D01*
X108107Y260248D01*
Y260123D01*
X108079Y259998D01*
X108051Y259845D01*
X108010Y259706D01*
X107954Y259568D01*
X107940Y259554D01*
X107926Y259498D01*
X107885Y259429D01*
X107829Y259346D01*
X107760Y259248D01*
X107677Y259151D01*
X107566Y259040D01*
X107455Y258943D01*
X107441Y258929D01*
X107399Y258901D01*
X107330Y258860D01*
X107232Y258804D01*
X107121Y258735D01*
X106969Y258679D01*
X106816Y258624D01*
X106636Y258568D01*
X106608D01*
X106552Y258554D01*
X106455Y258527D01*
X106316Y258513D01*
X106150Y258485D01*
X105956Y258471D01*
X105747Y258457D01*
X105511D01*
Y259984D01*
X105525D01*
X105567D01*
X105636D01*
X105719D01*
X105914Y259998D01*
X106108Y260026D01*
X106122D01*
X106150Y260040D01*
X106191D01*
X106261Y260053D01*
X106386Y260109D01*
X106525Y260178D01*
X106538D01*
X106552Y260192D01*
X106622Y260248D01*
X106691Y260331D01*
X106761Y260428D01*
X106774Y260456D01*
X106802Y260525D01*
X106830Y260636D01*
X106844Y260775D01*
Y260831D01*
X106830Y260900D01*
X106802Y260983D01*
X106774Y261094D01*
X106719Y261206D01*
X106649Y261330D01*
X106552Y261469D01*
X106538Y261483D01*
X106497Y261525D01*
X106427Y261608D01*
X106330Y261705D01*
X106205Y261816D01*
X106053Y261955D01*
X105872Y262094D01*
X105650Y262246D01*
X101639D01*
Y263815D01*
X107982D01*
Y262441D01*
D02*
G37*
G36*
X115916Y261511D02*
X122356D01*
Y263301D01*
X123550D01*
Y259942D01*
X115916D01*
Y258124D01*
X114722D01*
Y263524D01*
X115916D01*
Y261511D01*
D02*
G37*
G36*
X104914Y257416D02*
X104998D01*
X105206Y257402D01*
X105442Y257375D01*
X105706Y257333D01*
X105956Y257277D01*
X106205Y257194D01*
X106219D01*
X106233Y257180D01*
X106316Y257153D01*
X106427Y257097D01*
X106580Y257014D01*
X106747Y256917D01*
X106927Y256806D01*
X107094Y256667D01*
X107260Y256514D01*
X107274Y256500D01*
X107330Y256431D01*
X107413Y256347D01*
X107496Y256223D01*
X107607Y256070D01*
X107718Y255890D01*
X107815Y255695D01*
X107899Y255473D01*
Y255459D01*
X107913Y255445D01*
X107926Y255362D01*
X107968Y255251D01*
X108010Y255084D01*
X108037Y254890D01*
X108079Y254668D01*
X108093Y254432D01*
X108107Y254168D01*
Y254016D01*
X108093Y253863D01*
X108065Y253696D01*
Y253655D01*
X108051Y253613D01*
Y253544D01*
X108024Y253405D01*
X107982Y253252D01*
X110467D01*
Y251726D01*
X101639D01*
Y253058D01*
X102569Y253086D01*
X102555Y253100D01*
X102527Y253127D01*
X102486Y253169D01*
X102430Y253211D01*
X102277Y253349D01*
X102125Y253502D01*
X102111Y253516D01*
X102097Y253544D01*
X102055Y253585D01*
X102014Y253641D01*
X101902Y253780D01*
X101792Y253960D01*
Y253974D01*
X101764Y254002D01*
X101750Y254043D01*
X101708Y254113D01*
X101639Y254279D01*
X101583Y254474D01*
Y254488D01*
X101569Y254515D01*
X101556Y254585D01*
X101542Y254654D01*
X101528Y254751D01*
X101514Y254849D01*
X101500Y255098D01*
Y255195D01*
X101514Y255293D01*
X101528Y255431D01*
X101556Y255584D01*
X101597Y255751D01*
X101653Y255931D01*
X101722Y256098D01*
X101736Y256112D01*
X101764Y256167D01*
X101819Y256250D01*
X101889Y256347D01*
X101972Y256472D01*
X102083Y256583D01*
X102208Y256708D01*
X102361Y256833D01*
X102374Y256847D01*
X102430Y256875D01*
X102527Y256930D01*
X102638Y257000D01*
X102791Y257069D01*
X102957Y257139D01*
X103152Y257208D01*
X103360Y257277D01*
X103374D01*
X103388D01*
X103471Y257305D01*
X103582Y257319D01*
X103749Y257347D01*
X103943Y257375D01*
X104179Y257402D01*
X104429Y257416D01*
X104692Y257430D01*
X104706D01*
X104734D01*
X104776D01*
X104845D01*
X104914Y257416D01*
D02*
G37*
G36*
X121065Y255320D02*
X122675D01*
X123092Y253752D01*
X121065D01*
Y251295D01*
X119872D01*
Y253752D01*
X116887D01*
X116860D01*
X116804D01*
X116707Y253738D01*
X116582Y253724D01*
X116443Y253696D01*
X116318Y253655D01*
X116180Y253599D01*
X116068Y253516D01*
X116055Y253502D01*
X116027Y253461D01*
X115985Y253405D01*
X115944Y253322D01*
X115888Y253197D01*
X115846Y253058D01*
X115819Y252891D01*
X115805Y252683D01*
Y252544D01*
X115819Y252447D01*
Y252336D01*
X115832Y252225D01*
X115860Y251961D01*
Y251948D01*
X115874Y251906D01*
X115888Y251836D01*
X115902Y251739D01*
X115930Y251642D01*
X115957Y251531D01*
X116013Y251295D01*
X114792D01*
Y251309D01*
X114778Y251365D01*
X114764Y251448D01*
X114750Y251559D01*
X114722Y251684D01*
X114694Y251823D01*
X114653Y252128D01*
Y252142D01*
X114639Y252197D01*
X114625Y252281D01*
Y252378D01*
X114611Y252503D01*
X114597Y252642D01*
X114583Y252919D01*
Y253030D01*
X114597Y253141D01*
Y253294D01*
X114611Y253461D01*
X114639Y253641D01*
X114667Y253821D01*
X114708Y254002D01*
Y254016D01*
X114736Y254071D01*
X114764Y254168D01*
X114805Y254265D01*
X114930Y254515D01*
X115000Y254640D01*
X115097Y254751D01*
X115111Y254765D01*
X115152Y254793D01*
X115208Y254849D01*
X115291Y254918D01*
X115388Y254987D01*
X115513Y255057D01*
X115638Y255126D01*
X115791Y255182D01*
X115805D01*
X115860Y255209D01*
X115957Y255223D01*
X116068Y255251D01*
X116221Y255279D01*
X116388Y255293D01*
X116568Y255320D01*
X116776D01*
X119872D01*
Y257014D01*
X121065D01*
Y255320D01*
D02*
G37*
G36*
X116693Y249657D02*
X116804Y249643D01*
X116929Y249630D01*
X117068Y249588D01*
X117220Y249546D01*
X117359Y249491D01*
X117373Y249477D01*
X117429Y249449D01*
X117498Y249408D01*
X117581Y249338D01*
X117692Y249269D01*
X117803Y249158D01*
X117914Y249047D01*
X118012Y248908D01*
X118026Y248894D01*
X118053Y248838D01*
X118109Y248755D01*
X118164Y248644D01*
X118234Y248505D01*
X118317Y248339D01*
X118386Y248144D01*
X118442Y247936D01*
Y247922D01*
X118456Y247908D01*
X118470Y247825D01*
X118498Y247700D01*
X118525Y247534D01*
X118553Y247339D01*
X118581Y247103D01*
X118608Y246840D01*
Y245715D01*
X118983D01*
X118997D01*
X119025D01*
X119067D01*
X119136Y245729D01*
X119275Y245743D01*
X119427Y245785D01*
X119441D01*
X119455Y245799D01*
X119538Y245840D01*
X119650Y245910D01*
X119761Y246007D01*
X119788Y246035D01*
X119844Y246118D01*
X119913Y246243D01*
X119969Y246409D01*
Y246423D01*
X119983Y246451D01*
X119997Y246507D01*
X120010Y246576D01*
X120024Y246659D01*
X120038Y246770D01*
X120052Y247006D01*
Y247215D01*
X120038Y247353D01*
X120024Y247534D01*
X119997Y247714D01*
X119913Y248131D01*
Y248158D01*
X119885Y248228D01*
X119858Y248325D01*
X119830Y248464D01*
X119774Y248616D01*
X119719Y248797D01*
X119566Y249172D01*
X120788D01*
X120801Y249158D01*
X120815Y249088D01*
X120843Y249005D01*
X120885Y248880D01*
X120926Y248727D01*
X120982Y248547D01*
X121037Y248353D01*
X121079Y248131D01*
Y248103D01*
X121093Y248033D01*
X121121Y247908D01*
X121149Y247756D01*
X121162Y247562D01*
X121190Y247353D01*
X121204Y247117D01*
Y246632D01*
X121190Y246465D01*
X121176Y246271D01*
X121149Y246076D01*
X121107Y245868D01*
X121065Y245674D01*
Y245646D01*
X121037Y245590D01*
X121010Y245493D01*
X120968Y245382D01*
X120899Y245244D01*
X120829Y245105D01*
X120746Y244966D01*
X120649Y244841D01*
X120635Y244827D01*
X120607Y244785D01*
X120538Y244730D01*
X120468Y244661D01*
X120371Y244577D01*
X120260Y244494D01*
X120121Y244425D01*
X119983Y244355D01*
X119969Y244341D01*
X119913Y244327D01*
X119830Y244300D01*
X119719Y244272D01*
X119580Y244244D01*
X119427Y244216D01*
X119247Y244189D01*
X119053D01*
X114722D01*
Y245507D01*
X115541Y245535D01*
X115527Y245549D01*
X115499Y245577D01*
X115472Y245618D01*
X115416Y245660D01*
X115291Y245799D01*
X115152Y245965D01*
X115138Y245979D01*
X115125Y246007D01*
X115097Y246049D01*
X115055Y246104D01*
X114958Y246257D01*
X114847Y246437D01*
Y246451D01*
X114833Y246479D01*
X114805Y246534D01*
X114778Y246604D01*
X114750Y246701D01*
X114708Y246798D01*
X114653Y247020D01*
Y247034D01*
X114639Y247076D01*
X114625Y247131D01*
Y247215D01*
X114611Y247325D01*
X114597Y247437D01*
X114583Y247700D01*
Y247784D01*
X114597Y247867D01*
Y247992D01*
X114611Y248117D01*
X114639Y248269D01*
X114722Y248561D01*
Y248575D01*
X114750Y248616D01*
X114778Y248686D01*
X114819Y248769D01*
X114944Y248963D01*
X115111Y249172D01*
X115125Y249185D01*
X115152Y249213D01*
X115208Y249255D01*
X115291Y249310D01*
X115375Y249366D01*
X115486Y249435D01*
X115735Y249546D01*
X115749D01*
X115805Y249560D01*
X115874Y249588D01*
X115971Y249602D01*
X116082Y249630D01*
X116221Y249657D01*
X116526Y249671D01*
X116554D01*
X116610D01*
X116693Y249657D01*
D02*
G37*
G36*
X113889Y242828D02*
X114014Y242814D01*
X114167Y242787D01*
X114181D01*
X114195Y242773D01*
X114278Y242745D01*
X114389Y242690D01*
X114528Y242620D01*
X114542D01*
X114556Y242606D01*
X114625Y242537D01*
X114736Y242454D01*
X114847Y242343D01*
X114861Y242329D01*
X114875Y242315D01*
X114944Y242232D01*
X115041Y242107D01*
X115166Y241954D01*
X115180Y241968D01*
X115194Y242009D01*
X115236Y242065D01*
X115291Y242121D01*
X115430Y242273D01*
X115513Y242343D01*
X115610Y242412D01*
X115624D01*
X115666Y242440D01*
X115721Y242454D01*
X115791Y242481D01*
X115874Y242509D01*
X115985Y242537D01*
X116096Y242551D01*
X116207Y242565D01*
X116221D01*
X116249D01*
X116277D01*
X116332Y242551D01*
X116457Y242537D01*
X116596Y242509D01*
X116610D01*
X116624Y242495D01*
X116707Y242467D01*
X116818Y242426D01*
X116943Y242370D01*
X116957D01*
X116971Y242356D01*
X117054Y242301D01*
X117165Y242245D01*
X117276Y242162D01*
X117290D01*
X117304Y242134D01*
X117373Y242079D01*
X117470Y242009D01*
X117581Y241912D01*
X117595Y241926D01*
X117623Y241954D01*
X117678Y241996D01*
X117734Y242037D01*
X117817Y242107D01*
X117914Y242162D01*
X118137Y242287D01*
X118150D01*
X118192Y242315D01*
X118262Y242329D01*
X118359Y242356D01*
X118484Y242384D01*
X118622Y242412D01*
X118775Y242426D01*
X118956Y242440D01*
X118983D01*
X119053D01*
X119150Y242426D01*
X119275Y242412D01*
X119427Y242398D01*
X119580Y242356D01*
X119747Y242315D01*
X119899Y242259D01*
X119913Y242245D01*
X119969Y242218D01*
X120052Y242176D01*
X120149Y242121D01*
X120246Y242051D01*
X120371Y241954D01*
X120482Y241843D01*
X120593Y241732D01*
X120607Y241718D01*
X120635Y241676D01*
X120691Y241593D01*
X120760Y241496D01*
X120829Y241385D01*
X120899Y241246D01*
X120968Y241093D01*
X121037Y240927D01*
X121051Y240899D01*
X121065Y240844D01*
X121093Y240746D01*
X121121Y240621D01*
X121149Y240469D01*
X121162Y240302D01*
X121190Y240108D01*
Y239747D01*
X121176Y239567D01*
X121149Y239372D01*
Y239331D01*
X121135Y239275D01*
Y239220D01*
X121107Y239067D01*
X121065Y238900D01*
Y236693D01*
X119955D01*
Y237693D01*
X119941Y237679D01*
X119913Y237665D01*
X119872Y237637D01*
X119816Y237596D01*
X119663Y237526D01*
X119483Y237457D01*
X119469D01*
X119441Y237443D01*
X119400Y237429D01*
X119330Y237415D01*
X119178Y237387D01*
X118997Y237374D01*
X118969D01*
X118914D01*
X118803Y237387D01*
X118678Y237401D01*
X118539Y237415D01*
X118372Y237457D01*
X118220Y237498D01*
X118053Y237568D01*
X118039Y237582D01*
X117984Y237596D01*
X117914Y237637D01*
X117817Y237693D01*
X117706Y237776D01*
X117595Y237859D01*
X117484Y237957D01*
X117373Y238081D01*
X117359Y238095D01*
X117332Y238137D01*
X117276Y238206D01*
X117220Y238303D01*
X117165Y238428D01*
X117096Y238567D01*
X117026Y238720D01*
X116971Y238886D01*
Y238900D01*
X116943Y238970D01*
X116929Y239067D01*
X116901Y239192D01*
X116874Y239345D01*
X116860Y239511D01*
X116832Y239705D01*
Y240038D01*
X116846Y240108D01*
X116860Y240316D01*
X116887Y240524D01*
Y240538D01*
X116901Y240566D01*
X116915Y240621D01*
X116929Y240677D01*
X116984Y240816D01*
X117040Y240941D01*
X117026Y240955D01*
X116971Y241010D01*
X116901Y241066D01*
X116804Y241121D01*
X116776Y241135D01*
X116721Y241149D01*
X116638Y241177D01*
X116526Y241191D01*
X116513D01*
X116471D01*
X116402Y241177D01*
X116318Y241149D01*
X116304Y241135D01*
X116263Y241107D01*
X116207Y241066D01*
X116138Y240996D01*
X116124Y240982D01*
X116096Y240927D01*
X116055Y240857D01*
X116013Y240774D01*
Y240746D01*
X115985Y240677D01*
X115971Y240580D01*
X115957Y240469D01*
X115902Y238970D01*
Y238789D01*
X115888Y238664D01*
X115874Y238526D01*
X115846Y238373D01*
X115777Y238054D01*
Y238040D01*
X115763Y237984D01*
X115735Y237915D01*
X115694Y237818D01*
X115596Y237596D01*
X115444Y237360D01*
X115430Y237346D01*
X115402Y237304D01*
X115361Y237249D01*
X115305Y237193D01*
X115222Y237110D01*
X115138Y237040D01*
X115041Y236971D01*
X114930Y236902D01*
X114916Y236888D01*
X114875Y236874D01*
X114819Y236846D01*
X114736Y236818D01*
X114639Y236791D01*
X114528Y236763D01*
X114403Y236735D01*
X114264D01*
X114250D01*
X114195D01*
X114097Y236749D01*
X114000Y236763D01*
X113862Y236791D01*
X113723Y236818D01*
X113584Y236874D01*
X113431Y236943D01*
X113417Y236957D01*
X113362Y236985D01*
X113293Y237027D01*
X113195Y237096D01*
X113084Y237179D01*
X112973Y237276D01*
X112848Y237401D01*
X112737Y237540D01*
X112723Y237554D01*
X112696Y237610D01*
X112640Y237693D01*
X112571Y237818D01*
X112501Y237970D01*
X112418Y238137D01*
X112349Y238331D01*
X112279Y238553D01*
X112265Y238581D01*
X112251Y238664D01*
X112224Y238789D01*
X112196Y238956D01*
X112154Y239150D01*
X112127Y239386D01*
X112113Y239650D01*
X112099Y239941D01*
Y240066D01*
X112113Y240205D01*
Y240386D01*
X112127Y240594D01*
X112154Y240816D01*
X112182Y241038D01*
X112224Y241260D01*
Y241288D01*
X112251Y241343D01*
X112279Y241454D01*
X112321Y241579D01*
X112363Y241718D01*
X112418Y241871D01*
X112487Y242023D01*
X112571Y242162D01*
X112585Y242176D01*
X112612Y242218D01*
X112654Y242287D01*
X112723Y242356D01*
X112793Y242440D01*
X112890Y242523D01*
X112987Y242606D01*
X113098Y242676D01*
X113112D01*
X113154Y242704D01*
X113209Y242731D01*
X113293Y242759D01*
X113390Y242787D01*
X113501Y242814D01*
X113626Y242828D01*
X113751Y242842D01*
X113764D01*
X113792D01*
X113834D01*
X113889Y242828D01*
D02*
G37*
G36*
X118039Y235625D02*
X118234Y235611D01*
X118442Y235583D01*
X118678Y235555D01*
X118928Y235500D01*
X119164Y235430D01*
X119178D01*
X119192Y235417D01*
X119275Y235389D01*
X119386Y235347D01*
X119538Y235278D01*
X119705Y235194D01*
X119885Y235083D01*
X120066Y234972D01*
X120246Y234834D01*
X120260Y234820D01*
X120316Y234764D01*
X120399Y234681D01*
X120510Y234570D01*
X120621Y234431D01*
X120732Y234264D01*
X120857Y234084D01*
X120954Y233890D01*
X120968Y233862D01*
X120996Y233792D01*
X121037Y233682D01*
X121079Y233529D01*
X121121Y233348D01*
X121162Y233140D01*
X121190Y232904D01*
X121204Y232654D01*
Y232543D01*
X121190Y232418D01*
X121176Y232252D01*
X121149Y232071D01*
X121107Y231877D01*
X121051Y231669D01*
X120982Y231475D01*
X120968Y231447D01*
X120940Y231391D01*
X120899Y231294D01*
X120829Y231169D01*
X120746Y231030D01*
X120649Y230878D01*
X120538Y230739D01*
X120399Y230600D01*
X120385Y230586D01*
X120330Y230545D01*
X120260Y230475D01*
X120149Y230406D01*
X120024Y230323D01*
X119872Y230225D01*
X119691Y230142D01*
X119511Y230073D01*
X119483Y230059D01*
X119427Y230045D01*
X119316Y230017D01*
X119178Y229976D01*
X119011Y229934D01*
X118817Y229906D01*
X118595Y229892D01*
X118372Y229878D01*
X118345D01*
X118262D01*
X118137D01*
X117970Y229892D01*
X117956D01*
X117928D01*
X117887D01*
X117817Y229906D01*
X117678D01*
X117512Y229920D01*
Y234084D01*
X117498D01*
X117443D01*
X117359Y234070D01*
X117262D01*
X117137Y234056D01*
X117012Y234029D01*
X116762Y233959D01*
X116749D01*
X116707Y233931D01*
X116651Y233904D01*
X116582Y233862D01*
X116416Y233751D01*
X116235Y233598D01*
X116221Y233584D01*
X116207Y233557D01*
X116166Y233501D01*
X116124Y233446D01*
X116068Y233362D01*
X116013Y233265D01*
X115916Y233043D01*
Y233029D01*
X115902Y232987D01*
X115888Y232918D01*
X115860Y232821D01*
X115846Y232710D01*
X115819Y232585D01*
X115805Y232307D01*
Y232141D01*
X115819Y232016D01*
Y231863D01*
X115832Y231697D01*
X115846Y231516D01*
X115874Y231322D01*
Y231294D01*
X115888Y231225D01*
X115902Y231128D01*
X115930Y230989D01*
X115957Y230822D01*
X115999Y230642D01*
X116055Y230434D01*
X116110Y230225D01*
X114902D01*
Y230239D01*
X114889Y230267D01*
X114875Y230323D01*
X114861Y230392D01*
X114805Y230558D01*
X114764Y230767D01*
Y230808D01*
X114750Y230864D01*
X114736Y230947D01*
X114722Y231030D01*
X114708Y231128D01*
X114680Y231350D01*
Y231405D01*
X114667Y231461D01*
X114653Y231544D01*
X114639Y231627D01*
Y231738D01*
X114611Y231960D01*
Y232016D01*
X114597Y232071D01*
Y232141D01*
X114583Y232335D01*
Y232668D01*
X114597Y232807D01*
X114611Y232987D01*
X114625Y233182D01*
X114667Y233404D01*
X114708Y233626D01*
X114778Y233848D01*
X114792Y233876D01*
X114819Y233945D01*
X114861Y234042D01*
X114930Y234181D01*
X115014Y234334D01*
X115125Y234500D01*
X115250Y234667D01*
X115388Y234820D01*
X115402Y234834D01*
X115458Y234889D01*
X115541Y234958D01*
X115666Y235042D01*
X115805Y235139D01*
X115985Y235250D01*
X116180Y235347D01*
X116388Y235430D01*
X116402D01*
X116416Y235444D01*
X116499Y235458D01*
X116624Y235500D01*
X116790Y235527D01*
X116984Y235569D01*
X117220Y235611D01*
X117484Y235625D01*
X117762Y235639D01*
X117776D01*
X117803D01*
X117831D01*
X117887D01*
X118039Y235625D01*
D02*
G37*
G36*
X133122Y298156D02*
X133110Y298056D01*
Y297922D01*
X133088Y297767D01*
X133066Y297600D01*
X133033Y297434D01*
X132988Y297278D01*
Y297256D01*
X132966Y297211D01*
X132933Y297134D01*
X132899Y297045D01*
X132855Y296934D01*
X132788Y296823D01*
X132722Y296711D01*
X132644Y296611D01*
X132633Y296600D01*
X132599Y296567D01*
X132555Y296523D01*
X132488Y296467D01*
X132411Y296400D01*
X132322Y296334D01*
X132211Y296278D01*
X132099Y296223D01*
X132088Y296212D01*
X132044Y296200D01*
X131977Y296178D01*
X131888Y296156D01*
X131788Y296134D01*
X131666Y296111D01*
X131544Y296089D01*
X131400D01*
X131388D01*
X131344D01*
X131288D01*
X131211Y296100D01*
X131122Y296111D01*
X131022Y296134D01*
X130811Y296189D01*
X130800D01*
X130766Y296200D01*
X130711Y296223D01*
X130655Y296256D01*
X130489Y296334D01*
X130322Y296456D01*
X130311Y296467D01*
X130289Y296489D01*
X130244Y296523D01*
X130189Y296578D01*
X130133Y296645D01*
X130066Y296723D01*
X129933Y296900D01*
X129922Y296911D01*
X129911Y296945D01*
X129877Y297000D01*
X129844Y297067D01*
X129811Y297156D01*
X129766Y297256D01*
X129733Y297378D01*
X129700Y297500D01*
Y297489D01*
X129677Y297456D01*
X129655Y297400D01*
X129622Y297334D01*
X129578Y297267D01*
X129511Y297189D01*
X129444Y297111D01*
X129355Y297034D01*
X129344Y297023D01*
X129311Y297000D01*
X129266Y296956D01*
X129189Y296911D01*
X129100Y296845D01*
X129000Y296778D01*
X128866Y296711D01*
X128733Y296634D01*
X126589Y295589D01*
Y296600D01*
X128678Y297578D01*
X128689D01*
X128722Y297600D01*
X128755Y297622D01*
X128811Y297645D01*
X128944Y297722D01*
X129066Y297811D01*
X129077D01*
X129100Y297834D01*
X129166Y297878D01*
X129244Y297956D01*
X129322Y298056D01*
Y298067D01*
X129333Y298078D01*
X129377Y298145D01*
X129411Y298234D01*
X129455Y298345D01*
Y298356D01*
X129466Y298367D01*
Y298400D01*
X129478Y298445D01*
X129489Y298556D01*
X129500Y298700D01*
Y299111D01*
X126589D01*
Y300000D01*
X133122D01*
Y298156D01*
D02*
G37*
G36*
Y290501D02*
X132366D01*
Y293334D01*
X130355D01*
Y290612D01*
X129600D01*
Y293334D01*
X127344D01*
Y290501D01*
X126589D01*
Y294223D01*
X133122D01*
Y290501D01*
D02*
G37*
G36*
Y288557D02*
X128711Y287157D01*
X127422Y286757D01*
X128711Y286346D01*
X133122Y284935D01*
Y283979D01*
X126589Y286201D01*
Y287401D01*
X133122Y289568D01*
Y288557D01*
D02*
G37*
G36*
X129044Y281546D02*
X129066Y281524D01*
X129111Y281480D01*
X129189Y281402D01*
X129289Y281302D01*
X129400Y281191D01*
X129522Y281080D01*
X129644Y280969D01*
X129755Y280869D01*
X129766Y280857D01*
X129811Y280824D01*
X129866Y280780D01*
X129933Y280724D01*
X130022Y280658D01*
X130111Y280591D01*
X130300Y280469D01*
X130311Y280457D01*
X130344Y280446D01*
X130388Y280413D01*
X130455Y280380D01*
X130600Y280313D01*
X130766Y280269D01*
X130777D01*
X130811Y280258D01*
X130855Y280246D01*
X130911Y280235D01*
X130977D01*
X131066Y280224D01*
X131244Y280213D01*
X131255D01*
X131288D01*
X131333D01*
X131388Y280224D01*
X131544Y280235D01*
X131700Y280280D01*
X131711D01*
X131733Y280291D01*
X131777Y280302D01*
X131833Y280324D01*
X131955Y280391D01*
X132088Y280480D01*
X132099Y280491D01*
X132122Y280502D01*
X132144Y280535D01*
X132188Y280569D01*
X132266Y280691D01*
X132355Y280835D01*
Y280846D01*
X132366Y280869D01*
X132388Y280913D01*
X132411Y280980D01*
X132422Y281058D01*
X132444Y281135D01*
X132455Y281235D01*
Y281413D01*
X132444Y281491D01*
X132433Y281591D01*
X132411Y281713D01*
X132377Y281835D01*
X132333Y281968D01*
X132266Y282102D01*
X132255Y282113D01*
X132233Y282157D01*
X132188Y282224D01*
X132133Y282313D01*
X132066Y282402D01*
X131988Y282513D01*
X131888Y282613D01*
X131788Y282724D01*
X132355Y283202D01*
X132377Y283179D01*
X132422Y283135D01*
X132488Y283057D01*
X132577Y282957D01*
X132677Y282835D01*
X132777Y282691D01*
X132888Y282535D01*
X132977Y282357D01*
Y282346D01*
X132988Y282335D01*
X133010Y282268D01*
X133055Y282168D01*
X133099Y282035D01*
X133144Y281869D01*
X133188Y281680D01*
X133210Y281469D01*
X133222Y281235D01*
Y281157D01*
X133210Y281080D01*
Y280969D01*
X133188Y280846D01*
X133166Y280713D01*
X133133Y280569D01*
X133088Y280435D01*
X133077Y280424D01*
X133066Y280380D01*
X133033Y280313D01*
X132988Y280224D01*
X132933Y280124D01*
X132877Y280024D01*
X132711Y279824D01*
X132699Y279813D01*
X132666Y279780D01*
X132610Y279735D01*
X132544Y279669D01*
X132455Y279602D01*
X132355Y279535D01*
X132244Y279469D01*
X132111Y279413D01*
X132099Y279402D01*
X132044Y279391D01*
X131977Y279369D01*
X131877Y279335D01*
X131755Y279313D01*
X131622Y279291D01*
X131477Y279280D01*
X131311Y279269D01*
X131299D01*
X131244D01*
X131177D01*
X131077Y279280D01*
X130977Y279291D01*
X130855Y279313D01*
X130611Y279369D01*
X130600D01*
X130555Y279391D01*
X130489Y279413D01*
X130411Y279447D01*
X130311Y279491D01*
X130200Y279546D01*
X129966Y279680D01*
X129955Y279691D01*
X129911Y279713D01*
X129855Y279758D01*
X129766Y279813D01*
X129666Y279891D01*
X129555Y279980D01*
X129433Y280080D01*
X129311Y280191D01*
X129300Y280202D01*
X129255Y280246D01*
X129189Y280313D01*
X129100Y280391D01*
X128989Y280502D01*
X128866Y280624D01*
X128722Y280757D01*
X128578Y280913D01*
X127422Y282091D01*
Y278913D01*
X126589D01*
Y283224D01*
X127367D01*
X129044Y281546D01*
D02*
G37*
G36*
X130122Y277869D02*
X130311Y277858D01*
X130522Y277847D01*
X130744Y277813D01*
X130988Y277780D01*
X131222Y277736D01*
X131233D01*
X131255Y277724D01*
X131277Y277713D01*
X131322Y277702D01*
X131444Y277669D01*
X131588Y277625D01*
X131755Y277558D01*
X131933Y277480D01*
X132111Y277380D01*
X132288Y277280D01*
X132310Y277269D01*
X132366Y277224D01*
X132444Y277158D01*
X132544Y277069D01*
X132655Y276969D01*
X132766Y276836D01*
X132877Y276691D01*
X132977Y276525D01*
X132988Y276502D01*
X133010Y276447D01*
X133055Y276347D01*
X133099Y276225D01*
X133144Y276069D01*
X133188Y275880D01*
X133210Y275680D01*
X133222Y275458D01*
Y275369D01*
X133210Y275269D01*
X133199Y275147D01*
X133177Y275003D01*
X133133Y274836D01*
X133088Y274680D01*
X133022Y274514D01*
X133010Y274491D01*
X132988Y274436D01*
X132933Y274358D01*
X132866Y274258D01*
X132788Y274147D01*
X132677Y274025D01*
X132555Y273903D01*
X132411Y273780D01*
X132388Y273769D01*
X132333Y273725D01*
X132244Y273669D01*
X132122Y273603D01*
X131977Y273525D01*
X131788Y273447D01*
X131588Y273369D01*
X131355Y273303D01*
X131344D01*
X131322Y273292D01*
X131288D01*
X131244Y273281D01*
X131177Y273258D01*
X131111Y273247D01*
X131022Y273236D01*
X130933Y273214D01*
X130711Y273192D01*
X130455Y273158D01*
X130166Y273147D01*
X129855Y273136D01*
X129844D01*
X129822D01*
X129777D01*
X129733D01*
X129666D01*
X129589Y273147D01*
X129400Y273158D01*
X129189Y273169D01*
X128955Y273203D01*
X128711Y273236D01*
X128478Y273292D01*
X128466D01*
X128455Y273303D01*
X128422D01*
X128378Y273314D01*
X128267Y273358D01*
X128122Y273403D01*
X127955Y273469D01*
X127778Y273547D01*
X127600Y273636D01*
X127422Y273747D01*
X127400Y273758D01*
X127344Y273803D01*
X127267Y273869D01*
X127167Y273958D01*
X127056Y274058D01*
X126944Y274191D01*
X126833Y274336D01*
X126733Y274503D01*
X126722Y274525D01*
X126700Y274580D01*
X126655Y274680D01*
X126622Y274802D01*
X126578Y274958D01*
X126533Y275136D01*
X126511Y275336D01*
X126500Y275558D01*
Y275647D01*
X126511Y275747D01*
X126522Y275880D01*
X126544Y276025D01*
X126578Y276191D01*
X126622Y276358D01*
X126689Y276525D01*
X126700Y276547D01*
X126722Y276591D01*
X126778Y276669D01*
X126844Y276769D01*
X126922Y276891D01*
X127033Y277013D01*
X127155Y277136D01*
X127300Y277258D01*
X127322Y277269D01*
X127378Y277302D01*
X127467Y277358D01*
X127589Y277425D01*
X127733Y277502D01*
X127911Y277580D01*
X128122Y277658D01*
X128344Y277724D01*
X128355D01*
X128378Y277736D01*
X128411D01*
X128455Y277747D01*
X128522Y277758D01*
X128589Y277769D01*
X128678Y277791D01*
X128766Y277802D01*
X128989Y277836D01*
X129244Y277858D01*
X129544Y277869D01*
X129855Y277880D01*
X129866D01*
X129889D01*
X129933D01*
X129977D01*
X130044D01*
X130122Y277869D01*
D02*
G37*
G36*
X133155Y269936D02*
Y269159D01*
X127400D01*
Y267703D01*
X126589D01*
Y271803D01*
X127400D01*
Y270125D01*
X132166D01*
X131322Y271692D01*
X132066Y272003D01*
X133155Y269936D01*
D02*
G37*
G36*
X131211Y266548D02*
X131322Y266537D01*
X131455Y266526D01*
X131588Y266492D01*
X131744Y266459D01*
X131888Y266403D01*
X131911Y266392D01*
X131955Y266370D01*
X132033Y266337D01*
X132122Y266281D01*
X132233Y266214D01*
X132344Y266137D01*
X132466Y266048D01*
X132577Y265937D01*
X132588Y265926D01*
X132622Y265881D01*
X132677Y265814D01*
X132744Y265737D01*
X132822Y265626D01*
X132899Y265515D01*
X132977Y265370D01*
X133044Y265226D01*
X133055Y265203D01*
X133077Y265148D01*
X133099Y265070D01*
X133133Y264948D01*
X133166Y264815D01*
X133199Y264659D01*
X133210Y264481D01*
X133222Y264304D01*
Y264226D01*
X133210Y264126D01*
X133199Y264015D01*
X133177Y263881D01*
X133155Y263726D01*
X133110Y263570D01*
X133055Y263415D01*
X133044Y263392D01*
X133022Y263348D01*
X132988Y263270D01*
X132933Y263170D01*
X132855Y263048D01*
X132766Y262937D01*
X132666Y262815D01*
X132533Y262693D01*
X132522Y262682D01*
X132466Y262648D01*
X132388Y262593D01*
X132288Y262526D01*
X132155Y262448D01*
X132000Y262370D01*
X131811Y262293D01*
X131611Y262226D01*
X131599D01*
X131588Y262215D01*
X131555Y262204D01*
X131511Y262193D01*
X131455Y262182D01*
X131388Y262170D01*
X131222Y262137D01*
X131022Y262104D01*
X130789Y262070D01*
X130522Y262059D01*
X130222Y262048D01*
X130211D01*
X130177D01*
X130133D01*
X130066D01*
X129977Y262059D01*
X129889D01*
X129777Y262070D01*
X129655Y262082D01*
X129400Y262104D01*
X129122Y262148D01*
X128844Y262204D01*
X128578Y262282D01*
X128567D01*
X128544Y262293D01*
X128511Y262304D01*
X128466Y262326D01*
X128333Y262382D01*
X128178Y262459D01*
X128000Y262548D01*
X127811Y262670D01*
X127622Y262815D01*
X127444Y262970D01*
X127422Y262993D01*
X127367Y263048D01*
X127289Y263148D01*
X127200Y263270D01*
X127089Y263437D01*
X126978Y263626D01*
X126878Y263837D01*
X126789Y264081D01*
Y264092D01*
X126778Y264115D01*
X126767Y264148D01*
X126755Y264204D01*
X126744Y264259D01*
X126722Y264337D01*
X126711Y264426D01*
X126689Y264526D01*
X126655Y264748D01*
X126622Y265003D01*
X126600Y265303D01*
X126589Y265615D01*
Y266159D01*
X127344D01*
Y265448D01*
X127356Y265326D01*
Y265181D01*
X127378Y265003D01*
X127400Y264815D01*
X127422Y264626D01*
X127467Y264448D01*
Y264437D01*
X127478Y264426D01*
X127489Y264370D01*
X127522Y264281D01*
X127567Y264170D01*
X127622Y264048D01*
X127689Y263915D01*
X127767Y263781D01*
X127855Y263659D01*
X127866Y263648D01*
X127900Y263604D01*
X127955Y263548D01*
X128033Y263481D01*
X128122Y263404D01*
X128222Y263326D01*
X128333Y263248D01*
X128466Y263181D01*
X128489Y263170D01*
X128533Y263159D01*
X128611Y263126D01*
X128711Y263093D01*
X128833Y263059D01*
X128978Y263026D01*
X129133Y262993D01*
X129300Y262970D01*
X129511Y262948D01*
X129500Y262959D01*
X129478Y263004D01*
X129444Y263070D01*
X129400Y263159D01*
X129355Y263270D01*
X129300Y263392D01*
X129255Y263537D01*
X129211Y263681D01*
Y263704D01*
X129189Y263748D01*
X129177Y263837D01*
X129155Y263948D01*
X129133Y264081D01*
X129122Y264226D01*
X129100Y264392D01*
Y264659D01*
X129111Y264748D01*
X129122Y264870D01*
X129133Y265003D01*
X129166Y265148D01*
X129200Y265303D01*
X129244Y265448D01*
X129255Y265459D01*
X129266Y265504D01*
X129300Y265581D01*
X129344Y265659D01*
X129411Y265759D01*
X129478Y265870D01*
X129555Y265970D01*
X129644Y266070D01*
X129655Y266081D01*
X129689Y266114D01*
X129744Y266159D01*
X129822Y266203D01*
X129911Y266270D01*
X130022Y266326D01*
X130133Y266381D01*
X130266Y266437D01*
X130277D01*
X130333Y266459D01*
X130400Y266470D01*
X130500Y266492D01*
X130611Y266514D01*
X130744Y266537D01*
X130888Y266548D01*
X131044Y266559D01*
X131066D01*
X131122D01*
X131211Y266548D01*
D02*
G37*
G36*
X130122Y260971D02*
X130311Y260960D01*
X130522Y260948D01*
X130744Y260915D01*
X130988Y260882D01*
X131222Y260837D01*
X131233D01*
X131255Y260826D01*
X131277Y260815D01*
X131322Y260804D01*
X131444Y260771D01*
X131588Y260726D01*
X131755Y260660D01*
X131933Y260582D01*
X132111Y260482D01*
X132288Y260382D01*
X132310Y260371D01*
X132366Y260326D01*
X132444Y260260D01*
X132544Y260171D01*
X132655Y260071D01*
X132766Y259937D01*
X132877Y259793D01*
X132977Y259626D01*
X132988Y259604D01*
X133010Y259548D01*
X133055Y259449D01*
X133099Y259326D01*
X133144Y259171D01*
X133188Y258982D01*
X133210Y258782D01*
X133222Y258560D01*
Y258471D01*
X133210Y258371D01*
X133199Y258249D01*
X133177Y258104D01*
X133133Y257938D01*
X133088Y257782D01*
X133022Y257615D01*
X133010Y257593D01*
X132988Y257538D01*
X132933Y257460D01*
X132866Y257360D01*
X132788Y257249D01*
X132677Y257126D01*
X132555Y257004D01*
X132411Y256882D01*
X132388Y256871D01*
X132333Y256826D01*
X132244Y256771D01*
X132122Y256704D01*
X131977Y256627D01*
X131788Y256549D01*
X131588Y256471D01*
X131355Y256404D01*
X131344D01*
X131322Y256393D01*
X131288D01*
X131244Y256382D01*
X131177Y256360D01*
X131111Y256349D01*
X131022Y256338D01*
X130933Y256315D01*
X130711Y256293D01*
X130455Y256260D01*
X130166Y256249D01*
X129855Y256238D01*
X129844D01*
X129822D01*
X129777D01*
X129733D01*
X129666D01*
X129589Y256249D01*
X129400Y256260D01*
X129189Y256271D01*
X128955Y256304D01*
X128711Y256338D01*
X128478Y256393D01*
X128466D01*
X128455Y256404D01*
X128422D01*
X128378Y256416D01*
X128267Y256460D01*
X128122Y256504D01*
X127955Y256571D01*
X127778Y256649D01*
X127600Y256738D01*
X127422Y256849D01*
X127400Y256860D01*
X127344Y256904D01*
X127267Y256971D01*
X127167Y257060D01*
X127056Y257160D01*
X126944Y257293D01*
X126833Y257438D01*
X126733Y257604D01*
X126722Y257627D01*
X126700Y257682D01*
X126655Y257782D01*
X126622Y257904D01*
X126578Y258060D01*
X126533Y258238D01*
X126511Y258437D01*
X126500Y258660D01*
Y258749D01*
X126511Y258849D01*
X126522Y258982D01*
X126544Y259126D01*
X126578Y259293D01*
X126622Y259460D01*
X126689Y259626D01*
X126700Y259648D01*
X126722Y259693D01*
X126778Y259771D01*
X126844Y259871D01*
X126922Y259993D01*
X127033Y260115D01*
X127155Y260237D01*
X127300Y260360D01*
X127322Y260371D01*
X127378Y260404D01*
X127467Y260459D01*
X127589Y260526D01*
X127733Y260604D01*
X127911Y260682D01*
X128122Y260759D01*
X128344Y260826D01*
X128355D01*
X128378Y260837D01*
X128411D01*
X128455Y260848D01*
X128522Y260859D01*
X128589Y260871D01*
X128678Y260893D01*
X128766Y260904D01*
X128989Y260937D01*
X129244Y260960D01*
X129544Y260971D01*
X129855Y260982D01*
X129866D01*
X129889D01*
X129933D01*
X129977D01*
X130044D01*
X130122Y260971D01*
D02*
G37*
G36*
X131211Y255282D02*
X131322Y255271D01*
X131455Y255260D01*
X131588Y255227D01*
X131744Y255193D01*
X131888Y255138D01*
X131911Y255127D01*
X131955Y255104D01*
X132033Y255071D01*
X132122Y255016D01*
X132233Y254949D01*
X132344Y254871D01*
X132466Y254782D01*
X132577Y254671D01*
X132588Y254660D01*
X132622Y254616D01*
X132677Y254549D01*
X132744Y254471D01*
X132822Y254360D01*
X132899Y254249D01*
X132977Y254105D01*
X133044Y253960D01*
X133055Y253938D01*
X133077Y253882D01*
X133099Y253805D01*
X133133Y253682D01*
X133166Y253549D01*
X133199Y253394D01*
X133210Y253216D01*
X133222Y253038D01*
Y252960D01*
X133210Y252860D01*
X133199Y252749D01*
X133177Y252616D01*
X133155Y252460D01*
X133110Y252305D01*
X133055Y252149D01*
X133044Y252127D01*
X133022Y252083D01*
X132988Y252005D01*
X132933Y251905D01*
X132855Y251783D01*
X132766Y251672D01*
X132666Y251549D01*
X132533Y251427D01*
X132522Y251416D01*
X132466Y251383D01*
X132388Y251327D01*
X132288Y251260D01*
X132155Y251183D01*
X132000Y251105D01*
X131811Y251027D01*
X131611Y250960D01*
X131599D01*
X131588Y250949D01*
X131555Y250938D01*
X131511Y250927D01*
X131455Y250916D01*
X131388Y250905D01*
X131222Y250872D01*
X131022Y250838D01*
X130789Y250805D01*
X130522Y250794D01*
X130222Y250783D01*
X130211D01*
X130177D01*
X130133D01*
X130066D01*
X129977Y250794D01*
X129889D01*
X129777Y250805D01*
X129655Y250816D01*
X129400Y250838D01*
X129122Y250883D01*
X128844Y250938D01*
X128578Y251016D01*
X128567D01*
X128544Y251027D01*
X128511Y251038D01*
X128466Y251060D01*
X128333Y251116D01*
X128178Y251194D01*
X128000Y251283D01*
X127811Y251405D01*
X127622Y251549D01*
X127444Y251705D01*
X127422Y251727D01*
X127367Y251783D01*
X127289Y251883D01*
X127200Y252005D01*
X127089Y252171D01*
X126978Y252360D01*
X126878Y252571D01*
X126789Y252816D01*
Y252827D01*
X126778Y252849D01*
X126767Y252883D01*
X126755Y252938D01*
X126744Y252994D01*
X126722Y253071D01*
X126711Y253160D01*
X126689Y253260D01*
X126655Y253482D01*
X126622Y253738D01*
X126600Y254038D01*
X126589Y254349D01*
Y254893D01*
X127344D01*
Y254182D01*
X127356Y254060D01*
Y253916D01*
X127378Y253738D01*
X127400Y253549D01*
X127422Y253360D01*
X127467Y253183D01*
Y253171D01*
X127478Y253160D01*
X127489Y253105D01*
X127522Y253016D01*
X127567Y252905D01*
X127622Y252783D01*
X127689Y252649D01*
X127767Y252516D01*
X127855Y252394D01*
X127866Y252382D01*
X127900Y252338D01*
X127955Y252283D01*
X128033Y252216D01*
X128122Y252138D01*
X128222Y252060D01*
X128333Y251983D01*
X128466Y251916D01*
X128489Y251905D01*
X128533Y251894D01*
X128611Y251860D01*
X128711Y251827D01*
X128833Y251794D01*
X128978Y251760D01*
X129133Y251727D01*
X129300Y251705D01*
X129511Y251683D01*
X129500Y251694D01*
X129478Y251738D01*
X129444Y251805D01*
X129400Y251894D01*
X129355Y252005D01*
X129300Y252127D01*
X129255Y252271D01*
X129211Y252416D01*
Y252438D01*
X129189Y252483D01*
X129177Y252571D01*
X129155Y252682D01*
X129133Y252816D01*
X129122Y252960D01*
X129100Y253127D01*
Y253394D01*
X129111Y253482D01*
X129122Y253605D01*
X129133Y253738D01*
X129166Y253882D01*
X129200Y254038D01*
X129244Y254182D01*
X129255Y254193D01*
X129266Y254238D01*
X129300Y254316D01*
X129344Y254393D01*
X129411Y254493D01*
X129478Y254605D01*
X129555Y254704D01*
X129644Y254804D01*
X129655Y254816D01*
X129689Y254849D01*
X129744Y254893D01*
X129822Y254938D01*
X129911Y255005D01*
X130022Y255060D01*
X130133Y255116D01*
X130266Y255171D01*
X130277D01*
X130333Y255193D01*
X130400Y255205D01*
X130500Y255227D01*
X130611Y255249D01*
X130744Y255271D01*
X130888Y255282D01*
X131044Y255293D01*
X131066D01*
X131122D01*
X131211Y255282D01*
D02*
G37*
G36*
X127367Y249327D02*
X127356Y249283D01*
X127344Y249227D01*
X127333Y249149D01*
X127322Y249049D01*
X127311Y248938D01*
X127278Y248694D01*
Y248627D01*
X127267Y248561D01*
Y248361D01*
X127255Y248238D01*
Y247805D01*
X127267Y247694D01*
X127278Y247561D01*
X127289Y247428D01*
X127311Y247283D01*
X127333Y247150D01*
Y247139D01*
X127356Y247094D01*
X127367Y247027D01*
X127400Y246950D01*
X127478Y246761D01*
X127533Y246672D01*
X127589Y246583D01*
X127600Y246572D01*
X127622Y246550D01*
X127655Y246505D01*
X127700Y246461D01*
X127833Y246350D01*
X127900Y246305D01*
X127989Y246261D01*
X128000D01*
X128033Y246239D01*
X128078Y246228D01*
X128144Y246205D01*
X128222Y246183D01*
X128311Y246172D01*
X128522Y246150D01*
X128533D01*
X128567D01*
X128622Y246161D01*
X128678D01*
X128833Y246205D01*
X128911Y246228D01*
X128989Y246272D01*
X129000D01*
X129022Y246294D01*
X129055Y246328D01*
X129111Y246361D01*
X129211Y246472D01*
X129322Y246616D01*
X129333Y246628D01*
X129344Y246650D01*
X129366Y246694D01*
X129400Y246761D01*
X129433Y246839D01*
X129466Y246927D01*
X129500Y247027D01*
X129522Y247139D01*
Y247150D01*
X129533Y247194D01*
X129544Y247250D01*
X129566Y247327D01*
X129578Y247428D01*
X129589Y247539D01*
X129600Y247794D01*
Y248538D01*
X130311D01*
Y247672D01*
X130322Y247605D01*
X130333Y247516D01*
X130344Y247428D01*
X130388Y247239D01*
Y247228D01*
X130400Y247194D01*
X130422Y247150D01*
X130444Y247094D01*
X130511Y246961D01*
X130611Y246828D01*
X130622Y246816D01*
X130633Y246794D01*
X130666Y246761D01*
X130711Y246728D01*
X130822Y246639D01*
X130966Y246561D01*
X130977D01*
X131000Y246550D01*
X131044Y246528D01*
X131111Y246505D01*
X131177Y246494D01*
X131266Y246472D01*
X131455Y246461D01*
X131466D01*
X131477D01*
X131544D01*
X131633Y246472D01*
X131744Y246505D01*
X131877Y246539D01*
X132000Y246594D01*
X132122Y246672D01*
X132222Y246783D01*
X132233Y246794D01*
X132255Y246839D01*
X132299Y246916D01*
X132344Y247016D01*
X132388Y247150D01*
X132433Y247316D01*
X132455Y247505D01*
X132466Y247727D01*
Y247850D01*
X132455Y247938D01*
Y248039D01*
X132444Y248161D01*
X132399Y248416D01*
Y248427D01*
X132388Y248472D01*
X132377Y248550D01*
X132355Y248639D01*
X132322Y248750D01*
X132288Y248872D01*
X132255Y249016D01*
X132211Y249161D01*
X132966D01*
Y249149D01*
X132977Y249127D01*
X132988Y249094D01*
X132999Y249049D01*
X133033Y248938D01*
X133066Y248805D01*
Y248794D01*
X133077Y248772D01*
Y248727D01*
X133088Y248683D01*
X133122Y248561D01*
X133144Y248416D01*
Y248405D01*
X133155Y248383D01*
Y248350D01*
X133166Y248294D01*
X133177Y248172D01*
X133199Y248039D01*
Y248005D01*
X133210Y247961D01*
Y247916D01*
X133222Y247794D01*
Y247583D01*
X133210Y247483D01*
Y247361D01*
X133188Y247216D01*
X133166Y247072D01*
X133144Y246916D01*
X133099Y246761D01*
Y246739D01*
X133077Y246694D01*
X133055Y246616D01*
X133022Y246528D01*
X132977Y246416D01*
X132922Y246305D01*
X132855Y246194D01*
X132777Y246094D01*
X132766Y246083D01*
X132744Y246050D01*
X132699Y246005D01*
X132633Y245939D01*
X132555Y245883D01*
X132477Y245816D01*
X132377Y245750D01*
X132266Y245694D01*
X132255Y245683D01*
X132211Y245672D01*
X132155Y245650D01*
X132066Y245617D01*
X131966Y245594D01*
X131855Y245572D01*
X131722Y245561D01*
X131588Y245550D01*
X131577D01*
X131566D01*
X131500D01*
X131388Y245561D01*
X131266Y245583D01*
X131111Y245617D01*
X130955Y245672D01*
X130800Y245739D01*
X130644Y245839D01*
X130633Y245850D01*
X130577Y245894D01*
X130511Y245961D01*
X130433Y246050D01*
X130333Y246161D01*
X130233Y246294D01*
X130133Y246461D01*
X130044Y246639D01*
Y246628D01*
X130033Y246594D01*
X130022Y246550D01*
X130011Y246483D01*
X129989Y246405D01*
X129955Y246317D01*
X129877Y246139D01*
Y246128D01*
X129855Y246094D01*
X129833Y246050D01*
X129800Y245983D01*
X129700Y245839D01*
X129578Y245694D01*
X129566Y245683D01*
X129544Y245661D01*
X129500Y245628D01*
X129455Y245583D01*
X129389Y245528D01*
X129311Y245472D01*
X129133Y245372D01*
X129122Y245361D01*
X129089Y245350D01*
X129033Y245328D01*
X128966Y245305D01*
X128877Y245283D01*
X128789Y245261D01*
X128678Y245239D01*
X128567D01*
X128544D01*
X128489D01*
X128411Y245250D01*
X128300Y245261D01*
X128178Y245283D01*
X128044Y245317D01*
X127900Y245361D01*
X127755Y245417D01*
X127744Y245428D01*
X127689Y245450D01*
X127622Y245494D01*
X127533Y245550D01*
X127433Y245628D01*
X127322Y245717D01*
X127211Y245828D01*
X127100Y245950D01*
X127089Y245961D01*
X127056Y246017D01*
X127000Y246083D01*
X126944Y246183D01*
X126867Y246317D01*
X126800Y246461D01*
X126722Y246639D01*
X126655Y246828D01*
Y246839D01*
X126644Y246850D01*
Y246883D01*
X126633Y246916D01*
X126611Y247027D01*
X126578Y247183D01*
X126544Y247361D01*
X126522Y247572D01*
X126511Y247805D01*
X126500Y248061D01*
Y248294D01*
X126511Y248405D01*
Y248516D01*
X126533Y248761D01*
Y248816D01*
X126544Y248872D01*
Y248950D01*
X126556Y249038D01*
X126567Y249138D01*
X126589Y249338D01*
X127367D01*
Y249327D01*
D02*
G37*
G36*
X130122Y244072D02*
X130311Y244061D01*
X130522Y244050D01*
X130744Y244017D01*
X130988Y243983D01*
X131222Y243939D01*
X131233D01*
X131255Y243928D01*
X131277Y243917D01*
X131322Y243906D01*
X131444Y243872D01*
X131588Y243828D01*
X131755Y243761D01*
X131933Y243683D01*
X132111Y243583D01*
X132288Y243483D01*
X132310Y243472D01*
X132366Y243428D01*
X132444Y243361D01*
X132544Y243272D01*
X132655Y243172D01*
X132766Y243039D01*
X132877Y242895D01*
X132977Y242728D01*
X132988Y242706D01*
X133010Y242650D01*
X133055Y242550D01*
X133099Y242428D01*
X133144Y242272D01*
X133188Y242084D01*
X133210Y241884D01*
X133222Y241661D01*
Y241572D01*
X133210Y241473D01*
X133199Y241350D01*
X133177Y241206D01*
X133133Y241039D01*
X133088Y240884D01*
X133022Y240717D01*
X133010Y240695D01*
X132988Y240639D01*
X132933Y240562D01*
X132866Y240461D01*
X132788Y240350D01*
X132677Y240228D01*
X132555Y240106D01*
X132411Y239984D01*
X132388Y239973D01*
X132333Y239928D01*
X132244Y239873D01*
X132122Y239806D01*
X131977Y239728D01*
X131788Y239651D01*
X131588Y239573D01*
X131355Y239506D01*
X131344D01*
X131322Y239495D01*
X131288D01*
X131244Y239484D01*
X131177Y239462D01*
X131111Y239451D01*
X131022Y239439D01*
X130933Y239417D01*
X130711Y239395D01*
X130455Y239362D01*
X130166Y239351D01*
X129855Y239339D01*
X129844D01*
X129822D01*
X129777D01*
X129733D01*
X129666D01*
X129589Y239351D01*
X129400Y239362D01*
X129189Y239373D01*
X128955Y239406D01*
X128711Y239439D01*
X128478Y239495D01*
X128466D01*
X128455Y239506D01*
X128422D01*
X128378Y239517D01*
X128267Y239562D01*
X128122Y239606D01*
X127955Y239673D01*
X127778Y239751D01*
X127600Y239839D01*
X127422Y239950D01*
X127400Y239962D01*
X127344Y240006D01*
X127267Y240073D01*
X127167Y240161D01*
X127056Y240262D01*
X126944Y240395D01*
X126833Y240539D01*
X126733Y240706D01*
X126722Y240728D01*
X126700Y240784D01*
X126655Y240884D01*
X126622Y241006D01*
X126578Y241161D01*
X126533Y241339D01*
X126511Y241539D01*
X126500Y241761D01*
Y241850D01*
X126511Y241950D01*
X126522Y242084D01*
X126544Y242228D01*
X126578Y242395D01*
X126622Y242561D01*
X126689Y242728D01*
X126700Y242750D01*
X126722Y242795D01*
X126778Y242872D01*
X126844Y242972D01*
X126922Y243095D01*
X127033Y243217D01*
X127155Y243339D01*
X127300Y243461D01*
X127322Y243472D01*
X127378Y243506D01*
X127467Y243561D01*
X127589Y243628D01*
X127733Y243706D01*
X127911Y243783D01*
X128122Y243861D01*
X128344Y243928D01*
X128355D01*
X128378Y243939D01*
X128411D01*
X128455Y243950D01*
X128522Y243961D01*
X128589Y243972D01*
X128678Y243994D01*
X128766Y244006D01*
X128989Y244039D01*
X129244Y244061D01*
X129544Y244072D01*
X129855Y244083D01*
X129866D01*
X129889D01*
X129933D01*
X129977D01*
X130044D01*
X130122Y244072D01*
D02*
G37*
G36*
X129977Y238428D02*
X130066D01*
X130255Y238417D01*
X130466Y238395D01*
X130711Y238351D01*
X130955Y238306D01*
X131200Y238240D01*
X131211D01*
X131233Y238228D01*
X131266Y238217D01*
X131311Y238206D01*
X131422Y238151D01*
X131577Y238095D01*
X131744Y238006D01*
X131922Y237906D01*
X132111Y237795D01*
X132277Y237662D01*
X132299Y237640D01*
X132355Y237595D01*
X132433Y237506D01*
X132533Y237395D01*
X132644Y237262D01*
X132755Y237106D01*
X132866Y236929D01*
X132966Y236740D01*
Y236729D01*
X132977Y236717D01*
X132988Y236684D01*
X132999Y236640D01*
X133044Y236529D01*
X133088Y236384D01*
X133133Y236206D01*
X133177Y235995D01*
X133199Y235762D01*
X133210Y235518D01*
Y235351D01*
X133199Y235240D01*
X133188Y235106D01*
X133177Y234973D01*
X133133Y234673D01*
Y234651D01*
X133122Y234607D01*
X133099Y234529D01*
X133077Y234429D01*
X133044Y234318D01*
X132999Y234195D01*
X132899Y233918D01*
X132022D01*
X132033Y233929D01*
X132055Y233984D01*
X132088Y234051D01*
X132133Y234151D01*
X132177Y234262D01*
X132222Y234384D01*
X132310Y234662D01*
Y234684D01*
X132333Y234729D01*
X132344Y234806D01*
X132366Y234907D01*
X132388Y235029D01*
X132399Y235173D01*
X132422Y235329D01*
Y235573D01*
X132411Y235662D01*
X132399Y235773D01*
X132377Y235895D01*
X132344Y236040D01*
X132299Y236184D01*
X132244Y236329D01*
X132233Y236340D01*
X132211Y236384D01*
X132166Y236462D01*
X132111Y236540D01*
X132044Y236640D01*
X131955Y236751D01*
X131855Y236862D01*
X131733Y236962D01*
X131722Y236973D01*
X131677Y237006D01*
X131611Y237051D01*
X131511Y237106D01*
X131400Y237173D01*
X131255Y237240D01*
X131099Y237306D01*
X130933Y237362D01*
X130911D01*
X130855Y237384D01*
X130755Y237406D01*
X130622Y237428D01*
X130466Y237451D01*
X130289Y237473D01*
X130088Y237484D01*
X129866Y237495D01*
X129855D01*
X129811D01*
X129744D01*
X129655Y237484D01*
X129555D01*
X129433Y237473D01*
X129300Y237451D01*
X129155Y237428D01*
X128844Y237373D01*
X128522Y237284D01*
X128222Y237151D01*
X128089Y237073D01*
X127955Y236984D01*
X127944Y236973D01*
X127933Y236962D01*
X127900Y236929D01*
X127855Y236884D01*
X127811Y236840D01*
X127755Y236773D01*
X127689Y236695D01*
X127633Y236606D01*
X127578Y236506D01*
X127511Y236395D01*
X127455Y236262D01*
X127411Y236129D01*
X127367Y235984D01*
X127344Y235829D01*
X127322Y235651D01*
X127311Y235473D01*
Y235318D01*
X127322Y235218D01*
X127333Y235095D01*
X127344Y234962D01*
X127400Y234673D01*
Y234651D01*
X127422Y234607D01*
X127444Y234529D01*
X127478Y234429D01*
X127511Y234318D01*
X127555Y234195D01*
X127678Y233918D01*
X126833D01*
Y233929D01*
X126822Y233951D01*
X126800Y233996D01*
X126789Y234051D01*
X126755Y234129D01*
X126733Y234218D01*
X126700Y234307D01*
X126678Y234418D01*
X126611Y234673D01*
X126567Y234951D01*
X126522Y235251D01*
X126511Y235573D01*
Y235629D01*
X126522Y235706D01*
Y235806D01*
X126533Y235917D01*
X126556Y236051D01*
X126578Y236195D01*
X126611Y236362D01*
X126655Y236529D01*
X126711Y236706D01*
X126778Y236884D01*
X126856Y237062D01*
X126955Y237228D01*
X127067Y237395D01*
X127189Y237562D01*
X127333Y237706D01*
X127344Y237717D01*
X127378Y237740D01*
X127422Y237773D01*
X127489Y237817D01*
X127578Y237873D01*
X127678Y237940D01*
X127811Y238006D01*
X127955Y238073D01*
X128111Y238140D01*
X128300Y238206D01*
X128500Y238273D01*
X128711Y238328D01*
X128955Y238373D01*
X129211Y238406D01*
X129489Y238428D01*
X129777Y238439D01*
X129789D01*
X129811D01*
X129855D01*
X129911D01*
X129977Y238428D01*
D02*
G37*
%LPC*%
G36*
X103485Y269700D02*
X103471D01*
X103429D01*
X103360Y269686D01*
X103277Y269672D01*
X103180Y269645D01*
X103082Y269589D01*
X102985Y269533D01*
X102902Y269450D01*
X102888Y269436D01*
X102874Y269409D01*
X102846Y269353D01*
X102805Y269270D01*
X102763Y269173D01*
X102735Y269062D01*
X102721Y268923D01*
X102708Y268770D01*
Y268715D01*
X102721Y268645D01*
X102735Y268562D01*
X102763Y268465D01*
X102805Y268354D01*
X102860Y268229D01*
X102930Y268104D01*
X102944Y268090D01*
X102971Y268048D01*
X103027Y267965D01*
X103096Y267882D01*
X103193Y267771D01*
X103304Y267632D01*
X103443Y267493D01*
X103596Y267340D01*
X104443D01*
Y268423D01*
X104429Y268506D01*
X104415Y268728D01*
X104359Y268951D01*
Y268964D01*
X104345Y268992D01*
X104332Y269048D01*
X104304Y269103D01*
X104248Y269242D01*
X104151Y269381D01*
X104123Y269409D01*
X104068Y269478D01*
X103971Y269561D01*
X103846Y269631D01*
X103832D01*
X103818Y269645D01*
X103735Y269658D01*
X103624Y269686D01*
X103485Y269700D01*
D02*
G37*
G36*
X117887Y269436D02*
X117873D01*
X117845D01*
X117790D01*
X117720D01*
X117637Y269423D01*
X117554Y269409D01*
X117332Y269381D01*
X117096Y269339D01*
X116846Y269270D01*
X116610Y269173D01*
X116402Y269048D01*
X116374Y269034D01*
X116318Y268978D01*
X116249Y268881D01*
X116152Y268756D01*
X116055Y268604D01*
X115985Y268409D01*
X115930Y268201D01*
X115902Y267951D01*
Y267882D01*
X115916Y267812D01*
Y267715D01*
X115971Y267507D01*
X115999Y267396D01*
X116055Y267285D01*
X116068Y267271D01*
X116082Y267229D01*
X116124Y267188D01*
X116166Y267118D01*
X116290Y266966D01*
X116471Y266827D01*
X116485Y266813D01*
X116526Y266799D01*
X116582Y266771D01*
X116651Y266730D01*
X116749Y266688D01*
X116860Y266633D01*
X117109Y266563D01*
X117123D01*
X117179Y266549D01*
X117248Y266535D01*
X117345Y266508D01*
X117470Y266494D01*
X117595Y266480D01*
X117901Y266466D01*
X117914D01*
X117942D01*
X117998D01*
X118067D01*
X118150Y266480D01*
X118234D01*
X118456Y266508D01*
X118692Y266563D01*
X118942Y266619D01*
X119178Y266716D01*
X119386Y266841D01*
X119413Y266855D01*
X119469Y266910D01*
X119538Y266993D01*
X119636Y267118D01*
X119733Y267271D01*
X119802Y267465D01*
X119858Y267688D01*
X119885Y267951D01*
Y268021D01*
X119872Y268090D01*
Y268187D01*
X119816Y268395D01*
X119774Y268520D01*
X119719Y268631D01*
Y268645D01*
X119691Y268673D01*
X119650Y268728D01*
X119608Y268798D01*
X119469Y268937D01*
X119289Y269089D01*
X119275Y269103D01*
X119247Y269117D01*
X119192Y269145D01*
X119108Y269186D01*
X119025Y269228D01*
X118914Y269270D01*
X118664Y269353D01*
X118650D01*
X118608Y269367D01*
X118525Y269381D01*
X118428Y269395D01*
X118317Y269409D01*
X118178Y269423D01*
X117887Y269436D01*
D02*
G37*
G36*
X104942Y255834D02*
X104762D01*
X104734D01*
X104678D01*
X104581D01*
X104456Y255820D01*
X104304D01*
X104165Y255806D01*
X104012Y255792D01*
X103860Y255765D01*
X103846D01*
X103804Y255751D01*
X103735Y255737D01*
X103651Y255709D01*
X103457Y255654D01*
X103249Y255556D01*
X103235D01*
X103207Y255529D01*
X103124Y255459D01*
X102999Y255348D01*
X102902Y255209D01*
Y255195D01*
X102888Y255168D01*
X102874Y255126D01*
X102860Y255071D01*
X102819Y254918D01*
X102805Y254737D01*
Y254668D01*
X102819Y254599D01*
X102846Y254502D01*
X102874Y254390D01*
X102930Y254265D01*
X103013Y254127D01*
X103110Y254002D01*
X103124Y253988D01*
X103166Y253946D01*
X103235Y253877D01*
X103332Y253780D01*
X103457Y253669D01*
X103610Y253544D01*
X103776Y253405D01*
X103971Y253252D01*
X106747D01*
Y253266D01*
X106761Y253280D01*
X106774Y253322D01*
X106788Y253377D01*
X106830Y253530D01*
X106858Y253710D01*
Y253724D01*
X106872Y253752D01*
Y253807D01*
X106885Y253877D01*
X106899Y254043D01*
X106913Y254238D01*
Y254307D01*
X106899Y254377D01*
Y254460D01*
X106844Y254682D01*
X106816Y254793D01*
X106761Y254904D01*
Y254918D01*
X106733Y254946D01*
X106691Y255001D01*
X106649Y255071D01*
X106511Y255237D01*
X106330Y255404D01*
X106316Y255418D01*
X106275Y255431D01*
X106219Y255473D01*
X106136Y255515D01*
X106039Y255570D01*
X105928Y255626D01*
X105789Y255681D01*
X105650Y255723D01*
X105636D01*
X105581Y255737D01*
X105497Y255751D01*
X105400Y255778D01*
X105262Y255792D01*
X105109Y255820D01*
X104942Y255834D01*
D02*
G37*
G36*
X116568Y248075D02*
X116554D01*
X116513D01*
X116443Y248061D01*
X116360Y248047D01*
X116263Y248020D01*
X116166Y247964D01*
X116068Y247908D01*
X115985Y247825D01*
X115971Y247811D01*
X115957Y247784D01*
X115930Y247728D01*
X115888Y247645D01*
X115846Y247548D01*
X115819Y247437D01*
X115805Y247298D01*
X115791Y247145D01*
Y247090D01*
X115805Y247020D01*
X115819Y246937D01*
X115846Y246840D01*
X115888Y246729D01*
X115944Y246604D01*
X116013Y246479D01*
X116027Y246465D01*
X116055Y246423D01*
X116110Y246340D01*
X116180Y246257D01*
X116277Y246146D01*
X116388Y246007D01*
X116526Y245868D01*
X116679Y245715D01*
X117526D01*
Y246798D01*
X117512Y246881D01*
X117498Y247103D01*
X117443Y247325D01*
Y247339D01*
X117429Y247367D01*
X117415Y247423D01*
X117387Y247478D01*
X117332Y247617D01*
X117234Y247756D01*
X117207Y247784D01*
X117151Y247853D01*
X117054Y247936D01*
X116929Y248006D01*
X116915D01*
X116901Y248020D01*
X116818Y248033D01*
X116707Y248061D01*
X116568Y248075D01*
D02*
G37*
G36*
X118956Y241024D02*
X118928D01*
X118872D01*
X118789Y241010D01*
X118664Y240982D01*
X118539Y240955D01*
X118414Y240899D01*
X118289Y240830D01*
X118164Y240733D01*
X118150Y240719D01*
X118123Y240677D01*
X118067Y240608D01*
X118026Y240524D01*
X117970Y240399D01*
X117914Y240261D01*
X117887Y240094D01*
X117873Y239914D01*
Y239816D01*
X117887Y239747D01*
X117914Y239580D01*
X117956Y239414D01*
Y239400D01*
X117970Y239372D01*
X118026Y239289D01*
X118109Y239178D01*
X118206Y239067D01*
X118220D01*
X118234Y239039D01*
X118303Y238984D01*
X118428Y238914D01*
X118567Y238859D01*
X118581D01*
X118608Y238845D01*
X118650Y238831D01*
X118706Y238817D01*
X118831Y238803D01*
X118997Y238789D01*
X119025D01*
X119080D01*
X119178Y238803D01*
X119302Y238831D01*
X119427Y238859D01*
X119566Y238914D01*
X119691Y238998D01*
X119816Y239095D01*
X119830Y239109D01*
X119858Y239150D01*
X119913Y239220D01*
X119969Y239303D01*
X120024Y239428D01*
X120080Y239567D01*
X120107Y239733D01*
X120121Y239914D01*
Y240011D01*
X120107Y240080D01*
X120080Y240247D01*
X120024Y240413D01*
Y240427D01*
X120010Y240441D01*
X119955Y240538D01*
X119872Y240649D01*
X119761Y240760D01*
X119733Y240788D01*
X119663Y240844D01*
X119538Y240913D01*
X119400Y240968D01*
X119386D01*
X119358Y240982D01*
X119316D01*
X119261Y240996D01*
X119122Y241010D01*
X118956Y241024D01*
D02*
G37*
G36*
X113973Y241274D02*
X113889D01*
X113875D01*
X113834D01*
X113764Y241260D01*
X113681Y241232D01*
X113598Y241191D01*
X113514Y241121D01*
X113417Y241038D01*
X113348Y240913D01*
X113334Y240899D01*
X113320Y240844D01*
X113293Y240760D01*
X113265Y240635D01*
X113223Y240497D01*
X113195Y240316D01*
X113181Y240108D01*
X113168Y239872D01*
Y239719D01*
X113181Y239622D01*
X113209Y239386D01*
X113251Y239150D01*
Y239136D01*
X113265Y239095D01*
X113279Y239039D01*
X113306Y238970D01*
X113376Y238817D01*
X113473Y238664D01*
Y238650D01*
X113501Y238637D01*
X113556Y238553D01*
X113653Y238470D01*
X113778Y238387D01*
X113792D01*
X113806Y238373D01*
X113889Y238345D01*
X114000Y238317D01*
X114139Y238303D01*
X114153D01*
X114167D01*
X114236Y238317D01*
X114333Y238331D01*
X114417Y238387D01*
X114431Y238401D01*
X114486Y238442D01*
X114542Y238512D01*
X114611Y238609D01*
X114625Y238637D01*
X114653Y238706D01*
X114694Y238803D01*
X114722Y238942D01*
Y238956D01*
X114736Y238970D01*
Y239011D01*
X114750Y239067D01*
X114764Y239192D01*
Y239358D01*
X114792Y240691D01*
Y240705D01*
X114778Y240719D01*
X114722Y240802D01*
X114653Y240899D01*
X114569Y240996D01*
X114556Y241010D01*
X114500Y241066D01*
X114431Y241121D01*
X114347Y241177D01*
X114333Y241191D01*
X114278Y241204D01*
X114208Y241232D01*
X114125Y241260D01*
X114111D01*
X114056D01*
X113973Y241274D01*
D02*
G37*
G36*
X118608Y234070D02*
Y231433D01*
X118622D01*
X118664D01*
X118733D01*
X118831Y231447D01*
X119025Y231475D01*
X119247Y231530D01*
X119261D01*
X119289Y231544D01*
X119344Y231572D01*
X119413Y231599D01*
X119552Y231683D01*
X119705Y231808D01*
X119719Y231822D01*
X119733Y231835D01*
X119802Y231919D01*
X119899Y232044D01*
X119969Y232210D01*
Y232224D01*
X119983Y232252D01*
X119997Y232294D01*
X120024Y232349D01*
X120052Y232502D01*
X120066Y232696D01*
Y232793D01*
X120052Y232890D01*
X120024Y233029D01*
X119969Y233182D01*
X119899Y233334D01*
X119802Y233487D01*
X119677Y233640D01*
X119663Y233654D01*
X119608Y233695D01*
X119525Y233751D01*
X119400Y233834D01*
X119247Y233904D01*
X119067Y233973D01*
X118858Y234029D01*
X118608Y234070D01*
D02*
G37*
G36*
X132366Y299111D02*
X130211D01*
Y298289D01*
X130222Y298211D01*
Y298122D01*
X130244Y298022D01*
X130277Y297834D01*
Y297822D01*
X130289Y297789D01*
X130311Y297745D01*
X130333Y297678D01*
X130400Y297545D01*
X130489Y297400D01*
X130500Y297389D01*
X130511Y297367D01*
X130544Y297334D01*
X130588Y297300D01*
X130700Y297211D01*
X130833Y297123D01*
X130844D01*
X130866Y297111D01*
X130911Y297089D01*
X130977Y297067D01*
X131044Y297056D01*
X131133Y297034D01*
X131322Y297023D01*
X131333D01*
X131344D01*
X131411D01*
X131500Y297045D01*
X131611Y297067D01*
X131744Y297100D01*
X131866Y297167D01*
X131988Y297245D01*
X132099Y297356D01*
X132111Y297367D01*
X132144Y297411D01*
X132188Y297489D01*
X132233Y297589D01*
X132277Y297722D01*
X132322Y297878D01*
X132355Y298067D01*
X132366Y298278D01*
Y299111D01*
D02*
G37*
G36*
X130111Y277002D02*
X129877D01*
X129866D01*
X129855D01*
X129777D01*
X129677D01*
X129566D01*
X129555D01*
X129544D01*
X129478D01*
X129389D01*
X129278Y276991D01*
X131322Y274225D01*
X131333D01*
X131366Y274236D01*
X131411Y274258D01*
X131477Y274280D01*
X131622Y274336D01*
X131788Y274414D01*
X131799D01*
X131822Y274436D01*
X131866Y274458D01*
X131911Y274491D01*
X132033Y274580D01*
X132144Y274691D01*
X132155Y274703D01*
X132166Y274714D01*
X132199Y274747D01*
X132233Y274791D01*
X132310Y274914D01*
X132388Y275058D01*
Y275069D01*
X132399Y275091D01*
X132422Y275136D01*
X132433Y275191D01*
X132455Y275258D01*
X132466Y275336D01*
X132477Y275514D01*
Y275569D01*
X132466Y275636D01*
X132455Y275725D01*
X132433Y275814D01*
X132411Y275925D01*
X132366Y276025D01*
X132310Y276136D01*
X132299Y276147D01*
X132277Y276180D01*
X132244Y276236D01*
X132188Y276302D01*
X132111Y276369D01*
X132033Y276458D01*
X131933Y276536D01*
X131811Y276613D01*
X131799Y276625D01*
X131755Y276647D01*
X131688Y276680D01*
X131588Y276725D01*
X131466Y276769D01*
X131333Y276813D01*
X131177Y276858D01*
X131000Y276902D01*
X130977D01*
X130911Y276913D01*
X130811Y276936D01*
X130677Y276947D01*
X130511Y276969D01*
X130322Y276991D01*
X130111Y277002D01*
D02*
G37*
G36*
X128433Y276824D02*
X128422D01*
X128389Y276813D01*
X128333Y276791D01*
X128278Y276769D01*
X128111Y276713D01*
X127944Y276636D01*
X127933Y276625D01*
X127911Y276613D01*
X127866Y276591D01*
X127822Y276558D01*
X127700Y276469D01*
X127567Y276358D01*
X127555Y276347D01*
X127544Y276325D01*
X127511Y276291D01*
X127478Y276247D01*
X127400Y276136D01*
X127322Y275991D01*
Y275980D01*
X127311Y275958D01*
X127300Y275914D01*
X127289Y275847D01*
X127267Y275780D01*
X127255Y275702D01*
X127244Y275514D01*
Y275458D01*
X127255Y275391D01*
X127267Y275303D01*
X127278Y275214D01*
X127311Y275102D01*
X127344Y275003D01*
X127400Y274891D01*
X127411Y274880D01*
X127433Y274847D01*
X127467Y274791D01*
X127522Y274725D01*
X127589Y274658D01*
X127678Y274580D01*
X127778Y274503D01*
X127889Y274425D01*
X127900Y274414D01*
X127944Y274391D01*
X128022Y274358D01*
X128111Y274314D01*
X128233Y274258D01*
X128366Y274214D01*
X128533Y274169D01*
X128700Y274125D01*
X128711D01*
X128722D01*
X128789Y274103D01*
X128889Y274092D01*
X129022Y274069D01*
X129189Y274047D01*
X129377Y274036D01*
X129589Y274014D01*
X129822D01*
X129833D01*
X129855D01*
X129889D01*
X129922D01*
X130033Y274025D01*
X130155Y274036D01*
X130166D01*
X130189D01*
X130222D01*
X130255Y274047D01*
X130366D01*
X130489Y274058D01*
X128433Y276824D01*
D02*
G37*
G36*
X131222Y265648D02*
X131099D01*
X131088D01*
X131044D01*
X130988D01*
X130922Y265637D01*
X130833D01*
X130744Y265615D01*
X130555Y265581D01*
X130544D01*
X130511Y265570D01*
X130466Y265548D01*
X130411Y265526D01*
X130277Y265459D01*
X130144Y265359D01*
X130133Y265348D01*
X130122Y265326D01*
X130088Y265292D01*
X130055Y265248D01*
X130011Y265192D01*
X129966Y265126D01*
X129889Y264959D01*
Y264948D01*
X129877Y264915D01*
X129866Y264859D01*
X129844Y264792D01*
X129833Y264715D01*
X129811Y264615D01*
X129800Y264504D01*
Y264270D01*
X129811Y264148D01*
X129833Y264004D01*
Y263993D01*
X129844Y263970D01*
Y263926D01*
X129855Y263881D01*
X129889Y263759D01*
X129922Y263615D01*
Y263604D01*
X129933Y263581D01*
X129944Y263548D01*
X129966Y263504D01*
X130011Y263381D01*
X130066Y263259D01*
Y263248D01*
X130077Y263226D01*
X130100Y263204D01*
X130122Y263159D01*
X130177Y263059D01*
X130244Y262948D01*
X130255D01*
X130277D01*
X130311D01*
X130355D01*
X130466D01*
X130622Y262959D01*
X130789Y262970D01*
X130966Y262993D01*
X131155Y263015D01*
X131322Y263048D01*
X131344D01*
X131400Y263070D01*
X131477Y263093D01*
X131577Y263115D01*
X131688Y263159D01*
X131799Y263204D01*
X131911Y263259D01*
X132022Y263326D01*
X132033Y263337D01*
X132066Y263359D01*
X132111Y263392D01*
X132166Y263448D01*
X132233Y263515D01*
X132299Y263593D01*
X132355Y263670D01*
X132399Y263770D01*
Y263781D01*
X132422Y263815D01*
X132433Y263870D01*
X132455Y263937D01*
X132477Y264026D01*
X132488Y264126D01*
X132510Y264348D01*
Y264448D01*
X132499Y264515D01*
X132488Y264592D01*
X132466Y264681D01*
X132411Y264870D01*
Y264881D01*
X132399Y264903D01*
X132377Y264948D01*
X132344Y265003D01*
X132266Y265137D01*
X132144Y265281D01*
X132133Y265292D01*
X132111Y265303D01*
X132077Y265337D01*
X132022Y265381D01*
X131955Y265415D01*
X131877Y265459D01*
X131700Y265548D01*
X131688D01*
X131655Y265559D01*
X131599Y265581D01*
X131533Y265592D01*
X131444Y265615D01*
X131344Y265637D01*
X131222Y265648D01*
D02*
G37*
G36*
X130111Y260104D02*
X129877D01*
X129866D01*
X129855D01*
X129777D01*
X129677D01*
X129566D01*
X129555D01*
X129544D01*
X129478D01*
X129389D01*
X129278Y260093D01*
X131322Y257327D01*
X131333D01*
X131366Y257338D01*
X131411Y257360D01*
X131477Y257382D01*
X131622Y257438D01*
X131788Y257515D01*
X131799D01*
X131822Y257538D01*
X131866Y257560D01*
X131911Y257593D01*
X132033Y257682D01*
X132144Y257793D01*
X132155Y257804D01*
X132166Y257815D01*
X132199Y257849D01*
X132233Y257893D01*
X132310Y258015D01*
X132388Y258160D01*
Y258171D01*
X132399Y258193D01*
X132422Y258238D01*
X132433Y258293D01*
X132455Y258360D01*
X132466Y258437D01*
X132477Y258615D01*
Y258671D01*
X132466Y258737D01*
X132455Y258826D01*
X132433Y258915D01*
X132411Y259026D01*
X132366Y259126D01*
X132310Y259237D01*
X132299Y259248D01*
X132277Y259282D01*
X132244Y259337D01*
X132188Y259404D01*
X132111Y259471D01*
X132033Y259560D01*
X131933Y259637D01*
X131811Y259715D01*
X131799Y259726D01*
X131755Y259749D01*
X131688Y259782D01*
X131588Y259826D01*
X131466Y259871D01*
X131333Y259915D01*
X131177Y259960D01*
X131000Y260004D01*
X130977D01*
X130911Y260015D01*
X130811Y260037D01*
X130677Y260048D01*
X130511Y260071D01*
X130322Y260093D01*
X130111Y260104D01*
D02*
G37*
G36*
X128433Y259926D02*
X128422D01*
X128389Y259915D01*
X128333Y259893D01*
X128278Y259871D01*
X128111Y259815D01*
X127944Y259737D01*
X127933Y259726D01*
X127911Y259715D01*
X127866Y259693D01*
X127822Y259660D01*
X127700Y259571D01*
X127567Y259460D01*
X127555Y259449D01*
X127544Y259426D01*
X127511Y259393D01*
X127478Y259349D01*
X127400Y259237D01*
X127322Y259093D01*
Y259082D01*
X127311Y259060D01*
X127300Y259015D01*
X127289Y258948D01*
X127267Y258882D01*
X127255Y258804D01*
X127244Y258615D01*
Y258560D01*
X127255Y258493D01*
X127267Y258404D01*
X127278Y258315D01*
X127311Y258204D01*
X127344Y258104D01*
X127400Y257993D01*
X127411Y257982D01*
X127433Y257949D01*
X127467Y257893D01*
X127522Y257826D01*
X127589Y257760D01*
X127678Y257682D01*
X127778Y257604D01*
X127889Y257526D01*
X127900Y257515D01*
X127944Y257493D01*
X128022Y257460D01*
X128111Y257415D01*
X128233Y257360D01*
X128366Y257315D01*
X128533Y257271D01*
X128700Y257226D01*
X128711D01*
X128722D01*
X128789Y257204D01*
X128889Y257193D01*
X129022Y257171D01*
X129189Y257149D01*
X129377Y257138D01*
X129589Y257115D01*
X129822D01*
X129833D01*
X129855D01*
X129889D01*
X129922D01*
X130033Y257126D01*
X130155Y257138D01*
X130166D01*
X130189D01*
X130222D01*
X130255Y257149D01*
X130366D01*
X130489Y257160D01*
X128433Y259926D01*
D02*
G37*
G36*
X131222Y254382D02*
X131099D01*
X131088D01*
X131044D01*
X130988D01*
X130922Y254371D01*
X130833D01*
X130744Y254349D01*
X130555Y254316D01*
X130544D01*
X130511Y254305D01*
X130466Y254282D01*
X130411Y254260D01*
X130277Y254193D01*
X130144Y254094D01*
X130133Y254082D01*
X130122Y254060D01*
X130088Y254027D01*
X130055Y253982D01*
X130011Y253927D01*
X129966Y253860D01*
X129889Y253694D01*
Y253682D01*
X129877Y253649D01*
X129866Y253593D01*
X129844Y253527D01*
X129833Y253449D01*
X129811Y253349D01*
X129800Y253238D01*
Y253005D01*
X129811Y252883D01*
X129833Y252738D01*
Y252727D01*
X129844Y252705D01*
Y252660D01*
X129855Y252616D01*
X129889Y252494D01*
X129922Y252349D01*
Y252338D01*
X129933Y252316D01*
X129944Y252283D01*
X129966Y252238D01*
X130011Y252116D01*
X130066Y251994D01*
Y251983D01*
X130077Y251960D01*
X130100Y251938D01*
X130122Y251894D01*
X130177Y251794D01*
X130244Y251683D01*
X130255D01*
X130277D01*
X130311D01*
X130355D01*
X130466D01*
X130622Y251694D01*
X130789Y251705D01*
X130966Y251727D01*
X131155Y251749D01*
X131322Y251783D01*
X131344D01*
X131400Y251805D01*
X131477Y251827D01*
X131577Y251849D01*
X131688Y251894D01*
X131799Y251938D01*
X131911Y251994D01*
X132022Y252060D01*
X132033Y252071D01*
X132066Y252094D01*
X132111Y252127D01*
X132166Y252183D01*
X132233Y252249D01*
X132299Y252327D01*
X132355Y252405D01*
X132399Y252505D01*
Y252516D01*
X132422Y252549D01*
X132433Y252605D01*
X132455Y252671D01*
X132477Y252760D01*
X132488Y252860D01*
X132510Y253082D01*
Y253183D01*
X132499Y253249D01*
X132488Y253327D01*
X132466Y253416D01*
X132411Y253605D01*
Y253616D01*
X132399Y253638D01*
X132377Y253682D01*
X132344Y253738D01*
X132266Y253871D01*
X132144Y254016D01*
X132133Y254027D01*
X132111Y254038D01*
X132077Y254071D01*
X132022Y254116D01*
X131955Y254149D01*
X131877Y254193D01*
X131700Y254282D01*
X131688D01*
X131655Y254293D01*
X131599Y254316D01*
X131533Y254327D01*
X131444Y254349D01*
X131344Y254371D01*
X131222Y254382D01*
D02*
G37*
G36*
X130111Y243206D02*
X129877D01*
X129866D01*
X129855D01*
X129777D01*
X129677D01*
X129566D01*
X129555D01*
X129544D01*
X129478D01*
X129389D01*
X129278Y243195D01*
X131322Y240428D01*
X131333D01*
X131366Y240439D01*
X131411Y240461D01*
X131477Y240484D01*
X131622Y240539D01*
X131788Y240617D01*
X131799D01*
X131822Y240639D01*
X131866Y240662D01*
X131911Y240695D01*
X132033Y240784D01*
X132144Y240895D01*
X132155Y240906D01*
X132166Y240917D01*
X132199Y240950D01*
X132233Y240995D01*
X132310Y241117D01*
X132388Y241261D01*
Y241272D01*
X132399Y241295D01*
X132422Y241339D01*
X132433Y241395D01*
X132455Y241461D01*
X132466Y241539D01*
X132477Y241717D01*
Y241773D01*
X132466Y241839D01*
X132455Y241928D01*
X132433Y242017D01*
X132411Y242128D01*
X132366Y242228D01*
X132310Y242339D01*
X132299Y242350D01*
X132277Y242384D01*
X132244Y242439D01*
X132188Y242506D01*
X132111Y242572D01*
X132033Y242661D01*
X131933Y242739D01*
X131811Y242817D01*
X131799Y242828D01*
X131755Y242850D01*
X131688Y242883D01*
X131588Y242928D01*
X131466Y242972D01*
X131333Y243017D01*
X131177Y243061D01*
X131000Y243106D01*
X130977D01*
X130911Y243117D01*
X130811Y243139D01*
X130677Y243150D01*
X130511Y243172D01*
X130322Y243195D01*
X130111Y243206D01*
D02*
G37*
G36*
X128433Y243028D02*
X128422D01*
X128389Y243017D01*
X128333Y242995D01*
X128278Y242972D01*
X128111Y242917D01*
X127944Y242839D01*
X127933Y242828D01*
X127911Y242817D01*
X127866Y242795D01*
X127822Y242761D01*
X127700Y242672D01*
X127567Y242561D01*
X127555Y242550D01*
X127544Y242528D01*
X127511Y242495D01*
X127478Y242450D01*
X127400Y242339D01*
X127322Y242195D01*
Y242184D01*
X127311Y242161D01*
X127300Y242117D01*
X127289Y242050D01*
X127267Y241984D01*
X127255Y241906D01*
X127244Y241717D01*
Y241661D01*
X127255Y241595D01*
X127267Y241506D01*
X127278Y241417D01*
X127311Y241306D01*
X127344Y241206D01*
X127400Y241095D01*
X127411Y241084D01*
X127433Y241050D01*
X127467Y240995D01*
X127522Y240928D01*
X127589Y240862D01*
X127678Y240784D01*
X127778Y240706D01*
X127889Y240628D01*
X127900Y240617D01*
X127944Y240595D01*
X128022Y240562D01*
X128111Y240517D01*
X128233Y240461D01*
X128366Y240417D01*
X128533Y240373D01*
X128700Y240328D01*
X128711D01*
X128722D01*
X128789Y240306D01*
X128889Y240295D01*
X129022Y240273D01*
X129189Y240250D01*
X129377Y240239D01*
X129589Y240217D01*
X129822D01*
X129833D01*
X129855D01*
X129889D01*
X129922D01*
X130033Y240228D01*
X130155Y240239D01*
X130166D01*
X130189D01*
X130222D01*
X130255Y240250D01*
X130366D01*
X130489Y240262D01*
X128433Y243028D01*
D02*
G37*
%LPD*%
D34*
X112500Y410051D02*
D03*
Y403949D02*
D03*
X241000Y183949D02*
D03*
Y190051D02*
D03*
X103500Y386051D02*
D03*
Y379949D02*
D03*
D35*
X112000Y378800D02*
D03*
Y386200D02*
D03*
D36*
X144000Y406039D02*
D03*
Y410961D02*
D03*
D37*
X124253Y328500D02*
D03*
X131653D02*
D03*
X125800Y310000D02*
D03*
X133200D02*
D03*
X158700Y356000D02*
D03*
X151300D02*
D03*
X188300D02*
D03*
X195700D02*
D03*
D38*
X230102Y162000D02*
D03*
X224000D02*
D03*
D39*
X112461Y303500D02*
D03*
X107539D02*
D03*
D40*
X133500Y385646D02*
D03*
Y391354D02*
D03*
D41*
X103500Y337343D02*
D03*
Y342657D02*
D03*
X106000Y361343D02*
D03*
Y366657D02*
D03*
X123500Y418500D02*
D03*
Y413185D02*
D03*
X127500Y391158D02*
D03*
Y385842D02*
D03*
X123500Y398843D02*
D03*
Y404157D02*
D03*
D42*
X134500Y353500D02*
D03*
X129776D02*
D03*
D43*
X129244Y360500D02*
D03*
X134756D02*
D03*
X134756Y368500D02*
D03*
X129244D02*
D03*
D44*
X114260Y357980D02*
D03*
X118000D02*
D03*
X121740D02*
D03*
Y368020D02*
D03*
X114260D02*
D03*
D45*
X129000Y400000D02*
D03*
X130968D02*
D03*
X132937D02*
D03*
X134906D02*
D03*
X136874D02*
D03*
Y417323D02*
D03*
X134906D02*
D03*
X132937D02*
D03*
X130968D02*
D03*
X129000D02*
D03*
D46*
X128260Y345339D02*
D03*
X110740D02*
D03*
Y342779D02*
D03*
Y340220D02*
D03*
Y337661D02*
D03*
X128260Y342779D02*
D03*
Y340220D02*
D03*
Y337661D02*
D03*
D47*
X167000Y416524D02*
D03*
Y394476D02*
D03*
D48*
X112559Y310500D02*
D03*
X107441D02*
D03*
D49*
X107095Y296500D02*
D03*
X113000D02*
D03*
X107047Y317500D02*
D03*
X112953D02*
D03*
D50*
X105000Y450000D02*
D03*
Y430000D02*
D03*
Y440000D02*
D03*
Y420000D02*
D03*
Y410000D02*
D03*
Y400000D02*
D03*
Y460000D02*
D03*
X233000Y114500D02*
D03*
Y124500D02*
D03*
Y134500D02*
D03*
X109500Y177500D02*
D03*
X225500D02*
D03*
Y213500D02*
D03*
X109500D02*
D03*
X158500Y328000D02*
D03*
X218500D02*
D03*
X188500D02*
D03*
X241000Y172500D02*
D03*
Y162500D02*
D03*
Y152500D02*
D03*
D51*
X148980Y148000D02*
D03*
X181500D02*
D03*
D52*
X218500Y248000D02*
D03*
X158500D02*
D03*
D53*
X166500Y457500D02*
D03*
X116000Y436500D02*
D03*
Y447500D02*
D03*
Y458500D02*
D03*
Y425500D02*
D03*
X219500Y387000D02*
D03*
X208000D02*
D03*
D54*
X112500Y120000D02*
D03*
X234500Y369000D02*
D03*
D55*
X186100Y455000D02*
D03*
X236500D02*
D03*
Y404600D02*
D03*
X186100D02*
D03*
X211300Y429800D02*
D03*
M02*
