G04*
G04 #@! TF.GenerationSoftware,Altium Limited,Altium Designer,20.0.14 (345)*
G04*
G04 Layer_Physical_Order=1*
G04 Layer_Color=255*
%FSLAX25Y25*%
%MOIN*%
G70*
G01*
G75*
%ADD18R,0.02756X0.03347*%
%ADD19R,0.05906X0.04331*%
%ADD20R,0.03347X0.02756*%
%ADD21R,0.04331X0.05906*%
%ADD22R,0.03347X0.02756*%
%ADD23R,0.02756X0.03347*%
%ADD24R,0.04134X0.03740*%
%ADD25R,0.03937X0.03543*%
%ADD26R,0.03150X0.03543*%
%ADD27R,0.03937X0.04331*%
G04:AMPARAMS|DCode=28|XSize=21.65mil|YSize=31.5mil|CornerRadius=1.95mil|HoleSize=0mil|Usage=FLASHONLY|Rotation=180.000|XOffset=0mil|YOffset=0mil|HoleType=Round|Shape=RoundedRectangle|*
%AMROUNDEDRECTD28*
21,1,0.02165,0.02760,0,0,180.0*
21,1,0.01776,0.03150,0,0,180.0*
1,1,0.00390,-0.00888,0.01380*
1,1,0.00390,0.00888,0.01380*
1,1,0.00390,0.00888,-0.01380*
1,1,0.00390,-0.00888,-0.01380*
%
%ADD28ROUNDEDRECTD28*%
%ADD29R,0.01181X0.05709*%
G04:AMPARAMS|DCode=30|XSize=17.72mil|YSize=53.15mil|CornerRadius=1.95mil|HoleSize=0mil|Usage=FLASHONLY|Rotation=90.000|XOffset=0mil|YOffset=0mil|HoleType=Round|Shape=RoundedRectangle|*
%AMROUNDEDRECTD30*
21,1,0.01772,0.04925,0,0,90.0*
21,1,0.01382,0.05315,0,0,90.0*
1,1,0.00390,0.02463,0.00691*
1,1,0.00390,0.02463,-0.00691*
1,1,0.00390,-0.02463,-0.00691*
1,1,0.00390,-0.02463,0.00691*
%
%ADD30ROUNDEDRECTD30*%
%ADD31R,0.13386X0.07087*%
%ADD32R,0.02362X0.03150*%
%ADD33R,0.03150X0.03150*%
%ADD56C,0.00900*%
%ADD57C,0.03000*%
%ADD58C,0.07874*%
%ADD59C,0.13780*%
%ADD60C,0.07087*%
%ADD61C,0.06102*%
%ADD62C,0.21654*%
%ADD63C,0.07000*%
%ADD64C,0.03150*%
G36*
X118708Y459955D02*
X118883Y459744D01*
X119063Y459558D01*
X119250Y459397D01*
X119443Y459260D01*
X119642Y459148D01*
X119847Y459062D01*
X120059Y459000D01*
X120276Y458962D01*
X120500Y458950D01*
Y458050D01*
X120276Y458038D01*
X120059Y458000D01*
X119847Y457938D01*
X119642Y457852D01*
X119443Y457740D01*
X119250Y457604D01*
X119063Y457442D01*
X118883Y457256D01*
X118708Y457045D01*
X118540Y456810D01*
Y460190D01*
X118708Y459955D01*
D02*
G37*
G36*
X108859Y460997D02*
X109077Y460567D01*
X109305Y460188D01*
X109541Y459860D01*
X109788Y459582D01*
X110043Y459354D01*
X110308Y459177D01*
X110581Y459051D01*
X110864Y458975D01*
X111154Y458950D01*
X111361Y458967D01*
X111584Y459017D01*
X111819Y459102D01*
X112067Y459220D01*
X112327Y459372D01*
X112601Y459557D01*
X112887Y459776D01*
X113497Y460316D01*
X113821Y460636D01*
Y456364D01*
X113497Y456684D01*
X112887Y457224D01*
X112601Y457443D01*
X112327Y457628D01*
X112067Y457780D01*
X111819Y457898D01*
X111584Y457983D01*
X111361Y458033D01*
X111152Y458050D01*
Y458938D01*
X110782Y458050D01*
X110680Y458033D01*
X110506Y457983D01*
X109945Y457783D01*
X106550Y456381D01*
X108650Y461477D01*
X108859Y460997D01*
D02*
G37*
G36*
X166470Y454449D02*
X166014Y454446D01*
X165201Y454396D01*
X164844Y454349D01*
X164519Y454287D01*
X164228Y454210D01*
X163969Y454118D01*
X163743Y454011D01*
X163550Y453890D01*
X163390Y453753D01*
X162753Y454390D01*
X162890Y454550D01*
X163011Y454743D01*
X163118Y454969D01*
X163210Y455228D01*
X163287Y455519D01*
X163349Y455844D01*
X163396Y456201D01*
X163446Y457014D01*
X163449Y457470D01*
X166470Y454449D01*
D02*
G37*
G36*
X108955Y450471D02*
X109106Y450047D01*
X109275Y449673D01*
X109464Y449348D01*
X109670Y449074D01*
X109896Y448849D01*
X110139Y448675D01*
X110401Y448550D01*
X110682Y448475D01*
X110981Y448450D01*
X110444Y447550D01*
X110365Y447537D01*
X110210Y447498D01*
X106974Y446498D01*
X106205Y446252D01*
X108822Y450946D01*
X108955Y450471D01*
D02*
G37*
G36*
X113500Y445750D02*
X113250Y446092D01*
X112757Y446668D01*
X112514Y446902D01*
X112275Y447100D01*
X112038Y447262D01*
X111804Y447388D01*
X111573Y447478D01*
X111344Y447532D01*
X111118Y447550D01*
X111270Y448450D01*
X111453Y448465D01*
X111661Y448511D01*
X111894Y448586D01*
X112150Y448692D01*
X112431Y448829D01*
X113066Y449192D01*
X113798Y449676D01*
X114200Y449964D01*
X113500Y445750D01*
D02*
G37*
G36*
X118503Y449316D02*
X119113Y448776D01*
X119399Y448557D01*
X119673Y448372D01*
X119933Y448220D01*
X120181Y448102D01*
X120416Y448017D01*
X120639Y447967D01*
X120849Y447950D01*
Y447050D01*
X120639Y447033D01*
X120416Y446983D01*
X120181Y446898D01*
X119933Y446780D01*
X119673Y446629D01*
X119399Y446443D01*
X119113Y446224D01*
X118503Y445684D01*
X118179Y445364D01*
Y449636D01*
X118503Y449316D01*
D02*
G37*
G36*
Y438315D02*
X119113Y437776D01*
X119399Y437557D01*
X119673Y437371D01*
X119933Y437220D01*
X120181Y437102D01*
X120416Y437017D01*
X120639Y436967D01*
X120849Y436950D01*
Y436050D01*
X120639Y436033D01*
X120416Y435983D01*
X120181Y435898D01*
X119933Y435780D01*
X119673Y435629D01*
X119399Y435443D01*
X119113Y435224D01*
X118503Y434685D01*
X118179Y434364D01*
Y438636D01*
X118503Y438315D01*
D02*
G37*
G36*
X113821Y434364D02*
X113497Y434685D01*
X112887Y435224D01*
X112601Y435443D01*
X112327Y435629D01*
X112067Y435780D01*
X111819Y435898D01*
X111584Y435983D01*
X111361Y436033D01*
X111152Y436050D01*
Y436950D01*
X111361Y436967D01*
X111584Y437017D01*
X111819Y437102D01*
X112067Y437220D01*
X112327Y437371D01*
X112601Y437557D01*
X112887Y437776D01*
X113497Y438315D01*
X113821Y438636D01*
Y434364D01*
D02*
G37*
G36*
X108982Y429651D02*
X109213Y428020D01*
X109311Y427580D01*
X109419Y427192D01*
X109537Y426856D01*
X109666Y426572D01*
X109805Y426339D01*
X109955Y426159D01*
X109373Y425467D01*
X109169Y425637D01*
X108922Y425783D01*
X108631Y425905D01*
X108297Y426002D01*
X107919Y426076D01*
X107498Y426125D01*
X107033Y426150D01*
X105972Y426128D01*
X105377Y426081D01*
X108926Y430298D01*
X108982Y429651D01*
D02*
G37*
G36*
X213370Y426917D02*
X212470Y425868D01*
X212250Y425552D01*
X212070Y425254D01*
X211930Y424972D01*
X211830Y424707D01*
X211770Y424460D01*
X211750Y424229D01*
X210850D01*
X210830Y424460D01*
X210770Y424707D01*
X210670Y424972D01*
X210530Y425254D01*
X210350Y425552D01*
X210130Y425868D01*
X209870Y426201D01*
X209230Y426917D01*
X208850Y427301D01*
X213750D01*
X213370Y426917D01*
D02*
G37*
G36*
X118503Y427316D02*
X119113Y426776D01*
X119399Y426557D01*
X119673Y426371D01*
X119933Y426220D01*
X120181Y426102D01*
X120416Y426017D01*
X120639Y425967D01*
X120849Y425950D01*
Y425050D01*
X120639Y425033D01*
X120416Y424983D01*
X120181Y424898D01*
X119933Y424780D01*
X119673Y424628D01*
X119399Y424443D01*
X119113Y424224D01*
X118503Y423685D01*
X118179Y423364D01*
Y427636D01*
X118503Y427316D01*
D02*
G37*
G36*
X113821Y423364D02*
X113497Y423685D01*
X112887Y424224D01*
X112601Y424443D01*
X112327Y424628D01*
X112067Y424780D01*
X111819Y424898D01*
X111584Y424983D01*
X111361Y425033D01*
X111152Y425050D01*
Y425950D01*
X111361Y425967D01*
X111584Y426017D01*
X111819Y426102D01*
X112067Y426220D01*
X112327Y426371D01*
X112601Y426557D01*
X112887Y426776D01*
X113497Y427316D01*
X113821Y427636D01*
Y423364D01*
D02*
G37*
G36*
X129210Y421625D02*
X129025Y421177D01*
X127409D01*
Y417823D01*
X128356D01*
X128351Y417830D01*
X128287Y417888D01*
X128205Y417938D01*
X128105Y417978D01*
X127987Y418010D01*
X127850Y418032D01*
X127695Y418046D01*
X127522Y418050D01*
Y418950D01*
X127695Y418955D01*
X127850Y418968D01*
X127987Y418991D01*
X128105Y419022D01*
X128205Y419063D01*
X128287Y419112D01*
X128351Y419171D01*
X128397Y419238D01*
X128424Y419314D01*
X128433Y419400D01*
Y417823D01*
X129000D01*
Y417323D01*
X129378D01*
Y413469D01*
X130000D01*
Y403854D01*
X127409D01*
Y401338D01*
X126469D01*
Y406929D01*
X125968D01*
X125931Y407005D01*
X125773Y407429D01*
X126008Y407999D01*
X126097Y408671D01*
X126008Y409343D01*
X125773Y409913D01*
X125931Y410338D01*
X125968Y410413D01*
X126469D01*
Y415728D01*
Y418000D01*
X125856D01*
X125773Y417978D01*
X125672Y417938D01*
X125590Y417888D01*
X125527Y417830D01*
X125481Y417762D01*
X125454Y417686D01*
X125444Y417600D01*
Y418000D01*
X123500D01*
X120531D01*
Y415728D01*
Y410413D01*
X121032D01*
X121069Y410338D01*
X121228Y409913D01*
X120992Y409343D01*
X120903Y408671D01*
X120992Y407999D01*
X121228Y407429D01*
X121069Y407005D01*
X121032Y406929D01*
X120531D01*
Y401386D01*
Y398190D01*
X120371Y398002D01*
X118947Y396578D01*
X118500Y396636D01*
X117828Y396548D01*
X117201Y396288D01*
X116664Y395876D01*
X116251Y395338D01*
X115991Y394711D01*
X115903Y394039D01*
X115991Y393367D01*
X116251Y392741D01*
X116664Y392203D01*
X117201Y391790D01*
X117828Y391531D01*
X118500Y391442D01*
X119172Y391531D01*
X119799Y391790D01*
X120336Y392203D01*
X120749Y392741D01*
X121009Y393367D01*
X121097Y394039D01*
X121038Y394487D01*
X122430Y395879D01*
X122570Y396008D01*
X122647Y396071D01*
X126469D01*
Y398381D01*
X127409D01*
Y396146D01*
X130000D01*
Y393929D01*
X128000D01*
Y391158D01*
X127500D01*
Y390657D01*
X124531D01*
Y388386D01*
Y385394D01*
X124524Y385356D01*
X124531Y385317D01*
Y385191D01*
X124368Y384998D01*
X122413Y383043D01*
X122000Y383097D01*
X121328Y383009D01*
X120702Y382749D01*
X120164Y382336D01*
X119905Y382000D01*
X118520D01*
Y383000D01*
X118442Y383390D01*
X118221Y383721D01*
X117890Y383942D01*
X117500Y384020D01*
X115953D01*
Y385700D01*
X112000D01*
X108047D01*
Y384020D01*
X106173D01*
X105907Y384396D01*
X105878Y384481D01*
Y388724D01*
X104978D01*
Y395002D01*
X105000Y395020D01*
X106289Y395190D01*
X107490Y395688D01*
X108521Y396479D01*
X109312Y397510D01*
X109810Y398711D01*
X109980Y400000D01*
X109863Y400883D01*
X110316Y401276D01*
X112000D01*
Y403449D01*
X110122D01*
Y401842D01*
X109622Y401742D01*
X109312Y402490D01*
X108521Y403521D01*
X107490Y404313D01*
X106483Y404729D01*
Y405271D01*
X107490Y405688D01*
X108521Y406479D01*
X109312Y407510D01*
X109622Y408258D01*
X110122Y408158D01*
Y407378D01*
X114878D01*
Y412724D01*
X110122D01*
Y411842D01*
X109622Y411742D01*
X109312Y412490D01*
X108521Y413521D01*
X107490Y414313D01*
X106483Y414729D01*
Y415271D01*
X107490Y415688D01*
X108521Y416479D01*
X109312Y417510D01*
X109810Y418711D01*
X109980Y420000D01*
X109810Y421289D01*
X109688Y421584D01*
X109965Y422000D01*
X113907D01*
X113957Y421961D01*
X114942Y421553D01*
X116000Y421414D01*
X117058Y421553D01*
X118043Y421961D01*
X118094Y422000D01*
X128902D01*
X129210Y421625D01*
D02*
G37*
G36*
X146616Y412479D02*
X146383Y412241D01*
X145867Y411631D01*
X145755Y411463D01*
X145674Y411312D01*
X145622Y411180D01*
X145601Y411065D01*
X145610Y410968D01*
X145649Y410888D01*
X144554Y412315D01*
X144615Y412257D01*
X144692Y412227D01*
X144782Y412225D01*
X144888Y412249D01*
X145008Y412300D01*
X145142Y412379D01*
X145291Y412484D01*
X145455Y412617D01*
X145827Y412963D01*
X146616Y412479D01*
D02*
G37*
G36*
X173481Y416359D02*
X173372Y416107D01*
X173356Y415805D01*
X173430Y415455D01*
X173597Y415055D01*
X173855Y414606D01*
X174204Y414108D01*
X174645Y413561D01*
X175802Y412319D01*
X173008Y410871D01*
X172423Y411435D01*
X171360Y412328D01*
X170882Y412657D01*
X170440Y412908D01*
X170034Y413081D01*
X169663Y413176D01*
X169328Y413193D01*
X169029Y413132D01*
X168765Y412992D01*
X173681Y416562D01*
X173481Y416359D01*
D02*
G37*
G36*
X143541Y411570D02*
X143517Y411540D01*
X143509Y411513D01*
X143516Y411489D01*
X143538Y411468D01*
X143576Y411451D01*
X143630Y411436D01*
X143699Y411425D01*
X143884Y411412D01*
X144000Y411411D01*
X142295Y410511D01*
X141209Y411411D01*
X141386Y411417D01*
X141558Y411436D01*
X141725Y411468D01*
X141887Y411512D01*
X142043Y411570D01*
X142194Y411640D01*
X142340Y411723D01*
X142480Y411818D01*
X142615Y411926D01*
X142745Y412047D01*
X143541Y411570D01*
D02*
G37*
G36*
X124314Y411428D02*
X124238Y411401D01*
X124170Y411355D01*
X124112Y411292D01*
X124063Y411209D01*
X124022Y411109D01*
X123990Y410990D01*
X123972Y410879D01*
X123976Y410851D01*
X124009Y410716D01*
X124054Y410581D01*
X124113Y410448D01*
X124185Y410316D01*
X124270Y410184D01*
X124367Y410054D01*
X124478Y409924D01*
X124602Y409796D01*
X122398D01*
X122522Y409924D01*
X122633Y410054D01*
X122730Y410184D01*
X122815Y410316D01*
X122887Y410448D01*
X122946Y410581D01*
X122991Y410716D01*
X123024Y410851D01*
X123028Y410879D01*
X123010Y410990D01*
X122978Y411109D01*
X122938Y411209D01*
X122888Y411292D01*
X122829Y411355D01*
X122762Y411401D01*
X122686Y411428D01*
X122600Y411437D01*
X124400D01*
X124314Y411428D01*
D02*
G37*
G36*
X111146Y409100D02*
X111137Y409186D01*
X111110Y409262D01*
X111064Y409330D01*
X111000Y409388D01*
X110918Y409438D01*
X110818Y409478D01*
X110699Y409510D01*
X110562Y409532D01*
X110407Y409546D01*
X110234Y409550D01*
Y410450D01*
X110407Y410455D01*
X110562Y410468D01*
X110699Y410491D01*
X110818Y410522D01*
X110918Y410563D01*
X111000Y410612D01*
X111064Y410671D01*
X111110Y410738D01*
X111137Y410815D01*
X111146Y410900D01*
Y409100D01*
D02*
G37*
G36*
X124478Y407418D02*
X124367Y407289D01*
X124270Y407158D01*
X124185Y407027D01*
X124113Y406894D01*
X124054Y406761D01*
X124009Y406627D01*
X123976Y406491D01*
X123972Y406466D01*
X123990Y406358D01*
X124022Y406241D01*
X124063Y406142D01*
X124112Y406061D01*
X124170Y405998D01*
X124238Y405953D01*
X124314Y405926D01*
X124400Y405917D01*
X122600D01*
X122686Y405926D01*
X122762Y405953D01*
X122829Y405998D01*
X122888Y406061D01*
X122938Y406142D01*
X122978Y406241D01*
X123010Y406358D01*
X123028Y406466D01*
X123024Y406491D01*
X122991Y406627D01*
X122946Y406761D01*
X122887Y406894D01*
X122815Y407027D01*
X122730Y407158D01*
X122633Y407289D01*
X122522Y407418D01*
X122398Y407547D01*
X124602D01*
X124478Y407418D01*
D02*
G37*
G36*
X143907Y404685D02*
X143822Y404719D01*
X143720Y404723D01*
X143602Y404699D01*
X143467Y404645D01*
X143316Y404563D01*
X143149Y404452D01*
X142965Y404312D01*
X142549Y403945D01*
X142316Y403719D01*
X141702Y404378D01*
X141895Y404577D01*
X142195Y404927D01*
X142302Y405078D01*
X142381Y405213D01*
X142432Y405333D01*
X142454Y405436D01*
X142448Y405523D01*
X142414Y405595D01*
X142351Y405651D01*
X143907Y404685D01*
D02*
G37*
G36*
X137852Y404747D02*
X137741Y404618D01*
X137644Y404487D01*
X137559Y404356D01*
X137487Y404223D01*
X137428Y404090D01*
X137383Y403955D01*
X137350Y403820D01*
X137330Y403684D01*
X137325Y403573D01*
X137325Y403571D01*
X137356Y403067D01*
X137370Y402986D01*
X137387Y402923D01*
X137406Y402878D01*
X137428Y402851D01*
X137453Y402842D01*
X136295D01*
X136320Y402851D01*
X136342Y402878D01*
X136361Y402923D01*
X136378Y402986D01*
X136392Y403067D01*
X136403Y403166D01*
X136419Y403418D01*
X136422Y403595D01*
X136417Y403684D01*
X136398Y403820D01*
X136365Y403955D01*
X136320Y404090D01*
X136261Y404223D01*
X136189Y404356D01*
X136104Y404487D01*
X136006Y404618D01*
X135896Y404747D01*
X135772Y404875D01*
X137976D01*
X137852Y404747D01*
D02*
G37*
G36*
X136308Y400452D02*
X136384Y400450D01*
Y399550D01*
X136308Y399548D01*
Y399100D01*
X136298Y399185D01*
X136271Y399262D01*
X136225Y399329D01*
X136162Y399388D01*
X136080Y399437D01*
X135979Y399478D01*
X135890Y399502D01*
X135800Y399478D01*
X135700Y399437D01*
X135618Y399388D01*
X135554Y399329D01*
X135509Y399262D01*
X135481Y399185D01*
X135472Y399100D01*
Y399548D01*
X135396Y399550D01*
Y400450D01*
X135472Y400452D01*
Y400900D01*
X135481Y400814D01*
X135509Y400738D01*
X135554Y400670D01*
X135618Y400612D01*
X135700Y400562D01*
X135800Y400522D01*
X135890Y400498D01*
X135979Y400522D01*
X136080Y400562D01*
X136162Y400612D01*
X136225Y400670D01*
X136271Y400738D01*
X136298Y400814D01*
X136308Y400900D01*
Y400452D01*
D02*
G37*
G36*
X128433Y398959D02*
X128424Y399045D01*
X128397Y399121D01*
X128351Y399189D01*
X128287Y399247D01*
X128205Y399297D01*
X128105Y399337D01*
X127987Y399369D01*
X127850Y399391D01*
X127695Y399405D01*
X127522Y399410D01*
Y400310D01*
X127695Y400314D01*
X127850Y400327D01*
X127987Y400350D01*
X128105Y400381D01*
X128205Y400422D01*
X128287Y400471D01*
X128351Y400530D01*
X128397Y400597D01*
X128424Y400674D01*
X128433Y400760D01*
Y398959D01*
D02*
G37*
G36*
X125466Y400547D02*
X125493Y400497D01*
X125538Y400453D01*
X125601Y400415D01*
X125681Y400383D01*
X125780Y400356D01*
X125898Y400336D01*
X126032Y400321D01*
X126356Y400310D01*
Y399410D01*
X126184Y399405D01*
X126029Y399391D01*
X125893Y399369D01*
X125774Y399337D01*
X125674Y399297D01*
X125592Y399247D01*
X125528Y399189D01*
X125482Y399121D01*
X125454Y399045D01*
X125444Y398959D01*
X125457Y400602D01*
X125466Y400547D01*
D02*
G37*
G36*
X122816Y397095D02*
X122747Y397145D01*
X122666Y397169D01*
X122571Y397168D01*
X122463Y397141D01*
X122342Y397089D01*
X122208Y397011D01*
X122062Y396908D01*
X121902Y396780D01*
X121544Y396446D01*
X120907Y397083D01*
X121087Y397269D01*
X121369Y397601D01*
X121472Y397748D01*
X121549Y397881D01*
X121602Y398002D01*
X121628Y398110D01*
X121630Y398205D01*
X121605Y398287D01*
X121555Y398356D01*
X122816Y397095D01*
D02*
G37*
G36*
X169107Y393289D02*
X168914Y393429D01*
X168717Y393554D01*
X168516Y393665D01*
X168311Y393761D01*
X168103Y393842D01*
X167890Y393908D01*
X167673Y393960D01*
X167453Y393997D01*
X167228Y394019D01*
X167000Y394026D01*
Y394926D01*
X167228Y394934D01*
X167453Y394956D01*
X167673Y394993D01*
X167890Y395044D01*
X168103Y395111D01*
X168311Y395192D01*
X168516Y395288D01*
X168717Y395398D01*
X168914Y395524D01*
X169107Y395664D01*
Y393289D01*
D02*
G37*
G36*
X133391Y393941D02*
X133405Y393788D01*
X133428Y393653D01*
X133459Y393536D01*
X133500Y393437D01*
X133549Y393356D01*
X133607Y393293D01*
X133675Y393248D01*
X133751Y393221D01*
X133837Y393212D01*
X132037D01*
X132123Y393221D01*
X132199Y393248D01*
X132266Y393293D01*
X132325Y393356D01*
X132375Y393437D01*
X132415Y393536D01*
X132447Y393653D01*
X132469Y393788D01*
X132483Y393941D01*
X132487Y394112D01*
X133387D01*
X133391Y393941D01*
D02*
G37*
G36*
X129456Y392917D02*
X128100Y392905D01*
X128185Y392915D01*
X128262Y392943D01*
X128330Y392989D01*
X128388Y393053D01*
X128437Y393135D01*
X128478Y393235D01*
X128509Y393354D01*
X128532Y393490D01*
X128545Y393645D01*
X128550Y393817D01*
X129450D01*
X129456Y392917D01*
D02*
G37*
G36*
X160331Y391600D02*
X160322Y391686D01*
X160295Y391762D01*
X160249Y391829D01*
X160185Y391888D01*
X160103Y391937D01*
X160003Y391978D01*
X159884Y392009D01*
X159747Y392032D01*
X159592Y392045D01*
X159419Y392050D01*
Y392950D01*
X159592Y392954D01*
X159747Y392968D01*
X159884Y392990D01*
X160003Y393022D01*
X160103Y393062D01*
X160185Y393112D01*
X160249Y393170D01*
X160295Y393238D01*
X160322Y393315D01*
X160331Y393400D01*
Y391600D01*
D02*
G37*
G36*
X211618Y389982D02*
X211467Y389810D01*
X211337Y389619D01*
X211227Y389407D01*
X211137Y389176D01*
X211068Y388924D01*
X211019Y388652D01*
X210991Y388360D01*
X210983Y388048D01*
X210996Y387716D01*
X211029Y387364D01*
X208364Y390029D01*
X208716Y389996D01*
X209048Y389983D01*
X209360Y389991D01*
X209652Y390019D01*
X209924Y390068D01*
X210176Y390137D01*
X210407Y390227D01*
X210619Y390337D01*
X210810Y390467D01*
X210982Y390618D01*
X211618Y389982D01*
D02*
G37*
G36*
X173505Y394834D02*
X173416Y394563D01*
X173413Y394248D01*
X173496Y393889D01*
X173665Y393486D01*
X173920Y393040D01*
X174262Y392551D01*
X174689Y392017D01*
X175802Y390819D01*
X173555Y388824D01*
X172945Y389412D01*
X171850Y390338D01*
X171364Y390675D01*
X170919Y390929D01*
X170515Y391100D01*
X170153Y391186D01*
X169832Y391190D01*
X169551Y391109D01*
X169312Y390945D01*
X173681Y395062D01*
X173505Y394834D01*
D02*
G37*
G36*
X103955Y388441D02*
X103968Y388288D01*
X103990Y388153D01*
X104022Y388036D01*
X104062Y387937D01*
X104112Y387856D01*
X104171Y387793D01*
X104238Y387748D01*
X104314Y387721D01*
X104400Y387712D01*
X102600D01*
X102685Y387721D01*
X102762Y387748D01*
X102830Y387793D01*
X102888Y387856D01*
X102937Y387937D01*
X102978Y388036D01*
X103009Y388153D01*
X103032Y388288D01*
X103045Y388441D01*
X103050Y388612D01*
X103950D01*
X103955Y388441D01*
D02*
G37*
G36*
X131457Y384943D02*
X131448Y385028D01*
X131421Y385104D01*
X131375Y385172D01*
X131311Y385230D01*
X131229Y385280D01*
X131129Y385320D01*
X131010Y385352D01*
X130873Y385374D01*
X130718Y385388D01*
X130545Y385392D01*
Y386293D01*
X130718Y386297D01*
X130873Y386311D01*
X131010Y386333D01*
X131129Y386365D01*
X131229Y386405D01*
X131311Y386455D01*
X131375Y386513D01*
X131421Y386580D01*
X131448Y386657D01*
X131457Y386742D01*
Y384943D01*
D02*
G37*
G36*
X129454Y386657D02*
X129481Y386580D01*
X129527Y386513D01*
X129590Y386455D01*
X129673Y386405D01*
X129773Y386365D01*
X129891Y386333D01*
X130028Y386311D01*
X130183Y386297D01*
X130357Y386293D01*
Y385392D01*
X130183Y385388D01*
X130028Y385374D01*
X129891Y385352D01*
X129773Y385320D01*
X129673Y385280D01*
X129590Y385230D01*
X129527Y385172D01*
X129481Y385104D01*
X129454Y385028D01*
X129445Y384943D01*
Y386742D01*
X129454Y386657D01*
D02*
G37*
G36*
X126816Y384083D02*
X126746Y384134D01*
X126664Y384159D01*
X126568D01*
X126460Y384134D01*
X126339Y384083D01*
X126205Y384007D01*
X126059Y383905D01*
X125900Y383777D01*
X125543Y383447D01*
X124907Y384083D01*
X125085Y384267D01*
X125365Y384598D01*
X125467Y384745D01*
X125543Y384878D01*
X125594Y384999D01*
X125620Y385107D01*
Y385203D01*
X125594Y385286D01*
X125543Y385356D01*
X126816Y384083D01*
D02*
G37*
G36*
X207969Y383949D02*
X207514Y383946D01*
X206701Y383896D01*
X206344Y383849D01*
X206019Y383787D01*
X205728Y383710D01*
X205469Y383618D01*
X205243Y383511D01*
X205050Y383390D01*
X204890Y383253D01*
X204253Y383890D01*
X204390Y384050D01*
X204511Y384243D01*
X204618Y384469D01*
X204710Y384728D01*
X204787Y385019D01*
X204849Y385344D01*
X204896Y385701D01*
X204946Y386514D01*
X204949Y386969D01*
X207969Y383949D01*
D02*
G37*
G36*
X117500Y383000D02*
X117500Y380278D01*
X115953D01*
Y381965D01*
X108047D01*
Y375635D01*
X115953D01*
Y377322D01*
X117500D01*
X117500Y370500D01*
Y365378D01*
X113215Y361093D01*
X112894Y360613D01*
X112863Y360457D01*
X112511Y360222D01*
X112247Y359826D01*
X112154Y359360D01*
Y356600D01*
X112247Y356134D01*
X112511Y355739D01*
X112906Y355475D01*
X113372Y355382D01*
X114053D01*
X114223Y354882D01*
X114164Y354836D01*
X113751Y354298D01*
X113491Y353672D01*
X113403Y353000D01*
X113491Y352328D01*
X113751Y351701D01*
X114164Y351164D01*
X114701Y350751D01*
X115328Y350491D01*
X116000Y350403D01*
X116447Y350462D01*
X117500Y349409D01*
X117500Y315000D01*
X129500Y315000D01*
X129500Y305000D01*
X114839Y305000D01*
Y306173D01*
X110083D01*
Y306173D01*
X109917D01*
Y306173D01*
X105161D01*
Y305000D01*
X100500D01*
Y331255D01*
X100991Y331328D01*
X101251Y330701D01*
X101664Y330164D01*
X102022Y329889D01*
Y321047D01*
X102134Y320481D01*
X102455Y320002D01*
X104276Y318181D01*
X104406Y318040D01*
X104472Y317957D01*
Y317828D01*
X104465Y317790D01*
X104472Y317752D01*
Y314925D01*
X107634D01*
X107825Y314463D01*
X107127Y313765D01*
X106806Y313285D01*
X106764Y313075D01*
X105260D01*
Y307925D01*
X109622D01*
Y311088D01*
X109651Y311231D01*
Y311985D01*
X109878Y312163D01*
X110378Y311923D01*
Y311000D01*
X112059D01*
Y313075D01*
X111272D01*
X111080Y313537D01*
X112277Y314733D01*
X112416Y314863D01*
X112494Y314925D01*
X115528D01*
Y320075D01*
X110378D01*
Y317081D01*
X110091Y316838D01*
X109622Y317040D01*
Y320075D01*
X106795D01*
X106757Y320082D01*
X106719Y320075D01*
X106593D01*
X106400Y320238D01*
X104978Y321660D01*
Y329889D01*
X105336Y330164D01*
X105749Y330701D01*
X106009Y331328D01*
X106097Y332000D01*
X106009Y332672D01*
X105749Y333298D01*
X105336Y333836D01*
X105031Y334071D01*
X105047Y334571D01*
X106468D01*
Y336183D01*
X107367D01*
X107416Y336109D01*
X107811Y335845D01*
X108278Y335752D01*
X113203D01*
X113669Y335845D01*
X114064Y336109D01*
X114328Y336504D01*
X114421Y336970D01*
Y338352D01*
X114328Y338819D01*
X114247Y338941D01*
X114328Y339063D01*
X114421Y339529D01*
Y340911D01*
X114328Y341378D01*
X114247Y341500D01*
X114328Y341622D01*
X114421Y342089D01*
Y342280D01*
X110740D01*
X107059D01*
Y342089D01*
X107152Y341622D01*
X107234Y341500D01*
X107152Y341378D01*
X107059Y340911D01*
Y339914D01*
X106559Y339561D01*
X106468Y339594D01*
Y342158D01*
X103500D01*
Y342657D01*
X103000D01*
Y345429D01*
X100531Y345429D01*
X100500Y345916D01*
Y382607D01*
X100635Y382653D01*
X100761Y382613D01*
X101122Y382292D01*
Y380449D01*
X103500D01*
X105878D01*
Y382500D01*
X106173Y383000D01*
X117500Y383000D01*
D02*
G37*
G36*
X114938Y379614D02*
X114965Y379538D01*
X115011Y379470D01*
X115075Y379412D01*
X115157Y379363D01*
X115257Y379322D01*
X115376Y379291D01*
X115512Y379268D01*
X115667Y379255D01*
X115841Y379250D01*
Y378350D01*
X115667Y378345D01*
X115512Y378332D01*
X115376Y378309D01*
X115257Y378278D01*
X115157Y378238D01*
X115075Y378188D01*
X115011Y378130D01*
X114965Y378062D01*
X114938Y377986D01*
X114929Y377900D01*
Y379700D01*
X114938Y379614D01*
D02*
G37*
G36*
X137667Y370775D02*
X137436Y370537D01*
X136922Y369930D01*
X136810Y369762D01*
X136729Y369612D01*
X136677Y369479D01*
X136655Y369363D01*
X136663Y369265D01*
X136700Y369184D01*
X135636Y370641D01*
X135697Y370583D01*
X135772Y370552D01*
X135862Y370548D01*
X135967Y370572D01*
X136086Y370623D01*
X136221Y370702D01*
X136371Y370808D01*
X136535Y370941D01*
X136909Y371290D01*
X137667Y370775D01*
D02*
G37*
G36*
X123462Y369598D02*
X123283Y369412D01*
X123001Y369080D01*
X122898Y368933D01*
X122820Y368799D01*
X122768Y368678D01*
X122741Y368570D01*
X122740Y368476D01*
X122764Y368394D01*
X122814Y368325D01*
X121553Y369586D01*
X121622Y369536D01*
X121704Y369512D01*
X121799Y369513D01*
X121907Y369539D01*
X122027Y369592D01*
X122161Y369669D01*
X122308Y369772D01*
X122468Y369901D01*
X122826Y370234D01*
X123462Y369598D01*
D02*
G37*
G36*
X121927Y366442D02*
X121857Y366493D01*
X121774Y366518D01*
X121679D01*
X121571Y366493D01*
X121450Y366442D01*
X121316Y366365D01*
X121170Y366264D01*
X121011Y366136D01*
X120654Y365805D01*
X120018Y366442D01*
X120196Y366626D01*
X120476Y366957D01*
X120578Y367104D01*
X120654Y367237D01*
X120705Y367358D01*
X120731Y367466D01*
Y367562D01*
X120705Y367645D01*
X120654Y367715D01*
X121927Y366442D01*
D02*
G37*
G36*
X131201Y366347D02*
X131203Y366341D01*
X131205Y366322D01*
X131208Y366249D01*
X131213Y365737D01*
X130313D01*
X130311Y365855D01*
X130287Y366134D01*
X130273Y366202D01*
X130255Y366258D01*
X130235Y366302D01*
X130211Y366333D01*
X130184Y366352D01*
X130153Y366359D01*
X131201Y366347D01*
D02*
G37*
G36*
X133689Y363145D02*
X133713Y362866D01*
X133727Y362798D01*
X133745Y362742D01*
X133765Y362698D01*
X133789Y362667D01*
X133816Y362648D01*
X133847Y362641D01*
X132799Y362653D01*
X132797Y362659D01*
X132795Y362678D01*
X132792Y362751D01*
X132787Y363263D01*
X133687D01*
X133689Y363145D01*
D02*
G37*
G36*
X121258Y362031D02*
X121174Y362130D01*
X121082Y362218D01*
X120984Y362296D01*
X120878Y362363D01*
X120765Y362420D01*
X120645Y362467D01*
X120518Y362503D01*
X120384Y362529D01*
X120243Y362545D01*
X120095Y362550D01*
Y363450D01*
X120243Y363455D01*
X120384Y363471D01*
X120518Y363497D01*
X120645Y363533D01*
X120765Y363580D01*
X120878Y363637D01*
X120984Y363704D01*
X121082Y363782D01*
X121174Y363870D01*
X121258Y363969D01*
Y362031D01*
D02*
G37*
G36*
X123753Y363978D02*
X123882Y363867D01*
X124013Y363770D01*
X124144Y363685D01*
X124277Y363613D01*
X124410Y363554D01*
X124545Y363509D01*
X124680Y363476D01*
X124817Y363457D01*
X124954Y363450D01*
Y362550D01*
X124817Y362544D01*
X124680Y362524D01*
X124545Y362491D01*
X124410Y362446D01*
X124277Y362387D01*
X124144Y362315D01*
X124013Y362230D01*
X123882Y362133D01*
X123753Y362022D01*
X123625Y361898D01*
Y364102D01*
X123753Y363978D01*
D02*
G37*
G36*
X127265Y363120D02*
X127700Y362750D01*
X127816Y362674D01*
X127918Y362621D01*
X128005Y362591D01*
X128077Y362584D01*
X128135Y362601D01*
X128178Y362641D01*
X127300Y361369D01*
X127323Y361429D01*
X127322Y361505D01*
X127296Y361597D01*
X127246Y361704D01*
X127171Y361827D01*
X127071Y361966D01*
X126947Y362122D01*
X126624Y362479D01*
X126426Y362682D01*
X127091Y363290D01*
X127265Y363120D01*
D02*
G37*
G36*
X114710Y359952D02*
X114735Y359566D01*
X114742Y359551D01*
X114749Y359546D01*
X113771D01*
X113778Y359551D01*
X113785Y359566D01*
X113791Y359591D01*
X113796Y359626D01*
X113804Y359727D01*
X113810Y360047D01*
X114710D01*
X114710Y359952D01*
D02*
G37*
G36*
X118454Y360284D02*
X118468Y360128D01*
X118490Y359991D01*
X118521Y359872D01*
X118561Y359771D01*
X118610Y359689D01*
X118668Y359625D01*
X118735Y359579D01*
X118811Y359551D01*
X118895Y359542D01*
X117105D01*
X117189Y359551D01*
X117265Y359579D01*
X117332Y359625D01*
X117390Y359689D01*
X117439Y359771D01*
X117479Y359872D01*
X117510Y359991D01*
X117532Y360128D01*
X117546Y360284D01*
X117550Y360458D01*
X118450D01*
X118454Y360284D01*
D02*
G37*
G36*
X196568Y360843D02*
X196442Y360719D01*
X196329Y360594D01*
X196229Y360467D01*
X196142Y360338D01*
X196069Y360208D01*
X196009Y360076D01*
X195963Y359943D01*
X195929Y359808D01*
X195909Y359671D01*
X195908Y359653D01*
X195921Y359512D01*
X195943Y359376D01*
X195975Y359257D01*
X196015Y359157D01*
X196065Y359075D01*
X196123Y359011D01*
X196191Y358965D01*
X196267Y358938D01*
X196353Y358929D01*
X194553D01*
X194638Y358938D01*
X194715Y358965D01*
X194782Y359011D01*
X194841Y359075D01*
X194890Y359157D01*
X194931Y359257D01*
X194962Y359376D01*
X194985Y359512D01*
X194998Y359664D01*
X194996Y359697D01*
X194977Y359834D01*
X194945Y359969D01*
X194901Y360105D01*
X194843Y360240D01*
X194773Y360374D01*
X194690Y360509D01*
X194594Y360642D01*
X194486Y360776D01*
X194364Y360909D01*
X196568Y360843D01*
D02*
G37*
G36*
X152478Y360747D02*
X152367Y360618D01*
X152270Y360487D01*
X152185Y360356D01*
X152113Y360223D01*
X152054Y360090D01*
X152009Y359955D01*
X151976Y359820D01*
X151956Y359683D01*
X151955Y359658D01*
X151968Y359512D01*
X151990Y359376D01*
X152022Y359257D01*
X152062Y359157D01*
X152112Y359075D01*
X152171Y359011D01*
X152238Y358965D01*
X152314Y358938D01*
X152400Y358929D01*
X150600D01*
X150686Y358938D01*
X150762Y358965D01*
X150830Y359011D01*
X150888Y359075D01*
X150937Y359157D01*
X150978Y359257D01*
X151010Y359376D01*
X151032Y359512D01*
X151045Y359658D01*
X151043Y359683D01*
X151024Y359820D01*
X150991Y359955D01*
X150946Y360090D01*
X150887Y360223D01*
X150815Y360356D01*
X150730Y360487D01*
X150633Y360618D01*
X150522Y360747D01*
X150398Y360875D01*
X152602D01*
X152478Y360747D01*
D02*
G37*
G36*
X122764Y357606D02*
X122740Y357524D01*
X122741Y357430D01*
X122768Y357322D01*
X122820Y357201D01*
X122898Y357067D01*
X123001Y356920D01*
X123129Y356761D01*
X123462Y356402D01*
X122826Y355766D01*
X122640Y355945D01*
X122308Y356228D01*
X122161Y356331D01*
X122027Y356408D01*
X121907Y356461D01*
X121799Y356487D01*
X121704Y356488D01*
X121622Y356464D01*
X121553Y356414D01*
X122814Y357675D01*
X122764Y357606D01*
D02*
G37*
G36*
X131338Y355260D02*
X130000Y355248D01*
X130086Y355258D01*
X130162Y355285D01*
X130230Y355331D01*
X130288Y355396D01*
X130338Y355478D01*
X130378Y355578D01*
X130410Y355696D01*
X130432Y355833D01*
X130446Y355987D01*
X130450Y356160D01*
X131350D01*
X131338Y355260D01*
D02*
G37*
G36*
X128213Y352600D02*
X128204Y352685D01*
X128177Y352762D01*
X128132Y352830D01*
X128069Y352888D01*
X127988Y352938D01*
X127889Y352978D01*
X127772Y353010D01*
X127637Y353032D01*
X127484Y353046D01*
X127313Y353050D01*
Y353950D01*
X127484Y353955D01*
X127637Y353968D01*
X127772Y353991D01*
X127889Y354022D01*
X127988Y354063D01*
X128069Y354112D01*
X128132Y354170D01*
X128177Y354238D01*
X128204Y354314D01*
X128213Y354400D01*
Y352600D01*
D02*
G37*
G36*
X135315Y351743D02*
X135238Y351716D01*
X135170Y351670D01*
X135112Y351606D01*
X135063Y351524D01*
X135022Y351424D01*
X134991Y351306D01*
X134968Y351169D01*
X134955Y351014D01*
X134950Y350840D01*
X134050D01*
X134046Y351014D01*
X134032Y351169D01*
X134010Y351306D01*
X133978Y351424D01*
X133938Y351524D01*
X133888Y351606D01*
X133829Y351670D01*
X133762Y351716D01*
X133686Y351743D01*
X133600Y351752D01*
X135400D01*
X135315Y351743D01*
D02*
G37*
G36*
X190367Y353029D02*
X190290Y352939D01*
X190222Y352789D01*
X190163Y352579D01*
X190113Y352309D01*
X190073Y351979D01*
X190018Y351139D01*
X190000Y350059D01*
X187000D01*
X186992Y350629D01*
X186923Y351589D01*
X186864Y351979D01*
X186787Y352309D01*
X186693Y352579D01*
X186582Y352789D01*
X186454Y352939D01*
X186309Y353029D01*
X186147Y353059D01*
X190453D01*
X190367Y353029D01*
D02*
G37*
G36*
X160691D02*
X160546Y352939D01*
X160418Y352789D01*
X160307Y352579D01*
X160213Y352309D01*
X160136Y351979D01*
X160077Y351589D01*
X160034Y351139D01*
X160000Y350059D01*
X157000D01*
X156995Y350629D01*
X156887Y352309D01*
X156837Y352579D01*
X156778Y352789D01*
X156710Y352939D01*
X156633Y353029D01*
X156547Y353059D01*
X160853D01*
X160691Y353029D01*
D02*
G37*
G36*
X124850Y348050D02*
X124679Y348041D01*
X124526Y348014D01*
X124391Y347969D01*
X124274Y347906D01*
X124175Y347825D01*
X124094Y347726D01*
X124031Y347609D01*
X123986Y347474D01*
X123959Y347321D01*
X123950Y347150D01*
X123050D01*
X123041Y347321D01*
X123014Y347474D01*
X122969Y347609D01*
X122906Y347726D01*
X122825Y347825D01*
X122726Y347906D01*
X122609Y347969D01*
X122474Y348014D01*
X122321Y348041D01*
X122150Y348050D01*
X123500Y348950D01*
X124850Y348050D01*
D02*
G37*
G36*
X105454Y338476D02*
X105481Y338399D01*
X105527Y338332D01*
X105590Y338273D01*
X105673Y338224D01*
X105773Y338183D01*
X105891Y338152D01*
X106028Y338129D01*
X106183Y338116D01*
X106357Y338111D01*
Y337211D01*
X106183Y337207D01*
X106028Y337193D01*
X105891Y337171D01*
X105773Y337139D01*
X105673Y337099D01*
X105590Y337049D01*
X105527Y336991D01*
X105481Y336923D01*
X105454Y336847D01*
X105445Y336761D01*
Y338561D01*
X105454Y338476D01*
D02*
G37*
G36*
X104314Y335586D02*
X104238Y335558D01*
X104171Y335513D01*
X104112Y335449D01*
X104062Y335367D01*
X104022Y335267D01*
X103990Y335148D01*
X103968Y335011D01*
X103955Y334856D01*
X103950Y334683D01*
X103050D01*
X103045Y334856D01*
X103032Y335011D01*
X103009Y335148D01*
X102978Y335267D01*
X102937Y335367D01*
X102888Y335449D01*
X102830Y335513D01*
X102762Y335558D01*
X102685Y335586D01*
X102600Y335595D01*
X104400D01*
X104314Y335586D01*
D02*
G37*
G36*
X123954Y332168D02*
X123968Y332012D01*
X123990Y331876D01*
X124022Y331757D01*
X124063Y331657D01*
X124112Y331575D01*
X124170Y331511D01*
X124238Y331465D01*
X124314Y331438D01*
X124400Y331429D01*
X122600D01*
X122686Y331438D01*
X122762Y331465D01*
X122829Y331511D01*
X122888Y331575D01*
X122938Y331657D01*
X122978Y331757D01*
X123010Y331876D01*
X123032Y332012D01*
X123046Y332168D01*
X123050Y332341D01*
X123950D01*
X123954Y332168D01*
D02*
G37*
G36*
X220013Y333618D02*
X220050Y333248D01*
X220113Y332892D01*
X220201Y332551D01*
X220314Y332225D01*
X220452Y331913D01*
X220615Y331616D01*
X220804Y331333D01*
X221017Y331065D01*
X221256Y330812D01*
X215744D01*
X215983Y331065D01*
X216196Y331333D01*
X216385Y331616D01*
X216548Y331913D01*
X216686Y332225D01*
X216799Y332551D01*
X216887Y332892D01*
X216950Y333248D01*
X216987Y333618D01*
X217000Y334002D01*
X220000D01*
X220013Y333618D01*
D02*
G37*
G36*
X190013D02*
X190050Y333248D01*
X190113Y332892D01*
X190201Y332551D01*
X190314Y332225D01*
X190452Y331913D01*
X190615Y331616D01*
X190804Y331333D01*
X191017Y331065D01*
X191256Y330812D01*
X185744D01*
X185983Y331065D01*
X186196Y331333D01*
X186385Y331616D01*
X186548Y331913D01*
X186686Y332225D01*
X186799Y332551D01*
X186887Y332892D01*
X186950Y333248D01*
X186987Y333618D01*
X187000Y334002D01*
X190000D01*
X190013Y333618D01*
D02*
G37*
G36*
X160013D02*
X160050Y333248D01*
X160113Y332892D01*
X160201Y332551D01*
X160314Y332225D01*
X160452Y331913D01*
X160615Y331616D01*
X160804Y331333D01*
X161017Y331065D01*
X161256Y330812D01*
X155744D01*
X155983Y331065D01*
X156196Y331333D01*
X156385Y331616D01*
X156548Y331913D01*
X156686Y332225D01*
X156799Y332551D01*
X156887Y332892D01*
X156950Y333248D01*
X156987Y333618D01*
X157000Y334002D01*
X160000D01*
X160013Y333618D01*
D02*
G37*
G36*
X188501Y326500D02*
X188317Y326480D01*
X188111Y326422D01*
X187884Y326324D01*
X187635Y326187D01*
X187364Y326012D01*
X187072Y325797D01*
X186884Y325640D01*
X188461Y324063D01*
X187839Y324061D01*
X186258Y323948D01*
X185827Y323875D01*
X185443Y323784D01*
X185106Y323676D01*
X184817Y323550D01*
X184576Y323407D01*
X184382Y323246D01*
X183746Y323882D01*
X183907Y324076D01*
X184050Y324317D01*
X184176Y324606D01*
X184284Y324943D01*
X184375Y325327D01*
X184448Y325758D01*
X184503Y326238D01*
X184561Y327339D01*
X184563Y327961D01*
X186136Y326387D01*
X186297Y326572D01*
X186512Y326864D01*
X186688Y327135D01*
X186824Y327384D01*
X186922Y327611D01*
X186980Y327817D01*
X187000Y328001D01*
X188501Y326500D01*
D02*
G37*
G36*
X131815Y325562D02*
X131738Y325535D01*
X131670Y325489D01*
X131612Y325425D01*
X131562Y325343D01*
X131522Y325243D01*
X131491Y325124D01*
X131468Y324988D01*
X131455Y324842D01*
X131456Y324816D01*
X131476Y324680D01*
X131509Y324545D01*
X131554Y324410D01*
X131613Y324277D01*
X131685Y324144D01*
X131770Y324013D01*
X131868Y323882D01*
X131978Y323753D01*
X132102Y323625D01*
X129898D01*
X130022Y323753D01*
X130132Y323882D01*
X130230Y324013D01*
X130315Y324144D01*
X130387Y324277D01*
X130446Y324410D01*
X130491Y324545D01*
X130524Y324680D01*
X130543Y324816D01*
X130545Y324842D01*
X130532Y324988D01*
X130509Y325124D01*
X130478Y325243D01*
X130438Y325343D01*
X130388Y325425D01*
X130330Y325489D01*
X130262Y325535D01*
X130185Y325562D01*
X130100Y325571D01*
X131900D01*
X131815Y325562D01*
D02*
G37*
G36*
X192447Y327613D02*
X192486Y327272D01*
X192552Y326939D01*
X192647Y326613D01*
X192770Y326295D01*
X192921Y325985D01*
X193100Y325681D01*
X193307Y325386D01*
X193542Y325097D01*
X193805Y324816D01*
X191684Y322695D01*
X191403Y322958D01*
X191114Y323193D01*
X190819Y323400D01*
X190515Y323579D01*
X190205Y323730D01*
X189886Y323853D01*
X189561Y323947D01*
X189228Y324014D01*
X188887Y324053D01*
X188539Y324063D01*
X192437Y327961D01*
X192447Y327613D01*
D02*
G37*
G36*
X158461Y324063D02*
X158113Y324053D01*
X157772Y324014D01*
X157439Y323947D01*
X157114Y323853D01*
X156795Y323730D01*
X156485Y323579D01*
X156181Y323400D01*
X155886Y323193D01*
X155597Y322958D01*
X155316Y322695D01*
X153195Y324816D01*
X153458Y325097D01*
X153693Y325386D01*
X153900Y325681D01*
X154079Y325985D01*
X154230Y326295D01*
X154353Y326613D01*
X154447Y326939D01*
X154514Y327272D01*
X154553Y327613D01*
X154563Y327961D01*
X158461Y324063D01*
D02*
G37*
G36*
X105669Y319521D02*
X106000Y319241D01*
X106146Y319139D01*
X106280Y319063D01*
X106401Y319012D01*
X106509Y318986D01*
X106605D01*
X106687Y319012D01*
X106757Y319063D01*
X105484Y317790D01*
X105535Y317860D01*
X105561Y317943D01*
Y318038D01*
X105535Y318146D01*
X105484Y318267D01*
X105408Y318401D01*
X105306Y318547D01*
X105179Y318706D01*
X104848Y319063D01*
X105484Y319699D01*
X105669Y319521D01*
D02*
G37*
G36*
X112663Y315949D02*
X112594Y315999D01*
X112512Y316023D01*
X112417Y316022D01*
X112309Y315995D01*
X112188Y315943D01*
X112055Y315866D01*
X111908Y315763D01*
X111748Y315634D01*
X111390Y315301D01*
X110754Y315937D01*
X110933Y316123D01*
X111215Y316455D01*
X111318Y316602D01*
X111396Y316736D01*
X111448Y316857D01*
X111475Y316964D01*
X111476Y317059D01*
X111452Y317141D01*
X111402Y317210D01*
X112663Y315949D01*
D02*
G37*
G36*
X134478Y314747D02*
X134368Y314618D01*
X134270Y314487D01*
X134185Y314356D01*
X134113Y314223D01*
X134054Y314090D01*
X134009Y313955D01*
X133976Y313820D01*
X133957Y313684D01*
X133955Y313658D01*
X133968Y313512D01*
X133991Y313376D01*
X134022Y313257D01*
X134063Y313157D01*
X134112Y313075D01*
X134170Y313011D01*
X134238Y312965D01*
X134315Y312938D01*
X134400Y312929D01*
X132600D01*
X132685Y312938D01*
X132762Y312965D01*
X132829Y313011D01*
X132888Y313075D01*
X132938Y313157D01*
X132978Y313257D01*
X133010Y313376D01*
X133032Y313512D01*
X133045Y313658D01*
X133044Y313684D01*
X133024Y313820D01*
X132991Y313955D01*
X132946Y314090D01*
X132887Y314223D01*
X132815Y314356D01*
X132730Y314487D01*
X132633Y314618D01*
X132522Y314747D01*
X132398Y314875D01*
X134602D01*
X134478Y314747D01*
D02*
G37*
G36*
X108610Y312063D02*
X107516Y312051D01*
X107555Y312058D01*
X107590Y312078D01*
X107621Y312112D01*
X107648Y312159D01*
X107670Y312219D01*
X107689Y312293D01*
X107703Y312379D01*
X107714Y312479D01*
X107722Y312719D01*
X108622D01*
X108610Y312063D01*
D02*
G37*
G36*
X113824Y304314D02*
X113851Y304238D01*
X113897Y304170D01*
X113961Y304112D01*
X114043Y304063D01*
X114143Y304022D01*
X114261Y303991D01*
X114398Y303968D01*
X114553Y303955D01*
X114727Y303950D01*
Y303050D01*
X114553Y303046D01*
X114398Y303032D01*
X114261Y303010D01*
X114143Y302978D01*
X114043Y302938D01*
X113961Y302888D01*
X113897Y302830D01*
X113851Y302762D01*
X113824Y302685D01*
X113815Y302600D01*
Y304400D01*
X113824Y304314D01*
D02*
G37*
G36*
X149253Y304478D02*
X149382Y304367D01*
X149513Y304270D01*
X149644Y304185D01*
X149777Y304113D01*
X149910Y304054D01*
X150045Y304009D01*
X150180Y303976D01*
X150317Y303957D01*
X150454Y303950D01*
Y303050D01*
X150317Y303044D01*
X150180Y303024D01*
X150045Y302991D01*
X149910Y302946D01*
X149777Y302887D01*
X149644Y302815D01*
X149513Y302730D01*
X149382Y302632D01*
X149253Y302522D01*
X149125Y302398D01*
Y304602D01*
X149253Y304478D01*
D02*
G37*
G36*
X136375Y302398D02*
X136247Y302522D01*
X136118Y302632D01*
X135987Y302730D01*
X135856Y302815D01*
X135723Y302887D01*
X135590Y302946D01*
X135455Y302991D01*
X135320Y303024D01*
X135184Y303044D01*
X135046Y303050D01*
Y303950D01*
X135184Y303957D01*
X135320Y303976D01*
X135455Y304009D01*
X135590Y304054D01*
X135723Y304113D01*
X135856Y304185D01*
X135987Y304270D01*
X136118Y304367D01*
X136247Y304478D01*
X136375Y304602D01*
Y302398D01*
D02*
G37*
G36*
X108671Y301846D02*
X108661Y301830D01*
X108652Y301804D01*
X108644Y301767D01*
X108637Y301720D01*
X108627Y301595D01*
X108622Y301328D01*
X107722D01*
X107721Y301427D01*
X107700Y301767D01*
X107692Y301804D01*
X107683Y301830D01*
X107673Y301846D01*
X107661Y301851D01*
X108683D01*
X108671Y301846D01*
D02*
G37*
G36*
X111622Y298521D02*
X111953Y298241D01*
X112099Y298139D01*
X112233Y298063D01*
X112354Y298012D01*
X112462Y297986D01*
X112557D01*
X112640Y298012D01*
X112710Y298063D01*
X111437Y296790D01*
X111488Y296860D01*
X111514Y296943D01*
Y297038D01*
X111488Y297146D01*
X111437Y297267D01*
X111361Y297401D01*
X111259Y297547D01*
X111132Y297706D01*
X110801Y298063D01*
X111437Y298699D01*
X111622Y298521D01*
D02*
G37*
G36*
X107909Y294928D02*
X107833Y294901D01*
X107765Y294856D01*
X107706Y294793D01*
X107657Y294712D01*
X107616Y294613D01*
X107585Y294496D01*
X107562Y294361D01*
X107549Y294208D01*
X107545Y294037D01*
X106644D01*
X106640Y294208D01*
X106626Y294361D01*
X106604Y294496D01*
X106572Y294613D01*
X106532Y294712D01*
X106483Y294793D01*
X106424Y294856D01*
X106357Y294901D01*
X106280Y294928D01*
X106194Y294937D01*
X107994D01*
X107909Y294928D01*
D02*
G37*
G36*
X107551Y287722D02*
X107571Y287586D01*
X107603Y287450D01*
X107649Y287316D01*
X107708Y287182D01*
X107779Y287050D01*
X107864Y286918D01*
X107962Y286788D01*
X108073Y286659D01*
X108197Y286530D01*
X105992D01*
X106116Y286659D01*
X106227Y286788D01*
X106325Y286918D01*
X106410Y287050D01*
X106481Y287182D01*
X106540Y287316D01*
X106586Y287450D01*
X106618Y287586D01*
X106638Y287722D01*
X106644Y287860D01*
X107545D01*
X107551Y287722D01*
D02*
G37*
G36*
X222054Y247691D02*
X222090Y247418D01*
X222153Y247147D01*
X222243Y246877D01*
X222359Y246609D01*
X222501Y246342D01*
X222670Y246076D01*
X222865Y245812D01*
X223086Y245549D01*
X223334Y245287D01*
X221213Y243166D01*
X220951Y243414D01*
X220688Y243635D01*
X220424Y243830D01*
X220158Y243999D01*
X219891Y244141D01*
X219623Y244257D01*
X219353Y244346D01*
X219082Y244410D01*
X218809Y244446D01*
X218535Y244457D01*
X222043Y247965D01*
X222054Y247691D01*
D02*
G37*
G36*
X161757Y246538D02*
X161721Y246291D01*
X161721Y246041D01*
X161757Y245789D01*
X161829Y245534D01*
X161936Y245277D01*
X162079Y245018D01*
X162258Y244756D01*
X162472Y244492D01*
X162722Y244225D01*
X159741Y242963D01*
X159481Y243217D01*
X158727Y243865D01*
X158485Y244043D01*
X158017Y244342D01*
X157790Y244463D01*
X157567Y244565D01*
X157350Y244649D01*
X161828Y246783D01*
X161757Y246538D01*
D02*
G37*
G36*
X227013Y219118D02*
X227050Y218748D01*
X227113Y218392D01*
X227201Y218051D01*
X227314Y217725D01*
X227452Y217413D01*
X227615Y217116D01*
X227804Y216833D01*
X228017Y216565D01*
X228256Y216312D01*
X222744D01*
X222983Y216565D01*
X223196Y216833D01*
X223385Y217116D01*
X223548Y217413D01*
X223686Y217725D01*
X223799Y218051D01*
X223887Y218392D01*
X223950Y218748D01*
X223987Y219118D01*
X224000Y219502D01*
X227000D01*
X227013Y219118D01*
D02*
G37*
G36*
X113040Y215262D02*
X113124Y215207D01*
X113241Y215159D01*
X113392Y215117D01*
X113576Y215081D01*
X113794Y215052D01*
X114330Y215013D01*
X115000Y215000D01*
Y212000D01*
X114648Y211997D01*
X113576Y211919D01*
X113392Y211883D01*
X113241Y211842D01*
X113124Y211793D01*
X113040Y211738D01*
X112989Y211677D01*
Y215323D01*
X113040Y215262D01*
D02*
G37*
G36*
X224112Y182846D02*
X224669Y182372D01*
X224954Y182159D01*
X225537Y181784D01*
X225835Y181622D01*
X226443Y181345D01*
X226754Y181232D01*
X221794Y178828D01*
X221884Y179134D01*
X221934Y179438D01*
X221944Y179740D01*
X221915Y180040D01*
X221846Y180338D01*
X221737Y180635D01*
X221588Y180930D01*
X221399Y181222D01*
X221170Y181513D01*
X220902Y181803D01*
X223840Y183107D01*
X224112Y182846D01*
D02*
G37*
G36*
X242513Y178118D02*
X242550Y177748D01*
X242613Y177392D01*
X242701Y177051D01*
X242814Y176725D01*
X242952Y176413D01*
X243115Y176116D01*
X243304Y175833D01*
X243517Y175565D01*
X243756Y175312D01*
X238244D01*
X238483Y175565D01*
X238696Y175833D01*
X238885Y176116D01*
X239048Y176413D01*
X239186Y176725D01*
X239299Y177051D01*
X239387Y177392D01*
X239450Y177748D01*
X239487Y178118D01*
X239500Y178502D01*
X242500D01*
X242513Y178118D01*
D02*
G37*
G36*
X112565Y180017D02*
X112833Y179804D01*
X113116Y179615D01*
X113413Y179452D01*
X113725Y179314D01*
X114051Y179201D01*
X114392Y179113D01*
X114748Y179050D01*
X115118Y179013D01*
X115502Y179000D01*
Y176000D01*
X115118Y175987D01*
X114748Y175950D01*
X114392Y175887D01*
X114051Y175799D01*
X113725Y175686D01*
X113413Y175548D01*
X113116Y175385D01*
X112833Y175196D01*
X112565Y174983D01*
X112312Y174744D01*
Y180256D01*
X112565Y180017D01*
D02*
G37*
G36*
X231785Y163173D02*
X231848Y162955D01*
X231955Y162713D01*
X232103Y162447D01*
X232294Y162156D01*
X232527Y161841D01*
X233121Y161139D01*
X233885Y160339D01*
X231468Y158513D01*
X231056Y158916D01*
X229966Y159870D01*
X229651Y160104D01*
X229360Y160295D01*
X229094Y160443D01*
X228852Y160549D01*
X228635Y160613D01*
X228441Y160634D01*
X231764Y163366D01*
X231785Y163173D01*
D02*
G37*
G36*
X234530Y156430D02*
X234620Y155920D01*
X234770Y155470D01*
X234980Y155080D01*
X235250Y154750D01*
X235580Y154480D01*
X235970Y154270D01*
X236296Y154161D01*
X236449Y154201D01*
X236775Y154314D01*
X237087Y154452D01*
X237384Y154615D01*
X237667Y154804D01*
X237935Y155017D01*
X238188Y155256D01*
Y149744D01*
X237935Y149983D01*
X237667Y150196D01*
X237384Y150385D01*
X237087Y150548D01*
X236775Y150686D01*
X236449Y150799D01*
X236296Y150839D01*
X235970Y150730D01*
X235580Y150520D01*
X235250Y150250D01*
X234980Y149920D01*
X234770Y149530D01*
X234620Y149080D01*
X234530Y148570D01*
X234500Y148000D01*
X231500Y152500D01*
X234500Y157000D01*
X234530Y156430D01*
D02*
G37*
G36*
X143404Y156761D02*
X143852Y156444D01*
X144362Y156152D01*
X144932Y155888D01*
X145564Y155650D01*
X146256Y155439D01*
X147009Y155254D01*
X148697Y154964D01*
X149633Y154859D01*
X142136Y148790D01*
X142213Y149653D01*
X142241Y150468D01*
X142219Y151233D01*
X142147Y151949D01*
X142025Y152616D01*
X141853Y153234D01*
X141631Y153802D01*
X141359Y154322D01*
X141037Y154792D01*
X140666Y155213D01*
X143016Y157105D01*
X143404Y156761D01*
D02*
G37*
G36*
X174719Y155952D02*
X175189Y155630D01*
X175708Y155358D01*
X176277Y155136D01*
X176895Y154963D01*
X177562Y154841D01*
X178279Y154767D01*
X179045Y154744D01*
X179860Y154770D01*
X180724Y154846D01*
X174640Y147362D01*
X174537Y148296D01*
X174250Y149984D01*
X174066Y150737D01*
X173856Y151429D01*
X173618Y152060D01*
X173354Y152630D01*
X173063Y153140D01*
X172746Y153589D01*
X172401Y153978D01*
X174298Y156323D01*
X174719Y155952D01*
D02*
G37*
G36*
X234513Y140118D02*
X234550Y139748D01*
X234613Y139392D01*
X234701Y139051D01*
X234814Y138725D01*
X234952Y138413D01*
X235115Y138116D01*
X235304Y137833D01*
X235517Y137565D01*
X235756Y137312D01*
X230244D01*
X230483Y137565D01*
X230696Y137833D01*
X230885Y138116D01*
X231048Y138413D01*
X231186Y138725D01*
X231299Y139051D01*
X231387Y139392D01*
X231450Y139748D01*
X231487Y140118D01*
X231500Y140502D01*
X234500D01*
X234513Y140118D01*
D02*
G37*
G36*
X230097Y119542D02*
X230386Y119307D01*
X230681Y119100D01*
X230985Y118921D01*
X231295Y118770D01*
X231613Y118647D01*
X231939Y118552D01*
X232272Y118486D01*
X232613Y118447D01*
X232961Y118437D01*
X229063Y114539D01*
X229053Y114887D01*
X229014Y115228D01*
X228947Y115561D01*
X228853Y115886D01*
X228730Y116205D01*
X228579Y116515D01*
X228400Y116819D01*
X228193Y117114D01*
X227958Y117403D01*
X227695Y117684D01*
X229816Y119805D01*
X230097Y119542D01*
D02*
G37*
G36*
X133122Y298156D02*
X133110Y298056D01*
Y297922D01*
X133088Y297767D01*
X133066Y297600D01*
X133033Y297434D01*
X132988Y297278D01*
Y297256D01*
X132966Y297211D01*
X132933Y297134D01*
X132899Y297045D01*
X132855Y296934D01*
X132788Y296823D01*
X132722Y296711D01*
X132644Y296611D01*
X132633Y296600D01*
X132599Y296567D01*
X132555Y296523D01*
X132488Y296467D01*
X132411Y296400D01*
X132322Y296334D01*
X132211Y296278D01*
X132099Y296223D01*
X132088Y296212D01*
X132044Y296200D01*
X131977Y296178D01*
X131888Y296156D01*
X131788Y296134D01*
X131666Y296111D01*
X131544Y296089D01*
X131400D01*
X131388D01*
X131344D01*
X131288D01*
X131211Y296100D01*
X131122Y296111D01*
X131022Y296134D01*
X130811Y296189D01*
X130800D01*
X130766Y296200D01*
X130711Y296223D01*
X130655Y296256D01*
X130489Y296334D01*
X130322Y296456D01*
X130311Y296467D01*
X130289Y296489D01*
X130244Y296523D01*
X130189Y296578D01*
X130133Y296645D01*
X130066Y296723D01*
X129933Y296900D01*
X129922Y296911D01*
X129911Y296945D01*
X129877Y297000D01*
X129844Y297067D01*
X129811Y297156D01*
X129766Y297256D01*
X129733Y297378D01*
X129700Y297500D01*
Y297489D01*
X129677Y297456D01*
X129655Y297400D01*
X129622Y297334D01*
X129578Y297267D01*
X129511Y297189D01*
X129444Y297111D01*
X129355Y297034D01*
X129344Y297023D01*
X129311Y297000D01*
X129266Y296956D01*
X129189Y296911D01*
X129100Y296845D01*
X129000Y296778D01*
X128866Y296711D01*
X128733Y296634D01*
X126589Y295589D01*
Y296600D01*
X128678Y297578D01*
X128689D01*
X128722Y297600D01*
X128755Y297622D01*
X128811Y297645D01*
X128944Y297722D01*
X129066Y297811D01*
X129077D01*
X129100Y297834D01*
X129166Y297878D01*
X129244Y297956D01*
X129322Y298056D01*
Y298067D01*
X129333Y298078D01*
X129377Y298145D01*
X129411Y298234D01*
X129455Y298345D01*
Y298356D01*
X129466Y298367D01*
Y298400D01*
X129478Y298445D01*
X129489Y298556D01*
X129500Y298700D01*
Y299111D01*
X126589D01*
Y300000D01*
X133122D01*
Y298156D01*
D02*
G37*
G36*
Y290501D02*
X132366D01*
Y293334D01*
X130355D01*
Y290612D01*
X129600D01*
Y293334D01*
X127344D01*
Y290501D01*
X126589D01*
Y294223D01*
X133122D01*
Y290501D01*
D02*
G37*
G36*
Y288557D02*
X128711Y287157D01*
X127422Y286757D01*
X128711Y286346D01*
X133122Y284935D01*
Y283979D01*
X126589Y286201D01*
Y287401D01*
X133122Y289568D01*
Y288557D01*
D02*
G37*
G36*
X129044Y281546D02*
X129066Y281524D01*
X129111Y281480D01*
X129189Y281402D01*
X129289Y281302D01*
X129400Y281191D01*
X129522Y281080D01*
X129644Y280969D01*
X129755Y280869D01*
X129766Y280857D01*
X129811Y280824D01*
X129866Y280780D01*
X129933Y280724D01*
X130022Y280658D01*
X130111Y280591D01*
X130300Y280469D01*
X130311Y280457D01*
X130344Y280446D01*
X130388Y280413D01*
X130455Y280380D01*
X130600Y280313D01*
X130766Y280269D01*
X130777D01*
X130811Y280258D01*
X130855Y280246D01*
X130911Y280235D01*
X130977D01*
X131066Y280224D01*
X131244Y280213D01*
X131255D01*
X131288D01*
X131333D01*
X131388Y280224D01*
X131544Y280235D01*
X131700Y280280D01*
X131711D01*
X131733Y280291D01*
X131777Y280302D01*
X131833Y280324D01*
X131955Y280391D01*
X132088Y280480D01*
X132099Y280491D01*
X132122Y280502D01*
X132144Y280535D01*
X132188Y280569D01*
X132266Y280691D01*
X132355Y280835D01*
Y280846D01*
X132366Y280869D01*
X132388Y280913D01*
X132411Y280980D01*
X132422Y281058D01*
X132444Y281135D01*
X132455Y281235D01*
Y281413D01*
X132444Y281491D01*
X132433Y281591D01*
X132411Y281713D01*
X132377Y281835D01*
X132333Y281968D01*
X132266Y282102D01*
X132255Y282113D01*
X132233Y282157D01*
X132188Y282224D01*
X132133Y282313D01*
X132066Y282402D01*
X131988Y282513D01*
X131888Y282613D01*
X131788Y282724D01*
X132355Y283202D01*
X132377Y283179D01*
X132422Y283135D01*
X132488Y283057D01*
X132577Y282957D01*
X132677Y282835D01*
X132777Y282691D01*
X132888Y282535D01*
X132977Y282357D01*
Y282346D01*
X132988Y282335D01*
X133010Y282268D01*
X133055Y282168D01*
X133099Y282035D01*
X133144Y281869D01*
X133188Y281680D01*
X133210Y281469D01*
X133222Y281235D01*
Y281157D01*
X133210Y281080D01*
Y280969D01*
X133188Y280846D01*
X133166Y280713D01*
X133133Y280569D01*
X133088Y280435D01*
X133077Y280424D01*
X133066Y280380D01*
X133033Y280313D01*
X132988Y280224D01*
X132933Y280124D01*
X132877Y280024D01*
X132711Y279824D01*
X132699Y279813D01*
X132666Y279780D01*
X132610Y279735D01*
X132544Y279669D01*
X132455Y279602D01*
X132355Y279535D01*
X132244Y279469D01*
X132111Y279413D01*
X132099Y279402D01*
X132044Y279391D01*
X131977Y279369D01*
X131877Y279335D01*
X131755Y279313D01*
X131622Y279291D01*
X131477Y279280D01*
X131311Y279269D01*
X131299D01*
X131244D01*
X131177D01*
X131077Y279280D01*
X130977Y279291D01*
X130855Y279313D01*
X130611Y279369D01*
X130600D01*
X130555Y279391D01*
X130489Y279413D01*
X130411Y279447D01*
X130311Y279491D01*
X130200Y279546D01*
X129966Y279680D01*
X129955Y279691D01*
X129911Y279713D01*
X129855Y279758D01*
X129766Y279813D01*
X129666Y279891D01*
X129555Y279980D01*
X129433Y280080D01*
X129311Y280191D01*
X129300Y280202D01*
X129255Y280246D01*
X129189Y280313D01*
X129100Y280391D01*
X128989Y280502D01*
X128866Y280624D01*
X128722Y280757D01*
X128578Y280913D01*
X127422Y282091D01*
Y278913D01*
X126589D01*
Y283224D01*
X127367D01*
X129044Y281546D01*
D02*
G37*
G36*
X130122Y277869D02*
X130311Y277858D01*
X130522Y277847D01*
X130744Y277813D01*
X130988Y277780D01*
X131222Y277736D01*
X131233D01*
X131255Y277724D01*
X131277Y277713D01*
X131322Y277702D01*
X131444Y277669D01*
X131588Y277625D01*
X131755Y277558D01*
X131933Y277480D01*
X132111Y277380D01*
X132288Y277280D01*
X132310Y277269D01*
X132366Y277224D01*
X132444Y277158D01*
X132544Y277069D01*
X132655Y276969D01*
X132766Y276836D01*
X132877Y276691D01*
X132977Y276525D01*
X132988Y276502D01*
X133010Y276447D01*
X133055Y276347D01*
X133099Y276225D01*
X133144Y276069D01*
X133188Y275880D01*
X133210Y275680D01*
X133222Y275458D01*
Y275369D01*
X133210Y275269D01*
X133199Y275147D01*
X133177Y275003D01*
X133133Y274836D01*
X133088Y274680D01*
X133022Y274514D01*
X133010Y274491D01*
X132988Y274436D01*
X132933Y274358D01*
X132866Y274258D01*
X132788Y274147D01*
X132677Y274025D01*
X132555Y273903D01*
X132411Y273780D01*
X132388Y273769D01*
X132333Y273725D01*
X132244Y273669D01*
X132122Y273603D01*
X131977Y273525D01*
X131788Y273447D01*
X131588Y273369D01*
X131355Y273303D01*
X131344D01*
X131322Y273292D01*
X131288D01*
X131244Y273281D01*
X131177Y273258D01*
X131111Y273247D01*
X131022Y273236D01*
X130933Y273214D01*
X130711Y273192D01*
X130455Y273158D01*
X130166Y273147D01*
X129855Y273136D01*
X129844D01*
X129822D01*
X129777D01*
X129733D01*
X129666D01*
X129589Y273147D01*
X129400Y273158D01*
X129189Y273169D01*
X128955Y273203D01*
X128711Y273236D01*
X128478Y273292D01*
X128466D01*
X128455Y273303D01*
X128422D01*
X128378Y273314D01*
X128267Y273358D01*
X128122Y273403D01*
X127955Y273469D01*
X127778Y273547D01*
X127600Y273636D01*
X127422Y273747D01*
X127400Y273758D01*
X127344Y273803D01*
X127267Y273869D01*
X127167Y273958D01*
X127056Y274058D01*
X126944Y274191D01*
X126833Y274336D01*
X126733Y274503D01*
X126722Y274525D01*
X126700Y274580D01*
X126655Y274680D01*
X126622Y274802D01*
X126578Y274958D01*
X126533Y275136D01*
X126511Y275336D01*
X126500Y275558D01*
Y275647D01*
X126511Y275747D01*
X126522Y275880D01*
X126544Y276025D01*
X126578Y276191D01*
X126622Y276358D01*
X126689Y276525D01*
X126700Y276547D01*
X126722Y276591D01*
X126778Y276669D01*
X126844Y276769D01*
X126922Y276891D01*
X127033Y277013D01*
X127155Y277136D01*
X127300Y277258D01*
X127322Y277269D01*
X127378Y277302D01*
X127467Y277358D01*
X127589Y277425D01*
X127733Y277502D01*
X127911Y277580D01*
X128122Y277658D01*
X128344Y277724D01*
X128355D01*
X128378Y277736D01*
X128411D01*
X128455Y277747D01*
X128522Y277758D01*
X128589Y277769D01*
X128678Y277791D01*
X128766Y277802D01*
X128989Y277836D01*
X129244Y277858D01*
X129544Y277869D01*
X129855Y277880D01*
X129866D01*
X129889D01*
X129933D01*
X129977D01*
X130044D01*
X130122Y277869D01*
D02*
G37*
G36*
X129044Y270281D02*
X129066Y270258D01*
X129111Y270214D01*
X129189Y270136D01*
X129289Y270036D01*
X129400Y269925D01*
X129522Y269814D01*
X129644Y269703D01*
X129755Y269603D01*
X129766Y269592D01*
X129811Y269559D01*
X129866Y269514D01*
X129933Y269459D01*
X130022Y269392D01*
X130111Y269325D01*
X130300Y269203D01*
X130311Y269192D01*
X130344Y269181D01*
X130388Y269147D01*
X130455Y269114D01*
X130600Y269047D01*
X130766Y269003D01*
X130777D01*
X130811Y268992D01*
X130855Y268981D01*
X130911Y268970D01*
X130977D01*
X131066Y268959D01*
X131244Y268948D01*
X131255D01*
X131288D01*
X131333D01*
X131388Y268959D01*
X131544Y268970D01*
X131700Y269014D01*
X131711D01*
X131733Y269025D01*
X131777Y269036D01*
X131833Y269059D01*
X131955Y269125D01*
X132088Y269214D01*
X132099Y269225D01*
X132122Y269236D01*
X132144Y269270D01*
X132188Y269303D01*
X132266Y269425D01*
X132355Y269570D01*
Y269581D01*
X132366Y269603D01*
X132388Y269648D01*
X132411Y269714D01*
X132422Y269792D01*
X132444Y269870D01*
X132455Y269970D01*
Y270147D01*
X132444Y270225D01*
X132433Y270325D01*
X132411Y270447D01*
X132377Y270570D01*
X132333Y270703D01*
X132266Y270836D01*
X132255Y270847D01*
X132233Y270892D01*
X132188Y270958D01*
X132133Y271047D01*
X132066Y271136D01*
X131988Y271247D01*
X131888Y271347D01*
X131788Y271458D01*
X132355Y271936D01*
X132377Y271914D01*
X132422Y271869D01*
X132488Y271792D01*
X132577Y271692D01*
X132677Y271569D01*
X132777Y271425D01*
X132888Y271269D01*
X132977Y271092D01*
Y271081D01*
X132988Y271070D01*
X133010Y271003D01*
X133055Y270903D01*
X133099Y270770D01*
X133144Y270603D01*
X133188Y270414D01*
X133210Y270203D01*
X133222Y269970D01*
Y269892D01*
X133210Y269814D01*
Y269703D01*
X133188Y269581D01*
X133166Y269447D01*
X133133Y269303D01*
X133088Y269170D01*
X133077Y269159D01*
X133066Y269114D01*
X133033Y269047D01*
X132988Y268959D01*
X132933Y268859D01*
X132877Y268759D01*
X132711Y268559D01*
X132699Y268548D01*
X132666Y268514D01*
X132610Y268470D01*
X132544Y268403D01*
X132455Y268337D01*
X132355Y268270D01*
X132244Y268203D01*
X132111Y268148D01*
X132099Y268137D01*
X132044Y268125D01*
X131977Y268103D01*
X131877Y268070D01*
X131755Y268048D01*
X131622Y268025D01*
X131477Y268014D01*
X131311Y268003D01*
X131299D01*
X131244D01*
X131177D01*
X131077Y268014D01*
X130977Y268025D01*
X130855Y268048D01*
X130611Y268103D01*
X130600D01*
X130555Y268125D01*
X130489Y268148D01*
X130411Y268181D01*
X130311Y268225D01*
X130200Y268281D01*
X129966Y268414D01*
X129955Y268425D01*
X129911Y268448D01*
X129855Y268492D01*
X129766Y268548D01*
X129666Y268625D01*
X129555Y268714D01*
X129433Y268814D01*
X129311Y268925D01*
X129300Y268936D01*
X129255Y268981D01*
X129189Y269047D01*
X129100Y269125D01*
X128989Y269236D01*
X128866Y269359D01*
X128722Y269492D01*
X128578Y269648D01*
X127422Y270825D01*
Y267648D01*
X126589D01*
Y271958D01*
X127367D01*
X129044Y270281D01*
D02*
G37*
G36*
X130122Y266603D02*
X130311Y266592D01*
X130522Y266581D01*
X130744Y266548D01*
X130988Y266514D01*
X131222Y266470D01*
X131233D01*
X131255Y266459D01*
X131277Y266448D01*
X131322Y266437D01*
X131444Y266403D01*
X131588Y266359D01*
X131755Y266292D01*
X131933Y266214D01*
X132111Y266114D01*
X132288Y266015D01*
X132310Y266003D01*
X132366Y265959D01*
X132444Y265892D01*
X132544Y265803D01*
X132655Y265703D01*
X132766Y265570D01*
X132877Y265426D01*
X132977Y265259D01*
X132988Y265237D01*
X133010Y265181D01*
X133055Y265081D01*
X133099Y264959D01*
X133144Y264804D01*
X133188Y264615D01*
X133210Y264415D01*
X133222Y264193D01*
Y264104D01*
X133210Y264004D01*
X133199Y263881D01*
X133177Y263737D01*
X133133Y263570D01*
X133088Y263415D01*
X133022Y263248D01*
X133010Y263226D01*
X132988Y263170D01*
X132933Y263093D01*
X132866Y262993D01*
X132788Y262881D01*
X132677Y262759D01*
X132555Y262637D01*
X132411Y262515D01*
X132388Y262504D01*
X132333Y262459D01*
X132244Y262404D01*
X132122Y262337D01*
X131977Y262259D01*
X131788Y262182D01*
X131588Y262104D01*
X131355Y262037D01*
X131344D01*
X131322Y262026D01*
X131288D01*
X131244Y262015D01*
X131177Y261993D01*
X131111Y261982D01*
X131022Y261970D01*
X130933Y261948D01*
X130711Y261926D01*
X130455Y261893D01*
X130166Y261882D01*
X129855Y261871D01*
X129844D01*
X129822D01*
X129777D01*
X129733D01*
X129666D01*
X129589Y261882D01*
X129400Y261893D01*
X129189Y261904D01*
X128955Y261937D01*
X128711Y261970D01*
X128478Y262026D01*
X128466D01*
X128455Y262037D01*
X128422D01*
X128378Y262048D01*
X128267Y262093D01*
X128122Y262137D01*
X127955Y262204D01*
X127778Y262282D01*
X127600Y262370D01*
X127422Y262481D01*
X127400Y262493D01*
X127344Y262537D01*
X127267Y262604D01*
X127167Y262693D01*
X127056Y262793D01*
X126944Y262926D01*
X126833Y263070D01*
X126733Y263237D01*
X126722Y263259D01*
X126700Y263315D01*
X126655Y263415D01*
X126622Y263537D01*
X126578Y263692D01*
X126533Y263870D01*
X126511Y264070D01*
X126500Y264293D01*
Y264381D01*
X126511Y264481D01*
X126522Y264615D01*
X126544Y264759D01*
X126578Y264926D01*
X126622Y265092D01*
X126689Y265259D01*
X126700Y265281D01*
X126722Y265326D01*
X126778Y265404D01*
X126844Y265504D01*
X126922Y265626D01*
X127033Y265748D01*
X127155Y265870D01*
X127300Y265992D01*
X127322Y266003D01*
X127378Y266037D01*
X127467Y266092D01*
X127589Y266159D01*
X127733Y266237D01*
X127911Y266315D01*
X128122Y266392D01*
X128344Y266459D01*
X128355D01*
X128378Y266470D01*
X128411D01*
X128455Y266481D01*
X128522Y266492D01*
X128589Y266503D01*
X128678Y266526D01*
X128766Y266537D01*
X128989Y266570D01*
X129244Y266592D01*
X129544Y266603D01*
X129855Y266614D01*
X129866D01*
X129889D01*
X129933D01*
X129977D01*
X130044D01*
X130122Y266603D01*
D02*
G37*
G36*
Y260971D02*
X130311Y260960D01*
X130522Y260948D01*
X130744Y260915D01*
X130988Y260882D01*
X131222Y260837D01*
X131233D01*
X131255Y260826D01*
X131277Y260815D01*
X131322Y260804D01*
X131444Y260771D01*
X131588Y260726D01*
X131755Y260660D01*
X131933Y260582D01*
X132111Y260482D01*
X132288Y260382D01*
X132310Y260371D01*
X132366Y260326D01*
X132444Y260260D01*
X132544Y260171D01*
X132655Y260071D01*
X132766Y259937D01*
X132877Y259793D01*
X132977Y259626D01*
X132988Y259604D01*
X133010Y259548D01*
X133055Y259449D01*
X133099Y259326D01*
X133144Y259171D01*
X133188Y258982D01*
X133210Y258782D01*
X133222Y258560D01*
Y258471D01*
X133210Y258371D01*
X133199Y258249D01*
X133177Y258104D01*
X133133Y257938D01*
X133088Y257782D01*
X133022Y257615D01*
X133010Y257593D01*
X132988Y257538D01*
X132933Y257460D01*
X132866Y257360D01*
X132788Y257249D01*
X132677Y257126D01*
X132555Y257004D01*
X132411Y256882D01*
X132388Y256871D01*
X132333Y256826D01*
X132244Y256771D01*
X132122Y256704D01*
X131977Y256627D01*
X131788Y256549D01*
X131588Y256471D01*
X131355Y256404D01*
X131344D01*
X131322Y256393D01*
X131288D01*
X131244Y256382D01*
X131177Y256360D01*
X131111Y256349D01*
X131022Y256338D01*
X130933Y256315D01*
X130711Y256293D01*
X130455Y256260D01*
X130166Y256249D01*
X129855Y256238D01*
X129844D01*
X129822D01*
X129777D01*
X129733D01*
X129666D01*
X129589Y256249D01*
X129400Y256260D01*
X129189Y256271D01*
X128955Y256304D01*
X128711Y256338D01*
X128478Y256393D01*
X128466D01*
X128455Y256404D01*
X128422D01*
X128378Y256416D01*
X128267Y256460D01*
X128122Y256504D01*
X127955Y256571D01*
X127778Y256649D01*
X127600Y256738D01*
X127422Y256849D01*
X127400Y256860D01*
X127344Y256904D01*
X127267Y256971D01*
X127167Y257060D01*
X127056Y257160D01*
X126944Y257293D01*
X126833Y257438D01*
X126733Y257604D01*
X126722Y257627D01*
X126700Y257682D01*
X126655Y257782D01*
X126622Y257904D01*
X126578Y258060D01*
X126533Y258238D01*
X126511Y258437D01*
X126500Y258660D01*
Y258749D01*
X126511Y258849D01*
X126522Y258982D01*
X126544Y259126D01*
X126578Y259293D01*
X126622Y259460D01*
X126689Y259626D01*
X126700Y259648D01*
X126722Y259693D01*
X126778Y259771D01*
X126844Y259871D01*
X126922Y259993D01*
X127033Y260115D01*
X127155Y260237D01*
X127300Y260360D01*
X127322Y260371D01*
X127378Y260404D01*
X127467Y260459D01*
X127589Y260526D01*
X127733Y260604D01*
X127911Y260682D01*
X128122Y260759D01*
X128344Y260826D01*
X128355D01*
X128378Y260837D01*
X128411D01*
X128455Y260848D01*
X128522Y260859D01*
X128589Y260871D01*
X128678Y260893D01*
X128766Y260904D01*
X128989Y260937D01*
X129244Y260960D01*
X129544Y260971D01*
X129855Y260982D01*
X129866D01*
X129889D01*
X129933D01*
X129977D01*
X130044D01*
X130122Y260971D01*
D02*
G37*
G36*
X131211Y255282D02*
X131322Y255271D01*
X131455Y255260D01*
X131588Y255227D01*
X131744Y255193D01*
X131888Y255138D01*
X131911Y255127D01*
X131955Y255104D01*
X132033Y255071D01*
X132122Y255016D01*
X132233Y254949D01*
X132344Y254871D01*
X132466Y254782D01*
X132577Y254671D01*
X132588Y254660D01*
X132622Y254616D01*
X132677Y254549D01*
X132744Y254471D01*
X132822Y254360D01*
X132899Y254249D01*
X132977Y254105D01*
X133044Y253960D01*
X133055Y253938D01*
X133077Y253882D01*
X133099Y253805D01*
X133133Y253682D01*
X133166Y253549D01*
X133199Y253394D01*
X133210Y253216D01*
X133222Y253038D01*
Y252960D01*
X133210Y252860D01*
X133199Y252749D01*
X133177Y252616D01*
X133155Y252460D01*
X133110Y252305D01*
X133055Y252149D01*
X133044Y252127D01*
X133022Y252083D01*
X132988Y252005D01*
X132933Y251905D01*
X132855Y251783D01*
X132766Y251672D01*
X132666Y251549D01*
X132533Y251427D01*
X132522Y251416D01*
X132466Y251383D01*
X132388Y251327D01*
X132288Y251260D01*
X132155Y251183D01*
X132000Y251105D01*
X131811Y251027D01*
X131611Y250960D01*
X131599D01*
X131588Y250949D01*
X131555Y250938D01*
X131511Y250927D01*
X131455Y250916D01*
X131388Y250905D01*
X131222Y250872D01*
X131022Y250838D01*
X130789Y250805D01*
X130522Y250794D01*
X130222Y250783D01*
X130211D01*
X130177D01*
X130133D01*
X130066D01*
X129977Y250794D01*
X129889D01*
X129777Y250805D01*
X129655Y250816D01*
X129400Y250838D01*
X129122Y250883D01*
X128844Y250938D01*
X128578Y251016D01*
X128567D01*
X128544Y251027D01*
X128511Y251038D01*
X128466Y251060D01*
X128333Y251116D01*
X128178Y251194D01*
X128000Y251283D01*
X127811Y251405D01*
X127622Y251549D01*
X127444Y251705D01*
X127422Y251727D01*
X127367Y251783D01*
X127289Y251883D01*
X127200Y252005D01*
X127089Y252171D01*
X126978Y252360D01*
X126878Y252571D01*
X126789Y252816D01*
Y252827D01*
X126778Y252849D01*
X126767Y252883D01*
X126755Y252938D01*
X126744Y252994D01*
X126722Y253071D01*
X126711Y253160D01*
X126689Y253260D01*
X126655Y253482D01*
X126622Y253738D01*
X126600Y254038D01*
X126589Y254349D01*
Y254893D01*
X127344D01*
Y254182D01*
X127356Y254060D01*
Y253916D01*
X127378Y253738D01*
X127400Y253549D01*
X127422Y253360D01*
X127467Y253183D01*
Y253171D01*
X127478Y253160D01*
X127489Y253105D01*
X127522Y253016D01*
X127567Y252905D01*
X127622Y252783D01*
X127689Y252649D01*
X127767Y252516D01*
X127855Y252394D01*
X127866Y252382D01*
X127900Y252338D01*
X127955Y252283D01*
X128033Y252216D01*
X128122Y252138D01*
X128222Y252060D01*
X128333Y251983D01*
X128466Y251916D01*
X128489Y251905D01*
X128533Y251894D01*
X128611Y251860D01*
X128711Y251827D01*
X128833Y251794D01*
X128978Y251760D01*
X129133Y251727D01*
X129300Y251705D01*
X129511Y251683D01*
X129500Y251694D01*
X129478Y251738D01*
X129444Y251805D01*
X129400Y251894D01*
X129355Y252005D01*
X129300Y252127D01*
X129255Y252271D01*
X129211Y252416D01*
Y252438D01*
X129189Y252483D01*
X129177Y252571D01*
X129155Y252682D01*
X129133Y252816D01*
X129122Y252960D01*
X129100Y253127D01*
Y253394D01*
X129111Y253482D01*
X129122Y253605D01*
X129133Y253738D01*
X129166Y253882D01*
X129200Y254038D01*
X129244Y254182D01*
X129255Y254193D01*
X129266Y254238D01*
X129300Y254316D01*
X129344Y254393D01*
X129411Y254493D01*
X129478Y254605D01*
X129555Y254704D01*
X129644Y254804D01*
X129655Y254816D01*
X129689Y254849D01*
X129744Y254893D01*
X129822Y254938D01*
X129911Y255005D01*
X130022Y255060D01*
X130133Y255116D01*
X130266Y255171D01*
X130277D01*
X130333Y255193D01*
X130400Y255205D01*
X130500Y255227D01*
X130611Y255249D01*
X130744Y255271D01*
X130888Y255282D01*
X131044Y255293D01*
X131066D01*
X131122D01*
X131211Y255282D01*
D02*
G37*
G36*
X133155Y247405D02*
Y246628D01*
X127400D01*
Y245172D01*
X126589D01*
Y249272D01*
X127400D01*
Y247594D01*
X132166D01*
X131322Y249161D01*
X132066Y249472D01*
X133155Y247405D01*
D02*
G37*
G36*
X127367Y243694D02*
X127356Y243650D01*
X127344Y243595D01*
X127333Y243517D01*
X127322Y243417D01*
X127311Y243306D01*
X127278Y243061D01*
Y242995D01*
X127267Y242928D01*
Y242728D01*
X127255Y242606D01*
Y242172D01*
X127267Y242061D01*
X127278Y241928D01*
X127289Y241795D01*
X127311Y241650D01*
X127333Y241517D01*
Y241506D01*
X127356Y241461D01*
X127367Y241395D01*
X127400Y241317D01*
X127478Y241128D01*
X127533Y241039D01*
X127589Y240950D01*
X127600Y240939D01*
X127622Y240917D01*
X127655Y240873D01*
X127700Y240828D01*
X127833Y240717D01*
X127900Y240673D01*
X127989Y240628D01*
X128000D01*
X128033Y240606D01*
X128078Y240595D01*
X128144Y240573D01*
X128222Y240550D01*
X128311Y240539D01*
X128522Y240517D01*
X128533D01*
X128567D01*
X128622Y240528D01*
X128678D01*
X128833Y240573D01*
X128911Y240595D01*
X128989Y240639D01*
X129000D01*
X129022Y240662D01*
X129055Y240695D01*
X129111Y240728D01*
X129211Y240839D01*
X129322Y240984D01*
X129333Y240995D01*
X129344Y241017D01*
X129366Y241061D01*
X129400Y241128D01*
X129433Y241206D01*
X129466Y241295D01*
X129500Y241395D01*
X129522Y241506D01*
Y241517D01*
X129533Y241561D01*
X129544Y241617D01*
X129566Y241695D01*
X129578Y241795D01*
X129589Y241906D01*
X129600Y242161D01*
Y242906D01*
X130311D01*
Y242039D01*
X130322Y241972D01*
X130333Y241884D01*
X130344Y241795D01*
X130388Y241606D01*
Y241595D01*
X130400Y241561D01*
X130422Y241517D01*
X130444Y241461D01*
X130511Y241328D01*
X130611Y241195D01*
X130622Y241184D01*
X130633Y241161D01*
X130666Y241128D01*
X130711Y241095D01*
X130822Y241006D01*
X130966Y240928D01*
X130977D01*
X131000Y240917D01*
X131044Y240895D01*
X131111Y240873D01*
X131177Y240862D01*
X131266Y240839D01*
X131455Y240828D01*
X131466D01*
X131477D01*
X131544D01*
X131633Y240839D01*
X131744Y240873D01*
X131877Y240906D01*
X132000Y240962D01*
X132122Y241039D01*
X132222Y241150D01*
X132233Y241161D01*
X132255Y241206D01*
X132299Y241284D01*
X132344Y241384D01*
X132388Y241517D01*
X132433Y241684D01*
X132455Y241873D01*
X132466Y242095D01*
Y242217D01*
X132455Y242306D01*
Y242406D01*
X132444Y242528D01*
X132399Y242783D01*
Y242795D01*
X132388Y242839D01*
X132377Y242917D01*
X132355Y243006D01*
X132322Y243117D01*
X132288Y243239D01*
X132255Y243383D01*
X132211Y243528D01*
X132966D01*
Y243517D01*
X132977Y243495D01*
X132988Y243461D01*
X132999Y243417D01*
X133033Y243306D01*
X133066Y243172D01*
Y243161D01*
X133077Y243139D01*
Y243095D01*
X133088Y243050D01*
X133122Y242928D01*
X133144Y242783D01*
Y242772D01*
X133155Y242750D01*
Y242717D01*
X133166Y242661D01*
X133177Y242539D01*
X133199Y242406D01*
Y242372D01*
X133210Y242328D01*
Y242284D01*
X133222Y242161D01*
Y241950D01*
X133210Y241850D01*
Y241728D01*
X133188Y241584D01*
X133166Y241439D01*
X133144Y241284D01*
X133099Y241128D01*
Y241106D01*
X133077Y241061D01*
X133055Y240984D01*
X133022Y240895D01*
X132977Y240784D01*
X132922Y240673D01*
X132855Y240562D01*
X132777Y240461D01*
X132766Y240450D01*
X132744Y240417D01*
X132699Y240373D01*
X132633Y240306D01*
X132555Y240250D01*
X132477Y240184D01*
X132377Y240117D01*
X132266Y240061D01*
X132255Y240050D01*
X132211Y240039D01*
X132155Y240017D01*
X132066Y239984D01*
X131966Y239962D01*
X131855Y239939D01*
X131722Y239928D01*
X131588Y239917D01*
X131577D01*
X131566D01*
X131500D01*
X131388Y239928D01*
X131266Y239950D01*
X131111Y239984D01*
X130955Y240039D01*
X130800Y240106D01*
X130644Y240206D01*
X130633Y240217D01*
X130577Y240262D01*
X130511Y240328D01*
X130433Y240417D01*
X130333Y240528D01*
X130233Y240662D01*
X130133Y240828D01*
X130044Y241006D01*
Y240995D01*
X130033Y240962D01*
X130022Y240917D01*
X130011Y240850D01*
X129989Y240773D01*
X129955Y240684D01*
X129877Y240506D01*
Y240495D01*
X129855Y240461D01*
X129833Y240417D01*
X129800Y240350D01*
X129700Y240206D01*
X129578Y240061D01*
X129566Y240050D01*
X129544Y240028D01*
X129500Y239995D01*
X129455Y239950D01*
X129389Y239895D01*
X129311Y239839D01*
X129133Y239739D01*
X129122Y239728D01*
X129089Y239717D01*
X129033Y239695D01*
X128966Y239673D01*
X128877Y239651D01*
X128789Y239628D01*
X128678Y239606D01*
X128567D01*
X128544D01*
X128489D01*
X128411Y239617D01*
X128300Y239628D01*
X128178Y239651D01*
X128044Y239684D01*
X127900Y239728D01*
X127755Y239784D01*
X127744Y239795D01*
X127689Y239817D01*
X127622Y239862D01*
X127533Y239917D01*
X127433Y239995D01*
X127322Y240084D01*
X127211Y240195D01*
X127100Y240317D01*
X127089Y240328D01*
X127056Y240384D01*
X127000Y240450D01*
X126944Y240550D01*
X126867Y240684D01*
X126800Y240828D01*
X126722Y241006D01*
X126655Y241195D01*
Y241206D01*
X126644Y241217D01*
Y241250D01*
X126633Y241284D01*
X126611Y241395D01*
X126578Y241550D01*
X126544Y241728D01*
X126522Y241939D01*
X126511Y242172D01*
X126500Y242428D01*
Y242661D01*
X126511Y242772D01*
Y242883D01*
X126533Y243128D01*
Y243183D01*
X126544Y243239D01*
Y243317D01*
X126556Y243406D01*
X126567Y243506D01*
X126589Y243706D01*
X127367D01*
Y243694D01*
D02*
G37*
G36*
X129977Y238428D02*
X130066D01*
X130255Y238417D01*
X130466Y238395D01*
X130711Y238351D01*
X130955Y238306D01*
X131200Y238240D01*
X131211D01*
X131233Y238228D01*
X131266Y238217D01*
X131311Y238206D01*
X131422Y238151D01*
X131577Y238095D01*
X131744Y238006D01*
X131922Y237906D01*
X132111Y237795D01*
X132277Y237662D01*
X132299Y237640D01*
X132355Y237595D01*
X132433Y237506D01*
X132533Y237395D01*
X132644Y237262D01*
X132755Y237106D01*
X132866Y236929D01*
X132966Y236740D01*
Y236729D01*
X132977Y236717D01*
X132988Y236684D01*
X132999Y236640D01*
X133044Y236529D01*
X133088Y236384D01*
X133133Y236206D01*
X133177Y235995D01*
X133199Y235762D01*
X133210Y235518D01*
Y235351D01*
X133199Y235240D01*
X133188Y235106D01*
X133177Y234973D01*
X133133Y234673D01*
Y234651D01*
X133122Y234607D01*
X133099Y234529D01*
X133077Y234429D01*
X133044Y234318D01*
X132999Y234195D01*
X132899Y233918D01*
X132022D01*
X132033Y233929D01*
X132055Y233984D01*
X132088Y234051D01*
X132133Y234151D01*
X132177Y234262D01*
X132222Y234384D01*
X132310Y234662D01*
Y234684D01*
X132333Y234729D01*
X132344Y234806D01*
X132366Y234907D01*
X132388Y235029D01*
X132399Y235173D01*
X132422Y235329D01*
Y235573D01*
X132411Y235662D01*
X132399Y235773D01*
X132377Y235895D01*
X132344Y236040D01*
X132299Y236184D01*
X132244Y236329D01*
X132233Y236340D01*
X132211Y236384D01*
X132166Y236462D01*
X132111Y236540D01*
X132044Y236640D01*
X131955Y236751D01*
X131855Y236862D01*
X131733Y236962D01*
X131722Y236973D01*
X131677Y237006D01*
X131611Y237051D01*
X131511Y237106D01*
X131400Y237173D01*
X131255Y237240D01*
X131099Y237306D01*
X130933Y237362D01*
X130911D01*
X130855Y237384D01*
X130755Y237406D01*
X130622Y237428D01*
X130466Y237451D01*
X130289Y237473D01*
X130088Y237484D01*
X129866Y237495D01*
X129855D01*
X129811D01*
X129744D01*
X129655Y237484D01*
X129555D01*
X129433Y237473D01*
X129300Y237451D01*
X129155Y237428D01*
X128844Y237373D01*
X128522Y237284D01*
X128222Y237151D01*
X128089Y237073D01*
X127955Y236984D01*
X127944Y236973D01*
X127933Y236962D01*
X127900Y236929D01*
X127855Y236884D01*
X127811Y236840D01*
X127755Y236773D01*
X127689Y236695D01*
X127633Y236606D01*
X127578Y236506D01*
X127511Y236395D01*
X127455Y236262D01*
X127411Y236129D01*
X127367Y235984D01*
X127344Y235829D01*
X127322Y235651D01*
X127311Y235473D01*
Y235318D01*
X127322Y235218D01*
X127333Y235095D01*
X127344Y234962D01*
X127400Y234673D01*
Y234651D01*
X127422Y234607D01*
X127444Y234529D01*
X127478Y234429D01*
X127511Y234318D01*
X127555Y234195D01*
X127678Y233918D01*
X126833D01*
Y233929D01*
X126822Y233951D01*
X126800Y233996D01*
X126789Y234051D01*
X126755Y234129D01*
X126733Y234218D01*
X126700Y234307D01*
X126678Y234418D01*
X126611Y234673D01*
X126567Y234951D01*
X126522Y235251D01*
X126511Y235573D01*
Y235629D01*
X126522Y235706D01*
Y235806D01*
X126533Y235917D01*
X126556Y236051D01*
X126578Y236195D01*
X126611Y236362D01*
X126655Y236529D01*
X126711Y236706D01*
X126778Y236884D01*
X126856Y237062D01*
X126955Y237228D01*
X127067Y237395D01*
X127189Y237562D01*
X127333Y237706D01*
X127344Y237717D01*
X127378Y237740D01*
X127422Y237773D01*
X127489Y237817D01*
X127578Y237873D01*
X127678Y237940D01*
X127811Y238006D01*
X127955Y238073D01*
X128111Y238140D01*
X128300Y238206D01*
X128500Y238273D01*
X128711Y238328D01*
X128955Y238373D01*
X129211Y238406D01*
X129489Y238428D01*
X129777Y238439D01*
X129789D01*
X129811D01*
X129855D01*
X129911D01*
X129977Y238428D01*
D02*
G37*
G36*
X105858Y278486D02*
X105969D01*
X106205Y278472D01*
X106497Y278445D01*
X106802Y278389D01*
X107121Y278333D01*
X107427Y278250D01*
X107441D01*
X107468Y278236D01*
X107510Y278222D01*
X107566Y278195D01*
X107704Y278139D01*
X107899Y278056D01*
X108107Y277945D01*
X108343Y277820D01*
X108565Y277667D01*
X108787Y277501D01*
X108815Y277473D01*
X108884Y277417D01*
X108981Y277306D01*
X109106Y277168D01*
X109245Y276987D01*
X109384Y276779D01*
X109509Y276557D01*
X109634Y276307D01*
Y276293D01*
X109648Y276279D01*
X109661Y276238D01*
X109675Y276182D01*
X109731Y276043D01*
X109786Y275849D01*
X109828Y275627D01*
X109883Y275363D01*
X109911Y275072D01*
X109925Y274752D01*
Y274405D01*
X109911Y274225D01*
Y274128D01*
X109897Y274072D01*
X109883Y273920D01*
X109856Y273739D01*
Y273697D01*
X109842Y273656D01*
Y273587D01*
X109814Y273434D01*
X109773Y273253D01*
Y273239D01*
X109759Y273212D01*
X109745Y273156D01*
X109731Y273101D01*
X109689Y272934D01*
X109634Y272740D01*
X108107D01*
X108121Y272768D01*
X108149Y272837D01*
X108190Y272934D01*
X108246Y273073D01*
X108301Y273226D01*
X108357Y273406D01*
X108454Y273767D01*
Y273781D01*
X108468Y273850D01*
X108495Y273934D01*
X108509Y274044D01*
X108537Y274183D01*
X108551Y274322D01*
X108565Y274627D01*
Y274725D01*
X108551Y274836D01*
X108537Y274974D01*
X108509Y275127D01*
X108468Y275294D01*
X108412Y275460D01*
X108343Y275627D01*
X108329Y275641D01*
X108301Y275696D01*
X108260Y275766D01*
X108190Y275863D01*
X108107Y275974D01*
X108010Y276085D01*
X107899Y276196D01*
X107760Y276307D01*
X107746Y276321D01*
X107691Y276349D01*
X107607Y276390D01*
X107510Y276460D01*
X107371Y276515D01*
X107219Y276585D01*
X107052Y276640D01*
X106858Y276696D01*
X106830D01*
X106774Y276710D01*
X106663Y276723D01*
X106525Y276751D01*
X106358Y276765D01*
X106164Y276793D01*
X105942Y276807D01*
X105719D01*
X105706D01*
X105692D01*
X105608D01*
X105484Y276793D01*
X105317D01*
X105137Y276779D01*
X104942Y276751D01*
X104526Y276682D01*
X104498D01*
X104443Y276654D01*
X104345Y276626D01*
X104220Y276585D01*
X104082Y276529D01*
X103943Y276460D01*
X103790Y276390D01*
X103651Y276293D01*
X103638Y276279D01*
X103596Y276238D01*
X103526Y276182D01*
X103443Y276099D01*
X103360Y276002D01*
X103263Y275877D01*
X103180Y275752D01*
X103096Y275599D01*
X103082Y275585D01*
X103068Y275530D01*
X103041Y275432D01*
X103013Y275322D01*
X102971Y275169D01*
X102944Y275002D01*
X102930Y274822D01*
X102916Y274614D01*
Y274475D01*
X102930Y274336D01*
X102944Y274169D01*
Y274156D01*
X102957Y274128D01*
Y274072D01*
X102971Y274017D01*
X103013Y273864D01*
X103055Y273684D01*
Y273670D01*
X103068Y273642D01*
X103082Y273587D01*
X103096Y273531D01*
X103152Y273378D01*
X103207Y273198D01*
Y273184D01*
X103221Y273156D01*
X103249Y273101D01*
X103263Y273045D01*
X103332Y272892D01*
X103402Y272740D01*
X101958D01*
X101944Y272768D01*
X101916Y272837D01*
X101889Y272948D01*
X101833Y273087D01*
X101778Y273239D01*
X101736Y273420D01*
X101639Y273809D01*
Y273836D01*
X101625Y273892D01*
X101611Y273989D01*
X101583Y274128D01*
X101569Y274281D01*
X101542Y274461D01*
X101528Y274655D01*
Y275016D01*
X101542Y275085D01*
Y275169D01*
X101556Y275391D01*
X101583Y275627D01*
X101639Y275891D01*
X101694Y276154D01*
X101778Y276418D01*
Y276432D01*
X101792Y276446D01*
X101833Y276529D01*
X101889Y276654D01*
X101972Y276820D01*
X102083Y277001D01*
X102222Y277195D01*
X102374Y277390D01*
X102555Y277570D01*
X102583Y277584D01*
X102652Y277639D01*
X102763Y277723D01*
X102902Y277834D01*
X103096Y277945D01*
X103304Y278056D01*
X103554Y278167D01*
X103818Y278264D01*
X103832D01*
X103860Y278278D01*
X103901Y278292D01*
X103957Y278306D01*
X104026Y278320D01*
X104109Y278333D01*
X104332Y278375D01*
X104581Y278431D01*
X104887Y278458D01*
X105234Y278486D01*
X105595Y278500D01*
X105608D01*
X105636D01*
X105692D01*
X105775D01*
X105858Y278486D01*
D02*
G37*
G36*
X122883Y276751D02*
X117956Y275377D01*
X116346Y274933D01*
X118053Y274475D01*
X122883Y273101D01*
Y271463D01*
X114722Y273975D01*
Y276002D01*
X122883Y278500D01*
Y276751D01*
D02*
G37*
G36*
X103610Y271282D02*
X103721Y271269D01*
X103846Y271255D01*
X103984Y271213D01*
X104137Y271171D01*
X104276Y271116D01*
X104290Y271102D01*
X104345Y271074D01*
X104415Y271033D01*
X104498Y270963D01*
X104609Y270894D01*
X104720Y270783D01*
X104831Y270672D01*
X104928Y270533D01*
X104942Y270519D01*
X104970Y270463D01*
X105025Y270380D01*
X105081Y270269D01*
X105150Y270130D01*
X105234Y269964D01*
X105303Y269770D01*
X105359Y269561D01*
Y269547D01*
X105373Y269533D01*
X105386Y269450D01*
X105414Y269325D01*
X105442Y269159D01*
X105470Y268964D01*
X105497Y268728D01*
X105525Y268465D01*
Y267340D01*
X105900D01*
X105914D01*
X105942D01*
X105983D01*
X106053Y267354D01*
X106191Y267368D01*
X106344Y267410D01*
X106358D01*
X106372Y267424D01*
X106455Y267465D01*
X106566Y267535D01*
X106677Y267632D01*
X106705Y267660D01*
X106761Y267743D01*
X106830Y267868D01*
X106885Y268035D01*
Y268048D01*
X106899Y268076D01*
X106913Y268132D01*
X106927Y268201D01*
X106941Y268284D01*
X106955Y268395D01*
X106969Y268631D01*
Y268840D01*
X106955Y268978D01*
X106941Y269159D01*
X106913Y269339D01*
X106830Y269756D01*
Y269783D01*
X106802Y269853D01*
X106774Y269950D01*
X106747Y270089D01*
X106691Y270241D01*
X106636Y270422D01*
X106483Y270797D01*
X107704D01*
X107718Y270783D01*
X107732Y270713D01*
X107760Y270630D01*
X107801Y270505D01*
X107843Y270352D01*
X107899Y270172D01*
X107954Y269978D01*
X107996Y269756D01*
Y269728D01*
X108010Y269658D01*
X108037Y269533D01*
X108065Y269381D01*
X108079Y269186D01*
X108107Y268978D01*
X108121Y268742D01*
Y268257D01*
X108107Y268090D01*
X108093Y267896D01*
X108065Y267701D01*
X108024Y267493D01*
X107982Y267299D01*
Y267271D01*
X107954Y267216D01*
X107926Y267118D01*
X107885Y267007D01*
X107815Y266869D01*
X107746Y266730D01*
X107663Y266591D01*
X107566Y266466D01*
X107552Y266452D01*
X107524Y266410D01*
X107455Y266355D01*
X107385Y266286D01*
X107288Y266202D01*
X107177Y266119D01*
X107038Y266050D01*
X106899Y265980D01*
X106885Y265966D01*
X106830Y265952D01*
X106747Y265925D01*
X106636Y265897D01*
X106497Y265869D01*
X106344Y265841D01*
X106164Y265814D01*
X105969D01*
X101639D01*
Y267132D01*
X102458Y267160D01*
X102444Y267174D01*
X102416Y267202D01*
X102388Y267243D01*
X102333Y267285D01*
X102208Y267424D01*
X102069Y267590D01*
X102055Y267604D01*
X102041Y267632D01*
X102014Y267674D01*
X101972Y267729D01*
X101875Y267882D01*
X101764Y268062D01*
Y268076D01*
X101750Y268104D01*
X101722Y268159D01*
X101694Y268229D01*
X101667Y268326D01*
X101625Y268423D01*
X101569Y268645D01*
Y268659D01*
X101556Y268701D01*
X101542Y268756D01*
Y268840D01*
X101528Y268951D01*
X101514Y269062D01*
X101500Y269325D01*
Y269409D01*
X101514Y269492D01*
Y269617D01*
X101528Y269742D01*
X101556Y269894D01*
X101639Y270186D01*
Y270200D01*
X101667Y270241D01*
X101694Y270311D01*
X101736Y270394D01*
X101861Y270588D01*
X102027Y270797D01*
X102041Y270811D01*
X102069Y270838D01*
X102125Y270880D01*
X102208Y270935D01*
X102291Y270991D01*
X102402Y271060D01*
X102652Y271171D01*
X102666D01*
X102721Y271185D01*
X102791Y271213D01*
X102888Y271227D01*
X102999Y271255D01*
X103138Y271282D01*
X103443Y271296D01*
X103471D01*
X103526D01*
X103610Y271282D01*
D02*
G37*
G36*
X118123Y271005D02*
X118317Y270991D01*
X118525Y270963D01*
X118747Y270935D01*
X118983Y270880D01*
X119219Y270811D01*
X119233D01*
X119247Y270797D01*
X119330Y270769D01*
X119441Y270713D01*
X119580Y270644D01*
X119747Y270561D01*
X119927Y270450D01*
X120107Y270325D01*
X120274Y270186D01*
X120288Y270172D01*
X120343Y270116D01*
X120427Y270033D01*
X120524Y269908D01*
X120635Y269770D01*
X120746Y269603D01*
X120857Y269423D01*
X120954Y269214D01*
X120968Y269186D01*
X120996Y269117D01*
X121037Y268992D01*
X121079Y268826D01*
X121121Y268631D01*
X121162Y268409D01*
X121190Y268159D01*
X121204Y267896D01*
Y267771D01*
X121190Y267646D01*
X121176Y267465D01*
X121149Y267271D01*
X121107Y267063D01*
X121051Y266841D01*
X120982Y266633D01*
X120968Y266605D01*
X120940Y266535D01*
X120899Y266438D01*
X120829Y266300D01*
X120732Y266161D01*
X120635Y265994D01*
X120510Y265841D01*
X120357Y265689D01*
X120343Y265675D01*
X120288Y265619D01*
X120205Y265550D01*
X120080Y265467D01*
X119927Y265370D01*
X119761Y265272D01*
X119566Y265175D01*
X119344Y265092D01*
X119316Y265078D01*
X119233Y265064D01*
X119108Y265022D01*
X118942Y264981D01*
X118733Y264953D01*
X118498Y264912D01*
X118234Y264898D01*
X117942Y264884D01*
X117928D01*
X117914D01*
X117873D01*
X117817D01*
X117678Y264898D01*
X117484Y264912D01*
X117276Y264939D01*
X117040Y264981D01*
X116804Y265036D01*
X116568Y265106D01*
X116540Y265120D01*
X116471Y265147D01*
X116346Y265189D01*
X116207Y265259D01*
X116027Y265342D01*
X115860Y265453D01*
X115680Y265578D01*
X115499Y265717D01*
X115486Y265730D01*
X115430Y265786D01*
X115347Y265869D01*
X115250Y265994D01*
X115138Y266133D01*
X115027Y266300D01*
X114916Y266494D01*
X114819Y266702D01*
X114805Y266730D01*
X114778Y266799D01*
X114750Y266924D01*
X114708Y267077D01*
X114653Y267271D01*
X114625Y267493D01*
X114597Y267743D01*
X114583Y268021D01*
Y268145D01*
X114597Y268270D01*
X114611Y268437D01*
X114625Y268645D01*
X114667Y268853D01*
X114708Y269075D01*
X114778Y269284D01*
X114792Y269311D01*
X114819Y269381D01*
X114861Y269478D01*
X114930Y269603D01*
X115014Y269756D01*
X115125Y269922D01*
X115250Y270075D01*
X115388Y270228D01*
X115402Y270241D01*
X115458Y270297D01*
X115555Y270366D01*
X115680Y270450D01*
X115819Y270547D01*
X115999Y270644D01*
X116193Y270741D01*
X116416Y270824D01*
X116429D01*
X116443Y270838D01*
X116526Y270852D01*
X116651Y270880D01*
X116832Y270921D01*
X117040Y270963D01*
X117290Y270991D01*
X117568Y271005D01*
X117859Y271019D01*
X117873D01*
X117887D01*
X117928D01*
X117984D01*
X118123Y271005D01*
D02*
G37*
G36*
X107982Y262441D02*
X107052Y262371D01*
X107066Y262358D01*
X107094Y262344D01*
X107135Y262316D01*
X107191Y262274D01*
X107330Y262163D01*
X107482Y262024D01*
X107496Y262011D01*
X107510Y261997D01*
X107552Y261955D01*
X107593Y261899D01*
X107704Y261761D01*
X107815Y261594D01*
X107829Y261580D01*
X107843Y261553D01*
X107871Y261497D01*
X107899Y261428D01*
X107968Y261261D01*
X108037Y261053D01*
Y261039D01*
X108051Y260997D01*
X108065Y260942D01*
X108079Y260858D01*
X108093Y260775D01*
X108107Y260664D01*
X108121Y260414D01*
Y260331D01*
X108107Y260248D01*
Y260123D01*
X108079Y259998D01*
X108051Y259845D01*
X108010Y259706D01*
X107954Y259568D01*
X107940Y259554D01*
X107926Y259498D01*
X107885Y259429D01*
X107829Y259346D01*
X107760Y259248D01*
X107677Y259151D01*
X107566Y259040D01*
X107455Y258943D01*
X107441Y258929D01*
X107399Y258901D01*
X107330Y258860D01*
X107232Y258804D01*
X107121Y258735D01*
X106969Y258679D01*
X106816Y258624D01*
X106636Y258568D01*
X106608D01*
X106552Y258554D01*
X106455Y258527D01*
X106316Y258513D01*
X106150Y258485D01*
X105956Y258471D01*
X105747Y258457D01*
X105511D01*
Y259984D01*
X105525D01*
X105567D01*
X105636D01*
X105719D01*
X105914Y259998D01*
X106108Y260026D01*
X106122D01*
X106150Y260040D01*
X106191D01*
X106261Y260053D01*
X106386Y260109D01*
X106525Y260178D01*
X106538D01*
X106552Y260192D01*
X106622Y260248D01*
X106691Y260331D01*
X106761Y260428D01*
X106774Y260456D01*
X106802Y260525D01*
X106830Y260636D01*
X106844Y260775D01*
Y260831D01*
X106830Y260900D01*
X106802Y260983D01*
X106774Y261094D01*
X106719Y261206D01*
X106649Y261330D01*
X106552Y261469D01*
X106538Y261483D01*
X106497Y261525D01*
X106427Y261608D01*
X106330Y261705D01*
X106205Y261816D01*
X106053Y261955D01*
X105872Y262094D01*
X105650Y262246D01*
X101639D01*
Y263815D01*
X107982D01*
Y262441D01*
D02*
G37*
G36*
X115916Y261511D02*
X122356D01*
Y263301D01*
X123550D01*
Y259942D01*
X115916D01*
Y258124D01*
X114722D01*
Y263524D01*
X115916D01*
Y261511D01*
D02*
G37*
G36*
X104914Y257416D02*
X104998D01*
X105206Y257402D01*
X105442Y257375D01*
X105706Y257333D01*
X105956Y257277D01*
X106205Y257194D01*
X106219D01*
X106233Y257180D01*
X106316Y257153D01*
X106427Y257097D01*
X106580Y257014D01*
X106747Y256917D01*
X106927Y256806D01*
X107094Y256667D01*
X107260Y256514D01*
X107274Y256500D01*
X107330Y256431D01*
X107413Y256347D01*
X107496Y256223D01*
X107607Y256070D01*
X107718Y255890D01*
X107815Y255695D01*
X107899Y255473D01*
Y255459D01*
X107913Y255445D01*
X107926Y255362D01*
X107968Y255251D01*
X108010Y255084D01*
X108037Y254890D01*
X108079Y254668D01*
X108093Y254432D01*
X108107Y254168D01*
Y254016D01*
X108093Y253863D01*
X108065Y253696D01*
Y253655D01*
X108051Y253613D01*
Y253544D01*
X108024Y253405D01*
X107982Y253252D01*
X110467D01*
Y251726D01*
X101639D01*
Y253058D01*
X102569Y253086D01*
X102555Y253100D01*
X102527Y253127D01*
X102486Y253169D01*
X102430Y253211D01*
X102277Y253349D01*
X102125Y253502D01*
X102111Y253516D01*
X102097Y253544D01*
X102055Y253585D01*
X102014Y253641D01*
X101902Y253780D01*
X101792Y253960D01*
Y253974D01*
X101764Y254002D01*
X101750Y254043D01*
X101708Y254113D01*
X101639Y254279D01*
X101583Y254474D01*
Y254488D01*
X101569Y254515D01*
X101556Y254585D01*
X101542Y254654D01*
X101528Y254751D01*
X101514Y254849D01*
X101500Y255098D01*
Y255195D01*
X101514Y255293D01*
X101528Y255431D01*
X101556Y255584D01*
X101597Y255751D01*
X101653Y255931D01*
X101722Y256098D01*
X101736Y256112D01*
X101764Y256167D01*
X101819Y256250D01*
X101889Y256347D01*
X101972Y256472D01*
X102083Y256583D01*
X102208Y256708D01*
X102361Y256833D01*
X102374Y256847D01*
X102430Y256875D01*
X102527Y256930D01*
X102638Y257000D01*
X102791Y257069D01*
X102957Y257139D01*
X103152Y257208D01*
X103360Y257277D01*
X103374D01*
X103388D01*
X103471Y257305D01*
X103582Y257319D01*
X103749Y257347D01*
X103943Y257375D01*
X104179Y257402D01*
X104429Y257416D01*
X104692Y257430D01*
X104706D01*
X104734D01*
X104776D01*
X104845D01*
X104914Y257416D01*
D02*
G37*
G36*
X121065Y255320D02*
X122675D01*
X123092Y253752D01*
X121065D01*
Y251295D01*
X119872D01*
Y253752D01*
X116887D01*
X116860D01*
X116804D01*
X116707Y253738D01*
X116582Y253724D01*
X116443Y253696D01*
X116318Y253655D01*
X116180Y253599D01*
X116068Y253516D01*
X116055Y253502D01*
X116027Y253461D01*
X115985Y253405D01*
X115944Y253322D01*
X115888Y253197D01*
X115846Y253058D01*
X115819Y252891D01*
X115805Y252683D01*
Y252544D01*
X115819Y252447D01*
Y252336D01*
X115832Y252225D01*
X115860Y251961D01*
Y251948D01*
X115874Y251906D01*
X115888Y251836D01*
X115902Y251739D01*
X115930Y251642D01*
X115957Y251531D01*
X116013Y251295D01*
X114792D01*
Y251309D01*
X114778Y251365D01*
X114764Y251448D01*
X114750Y251559D01*
X114722Y251684D01*
X114694Y251823D01*
X114653Y252128D01*
Y252142D01*
X114639Y252197D01*
X114625Y252281D01*
Y252378D01*
X114611Y252503D01*
X114597Y252642D01*
X114583Y252919D01*
Y253030D01*
X114597Y253141D01*
Y253294D01*
X114611Y253461D01*
X114639Y253641D01*
X114667Y253821D01*
X114708Y254002D01*
Y254016D01*
X114736Y254071D01*
X114764Y254168D01*
X114805Y254265D01*
X114930Y254515D01*
X115000Y254640D01*
X115097Y254751D01*
X115111Y254765D01*
X115152Y254793D01*
X115208Y254849D01*
X115291Y254918D01*
X115388Y254987D01*
X115513Y255057D01*
X115638Y255126D01*
X115791Y255182D01*
X115805D01*
X115860Y255209D01*
X115957Y255223D01*
X116068Y255251D01*
X116221Y255279D01*
X116388Y255293D01*
X116568Y255320D01*
X116776D01*
X119872D01*
Y257014D01*
X121065D01*
Y255320D01*
D02*
G37*
G36*
X116693Y249657D02*
X116804Y249643D01*
X116929Y249630D01*
X117068Y249588D01*
X117220Y249546D01*
X117359Y249491D01*
X117373Y249477D01*
X117429Y249449D01*
X117498Y249408D01*
X117581Y249338D01*
X117692Y249269D01*
X117803Y249158D01*
X117914Y249047D01*
X118012Y248908D01*
X118026Y248894D01*
X118053Y248838D01*
X118109Y248755D01*
X118164Y248644D01*
X118234Y248505D01*
X118317Y248339D01*
X118386Y248144D01*
X118442Y247936D01*
Y247922D01*
X118456Y247908D01*
X118470Y247825D01*
X118498Y247700D01*
X118525Y247534D01*
X118553Y247339D01*
X118581Y247103D01*
X118608Y246840D01*
Y245715D01*
X118983D01*
X118997D01*
X119025D01*
X119067D01*
X119136Y245729D01*
X119275Y245743D01*
X119427Y245785D01*
X119441D01*
X119455Y245799D01*
X119538Y245840D01*
X119650Y245910D01*
X119761Y246007D01*
X119788Y246035D01*
X119844Y246118D01*
X119913Y246243D01*
X119969Y246409D01*
Y246423D01*
X119983Y246451D01*
X119997Y246507D01*
X120010Y246576D01*
X120024Y246659D01*
X120038Y246770D01*
X120052Y247006D01*
Y247215D01*
X120038Y247353D01*
X120024Y247534D01*
X119997Y247714D01*
X119913Y248131D01*
Y248158D01*
X119885Y248228D01*
X119858Y248325D01*
X119830Y248464D01*
X119774Y248616D01*
X119719Y248797D01*
X119566Y249172D01*
X120788D01*
X120801Y249158D01*
X120815Y249088D01*
X120843Y249005D01*
X120885Y248880D01*
X120926Y248727D01*
X120982Y248547D01*
X121037Y248353D01*
X121079Y248131D01*
Y248103D01*
X121093Y248033D01*
X121121Y247908D01*
X121149Y247756D01*
X121162Y247562D01*
X121190Y247353D01*
X121204Y247117D01*
Y246632D01*
X121190Y246465D01*
X121176Y246271D01*
X121149Y246076D01*
X121107Y245868D01*
X121065Y245674D01*
Y245646D01*
X121037Y245590D01*
X121010Y245493D01*
X120968Y245382D01*
X120899Y245244D01*
X120829Y245105D01*
X120746Y244966D01*
X120649Y244841D01*
X120635Y244827D01*
X120607Y244785D01*
X120538Y244730D01*
X120468Y244661D01*
X120371Y244577D01*
X120260Y244494D01*
X120121Y244425D01*
X119983Y244355D01*
X119969Y244341D01*
X119913Y244327D01*
X119830Y244300D01*
X119719Y244272D01*
X119580Y244244D01*
X119427Y244216D01*
X119247Y244189D01*
X119053D01*
X114722D01*
Y245507D01*
X115541Y245535D01*
X115527Y245549D01*
X115499Y245577D01*
X115472Y245618D01*
X115416Y245660D01*
X115291Y245799D01*
X115152Y245965D01*
X115138Y245979D01*
X115125Y246007D01*
X115097Y246049D01*
X115055Y246104D01*
X114958Y246257D01*
X114847Y246437D01*
Y246451D01*
X114833Y246479D01*
X114805Y246534D01*
X114778Y246604D01*
X114750Y246701D01*
X114708Y246798D01*
X114653Y247020D01*
Y247034D01*
X114639Y247076D01*
X114625Y247131D01*
Y247215D01*
X114611Y247325D01*
X114597Y247437D01*
X114583Y247700D01*
Y247784D01*
X114597Y247867D01*
Y247992D01*
X114611Y248117D01*
X114639Y248269D01*
X114722Y248561D01*
Y248575D01*
X114750Y248616D01*
X114778Y248686D01*
X114819Y248769D01*
X114944Y248963D01*
X115111Y249172D01*
X115125Y249185D01*
X115152Y249213D01*
X115208Y249255D01*
X115291Y249310D01*
X115375Y249366D01*
X115486Y249435D01*
X115735Y249546D01*
X115749D01*
X115805Y249560D01*
X115874Y249588D01*
X115971Y249602D01*
X116082Y249630D01*
X116221Y249657D01*
X116526Y249671D01*
X116554D01*
X116610D01*
X116693Y249657D01*
D02*
G37*
G36*
X113889Y242828D02*
X114014Y242814D01*
X114167Y242787D01*
X114181D01*
X114195Y242773D01*
X114278Y242745D01*
X114389Y242690D01*
X114528Y242620D01*
X114542D01*
X114556Y242606D01*
X114625Y242537D01*
X114736Y242454D01*
X114847Y242343D01*
X114861Y242329D01*
X114875Y242315D01*
X114944Y242232D01*
X115041Y242107D01*
X115166Y241954D01*
X115180Y241968D01*
X115194Y242009D01*
X115236Y242065D01*
X115291Y242121D01*
X115430Y242273D01*
X115513Y242343D01*
X115610Y242412D01*
X115624D01*
X115666Y242440D01*
X115721Y242454D01*
X115791Y242481D01*
X115874Y242509D01*
X115985Y242537D01*
X116096Y242551D01*
X116207Y242565D01*
X116221D01*
X116249D01*
X116277D01*
X116332Y242551D01*
X116457Y242537D01*
X116596Y242509D01*
X116610D01*
X116624Y242495D01*
X116707Y242467D01*
X116818Y242426D01*
X116943Y242370D01*
X116957D01*
X116971Y242356D01*
X117054Y242301D01*
X117165Y242245D01*
X117276Y242162D01*
X117290D01*
X117304Y242134D01*
X117373Y242079D01*
X117470Y242009D01*
X117581Y241912D01*
X117595Y241926D01*
X117623Y241954D01*
X117678Y241996D01*
X117734Y242037D01*
X117817Y242107D01*
X117914Y242162D01*
X118137Y242287D01*
X118150D01*
X118192Y242315D01*
X118262Y242329D01*
X118359Y242356D01*
X118484Y242384D01*
X118622Y242412D01*
X118775Y242426D01*
X118956Y242440D01*
X118983D01*
X119053D01*
X119150Y242426D01*
X119275Y242412D01*
X119427Y242398D01*
X119580Y242356D01*
X119747Y242315D01*
X119899Y242259D01*
X119913Y242245D01*
X119969Y242218D01*
X120052Y242176D01*
X120149Y242121D01*
X120246Y242051D01*
X120371Y241954D01*
X120482Y241843D01*
X120593Y241732D01*
X120607Y241718D01*
X120635Y241676D01*
X120691Y241593D01*
X120760Y241496D01*
X120829Y241385D01*
X120899Y241246D01*
X120968Y241093D01*
X121037Y240927D01*
X121051Y240899D01*
X121065Y240844D01*
X121093Y240746D01*
X121121Y240621D01*
X121149Y240469D01*
X121162Y240302D01*
X121190Y240108D01*
Y239747D01*
X121176Y239567D01*
X121149Y239372D01*
Y239331D01*
X121135Y239275D01*
Y239220D01*
X121107Y239067D01*
X121065Y238900D01*
Y236693D01*
X119955D01*
Y237693D01*
X119941Y237679D01*
X119913Y237665D01*
X119872Y237637D01*
X119816Y237596D01*
X119663Y237526D01*
X119483Y237457D01*
X119469D01*
X119441Y237443D01*
X119400Y237429D01*
X119330Y237415D01*
X119178Y237387D01*
X118997Y237374D01*
X118969D01*
X118914D01*
X118803Y237387D01*
X118678Y237401D01*
X118539Y237415D01*
X118372Y237457D01*
X118220Y237498D01*
X118053Y237568D01*
X118039Y237582D01*
X117984Y237596D01*
X117914Y237637D01*
X117817Y237693D01*
X117706Y237776D01*
X117595Y237859D01*
X117484Y237957D01*
X117373Y238081D01*
X117359Y238095D01*
X117332Y238137D01*
X117276Y238206D01*
X117220Y238303D01*
X117165Y238428D01*
X117096Y238567D01*
X117026Y238720D01*
X116971Y238886D01*
Y238900D01*
X116943Y238970D01*
X116929Y239067D01*
X116901Y239192D01*
X116874Y239345D01*
X116860Y239511D01*
X116832Y239705D01*
Y240038D01*
X116846Y240108D01*
X116860Y240316D01*
X116887Y240524D01*
Y240538D01*
X116901Y240566D01*
X116915Y240621D01*
X116929Y240677D01*
X116984Y240816D01*
X117040Y240941D01*
X117026Y240955D01*
X116971Y241010D01*
X116901Y241066D01*
X116804Y241121D01*
X116776Y241135D01*
X116721Y241149D01*
X116638Y241177D01*
X116526Y241191D01*
X116513D01*
X116471D01*
X116402Y241177D01*
X116318Y241149D01*
X116304Y241135D01*
X116263Y241107D01*
X116207Y241066D01*
X116138Y240996D01*
X116124Y240982D01*
X116096Y240927D01*
X116055Y240857D01*
X116013Y240774D01*
Y240746D01*
X115985Y240677D01*
X115971Y240580D01*
X115957Y240469D01*
X115902Y238970D01*
Y238789D01*
X115888Y238664D01*
X115874Y238526D01*
X115846Y238373D01*
X115777Y238054D01*
Y238040D01*
X115763Y237984D01*
X115735Y237915D01*
X115694Y237818D01*
X115596Y237596D01*
X115444Y237360D01*
X115430Y237346D01*
X115402Y237304D01*
X115361Y237249D01*
X115305Y237193D01*
X115222Y237110D01*
X115138Y237040D01*
X115041Y236971D01*
X114930Y236902D01*
X114916Y236888D01*
X114875Y236874D01*
X114819Y236846D01*
X114736Y236818D01*
X114639Y236791D01*
X114528Y236763D01*
X114403Y236735D01*
X114264D01*
X114250D01*
X114195D01*
X114097Y236749D01*
X114000Y236763D01*
X113862Y236791D01*
X113723Y236818D01*
X113584Y236874D01*
X113431Y236943D01*
X113417Y236957D01*
X113362Y236985D01*
X113293Y237027D01*
X113195Y237096D01*
X113084Y237179D01*
X112973Y237276D01*
X112848Y237401D01*
X112737Y237540D01*
X112723Y237554D01*
X112696Y237610D01*
X112640Y237693D01*
X112571Y237818D01*
X112501Y237970D01*
X112418Y238137D01*
X112349Y238331D01*
X112279Y238553D01*
X112265Y238581D01*
X112251Y238664D01*
X112224Y238789D01*
X112196Y238956D01*
X112154Y239150D01*
X112127Y239386D01*
X112113Y239650D01*
X112099Y239941D01*
Y240066D01*
X112113Y240205D01*
Y240386D01*
X112127Y240594D01*
X112154Y240816D01*
X112182Y241038D01*
X112224Y241260D01*
Y241288D01*
X112251Y241343D01*
X112279Y241454D01*
X112321Y241579D01*
X112363Y241718D01*
X112418Y241871D01*
X112487Y242023D01*
X112571Y242162D01*
X112585Y242176D01*
X112612Y242218D01*
X112654Y242287D01*
X112723Y242356D01*
X112793Y242440D01*
X112890Y242523D01*
X112987Y242606D01*
X113098Y242676D01*
X113112D01*
X113154Y242704D01*
X113209Y242731D01*
X113293Y242759D01*
X113390Y242787D01*
X113501Y242814D01*
X113626Y242828D01*
X113751Y242842D01*
X113764D01*
X113792D01*
X113834D01*
X113889Y242828D01*
D02*
G37*
G36*
X118039Y235625D02*
X118234Y235611D01*
X118442Y235583D01*
X118678Y235555D01*
X118928Y235500D01*
X119164Y235430D01*
X119178D01*
X119192Y235417D01*
X119275Y235389D01*
X119386Y235347D01*
X119538Y235278D01*
X119705Y235194D01*
X119885Y235083D01*
X120066Y234972D01*
X120246Y234834D01*
X120260Y234820D01*
X120316Y234764D01*
X120399Y234681D01*
X120510Y234570D01*
X120621Y234431D01*
X120732Y234264D01*
X120857Y234084D01*
X120954Y233890D01*
X120968Y233862D01*
X120996Y233792D01*
X121037Y233682D01*
X121079Y233529D01*
X121121Y233348D01*
X121162Y233140D01*
X121190Y232904D01*
X121204Y232654D01*
Y232543D01*
X121190Y232418D01*
X121176Y232252D01*
X121149Y232071D01*
X121107Y231877D01*
X121051Y231669D01*
X120982Y231475D01*
X120968Y231447D01*
X120940Y231391D01*
X120899Y231294D01*
X120829Y231169D01*
X120746Y231030D01*
X120649Y230878D01*
X120538Y230739D01*
X120399Y230600D01*
X120385Y230586D01*
X120330Y230545D01*
X120260Y230475D01*
X120149Y230406D01*
X120024Y230323D01*
X119872Y230225D01*
X119691Y230142D01*
X119511Y230073D01*
X119483Y230059D01*
X119427Y230045D01*
X119316Y230017D01*
X119178Y229976D01*
X119011Y229934D01*
X118817Y229906D01*
X118595Y229892D01*
X118372Y229878D01*
X118345D01*
X118262D01*
X118137D01*
X117970Y229892D01*
X117956D01*
X117928D01*
X117887D01*
X117817Y229906D01*
X117678D01*
X117512Y229920D01*
Y234084D01*
X117498D01*
X117443D01*
X117359Y234070D01*
X117262D01*
X117137Y234056D01*
X117012Y234029D01*
X116762Y233959D01*
X116749D01*
X116707Y233931D01*
X116651Y233904D01*
X116582Y233862D01*
X116416Y233751D01*
X116235Y233598D01*
X116221Y233584D01*
X116207Y233557D01*
X116166Y233501D01*
X116124Y233446D01*
X116068Y233362D01*
X116013Y233265D01*
X115916Y233043D01*
Y233029D01*
X115902Y232987D01*
X115888Y232918D01*
X115860Y232821D01*
X115846Y232710D01*
X115819Y232585D01*
X115805Y232307D01*
Y232141D01*
X115819Y232016D01*
Y231863D01*
X115832Y231697D01*
X115846Y231516D01*
X115874Y231322D01*
Y231294D01*
X115888Y231225D01*
X115902Y231128D01*
X115930Y230989D01*
X115957Y230822D01*
X115999Y230642D01*
X116055Y230434D01*
X116110Y230225D01*
X114902D01*
Y230239D01*
X114889Y230267D01*
X114875Y230323D01*
X114861Y230392D01*
X114805Y230558D01*
X114764Y230767D01*
Y230808D01*
X114750Y230864D01*
X114736Y230947D01*
X114722Y231030D01*
X114708Y231128D01*
X114680Y231350D01*
Y231405D01*
X114667Y231461D01*
X114653Y231544D01*
X114639Y231627D01*
Y231738D01*
X114611Y231960D01*
Y232016D01*
X114597Y232071D01*
Y232141D01*
X114583Y232335D01*
Y232668D01*
X114597Y232807D01*
X114611Y232987D01*
X114625Y233182D01*
X114667Y233404D01*
X114708Y233626D01*
X114778Y233848D01*
X114792Y233876D01*
X114819Y233945D01*
X114861Y234042D01*
X114930Y234181D01*
X115014Y234334D01*
X115125Y234500D01*
X115250Y234667D01*
X115388Y234820D01*
X115402Y234834D01*
X115458Y234889D01*
X115541Y234958D01*
X115666Y235042D01*
X115805Y235139D01*
X115985Y235250D01*
X116180Y235347D01*
X116388Y235430D01*
X116402D01*
X116416Y235444D01*
X116499Y235458D01*
X116624Y235500D01*
X116790Y235527D01*
X116984Y235569D01*
X117220Y235611D01*
X117484Y235625D01*
X117762Y235639D01*
X117776D01*
X117803D01*
X117831D01*
X117887D01*
X118039Y235625D01*
D02*
G37*
%LPC*%
G36*
X126469Y421272D02*
X124000D01*
Y419000D01*
X125444D01*
Y419400D01*
X125454Y419314D01*
X125481Y419238D01*
X125527Y419171D01*
X125590Y419112D01*
X125672Y419063D01*
X125773Y419022D01*
X125856Y419000D01*
X126469D01*
Y421272D01*
D02*
G37*
G36*
X123000D02*
X120531D01*
Y419000D01*
X123000D01*
Y421272D01*
D02*
G37*
G36*
X128500Y416823D02*
X127409D01*
Y413469D01*
X128500D01*
Y416823D01*
D02*
G37*
G36*
X114878Y406622D02*
X113000D01*
Y404449D01*
X114878D01*
Y406622D01*
D02*
G37*
G36*
X112000D02*
X110122D01*
Y404449D01*
X112000D01*
Y406622D01*
D02*
G37*
G36*
X114878Y403449D02*
X113000D01*
Y401276D01*
X114878D01*
Y403449D01*
D02*
G37*
G36*
X127000Y393929D02*
X124531D01*
Y391657D01*
X127000D01*
Y393929D01*
D02*
G37*
G36*
X115953Y389365D02*
X112500D01*
Y386700D01*
X115953D01*
Y389365D01*
D02*
G37*
G36*
X111500D02*
X108047D01*
Y386700D01*
X111500D01*
Y389365D01*
D02*
G37*
G36*
X105878Y379449D02*
X104000D01*
Y377276D01*
X105878D01*
Y379449D01*
D02*
G37*
G36*
X103000D02*
X101122D01*
Y377276D01*
X103000D01*
Y379449D01*
D02*
G37*
G36*
X115148Y370618D02*
X114760D01*
Y368520D01*
X116366D01*
Y369400D01*
X116273Y369866D01*
X116009Y370261D01*
X115614Y370525D01*
X115148Y370618D01*
D02*
G37*
G36*
X113760D02*
X113372D01*
X112906Y370525D01*
X112511Y370261D01*
X112247Y369866D01*
X112154Y369400D01*
Y368520D01*
X113760D01*
Y370618D01*
D02*
G37*
G36*
X108968Y369429D02*
X106500D01*
Y367158D01*
X108968D01*
Y369429D01*
D02*
G37*
G36*
X105500D02*
X103032D01*
Y367158D01*
X105500D01*
Y369429D01*
D02*
G37*
G36*
X116366Y367520D02*
X114760D01*
Y365422D01*
X115148D01*
X115614Y365514D01*
X116009Y365778D01*
X116273Y366174D01*
X116366Y366640D01*
Y367520D01*
D02*
G37*
G36*
X113760D02*
X112154D01*
Y366640D01*
X112247Y366174D01*
X112511Y365778D01*
X112906Y365514D01*
X113372Y365422D01*
X113760D01*
Y367520D01*
D02*
G37*
G36*
X108968Y366158D02*
X103032D01*
Y363886D01*
Y358571D01*
X103713D01*
X103960Y358071D01*
X103751Y357799D01*
X103491Y357172D01*
X103403Y356500D01*
X103491Y355828D01*
X103751Y355202D01*
X104164Y354664D01*
X104701Y354251D01*
X105328Y353992D01*
X106000Y353903D01*
X106672Y353992D01*
X107299Y354251D01*
X107836Y354664D01*
X108249Y355202D01*
X108509Y355828D01*
X108597Y356500D01*
X108509Y357172D01*
X108249Y357799D01*
X108040Y358071D01*
X108287Y358571D01*
X108968D01*
Y363886D01*
Y366158D01*
D02*
G37*
G36*
X113203Y347248D02*
X108278D01*
X107811Y347155D01*
X107416Y346891D01*
X107152Y346496D01*
X107059Y346029D01*
Y344648D01*
X107152Y344181D01*
X107234Y344059D01*
X107152Y343937D01*
X107059Y343471D01*
Y343280D01*
X110740D01*
X114421D01*
Y343471D01*
X114328Y343937D01*
X114247Y344059D01*
X114328Y344181D01*
X114421Y344648D01*
Y346029D01*
X114328Y346496D01*
X114064Y346891D01*
X113669Y347155D01*
X113203Y347248D01*
D02*
G37*
G36*
X104000Y345429D02*
Y343158D01*
X106468D01*
Y345429D01*
X104000D01*
D02*
G37*
G36*
X114740Y313075D02*
X113059D01*
Y311000D01*
X114740D01*
Y313075D01*
D02*
G37*
G36*
X128965Y313953D02*
X126300D01*
Y310500D01*
X128965D01*
Y313953D01*
D02*
G37*
G36*
X125300D02*
X122635D01*
Y310500D01*
X125300D01*
Y313953D01*
D02*
G37*
G36*
X114740Y310000D02*
X113059D01*
Y307925D01*
X114740D01*
Y310000D01*
D02*
G37*
G36*
X112059D02*
X110378D01*
Y307925D01*
X112059D01*
Y310000D01*
D02*
G37*
G36*
X128965Y309500D02*
X126300D01*
Y306047D01*
X128965D01*
Y309500D01*
D02*
G37*
G36*
X125300D02*
X122635D01*
Y306047D01*
X125300D01*
Y309500D01*
D02*
G37*
%LPD*%
G36*
X106815Y359574D02*
X106738Y359547D01*
X106670Y359502D01*
X106612Y359439D01*
X106562Y359358D01*
X106522Y359259D01*
X106491Y359142D01*
X106468Y359007D01*
X106455Y358856D01*
X106456Y358817D01*
X106476Y358680D01*
X106509Y358545D01*
X106554Y358410D01*
X106613Y358277D01*
X106685Y358144D01*
X106770Y358013D01*
X106868Y357882D01*
X106978Y357753D01*
X107102Y357625D01*
X104898D01*
X105022Y357753D01*
X105132Y357882D01*
X105230Y358013D01*
X105315Y358144D01*
X105387Y358277D01*
X105446Y358410D01*
X105491Y358545D01*
X105524Y358680D01*
X105543Y358817D01*
X105545Y358856D01*
X105532Y359007D01*
X105509Y359142D01*
X105478Y359259D01*
X105438Y359358D01*
X105388Y359439D01*
X105330Y359502D01*
X105262Y359547D01*
X105185Y359574D01*
X105100Y359583D01*
X106900D01*
X106815Y359574D01*
D02*
G37*
%LPC*%
G36*
X132366Y299111D02*
X130211D01*
Y298289D01*
X130222Y298211D01*
Y298122D01*
X130244Y298022D01*
X130277Y297834D01*
Y297822D01*
X130289Y297789D01*
X130311Y297745D01*
X130333Y297678D01*
X130400Y297545D01*
X130489Y297400D01*
X130500Y297389D01*
X130511Y297367D01*
X130544Y297334D01*
X130588Y297300D01*
X130700Y297211D01*
X130833Y297123D01*
X130844D01*
X130866Y297111D01*
X130911Y297089D01*
X130977Y297067D01*
X131044Y297056D01*
X131133Y297034D01*
X131322Y297023D01*
X131333D01*
X131344D01*
X131411D01*
X131500Y297045D01*
X131611Y297067D01*
X131744Y297100D01*
X131866Y297167D01*
X131988Y297245D01*
X132099Y297356D01*
X132111Y297367D01*
X132144Y297411D01*
X132188Y297489D01*
X132233Y297589D01*
X132277Y297722D01*
X132322Y297878D01*
X132355Y298067D01*
X132366Y298278D01*
Y299111D01*
D02*
G37*
G36*
X130111Y277002D02*
X129877D01*
X129866D01*
X129855D01*
X129777D01*
X129677D01*
X129566D01*
X129555D01*
X129544D01*
X129478D01*
X129389D01*
X129278Y276991D01*
X131322Y274225D01*
X131333D01*
X131366Y274236D01*
X131411Y274258D01*
X131477Y274280D01*
X131622Y274336D01*
X131788Y274414D01*
X131799D01*
X131822Y274436D01*
X131866Y274458D01*
X131911Y274491D01*
X132033Y274580D01*
X132144Y274691D01*
X132155Y274703D01*
X132166Y274714D01*
X132199Y274747D01*
X132233Y274791D01*
X132310Y274914D01*
X132388Y275058D01*
Y275069D01*
X132399Y275091D01*
X132422Y275136D01*
X132433Y275191D01*
X132455Y275258D01*
X132466Y275336D01*
X132477Y275514D01*
Y275569D01*
X132466Y275636D01*
X132455Y275725D01*
X132433Y275814D01*
X132411Y275925D01*
X132366Y276025D01*
X132310Y276136D01*
X132299Y276147D01*
X132277Y276180D01*
X132244Y276236D01*
X132188Y276302D01*
X132111Y276369D01*
X132033Y276458D01*
X131933Y276536D01*
X131811Y276613D01*
X131799Y276625D01*
X131755Y276647D01*
X131688Y276680D01*
X131588Y276725D01*
X131466Y276769D01*
X131333Y276813D01*
X131177Y276858D01*
X131000Y276902D01*
X130977D01*
X130911Y276913D01*
X130811Y276936D01*
X130677Y276947D01*
X130511Y276969D01*
X130322Y276991D01*
X130111Y277002D01*
D02*
G37*
G36*
X128433Y276824D02*
X128422D01*
X128389Y276813D01*
X128333Y276791D01*
X128278Y276769D01*
X128111Y276713D01*
X127944Y276636D01*
X127933Y276625D01*
X127911Y276613D01*
X127866Y276591D01*
X127822Y276558D01*
X127700Y276469D01*
X127567Y276358D01*
X127555Y276347D01*
X127544Y276325D01*
X127511Y276291D01*
X127478Y276247D01*
X127400Y276136D01*
X127322Y275991D01*
Y275980D01*
X127311Y275958D01*
X127300Y275914D01*
X127289Y275847D01*
X127267Y275780D01*
X127255Y275702D01*
X127244Y275514D01*
Y275458D01*
X127255Y275391D01*
X127267Y275303D01*
X127278Y275214D01*
X127311Y275102D01*
X127344Y275003D01*
X127400Y274891D01*
X127411Y274880D01*
X127433Y274847D01*
X127467Y274791D01*
X127522Y274725D01*
X127589Y274658D01*
X127678Y274580D01*
X127778Y274503D01*
X127889Y274425D01*
X127900Y274414D01*
X127944Y274391D01*
X128022Y274358D01*
X128111Y274314D01*
X128233Y274258D01*
X128366Y274214D01*
X128533Y274169D01*
X128700Y274125D01*
X128711D01*
X128722D01*
X128789Y274103D01*
X128889Y274092D01*
X129022Y274069D01*
X129189Y274047D01*
X129377Y274036D01*
X129589Y274014D01*
X129822D01*
X129833D01*
X129855D01*
X129889D01*
X129922D01*
X130033Y274025D01*
X130155Y274036D01*
X130166D01*
X130189D01*
X130222D01*
X130255Y274047D01*
X130366D01*
X130489Y274058D01*
X128433Y276824D01*
D02*
G37*
G36*
X130111Y265737D02*
X129877D01*
X129866D01*
X129855D01*
X129777D01*
X129677D01*
X129566D01*
X129555D01*
X129544D01*
X129478D01*
X129389D01*
X129278Y265726D01*
X131322Y262959D01*
X131333D01*
X131366Y262970D01*
X131411Y262993D01*
X131477Y263015D01*
X131622Y263070D01*
X131788Y263148D01*
X131799D01*
X131822Y263170D01*
X131866Y263193D01*
X131911Y263226D01*
X132033Y263315D01*
X132144Y263426D01*
X132155Y263437D01*
X132166Y263448D01*
X132199Y263481D01*
X132233Y263526D01*
X132310Y263648D01*
X132388Y263792D01*
Y263804D01*
X132399Y263826D01*
X132422Y263870D01*
X132433Y263926D01*
X132455Y263993D01*
X132466Y264070D01*
X132477Y264248D01*
Y264304D01*
X132466Y264370D01*
X132455Y264459D01*
X132433Y264548D01*
X132411Y264659D01*
X132366Y264759D01*
X132310Y264870D01*
X132299Y264881D01*
X132277Y264915D01*
X132244Y264970D01*
X132188Y265037D01*
X132111Y265104D01*
X132033Y265192D01*
X131933Y265270D01*
X131811Y265348D01*
X131799Y265359D01*
X131755Y265381D01*
X131688Y265415D01*
X131588Y265459D01*
X131466Y265504D01*
X131333Y265548D01*
X131177Y265592D01*
X131000Y265637D01*
X130977D01*
X130911Y265648D01*
X130811Y265670D01*
X130677Y265681D01*
X130511Y265703D01*
X130322Y265726D01*
X130111Y265737D01*
D02*
G37*
G36*
X128433Y265559D02*
X128422D01*
X128389Y265548D01*
X128333Y265526D01*
X128278Y265504D01*
X128111Y265448D01*
X127944Y265370D01*
X127933Y265359D01*
X127911Y265348D01*
X127866Y265326D01*
X127822Y265292D01*
X127700Y265203D01*
X127567Y265092D01*
X127555Y265081D01*
X127544Y265059D01*
X127511Y265026D01*
X127478Y264981D01*
X127400Y264870D01*
X127322Y264726D01*
Y264715D01*
X127311Y264692D01*
X127300Y264648D01*
X127289Y264581D01*
X127267Y264515D01*
X127255Y264437D01*
X127244Y264248D01*
Y264193D01*
X127255Y264126D01*
X127267Y264037D01*
X127278Y263948D01*
X127311Y263837D01*
X127344Y263737D01*
X127400Y263626D01*
X127411Y263615D01*
X127433Y263581D01*
X127467Y263526D01*
X127522Y263459D01*
X127589Y263392D01*
X127678Y263315D01*
X127778Y263237D01*
X127889Y263159D01*
X127900Y263148D01*
X127944Y263126D01*
X128022Y263093D01*
X128111Y263048D01*
X128233Y262993D01*
X128366Y262948D01*
X128533Y262904D01*
X128700Y262859D01*
X128711D01*
X128722D01*
X128789Y262837D01*
X128889Y262826D01*
X129022Y262804D01*
X129189Y262782D01*
X129377Y262770D01*
X129589Y262748D01*
X129822D01*
X129833D01*
X129855D01*
X129889D01*
X129922D01*
X130033Y262759D01*
X130155Y262770D01*
X130166D01*
X130189D01*
X130222D01*
X130255Y262782D01*
X130366D01*
X130489Y262793D01*
X128433Y265559D01*
D02*
G37*
G36*
X130111Y260104D02*
X129877D01*
X129866D01*
X129855D01*
X129777D01*
X129677D01*
X129566D01*
X129555D01*
X129544D01*
X129478D01*
X129389D01*
X129278Y260093D01*
X131322Y257327D01*
X131333D01*
X131366Y257338D01*
X131411Y257360D01*
X131477Y257382D01*
X131622Y257438D01*
X131788Y257515D01*
X131799D01*
X131822Y257538D01*
X131866Y257560D01*
X131911Y257593D01*
X132033Y257682D01*
X132144Y257793D01*
X132155Y257804D01*
X132166Y257815D01*
X132199Y257849D01*
X132233Y257893D01*
X132310Y258015D01*
X132388Y258160D01*
Y258171D01*
X132399Y258193D01*
X132422Y258238D01*
X132433Y258293D01*
X132455Y258360D01*
X132466Y258437D01*
X132477Y258615D01*
Y258671D01*
X132466Y258737D01*
X132455Y258826D01*
X132433Y258915D01*
X132411Y259026D01*
X132366Y259126D01*
X132310Y259237D01*
X132299Y259248D01*
X132277Y259282D01*
X132244Y259337D01*
X132188Y259404D01*
X132111Y259471D01*
X132033Y259560D01*
X131933Y259637D01*
X131811Y259715D01*
X131799Y259726D01*
X131755Y259749D01*
X131688Y259782D01*
X131588Y259826D01*
X131466Y259871D01*
X131333Y259915D01*
X131177Y259960D01*
X131000Y260004D01*
X130977D01*
X130911Y260015D01*
X130811Y260037D01*
X130677Y260048D01*
X130511Y260071D01*
X130322Y260093D01*
X130111Y260104D01*
D02*
G37*
G36*
X128433Y259926D02*
X128422D01*
X128389Y259915D01*
X128333Y259893D01*
X128278Y259871D01*
X128111Y259815D01*
X127944Y259737D01*
X127933Y259726D01*
X127911Y259715D01*
X127866Y259693D01*
X127822Y259660D01*
X127700Y259571D01*
X127567Y259460D01*
X127555Y259449D01*
X127544Y259426D01*
X127511Y259393D01*
X127478Y259349D01*
X127400Y259237D01*
X127322Y259093D01*
Y259082D01*
X127311Y259060D01*
X127300Y259015D01*
X127289Y258948D01*
X127267Y258882D01*
X127255Y258804D01*
X127244Y258615D01*
Y258560D01*
X127255Y258493D01*
X127267Y258404D01*
X127278Y258315D01*
X127311Y258204D01*
X127344Y258104D01*
X127400Y257993D01*
X127411Y257982D01*
X127433Y257949D01*
X127467Y257893D01*
X127522Y257826D01*
X127589Y257760D01*
X127678Y257682D01*
X127778Y257604D01*
X127889Y257526D01*
X127900Y257515D01*
X127944Y257493D01*
X128022Y257460D01*
X128111Y257415D01*
X128233Y257360D01*
X128366Y257315D01*
X128533Y257271D01*
X128700Y257226D01*
X128711D01*
X128722D01*
X128789Y257204D01*
X128889Y257193D01*
X129022Y257171D01*
X129189Y257149D01*
X129377Y257138D01*
X129589Y257115D01*
X129822D01*
X129833D01*
X129855D01*
X129889D01*
X129922D01*
X130033Y257126D01*
X130155Y257138D01*
X130166D01*
X130189D01*
X130222D01*
X130255Y257149D01*
X130366D01*
X130489Y257160D01*
X128433Y259926D01*
D02*
G37*
G36*
X131222Y254382D02*
X131099D01*
X131088D01*
X131044D01*
X130988D01*
X130922Y254371D01*
X130833D01*
X130744Y254349D01*
X130555Y254316D01*
X130544D01*
X130511Y254305D01*
X130466Y254282D01*
X130411Y254260D01*
X130277Y254193D01*
X130144Y254094D01*
X130133Y254082D01*
X130122Y254060D01*
X130088Y254027D01*
X130055Y253982D01*
X130011Y253927D01*
X129966Y253860D01*
X129889Y253694D01*
Y253682D01*
X129877Y253649D01*
X129866Y253593D01*
X129844Y253527D01*
X129833Y253449D01*
X129811Y253349D01*
X129800Y253238D01*
Y253005D01*
X129811Y252883D01*
X129833Y252738D01*
Y252727D01*
X129844Y252705D01*
Y252660D01*
X129855Y252616D01*
X129889Y252494D01*
X129922Y252349D01*
Y252338D01*
X129933Y252316D01*
X129944Y252283D01*
X129966Y252238D01*
X130011Y252116D01*
X130066Y251994D01*
Y251983D01*
X130077Y251960D01*
X130100Y251938D01*
X130122Y251894D01*
X130177Y251794D01*
X130244Y251683D01*
X130255D01*
X130277D01*
X130311D01*
X130355D01*
X130466D01*
X130622Y251694D01*
X130789Y251705D01*
X130966Y251727D01*
X131155Y251749D01*
X131322Y251783D01*
X131344D01*
X131400Y251805D01*
X131477Y251827D01*
X131577Y251849D01*
X131688Y251894D01*
X131799Y251938D01*
X131911Y251994D01*
X132022Y252060D01*
X132033Y252071D01*
X132066Y252094D01*
X132111Y252127D01*
X132166Y252183D01*
X132233Y252249D01*
X132299Y252327D01*
X132355Y252405D01*
X132399Y252505D01*
Y252516D01*
X132422Y252549D01*
X132433Y252605D01*
X132455Y252671D01*
X132477Y252760D01*
X132488Y252860D01*
X132510Y253082D01*
Y253183D01*
X132499Y253249D01*
X132488Y253327D01*
X132466Y253416D01*
X132411Y253605D01*
Y253616D01*
X132399Y253638D01*
X132377Y253682D01*
X132344Y253738D01*
X132266Y253871D01*
X132144Y254016D01*
X132133Y254027D01*
X132111Y254038D01*
X132077Y254071D01*
X132022Y254116D01*
X131955Y254149D01*
X131877Y254193D01*
X131700Y254282D01*
X131688D01*
X131655Y254293D01*
X131599Y254316D01*
X131533Y254327D01*
X131444Y254349D01*
X131344Y254371D01*
X131222Y254382D01*
D02*
G37*
G36*
X103485Y269700D02*
X103471D01*
X103429D01*
X103360Y269686D01*
X103277Y269672D01*
X103180Y269645D01*
X103082Y269589D01*
X102985Y269533D01*
X102902Y269450D01*
X102888Y269436D01*
X102874Y269409D01*
X102846Y269353D01*
X102805Y269270D01*
X102763Y269173D01*
X102735Y269062D01*
X102721Y268923D01*
X102708Y268770D01*
Y268715D01*
X102721Y268645D01*
X102735Y268562D01*
X102763Y268465D01*
X102805Y268354D01*
X102860Y268229D01*
X102930Y268104D01*
X102944Y268090D01*
X102971Y268048D01*
X103027Y267965D01*
X103096Y267882D01*
X103193Y267771D01*
X103304Y267632D01*
X103443Y267493D01*
X103596Y267340D01*
X104443D01*
Y268423D01*
X104429Y268506D01*
X104415Y268728D01*
X104359Y268951D01*
Y268964D01*
X104345Y268992D01*
X104332Y269048D01*
X104304Y269103D01*
X104248Y269242D01*
X104151Y269381D01*
X104123Y269409D01*
X104068Y269478D01*
X103971Y269561D01*
X103846Y269631D01*
X103832D01*
X103818Y269645D01*
X103735Y269658D01*
X103624Y269686D01*
X103485Y269700D01*
D02*
G37*
G36*
X117887Y269436D02*
X117873D01*
X117845D01*
X117790D01*
X117720D01*
X117637Y269423D01*
X117554Y269409D01*
X117332Y269381D01*
X117096Y269339D01*
X116846Y269270D01*
X116610Y269173D01*
X116402Y269048D01*
X116374Y269034D01*
X116318Y268978D01*
X116249Y268881D01*
X116152Y268756D01*
X116055Y268604D01*
X115985Y268409D01*
X115930Y268201D01*
X115902Y267951D01*
Y267882D01*
X115916Y267812D01*
Y267715D01*
X115971Y267507D01*
X115999Y267396D01*
X116055Y267285D01*
X116068Y267271D01*
X116082Y267229D01*
X116124Y267188D01*
X116166Y267118D01*
X116290Y266966D01*
X116471Y266827D01*
X116485Y266813D01*
X116526Y266799D01*
X116582Y266771D01*
X116651Y266730D01*
X116749Y266688D01*
X116860Y266633D01*
X117109Y266563D01*
X117123D01*
X117179Y266549D01*
X117248Y266535D01*
X117345Y266508D01*
X117470Y266494D01*
X117595Y266480D01*
X117901Y266466D01*
X117914D01*
X117942D01*
X117998D01*
X118067D01*
X118150Y266480D01*
X118234D01*
X118456Y266508D01*
X118692Y266563D01*
X118942Y266619D01*
X119178Y266716D01*
X119386Y266841D01*
X119413Y266855D01*
X119469Y266910D01*
X119538Y266993D01*
X119636Y267118D01*
X119733Y267271D01*
X119802Y267465D01*
X119858Y267688D01*
X119885Y267951D01*
Y268021D01*
X119872Y268090D01*
Y268187D01*
X119816Y268395D01*
X119774Y268520D01*
X119719Y268631D01*
Y268645D01*
X119691Y268673D01*
X119650Y268728D01*
X119608Y268798D01*
X119469Y268937D01*
X119289Y269089D01*
X119275Y269103D01*
X119247Y269117D01*
X119192Y269145D01*
X119108Y269186D01*
X119025Y269228D01*
X118914Y269270D01*
X118664Y269353D01*
X118650D01*
X118608Y269367D01*
X118525Y269381D01*
X118428Y269395D01*
X118317Y269409D01*
X118178Y269423D01*
X117887Y269436D01*
D02*
G37*
G36*
X104942Y255834D02*
X104762D01*
X104734D01*
X104678D01*
X104581D01*
X104456Y255820D01*
X104304D01*
X104165Y255806D01*
X104012Y255792D01*
X103860Y255765D01*
X103846D01*
X103804Y255751D01*
X103735Y255737D01*
X103651Y255709D01*
X103457Y255654D01*
X103249Y255556D01*
X103235D01*
X103207Y255529D01*
X103124Y255459D01*
X102999Y255348D01*
X102902Y255209D01*
Y255195D01*
X102888Y255168D01*
X102874Y255126D01*
X102860Y255071D01*
X102819Y254918D01*
X102805Y254737D01*
Y254668D01*
X102819Y254599D01*
X102846Y254502D01*
X102874Y254390D01*
X102930Y254265D01*
X103013Y254127D01*
X103110Y254002D01*
X103124Y253988D01*
X103166Y253946D01*
X103235Y253877D01*
X103332Y253780D01*
X103457Y253669D01*
X103610Y253544D01*
X103776Y253405D01*
X103971Y253252D01*
X106747D01*
Y253266D01*
X106761Y253280D01*
X106774Y253322D01*
X106788Y253377D01*
X106830Y253530D01*
X106858Y253710D01*
Y253724D01*
X106872Y253752D01*
Y253807D01*
X106885Y253877D01*
X106899Y254043D01*
X106913Y254238D01*
Y254307D01*
X106899Y254377D01*
Y254460D01*
X106844Y254682D01*
X106816Y254793D01*
X106761Y254904D01*
Y254918D01*
X106733Y254946D01*
X106691Y255001D01*
X106649Y255071D01*
X106511Y255237D01*
X106330Y255404D01*
X106316Y255418D01*
X106275Y255431D01*
X106219Y255473D01*
X106136Y255515D01*
X106039Y255570D01*
X105928Y255626D01*
X105789Y255681D01*
X105650Y255723D01*
X105636D01*
X105581Y255737D01*
X105497Y255751D01*
X105400Y255778D01*
X105262Y255792D01*
X105109Y255820D01*
X104942Y255834D01*
D02*
G37*
G36*
X116568Y248075D02*
X116554D01*
X116513D01*
X116443Y248061D01*
X116360Y248047D01*
X116263Y248020D01*
X116166Y247964D01*
X116068Y247908D01*
X115985Y247825D01*
X115971Y247811D01*
X115957Y247784D01*
X115930Y247728D01*
X115888Y247645D01*
X115846Y247548D01*
X115819Y247437D01*
X115805Y247298D01*
X115791Y247145D01*
Y247090D01*
X115805Y247020D01*
X115819Y246937D01*
X115846Y246840D01*
X115888Y246729D01*
X115944Y246604D01*
X116013Y246479D01*
X116027Y246465D01*
X116055Y246423D01*
X116110Y246340D01*
X116180Y246257D01*
X116277Y246146D01*
X116388Y246007D01*
X116526Y245868D01*
X116679Y245715D01*
X117526D01*
Y246798D01*
X117512Y246881D01*
X117498Y247103D01*
X117443Y247325D01*
Y247339D01*
X117429Y247367D01*
X117415Y247423D01*
X117387Y247478D01*
X117332Y247617D01*
X117234Y247756D01*
X117207Y247784D01*
X117151Y247853D01*
X117054Y247936D01*
X116929Y248006D01*
X116915D01*
X116901Y248020D01*
X116818Y248033D01*
X116707Y248061D01*
X116568Y248075D01*
D02*
G37*
G36*
X118956Y241024D02*
X118928D01*
X118872D01*
X118789Y241010D01*
X118664Y240982D01*
X118539Y240955D01*
X118414Y240899D01*
X118289Y240830D01*
X118164Y240733D01*
X118150Y240719D01*
X118123Y240677D01*
X118067Y240608D01*
X118026Y240524D01*
X117970Y240399D01*
X117914Y240261D01*
X117887Y240094D01*
X117873Y239914D01*
Y239816D01*
X117887Y239747D01*
X117914Y239580D01*
X117956Y239414D01*
Y239400D01*
X117970Y239372D01*
X118026Y239289D01*
X118109Y239178D01*
X118206Y239067D01*
X118220D01*
X118234Y239039D01*
X118303Y238984D01*
X118428Y238914D01*
X118567Y238859D01*
X118581D01*
X118608Y238845D01*
X118650Y238831D01*
X118706Y238817D01*
X118831Y238803D01*
X118997Y238789D01*
X119025D01*
X119080D01*
X119178Y238803D01*
X119302Y238831D01*
X119427Y238859D01*
X119566Y238914D01*
X119691Y238998D01*
X119816Y239095D01*
X119830Y239109D01*
X119858Y239150D01*
X119913Y239220D01*
X119969Y239303D01*
X120024Y239428D01*
X120080Y239567D01*
X120107Y239733D01*
X120121Y239914D01*
Y240011D01*
X120107Y240080D01*
X120080Y240247D01*
X120024Y240413D01*
Y240427D01*
X120010Y240441D01*
X119955Y240538D01*
X119872Y240649D01*
X119761Y240760D01*
X119733Y240788D01*
X119663Y240844D01*
X119538Y240913D01*
X119400Y240968D01*
X119386D01*
X119358Y240982D01*
X119316D01*
X119261Y240996D01*
X119122Y241010D01*
X118956Y241024D01*
D02*
G37*
G36*
X113973Y241274D02*
X113889D01*
X113875D01*
X113834D01*
X113764Y241260D01*
X113681Y241232D01*
X113598Y241191D01*
X113514Y241121D01*
X113417Y241038D01*
X113348Y240913D01*
X113334Y240899D01*
X113320Y240844D01*
X113293Y240760D01*
X113265Y240635D01*
X113223Y240497D01*
X113195Y240316D01*
X113181Y240108D01*
X113168Y239872D01*
Y239719D01*
X113181Y239622D01*
X113209Y239386D01*
X113251Y239150D01*
Y239136D01*
X113265Y239095D01*
X113279Y239039D01*
X113306Y238970D01*
X113376Y238817D01*
X113473Y238664D01*
Y238650D01*
X113501Y238637D01*
X113556Y238553D01*
X113653Y238470D01*
X113778Y238387D01*
X113792D01*
X113806Y238373D01*
X113889Y238345D01*
X114000Y238317D01*
X114139Y238303D01*
X114153D01*
X114167D01*
X114236Y238317D01*
X114333Y238331D01*
X114417Y238387D01*
X114431Y238401D01*
X114486Y238442D01*
X114542Y238512D01*
X114611Y238609D01*
X114625Y238637D01*
X114653Y238706D01*
X114694Y238803D01*
X114722Y238942D01*
Y238956D01*
X114736Y238970D01*
Y239011D01*
X114750Y239067D01*
X114764Y239192D01*
Y239358D01*
X114792Y240691D01*
Y240705D01*
X114778Y240719D01*
X114722Y240802D01*
X114653Y240899D01*
X114569Y240996D01*
X114556Y241010D01*
X114500Y241066D01*
X114431Y241121D01*
X114347Y241177D01*
X114333Y241191D01*
X114278Y241204D01*
X114208Y241232D01*
X114125Y241260D01*
X114111D01*
X114056D01*
X113973Y241274D01*
D02*
G37*
G36*
X118608Y234070D02*
Y231433D01*
X118622D01*
X118664D01*
X118733D01*
X118831Y231447D01*
X119025Y231475D01*
X119247Y231530D01*
X119261D01*
X119289Y231544D01*
X119344Y231572D01*
X119413Y231599D01*
X119552Y231683D01*
X119705Y231808D01*
X119719Y231822D01*
X119733Y231835D01*
X119802Y231919D01*
X119899Y232044D01*
X119969Y232210D01*
Y232224D01*
X119983Y232252D01*
X119997Y232294D01*
X120024Y232349D01*
X120052Y232502D01*
X120066Y232696D01*
Y232793D01*
X120052Y232890D01*
X120024Y233029D01*
X119969Y233182D01*
X119899Y233334D01*
X119802Y233487D01*
X119677Y233640D01*
X119663Y233654D01*
X119608Y233695D01*
X119525Y233751D01*
X119400Y233834D01*
X119247Y233904D01*
X119067Y233973D01*
X118858Y234029D01*
X118608Y234070D01*
D02*
G37*
%LPD*%
D18*
X112500Y410051D02*
D03*
Y403949D02*
D03*
X241000Y183949D02*
D03*
Y190051D02*
D03*
X103500Y386051D02*
D03*
Y379949D02*
D03*
D19*
X112000Y378800D02*
D03*
Y386200D02*
D03*
D20*
X144000Y406039D02*
D03*
Y410961D02*
D03*
D21*
X124253Y328500D02*
D03*
X131653D02*
D03*
X125800Y310000D02*
D03*
X133200D02*
D03*
X158700Y356000D02*
D03*
X151300D02*
D03*
X188300D02*
D03*
X195700D02*
D03*
D22*
X230102Y162000D02*
D03*
X224000D02*
D03*
D23*
X112461Y303500D02*
D03*
X107539D02*
D03*
D24*
X133500Y385646D02*
D03*
Y391354D02*
D03*
D25*
X103500Y337343D02*
D03*
Y342657D02*
D03*
X106000Y361343D02*
D03*
Y366657D02*
D03*
X123500Y418500D02*
D03*
Y413185D02*
D03*
X127500Y391158D02*
D03*
Y385842D02*
D03*
X123500Y398843D02*
D03*
Y404157D02*
D03*
D26*
X134500Y353500D02*
D03*
X129776D02*
D03*
D27*
X129244Y360500D02*
D03*
X134756D02*
D03*
X134756Y368500D02*
D03*
X129244D02*
D03*
D28*
X114260Y357980D02*
D03*
X118000D02*
D03*
X121740D02*
D03*
Y368020D02*
D03*
X114260D02*
D03*
D29*
X129000Y400000D02*
D03*
X130968D02*
D03*
X132937D02*
D03*
X134906D02*
D03*
X136874D02*
D03*
Y417323D02*
D03*
X134906D02*
D03*
X132937D02*
D03*
X130968D02*
D03*
X129000D02*
D03*
D30*
X128260Y345339D02*
D03*
X110740D02*
D03*
Y342779D02*
D03*
Y340220D02*
D03*
Y337661D02*
D03*
X128260Y342779D02*
D03*
Y340220D02*
D03*
Y337661D02*
D03*
D31*
X167000Y416524D02*
D03*
Y394476D02*
D03*
D32*
X112559Y310500D02*
D03*
X107441D02*
D03*
D33*
X107095Y296500D02*
D03*
X113000D02*
D03*
X107047Y317500D02*
D03*
X112953D02*
D03*
D56*
X103500Y386051D02*
Y400000D01*
X105000D01*
X107500Y436500D02*
X116000D01*
X105500Y438500D02*
X107500Y436500D01*
X136874Y417323D02*
Y442126D01*
X120500Y458500D02*
X136874Y442126D01*
X116000Y458500D02*
X120500D01*
X134906Y417323D02*
Y434094D01*
X121500Y447500D02*
X134906Y434094D01*
X116000Y447500D02*
X121500D01*
X132937Y417323D02*
Y426063D01*
X122500Y436500D02*
X132937Y426063D01*
X116000Y436500D02*
X122500D01*
X133500Y310700D02*
Y316000D01*
X133000Y310200D02*
X133500Y310700D01*
X140777Y386277D02*
Y402816D01*
X132500Y378000D02*
X140777Y386277D01*
X131228Y378000D02*
X132500D01*
X105000Y410000D02*
X112449D01*
X112500Y410051D01*
X134837Y399932D02*
X134906Y399863D01*
X195453Y356000D02*
Y362453D01*
X151500Y356547D02*
X152047Y356000D01*
X120261Y378800D02*
X127303Y385842D01*
X106000Y360343D02*
X106500Y360842D01*
X143223Y411889D02*
X145389D01*
X142295Y410961D02*
X143223Y411889D01*
X133437Y391563D02*
X134000Y391000D01*
X135961Y410961D02*
X142295D01*
X132937Y407937D02*
X135961Y410961D01*
X132937Y400000D02*
Y407937D01*
X136874Y400000D02*
Y406000D01*
X134906Y400000D02*
X136874D01*
X116000Y425500D02*
X127500D01*
X130968Y422031D01*
Y417323D02*
Y422031D01*
X133000Y310200D02*
X133200Y310000D01*
X133237Y362018D02*
Y363263D01*
X130763Y365737D02*
X133237Y363263D01*
X130763Y365737D02*
Y366982D01*
X163512Y392500D02*
X165488Y394476D01*
X158756Y392500D02*
X163512D01*
X136471Y370215D02*
X158756Y392500D01*
X165488Y394476D02*
X167000D01*
X136274Y370215D02*
X136471D01*
X134756Y368697D02*
X136274Y370215D01*
X134756Y368500D02*
Y368697D01*
X121740Y368512D02*
X131228Y378000D01*
X121740Y368020D02*
Y368512D01*
X114260Y360047D02*
X121740Y367528D01*
X114260Y357980D02*
Y360047D01*
X121740Y367528D02*
Y368020D01*
X123500Y331000D02*
X125000D01*
X134500Y350500D02*
Y353500D01*
X132500Y348500D02*
X134500Y350500D01*
X123500Y348500D02*
X132500D01*
X120500D02*
X123500D01*
Y339750D02*
Y348500D01*
X116000Y353000D02*
X120500Y348500D01*
X123500Y331000D02*
Y339750D01*
X130905Y331000D02*
X131000Y330906D01*
X106000Y356500D02*
Y360343D01*
Y361343D02*
X106500Y360842D01*
X118000Y360905D02*
X120095Y363000D01*
X118000Y357980D02*
Y360905D01*
X120095Y363000D02*
X122500D01*
X133303Y385842D02*
X133500Y385646D01*
X127500Y385842D02*
X133303D01*
X112000Y378800D02*
X120261D01*
X127303Y385842D02*
X127500D01*
X130968Y395969D02*
Y400000D01*
X129000Y394000D02*
X130968Y395969D01*
X129000Y392657D02*
Y394000D01*
X127500Y391158D02*
X129000Y392657D01*
X140777Y402816D02*
X142777Y404816D01*
Y405111D01*
X143705Y406039D01*
X144000D01*
X142295Y410961D02*
X144000D01*
X153500Y420000D02*
Y444500D01*
X145389Y411889D02*
X153500Y420000D01*
X118500Y394039D02*
X123303Y398843D01*
X132453Y310000D02*
X133200D01*
X151500Y356547D02*
Y362000D01*
X167000Y394476D02*
X170024D01*
X211300Y390300D02*
Y429800D01*
X208000Y387000D02*
X211300Y390300D01*
X192500Y372000D02*
X193000D01*
X208000Y387000D01*
X164000Y303500D02*
X188500Y328000D01*
X148000Y303500D02*
X164000D01*
X112461D02*
X137500D01*
X107095Y285405D02*
X107500Y285000D01*
X107095Y285405D02*
Y296500D01*
X103500Y321047D02*
Y332000D01*
Y321047D02*
X107047Y317500D01*
X107441Y310500D02*
X108172Y311231D01*
Y312719D01*
X112953Y317500D01*
X123303Y398843D02*
X123500D01*
X153500Y444500D02*
X166500Y457500D01*
X131000Y322500D02*
Y328405D01*
X123500Y339750D02*
X123970Y340220D01*
X128260D01*
X128039Y340000D02*
X128260Y340220D01*
X103500Y337343D02*
X103819Y337661D01*
X110740D01*
X103500Y332000D02*
Y337343D01*
X121740Y357488D02*
X125728Y353500D01*
X121740Y357488D02*
Y357980D01*
X125728Y353500D02*
X129776D01*
X130900Y356255D02*
X133573Y358927D01*
Y359317D01*
X134756Y360500D01*
X129776Y353500D02*
X130900Y354625D01*
Y356255D01*
X123500Y408671D02*
Y413185D01*
Y404157D02*
Y408671D01*
X122500Y363000D02*
X126744D01*
X127529Y362215D01*
X127726D01*
X129244Y360697D01*
Y360500D02*
Y360697D01*
X133237Y362018D02*
X134756Y360500D01*
X129244Y368500D02*
X130763Y366982D01*
X134837Y399932D02*
X134906Y400000D01*
X107441Y303500D02*
X108172Y302769D01*
Y301328D02*
Y302769D01*
Y301328D02*
X113000Y296500D01*
X128859Y399859D02*
X129000Y400000D01*
X124517Y399859D02*
X128859D01*
X123500Y398843D02*
X124517Y399859D01*
X123500Y418500D02*
X128859D01*
X129000Y418360D01*
Y417323D02*
Y418360D01*
X105500Y428500D02*
X106977D01*
X109977Y425500D01*
X116000D01*
X105500Y448500D02*
X106000Y448000D01*
X115500D01*
X116000Y447500D01*
X105500Y458500D02*
X116000D01*
X132937Y392063D02*
Y400000D01*
D57*
X181400Y404600D02*
X186100D01*
X169476Y416524D02*
X181400Y404600D01*
X167000Y416524D02*
X169476D01*
X192500Y372000D02*
X218500Y346000D01*
X170024Y394476D02*
X192500Y372000D01*
X218500Y328000D02*
Y346000D01*
X188500Y328000D02*
Y356000D01*
X158500Y328000D02*
Y355953D01*
X143000Y312500D02*
X158500Y328000D01*
X143000Y229000D02*
Y312500D01*
Y229000D02*
X210000Y162000D01*
X224000D01*
X158500Y246326D02*
Y248000D01*
Y246326D02*
X225500Y179326D01*
Y177500D02*
Y179326D01*
X218500Y248000D02*
X225500Y241000D01*
Y213500D02*
Y241000D01*
X188500Y328000D02*
X241000Y275500D01*
Y190051D02*
Y275500D01*
Y172500D02*
Y183949D01*
X233000Y152500D02*
X241000D01*
X233000D02*
Y159102D01*
Y134500D02*
Y152500D01*
X230276Y161827D02*
X233000Y159102D01*
X230276Y161827D02*
Y161878D01*
X230153Y162000D02*
X230276Y161878D01*
X230102Y162000D02*
X230153D01*
X149000Y148000D02*
Y149000D01*
X120500Y177500D02*
X149000Y149000D01*
X109500Y177500D02*
X120500D01*
X180500Y148000D02*
X181500D01*
X115000Y213500D02*
X180500Y148000D01*
X109500Y213500D02*
X115000D01*
X226000Y121500D02*
Y154000D01*
Y121500D02*
X233000Y114500D01*
X157953Y356000D02*
X158000Y356047D01*
D58*
X105000Y450000D02*
D03*
Y430000D02*
D03*
Y440000D02*
D03*
Y420000D02*
D03*
Y410000D02*
D03*
Y400000D02*
D03*
Y460000D02*
D03*
X233000Y114500D02*
D03*
Y124500D02*
D03*
Y134500D02*
D03*
X109500Y177500D02*
D03*
X225500D02*
D03*
Y213500D02*
D03*
X109500D02*
D03*
X158500Y328000D02*
D03*
X218500D02*
D03*
X188500D02*
D03*
X241000Y172500D02*
D03*
Y162500D02*
D03*
Y152500D02*
D03*
D59*
X148980Y148000D02*
D03*
X181500D02*
D03*
D60*
X218500Y248000D02*
D03*
X158500D02*
D03*
D61*
X166500Y457500D02*
D03*
X116000Y436500D02*
D03*
Y447500D02*
D03*
Y458500D02*
D03*
Y425500D02*
D03*
X219500Y387000D02*
D03*
X208000D02*
D03*
D62*
X112500Y120000D02*
D03*
X234500Y369000D02*
D03*
D63*
X186100Y455000D02*
D03*
X236500D02*
D03*
Y404600D02*
D03*
X186100D02*
D03*
X211300Y429800D02*
D03*
D64*
X133500Y316000D02*
D03*
X136874Y406000D02*
D03*
X131000Y322500D02*
D03*
X116000Y353000D02*
D03*
X106000Y356500D02*
D03*
X122000Y380500D02*
D03*
X118500Y394039D02*
D03*
X195500Y362000D02*
D03*
X151500D02*
D03*
X148000Y303500D02*
D03*
X137500D02*
D03*
X226000Y154000D02*
D03*
X107095Y285405D02*
D03*
X103500Y332000D02*
D03*
X122500Y363000D02*
D03*
X123500Y408671D02*
D03*
M02*
