G04*
G04 #@! TF.GenerationSoftware,Altium Limited,Altium Designer,20.0.14 (345)*
G04*
G04 Layer_Color=8421504*
%FSLAX25Y25*%
%MOIN*%
G70*
G01*
G75*
%ADD19R,0.03543X0.03150*%
%ADD20R,0.03150X0.03543*%
%ADD21R,0.09000X0.03000*%
%ADD22R,0.05906X0.04331*%
%ADD23R,0.06299X0.03937*%
%ADD24R,0.04200X0.09000*%
%ADD25R,0.42000X0.35000*%
%ADD26R,0.07087X0.05118*%
%ADD27R,0.04331X0.05906*%
%ADD28R,0.05118X0.07087*%
%ADD29R,0.11811X0.06299*%
%ADD30R,0.22835X0.24410*%
%ADD31R,0.03740X0.03740*%
%ADD32R,0.01968X0.03543*%
%ADD33R,0.03740X0.03740*%
%ADD34O,0.02362X0.05709*%
%ADD35O,0.08268X0.01181*%
%ADD36O,0.01181X0.08268*%
%ADD37O,0.03937X0.02362*%
%ADD38O,0.07480X0.02362*%
%ADD39O,0.02362X0.03937*%
%ADD40R,0.10630X0.10630*%
G04:AMPARAMS|DCode=41|XSize=29.92mil|YSize=94.49mil|CornerRadius=7.48mil|HoleSize=0mil|Usage=FLASHONLY|Rotation=270.000|XOffset=0mil|YOffset=0mil|HoleType=Round|Shape=RoundedRectangle|*
%AMROUNDEDRECTD41*
21,1,0.02992,0.07953,0,0,270.0*
21,1,0.01496,0.09449,0,0,270.0*
1,1,0.01496,-0.03976,-0.00748*
1,1,0.01496,-0.03976,0.00748*
1,1,0.01496,0.03976,0.00748*
1,1,0.01496,0.03976,-0.00748*
%
%ADD41ROUNDEDRECTD41*%
%ADD42O,0.01000X0.05315*%
%ADD43R,0.03937X0.06299*%
D19*
X770291Y464044D02*
D03*
Y469556D02*
D03*
X652291Y307556D02*
D03*
Y302044D02*
D03*
X611291Y463044D02*
D03*
Y468556D02*
D03*
X472291Y307556D02*
D03*
Y302044D02*
D03*
X22291Y608044D02*
D03*
Y613556D02*
D03*
X36291Y414312D02*
D03*
Y408800D02*
D03*
X139291Y432044D02*
D03*
Y437556D02*
D03*
X120291Y348556D02*
D03*
Y343044D02*
D03*
X138291Y395044D02*
D03*
Y400556D02*
D03*
X32291Y566044D02*
D03*
Y571556D02*
D03*
Y618044D02*
D03*
Y623556D02*
D03*
Y582556D02*
D03*
Y577044D02*
D03*
Y633556D02*
D03*
Y628044D02*
D03*
X22291Y635556D02*
D03*
Y630044D02*
D03*
X109291Y489556D02*
D03*
Y484044D02*
D03*
X41291Y468044D02*
D03*
Y473556D02*
D03*
X106291Y468044D02*
D03*
Y473556D02*
D03*
X42291Y489556D02*
D03*
Y484044D02*
D03*
X652291Y312044D02*
D03*
Y317556D02*
D03*
X472291Y312044D02*
D03*
Y317556D02*
D03*
X611291Y458556D02*
D03*
Y453044D02*
D03*
X770291Y459556D02*
D03*
Y454044D02*
D03*
X52291Y339044D02*
D03*
Y344556D02*
D03*
X129426Y355254D02*
D03*
Y360766D02*
D03*
X134000Y457756D02*
D03*
Y452244D02*
D03*
X139291Y419044D02*
D03*
Y424556D02*
D03*
Y411556D02*
D03*
Y406044D02*
D03*
X138291Y390556D02*
D03*
Y385044D02*
D03*
X97291Y469556D02*
D03*
Y464044D02*
D03*
X139000Y457756D02*
D03*
Y452244D02*
D03*
X67291Y466556D02*
D03*
Y461044D02*
D03*
X115291Y351044D02*
D03*
Y356556D02*
D03*
X110375Y358556D02*
D03*
Y353044D02*
D03*
X105291Y353044D02*
D03*
Y358556D02*
D03*
X32291Y612556D02*
D03*
Y607044D02*
D03*
X80291Y466556D02*
D03*
Y461044D02*
D03*
X59291Y466556D02*
D03*
Y461044D02*
D03*
X32291Y560556D02*
D03*
Y555044D02*
D03*
X65291Y485288D02*
D03*
Y490800D02*
D03*
X131291Y484288D02*
D03*
Y489800D02*
D03*
X292291Y335556D02*
D03*
Y330044D02*
D03*
X379741Y82044D02*
D03*
Y87556D02*
D03*
X80291Y12044D02*
D03*
Y17556D02*
D03*
X68291Y12044D02*
D03*
Y17556D02*
D03*
X56291Y12044D02*
D03*
Y17556D02*
D03*
X44291Y12044D02*
D03*
Y17556D02*
D03*
X98809Y96465D02*
D03*
Y101977D02*
D03*
X98584Y145075D02*
D03*
Y150587D02*
D03*
X98059Y194446D02*
D03*
Y199958D02*
D03*
X98000Y46244D02*
D03*
Y51756D02*
D03*
Y252756D02*
D03*
Y247244D02*
D03*
X111291Y334556D02*
D03*
Y329044D02*
D03*
X79291Y342044D02*
D03*
Y347556D02*
D03*
X60291Y289288D02*
D03*
Y294800D02*
D03*
Y304800D02*
D03*
Y299288D02*
D03*
X249291Y442556D02*
D03*
Y437044D02*
D03*
X430291Y442556D02*
D03*
Y437044D02*
D03*
X196344Y83533D02*
D03*
Y78021D02*
D03*
D20*
X92756Y348000D02*
D03*
X87244D02*
D03*
X38047Y483800D02*
D03*
X32535D02*
D03*
X105047D02*
D03*
X99535D02*
D03*
X61756Y497000D02*
D03*
X56244D02*
D03*
X126047Y496800D02*
D03*
X120535D02*
D03*
X57045Y359472D02*
D03*
X62556D02*
D03*
X77323Y359139D02*
D03*
X82835D02*
D03*
X125047Y357800D02*
D03*
X119535D02*
D03*
X30535Y421800D02*
D03*
X36047D02*
D03*
X78047Y597800D02*
D03*
X72535D02*
D03*
X30535Y401800D02*
D03*
X36047D02*
D03*
X30535Y375800D02*
D03*
X36047D02*
D03*
X78047Y649800D02*
D03*
X72535D02*
D03*
X136756Y479000D02*
D03*
X131244D02*
D03*
X71756Y476000D02*
D03*
X66244D02*
D03*
X558535Y119800D02*
D03*
X564047D02*
D03*
X379488Y164000D02*
D03*
X385000D02*
D03*
X193244Y163000D02*
D03*
X198756D02*
D03*
X57045Y353800D02*
D03*
X62556D02*
D03*
X14047Y406800D02*
D03*
X8535D02*
D03*
X14047Y394800D02*
D03*
X8535D02*
D03*
X14047Y382800D02*
D03*
X8535D02*
D03*
X14047Y370800D02*
D03*
X8535D02*
D03*
X165779Y128800D02*
D03*
X171291D02*
D03*
X513535Y119800D02*
D03*
X519047D02*
D03*
X172901Y64021D02*
D03*
X178413D02*
D03*
X355229Y67800D02*
D03*
X360741D02*
D03*
X352259Y130373D02*
D03*
X357771D02*
D03*
D21*
X79000Y527729D02*
D03*
Y522729D02*
D03*
Y517729D02*
D03*
Y532729D02*
D03*
Y537729D02*
D03*
Y542729D02*
D03*
Y507729D02*
D03*
Y512729D02*
D03*
X44000Y542729D02*
D03*
Y507729D02*
D03*
Y512729D02*
D03*
Y517729D02*
D03*
Y522729D02*
D03*
Y537729D02*
D03*
Y532729D02*
D03*
Y527729D02*
D03*
D22*
X98000Y29300D02*
D03*
Y36700D02*
D03*
X98584Y126131D02*
D03*
Y133531D02*
D03*
X97927Y177433D02*
D03*
Y184833D02*
D03*
X98000Y238700D02*
D03*
Y231300D02*
D03*
X98809Y84921D02*
D03*
Y77521D02*
D03*
D23*
X440291Y471800D02*
D03*
Y438800D02*
D03*
X437000Y431000D02*
D03*
X258291Y471800D02*
D03*
Y438800D02*
D03*
Y430800D02*
D03*
X267291Y336800D02*
D03*
Y327800D02*
D03*
Y300800D02*
D03*
Y318800D02*
D03*
X44291Y-4200D02*
D03*
X32291D02*
D03*
X89291Y337800D02*
D03*
Y327800D02*
D03*
Y317800D02*
D03*
Y300800D02*
D03*
X105291Y463800D02*
D03*
X113291D02*
D03*
X121291D02*
D03*
X33291Y429800D02*
D03*
Y447800D02*
D03*
Y435800D02*
D03*
Y441800D02*
D03*
X89291Y569800D02*
D03*
Y577800D02*
D03*
Y585800D02*
D03*
Y621800D02*
D03*
Y629800D02*
D03*
Y637800D02*
D03*
X258291Y446800D02*
D03*
X440291D02*
D03*
X56291Y-4200D02*
D03*
X80291D02*
D03*
X68291D02*
D03*
D24*
X558828Y129902D02*
D03*
X565528D02*
D03*
X572228D02*
D03*
X552128D02*
D03*
X545428D02*
D03*
X513828D02*
D03*
X520528D02*
D03*
X527228D02*
D03*
X507128D02*
D03*
X500428D02*
D03*
D25*
X558828Y164402D02*
D03*
X513828D02*
D03*
D26*
X572291Y107383D02*
D03*
Y118800D02*
D03*
X526291Y107383D02*
D03*
Y118800D02*
D03*
X0Y194709D02*
D03*
Y183291D02*
D03*
Y244709D02*
D03*
Y233291D02*
D03*
Y143709D02*
D03*
Y132291D02*
D03*
Y82291D02*
D03*
Y93709D02*
D03*
X-0Y43709D02*
D03*
Y32291D02*
D03*
D27*
X546258Y118221D02*
D03*
X553658D02*
D03*
X507528D02*
D03*
X500128D02*
D03*
D28*
X380932Y156129D02*
D03*
X392349D02*
D03*
X392449Y94800D02*
D03*
X381032D02*
D03*
X208549Y90777D02*
D03*
X197132D02*
D03*
X195323Y154800D02*
D03*
X206741D02*
D03*
X23291Y321000D02*
D03*
X34709D02*
D03*
D29*
X370032Y75804D02*
D03*
Y93796D02*
D03*
X186840Y72025D02*
D03*
Y90017D02*
D03*
X185032Y136808D02*
D03*
Y154800D02*
D03*
X370032Y155600D02*
D03*
Y137608D02*
D03*
D30*
X342552Y84800D02*
D03*
X159360Y81021D02*
D03*
X157552Y145804D02*
D03*
X342552Y146604D02*
D03*
D31*
X80291Y8146D02*
D03*
Y1453D02*
D03*
X68417Y6510D02*
D03*
Y-183D02*
D03*
X56291Y8146D02*
D03*
Y1453D02*
D03*
X44418Y6630D02*
D03*
Y-62D02*
D03*
D32*
X99839Y358301D02*
D03*
X94721D02*
D03*
X97280Y349443D02*
D03*
D33*
X67638Y283800D02*
D03*
X60945D02*
D03*
Y309800D02*
D03*
X67638D02*
D03*
X-4055Y406800D02*
D03*
X2638D02*
D03*
X-4055Y394800D02*
D03*
X2638D02*
D03*
Y382800D02*
D03*
X-4055D02*
D03*
X2638Y370800D02*
D03*
X-4055D02*
D03*
D34*
X72791Y347528D02*
D03*
X67791D02*
D03*
X62791D02*
D03*
X57791D02*
D03*
X72791Y326072D02*
D03*
X67791D02*
D03*
X62791D02*
D03*
X57791D02*
D03*
D35*
X45268Y376280D02*
D03*
Y378249D02*
D03*
Y380217D02*
D03*
Y382186D02*
D03*
Y384154D02*
D03*
Y386123D02*
D03*
Y388091D02*
D03*
Y390060D02*
D03*
Y392028D02*
D03*
Y393997D02*
D03*
Y395965D02*
D03*
Y397934D02*
D03*
Y399902D02*
D03*
Y401871D02*
D03*
Y403839D02*
D03*
Y405808D02*
D03*
Y407776D02*
D03*
Y409745D02*
D03*
Y411713D02*
D03*
Y413682D02*
D03*
Y415650D02*
D03*
Y417619D02*
D03*
Y419587D02*
D03*
Y421556D02*
D03*
Y423524D02*
D03*
Y425493D02*
D03*
Y427461D02*
D03*
Y429430D02*
D03*
Y431398D02*
D03*
Y433367D02*
D03*
Y435335D02*
D03*
Y437304D02*
D03*
Y439272D02*
D03*
Y441241D02*
D03*
Y443210D02*
D03*
Y445178D02*
D03*
X128732D02*
D03*
Y443210D02*
D03*
Y441241D02*
D03*
Y439272D02*
D03*
Y437304D02*
D03*
Y435335D02*
D03*
Y433367D02*
D03*
Y431398D02*
D03*
Y429430D02*
D03*
Y427461D02*
D03*
Y425493D02*
D03*
Y423524D02*
D03*
Y421556D02*
D03*
Y419587D02*
D03*
Y417619D02*
D03*
Y415650D02*
D03*
Y413682D02*
D03*
Y411713D02*
D03*
Y409745D02*
D03*
Y407776D02*
D03*
Y405808D02*
D03*
Y403839D02*
D03*
Y401871D02*
D03*
Y399902D02*
D03*
Y397934D02*
D03*
Y395965D02*
D03*
Y393997D02*
D03*
Y392028D02*
D03*
Y390060D02*
D03*
Y388091D02*
D03*
Y386123D02*
D03*
Y384154D02*
D03*
Y382186D02*
D03*
Y380217D02*
D03*
Y378249D02*
D03*
Y376280D02*
D03*
D36*
X52551Y452461D02*
D03*
X54520D02*
D03*
X56488D02*
D03*
X58457D02*
D03*
X60425D02*
D03*
X62394D02*
D03*
X64362D02*
D03*
X66331D02*
D03*
X68299D02*
D03*
X70268D02*
D03*
X72236D02*
D03*
X74205D02*
D03*
X76173D02*
D03*
X78142D02*
D03*
X80110D02*
D03*
X82079D02*
D03*
X84047D02*
D03*
X86016D02*
D03*
X87984D02*
D03*
X89953D02*
D03*
X91921D02*
D03*
X93890D02*
D03*
X95858D02*
D03*
X97827D02*
D03*
X99795D02*
D03*
X101764D02*
D03*
X103732D02*
D03*
X105701D02*
D03*
X107669D02*
D03*
X109638D02*
D03*
X111606D02*
D03*
X113575D02*
D03*
X115543D02*
D03*
X117512D02*
D03*
X119480D02*
D03*
X121449D02*
D03*
Y368997D02*
D03*
X119480D02*
D03*
X117512D02*
D03*
X115543D02*
D03*
X113575D02*
D03*
X111606D02*
D03*
X109638D02*
D03*
X107669D02*
D03*
X105701D02*
D03*
X103732D02*
D03*
X101764D02*
D03*
X99795D02*
D03*
X97827D02*
D03*
X95858D02*
D03*
X93890D02*
D03*
X91921D02*
D03*
X89953D02*
D03*
X87984D02*
D03*
X86016D02*
D03*
X84047D02*
D03*
X82079D02*
D03*
X80110D02*
D03*
X78142D02*
D03*
X76173D02*
D03*
X74205D02*
D03*
X72236D02*
D03*
X70268D02*
D03*
X68299D02*
D03*
X66331D02*
D03*
X64362D02*
D03*
X62394D02*
D03*
X60425D02*
D03*
X58457D02*
D03*
X56488D02*
D03*
X54520D02*
D03*
X52551D02*
D03*
D37*
X35606Y463060D02*
D03*
Y466800D02*
D03*
Y470540D02*
D03*
X24976Y463060D02*
D03*
Y466800D02*
D03*
Y470540D02*
D03*
D38*
X79760Y556729D02*
D03*
Y561729D02*
D03*
Y566729D02*
D03*
Y571729D02*
D03*
Y576729D02*
D03*
Y581729D02*
D03*
Y586729D02*
D03*
Y591729D02*
D03*
X42358Y556729D02*
D03*
Y561729D02*
D03*
Y566729D02*
D03*
Y571729D02*
D03*
Y576729D02*
D03*
Y581729D02*
D03*
Y586729D02*
D03*
Y591729D02*
D03*
X79760Y608729D02*
D03*
Y613729D02*
D03*
Y618729D02*
D03*
Y623729D02*
D03*
Y628729D02*
D03*
Y633729D02*
D03*
Y638729D02*
D03*
Y643729D02*
D03*
X42358Y608729D02*
D03*
Y613729D02*
D03*
Y618729D02*
D03*
Y623729D02*
D03*
Y628729D02*
D03*
Y633729D02*
D03*
Y638729D02*
D03*
Y643729D02*
D03*
D39*
X41032Y668115D02*
D03*
X37291D02*
D03*
X33551D02*
D03*
X41032Y657485D02*
D03*
X37291D02*
D03*
X33551D02*
D03*
X41032Y691115D02*
D03*
X37291D02*
D03*
X33551D02*
D03*
X41032Y680485D02*
D03*
X37291D02*
D03*
X33551D02*
D03*
X41032Y713115D02*
D03*
X37291D02*
D03*
X33551D02*
D03*
X41032Y702485D02*
D03*
X37291D02*
D03*
X33551D02*
D03*
D40*
X26244Y306000D02*
D03*
X1756D02*
D03*
X26244Y276000D02*
D03*
X1756D02*
D03*
D41*
X13124Y448800D02*
D03*
Y453800D02*
D03*
Y458800D02*
D03*
Y463800D02*
D03*
Y468800D02*
D03*
X-2231Y448800D02*
D03*
Y453800D02*
D03*
Y458800D02*
D03*
Y463800D02*
D03*
Y468800D02*
D03*
D42*
X113480Y472800D02*
D03*
X115449D02*
D03*
X117417D02*
D03*
X119386D02*
D03*
X121354D02*
D03*
X123323D02*
D03*
X125291D02*
D03*
X127260D02*
D03*
X113480Y490320D02*
D03*
X115449D02*
D03*
X117417D02*
D03*
X119386D02*
D03*
X121354D02*
D03*
X123323D02*
D03*
X125291D02*
D03*
X127260D02*
D03*
X46182Y473341D02*
D03*
X48150D02*
D03*
X50119D02*
D03*
X52087D02*
D03*
X54056D02*
D03*
X56024D02*
D03*
X57993D02*
D03*
X59961D02*
D03*
X46182Y490861D02*
D03*
X48150D02*
D03*
X50119D02*
D03*
X52087D02*
D03*
X54056D02*
D03*
X56024D02*
D03*
X57993D02*
D03*
X59961D02*
D03*
D43*
X72291Y309800D02*
D03*
Y283800D02*
D03*
M02*
