G04*
G04 #@! TF.GenerationSoftware,Altium Limited,Altium Designer,20.0.14 (345)*
G04*
G04 Layer_Color=65535*
%FSLAX25Y25*%
%MOIN*%
G70*
G01*
G75*
%ADD10C,0.01000*%
%ADD11C,0.02362*%
%ADD12C,0.00984*%
%ADD13C,0.00800*%
%ADD14C,0.01800*%
%ADD15C,0.00787*%
%ADD16C,0.01200*%
%ADD17R,0.03000X0.03000*%
%ADD18R,0.01968X0.09449*%
G36*
X777000Y163000D02*
X768062D01*
Y207352D01*
X777000D01*
Y163000D01*
D02*
G37*
D10*
X661180Y523800D02*
G03*
X661180Y523800I-11180J0D01*
G01*
X647500Y730300D02*
G03*
X647500Y730300I-4000J0D01*
G01*
Y740300D02*
G03*
X647500Y740300I-4000J0D01*
G01*
X783180Y772800D02*
G03*
X783180Y772800I-11180J0D01*
G01*
X784000Y432300D02*
G03*
X784000Y432300I-4000J0D01*
G01*
Y442300D02*
G03*
X784000Y442300I-4000J0D01*
G01*
Y452300D02*
G03*
X784000Y452300I-4000J0D01*
G01*
Y462300D02*
G03*
X784000Y462300I-4000J0D01*
G01*
Y472300D02*
G03*
X784000Y472300I-4000J0D01*
G01*
Y482300D02*
G03*
X784000Y482300I-4000J0D01*
G01*
X604000D02*
G03*
X604000Y482300I-4000J0D01*
G01*
Y472300D02*
G03*
X604000Y472300I-4000J0D01*
G01*
Y462300D02*
G03*
X604000Y462300I-4000J0D01*
G01*
Y452300D02*
G03*
X604000Y452300I-4000J0D01*
G01*
Y442300D02*
G03*
X604000Y442300I-4000J0D01*
G01*
Y432300D02*
G03*
X604000Y432300I-4000J0D01*
G01*
X603180Y772800D02*
G03*
X603180Y772800I-11180J0D01*
G01*
X467500Y740300D02*
G03*
X467500Y740300I-4000J0D01*
G01*
Y730300D02*
G03*
X467500Y730300I-4000J0D01*
G01*
X481180Y523800D02*
G03*
X481180Y523800I-11180J0D01*
G01*
X301180D02*
G03*
X301180Y523800I-11180J0D01*
G01*
X287500Y730300D02*
G03*
X287500Y730300I-4000J0D01*
G01*
Y740300D02*
G03*
X287500Y740300I-4000J0D01*
G01*
X423180Y772800D02*
G03*
X423180Y772800I-11180J0D01*
G01*
X424000Y432300D02*
G03*
X424000Y432300I-4000J0D01*
G01*
Y442300D02*
G03*
X424000Y442300I-4000J0D01*
G01*
Y452300D02*
G03*
X424000Y452300I-4000J0D01*
G01*
Y462300D02*
G03*
X424000Y462300I-4000J0D01*
G01*
Y472300D02*
G03*
X424000Y472300I-4000J0D01*
G01*
Y482300D02*
G03*
X424000Y482300I-4000J0D01*
G01*
X244000D02*
G03*
X244000Y482300I-4000J0D01*
G01*
Y472300D02*
G03*
X244000Y472300I-4000J0D01*
G01*
Y462300D02*
G03*
X244000Y462300I-4000J0D01*
G01*
Y452300D02*
G03*
X244000Y452300I-4000J0D01*
G01*
Y442300D02*
G03*
X244000Y442300I-4000J0D01*
G01*
Y432300D02*
G03*
X244000Y432300I-4000J0D01*
G01*
X243180Y772800D02*
G03*
X243180Y772800I-11180J0D01*
G01*
X107500Y740300D02*
G03*
X107500Y740300I-4000J0D01*
G01*
Y730300D02*
G03*
X107500Y730300I-4000J0D01*
G01*
X121180Y523800D02*
G03*
X121180Y523800I-11180J0D01*
G01*
X243681Y248916D02*
G03*
X243681Y248916I-11180J0D01*
G01*
X243000Y42415D02*
G03*
X243000Y42415I-4000J0D01*
G01*
Y32416D02*
G03*
X243000Y32416I-4000J0D01*
G01*
X121681Y-84D02*
G03*
X121681Y-84I-11180J0D01*
G01*
X106500Y340415D02*
G03*
X106500Y340415I-4000J0D01*
G01*
Y330415D02*
G03*
X106500Y330415I-4000J0D01*
G01*
Y320415D02*
G03*
X106500Y320415I-4000J0D01*
G01*
Y310415D02*
G03*
X106500Y310415I-4000J0D01*
G01*
Y300415D02*
G03*
X106500Y300415I-4000J0D01*
G01*
Y290415D02*
G03*
X106500Y290415I-4000J0D01*
G01*
X286500Y290415D02*
G03*
X286500Y290415I-4000J0D01*
G01*
Y300415D02*
G03*
X286500Y300415I-4000J0D01*
G01*
Y310415D02*
G03*
X286500Y310415I-4000J0D01*
G01*
Y320415D02*
G03*
X286500Y320415I-4000J0D01*
G01*
Y330415D02*
G03*
X286500Y330415I-4000J0D01*
G01*
Y340415D02*
G03*
X286500Y340415I-4000J0D01*
G01*
X301681Y-84D02*
G03*
X301681Y-84I-11180J0D01*
G01*
X423000Y32416D02*
G03*
X423000Y32416I-4000J0D01*
G01*
Y42415D02*
G03*
X423000Y42415I-4000J0D01*
G01*
X423681Y248916D02*
G03*
X423681Y248916I-11180J0D01*
G01*
X603681D02*
G03*
X603681Y248916I-11180J0D01*
G01*
X603000Y42415D02*
G03*
X603000Y42415I-4000J0D01*
G01*
Y32416D02*
G03*
X603000Y32416I-4000J0D01*
G01*
X481681Y-84D02*
G03*
X481681Y-84I-11180J0D01*
G01*
X466500Y340415D02*
G03*
X466500Y340415I-4000J0D01*
G01*
Y330415D02*
G03*
X466500Y330415I-4000J0D01*
G01*
Y320415D02*
G03*
X466500Y320415I-4000J0D01*
G01*
Y310415D02*
G03*
X466500Y310415I-4000J0D01*
G01*
Y300415D02*
G03*
X466500Y300415I-4000J0D01*
G01*
Y290415D02*
G03*
X466500Y290415I-4000J0D01*
G01*
X646500D02*
G03*
X646500Y290415I-4000J0D01*
G01*
Y300415D02*
G03*
X646500Y300415I-4000J0D01*
G01*
Y310415D02*
G03*
X646500Y310415I-4000J0D01*
G01*
Y320415D02*
G03*
X646500Y320415I-4000J0D01*
G01*
Y330415D02*
G03*
X646500Y330415I-4000J0D01*
G01*
Y340415D02*
G03*
X646500Y340415I-4000J0D01*
G01*
X661681Y-84D02*
G03*
X661681Y-84I-11180J0D01*
G01*
X783000Y32416D02*
G03*
X783000Y32416I-4000J0D01*
G01*
Y42415D02*
G03*
X783000Y42415I-4000J0D01*
G01*
X783681Y248916D02*
G03*
X783681Y248916I-11180J0D01*
G01*
X775000Y427300D02*
X785000D01*
Y497300D01*
X785000Y427300D02*
Y785800D01*
X637500Y427300D02*
X785000D01*
X637500D02*
Y785800D01*
X785000D01*
X457500D02*
X605000D01*
X457500Y427300D02*
Y785800D01*
Y427300D02*
X605000D01*
Y785800D01*
X605000Y427300D02*
Y497300D01*
X595000Y427300D02*
X605000D01*
X415000D02*
X425000D01*
Y497300D01*
X425000Y427300D02*
Y785800D01*
X277500Y427300D02*
X425000D01*
X277500D02*
Y785800D01*
X425000D01*
X97500D02*
X245000D01*
X97500Y427300D02*
Y785800D01*
Y427300D02*
X245000D01*
Y785800D01*
X245000Y427300D02*
Y497300D01*
X235000Y427300D02*
X245000D01*
X97500Y345415D02*
X107500D01*
X97500Y275415D02*
Y345415D01*
X97500Y-13084D02*
Y345415D01*
X245000D01*
Y-13084D02*
Y345415D01*
X97500Y-13084D02*
X245000D01*
X277500Y-13084D02*
X425000D01*
Y345415D01*
X277500D02*
X425000D01*
X277500Y-13084D02*
Y345415D01*
X277500Y275415D02*
Y345415D01*
X287500D01*
X457500D02*
X467500D01*
X457500Y275415D02*
Y345415D01*
X457500Y-13084D02*
Y345415D01*
X605000D01*
Y-13084D02*
Y345415D01*
X457500Y-13084D02*
X605000D01*
X637500D02*
X785000D01*
Y345415D01*
X637500D02*
X785000D01*
X637500Y-13084D02*
Y345415D01*
X637500Y275415D02*
Y345415D01*
X647500D01*
X5500Y156823D02*
X92500D01*
Y119894D02*
Y156823D01*
X5500Y119894D02*
Y156823D01*
Y119894D02*
X92500D01*
X5500Y70084D02*
X92500D01*
X5500D02*
Y107013D01*
X92500Y70084D02*
Y107013D01*
X5500D02*
X92500D01*
X5500Y207992D02*
X92500D01*
Y171063D02*
Y207992D01*
X5500Y171063D02*
Y207992D01*
Y171063D02*
X92500D01*
X5500Y20863D02*
X92500D01*
X5500D02*
Y57792D01*
X92500Y20863D02*
Y57792D01*
X5500D02*
X92500D01*
X5500Y257792D02*
X92500D01*
Y220863D02*
Y257792D01*
X5500Y220863D02*
Y257792D01*
Y220863D02*
X92500D01*
X17748Y492898D02*
Y614946D01*
X-42488D02*
X17748D01*
X-42488Y492898D02*
Y614946D01*
Y492898D02*
X17748D01*
X-42488Y628706D02*
X17748D01*
X-42488D02*
Y750753D01*
X17748D01*
Y628706D02*
Y750753D01*
X-13457Y323957D02*
Y331832D01*
Y323957D02*
X18039D01*
Y331832D01*
X-13457Y355453D02*
Y363328D01*
X18039D01*
Y353485D02*
Y363328D01*
Y331832D02*
Y355453D01*
Y343642D02*
Y355453D01*
X-13457Y331832D02*
Y355453D01*
Y343642D02*
Y355453D01*
X173000Y350000D02*
X175000Y352000D01*
Y363000D01*
X173000Y365000D02*
X175000Y363000D01*
X169000Y365000D02*
X173000D01*
X50500Y550229D02*
X72500D01*
X50500Y500428D02*
X72500D01*
Y550229D01*
X50500Y500428D02*
Y550229D01*
X74000Y20000D02*
X84000D01*
X73000Y19000D02*
X74000Y20000D01*
X71000Y19000D02*
X73000D01*
X37000D02*
X38000Y20000D01*
X47000D01*
X48000Y19000D01*
X53000D01*
X78791Y-1700D02*
X80291D01*
X81791D01*
X66917Y9663D02*
X68417D01*
X69917D01*
X54791Y-1700D02*
X56291D01*
X57791D01*
X42918Y9784D02*
X44418D01*
X45918D01*
X140000Y365000D02*
X169000D01*
X128000D02*
X140000D01*
X124000Y361000D02*
X128000Y365000D01*
X103000Y361000D02*
X124000D01*
X57791Y283800D02*
Y285300D01*
Y282300D02*
Y283800D01*
Y308300D02*
Y309800D01*
Y311300D01*
X168000Y459000D02*
X170000Y461000D01*
X164000Y459000D02*
X168000D01*
X149000D02*
X164000D01*
X147000Y461000D02*
X149000Y459000D01*
X102000Y461000D02*
X147000D01*
X29000Y450000D02*
X31000Y452000D01*
X29000Y432000D02*
Y450000D01*
X27000Y430000D02*
X29000Y432000D01*
X16000Y430000D02*
X27000D01*
X14000Y428000D02*
X16000Y430000D01*
X14000Y411000D02*
Y428000D01*
X5791Y405300D02*
Y406800D01*
Y408300D01*
Y393300D02*
Y394800D01*
Y396300D01*
Y382800D02*
Y384300D01*
Y381300D02*
Y382800D01*
Y370800D02*
Y372300D01*
Y369300D02*
Y370800D01*
X81000Y713000D02*
X91000D01*
X78000Y710000D02*
X81000Y713000D01*
X78000Y687000D02*
Y710000D01*
X88000Y564000D02*
X91000D01*
X94000Y567000D01*
Y621000D01*
X78000Y669000D02*
Y687000D01*
Y669000D02*
X94000Y653000D01*
Y621000D02*
Y653000D01*
X-4593Y483702D02*
X15486D01*
X-4593Y433702D02*
X15486D01*
Y445513D01*
X-4593Y433702D02*
Y445513D01*
Y471890D02*
Y483702D01*
X15486Y471890D02*
Y483702D01*
X165661Y958D02*
X164995Y1624D01*
X163662D01*
X162996Y958D01*
Y-1708D01*
X163662Y-2374D01*
X164995D01*
X165661Y-1708D01*
X167661Y291D02*
X168994D01*
X169660Y-375D01*
Y-2374D01*
X167661D01*
X166994Y-1708D01*
X167661Y-1041D01*
X169660D01*
X170993Y291D02*
Y-2374D01*
Y-1041D01*
X171659Y-375D01*
X172326Y291D01*
X172992D01*
X177657Y1624D02*
Y-2374D01*
X175658D01*
X174992Y-1708D01*
Y-375D01*
X175658Y291D01*
X177657D01*
X182989Y-2374D02*
X184322D01*
X183656D01*
Y1624D01*
X182989Y958D01*
X153836Y761332D02*
X153170Y761999D01*
X151837D01*
X151170Y761332D01*
Y758666D01*
X151837Y758000D01*
X153170D01*
X153836Y758666D01*
X155835Y760666D02*
X157168D01*
X157835Y759999D01*
Y758000D01*
X155835D01*
X155169Y758666D01*
X155835Y759333D01*
X157835D01*
X159168Y760666D02*
Y758000D01*
Y759333D01*
X159834Y759999D01*
X160501Y760666D01*
X161167D01*
X165832Y761999D02*
Y758000D01*
X163833D01*
X163166Y758666D01*
Y759999D01*
X163833Y760666D01*
X165832D01*
X173830Y758000D02*
X171164D01*
X173830Y760666D01*
Y761332D01*
X173163Y761999D01*
X171830D01*
X171164Y761332D01*
X342836D02*
X342170Y761999D01*
X340837D01*
X340170Y761332D01*
Y758666D01*
X340837Y758000D01*
X342170D01*
X342836Y758666D01*
X344835Y760666D02*
X346168D01*
X346835Y759999D01*
Y758000D01*
X344835D01*
X344169Y758666D01*
X344835Y759333D01*
X346835D01*
X348168Y760666D02*
Y758000D01*
Y759333D01*
X348834Y759999D01*
X349501Y760666D01*
X350167D01*
X354832Y761999D02*
Y758000D01*
X352833D01*
X352167Y758666D01*
Y759999D01*
X352833Y760666D01*
X354832D01*
X362163Y758000D02*
Y761999D01*
X360164Y759999D01*
X362830D01*
X776000Y94300D02*
X772001D01*
Y96299D01*
X772668Y96966D01*
X774001D01*
X774667Y96299D01*
Y94300D01*
Y95633D02*
X776000Y96966D01*
X772001Y100964D02*
Y98299D01*
X776000D01*
Y100964D01*
X774001Y98299D02*
Y99632D01*
X772001Y102297D02*
X774667D01*
X776000Y103630D01*
X774667Y104963D01*
X772001D01*
X776000Y108962D02*
Y106296D01*
X773334Y108962D01*
X772668D01*
X772001Y108296D01*
Y106963D01*
X772668Y106296D01*
Y110295D02*
X772001Y110961D01*
Y112294D01*
X772668Y112961D01*
X775333D01*
X776000Y112294D01*
Y110961D01*
X775333Y110295D01*
X772668D01*
X776000Y116959D02*
Y114294D01*
X773334Y116959D01*
X772668D01*
X772001Y116293D01*
Y114960D01*
X772668Y114294D01*
Y118292D02*
X772001Y118959D01*
Y120292D01*
X772668Y120958D01*
X775333D01*
X776000Y120292D01*
Y118959D01*
X775333Y118292D01*
X772668D01*
Y122291D02*
X772001Y122957D01*
Y124290D01*
X772668Y124957D01*
X775333D01*
X776000Y124290D01*
Y122957D01*
X775333Y122291D01*
X772668D01*
X776000Y128289D02*
X772001D01*
X774001Y126290D01*
Y128955D01*
X772668Y130288D02*
X772001Y130955D01*
Y132288D01*
X772668Y132954D01*
X775333D01*
X776000Y132288D01*
Y130955D01*
X775333Y130288D01*
X772668D01*
X772001Y134287D02*
Y136953D01*
X772668D01*
X775333Y134287D01*
X776000D01*
X772668Y140952D02*
X772001Y140285D01*
Y138952D01*
X772668Y138286D01*
X775333D01*
X776000Y138952D01*
Y140285D01*
X775333Y140952D01*
X348004Y1494D02*
X347337Y2160D01*
X346004D01*
X345338Y1494D01*
Y-1172D01*
X346004Y-1838D01*
X347337D01*
X348004Y-1172D01*
X350003Y828D02*
X351336D01*
X352002Y161D01*
Y-1838D01*
X350003D01*
X349337Y-1172D01*
X350003Y-505D01*
X352002D01*
X353335Y828D02*
Y-1838D01*
Y-505D01*
X354002Y161D01*
X354668Y828D01*
X355335D01*
X360000Y2160D02*
Y-1838D01*
X358000D01*
X357334Y-1172D01*
Y161D01*
X358000Y828D01*
X360000D01*
X365332Y1494D02*
X365998Y2160D01*
X367331D01*
X367997Y1494D01*
Y828D01*
X367331Y161D01*
X366664D01*
X367331D01*
X367997Y-505D01*
Y-1172D01*
X367331Y-1838D01*
X365998D01*
X365332Y-1172D01*
X520000Y407332D02*
Y403333D01*
X521999D01*
X522666Y403999D01*
Y406665D01*
X521999Y407332D01*
X520000D01*
X524665Y405999D02*
X525998D01*
X526664Y405332D01*
Y403333D01*
X524665D01*
X523999Y403999D01*
X524665Y404666D01*
X526664D01*
X527997Y403333D02*
X529330D01*
X528664D01*
Y405999D01*
X527997D01*
X531330Y403333D02*
X533329D01*
X533995Y403999D01*
X533329Y404666D01*
X531996D01*
X531330Y405332D01*
X531996Y405999D01*
X533995D01*
X535328D02*
Y403999D01*
X535995Y403333D01*
X537994D01*
Y402666D01*
X537328Y402000D01*
X536661D01*
X537994Y403333D02*
Y405999D01*
X545992Y406665D02*
X545325Y407332D01*
X543992D01*
X543326Y406665D01*
Y403999D01*
X543992Y403333D01*
X545325D01*
X545992Y403999D01*
X547325Y407332D02*
Y403333D01*
Y405332D01*
X547991Y405999D01*
X549324D01*
X549990Y405332D01*
Y403333D01*
X551990Y405999D02*
X553323D01*
X553989Y405332D01*
Y403333D01*
X551990D01*
X551323Y403999D01*
X551990Y404666D01*
X553989D01*
X555322Y403333D02*
X556655D01*
X555988D01*
Y405999D01*
X555322D01*
X558654Y403333D02*
Y405999D01*
X560653D01*
X561320Y405332D01*
Y403333D01*
X350000Y393863D02*
Y389864D01*
X351999D01*
X352666Y390531D01*
Y393197D01*
X351999Y393863D01*
X350000D01*
X353999Y392530D02*
X354665D01*
Y391864D01*
X353999D01*
Y392530D01*
Y390531D02*
X354665D01*
Y389864D01*
X353999D01*
Y390531D01*
X361330Y393863D02*
Y389864D01*
X363329D01*
X363996Y390531D01*
Y393197D01*
X363329Y393863D01*
X361330D01*
X365995Y392530D02*
X367328D01*
X367994Y391864D01*
Y389864D01*
X365995D01*
X365328Y390531D01*
X365995Y391197D01*
X367994D01*
X369327Y389864D02*
X370660D01*
X369994D01*
Y392530D01*
X369327D01*
X372659Y389864D02*
X374659D01*
X375325Y390531D01*
X374659Y391197D01*
X373326D01*
X372659Y391864D01*
X373326Y392530D01*
X375325D01*
X376658D02*
Y390531D01*
X377325Y389864D01*
X379324D01*
Y389198D01*
X378657Y388531D01*
X377991D01*
X379324Y389864D02*
Y392530D01*
X387321Y393197D02*
X386655Y393863D01*
X385322D01*
X384655Y393197D01*
Y390531D01*
X385322Y389864D01*
X386655D01*
X387321Y390531D01*
X388654Y393863D02*
Y389864D01*
Y391864D01*
X389321Y392530D01*
X390653D01*
X391320Y391864D01*
Y389864D01*
X393319Y392530D02*
X394652D01*
X395319Y391864D01*
Y389864D01*
X393319D01*
X392653Y390531D01*
X393319Y391197D01*
X395319D01*
X396652Y389864D02*
X397985D01*
X397318D01*
Y392530D01*
X396652D01*
X399984Y389864D02*
Y392530D01*
X401983D01*
X402650Y391864D01*
Y389864D01*
X352666Y384665D02*
X351999Y385332D01*
X350666D01*
X350000Y384665D01*
Y383999D01*
X350666Y383332D01*
X351999D01*
X352666Y382666D01*
Y381999D01*
X351999Y381333D01*
X350666D01*
X350000Y381999D01*
X353999Y383999D02*
X354665D01*
Y383332D01*
X353999D01*
Y383999D01*
Y381999D02*
X354665D01*
Y381333D01*
X353999D01*
Y381999D01*
X363996Y384665D02*
X363329Y385332D01*
X361996D01*
X361330Y384665D01*
Y383999D01*
X361996Y383332D01*
X363329D01*
X363996Y382666D01*
Y381999D01*
X363329Y381333D01*
X361996D01*
X361330Y381999D01*
X365328Y381333D02*
X366661D01*
X365995D01*
Y383999D01*
X365328D01*
X368661Y381333D02*
Y383999D01*
X370660D01*
X371326Y383332D01*
Y381333D01*
X373992Y380000D02*
X374659D01*
X375325Y380666D01*
Y383999D01*
X373326D01*
X372659Y383332D01*
Y381999D01*
X373326Y381333D01*
X375325D01*
X376658D02*
X377991D01*
X377325D01*
Y385332D01*
X376658D01*
X381990Y381333D02*
X380657D01*
X379990Y381999D01*
Y383332D01*
X380657Y383999D01*
X381990D01*
X382656Y383332D01*
Y382666D01*
X379990D01*
X772668Y153666D02*
X772001Y152999D01*
Y151666D01*
X772668Y151000D01*
X773334D01*
X774001Y151666D01*
Y152999D01*
X774667Y153666D01*
X775334D01*
X776000Y152999D01*
Y151666D01*
X775334Y151000D01*
X776000Y154999D02*
X772001D01*
X776000Y157665D01*
X772001D01*
X773334Y158997D02*
Y159664D01*
X774001D01*
Y158997D01*
X773334D01*
X775334D02*
Y159664D01*
X776000D01*
Y158997D01*
X775334D01*
X292853Y414500D02*
Y410501D01*
X294852D01*
X295519Y411167D01*
Y413833D01*
X294852Y414500D01*
X292853D01*
X297518Y413167D02*
X298851D01*
X299517Y412500D01*
Y410501D01*
X297518D01*
X296852Y411167D01*
X297518Y411834D01*
X299517D01*
X300850Y410501D02*
X302183D01*
X301517D01*
Y413167D01*
X300850D01*
X304183Y410501D02*
X306182D01*
X306848Y411167D01*
X306182Y411834D01*
X304849D01*
X304183Y412500D01*
X304849Y413167D01*
X306848D01*
X308181D02*
Y411167D01*
X308848Y410501D01*
X310847D01*
Y409835D01*
X310181Y409168D01*
X309514D01*
X310847Y410501D02*
Y413167D01*
X318845Y413833D02*
X318178Y414500D01*
X316845D01*
X316179Y413833D01*
Y411167D01*
X316845Y410501D01*
X318178D01*
X318845Y411167D01*
X320177Y414500D02*
Y410501D01*
Y412500D01*
X320844Y413167D01*
X322177D01*
X322843Y412500D01*
Y410501D01*
X324843Y413167D02*
X326175D01*
X326842Y412500D01*
Y410501D01*
X324843D01*
X324176Y411167D01*
X324843Y411834D01*
X326842D01*
X328175Y410501D02*
X329508D01*
X328841D01*
Y413167D01*
X328175D01*
X331507Y410501D02*
Y413167D01*
X333506D01*
X334173Y412500D01*
Y410501D01*
X707268Y1499D02*
X706602Y2166D01*
X705269D01*
X704603Y1499D01*
Y-1166D01*
X705269Y-1833D01*
X706602D01*
X707268Y-1166D01*
X709268Y833D02*
X710601D01*
X711267Y166D01*
Y-1833D01*
X709268D01*
X708601Y-1166D01*
X709268Y-500D01*
X711267D01*
X712600Y833D02*
Y-1833D01*
Y-500D01*
X713267Y166D01*
X713933Y833D01*
X714600D01*
X719265Y2166D02*
Y-1833D01*
X717265D01*
X716599Y-1166D01*
Y166D01*
X717265Y833D01*
X719265D01*
X724596Y2166D02*
X727262D01*
Y1499D01*
X724596Y-1166D01*
Y-1833D01*
X702836Y761332D02*
X702170Y761999D01*
X700837D01*
X700170Y761332D01*
Y758666D01*
X700837Y758000D01*
X702170D01*
X702836Y758666D01*
X704836Y760666D02*
X706168D01*
X706835Y759999D01*
Y758000D01*
X704836D01*
X704169Y758666D01*
X704836Y759333D01*
X706835D01*
X708168Y760666D02*
Y758000D01*
Y759333D01*
X708834Y759999D01*
X709501Y760666D01*
X710167D01*
X714832Y761999D02*
Y758000D01*
X712833D01*
X712167Y758666D01*
Y759999D01*
X712833Y760666D01*
X714832D01*
X720164Y761332D02*
X720830Y761999D01*
X722163D01*
X722830Y761332D01*
Y760666D01*
X722163Y759999D01*
X722830Y759333D01*
Y758666D01*
X722163Y758000D01*
X720830D01*
X720164Y758666D01*
Y759333D01*
X720830Y759999D01*
X720164Y760666D01*
Y761332D01*
X720830Y759999D02*
X722163D01*
X520004Y761332D02*
X519337Y761999D01*
X518004D01*
X517338Y761332D01*
Y758666D01*
X518004Y758000D01*
X519337D01*
X520004Y758666D01*
X522003Y760666D02*
X523336D01*
X524002Y759999D01*
Y758000D01*
X522003D01*
X521337Y758666D01*
X522003Y759333D01*
X524002D01*
X525335Y760666D02*
Y758000D01*
Y759333D01*
X526002Y759999D01*
X526668Y760666D01*
X527335D01*
X532000Y761999D02*
Y758000D01*
X530000D01*
X529334Y758666D01*
Y759999D01*
X530000Y760666D01*
X532000D01*
X539997Y761999D02*
X538664Y761332D01*
X537331Y759999D01*
Y758666D01*
X537998Y758000D01*
X539331D01*
X539997Y758666D01*
Y759333D01*
X539331Y759999D01*
X537331D01*
X520000Y369332D02*
Y365333D01*
X521999D01*
X522666Y365999D01*
Y368665D01*
X521999Y369332D01*
X520000D01*
X524665Y367999D02*
X525998D01*
X526664Y367332D01*
Y365333D01*
X524665D01*
X523999Y365999D01*
X524665Y366666D01*
X526664D01*
X527997Y365333D02*
X529330D01*
X528664D01*
Y367999D01*
X527997D01*
X531330Y365333D02*
X533329D01*
X533995Y365999D01*
X533329Y366666D01*
X531996D01*
X531330Y367332D01*
X531996Y367999D01*
X533995D01*
X535328D02*
Y365999D01*
X535995Y365333D01*
X537994D01*
Y364666D01*
X537328Y364000D01*
X536661D01*
X537994Y365333D02*
Y367999D01*
X545992Y368665D02*
X545325Y369332D01*
X543992D01*
X543326Y368665D01*
Y365999D01*
X543992Y365333D01*
X545325D01*
X545992Y365999D01*
X547325Y369332D02*
Y365333D01*
Y367332D01*
X547991Y367999D01*
X549324D01*
X549990Y367332D01*
Y365333D01*
X551990Y367999D02*
X553323D01*
X553989Y367332D01*
Y365333D01*
X551990D01*
X551323Y365999D01*
X551990Y366666D01*
X553989D01*
X555322Y365333D02*
X556655D01*
X555988D01*
Y367999D01*
X555322D01*
X558654Y365333D02*
Y367999D01*
X560653D01*
X561320Y367332D01*
Y365333D01*
X528555Y1321D02*
X527888Y1987D01*
X526556D01*
X525889Y1321D01*
Y-1345D01*
X526556Y-2012D01*
X527888D01*
X528555Y-1345D01*
X530554Y654D02*
X531887D01*
X532554Y-12D01*
Y-2012D01*
X530554D01*
X529888Y-1345D01*
X530554Y-679D01*
X532554D01*
X533887Y654D02*
Y-2012D01*
Y-679D01*
X534553Y-12D01*
X535219Y654D01*
X535886D01*
X540551Y1987D02*
Y-2012D01*
X538552D01*
X537885Y-1345D01*
Y-12D01*
X538552Y654D01*
X540551D01*
X548549Y1987D02*
X545883D01*
Y-12D01*
X547216Y654D01*
X547882D01*
X548549Y-12D01*
Y-1345D01*
X547882Y-2012D01*
X546549D01*
X545883Y-1345D01*
X752469Y96966D02*
X751803Y96299D01*
Y94966D01*
X752469Y94300D01*
X753136D01*
X753802Y94966D01*
Y96299D01*
X754469Y96966D01*
X755135D01*
X755802Y96299D01*
Y94966D01*
X755135Y94300D01*
X755802Y100298D02*
Y98965D01*
X755135Y98299D01*
X753802D01*
X753136Y98965D01*
Y100298D01*
X753802Y100964D01*
X754469D01*
Y98299D01*
X755802Y102297D02*
X753136D01*
Y104297D01*
X753802Y104963D01*
X755802D01*
Y106296D02*
Y108296D01*
X755135Y108962D01*
X754469Y108296D01*
Y106963D01*
X753802Y106296D01*
X753136Y106963D01*
Y108962D01*
X755802Y110961D02*
Y112294D01*
X755135Y112961D01*
X753802D01*
X753136Y112294D01*
Y110961D01*
X753802Y110295D01*
X755135D01*
X755802Y110961D01*
X753136Y114294D02*
X755802D01*
X754469D01*
X753802Y114960D01*
X753136Y115626D01*
Y116293D01*
X763000Y94300D02*
X759001D01*
X760334Y95633D01*
X759001Y96966D01*
X763000D01*
Y98965D02*
Y100298D01*
X762334Y100964D01*
X761001D01*
X760334Y100298D01*
Y98965D01*
X761001Y98299D01*
X762334D01*
X763000Y98965D01*
X759668Y102964D02*
X760334D01*
Y102297D01*
Y103630D01*
Y102964D01*
X762334D01*
X763000Y103630D01*
X759001Y105630D02*
X763000D01*
X761001D01*
X760334Y106296D01*
Y107629D01*
X761001Y108296D01*
X763000D01*
Y111628D02*
Y110295D01*
X762334Y109628D01*
X761001D01*
X760334Y110295D01*
Y111628D01*
X761001Y112294D01*
X761667D01*
Y109628D01*
X760334Y113627D02*
X763000D01*
X761667D01*
X761001Y114294D01*
X760334Y114960D01*
Y115626D01*
X759001Y117626D02*
X763000D01*
Y119625D01*
X762334Y120292D01*
X761667D01*
X761001D01*
X760334Y119625D01*
Y117626D01*
X763000Y122291D02*
Y123624D01*
X762334Y124290D01*
X761001D01*
X760334Y123624D01*
Y122291D01*
X761001Y121625D01*
X762334D01*
X763000Y122291D01*
X760334Y126290D02*
Y127623D01*
X761001Y128289D01*
X763000D01*
Y126290D01*
X762334Y125623D01*
X761667Y126290D01*
Y128289D01*
X760334Y129622D02*
X763000D01*
X761667D01*
X761001Y130288D01*
X760334Y130955D01*
Y131621D01*
X759001Y136286D02*
X763000D01*
Y134287D01*
X762334Y133621D01*
X761001D01*
X760334Y134287D01*
Y136286D01*
X292000Y363332D02*
Y359333D01*
X293999D01*
X294666Y359999D01*
Y362665D01*
X293999Y363332D01*
X292000D01*
X296665Y361999D02*
X297998D01*
X298664Y361332D01*
Y359333D01*
X296665D01*
X295999Y359999D01*
X296665Y360666D01*
X298664D01*
X299997Y359333D02*
X301330D01*
X300664D01*
Y361999D01*
X299997D01*
X303330Y359333D02*
X305329D01*
X305995Y359999D01*
X305329Y360666D01*
X303996D01*
X303330Y361332D01*
X303996Y361999D01*
X305995D01*
X307328D02*
Y359999D01*
X307995Y359333D01*
X309994D01*
Y358666D01*
X309328Y358000D01*
X308661D01*
X309994Y359333D02*
Y361999D01*
X317992Y362665D02*
X317325Y363332D01*
X315992D01*
X315326Y362665D01*
Y359999D01*
X315992Y359333D01*
X317325D01*
X317992Y359999D01*
X319324Y363332D02*
Y359333D01*
Y361332D01*
X319991Y361999D01*
X321324D01*
X321990Y361332D01*
Y359333D01*
X323990Y361999D02*
X325323D01*
X325989Y361332D01*
Y359333D01*
X323990D01*
X323323Y359999D01*
X323990Y360666D01*
X325989D01*
X327322Y359333D02*
X328655D01*
X327988D01*
Y361999D01*
X327322D01*
X330654Y359333D02*
Y361999D01*
X332653D01*
X333320Y361332D01*
Y359333D01*
X18001Y435666D02*
Y434333D01*
Y434999D01*
X21334D01*
X22000Y434333D01*
Y433666D01*
X21334Y433000D01*
X18001Y436999D02*
Y439665D01*
Y438332D01*
X22000D01*
Y440997D02*
X19334D01*
X18001Y442330D01*
X19334Y443663D01*
X22000D01*
X20001D01*
Y440997D01*
X18668Y447662D02*
X18001Y446995D01*
Y445663D01*
X18668Y444996D01*
X21334D01*
X22000Y445663D01*
Y446995D01*
X21334Y447662D01*
X20001D01*
Y446329D01*
X22000Y448995D02*
X19334Y451661D01*
X18668Y455659D02*
X18001Y454993D01*
Y453660D01*
X18668Y452993D01*
X19334D01*
X20001Y453660D01*
Y454993D01*
X20667Y455659D01*
X21334D01*
X22000Y454993D01*
Y453660D01*
X21334Y452993D01*
X18001Y456992D02*
X22000D01*
X20667Y458325D01*
X22000Y459658D01*
X18001D01*
Y460991D02*
X22000D01*
Y462990D01*
X21334Y463657D01*
X18668D01*
X18001Y462990D01*
Y460991D01*
X22002Y700999D02*
X21002Y699999D01*
Y698000D01*
X22002Y697000D01*
X26000D01*
X27000Y698000D01*
Y699999D01*
X26000Y700999D01*
X24001D01*
Y698999D01*
X27000Y702998D02*
X21002D01*
Y705997D01*
X22002Y706997D01*
X24001D01*
X25001Y705997D01*
Y702998D01*
X21002Y708996D02*
Y710995D01*
Y709996D01*
X27000D01*
Y708996D01*
Y710995D01*
X21002Y716994D02*
Y714994D01*
X22002Y713995D01*
X26000D01*
X27000Y714994D01*
Y716994D01*
X26000Y717993D01*
X22002D01*
X21002Y716994D01*
Y725991D02*
X27000D01*
Y729989D01*
Y731989D02*
Y733988D01*
Y732988D01*
X23001D01*
Y731989D01*
X27000Y736987D02*
X23001D01*
Y739986D01*
X24001Y740986D01*
X27000D01*
Y742985D02*
X21002D01*
X25001D02*
X23001Y745984D01*
X25001Y742985D02*
X27000Y745984D01*
X637862Y354112D02*
Y350114D01*
X639861D01*
X640527Y350780D01*
Y353446D01*
X639861Y354112D01*
X637862D01*
Y422520D02*
Y418522D01*
X639861D01*
X640527Y419188D01*
Y421854D01*
X639861Y422520D01*
X637862D01*
X604022Y353301D02*
X603356Y353967D01*
X602023D01*
X601356Y353301D01*
Y352634D01*
X602023Y351968D01*
X603356D01*
X604022Y351302D01*
Y350635D01*
X603356Y349969D01*
X602023D01*
X601356Y350635D01*
X604063Y422586D02*
X603397Y423253D01*
X602064D01*
X601398Y422586D01*
Y421920D01*
X602064Y421254D01*
X603397D01*
X604063Y420587D01*
Y419921D01*
X603397Y419254D01*
X602064D01*
X601398Y419921D01*
X424217Y354094D02*
X423550Y354761D01*
X422217D01*
X421551Y354094D01*
Y353428D01*
X422217Y352761D01*
X423550D01*
X424217Y352095D01*
Y351429D01*
X423550Y350762D01*
X422217D01*
X421551Y351429D01*
X457784Y354487D02*
Y350489D01*
X459784D01*
X460450Y351155D01*
Y353821D01*
X459784Y354487D01*
X457784D01*
X422666Y421332D02*
X421999Y421999D01*
X420666D01*
X420000Y421332D01*
Y420666D01*
X420666Y419999D01*
X421999D01*
X422666Y419333D01*
Y418666D01*
X421999Y418000D01*
X420666D01*
X420000Y418666D01*
X459000Y421999D02*
Y418000D01*
X460999D01*
X461666Y418666D01*
Y421332D01*
X460999Y421999D01*
X459000D01*
X22001Y328000D02*
Y330666D01*
X24000Y334665D02*
Y331999D01*
X21334Y334665D01*
X20668D01*
X20001Y333998D01*
Y332665D01*
X20668Y331999D01*
X24000Y337997D02*
X20001D01*
X22001Y335997D01*
Y338663D01*
X20001Y339996D02*
X22667D01*
X24000Y341329D01*
X22667Y342662D01*
X20001D01*
Y343995D02*
Y345328D01*
Y344661D01*
X24000D01*
Y343995D01*
Y345328D01*
Y347327D02*
X20001D01*
X24000Y349993D01*
X20001D01*
X22001Y351326D02*
Y353992D01*
X20668Y352659D02*
X23334D01*
X32000Y499000D02*
X28001D01*
X26002Y500999D01*
X28001Y502999D01*
X32000D01*
X29001D01*
Y499000D01*
X32000Y504998D02*
X26002D01*
X28001Y506997D01*
X26002Y508997D01*
X32000D01*
X26002Y510996D02*
X32000D01*
Y513995D01*
X31000Y514995D01*
X27002D01*
X26002Y513995D01*
Y510996D01*
X27002Y520993D02*
X26002Y519993D01*
Y517994D01*
X27002Y516994D01*
X31000D01*
X32000Y517994D01*
Y519993D01*
X31000Y520993D01*
X26002Y528990D02*
X32000D01*
Y532989D01*
Y534988D02*
Y536988D01*
Y535988D01*
X28001D01*
Y534988D01*
X32000Y539987D02*
X28001D01*
Y542986D01*
X29001Y543986D01*
X32000D01*
Y545985D02*
X26002D01*
X30001D02*
X28001Y548984D01*
X30001Y545985D02*
X32000Y548984D01*
X-4332Y13001D02*
Y16999D01*
X-2999Y15666D01*
X-1666Y16999D01*
Y13001D01*
X-333Y16999D02*
Y13001D01*
Y15000D01*
X2333D01*
Y16999D01*
Y13001D01*
X6332D02*
X3666D01*
X6332Y15666D01*
Y16333D01*
X5665Y16999D01*
X4332D01*
X3666Y16333D01*
X613336Y14001D02*
Y17999D01*
X614668Y16667D01*
X616001Y17999D01*
Y14001D01*
X617334Y17999D02*
Y14001D01*
Y16000D01*
X620000D01*
Y17999D01*
Y14001D01*
X623999D02*
X621333D01*
X623999Y16667D01*
Y17333D01*
X623332Y17999D01*
X621999D01*
X621333Y17333D01*
X625332Y14001D02*
X626664D01*
X625998D01*
Y17999D01*
X625332Y17333D01*
X430633Y14100D02*
Y18099D01*
X431966Y16766D01*
X433299Y18099D01*
Y14100D01*
X434632Y18099D02*
Y14100D01*
Y16099D01*
X437298D01*
Y18099D01*
Y14100D01*
X438631D02*
X439963D01*
X439297D01*
Y18099D01*
X438631Y17432D01*
X443962Y14100D02*
Y18099D01*
X441963Y16099D01*
X444629D01*
X458002Y385001D02*
Y388999D01*
X459335Y387666D01*
X460668Y388999D01*
Y385001D01*
X462001Y388999D02*
Y385001D01*
Y387000D01*
X464667D01*
Y388999D01*
Y385001D01*
X466000D02*
X467333D01*
X466666D01*
Y388999D01*
X466000Y388333D01*
X469332D02*
X469998Y388999D01*
X471331D01*
X471998Y388333D01*
Y387666D01*
X471331Y387000D01*
X471998Y386334D01*
Y385667D01*
X471331Y385001D01*
X469998D01*
X469332Y385667D01*
Y386334D01*
X469998Y387000D01*
X469332Y387666D01*
Y388333D01*
X469998Y387000D02*
X471331D01*
X196668Y383001D02*
Y386999D01*
X198001Y385666D01*
X199334Y386999D01*
Y383001D01*
X200667Y386999D02*
Y383001D01*
Y385000D01*
X203333D01*
Y386999D01*
Y383001D01*
X204666Y386999D02*
X207332D01*
Y386333D01*
X204666Y383667D01*
Y383001D01*
X701669Y399001D02*
Y402999D01*
X703002Y401666D01*
X704335Y402999D01*
Y399001D01*
X705668Y402999D02*
Y399001D01*
Y401000D01*
X708334D01*
Y402999D01*
Y399001D01*
X712332D02*
X709666D01*
X712332Y401666D01*
Y402333D01*
X711666Y402999D01*
X710333D01*
X709666Y402333D01*
X716331Y402999D02*
X713665D01*
Y401000D01*
X714998Y401666D01*
X715664D01*
X716331Y401000D01*
Y399667D01*
X715664Y399001D01*
X714332D01*
X713665Y399667D01*
X259117Y13001D02*
Y16999D01*
X260450Y15666D01*
X261783Y16999D01*
Y13001D01*
X263115Y16999D02*
Y13001D01*
Y15000D01*
X265781D01*
Y16999D01*
Y13001D01*
X267114Y16333D02*
X267781Y16999D01*
X269113D01*
X269780Y16333D01*
Y15666D01*
X269113Y15000D01*
X269780Y14333D01*
Y13667D01*
X269113Y13001D01*
X267781D01*
X267114Y13667D01*
Y14333D01*
X267781Y15000D01*
X267114Y15666D01*
Y16333D01*
X267781Y15000D02*
X269113D01*
X47668Y687999D02*
Y684667D01*
X48334Y684001D01*
X49667D01*
X50334Y684667D01*
Y687999D01*
X51666Y687333D02*
X52333Y687999D01*
X53666D01*
X54332Y687333D01*
Y686666D01*
X53666Y686000D01*
X54332Y685334D01*
Y684667D01*
X53666Y684001D01*
X52333D01*
X51666Y684667D01*
Y685334D01*
X52333Y686000D01*
X51666Y686666D01*
Y687333D01*
X52333Y686000D02*
X53666D01*
X46668Y664999D02*
Y661667D01*
X47334Y661001D01*
X48667D01*
X49334Y661667D01*
Y664999D01*
X50666D02*
X53332D01*
Y664333D01*
X50666Y661667D01*
Y661001D01*
X46668Y710999D02*
Y707667D01*
X47334Y707001D01*
X48667D01*
X49334Y707667D01*
Y710999D01*
X50666Y707667D02*
X51333Y707001D01*
X52666D01*
X53332Y707667D01*
Y710333D01*
X52666Y710999D01*
X51333D01*
X50666Y710333D01*
Y709666D01*
X51333Y709000D01*
X53332D01*
X26668Y457999D02*
Y454667D01*
X27334Y454001D01*
X28667D01*
X29334Y454667D01*
Y457999D01*
X33332D02*
X31999Y457333D01*
X30667Y456000D01*
Y454667D01*
X31333Y454001D01*
X32666D01*
X33332Y454667D01*
Y455334D01*
X32666Y456000D01*
X30667D01*
X82668Y296999D02*
X85334D01*
X84001D01*
Y293001D01*
X89333Y296333D02*
X88666Y296999D01*
X87334D01*
X86667Y296333D01*
Y293667D01*
X87334Y293001D01*
X88666D01*
X89333Y293667D01*
Y295000D01*
X88000D01*
X93332Y293001D02*
X90666D01*
X93332Y295666D01*
Y296333D01*
X92665Y296999D01*
X91332D01*
X90666Y296333D01*
X253668Y479999D02*
X256334D01*
X255001D01*
Y476001D01*
X260333Y479333D02*
X259666Y479999D01*
X258334D01*
X257667Y479333D01*
Y476667D01*
X258334Y476001D01*
X259666D01*
X260333Y476667D01*
Y478000D01*
X259000D01*
X264332Y479999D02*
X261666D01*
Y478000D01*
X262999Y478666D01*
X263665D01*
X264332Y478000D01*
Y476667D01*
X263665Y476001D01*
X262332D01*
X261666Y476667D01*
X82668Y693999D02*
X85334D01*
X84001D01*
Y690001D01*
X89333Y693333D02*
X88666Y693999D01*
X87334D01*
X86667Y693333D01*
Y690667D01*
X87334Y690001D01*
X88666D01*
X89333Y690667D01*
Y692000D01*
X88000D01*
X92665Y690001D02*
Y693999D01*
X90666Y692000D01*
X93332D01*
X83668Y672999D02*
X86334D01*
X85001D01*
Y669001D01*
X90333Y672333D02*
X89666Y672999D01*
X88334D01*
X87667Y672333D01*
Y669667D01*
X88334Y669001D01*
X89666D01*
X90333Y669667D01*
Y671000D01*
X89000D01*
X91666Y672333D02*
X92332Y672999D01*
X93665D01*
X94332Y672333D01*
Y671666D01*
X93665Y671000D01*
X92999D01*
X93665D01*
X94332Y670334D01*
Y669667D01*
X93665Y669001D01*
X92332D01*
X91666Y669667D01*
X435668Y479999D02*
X438334D01*
X437001D01*
Y476001D01*
X442333Y479333D02*
X441666Y479999D01*
X440334D01*
X439667Y479333D01*
Y476667D01*
X440334Y476001D01*
X441666D01*
X442333Y476667D01*
Y478000D01*
X441000D01*
X443666Y479999D02*
X446332D01*
Y479333D01*
X443666Y476667D01*
Y476001D01*
X261668Y295999D02*
X264334D01*
X263001D01*
Y292001D01*
X268333Y295333D02*
X267666Y295999D01*
X266334D01*
X265667Y295333D01*
Y292667D01*
X266334Y292001D01*
X267666D01*
X268333Y292667D01*
Y294000D01*
X267000D01*
X272332Y295999D02*
X270999Y295333D01*
X269666Y294000D01*
Y292667D01*
X270332Y292001D01*
X271665D01*
X272332Y292667D01*
Y293334D01*
X271665Y294000D01*
X269666D01*
X24999Y595668D02*
X21001D01*
Y597667D01*
X21667Y598334D01*
X23000D01*
X23666Y597667D01*
Y595668D01*
Y597001D02*
X24999Y598334D01*
X21001Y602332D02*
Y599667D01*
X23000D01*
X22333Y600999D01*
Y601666D01*
X23000Y602332D01*
X24333D01*
X24999Y601666D01*
Y600333D01*
X24333Y599667D01*
X-10000Y275999D02*
Y272000D01*
X-7334D01*
X-6001D02*
X-4668D01*
X-5335D01*
Y275999D01*
X-6001Y275332D01*
X5335Y756333D02*
X4668Y756999D01*
X3336D01*
X2669Y756333D01*
Y753667D01*
X3336Y753001D01*
X4668D01*
X5335Y753667D01*
X8667Y756999D02*
X7334D01*
X6668Y756333D01*
Y753667D01*
X7334Y753001D01*
X8667D01*
X9334Y753667D01*
Y756333D01*
X8667Y756999D01*
X10667Y753001D02*
Y756999D01*
X13332Y753001D01*
Y756999D01*
X17331Y753001D02*
X14665D01*
X17331Y755666D01*
Y756333D01*
X16665Y756999D01*
X15332D01*
X14665Y756333D01*
X-2334Y489332D02*
X-3001Y489999D01*
X-4334D01*
X-5000Y489332D01*
Y486666D01*
X-4334Y486000D01*
X-3001D01*
X-2334Y486666D01*
X998Y489999D02*
X-335D01*
X-1001Y489332D01*
Y486666D01*
X-335Y486000D01*
X998D01*
X1664Y486666D01*
Y489332D01*
X998Y489999D01*
X2997Y486000D02*
Y489999D01*
X5663Y486000D01*
Y489999D01*
X8996Y486000D02*
Y489999D01*
X6996Y487999D01*
X9662D01*
X464000Y506000D02*
Y509999D01*
X465333Y508666D01*
X466666Y509999D01*
Y506000D01*
X467999Y509999D02*
Y506000D01*
Y507999D01*
X470665D01*
Y509999D01*
Y506000D01*
X471997D02*
X473330D01*
X472664D01*
Y509999D01*
X471997Y509332D01*
X477995Y509999D02*
X476663Y509332D01*
X475330Y507999D01*
Y506666D01*
X475996Y506000D01*
X477329D01*
X477995Y506666D01*
Y507333D01*
X477329Y507999D01*
X475330D01*
X26000Y9000D02*
Y12999D01*
X27999D01*
X28666Y12332D01*
Y10999D01*
X27999Y10333D01*
X26000D01*
X27333D02*
X28666Y9000D01*
X29999D02*
X31332D01*
X30665D01*
Y12999D01*
X29999Y12332D01*
X35997Y12999D02*
X33331D01*
Y10999D01*
X34664Y11666D01*
X35330D01*
X35997Y10999D01*
Y9667D01*
X35330Y9000D01*
X33997D01*
X33331Y9667D01*
X26000Y15000D02*
Y18999D01*
X27999D01*
X28666Y18332D01*
Y16999D01*
X27999Y16333D01*
X26000D01*
X27333D02*
X28666Y15000D01*
X29999D02*
X31332D01*
X30665D01*
Y18999D01*
X29999Y18332D01*
X35997Y18999D02*
X34664Y18332D01*
X33331Y16999D01*
Y15666D01*
X33997Y15000D01*
X35330D01*
X35997Y15666D01*
Y16333D01*
X35330Y16999D01*
X33331D01*
X-11999Y368000D02*
X-8000D01*
Y370666D01*
X-11999Y374664D02*
Y371999D01*
X-8000D01*
Y374664D01*
X-9999Y371999D02*
Y373332D01*
X-11999Y375997D02*
X-8000D01*
Y377997D01*
X-8666Y378663D01*
X-11332D01*
X-11999Y377997D01*
Y375997D01*
X-8000Y379996D02*
Y381329D01*
Y380663D01*
X-11999D01*
X-11332Y379996D01*
X73001Y-1000D02*
X77000D01*
Y1666D01*
X73001Y5664D02*
Y2999D01*
X77000D01*
Y5664D01*
X75001Y2999D02*
Y4332D01*
X73001Y6997D02*
X77000D01*
Y8997D01*
X76334Y9663D01*
X73668D01*
X73001Y8997D01*
Y6997D01*
X77000Y10996D02*
Y12329D01*
Y11663D01*
X73001D01*
X73668Y10996D01*
Y14328D02*
X73001Y14995D01*
Y16328D01*
X73668Y16994D01*
X76334D01*
X77000Y16328D01*
Y14995D01*
X76334Y14328D01*
X73668D01*
X61001Y-1000D02*
X65000D01*
Y1666D01*
X61001Y5664D02*
Y2999D01*
X65000D01*
Y5664D01*
X63001Y2999D02*
Y4332D01*
X61001Y6997D02*
X65000D01*
Y8997D01*
X64334Y9663D01*
X61668D01*
X61001Y8997D01*
Y6997D01*
X64334Y10996D02*
X65000Y11663D01*
Y12995D01*
X64334Y13662D01*
X61668D01*
X61001Y12995D01*
Y11663D01*
X61668Y10996D01*
X62334D01*
X63001Y11663D01*
Y13662D01*
X49001Y-1000D02*
X53000D01*
Y1666D01*
X49001Y5664D02*
Y2999D01*
X53000D01*
Y5664D01*
X51001Y2999D02*
Y4332D01*
X49001Y6997D02*
X53000D01*
Y8997D01*
X52334Y9663D01*
X49668D01*
X49001Y8997D01*
Y6997D01*
Y13662D02*
X49668Y12329D01*
X51001Y10996D01*
X52334D01*
X53000Y11663D01*
Y12995D01*
X52334Y13662D01*
X51667D01*
X51001Y12995D01*
Y10996D01*
X26000Y6999D02*
Y3000D01*
X28666D01*
X32664Y6999D02*
X29999D01*
Y3000D01*
X32664D01*
X29999Y4999D02*
X31332D01*
X33997Y6999D02*
Y3000D01*
X35997D01*
X36663Y3666D01*
Y6332D01*
X35997Y6999D01*
X33997D01*
X40662D02*
X37996D01*
Y4999D01*
X39329Y5666D01*
X39996D01*
X40662Y4999D01*
Y3666D01*
X39996Y3000D01*
X38663D01*
X37996Y3666D01*
X-6000Y403999D02*
Y400000D01*
X-3334D01*
X665Y403999D02*
X-2001D01*
Y400000D01*
X665D01*
X-2001Y401999D02*
X-668D01*
X1997Y403999D02*
Y400000D01*
X3997D01*
X4663Y400666D01*
Y403332D01*
X3997Y403999D01*
X1997D01*
X7995Y400000D02*
Y403999D01*
X5996Y401999D01*
X8662D01*
X-2000Y413999D02*
X666D01*
X-667D01*
Y410000D01*
X4665Y413332D02*
X3998Y413999D01*
X2665D01*
X1999Y413332D01*
Y410666D01*
X2665Y410000D01*
X3998D01*
X4665Y410666D01*
Y411999D01*
X3332D01*
X5997Y410000D02*
X7330D01*
X6664D01*
Y413999D01*
X5997Y413332D01*
X-2000Y425999D02*
X666D01*
X-667D01*
Y422000D01*
X1999D02*
Y425999D01*
X3998D01*
X4665Y425332D01*
Y423999D01*
X3998Y423333D01*
X1999D01*
X8663Y422000D02*
X5997D01*
X8663Y424666D01*
Y425332D01*
X7997Y425999D01*
X6664D01*
X5997Y425332D01*
X-2000Y419999D02*
X666D01*
X-667D01*
Y416000D01*
X1999D02*
Y419999D01*
X3998D01*
X4665Y419332D01*
Y417999D01*
X3998Y417333D01*
X1999D01*
X5997Y416000D02*
X7330D01*
X6664D01*
Y419999D01*
X5997Y419332D01*
X-3000Y431999D02*
X-334D01*
X-1667D01*
Y428000D01*
X999D02*
Y431999D01*
X2998D01*
X3664Y431332D01*
Y429999D01*
X2998Y429333D01*
X999D01*
X4997Y431332D02*
X5664Y431999D01*
X6997D01*
X7663Y431332D01*
Y430666D01*
X6997Y429999D01*
X6330D01*
X6997D01*
X7663Y429333D01*
Y428666D01*
X6997Y428000D01*
X5664D01*
X4997Y428666D01*
X157001Y461000D02*
Y463666D01*
Y462333D01*
X161000D01*
Y464999D02*
X157001D01*
Y466998D01*
X157668Y467664D01*
X159001D01*
X159667Y466998D01*
Y464999D01*
X161000Y468997D02*
Y470330D01*
Y469664D01*
X157001D01*
X157668Y468997D01*
X161000Y474996D02*
Y472330D01*
X158334Y474996D01*
X157668D01*
X157001Y474329D01*
Y472996D01*
X157668Y472330D01*
X163001Y461000D02*
Y463666D01*
Y462333D01*
X167000D01*
Y464999D02*
X163001D01*
Y466998D01*
X163668Y467664D01*
X165001D01*
X165667Y466998D01*
Y464999D01*
X167000Y468997D02*
Y470330D01*
Y469664D01*
X163001D01*
X163668Y468997D01*
X167000Y472330D02*
Y473663D01*
Y472996D01*
X163001D01*
X163668Y472330D01*
X151001Y461000D02*
Y463666D01*
Y462333D01*
X155000D01*
Y464999D02*
X151001D01*
Y466998D01*
X151668Y467664D01*
X153001D01*
X153667Y466998D01*
Y464999D01*
X155000Y468997D02*
Y470330D01*
Y469664D01*
X151001D01*
X151668Y468997D01*
Y472330D02*
X151001Y472996D01*
Y474329D01*
X151668Y474996D01*
X152334D01*
X153001Y474329D01*
Y473663D01*
Y474329D01*
X153667Y474996D01*
X154333D01*
X155000Y474329D01*
Y472996D01*
X154333Y472330D01*
X81000Y686999D02*
X83666D01*
X82333D01*
Y683000D01*
X84999D02*
Y686999D01*
X86998D01*
X87665Y686332D01*
Y684999D01*
X86998Y684333D01*
X84999D01*
X88997Y686332D02*
X89664Y686999D01*
X90997D01*
X91663Y686332D01*
Y685666D01*
X90997Y684999D01*
X91663Y684333D01*
Y683666D01*
X90997Y683000D01*
X89664D01*
X88997Y683666D01*
Y684333D01*
X89664Y684999D01*
X88997Y685666D01*
Y686332D01*
X89664Y684999D02*
X90997D01*
X81000Y679999D02*
X83666D01*
X82333D01*
Y676000D01*
X84999D02*
Y679999D01*
X86998D01*
X87665Y679332D01*
Y677999D01*
X86998Y677333D01*
X84999D01*
X88997Y679999D02*
X91663D01*
Y679332D01*
X88997Y676666D01*
Y676000D01*
X80000Y707999D02*
X82666D01*
X81333D01*
Y704000D01*
X83999D02*
Y707999D01*
X85998D01*
X86664Y707332D01*
Y705999D01*
X85998Y705333D01*
X83999D01*
X87997Y704000D02*
X89330D01*
X88664D01*
Y707999D01*
X87997Y707332D01*
X91330D02*
X91996Y707999D01*
X93329D01*
X93995Y707332D01*
Y704666D01*
X93329Y704000D01*
X91996D01*
X91330Y704666D01*
Y707332D01*
X80000Y700999D02*
X82666D01*
X81333D01*
Y697000D01*
X83999D02*
Y700999D01*
X85998D01*
X86664Y700332D01*
Y698999D01*
X85998Y698333D01*
X83999D01*
X87997Y697666D02*
X88664Y697000D01*
X89997D01*
X90663Y697666D01*
Y700332D01*
X89997Y700999D01*
X88664D01*
X87997Y700332D01*
Y699666D01*
X88664Y698999D01*
X90663D01*
X248000Y329999D02*
X250666D01*
X249333D01*
Y326000D01*
X251999D02*
Y329999D01*
X253998D01*
X254664Y329332D01*
Y327999D01*
X253998Y327333D01*
X251999D01*
X255997Y326000D02*
X257330D01*
X256664D01*
Y329999D01*
X255997Y329332D01*
X259330D02*
X259996Y329999D01*
X261329D01*
X261996Y329332D01*
Y328666D01*
X261329Y327999D01*
X261996Y327333D01*
Y326666D01*
X261329Y326000D01*
X259996D01*
X259330Y326666D01*
Y327333D01*
X259996Y327999D01*
X259330Y328666D01*
Y329332D01*
X259996Y327999D02*
X261329D01*
X81000Y324999D02*
X83666D01*
X82333D01*
Y321000D01*
X84999D02*
Y324999D01*
X86998D01*
X87665Y324332D01*
Y322999D01*
X86998Y322333D01*
X84999D01*
X91663Y324999D02*
X88997D01*
Y322999D01*
X90330Y323666D01*
X90997D01*
X91663Y322999D01*
Y321666D01*
X90997Y321000D01*
X89664D01*
X88997Y321666D01*
X262000Y440999D02*
X264666D01*
X263333D01*
Y437000D01*
X265999D02*
Y440999D01*
X267998D01*
X268665Y440332D01*
Y438999D01*
X267998Y438333D01*
X265999D01*
X269997Y437000D02*
X271330D01*
X270664D01*
Y440999D01*
X269997Y440332D01*
X275995Y440999D02*
X273330D01*
Y438999D01*
X274663Y439666D01*
X275329D01*
X275995Y438999D01*
Y437666D01*
X275329Y437000D01*
X273996D01*
X273330Y437666D01*
X446001Y437000D02*
Y439666D01*
Y438333D01*
X450000D01*
Y440999D02*
X446001D01*
Y442998D01*
X446668Y443665D01*
X448001D01*
X448667Y442998D01*
Y440999D01*
X450000Y447663D02*
Y444997D01*
X447334Y447663D01*
X446668D01*
X446001Y446997D01*
Y445664D01*
X446668Y444997D01*
X450000Y448996D02*
Y450329D01*
Y449663D01*
X446001D01*
X446668Y448996D01*
X249000Y338999D02*
X251666D01*
X250333D01*
Y335000D01*
X252999D02*
Y338999D01*
X254998D01*
X255664Y338332D01*
Y336999D01*
X254998Y336333D01*
X252999D01*
X256997Y335000D02*
X258330D01*
X257664D01*
Y338999D01*
X256997Y338332D01*
X260330Y335666D02*
X260996Y335000D01*
X262329D01*
X262996Y335666D01*
Y338332D01*
X262329Y338999D01*
X260996D01*
X260330Y338332D01*
Y337666D01*
X260996Y336999D01*
X262996D01*
X82000Y334999D02*
X84666D01*
X83333D01*
Y331000D01*
X85999D02*
Y334999D01*
X87998D01*
X88665Y334332D01*
Y332999D01*
X87998Y332333D01*
X85999D01*
X92663Y334999D02*
X91330Y334332D01*
X89997Y332999D01*
Y331666D01*
X90664Y331000D01*
X91997D01*
X92663Y331666D01*
Y332333D01*
X91997Y332999D01*
X89997D01*
X262000Y433999D02*
X264666D01*
X263333D01*
Y430000D01*
X265999D02*
Y433999D01*
X267998D01*
X268665Y433332D01*
Y431999D01*
X267998Y431333D01*
X265999D01*
X269997Y430000D02*
X271330D01*
X270664D01*
Y433999D01*
X269997Y433332D01*
X275329Y430000D02*
Y433999D01*
X273330Y431999D01*
X275995D01*
X441709Y432199D02*
X444375D01*
X443042D01*
Y428200D01*
X445707D02*
Y432199D01*
X447707D01*
X448373Y431532D01*
Y430199D01*
X447707Y429533D01*
X445707D01*
X452372Y428200D02*
X449706D01*
X452372Y430866D01*
Y431532D01*
X451706Y432199D01*
X450373D01*
X449706Y431532D01*
X453705D02*
X454371Y432199D01*
X455704D01*
X456371Y431532D01*
Y428866D01*
X455704Y428200D01*
X454371D01*
X453705Y428866D01*
Y431532D01*
X249000Y320999D02*
X251666D01*
X250333D01*
Y317000D01*
X252999D02*
Y320999D01*
X254998D01*
X255664Y320332D01*
Y318999D01*
X254998Y318333D01*
X252999D01*
X256997Y317000D02*
X258330D01*
X257664D01*
Y320999D01*
X256997Y320332D01*
X260330Y320999D02*
X262996D01*
Y320332D01*
X260330Y317666D01*
Y317000D01*
X82000Y314999D02*
X84666D01*
X83333D01*
Y311000D01*
X85999D02*
Y314999D01*
X87998D01*
X88665Y314332D01*
Y312999D01*
X87998Y312333D01*
X85999D01*
X91997Y311000D02*
Y314999D01*
X89997Y312999D01*
X92663D01*
X84000Y263999D02*
Y260666D01*
X84666Y260000D01*
X85999D01*
X86666Y260666D01*
Y263999D01*
X90664D02*
X87999D01*
Y261999D01*
X89332Y262666D01*
X89998D01*
X90664Y261999D01*
Y260666D01*
X89998Y260000D01*
X88665D01*
X87999Y260666D01*
X83000Y63999D02*
Y60666D01*
X83666Y60000D01*
X84999D01*
X85666Y60666D01*
Y63999D01*
X86999Y60000D02*
X88332D01*
X87665D01*
Y63999D01*
X86999Y63332D01*
X83000Y213999D02*
Y210666D01*
X83666Y210000D01*
X84999D01*
X85666Y210666D01*
Y213999D01*
X88998Y210000D02*
Y213999D01*
X86999Y211999D01*
X89665D01*
X147000Y165999D02*
Y162666D01*
X147667Y162000D01*
X148999D01*
X149666Y162666D01*
Y165999D01*
X150999Y162000D02*
X152332D01*
X151665D01*
Y165999D01*
X150999Y165332D01*
X154331Y165999D02*
X156997D01*
Y165332D01*
X154331Y162666D01*
Y162000D01*
X43000Y333999D02*
Y330666D01*
X43666Y330000D01*
X44999D01*
X45666Y330666D01*
Y333999D01*
X46999Y330000D02*
X48332D01*
X47665D01*
Y333999D01*
X46999Y333332D01*
X52330Y330000D02*
Y333999D01*
X50331Y331999D01*
X52997D01*
X88001Y353000D02*
X91334D01*
X92000Y353666D01*
Y354999D01*
X91334Y355666D01*
X88001D01*
X92000Y356999D02*
Y358332D01*
Y357665D01*
X88001D01*
X88668Y356999D01*
X88001Y362997D02*
Y360331D01*
X90001D01*
X89334Y361664D01*
Y362330D01*
X90001Y362997D01*
X91334D01*
X92000Y362330D01*
Y360997D01*
X91334Y360331D01*
X581000Y181999D02*
Y178666D01*
X581666Y178000D01*
X582999D01*
X583666Y178666D01*
Y181999D01*
X587665Y178000D02*
X584999D01*
X587665Y180666D01*
Y181332D01*
X586998Y181999D01*
X585665D01*
X584999Y181332D01*
X591663Y178000D02*
X588997D01*
X591663Y180666D01*
Y181332D01*
X590997Y181999D01*
X589664D01*
X588997Y181332D01*
X39000Y370999D02*
Y367666D01*
X39666Y367000D01*
X40999D01*
X41666Y367666D01*
Y370999D01*
X42999Y367000D02*
X44332D01*
X43665D01*
Y370999D01*
X42999Y370332D01*
X48997Y367000D02*
X46331D01*
X48997Y369666D01*
Y370332D01*
X48330Y370999D01*
X46997D01*
X46331Y370332D01*
X48000Y652999D02*
Y649666D01*
X48666Y649000D01*
X49999D01*
X50666Y649666D01*
Y652999D01*
X51999Y649000D02*
X53332D01*
X52665D01*
Y652999D01*
X51999Y652332D01*
X55331Y649000D02*
X56664D01*
X55997D01*
Y652999D01*
X55331Y652332D01*
X484000Y180999D02*
Y177666D01*
X484666Y177000D01*
X485999D01*
X486666Y177666D01*
Y180999D01*
X490664Y177000D02*
X487999D01*
X490664Y179666D01*
Y180332D01*
X489998Y180999D01*
X488665D01*
X487999Y180332D01*
X491997Y177000D02*
X493330D01*
X492664D01*
Y180999D01*
X491997Y180332D01*
X147808Y101220D02*
Y97888D01*
X148475Y97221D01*
X149808D01*
X150474Y97888D01*
Y101220D01*
X151807Y97221D02*
X153140D01*
X152474D01*
Y101220D01*
X151807Y100554D01*
X155139D02*
X155806Y101220D01*
X157139D01*
X157805Y100554D01*
Y99887D01*
X157139Y99221D01*
X157805Y98554D01*
Y97888D01*
X157139Y97221D01*
X155806D01*
X155139Y97888D01*
Y98554D01*
X155806Y99221D01*
X155139Y99887D01*
Y100554D01*
X155806Y99221D02*
X157139D01*
X331000Y104999D02*
Y101666D01*
X331666Y101000D01*
X332999D01*
X333666Y101666D01*
Y104999D01*
X334999Y101000D02*
X336332D01*
X335665D01*
Y104999D01*
X334999Y104332D01*
X338331Y101666D02*
X338997Y101000D01*
X340330D01*
X340997Y101666D01*
Y104332D01*
X340330Y104999D01*
X338997D01*
X338331Y104332D01*
Y103666D01*
X338997Y102999D01*
X340997D01*
X19666Y-2668D02*
X18999Y-2001D01*
X17666D01*
X17000Y-2668D01*
Y-5334D01*
X17666Y-6000D01*
X18999D01*
X19666Y-5334D01*
Y-4001D01*
X18333D01*
X20999Y-6000D02*
Y-2001D01*
X23664Y-6000D01*
Y-2001D01*
X24997D02*
Y-6000D01*
X26997D01*
X27663Y-5334D01*
Y-2668D01*
X26997Y-2001D01*
X24997D01*
X28996Y-6000D02*
X30329D01*
X29663D01*
Y-2001D01*
X28996Y-2668D01*
X36000Y-9001D02*
X38666D01*
X37333Y-7668D02*
Y-10334D01*
X39999Y-7001D02*
Y-9667D01*
X41332Y-11000D01*
X42665Y-9667D01*
Y-7001D01*
X43997Y-11000D02*
Y-8334D01*
X45330Y-7001D01*
X46663Y-8334D01*
Y-11000D01*
Y-9001D01*
X43997D01*
X47996Y-11000D02*
X49329D01*
X48663D01*
Y-7001D01*
X47996Y-7668D01*
X86000Y525999D02*
X88666D01*
X87333D01*
Y522000D01*
X89999D02*
X91332D01*
X90665D01*
Y525999D01*
X89999Y525332D01*
X107000Y247000D02*
X103001D01*
Y248999D01*
X103668Y249666D01*
X105001D01*
X105667Y248999D01*
Y247000D01*
Y248333D02*
X107000Y249666D01*
Y253664D02*
Y250999D01*
X104334Y253664D01*
X103668D01*
X103001Y252998D01*
Y251665D01*
X103668Y250999D01*
X103001Y257663D02*
X103668Y256330D01*
X105001Y254997D01*
X106333D01*
X107000Y255664D01*
Y256997D01*
X106333Y257663D01*
X105667D01*
X105001Y256997D01*
Y254997D01*
X107000Y44000D02*
X103001D01*
Y45999D01*
X103668Y46666D01*
X105001D01*
X105667Y45999D01*
Y44000D01*
Y45333D02*
X107000Y46666D01*
Y50665D02*
Y47999D01*
X104334Y50665D01*
X103668D01*
X103001Y49998D01*
Y48665D01*
X103668Y47999D01*
X103001Y54663D02*
Y51997D01*
X105001D01*
X104334Y53330D01*
Y53997D01*
X105001Y54663D01*
X106333D01*
X107000Y53997D01*
Y52664D01*
X106333Y51997D01*
X107000Y193000D02*
X103001D01*
Y194999D01*
X103668Y195666D01*
X105001D01*
X105667Y194999D01*
Y193000D01*
Y194333D02*
X107000Y195666D01*
Y199664D02*
Y196999D01*
X104334Y199664D01*
X103668D01*
X103001Y198998D01*
Y197665D01*
X103668Y196999D01*
X103001Y200997D02*
Y203663D01*
X103668D01*
X106333Y200997D01*
X107000D01*
X198000Y161000D02*
Y164999D01*
X199999D01*
X200666Y164332D01*
Y162999D01*
X199999Y162333D01*
X198000D01*
X199333D02*
X200666Y161000D01*
X201999Y164332D02*
X202665Y164999D01*
X203998D01*
X204664Y164332D01*
Y163666D01*
X203998Y162999D01*
X203332D01*
X203998D01*
X204664Y162333D01*
Y161667D01*
X203998Y161000D01*
X202665D01*
X201999Y161667D01*
X205997Y164332D02*
X206664Y164999D01*
X207997D01*
X208663Y164332D01*
Y163666D01*
X207997Y162999D01*
X208663Y162333D01*
Y161667D01*
X207997Y161000D01*
X206664D01*
X205997Y161667D01*
Y162333D01*
X206664Y162999D01*
X205997Y163666D01*
Y164332D01*
X206664Y162999D02*
X207997D01*
X29415Y407041D02*
X25416D01*
Y409040D01*
X26083Y409707D01*
X27415D01*
X28082Y409040D01*
Y407041D01*
Y408374D02*
X29415Y409707D01*
Y411040D02*
Y412373D01*
Y411706D01*
X25416D01*
X26083Y411040D01*
X29415Y417038D02*
Y414372D01*
X26749Y417038D01*
X26083D01*
X25416Y416371D01*
Y415038D01*
X26083Y414372D01*
X41000Y352000D02*
Y355999D01*
X42999D01*
X43666Y355332D01*
Y353999D01*
X42999Y353333D01*
X41000D01*
X42333D02*
X43666Y352000D01*
X44999D02*
X46332D01*
X45665D01*
Y355999D01*
X44999Y355332D01*
X48331D02*
X48997Y355999D01*
X50330D01*
X50997Y355332D01*
Y354666D01*
X50330Y353999D01*
X50997Y353333D01*
Y352666D01*
X50330Y352000D01*
X48997D01*
X48331Y352666D01*
Y353333D01*
X48997Y353999D01*
X48331Y354666D01*
Y355332D01*
X48997Y353999D02*
X50330D01*
X81000Y326000D02*
X77001D01*
Y327999D01*
X77668Y328666D01*
X79001D01*
X79667Y327999D01*
Y326000D01*
Y327333D02*
X81000Y328666D01*
Y332664D02*
Y329999D01*
X78334Y332664D01*
X77668D01*
X77001Y331998D01*
Y330665D01*
X77668Y329999D01*
X81000Y336663D02*
Y333997D01*
X78334Y336663D01*
X77668D01*
X77001Y335997D01*
Y334664D01*
X77668Y333997D01*
X143000Y431000D02*
Y434999D01*
X144999D01*
X145666Y434332D01*
Y432999D01*
X144999Y432333D01*
X143000D01*
X144333D02*
X145666Y431000D01*
X146999Y434332D02*
X147665Y434999D01*
X148998D01*
X149664Y434332D01*
Y433666D01*
X148998Y432999D01*
X148332D01*
X148998D01*
X149664Y432333D01*
Y431666D01*
X148998Y431000D01*
X147665D01*
X146999Y431666D01*
X150997Y434999D02*
X153663D01*
Y434332D01*
X150997Y431666D01*
Y431000D01*
X119000Y335000D02*
Y338999D01*
X120999D01*
X121666Y338332D01*
Y336999D01*
X120999Y336333D01*
X119000D01*
X120333D02*
X121666Y335000D01*
X122999Y338332D02*
X123665Y338999D01*
X124998D01*
X125664Y338332D01*
Y337666D01*
X124998Y336999D01*
X124332D01*
X124998D01*
X125664Y336333D01*
Y335666D01*
X124998Y335000D01*
X123665D01*
X122999Y335666D01*
X128997Y335000D02*
Y338999D01*
X126997Y336999D01*
X129663D01*
X84000Y8000D02*
Y11999D01*
X85999D01*
X86666Y11332D01*
Y9999D01*
X85999Y9333D01*
X84000D01*
X85333D02*
X86666Y8000D01*
X90664D02*
X87999D01*
X90664Y10666D01*
Y11332D01*
X89998Y11999D01*
X88665D01*
X87999Y11332D01*
X91997D02*
X92664Y11999D01*
X93997D01*
X94663Y11332D01*
Y10666D01*
X93997Y9999D01*
X93330D01*
X93997D01*
X94663Y9333D01*
Y8666D01*
X93997Y8000D01*
X92664D01*
X91997Y8666D01*
X579000Y116000D02*
Y119999D01*
X580999D01*
X581666Y119332D01*
Y117999D01*
X580999Y117333D01*
X579000D01*
X580333D02*
X581666Y116000D01*
X584998D02*
Y119999D01*
X582999Y117999D01*
X585665D01*
X586997Y119332D02*
X587664Y119999D01*
X588997D01*
X589663Y119332D01*
Y118666D01*
X588997Y117999D01*
X589663Y117333D01*
Y116666D01*
X588997Y116000D01*
X587664D01*
X586997Y116666D01*
Y117333D01*
X587664Y117999D01*
X586997Y118666D01*
Y119332D01*
X587664Y117999D02*
X588997D01*
X84000Y15000D02*
Y18999D01*
X85999D01*
X86666Y18332D01*
Y16999D01*
X85999Y16333D01*
X84000D01*
X85333D02*
X86666Y15000D01*
X90664D02*
X87999D01*
X90664Y17666D01*
Y18332D01*
X89998Y18999D01*
X88665D01*
X87999Y18332D01*
X91997Y15000D02*
X93330D01*
X92664D01*
Y18999D01*
X91997Y18332D01*
X46000Y288000D02*
Y291999D01*
X47999D01*
X48666Y291332D01*
Y289999D01*
X47999Y289333D01*
X46000D01*
X47333D02*
X48666Y288000D01*
X49999D02*
X51332D01*
X50665D01*
Y291999D01*
X49999Y291332D01*
X53331Y288666D02*
X53997Y288000D01*
X55330D01*
X55997Y288666D01*
Y291332D01*
X55330Y291999D01*
X53997D01*
X53331Y291332D01*
Y290666D01*
X53997Y289999D01*
X55997D01*
X536000Y113000D02*
X532001D01*
Y114999D01*
X532668Y115666D01*
X534001D01*
X534667Y114999D01*
Y113000D01*
Y114333D02*
X536000Y115666D01*
Y118998D02*
X532001D01*
X534001Y116999D01*
Y119665D01*
X532001Y120997D02*
Y123663D01*
X532668D01*
X535334Y120997D01*
X536000D01*
X195808Y97221D02*
Y101220D01*
X197808D01*
X198474Y100554D01*
Y99221D01*
X197808Y98554D01*
X195808D01*
X197141D02*
X198474Y97221D01*
X199807Y100554D02*
X200474Y101220D01*
X201806D01*
X202473Y100554D01*
Y99887D01*
X201806Y99221D01*
X201140D01*
X201806D01*
X202473Y98554D01*
Y97888D01*
X201806Y97221D01*
X200474D01*
X199807Y97888D01*
X203806D02*
X204472Y97221D01*
X205805D01*
X206472Y97888D01*
Y100554D01*
X205805Y101220D01*
X204472D01*
X203806Y100554D01*
Y99887D01*
X204472Y99221D01*
X206472D01*
X378000Y102000D02*
Y105999D01*
X379999D01*
X380666Y105332D01*
Y103999D01*
X379999Y103333D01*
X378000D01*
X379333D02*
X380666Y102000D01*
X383998D02*
Y105999D01*
X381999Y103999D01*
X384665D01*
X385997Y105332D02*
X386664Y105999D01*
X387997D01*
X388663Y105332D01*
Y104666D01*
X387997Y103999D01*
X387330D01*
X387997D01*
X388663Y103333D01*
Y102666D01*
X387997Y102000D01*
X386664D01*
X385997Y102666D01*
X84000Y341000D02*
Y344999D01*
X85999D01*
X86666Y344332D01*
Y342999D01*
X85999Y342333D01*
X84000D01*
X85333D02*
X86666Y341000D01*
X90664D02*
X87999D01*
X90664Y343666D01*
Y344332D01*
X89998Y344999D01*
X88665D01*
X87999Y344332D01*
X93997Y341000D02*
Y344999D01*
X91997Y342999D01*
X94663D01*
X17000Y369000D02*
Y372999D01*
X18999D01*
X19666Y372332D01*
Y370999D01*
X18999Y370333D01*
X17000D01*
X18333D02*
X19666Y369000D01*
X20999D02*
X22332D01*
X21665D01*
Y372999D01*
X20999Y372332D01*
X14000Y376000D02*
Y379999D01*
X15999D01*
X16666Y379332D01*
Y377999D01*
X15999Y377333D01*
X14000D01*
X15333D02*
X16666Y376000D01*
X20664D02*
X17999D01*
X20664Y378666D01*
Y379332D01*
X19998Y379999D01*
X18665D01*
X17999Y379332D01*
X14000Y388000D02*
Y391999D01*
X15999D01*
X16666Y391332D01*
Y389999D01*
X15999Y389333D01*
X14000D01*
X15333D02*
X16666Y388000D01*
X17999Y391332D02*
X18665Y391999D01*
X19998D01*
X20664Y391332D01*
Y390666D01*
X19998Y389999D01*
X19332D01*
X19998D01*
X20664Y389333D01*
Y388666D01*
X19998Y388000D01*
X18665D01*
X17999Y388666D01*
X14000Y400000D02*
Y403999D01*
X15999D01*
X16666Y403332D01*
Y401999D01*
X15999Y401333D01*
X14000D01*
X15333D02*
X16666Y400000D01*
X19998D02*
Y403999D01*
X17999Y401999D01*
X20664D01*
X144000Y394000D02*
Y397999D01*
X145999D01*
X146666Y397332D01*
Y395999D01*
X145999Y395333D01*
X144000D01*
X145333D02*
X146666Y394000D01*
X147999Y397332D02*
X148665Y397999D01*
X149998D01*
X150664Y397332D01*
Y396666D01*
X149998Y395999D01*
X149332D01*
X149998D01*
X150664Y395333D01*
Y394666D01*
X149998Y394000D01*
X148665D01*
X147999Y394666D01*
X154663Y397999D02*
X153330Y397332D01*
X151997Y395999D01*
Y394666D01*
X152664Y394000D01*
X153997D01*
X154663Y394666D01*
Y395333D01*
X153997Y395999D01*
X151997D01*
X29000Y564000D02*
X25001D01*
Y565999D01*
X25668Y566666D01*
X27001D01*
X27667Y565999D01*
Y564000D01*
Y565333D02*
X29000Y566666D01*
X25001Y567999D02*
Y570665D01*
X25668D01*
X28334Y567999D01*
X29000D01*
Y616000D02*
X25001D01*
Y617999D01*
X25668Y618666D01*
X27001D01*
X27667Y617999D01*
Y616000D01*
Y617333D02*
X29000Y618666D01*
X25668Y619999D02*
X25001Y620665D01*
Y621998D01*
X25668Y622664D01*
X26334D01*
X27001Y621998D01*
X27667Y622664D01*
X28334D01*
X29000Y621998D01*
Y620665D01*
X28334Y619999D01*
X27667D01*
X27001Y620665D01*
X26334Y619999D01*
X25668D01*
X27001Y620665D02*
Y621998D01*
X29000Y578000D02*
X25001D01*
Y579999D01*
X25668Y580666D01*
X27001D01*
X27667Y579999D01*
Y578000D01*
Y579333D02*
X29000Y580666D01*
X28334Y581999D02*
X29000Y582665D01*
Y583998D01*
X28334Y584664D01*
X25668D01*
X25001Y583998D01*
Y582665D01*
X25668Y581999D01*
X26334D01*
X27001Y582665D01*
Y584664D01*
X35000Y637000D02*
X31001D01*
Y638999D01*
X31668Y639666D01*
X33001D01*
X33667Y638999D01*
Y637000D01*
Y638333D02*
X35000Y639666D01*
Y640999D02*
Y642332D01*
Y641665D01*
X31001D01*
X31668Y640999D01*
Y644331D02*
X31001Y644997D01*
Y646330D01*
X31668Y646997D01*
X34334D01*
X35000Y646330D01*
Y644997D01*
X34334Y644331D01*
X31668D01*
X24000Y639000D02*
X20001D01*
Y640999D01*
X20668Y641666D01*
X22001D01*
X22667Y640999D01*
Y639000D01*
Y640333D02*
X24000Y641666D01*
X20001Y645665D02*
X20668Y644332D01*
X22001Y642999D01*
X23334D01*
X24000Y643665D01*
Y644998D01*
X23334Y645665D01*
X22667D01*
X22001Y644998D01*
Y642999D01*
X379000Y147000D02*
Y150999D01*
X380999D01*
X381666Y150332D01*
Y148999D01*
X380999Y148333D01*
X379000D01*
X380333D02*
X381666Y147000D01*
X384998D02*
Y150999D01*
X382999Y148999D01*
X385665D01*
X389663Y147000D02*
X386997D01*
X389663Y149666D01*
Y150332D01*
X388997Y150999D01*
X387664D01*
X386997Y150332D01*
X46000Y301000D02*
Y304999D01*
X47999D01*
X48666Y304332D01*
Y302999D01*
X47999Y302333D01*
X46000D01*
X47333D02*
X48666Y301000D01*
X52665D02*
X49999D01*
X52665Y303666D01*
Y304332D01*
X51998Y304999D01*
X50665D01*
X49999Y304332D01*
X53997D02*
X54664Y304999D01*
X55997D01*
X56663Y304332D01*
Y301666D01*
X55997Y301000D01*
X54664D01*
X53997Y301666D01*
Y304332D01*
X19000Y482000D02*
Y485999D01*
X20999D01*
X21666Y485332D01*
Y483999D01*
X20999Y483333D01*
X19000D01*
X20333D02*
X21666Y482000D01*
X22999D02*
X24332D01*
X23665D01*
Y485999D01*
X22999Y485332D01*
X26331Y482000D02*
X27664D01*
X26997D01*
Y485999D01*
X26331Y485332D01*
X87000Y482000D02*
Y485999D01*
X88999D01*
X89666Y485332D01*
Y483999D01*
X88999Y483333D01*
X87000D01*
X88333D02*
X89666Y482000D01*
X90999Y485332D02*
X91665Y485999D01*
X92998D01*
X93664Y485332D01*
Y484666D01*
X92998Y483999D01*
X92332D01*
X92998D01*
X93664Y483333D01*
Y482666D01*
X92998Y482000D01*
X91665D01*
X90999Y482666D01*
X94997Y485332D02*
X95664Y485999D01*
X96997D01*
X97663Y485332D01*
Y482666D01*
X96997Y482000D01*
X95664D01*
X94997Y482666D01*
Y485332D01*
X101000Y493000D02*
Y496999D01*
X102999D01*
X103666Y496332D01*
Y494999D01*
X102999Y494333D01*
X101000D01*
X102333D02*
X103666Y493000D01*
X104999Y496332D02*
X105665Y496999D01*
X106998D01*
X107665Y496332D01*
Y495666D01*
X106998Y494999D01*
X106332D01*
X106998D01*
X107665Y494333D01*
Y493666D01*
X106998Y493000D01*
X105665D01*
X104999Y493666D01*
X111663Y493000D02*
X108997D01*
X111663Y495666D01*
Y496332D01*
X110997Y496999D01*
X109664D01*
X108997Y496332D01*
X28000Y476000D02*
Y479999D01*
X29999D01*
X30666Y479332D01*
Y477999D01*
X29999Y477333D01*
X28000D01*
X29333D02*
X30666Y476000D01*
X31999D02*
X33332D01*
X32665D01*
Y479999D01*
X31999Y479332D01*
X35331D02*
X35997Y479999D01*
X37330D01*
X37997Y479332D01*
Y478666D01*
X37330Y477999D01*
X36664D01*
X37330D01*
X37997Y477333D01*
Y476666D01*
X37330Y476000D01*
X35997D01*
X35331Y476666D01*
X100000Y476000D02*
Y479999D01*
X101999D01*
X102666Y479332D01*
Y477999D01*
X101999Y477333D01*
X100000D01*
X101333D02*
X102666Y476000D01*
X103999Y479332D02*
X104665Y479999D01*
X105998D01*
X106665Y479332D01*
Y478666D01*
X105998Y477999D01*
X105332D01*
X105998D01*
X106665Y477333D01*
Y476666D01*
X105998Y476000D01*
X104665D01*
X103999Y476666D01*
X107997Y476000D02*
X109330D01*
X108664D01*
Y479999D01*
X107997Y479332D01*
X109000Y94000D02*
X105001D01*
Y95999D01*
X105668Y96666D01*
X107001D01*
X107667Y95999D01*
Y94000D01*
Y95333D02*
X109000Y96666D01*
Y100664D02*
Y97999D01*
X106334Y100664D01*
X105668D01*
X105001Y99998D01*
Y98665D01*
X105668Y97999D01*
X108334Y101997D02*
X109000Y102664D01*
Y103997D01*
X108334Y104663D01*
X105668D01*
X105001Y103997D01*
Y102664D01*
X105668Y101997D01*
X106334D01*
X107001Y102664D01*
Y104663D01*
X30000Y490000D02*
Y493999D01*
X31999D01*
X32666Y493332D01*
Y491999D01*
X31999Y491333D01*
X30000D01*
X31333D02*
X32666Y490000D01*
X33999D02*
X35332D01*
X34665D01*
Y493999D01*
X33999Y493332D01*
X39330Y490000D02*
Y493999D01*
X37331Y491999D01*
X39997D01*
X108000Y143000D02*
X104001D01*
Y144999D01*
X104668Y145666D01*
X106001D01*
X106667Y144999D01*
Y143000D01*
Y144333D02*
X108000Y145666D01*
Y149664D02*
Y146999D01*
X105334Y149664D01*
X104668D01*
X104001Y148998D01*
Y147665D01*
X104668Y146999D01*
Y150997D02*
X104001Y151664D01*
Y152997D01*
X104668Y153663D01*
X105334D01*
X106001Y152997D01*
X106667Y153663D01*
X107334D01*
X108000Y152997D01*
Y151664D01*
X107334Y150997D01*
X106667D01*
X106001Y151664D01*
X105334Y150997D01*
X104668D01*
X106001Y151664D02*
Y152997D01*
X43000Y495000D02*
Y498999D01*
X44999D01*
X45666Y498332D01*
Y496999D01*
X44999Y496333D01*
X43000D01*
X44333D02*
X45666Y495000D01*
X46999D02*
X48332D01*
X47665D01*
Y498999D01*
X46999Y498332D01*
X50331Y498999D02*
X52997D01*
Y498332D01*
X50331Y495666D01*
Y495000D01*
X118000Y501000D02*
Y504999D01*
X119999D01*
X120666Y504332D01*
Y502999D01*
X119999Y502333D01*
X118000D01*
X119333D02*
X120666Y501000D01*
X121999Y504332D02*
X122665Y504999D01*
X123998D01*
X124664Y504332D01*
Y503666D01*
X123998Y502999D01*
X123332D01*
X123998D01*
X124664Y502333D01*
Y501666D01*
X123998Y501000D01*
X122665D01*
X121999Y501666D01*
X128663Y504999D02*
X125997D01*
Y502999D01*
X127330Y503666D01*
X127997D01*
X128663Y502999D01*
Y501666D01*
X127997Y501000D01*
X126664D01*
X125997Y501666D01*
X291000Y322000D02*
Y325999D01*
X292999D01*
X293666Y325332D01*
Y323999D01*
X292999Y323333D01*
X291000D01*
X292333D02*
X293666Y322000D01*
X296998D02*
Y325999D01*
X294999Y323999D01*
X297664D01*
X298997Y322000D02*
X300330D01*
X299664D01*
Y325999D01*
X298997Y325332D01*
X110000Y322000D02*
Y325999D01*
X111999D01*
X112666Y325332D01*
Y323999D01*
X111999Y323333D01*
X110000D01*
X111333D02*
X112666Y322000D01*
X113999Y325332D02*
X114665Y325999D01*
X115998D01*
X116665Y325332D01*
Y324666D01*
X115998Y323999D01*
X115332D01*
X115998D01*
X116665Y323333D01*
Y322666D01*
X115998Y322000D01*
X114665D01*
X113999Y322666D01*
X117997Y325332D02*
X118664Y325999D01*
X119997D01*
X120663Y325332D01*
Y324666D01*
X119997Y323999D01*
X119330D01*
X119997D01*
X120663Y323333D01*
Y322666D01*
X119997Y322000D01*
X118664D01*
X117997Y322666D01*
X651000Y322000D02*
Y325999D01*
X652999D01*
X653666Y325332D01*
Y323999D01*
X652999Y323333D01*
X651000D01*
X652333D02*
X653666Y322000D01*
X657664Y325999D02*
X654999D01*
Y323999D01*
X656332Y324666D01*
X656998D01*
X657664Y323999D01*
Y322666D01*
X656998Y322000D01*
X655665D01*
X654999Y322666D01*
X658997Y322000D02*
X660330D01*
X659664D01*
Y325999D01*
X658997Y325332D01*
X470000Y322000D02*
Y325999D01*
X471999D01*
X472666Y325332D01*
Y323999D01*
X471999Y323333D01*
X470000D01*
X471333D02*
X472666Y322000D01*
X475998D02*
Y325999D01*
X473999Y323999D01*
X476664D01*
X480663Y325999D02*
X477997D01*
Y323999D01*
X479330Y324666D01*
X479997D01*
X480663Y323999D01*
Y322666D01*
X479997Y322000D01*
X478664D01*
X477997Y322666D01*
X650000Y294000D02*
Y297999D01*
X651999D01*
X652666Y297332D01*
Y295999D01*
X651999Y295333D01*
X650000D01*
X651333D02*
X652666Y294000D01*
X656665Y297999D02*
X653999D01*
Y295999D01*
X655332Y296666D01*
X655998D01*
X656665Y295999D01*
Y294666D01*
X655998Y294000D01*
X654665D01*
X653999Y294666D01*
X660663Y294000D02*
X657997D01*
X660663Y296666D01*
Y297332D01*
X659997Y297999D01*
X658664D01*
X657997Y297332D01*
X616000Y359000D02*
Y362999D01*
X617999D01*
X618666Y362332D01*
Y360999D01*
X617999Y360333D01*
X616000D01*
X619999Y359000D02*
X621332D01*
X620665D01*
Y362999D01*
X619999Y362332D01*
X625997Y362999D02*
X623331D01*
Y360999D01*
X624664Y361666D01*
X625330D01*
X625997Y360999D01*
Y359666D01*
X625330Y359000D01*
X623997D01*
X623331Y359666D01*
X435000Y359000D02*
Y362999D01*
X436999D01*
X437666Y362332D01*
Y360999D01*
X436999Y360333D01*
X435000D01*
X438999Y359666D02*
X439665Y359000D01*
X440998D01*
X441665Y359666D01*
Y362332D01*
X440998Y362999D01*
X439665D01*
X438999Y362332D01*
Y361666D01*
X439665Y360999D01*
X441665D01*
X436000Y410000D02*
Y413999D01*
X437999D01*
X438666Y413332D01*
Y411999D01*
X437999Y411333D01*
X436000D01*
X439999Y410000D02*
X441332D01*
X440665D01*
Y413999D01*
X439999Y413332D01*
X443331D02*
X443997Y413999D01*
X445330D01*
X445997Y413332D01*
Y410666D01*
X445330Y410000D01*
X443997D01*
X443331Y410666D01*
Y413332D01*
X616000Y410000D02*
Y413999D01*
X617999D01*
X618666Y413332D01*
Y411999D01*
X617999Y411333D01*
X616000D01*
X619999Y410000D02*
X621332D01*
X620665D01*
Y413999D01*
X619999Y413332D01*
X625997Y413999D02*
X624664Y413332D01*
X623331Y411999D01*
Y410666D01*
X623997Y410000D01*
X625330D01*
X625997Y410666D01*
Y411333D01*
X625330Y411999D01*
X623331D01*
X458600Y748700D02*
Y752699D01*
X460599D01*
X461266Y752032D01*
Y750699D01*
X460599Y750033D01*
X458600D01*
X462599Y748700D02*
X463932D01*
X463265D01*
Y752699D01*
X462599Y752032D01*
X468597Y748700D02*
X465931D01*
X468597Y751366D01*
Y752032D01*
X467930Y752699D01*
X466597D01*
X465931Y752032D01*
X773000Y60000D02*
Y63999D01*
X774999D01*
X775666Y63332D01*
Y61999D01*
X774999Y61333D01*
X773000D01*
X776999Y60000D02*
X778332D01*
X777665D01*
Y63999D01*
X776999Y63332D01*
X780331Y60666D02*
X780997Y60000D01*
X782330D01*
X782997Y60666D01*
Y63332D01*
X782330Y63999D01*
X780997D01*
X780331Y63332D01*
Y62666D01*
X780997Y61999D01*
X782997D01*
X280000Y208000D02*
Y211999D01*
X281999D01*
X282666Y211332D01*
Y209999D01*
X281999Y209333D01*
X280000D01*
X286665Y211999D02*
X283999D01*
Y209999D01*
X285332Y210666D01*
X285998D01*
X286665Y209999D01*
Y208666D01*
X285998Y208000D01*
X284665D01*
X283999Y208666D01*
X99356Y207404D02*
Y211403D01*
X101355D01*
X102021Y210736D01*
Y209403D01*
X101355Y208737D01*
X99356D01*
X103354Y207404D02*
X104687D01*
X104021D01*
Y211403D01*
X103354Y210736D01*
X413000Y59000D02*
Y62999D01*
X414999D01*
X415666Y62332D01*
Y60999D01*
X414999Y60333D01*
X413000D01*
X416999Y62999D02*
X419664D01*
Y62332D01*
X416999Y59666D01*
Y59000D01*
X233000Y561000D02*
Y564999D01*
X234999D01*
X235666Y564332D01*
Y562999D01*
X234999Y562333D01*
X233000D01*
X238998Y561000D02*
Y564999D01*
X236999Y562999D01*
X239665D01*
X460000Y208000D02*
Y211999D01*
X461999D01*
X462666Y211332D01*
Y209999D01*
X461999Y209333D01*
X460000D01*
X463999Y208000D02*
X465332D01*
X464665D01*
Y211999D01*
X463999Y211332D01*
X467331Y208000D02*
X468664D01*
X467997D01*
Y211999D01*
X467331Y211332D01*
X280000Y708000D02*
Y711999D01*
X281999D01*
X282666Y711332D01*
Y709999D01*
X281999Y709333D01*
X280000D01*
X286665Y711999D02*
X285332Y711332D01*
X283999Y709999D01*
Y708666D01*
X284665Y708000D01*
X285998D01*
X286665Y708666D01*
Y709333D01*
X285998Y709999D01*
X283999D01*
X638600Y748700D02*
Y752699D01*
X640599D01*
X641266Y752032D01*
Y750699D01*
X640599Y750033D01*
X638600D01*
X642599Y748700D02*
X643932D01*
X643265D01*
Y752699D01*
X642599Y752032D01*
X645931D02*
X646597Y752699D01*
X647930D01*
X648597Y752032D01*
Y751366D01*
X647930Y750699D01*
X648597Y750033D01*
Y749366D01*
X647930Y748700D01*
X646597D01*
X645931Y749366D01*
Y750033D01*
X646597Y750699D01*
X645931Y751366D01*
Y752032D01*
X646597Y750699D02*
X647930D01*
X640000Y208000D02*
Y211999D01*
X641999D01*
X642666Y211332D01*
Y209999D01*
X641999Y209333D01*
X640000D01*
X643999Y208000D02*
X645332D01*
X644665D01*
Y211999D01*
X643999Y211332D01*
X647331Y211999D02*
X649997D01*
Y211332D01*
X647331Y208666D01*
Y208000D01*
X413000Y561000D02*
Y564999D01*
X414999D01*
X415666Y564332D01*
Y562999D01*
X414999Y562333D01*
X413000D01*
X416999Y564332D02*
X417665Y564999D01*
X418998D01*
X419664Y564332D01*
Y563666D01*
X418998Y562999D01*
X419664Y562333D01*
Y561666D01*
X418998Y561000D01*
X417665D01*
X416999Y561666D01*
Y562333D01*
X417665Y562999D01*
X416999Y563666D01*
Y564332D01*
X417665Y562999D02*
X418998D01*
X593000Y60000D02*
Y63999D01*
X594999D01*
X595666Y63332D01*
Y61999D01*
X594999Y61333D01*
X593000D01*
X596999Y60000D02*
X598332D01*
X597665D01*
Y63999D01*
X596999Y63332D01*
X600331D02*
X600997Y63999D01*
X602330D01*
X602997Y63332D01*
Y62666D01*
X602330Y61999D01*
X601664D01*
X602330D01*
X602997Y61333D01*
Y60666D01*
X602330Y60000D01*
X600997D01*
X600331Y60666D01*
X235100Y60800D02*
Y64799D01*
X237099D01*
X237766Y64132D01*
Y62799D01*
X237099Y62133D01*
X235100D01*
X239099Y64132D02*
X239765Y64799D01*
X241098D01*
X241764Y64132D01*
Y63466D01*
X241098Y62799D01*
X240432D01*
X241098D01*
X241764Y62133D01*
Y61466D01*
X241098Y60800D01*
X239765D01*
X239099Y61466D01*
X593000Y561000D02*
Y564999D01*
X594999D01*
X595666Y564332D01*
Y562999D01*
X594999Y562333D01*
X593000D01*
X596999Y561000D02*
X598332D01*
X597665D01*
Y564999D01*
X596999Y564332D01*
X602330Y561000D02*
Y564999D01*
X600331Y562999D01*
X602997D01*
X775600Y500700D02*
Y504699D01*
X777599D01*
X778266Y504032D01*
Y502699D01*
X777599Y502033D01*
X775600D01*
X782265Y500700D02*
X779599D01*
X782265Y503366D01*
Y504032D01*
X781598Y504699D01*
X780265D01*
X779599Y504032D01*
X783597D02*
X784264Y504699D01*
X785597D01*
X786263Y504032D01*
Y501366D01*
X785597Y500700D01*
X784264D01*
X783597Y501366D01*
Y504032D01*
X100000Y708000D02*
Y711999D01*
X101999D01*
X102666Y711332D01*
Y709999D01*
X101999Y709333D01*
X100000D01*
X106665Y708000D02*
X103999D01*
X106665Y710666D01*
Y711332D01*
X105998Y711999D01*
X104665D01*
X103999Y711332D01*
X614000Y756000D02*
Y759999D01*
X615333Y758666D01*
X616666Y759999D01*
Y756000D01*
X617999Y759999D02*
Y756000D01*
Y757999D01*
X620665D01*
Y759999D01*
Y756000D01*
X624663D02*
X621997D01*
X624663Y758666D01*
Y759332D01*
X623997Y759999D01*
X622664D01*
X621997Y759332D01*
X628662Y756000D02*
X625996D01*
X628662Y758666D01*
Y759332D01*
X627995Y759999D01*
X626663D01*
X625996Y759332D01*
X436000Y755000D02*
Y758999D01*
X437333Y757666D01*
X438666Y758999D01*
Y755000D01*
X439999Y758999D02*
Y755000D01*
Y756999D01*
X442664D01*
Y758999D01*
Y755000D01*
X443997D02*
X445330D01*
X444664D01*
Y758999D01*
X443997Y758332D01*
X449996Y758999D02*
X447330D01*
Y756999D01*
X448663Y757666D01*
X449329D01*
X449996Y756999D01*
Y755666D01*
X449329Y755000D01*
X447996D01*
X447330Y755666D01*
X100000Y506000D02*
Y509999D01*
X101333Y508666D01*
X102666Y509999D01*
Y506000D01*
X103999Y509999D02*
Y506000D01*
Y507999D01*
X106665D01*
Y509999D01*
Y506000D01*
X107997Y509332D02*
X108664Y509999D01*
X109997D01*
X110663Y509332D01*
Y508666D01*
X109997Y507999D01*
X109330D01*
X109997D01*
X110663Y507333D01*
Y506666D01*
X109997Y506000D01*
X108664D01*
X107997Y506666D01*
X227000Y264000D02*
Y267999D01*
X228333Y266666D01*
X229666Y267999D01*
Y264000D01*
X230999Y267999D02*
Y264000D01*
Y265999D01*
X233664D01*
Y267999D01*
Y264000D01*
X237663Y267999D02*
X236330Y267332D01*
X234997Y265999D01*
Y264666D01*
X235664Y264000D01*
X236997D01*
X237663Y264666D01*
Y265333D01*
X236997Y265999D01*
X234997D01*
X586876Y262496D02*
Y266495D01*
X588209Y265162D01*
X589541Y266495D01*
Y262496D01*
X590874Y266495D02*
Y262496D01*
Y264496D01*
X593540D01*
Y266495D01*
Y262496D01*
X597539D02*
X594873D01*
X597539Y265162D01*
Y265829D01*
X596872Y266495D01*
X595540D01*
X594873Y265829D01*
X598872D02*
X599538Y266495D01*
X600871D01*
X601538Y265829D01*
Y263163D01*
X600871Y262496D01*
X599538D01*
X598872Y263163D01*
Y265829D01*
X460300Y14100D02*
Y18099D01*
X461633Y16766D01*
X462966Y18099D01*
Y14100D01*
X464299Y18099D02*
Y14100D01*
Y16099D01*
X466964D01*
Y18099D01*
Y14100D01*
X468297D02*
X469630D01*
X468964D01*
Y18099D01*
X468297Y17432D01*
X471630Y18099D02*
X474296D01*
Y17432D01*
X471630Y14766D01*
Y14100D01*
X100300D02*
Y18099D01*
X101633Y16766D01*
X102966Y18099D01*
Y14100D01*
X104299Y18099D02*
Y14100D01*
Y16099D01*
X106965D01*
Y18099D01*
Y14100D01*
X110297D02*
Y18099D01*
X108297Y16099D01*
X110963D01*
X284000Y14000D02*
Y17999D01*
X285333Y16666D01*
X286666Y17999D01*
Y14000D01*
X287999Y17999D02*
Y14000D01*
Y15999D01*
X290665D01*
Y17999D01*
Y14000D01*
X291997D02*
X293330D01*
X292664D01*
Y17999D01*
X291997Y17332D01*
X295330Y14000D02*
X296663D01*
X295996D01*
Y17999D01*
X295330Y17332D01*
X225000Y754000D02*
Y757999D01*
X226333Y756666D01*
X227666Y757999D01*
Y754000D01*
X228999Y757999D02*
Y754000D01*
Y755999D01*
X231664D01*
Y757999D01*
Y754000D01*
X235663Y757999D02*
X232997D01*
Y755999D01*
X234330Y756666D01*
X234997D01*
X235663Y755999D01*
Y754666D01*
X234997Y754000D01*
X233664D01*
X232997Y754666D01*
X766647Y262669D02*
Y266668D01*
X767979Y265335D01*
X769312Y266668D01*
Y262669D01*
X770645Y266668D02*
Y262669D01*
Y264668D01*
X773311D01*
Y266668D01*
Y262669D01*
X777310D02*
X774644D01*
X777310Y265335D01*
Y266001D01*
X776643Y266668D01*
X775311D01*
X774644Y266001D01*
X778643Y266668D02*
X781309D01*
Y266001D01*
X778643Y263335D01*
Y262669D01*
X-6000Y379999D02*
Y376000D01*
X-3334D01*
X665Y379999D02*
X-2001D01*
Y376000D01*
X665D01*
X-2001Y377999D02*
X-668D01*
X1997Y379999D02*
Y376000D01*
X3997D01*
X4663Y376666D01*
Y379332D01*
X3997Y379999D01*
X1997D01*
X8662Y376000D02*
X5996D01*
X8662Y378666D01*
Y379332D01*
X7995Y379999D01*
X6663D01*
X5996Y379332D01*
X-6000Y391999D02*
Y388000D01*
X-3334D01*
X665Y391999D02*
X-2001D01*
Y388000D01*
X665D01*
X-2001Y389999D02*
X-668D01*
X1997Y391999D02*
Y388000D01*
X3997D01*
X4663Y388666D01*
Y391332D01*
X3997Y391999D01*
X1997D01*
X5996Y391332D02*
X6663Y391999D01*
X7995D01*
X8662Y391332D01*
Y390666D01*
X7995Y389999D01*
X7329D01*
X7995D01*
X8662Y389333D01*
Y388666D01*
X7995Y388000D01*
X6663D01*
X5996Y388666D01*
X42000Y311999D02*
Y308000D01*
X44666D01*
X48665Y311999D02*
X45999D01*
Y308000D01*
X48665D01*
X45999Y309999D02*
X47332D01*
X49997Y311999D02*
Y308000D01*
X51997D01*
X52663Y308666D01*
Y311332D01*
X51997Y311999D01*
X49997D01*
X53996Y311332D02*
X54663Y311999D01*
X55996D01*
X56662Y311332D01*
Y310666D01*
X55996Y309999D01*
X56662Y309333D01*
Y308666D01*
X55996Y308000D01*
X54663D01*
X53996Y308666D01*
Y309333D01*
X54663Y309999D01*
X53996Y310666D01*
Y311332D01*
X54663Y309999D02*
X55996D01*
X43000Y284999D02*
Y281000D01*
X45666D01*
X49665Y284999D02*
X46999D01*
Y281000D01*
X49665D01*
X46999Y282999D02*
X48332D01*
X50997Y284999D02*
Y281000D01*
X52997D01*
X53663Y281666D01*
Y284332D01*
X52997Y284999D01*
X50997D01*
X54996D02*
X57662D01*
Y284332D01*
X54996Y281666D01*
Y281000D01*
X771279Y341815D02*
Y337817D01*
X773278D01*
X773944Y338483D01*
Y341149D01*
X773278Y341815D01*
X771279D01*
X777943Y341149D02*
X777277Y341815D01*
X775944D01*
X775277Y341149D01*
Y338483D01*
X775944Y337817D01*
X777277D01*
X777943Y338483D01*
X779276Y341815D02*
X781942D01*
Y341149D01*
X779276Y338483D01*
Y337817D01*
X589000Y339999D02*
Y336000D01*
X590999D01*
X591666Y336666D01*
Y339332D01*
X590999Y339999D01*
X589000D01*
X595665Y339332D02*
X594998Y339999D01*
X593665D01*
X592999Y339332D01*
Y336666D01*
X593665Y336000D01*
X594998D01*
X595665Y336666D01*
X599663Y339999D02*
X596997D01*
Y337999D01*
X598330Y338666D01*
X598997D01*
X599663Y337999D01*
Y336666D01*
X598997Y336000D01*
X597664D01*
X596997Y336666D01*
X410000Y341999D02*
Y338000D01*
X411999D01*
X412666Y338666D01*
Y341332D01*
X411999Y341999D01*
X410000D01*
X416665Y341332D02*
X415998Y341999D01*
X414665D01*
X413999Y341332D01*
Y338666D01*
X414665Y338000D01*
X415998D01*
X416665Y338666D01*
X417997Y341332D02*
X418664Y341999D01*
X419997D01*
X420663Y341332D01*
Y340666D01*
X419997Y339999D01*
X419330D01*
X419997D01*
X420663Y339333D01*
Y338666D01*
X419997Y338000D01*
X418664D01*
X417997Y338666D01*
X231000Y340999D02*
Y337000D01*
X232999D01*
X233666Y337666D01*
Y340332D01*
X232999Y340999D01*
X231000D01*
X237665Y340332D02*
X236998Y340999D01*
X235665D01*
X234999Y340332D01*
Y337666D01*
X235665Y337000D01*
X236998D01*
X237665Y337666D01*
X238997Y337000D02*
X240330D01*
X239664D01*
Y340999D01*
X238997Y340332D01*
X99000Y782999D02*
Y779000D01*
X100999D01*
X101666Y779666D01*
Y782332D01*
X100999Y782999D01*
X99000D01*
X105665Y782332D02*
X104998Y782999D01*
X103665D01*
X102999Y782332D01*
Y779666D01*
X103665Y779000D01*
X104998D01*
X105665Y779666D01*
X109663Y779000D02*
X106997D01*
X109663Y781666D01*
Y782332D01*
X108997Y782999D01*
X107664D01*
X106997Y782332D01*
X280000Y783999D02*
Y780000D01*
X281999D01*
X282666Y780666D01*
Y783332D01*
X281999Y783999D01*
X280000D01*
X286665Y783332D02*
X285998Y783999D01*
X284665D01*
X283999Y783332D01*
Y780666D01*
X284665Y780000D01*
X285998D01*
X286665Y780666D01*
X289997Y780000D02*
Y783999D01*
X287997Y781999D01*
X290663D01*
X459000Y782999D02*
Y779000D01*
X460999D01*
X461666Y779666D01*
Y782332D01*
X460999Y782999D01*
X459000D01*
X465664Y782332D02*
X464998Y782999D01*
X463665D01*
X462999Y782332D01*
Y779666D01*
X463665Y779000D01*
X464998D01*
X465664Y779666D01*
X469663Y782999D02*
X468330Y782332D01*
X466997Y780999D01*
Y779666D01*
X467664Y779000D01*
X468997D01*
X469663Y779666D01*
Y780333D01*
X468997Y780999D01*
X466997D01*
X639000Y782999D02*
Y779000D01*
X640999D01*
X641666Y779666D01*
Y782332D01*
X640999Y782999D01*
X639000D01*
X645665Y782332D02*
X644998Y782999D01*
X643665D01*
X642999Y782332D01*
Y779666D01*
X643665Y779000D01*
X644998D01*
X645665Y779666D01*
X646997Y782332D02*
X647664Y782999D01*
X648997D01*
X649663Y782332D01*
Y781666D01*
X648997Y780999D01*
X649663Y780333D01*
Y779666D01*
X648997Y779000D01*
X647664D01*
X646997Y779666D01*
Y780333D01*
X647664Y780999D01*
X646997Y781666D01*
Y782332D01*
X647664Y780999D02*
X648997D01*
X22666Y363332D02*
X21999Y363999D01*
X20666D01*
X20000Y363332D01*
Y360666D01*
X20666Y360000D01*
X21999D01*
X22666Y360666D01*
X25998Y363999D02*
X24665D01*
X23999Y363332D01*
Y360666D01*
X24665Y360000D01*
X25998D01*
X26665Y360666D01*
Y363332D01*
X25998Y363999D01*
X27997Y360000D02*
Y363999D01*
X30663Y360000D01*
Y363999D01*
X31996Y363332D02*
X32663Y363999D01*
X33996D01*
X34662Y363332D01*
Y362666D01*
X33996Y361999D01*
X33329D01*
X33996D01*
X34662Y361333D01*
Y360666D01*
X33996Y360000D01*
X32663D01*
X31996Y360666D01*
X-9332Y233666D02*
X-9999Y232999D01*
Y231666D01*
X-9332Y231000D01*
X-6667D01*
X-6000Y231666D01*
Y232999D01*
X-6667Y233666D01*
X-9999Y237665D02*
Y234999D01*
X-7999D01*
X-8666Y236332D01*
Y236998D01*
X-7999Y237665D01*
X-6667D01*
X-6000Y236998D01*
Y235665D01*
X-6667Y234999D01*
X103668Y29666D02*
X103001Y28999D01*
Y27666D01*
X103668Y27000D01*
X106333D01*
X107000Y27666D01*
Y28999D01*
X106333Y29666D01*
X107000Y33665D02*
Y30999D01*
X104334Y33665D01*
X103668D01*
X103001Y32998D01*
Y31665D01*
X103668Y30999D01*
Y34997D02*
X103001Y35664D01*
Y36997D01*
X103668Y37663D01*
X104334D01*
X105001Y36997D01*
Y36330D01*
Y36997D01*
X105667Y37663D01*
X106333D01*
X107000Y36997D01*
Y35664D01*
X106333Y34997D01*
X-9332Y132666D02*
X-9999Y131999D01*
Y130666D01*
X-9332Y130000D01*
X-6667D01*
X-6000Y130666D01*
Y131999D01*
X-6667Y132666D01*
X-9332Y133999D02*
X-9999Y134665D01*
Y135998D01*
X-9332Y136664D01*
X-8666D01*
X-7999Y135998D01*
Y135332D01*
Y135998D01*
X-7333Y136664D01*
X-6667D01*
X-6000Y135998D01*
Y134665D01*
X-6667Y133999D01*
X381666Y78332D02*
X380999Y78999D01*
X379666D01*
X379000Y78332D01*
Y75666D01*
X379666Y75000D01*
X380999D01*
X381666Y75666D01*
X384998Y75000D02*
Y78999D01*
X382999Y76999D01*
X385665D01*
X386997Y78999D02*
X389663D01*
Y78332D01*
X386997Y75666D01*
Y75000D01*
X379666Y173332D02*
X378999Y173999D01*
X377666D01*
X377000Y173332D01*
Y170667D01*
X377666Y170000D01*
X378999D01*
X379666Y170667D01*
X382998Y170000D02*
Y173999D01*
X380999Y171999D01*
X383664D01*
X387663Y173999D02*
X386330Y173332D01*
X384997Y171999D01*
Y170667D01*
X385664Y170000D01*
X386997D01*
X387663Y170667D01*
Y171333D01*
X386997Y171999D01*
X384997D01*
X103668Y177666D02*
X103001Y176999D01*
Y175666D01*
X103668Y175000D01*
X106333D01*
X107000Y175666D01*
Y176999D01*
X106333Y177666D01*
X107000Y181665D02*
Y178999D01*
X104334Y181665D01*
X103668D01*
X103001Y180998D01*
Y179665D01*
X103668Y178999D01*
X107000Y185663D02*
Y182997D01*
X104334Y185663D01*
X103668D01*
X103001Y184997D01*
Y183664D01*
X103668Y182997D01*
X-9332Y183666D02*
X-9999Y182999D01*
Y181667D01*
X-9332Y181000D01*
X-6667D01*
X-6000Y181667D01*
Y182999D01*
X-6667Y183666D01*
X-6000Y186998D02*
X-9999D01*
X-7999Y184999D01*
Y187664D01*
X193666Y172332D02*
X192999Y172999D01*
X191666D01*
X191000Y172332D01*
Y169667D01*
X191666Y169000D01*
X192999D01*
X193666Y169667D01*
X196998Y169000D02*
Y172999D01*
X194999Y170999D01*
X197664D01*
X201663Y169000D02*
X198997D01*
X201663Y171666D01*
Y172332D01*
X200997Y172999D01*
X199664D01*
X198997Y172332D01*
X40666Y341332D02*
X39999Y341999D01*
X38666D01*
X38000Y341332D01*
Y338666D01*
X38666Y338000D01*
X39999D01*
X40666Y338666D01*
X41999Y338000D02*
X43332D01*
X42665D01*
Y341999D01*
X41999Y341332D01*
X47997Y338000D02*
X45331D01*
X47997Y340666D01*
Y341332D01*
X47330Y341999D01*
X45997D01*
X45331Y341332D01*
X43666Y361332D02*
X42999Y361999D01*
X41666D01*
X41000Y361332D01*
Y358666D01*
X41666Y358000D01*
X42999D01*
X43666Y358666D01*
X44999Y358000D02*
X46332D01*
X45665D01*
Y361999D01*
X44999Y361332D01*
X48331D02*
X48997Y361999D01*
X50330D01*
X50997Y361332D01*
Y360666D01*
X50330Y359999D01*
X49664D01*
X50330D01*
X50997Y359333D01*
Y358666D01*
X50330Y358000D01*
X48997D01*
X48331Y358666D01*
X75666Y355332D02*
X74999Y355999D01*
X73666D01*
X73000Y355332D01*
Y352666D01*
X73666Y352000D01*
X74999D01*
X75666Y352666D01*
X79664Y352000D02*
X76999D01*
X79664Y354666D01*
Y355332D01*
X78998Y355999D01*
X77665D01*
X76999Y355332D01*
X80997D02*
X81664Y355999D01*
X82997D01*
X83663Y355332D01*
Y352666D01*
X82997Y352000D01*
X81664D01*
X80997Y352666D01*
Y355332D01*
X168668Y354666D02*
X168001Y353999D01*
Y352666D01*
X168668Y352000D01*
X171334D01*
X172000Y352666D01*
Y353999D01*
X171334Y354666D01*
X168668Y355999D02*
X168001Y356665D01*
Y357998D01*
X168668Y358664D01*
X169334D01*
X170001Y357998D01*
Y357332D01*
Y357998D01*
X170667Y358664D01*
X171334D01*
X172000Y357998D01*
Y356665D01*
X171334Y355999D01*
X172000Y362663D02*
Y359997D01*
X169334Y362663D01*
X168668D01*
X168001Y361997D01*
Y360664D01*
X168668Y359997D01*
X143668Y450666D02*
X143001Y449999D01*
Y448666D01*
X143668Y448000D01*
X146334D01*
X147000Y448666D01*
Y449999D01*
X146334Y450666D01*
X143668Y451999D02*
X143001Y452665D01*
Y453998D01*
X143668Y454665D01*
X144334D01*
X145001Y453998D01*
Y453332D01*
Y453998D01*
X145667Y454665D01*
X146334D01*
X147000Y453998D01*
Y452665D01*
X146334Y451999D01*
X143001Y458663D02*
Y455997D01*
X145001D01*
X144334Y457330D01*
Y457997D01*
X145001Y458663D01*
X146334D01*
X147000Y457997D01*
Y456664D01*
X146334Y455997D01*
X146666Y421332D02*
X145999Y421999D01*
X144667D01*
X144000Y421332D01*
Y418666D01*
X144667Y418000D01*
X145999D01*
X146666Y418666D01*
X147999Y421332D02*
X148665Y421999D01*
X149998D01*
X150664Y421332D01*
Y420666D01*
X149998Y419999D01*
X149332D01*
X149998D01*
X150664Y419333D01*
Y418666D01*
X149998Y418000D01*
X148665D01*
X147999Y418666D01*
X151997Y421332D02*
X152664Y421999D01*
X153997D01*
X154663Y421332D01*
Y420666D01*
X153997Y419999D01*
X154663Y419333D01*
Y418666D01*
X153997Y418000D01*
X152664D01*
X151997Y418666D01*
Y419333D01*
X152664Y419999D01*
X151997Y420666D01*
Y421332D01*
X152664Y419999D02*
X153997D01*
X146666Y407332D02*
X145999Y407999D01*
X144667D01*
X144000Y407332D01*
Y404666D01*
X144667Y404000D01*
X145999D01*
X146666Y404666D01*
X147999Y407332D02*
X148665Y407999D01*
X149998D01*
X150664Y407332D01*
Y406666D01*
X149998Y405999D01*
X149332D01*
X149998D01*
X150664Y405333D01*
Y404666D01*
X149998Y404000D01*
X148665D01*
X147999Y404666D01*
X151997D02*
X152664Y404000D01*
X153997D01*
X154663Y404666D01*
Y407332D01*
X153997Y407999D01*
X152664D01*
X151997Y407332D01*
Y406666D01*
X152664Y405999D01*
X154663D01*
X146666Y387332D02*
X145999Y387999D01*
X144667D01*
X144000Y387332D01*
Y384666D01*
X144667Y384000D01*
X145999D01*
X146666Y384666D01*
X147999Y387332D02*
X148665Y387999D01*
X149998D01*
X150664Y387332D01*
Y386666D01*
X149998Y385999D01*
X149332D01*
X149998D01*
X150664Y385333D01*
Y384666D01*
X149998Y384000D01*
X148665D01*
X147999Y384666D01*
X154663Y387999D02*
X153330Y387332D01*
X151997Y385999D01*
Y384666D01*
X152664Y384000D01*
X153997D01*
X154663Y384666D01*
Y385333D01*
X153997Y385999D01*
X151997D01*
X90668Y464666D02*
X90001Y463999D01*
Y462666D01*
X90668Y462000D01*
X93334D01*
X94000Y462666D01*
Y463999D01*
X93334Y464666D01*
X94000Y468665D02*
Y465999D01*
X91334Y468665D01*
X90668D01*
X90001Y467998D01*
Y466665D01*
X90668Y465999D01*
X90001Y469997D02*
Y472663D01*
X90668D01*
X93334Y469997D01*
X94000D01*
X149668Y449666D02*
X149001Y448999D01*
Y447666D01*
X149668Y447000D01*
X152333D01*
X153000Y447666D01*
Y448999D01*
X152333Y449666D01*
X149668Y450999D02*
X149001Y451665D01*
Y452998D01*
X149668Y453664D01*
X150334D01*
X151001Y452998D01*
Y452332D01*
Y452998D01*
X151667Y453664D01*
X152333D01*
X153000Y452998D01*
Y451665D01*
X152333Y450999D01*
X149001Y454997D02*
Y457663D01*
X149668D01*
X152333Y454997D01*
X153000D01*
X65666Y472332D02*
X64999Y472999D01*
X63666D01*
X63000Y472332D01*
Y469666D01*
X63666Y469000D01*
X64999D01*
X65666Y469666D01*
X66999Y469000D02*
X68332D01*
X67665D01*
Y472999D01*
X66999Y472332D01*
X70331Y472999D02*
X72997D01*
Y472332D01*
X70331Y469666D01*
Y469000D01*
X149668Y354666D02*
X149001Y353999D01*
Y352666D01*
X149668Y352000D01*
X152333D01*
X153000Y352666D01*
Y353999D01*
X152333Y354666D01*
X149668Y355999D02*
X149001Y356665D01*
Y357998D01*
X149668Y358664D01*
X150334D01*
X151001Y357998D01*
Y357332D01*
Y357998D01*
X151667Y358664D01*
X152333D01*
X153000Y357998D01*
Y356665D01*
X152333Y355999D01*
X149668Y359997D02*
X149001Y360664D01*
Y361997D01*
X149668Y362663D01*
X152333D01*
X153000Y361997D01*
Y360664D01*
X152333Y359997D01*
X149668D01*
X143668Y354666D02*
X143001Y353999D01*
Y352666D01*
X143668Y352000D01*
X146334D01*
X147000Y352666D01*
Y353999D01*
X146334Y354666D01*
X147000Y358664D02*
Y355999D01*
X144334Y358664D01*
X143668D01*
X143001Y357998D01*
Y356665D01*
X143668Y355999D01*
X146334Y359997D02*
X147000Y360664D01*
Y361997D01*
X146334Y362663D01*
X143668D01*
X143001Y361997D01*
Y360664D01*
X143668Y359997D01*
X144334D01*
X145001Y360664D01*
Y362663D01*
X137668Y354666D02*
X137001Y353999D01*
Y352666D01*
X137668Y352000D01*
X140333D01*
X141000Y352666D01*
Y353999D01*
X140333Y354666D01*
X141000Y358664D02*
Y355999D01*
X138334Y358664D01*
X137668D01*
X137001Y357998D01*
Y356665D01*
X137668Y355999D01*
Y359997D02*
X137001Y360664D01*
Y361997D01*
X137668Y362663D01*
X138334D01*
X139001Y361997D01*
X139667Y362663D01*
X140333D01*
X141000Y361997D01*
Y360664D01*
X140333Y359997D01*
X139667D01*
X139001Y360664D01*
X138334Y359997D01*
X137668D01*
X139001Y360664D02*
Y361997D01*
X157666Y361332D02*
X156999Y361999D01*
X155666D01*
X155000Y361332D01*
Y358666D01*
X155666Y358000D01*
X156999D01*
X157666Y358666D01*
X158999Y361332D02*
X159665Y361999D01*
X160998D01*
X161664Y361332D01*
Y360666D01*
X160998Y359999D01*
X160332D01*
X160998D01*
X161664Y359333D01*
Y358666D01*
X160998Y358000D01*
X159665D01*
X158999Y358666D01*
X162997Y358000D02*
X164330D01*
X163664D01*
Y361999D01*
X162997Y361332D01*
X19666Y423332D02*
X18999Y423999D01*
X17666D01*
X17000Y423332D01*
Y420666D01*
X17666Y420000D01*
X18999D01*
X19666Y420666D01*
X20999D02*
X21665Y420000D01*
X22998D01*
X23664Y420666D01*
Y423332D01*
X22998Y423999D01*
X21665D01*
X20999Y423332D01*
Y422666D01*
X21665Y421999D01*
X23664D01*
X83666Y599332D02*
X82999Y599999D01*
X81666D01*
X81000Y599332D01*
Y596666D01*
X81666Y596000D01*
X82999D01*
X83666Y596666D01*
X84999Y596000D02*
X86332D01*
X85665D01*
Y599999D01*
X84999Y599332D01*
X88331D02*
X88997Y599999D01*
X90330D01*
X90997Y599332D01*
Y598666D01*
X90330Y597999D01*
X90997Y597333D01*
Y596666D01*
X90330Y596000D01*
X88997D01*
X88331Y596666D01*
Y597333D01*
X88997Y597999D01*
X88331Y598666D01*
Y599332D01*
X88997Y597999D02*
X90330D01*
X30668Y595666D02*
X30001Y594999D01*
Y593666D01*
X30668Y593000D01*
X33334D01*
X34000Y593666D01*
Y594999D01*
X33334Y595666D01*
X34000Y596999D02*
Y598332D01*
Y597665D01*
X30001D01*
X30668Y596999D01*
X34000Y600331D02*
Y601664D01*
Y600997D01*
X30001D01*
X30668Y600331D01*
X30666Y396332D02*
X29999Y396999D01*
X28666D01*
X28000Y396332D01*
Y393666D01*
X28666Y393000D01*
X29999D01*
X30666Y393666D01*
X31999Y396332D02*
X32665Y396999D01*
X33998D01*
X34664Y396332D01*
Y395666D01*
X33998Y394999D01*
X34664Y394333D01*
Y393666D01*
X33998Y393000D01*
X32665D01*
X31999Y393666D01*
Y394333D01*
X32665Y394999D01*
X31999Y395666D01*
Y396332D01*
X32665Y394999D02*
X33998D01*
X30666Y383332D02*
X29999Y383999D01*
X28666D01*
X28000Y383332D01*
Y380666D01*
X28666Y380000D01*
X29999D01*
X30666Y380666D01*
X31999Y383999D02*
X34664D01*
Y383332D01*
X31999Y380666D01*
Y380000D01*
X80666Y472332D02*
X79999Y472999D01*
X78666D01*
X78000Y472332D01*
Y469666D01*
X78666Y469000D01*
X79999D01*
X80666Y469666D01*
X84664Y469000D02*
X81999D01*
X84664Y471666D01*
Y472332D01*
X83998Y472999D01*
X82665D01*
X81999Y472332D01*
X85997Y469000D02*
X87330D01*
X86664D01*
Y472999D01*
X85997Y472332D01*
X73666Y656332D02*
X72999Y656999D01*
X71666D01*
X71000Y656332D01*
Y653666D01*
X71666Y653000D01*
X72999D01*
X73666Y653666D01*
X74999Y653000D02*
X76332D01*
X75665D01*
Y656999D01*
X74999Y656332D01*
X78331Y653666D02*
X78997Y653000D01*
X80330D01*
X80997Y653666D01*
Y656332D01*
X80330Y656999D01*
X78997D01*
X78331Y656332D01*
Y655666D01*
X78997Y654999D01*
X80997D01*
X142666Y480332D02*
X141999Y480999D01*
X140666D01*
X140000Y480332D01*
Y477666D01*
X140666Y477000D01*
X141999D01*
X142666Y477666D01*
X143999Y480332D02*
X144665Y480999D01*
X145998D01*
X146665Y480332D01*
Y479666D01*
X145998Y478999D01*
X145332D01*
X145998D01*
X146665Y478333D01*
Y477666D01*
X145998Y477000D01*
X144665D01*
X143999Y477666D01*
X149997Y477000D02*
Y480999D01*
X147997Y478999D01*
X150663D01*
X77910Y478332D02*
X77243Y478999D01*
X75911D01*
X75244Y478332D01*
Y475666D01*
X75911Y475000D01*
X77243D01*
X77910Y475666D01*
X79243Y475000D02*
X80576D01*
X79909D01*
Y478999D01*
X79243Y478332D01*
X85241Y478999D02*
X83908Y478332D01*
X82575Y476999D01*
Y475666D01*
X83241Y475000D01*
X84574D01*
X85241Y475666D01*
Y476333D01*
X84574Y476999D01*
X82575D01*
X47666Y463332D02*
X46999Y463999D01*
X45666D01*
X45000Y463332D01*
Y460666D01*
X45666Y460000D01*
X46999D01*
X47666Y460666D01*
X48999Y460000D02*
X50332D01*
X49665D01*
Y463999D01*
X48999Y463332D01*
X54330Y460000D02*
Y463999D01*
X52331Y461999D01*
X54997D01*
X559666Y112332D02*
X558999Y112999D01*
X557666D01*
X557000Y112332D01*
Y109667D01*
X557666Y109000D01*
X558999D01*
X559666Y109667D01*
X563664Y112999D02*
X560999D01*
Y110999D01*
X562332Y111666D01*
X562998D01*
X563664Y110999D01*
Y109667D01*
X562998Y109000D01*
X561665D01*
X560999Y109667D01*
X564997Y109000D02*
X566330D01*
X565664D01*
Y112999D01*
X564997Y112332D01*
X545666D02*
X544999Y112999D01*
X543666D01*
X543000Y112332D01*
Y109667D01*
X543666Y109000D01*
X544999D01*
X545666Y109667D01*
X549664Y112999D02*
X546999D01*
Y110999D01*
X548332Y111666D01*
X548998D01*
X549664Y110999D01*
Y109667D01*
X548998Y109000D01*
X547665D01*
X546999Y109667D01*
X550997Y112332D02*
X551664Y112999D01*
X552997D01*
X553663Y112332D01*
Y109667D01*
X552997Y109000D01*
X551664D01*
X550997Y109667D01*
Y112332D01*
X104668Y125666D02*
X104001Y124999D01*
Y123667D01*
X104668Y123000D01*
X107334D01*
X108000Y123667D01*
Y124999D01*
X107334Y125666D01*
X108000Y129665D02*
Y126999D01*
X105334Y129665D01*
X104668D01*
X104001Y128998D01*
Y127665D01*
X104668Y126999D01*
X104001Y133663D02*
Y130997D01*
X106001D01*
X105334Y132330D01*
Y132997D01*
X106001Y133663D01*
X107334D01*
X108000Y132997D01*
Y131664D01*
X107334Y130997D01*
X85000Y113220D02*
Y109887D01*
X85667Y109221D01*
X86999D01*
X87666Y109887D01*
Y113220D01*
X91664Y109221D02*
X88999D01*
X91664Y111887D01*
Y112553D01*
X90998Y113220D01*
X89665D01*
X88999Y112553D01*
X64000Y-9001D02*
X66666D01*
X65333Y-7668D02*
Y-10334D01*
X67999Y-7001D02*
Y-9667D01*
X69332Y-11000D01*
X70665Y-9667D01*
Y-7001D01*
X71997D02*
Y-11000D01*
X73997D01*
X74663Y-10334D01*
Y-9667D01*
X73997Y-9001D01*
X71997D01*
X73997D01*
X74663Y-8334D01*
Y-7668D01*
X73997Y-7001D01*
X71997D01*
X75996Y-11000D02*
X77329D01*
X76663D01*
Y-7001D01*
X75996Y-7668D01*
X512666Y108332D02*
X511999Y108999D01*
X510666D01*
X510000Y108332D01*
Y105666D01*
X510666Y105000D01*
X511999D01*
X512666Y105666D01*
X515998Y105000D02*
Y108999D01*
X513999Y106999D01*
X516665D01*
X517997Y105666D02*
X518664Y105000D01*
X519997D01*
X520663Y105666D01*
Y108332D01*
X519997Y108999D01*
X518664D01*
X517997Y108332D01*
Y107666D01*
X518664Y106999D01*
X520663D01*
X487666Y118332D02*
X486999Y118999D01*
X485666D01*
X485000Y118332D01*
Y115666D01*
X485666Y115000D01*
X486999D01*
X487666Y115666D01*
X490998Y115000D02*
Y118999D01*
X488999Y116999D01*
X491665D01*
X492997Y118332D02*
X493664Y118999D01*
X494997D01*
X495663Y118332D01*
Y117666D01*
X494997Y116999D01*
X495663Y116333D01*
Y115666D01*
X494997Y115000D01*
X493664D01*
X492997Y115666D01*
Y116333D01*
X493664Y116999D01*
X492997Y117666D01*
Y118332D01*
X493664Y116999D02*
X494997D01*
X432000Y455999D02*
X434666D01*
X433333D01*
Y452000D01*
X435999D02*
Y455999D01*
X437998D01*
X438664Y455332D01*
Y453999D01*
X437998Y453333D01*
X435999D01*
X442663Y452000D02*
X439997D01*
X442663Y454666D01*
Y455332D01*
X441997Y455999D01*
X440664D01*
X439997Y455332D01*
X446662Y452000D02*
X443996D01*
X446662Y454666D01*
Y455332D01*
X445996Y455999D01*
X444663D01*
X443996Y455332D01*
X68000Y303332D02*
X68666Y303999D01*
X69999D01*
X70666Y303332D01*
Y302666D01*
X69999Y301999D01*
X69333D01*
X69999D01*
X70666Y301333D01*
Y300666D01*
X69999Y300000D01*
X68666D01*
X68000Y300666D01*
X71999Y303999D02*
Y301333D01*
X73332Y300000D01*
X74664Y301333D01*
Y303999D01*
X75997Y303332D02*
X76664Y303999D01*
X77997D01*
X78663Y303332D01*
Y302666D01*
X77997Y301999D01*
X77330D01*
X77997D01*
X78663Y301333D01*
Y300666D01*
X77997Y300000D01*
X76664D01*
X75997Y300666D01*
X262000Y447999D02*
X264666D01*
X263333D01*
Y444000D01*
X265999D02*
Y447999D01*
X267998D01*
X268665Y447332D01*
Y445999D01*
X267998Y445333D01*
X265999D01*
X269997Y444000D02*
X271330D01*
X270664D01*
Y447999D01*
X269997Y447332D01*
X275995Y447999D02*
X274663Y447332D01*
X273330Y445999D01*
Y444666D01*
X273996Y444000D01*
X275329D01*
X275995Y444666D01*
Y445333D01*
X275329Y445999D01*
X273330D01*
X70666Y292999D02*
X68000D01*
Y290999D01*
X69333Y291666D01*
X69999D01*
X70666Y290999D01*
Y289666D01*
X69999Y289000D01*
X68666D01*
X68000Y289666D01*
X71999Y292999D02*
Y290333D01*
X73332Y289000D01*
X74664Y290333D01*
Y292999D01*
X50000Y-9001D02*
X52666D01*
X53999Y-7001D02*
Y-9667D01*
X55332Y-11000D01*
X56665Y-9667D01*
Y-7001D01*
X57997Y-11000D02*
Y-8334D01*
X59330Y-7001D01*
X60663Y-8334D01*
Y-11000D01*
Y-9001D01*
X57997D01*
X61996Y-11000D02*
X63329D01*
X62663D01*
Y-7001D01*
X61996Y-7668D01*
X77000Y-9001D02*
X79666D01*
X80999Y-7001D02*
Y-9667D01*
X82332Y-11000D01*
X83665Y-9667D01*
Y-7001D01*
X84997D02*
Y-11000D01*
X86997D01*
X87663Y-10334D01*
Y-9667D01*
X86997Y-9001D01*
X84997D01*
X86997D01*
X87663Y-8334D01*
Y-7668D01*
X86997Y-7001D01*
X84997D01*
X88996Y-11000D02*
X90329D01*
X89663D01*
Y-7001D01*
X88996Y-7668D01*
X47000Y599999D02*
Y596666D01*
X47666Y596000D01*
X48999D01*
X49666Y596666D01*
Y599999D01*
X50999Y596000D02*
X52332D01*
X51665D01*
Y599999D01*
X50999Y599332D01*
X54331D02*
X54997Y599999D01*
X56330D01*
X56997Y599332D01*
Y596666D01*
X56330Y596000D01*
X54997D01*
X54331Y596666D01*
Y599332D01*
X136666Y490332D02*
X135999Y490999D01*
X134667D01*
X134000Y490332D01*
Y487666D01*
X134667Y487000D01*
X135999D01*
X136666Y487666D01*
X137999Y490332D02*
X138665Y490999D01*
X139998D01*
X140665Y490332D01*
Y489666D01*
X139998Y488999D01*
X139332D01*
X139998D01*
X140665Y488333D01*
Y487666D01*
X139998Y487000D01*
X138665D01*
X137999Y487666D01*
X141997Y490332D02*
X142664Y490999D01*
X143997D01*
X144663Y490332D01*
Y489666D01*
X143997Y488999D01*
X143330D01*
X143997D01*
X144663Y488333D01*
Y487666D01*
X143997Y487000D01*
X142664D01*
X141997Y487666D01*
X470000Y295000D02*
Y298999D01*
X471999D01*
X472666Y298332D01*
Y296999D01*
X471999Y296333D01*
X470000D01*
X471333D02*
X472666Y295000D01*
X475998D02*
Y298999D01*
X473999Y296999D01*
X476664D01*
X480663Y298999D02*
X479330Y298332D01*
X477997Y296999D01*
Y295666D01*
X478664Y295000D01*
X479997D01*
X480663Y295666D01*
Y296333D01*
X479997Y296999D01*
X477997D01*
X405525Y262197D02*
Y266196D01*
X406858Y264863D01*
X408191Y266196D01*
Y262197D01*
X409524Y266196D02*
Y262197D01*
Y264197D01*
X412190D01*
Y266196D01*
Y262197D01*
X413523D02*
X414856D01*
X414189D01*
Y266196D01*
X413523Y265530D01*
X416855D02*
X417521Y266196D01*
X418854D01*
X419521Y265530D01*
Y264863D01*
X418854Y264197D01*
X418188D01*
X418854D01*
X419521Y263530D01*
Y262864D01*
X418854Y262197D01*
X417521D01*
X416855Y262864D01*
X407000Y754000D02*
Y757999D01*
X408333Y756666D01*
X409666Y757999D01*
Y754000D01*
X410999Y757999D02*
Y754000D01*
Y755999D01*
X413664D01*
Y757999D01*
Y754000D01*
X414997D02*
X416330D01*
X415664D01*
Y757999D01*
X414997Y757332D01*
X420996Y754000D02*
X418330D01*
X420996Y756666D01*
Y757332D01*
X420329Y757999D01*
X418996D01*
X418330Y757332D01*
X256259Y754235D02*
Y758234D01*
X257592Y756901D01*
X258925Y758234D01*
Y754235D01*
X260258Y758234D02*
Y754235D01*
Y756235D01*
X262924D01*
Y758234D01*
Y754235D01*
X264257Y754902D02*
X264923Y754235D01*
X266256D01*
X266922Y754902D01*
Y757568D01*
X266256Y758234D01*
X264923D01*
X264257Y757568D01*
Y756901D01*
X264923Y756235D01*
X266922D01*
X285000Y505000D02*
Y508999D01*
X286333Y507666D01*
X287666Y508999D01*
Y505000D01*
X288999Y508999D02*
Y505000D01*
Y506999D01*
X291665D01*
Y508999D01*
Y505000D01*
X292997D02*
X294330D01*
X293664D01*
Y508999D01*
X292997Y508332D01*
X296330D02*
X296996Y508999D01*
X298329D01*
X298995Y508332D01*
Y505666D01*
X298329Y505000D01*
X296996D01*
X296330Y505666D01*
Y508332D01*
X13000Y771000D02*
Y774999D01*
X14333Y773666D01*
X15666Y774999D01*
Y771000D01*
X16999Y774999D02*
Y771000D01*
Y772999D01*
X19665D01*
Y774999D01*
Y771000D01*
X20997D02*
X22330D01*
X21664D01*
Y774999D01*
X20997Y774332D01*
X331700Y167999D02*
Y164666D01*
X332366Y164000D01*
X333699D01*
X334366Y164666D01*
Y167999D01*
X338365Y164000D02*
X335699D01*
X338365Y166666D01*
Y167332D01*
X337698Y167999D01*
X336365D01*
X335699Y167332D01*
X339697D02*
X340364Y167999D01*
X341697D01*
X342363Y167332D01*
Y164666D01*
X341697Y164000D01*
X340364D01*
X339697Y164666D01*
Y167332D01*
X126000Y468999D02*
Y465666D01*
X126666Y465000D01*
X127999D01*
X128666Y465666D01*
Y468999D01*
X129999Y465000D02*
X131332D01*
X130665D01*
Y468999D01*
X129999Y468332D01*
X135997Y468999D02*
X134664Y468332D01*
X133331Y466999D01*
Y465666D01*
X133997Y465000D01*
X135330D01*
X135997Y465666D01*
Y466333D01*
X135330Y466999D01*
X133331D01*
X67666Y497332D02*
X66999Y497999D01*
X65666D01*
X65000Y497332D01*
Y494666D01*
X65666Y494000D01*
X66999D01*
X67666Y494666D01*
X68999Y494000D02*
X70332D01*
X69665D01*
Y497999D01*
X68999Y497332D01*
X74997Y497999D02*
X72331D01*
Y495999D01*
X73664Y496666D01*
X74330D01*
X74997Y495999D01*
Y494666D01*
X74330Y494000D01*
X72997D01*
X72331Y494666D01*
X166666Y124332D02*
X165999Y124999D01*
X164666D01*
X164000Y124332D01*
Y121667D01*
X164666Y121000D01*
X165999D01*
X166666Y121667D01*
X169998Y121000D02*
Y124999D01*
X167999Y122999D01*
X170665D01*
X171997Y124332D02*
X172664Y124999D01*
X173997D01*
X174663Y124332D01*
Y121667D01*
X173997Y121000D01*
X172664D01*
X171997Y121667D01*
Y124332D01*
X63000Y482999D02*
Y479666D01*
X63666Y479000D01*
X64999D01*
X65666Y479666D01*
Y482999D01*
X66999Y479000D02*
X68332D01*
X67665D01*
Y482999D01*
X66999Y482332D01*
X70331D02*
X70997Y482999D01*
X72330D01*
X72997Y482332D01*
Y481666D01*
X72330Y480999D01*
X71664D01*
X72330D01*
X72997Y480333D01*
Y479666D01*
X72330Y479000D01*
X70997D01*
X70331Y479666D01*
X86000Y164030D02*
Y160698D01*
X86667Y160031D01*
X87999D01*
X88666Y160698D01*
Y164030D01*
X89999Y163364D02*
X90665Y164030D01*
X91998D01*
X92664Y163364D01*
Y162697D01*
X91998Y162031D01*
X91332D01*
X91998D01*
X92664Y161364D01*
Y160698D01*
X91998Y160031D01*
X90665D01*
X89999Y160698D01*
X246000Y447000D02*
Y450999D01*
X247999D01*
X248666Y450332D01*
Y448999D01*
X247999Y448333D01*
X246000D01*
X247333D02*
X248666Y447000D01*
X251998D02*
Y450999D01*
X249999Y448999D01*
X252664D01*
X253997Y450332D02*
X254664Y450999D01*
X255997D01*
X256663Y450332D01*
Y447666D01*
X255997Y447000D01*
X254664D01*
X253997Y447666D01*
Y450332D01*
X428000Y446000D02*
Y449999D01*
X429999D01*
X430666Y449332D01*
Y447999D01*
X429999Y447333D01*
X428000D01*
X429333D02*
X430666Y446000D01*
X433998D02*
Y449999D01*
X431999Y447999D01*
X434664D01*
X437997Y446000D02*
Y449999D01*
X435997Y447999D01*
X438663D01*
X609000Y473000D02*
Y476999D01*
X610999D01*
X611666Y476332D01*
Y474999D01*
X610999Y474333D01*
X609000D01*
X610333D02*
X611666Y473000D01*
X614998D02*
Y476999D01*
X612999Y474999D01*
X615664D01*
X616997Y473666D02*
X617664Y473000D01*
X618997D01*
X619663Y473666D01*
Y476332D01*
X618997Y476999D01*
X617664D01*
X616997Y476332D01*
Y475666D01*
X617664Y474999D01*
X619663D01*
X767000Y474000D02*
Y477999D01*
X768999D01*
X769666Y477332D01*
Y475999D01*
X768999Y475333D01*
X767000D01*
X768333D02*
X769666Y474000D01*
X773665Y477999D02*
X770999D01*
Y475999D01*
X772332Y476666D01*
X772998D01*
X773665Y475999D01*
Y474666D01*
X772998Y474000D01*
X771665D01*
X770999Y474666D01*
X774997Y477332D02*
X775664Y477999D01*
X776997D01*
X777663Y477332D01*
Y476666D01*
X776997Y475999D01*
X776330D01*
X776997D01*
X777663Y475333D01*
Y474666D01*
X776997Y474000D01*
X775664D01*
X774997Y474666D01*
X609000Y445000D02*
Y448999D01*
X610999D01*
X611666Y448332D01*
Y446999D01*
X610999Y446333D01*
X609000D01*
X610333D02*
X611666Y445000D01*
X615664Y448999D02*
X612999D01*
Y446999D01*
X614332Y447666D01*
X614998D01*
X615664Y446999D01*
Y445666D01*
X614998Y445000D01*
X613665D01*
X612999Y445666D01*
X616997Y448332D02*
X617664Y448999D01*
X618997D01*
X619663Y448332D01*
Y445666D01*
X618997Y445000D01*
X617664D01*
X616997Y445666D01*
Y448332D01*
X766000Y447000D02*
Y450999D01*
X767999D01*
X768666Y450332D01*
Y448999D01*
X767999Y448333D01*
X766000D01*
X767333D02*
X768666Y447000D01*
X772664Y450999D02*
X769999D01*
Y448999D01*
X771332Y449666D01*
X771998D01*
X772664Y448999D01*
Y447666D01*
X771998Y447000D01*
X770665D01*
X769999Y447666D01*
X775997Y447000D02*
Y450999D01*
X773997Y448999D01*
X776663D01*
X646000Y14000D02*
Y17999D01*
X647333Y16666D01*
X648666Y17999D01*
Y14000D01*
X649999Y17999D02*
Y14000D01*
Y15999D01*
X652665D01*
Y17999D01*
Y14000D01*
X656663D02*
X653997D01*
X656663Y16666D01*
Y17332D01*
X655997Y17999D01*
X654664D01*
X653997Y17332D01*
X659996Y14000D02*
Y17999D01*
X657996Y15999D01*
X660662D01*
X357666Y63332D02*
X356999Y63999D01*
X355666D01*
X355000Y63332D01*
Y60666D01*
X355666Y60000D01*
X356999D01*
X357666Y60666D01*
X360998Y60000D02*
Y63999D01*
X358999Y61999D01*
X361665D01*
X365663Y63999D02*
X362997D01*
Y61999D01*
X364330Y62666D01*
X364997D01*
X365663Y61999D01*
Y60666D01*
X364997Y60000D01*
X363664D01*
X362997Y60666D01*
X104668Y77666D02*
X104001Y76999D01*
Y75666D01*
X104668Y75000D01*
X107334D01*
X108000Y75666D01*
Y76999D01*
X107334Y77666D01*
X108000Y81665D02*
Y78999D01*
X105334Y81665D01*
X104668D01*
X104001Y80998D01*
Y79665D01*
X104668Y78999D01*
X104001Y85663D02*
X104668Y84330D01*
X106001Y82997D01*
X107334D01*
X108000Y83664D01*
Y84997D01*
X107334Y85663D01*
X106667D01*
X106001Y84997D01*
Y82997D01*
X-9332Y82666D02*
X-9999Y81999D01*
Y80666D01*
X-9332Y80000D01*
X-6667D01*
X-6000Y80666D01*
Y81999D01*
X-6667Y82666D01*
X-6000Y86664D02*
Y83999D01*
X-8666Y86664D01*
X-9332D01*
X-9999Y85998D01*
Y84665D01*
X-9332Y83999D01*
X353666Y126132D02*
X352999Y126799D01*
X351666D01*
X351000Y126132D01*
Y123467D01*
X351666Y122800D01*
X352999D01*
X353666Y123467D01*
X356998Y122800D02*
Y126799D01*
X354999Y124799D01*
X357664D01*
X360997Y122800D02*
Y126799D01*
X358997Y124799D01*
X361663D01*
X-9332Y43666D02*
X-9999Y42999D01*
Y41666D01*
X-9332Y41000D01*
X-6667D01*
X-6000Y41666D01*
Y42999D01*
X-6667Y43666D01*
X-6000Y44999D02*
Y46332D01*
Y45665D01*
X-9999D01*
X-9332Y44999D01*
X41666Y323332D02*
X40999Y323999D01*
X39666D01*
X39000Y323332D01*
Y320666D01*
X39666Y320000D01*
X40999D01*
X41666Y320666D01*
X45665Y323999D02*
X44332Y323332D01*
X42999Y321999D01*
Y320666D01*
X43665Y320000D01*
X44998D01*
X45665Y320666D01*
Y321333D01*
X44998Y321999D01*
X42999D01*
X587000Y754000D02*
Y757999D01*
X588333Y756666D01*
X589666Y757999D01*
Y754000D01*
X590999Y757999D02*
Y754000D01*
Y755999D01*
X593665D01*
Y757999D01*
Y754000D01*
X594997D02*
X596330D01*
X595664D01*
Y757999D01*
X594997Y757332D01*
X598330Y754666D02*
X598996Y754000D01*
X600329D01*
X600995Y754666D01*
Y757332D01*
X600329Y757999D01*
X598996D01*
X598330Y757332D01*
Y756666D01*
X598996Y755999D01*
X600995D01*
X767000Y755000D02*
Y758999D01*
X768333Y757666D01*
X769666Y758999D01*
Y755000D01*
X770999Y758999D02*
Y755000D01*
Y756999D01*
X773665D01*
Y758999D01*
Y755000D01*
X777663D02*
X774997D01*
X777663Y757666D01*
Y758332D01*
X776997Y758999D01*
X775664D01*
X774997Y758332D01*
X781662Y758999D02*
X780329Y758332D01*
X778996Y756999D01*
Y755666D01*
X779663Y755000D01*
X780996D01*
X781662Y755666D01*
Y756333D01*
X780996Y756999D01*
X778996D01*
X644000Y539000D02*
Y542999D01*
X645333Y541666D01*
X646666Y542999D01*
Y539000D01*
X647999Y542999D02*
Y539000D01*
Y540999D01*
X650665D01*
Y542999D01*
Y539000D01*
X654663D02*
X651997D01*
X654663Y541666D01*
Y542332D01*
X653997Y542999D01*
X652664D01*
X651997Y542332D01*
X655996D02*
X656663Y542999D01*
X657996D01*
X658662Y542332D01*
Y541666D01*
X657996Y540999D01*
X657329D01*
X657996D01*
X658662Y540333D01*
Y539666D01*
X657996Y539000D01*
X656663D01*
X655996Y539666D01*
X6814Y620933D02*
X6148Y621600D01*
X4815D01*
X4148Y620933D01*
Y618268D01*
X4815Y617601D01*
X6148D01*
X6814Y618268D01*
X10147Y621600D02*
X8814D01*
X8147Y620933D01*
Y618268D01*
X8814Y617601D01*
X10147D01*
X10813Y618268D01*
Y620933D01*
X10147Y621600D01*
X12146Y617601D02*
Y621600D01*
X14812Y617601D01*
Y621600D01*
X16145Y617601D02*
X17478D01*
X16811D01*
Y621600D01*
X16145Y620933D01*
X25668Y554666D02*
X25001Y553999D01*
Y552666D01*
X25668Y552000D01*
X28334D01*
X29000Y552666D01*
Y553999D01*
X28334Y554666D01*
X29000Y555999D02*
Y557332D01*
Y556665D01*
X25001D01*
X25668Y555999D01*
Y559331D02*
X25001Y559997D01*
Y561330D01*
X25668Y561997D01*
X28334D01*
X29000Y561330D01*
Y559997D01*
X28334Y559331D01*
X25668D01*
X103668Y232666D02*
X103001Y231999D01*
Y230666D01*
X103668Y230000D01*
X106333D01*
X107000Y230666D01*
Y231999D01*
X106333Y232666D01*
X107000Y236665D02*
Y233999D01*
X104334Y236665D01*
X103668D01*
X103001Y235998D01*
Y234665D01*
X103668Y233999D01*
X107000Y239997D02*
X103001D01*
X105001Y237997D01*
Y240663D01*
X198474Y73554D02*
X197808Y74220D01*
X196475D01*
X195808Y73554D01*
Y70888D01*
X196475Y70221D01*
X197808D01*
X198474Y70888D01*
X201806Y70221D02*
Y74220D01*
X199807Y72221D01*
X202473D01*
X203806Y73554D02*
X204472Y74220D01*
X205805D01*
X206472Y73554D01*
Y72887D01*
X205805Y72221D01*
X205139D01*
X205805D01*
X206472Y71554D01*
Y70888D01*
X205805Y70221D01*
X204472D01*
X203806Y70888D01*
X176474Y59554D02*
X175808Y60220D01*
X174475D01*
X173808Y59554D01*
Y56888D01*
X174475Y56221D01*
X175808D01*
X176474Y56888D01*
X179806Y56221D02*
Y60220D01*
X177807Y58221D01*
X180473D01*
X181806Y56221D02*
X183139D01*
X182472D01*
Y60220D01*
X181806Y59554D01*
D11*
X55181Y546229D02*
G03*
X55181Y546229I-1181J0D01*
G01*
X60567Y334438D02*
G03*
X60567Y334438I-1181J0D01*
G01*
X56094Y378643D02*
G03*
X56094Y378643I-1181J0D01*
G01*
X71689Y557497D02*
G03*
X71689Y557497I-1181J0D01*
G01*
Y609497D02*
G03*
X71689Y609497I-1181J0D01*
G01*
D12*
X46992Y547229D02*
G03*
X46992Y547229I-492J0D01*
G01*
X370603Y69800D02*
G03*
X370603Y69800I-492J0D01*
G01*
X187411Y66021D02*
G03*
X187411Y66021I-492J0D01*
G01*
X185603Y130804D02*
G03*
X185603Y130804I-492J0D01*
G01*
X54937Y326072D02*
G03*
X54937Y326072I-492J0D01*
G01*
X50287Y368997D02*
G03*
X50287Y368997I-492J0D01*
G01*
X25469Y473887D02*
G03*
X25469Y473887I-492J0D01*
G01*
X80252Y553383D02*
G03*
X80252Y553383I-492J0D01*
G01*
Y605383D02*
G03*
X80252Y605383I-492J0D01*
G01*
X30697Y657485D02*
G03*
X30697Y657485I-492J0D01*
G01*
Y680485D02*
G03*
X30697Y680485I-492J0D01*
G01*
Y702485D02*
G03*
X30697Y702485I-492J0D01*
G01*
X18429Y303303D02*
G03*
X18429Y303303I-492J0D01*
G01*
X111216Y472800D02*
G03*
X111216Y472800I-492J0D01*
G01*
X43918Y473341D02*
G03*
X43918Y473341I-492J0D01*
G01*
X370603Y131604D02*
G03*
X370603Y131604I-492J0D01*
G01*
D13*
X350000Y397000D02*
G03*
X346000Y393000I0J-4000D01*
G01*
X405000Y392000D02*
G03*
X400000Y397000I-5000J0D01*
G01*
Y377000D02*
G03*
X405000Y382000I0J5000D01*
G01*
X346000D02*
G03*
X351000Y377000I5000J0D01*
G01*
X419000Y372000D02*
X590790D01*
X605964Y356826D01*
X648299D02*
X659667Y345459D01*
X605964Y356826D02*
X648299D01*
X464955D02*
X476000Y345781D01*
X455964Y356826D02*
X464955D01*
X417000Y366000D02*
X425964Y357036D01*
Y356826D02*
Y357036D01*
X645500Y415826D02*
X656864Y427190D01*
X605964Y415826D02*
X645500D01*
X591488Y401350D02*
X605964Y415826D01*
X417991Y407527D02*
X425964Y415500D01*
X221536Y407527D02*
X417991D01*
X425964Y415500D02*
Y415826D01*
X467826D02*
X479000Y427000D01*
X455964Y415826D02*
X467826D01*
X683492Y345413D02*
X683587D01*
X392422Y345422D02*
X419000Y372000D01*
X388396Y345422D02*
X392422D01*
X229000Y366000D02*
X417000D01*
X208548Y345548D02*
X229000Y366000D01*
X206805Y345548D02*
X208548D01*
X410697Y401303D02*
X591488D01*
X384807Y427193D02*
X410697Y401303D01*
X382799Y427193D02*
X384807D01*
X201666Y427397D02*
X221536Y407527D01*
X350000Y397000D02*
X400000D01*
X405000Y382000D02*
Y392000D01*
X351000Y377000D02*
X400000D01*
X346000Y382000D02*
Y393000D01*
D14*
X115865Y479591D02*
G03*
X115865Y479591I-900J0D01*
G01*
X48566Y480133D02*
G03*
X48566Y480133I-900J0D01*
G01*
D15*
X774964Y427326D02*
X784964D01*
Y497326D01*
X774964Y427326D02*
Y497326D01*
X784964D01*
X594964D02*
X604964D01*
X594964Y427326D02*
Y497326D01*
X604964Y427326D02*
Y497326D01*
X594964Y427326D02*
X604964D01*
X414964D02*
X424964D01*
Y497326D01*
X414964Y427326D02*
Y497326D01*
X424964D01*
X637520Y275425D02*
X647520D01*
Y345425D01*
X637520Y275425D02*
Y345425D01*
X647520D01*
X457520D02*
X467520D01*
X457520Y275425D02*
Y345425D01*
X467520Y275425D02*
Y345425D01*
X457520Y275425D02*
X467520D01*
X234964Y497326D02*
X244964D01*
X234964Y427326D02*
Y497326D01*
X244964Y427326D02*
Y497326D01*
X234964Y427326D02*
X244964D01*
X97520Y345425D02*
X107520D01*
X97520Y275425D02*
Y345425D01*
X107520Y275425D02*
Y345425D01*
X97520Y275425D02*
X107520D01*
X277520D02*
X287520D01*
Y345425D01*
X277520Y275425D02*
Y345425D01*
X287520D01*
X97976Y715307D02*
X108476D01*
Y745307D01*
X97976D02*
X108476D01*
X97976Y715307D02*
Y745307D01*
X244499Y27429D02*
Y57429D01*
X233999Y27429D02*
X244499D01*
X233999D02*
Y57429D01*
X244499D01*
X593999D02*
X604499D01*
X593999Y27429D02*
Y57429D01*
Y27429D02*
X604499D01*
Y57429D01*
X637976Y715307D02*
Y745307D01*
X648476D01*
Y715307D02*
Y745307D01*
X637976Y715307D02*
X648476D01*
X277976D02*
X288476D01*
Y745307D01*
X277976D02*
X288476D01*
X277976Y715307D02*
Y745307D01*
X424499Y27429D02*
Y57429D01*
X413999Y27429D02*
X424499D01*
X413999D02*
Y57429D01*
X424499D01*
X773999D02*
X784499D01*
X773999Y27429D02*
Y57429D01*
Y27429D02*
X784499D01*
Y57429D01*
X457976Y715307D02*
Y745307D01*
X468476D01*
Y715307D02*
Y745307D01*
X457976Y715307D02*
X468476D01*
X635964Y415826D02*
Y426326D01*
X605964D02*
X635964D01*
X605964Y415826D02*
Y426326D01*
Y415826D02*
X635964D01*
X425964D02*
X455964D01*
X425964D02*
Y426326D01*
X455964D01*
Y415826D02*
Y426326D01*
Y346826D02*
Y357326D01*
X425964D02*
X455964D01*
X425964Y346826D02*
Y357326D01*
Y346826D02*
X455964D01*
X605964D02*
X635964D01*
X605964D02*
Y357326D01*
X635964D01*
Y346826D02*
Y357326D01*
X768791Y466200D02*
Y467300D01*
X771791Y466200D02*
Y467300D01*
X653791Y304300D02*
Y305400D01*
X650791Y304300D02*
Y305400D01*
X609791Y465200D02*
Y466300D01*
X612791Y465200D02*
Y466300D01*
X473791Y304300D02*
Y305400D01*
X470791Y304300D02*
Y305400D01*
X20791Y610200D02*
Y611300D01*
X23791Y610200D02*
Y611300D01*
X37791Y411056D02*
Y412156D01*
X34791Y411056D02*
Y412156D01*
X137791Y434200D02*
Y435300D01*
X140791Y434200D02*
Y435300D01*
X121791Y345300D02*
Y346400D01*
X118791Y345300D02*
Y346400D01*
X89500Y346500D02*
X90600D01*
X89500Y349500D02*
X90600D01*
X136791Y397200D02*
Y398300D01*
X139791Y397200D02*
Y398300D01*
X30791Y568200D02*
Y569300D01*
X33791Y568200D02*
Y569300D01*
X30791Y620200D02*
Y621300D01*
X33791Y620200D02*
Y621300D01*
Y579300D02*
Y580400D01*
X30791Y579300D02*
Y580400D01*
X33791Y630300D02*
Y631400D01*
X30791Y630300D02*
Y631400D01*
X23791Y632300D02*
Y633400D01*
X20791Y632300D02*
Y633400D01*
X34791Y482300D02*
X35891D01*
X34791Y485300D02*
X35891D01*
X101791Y482300D02*
X102891D01*
X101791Y485300D02*
X102891D01*
X110791Y486300D02*
Y487400D01*
X107791Y486300D02*
Y487400D01*
X39791Y470200D02*
Y471300D01*
X42791Y470200D02*
Y471300D01*
X104791Y470200D02*
Y471300D01*
X107791Y470200D02*
Y471300D01*
X43791Y486300D02*
Y487400D01*
X40791Y486300D02*
Y487400D01*
X58500Y495500D02*
X59600D01*
X58500Y498500D02*
X59600D01*
X122791Y495300D02*
X123891D01*
X122791Y498300D02*
X123891D01*
X650791Y314200D02*
Y315300D01*
X653791Y314200D02*
Y315300D01*
X470791Y314200D02*
Y315300D01*
X473791Y314200D02*
Y315300D01*
X612791Y455300D02*
Y456400D01*
X609791Y455300D02*
Y456400D01*
X771791Y456300D02*
Y457400D01*
X768791Y456300D02*
Y457400D01*
X50791Y341200D02*
Y342300D01*
X53791Y341200D02*
Y342300D01*
X59201Y360972D02*
X60300D01*
X59201Y357972D02*
X60300D01*
X79479Y360639D02*
X80579D01*
X79479Y357639D02*
X80579D01*
X127926Y357410D02*
Y358510D01*
X130926Y357410D02*
Y358510D01*
X135500Y454500D02*
Y455600D01*
X132500Y454500D02*
Y455600D01*
X137791Y421200D02*
Y422300D01*
X140791Y421200D02*
Y422300D01*
Y408300D02*
Y409400D01*
X137791Y408300D02*
Y409400D01*
X139791Y387300D02*
Y388400D01*
X136791Y387300D02*
Y388400D01*
X98791Y466300D02*
Y467400D01*
X95791Y466300D02*
Y467400D01*
X140500Y454500D02*
Y455600D01*
X137500Y454500D02*
Y455600D01*
X68791Y463300D02*
Y464400D01*
X65791Y463300D02*
Y464400D01*
X113791Y353200D02*
Y354300D01*
X116791Y353200D02*
Y354300D01*
X111875Y355300D02*
Y356400D01*
X108875Y355300D02*
Y356400D01*
X103791Y355200D02*
Y356300D01*
X106791Y355200D02*
Y356300D01*
X121791D02*
X122891D01*
X121791Y359300D02*
X122891D01*
X32691Y423300D02*
X33791D01*
X32691Y420300D02*
X33791D01*
X74791Y596300D02*
X75891D01*
X74791Y599300D02*
X75891D01*
X33791Y609300D02*
Y610400D01*
X30791Y609300D02*
Y610400D01*
X32691Y403300D02*
X33791D01*
X32691Y400300D02*
X33791D01*
X32691Y377300D02*
X33791D01*
X32691Y374300D02*
X33791D01*
X81791Y463300D02*
Y464400D01*
X78791Y463300D02*
Y464400D01*
X74791Y648300D02*
X75891D01*
X74791Y651300D02*
X75891D01*
X133500Y477500D02*
X134600D01*
X133500Y480500D02*
X134600D01*
X68500Y474500D02*
X69600D01*
X68500Y477500D02*
X69600D01*
X60791Y463300D02*
Y464400D01*
X57791Y463300D02*
Y464400D01*
X33791Y557300D02*
Y558400D01*
X30791Y557300D02*
Y558400D01*
X63791Y487444D02*
Y488544D01*
X66791Y487444D02*
Y488544D01*
X129791Y486444D02*
Y487544D01*
X132791Y486444D02*
Y487544D01*
X560791Y118300D02*
X561891D01*
X560791Y121300D02*
X561891D01*
X569142Y111516D02*
Y114666D01*
X575441Y111516D02*
Y114666D01*
X523142Y111516D02*
Y114666D01*
X529441Y111516D02*
Y114666D01*
X293791Y332300D02*
Y333400D01*
X290791Y332300D02*
Y333400D01*
X378241Y84200D02*
Y85300D01*
X381241Y84200D02*
Y85300D01*
X381644Y165500D02*
X382744D01*
X381644Y162500D02*
X382744D01*
X385065Y159279D02*
X388215D01*
X385065Y152979D02*
X388215D01*
X385166Y91650D02*
X388315D01*
X385166Y97950D02*
X388315D01*
X353575Y71611D02*
X362434D01*
Y97989D01*
X353575D02*
X362434D01*
X170384Y67832D02*
X179242D01*
Y94210D01*
X170384D02*
X179242D01*
X201266Y87628D02*
X204415D01*
X201266Y93927D02*
X204415D01*
X195400Y164500D02*
X196500D01*
X195400Y161500D02*
X196500D01*
X199457Y157950D02*
X202607D01*
X199457Y151650D02*
X202607D01*
X168575Y132615D02*
X177434D01*
Y158993D01*
X168575D02*
X177434D01*
X78791Y14200D02*
Y15300D01*
X81791Y14200D02*
Y15300D01*
X66791Y14200D02*
Y15300D01*
X69791Y14200D02*
Y15300D01*
X54791Y14200D02*
Y15300D01*
X57791Y14200D02*
Y15300D01*
X42791Y14200D02*
Y15300D01*
X45791Y14200D02*
Y15300D01*
X97309Y98621D02*
Y99721D01*
X100309Y98621D02*
Y99721D01*
X97084Y147231D02*
Y148331D01*
X100084Y147231D02*
Y148331D01*
X96559Y196602D02*
Y197702D01*
X99559Y196602D02*
Y197702D01*
X96500Y48400D02*
Y49500D01*
X99500Y48400D02*
Y49500D01*
Y249500D02*
Y250600D01*
X96500Y249500D02*
Y250600D01*
X112791Y331300D02*
Y332400D01*
X109791Y331300D02*
Y332400D01*
X101611Y351215D02*
Y355152D01*
X99839Y351215D02*
X101611D01*
X92949D02*
Y355152D01*
Y351215D02*
X94721D01*
X77791Y344200D02*
Y345300D01*
X80791Y344200D02*
Y345300D01*
X58791Y291444D02*
Y292544D01*
X61791Y291444D02*
Y292544D01*
Y301544D02*
Y302644D01*
X58791Y301544D02*
Y302644D01*
X75134Y330501D02*
Y343099D01*
X55449Y330501D02*
Y343099D01*
X75134D01*
X55449Y330501D02*
X75134D01*
X59201Y355300D02*
X60300D01*
X59201Y352300D02*
X60300D01*
X123024Y374706D02*
Y446753D01*
X50976Y374706D02*
Y446753D01*
X123024D01*
X50976Y374706D02*
X123024D01*
X10791Y405300D02*
X11891D01*
X10791Y408300D02*
X11891D01*
X10791Y393300D02*
X11891D01*
X10791Y396300D02*
X11891D01*
X10791Y381300D02*
X11891D01*
X10791Y384300D02*
X11891D01*
X10791Y369300D02*
X11891D01*
X10791Y372300D02*
X11891D01*
X28520Y460698D02*
X32063D01*
X28520Y472902D02*
X32063D01*
Y460698D02*
Y472902D01*
X28520Y460698D02*
Y472902D01*
X74445Y553560D02*
Y594898D01*
X47673Y553560D02*
Y594898D01*
Y553560D02*
X74445D01*
X47673Y594898D02*
X74445D01*
Y605560D02*
Y646898D01*
X47673Y605560D02*
Y646898D01*
Y605560D02*
X74445D01*
X47673Y646898D02*
X74445D01*
X43394Y661028D02*
Y664572D01*
X31189Y661028D02*
Y664572D01*
X43394D01*
X31189Y661028D02*
X43394D01*
Y684028D02*
Y687572D01*
X31189Y684028D02*
Y687572D01*
X43394D01*
X31189Y684028D02*
X43394D01*
Y706028D02*
Y709572D01*
X31189Y706028D02*
Y709572D01*
X43394D01*
X31189Y706028D02*
X43394D01*
X9000Y271000D02*
X19000D01*
X31500Y283394D02*
Y298500D01*
X-3500Y283500D02*
Y298500D01*
X9000Y311000D02*
X19000D01*
X3150Y187425D02*
Y190575D01*
X-3150Y187425D02*
Y190575D01*
X3150Y237425D02*
Y240575D01*
X-3150Y237425D02*
Y240575D01*
X3150Y136425D02*
Y139575D01*
X-3150Y136425D02*
Y139575D01*
X112299Y477032D02*
X128441D01*
X112299Y486087D02*
X128441D01*
X112299Y477032D02*
Y486087D01*
X128441Y477032D02*
Y486087D01*
X45001Y477573D02*
X61142D01*
X45001Y486629D02*
X61142D01*
X45001Y477573D02*
Y486629D01*
X61142Y477573D02*
Y486629D01*
X250791Y439200D02*
Y440300D01*
X247791Y439200D02*
Y440300D01*
X431791Y439200D02*
Y440300D01*
X428791Y439200D02*
Y440300D01*
X353575Y159793D02*
X362434D01*
Y133415D02*
Y159793D01*
X353575Y133415D02*
X362434D01*
X168035Y130300D02*
X169135D01*
X168035Y127300D02*
X169135D01*
X-3150Y86425D02*
Y89575D01*
X3150Y86425D02*
Y89575D01*
X515791Y121300D02*
X516891D01*
X515791Y118300D02*
X516891D01*
X197844Y80177D02*
Y81277D01*
X194844Y80177D02*
Y81277D01*
X175157Y65521D02*
X176257D01*
X175157Y62521D02*
X176257D01*
X357485Y69300D02*
X358585D01*
X357485Y66300D02*
X358585D01*
X354515Y131873D02*
X355615D01*
X354515Y128873D02*
X355615D01*
X3150Y36425D02*
Y39575D01*
X-3150Y36425D02*
Y39575D01*
X27425Y324150D02*
X30575D01*
X27425Y317850D02*
X30575D01*
D16*
X80291Y4800D02*
X81791D01*
X78791D02*
X80291D01*
X68417Y3163D02*
X69917D01*
X66917D02*
X68417D01*
X56291Y4800D02*
X57791D01*
X54791D02*
X56291D01*
X44418Y3284D02*
X45918D01*
X42918D02*
X44418D01*
X64291Y282300D02*
Y283800D01*
Y285300D01*
Y309800D02*
Y311300D01*
Y308300D02*
Y309800D01*
X-709Y406800D02*
Y408300D01*
Y405300D02*
Y406800D01*
Y394800D02*
Y396300D01*
Y393300D02*
Y394800D01*
Y381300D02*
Y382800D01*
Y384300D01*
Y369300D02*
Y370800D01*
Y372300D01*
D17*
X634071Y359670D02*
D03*
X634179Y413065D02*
D03*
X454189Y359225D02*
D03*
X453814Y413609D02*
D03*
X-6966Y473670D02*
D03*
X94657Y720720D02*
D03*
X247657Y491720D02*
D03*
X274658Y720720D02*
D03*
X427658Y491720D02*
D03*
X454658Y720720D02*
D03*
X607657Y492720D02*
D03*
X634657Y739720D02*
D03*
X771658Y491720D02*
D03*
X770657Y52720D02*
D03*
X634657Y280720D02*
D03*
X607657Y52720D02*
D03*
X454658Y280720D02*
D03*
X427658Y52720D02*
D03*
X274658Y280720D02*
D03*
X247657Y52149D02*
D03*
X93657Y280720D02*
D03*
X13657Y60720D02*
D03*
Y109720D02*
D03*
Y159720D02*
D03*
Y210720D02*
D03*
X14658Y260720D02*
D03*
X2657Y321720D02*
D03*
X20500Y536693D02*
D03*
Y672500D02*
D03*
D18*
X-8922Y458800D02*
D03*
M02*
