G04*
G04 #@! TF.GenerationSoftware,Altium Limited,Altium Designer,24.9.1 (31)*
G04*
G04 Layer_Color=8388736*
%FSLAX44Y44*%
%MOMM*%
G71*
G04*
G04 #@! TF.SameCoordinates,CAE2FAD2-8FEE-4D69-87A0-5B06E0BA760C*
G04*
G04*
G04 #@! TF.FilePolarity,Negative*
G04*
G01*
G75*
%ADD24R,1.1532X1.1532*%
%ADD25R,2.9032X2.9032*%
%ADD26R,1.8032X1.2032*%
%ADD27R,1.1532X1.1532*%
%ADD28O,2.1032X0.8032*%
%ADD29R,1.5032X2.0032*%
%ADD30R,2.0032X1.5032*%
%ADD31C,1.4732*%
%ADD32R,1.4732X1.4732*%
%ADD33C,5.2032*%
%ADD34R,2.2032X2.2032*%
%ADD35C,2.2032*%
%ADD36C,1.8032*%
%ADD37R,1.8032X1.8032*%
%ADD38C,5.7032*%
%ADD39C,0.8636*%
D24*
X455930Y754380D02*
D03*
X438930D02*
D03*
X610380D02*
D03*
X627380D02*
D03*
X279790Y1169670D02*
D03*
X296790D02*
D03*
D25*
X556880Y1296670D02*
D03*
X494680D02*
D03*
X556880Y1220470D02*
D03*
X494680D02*
D03*
D26*
X519430Y1118870D02*
D03*
X570230D02*
D03*
X519430Y749300D02*
D03*
X570230D02*
D03*
X544830Y1118870D02*
D03*
Y749300D02*
D03*
D27*
X633730Y1065140D02*
D03*
Y1048140D02*
D03*
Y876300D02*
D03*
Y859300D02*
D03*
X311150Y1169670D02*
D03*
Y1152670D02*
D03*
X462280Y873760D02*
D03*
Y856760D02*
D03*
Y825500D02*
D03*
Y842500D02*
D03*
Y795410D02*
D03*
Y812410D02*
D03*
Y955820D02*
D03*
Y972820D02*
D03*
Y1034660D02*
D03*
Y1017660D02*
D03*
Y987180D02*
D03*
Y1004180D02*
D03*
D28*
X497330Y1050290D02*
D03*
Y1037590D02*
D03*
Y1024890D02*
D03*
Y1012190D02*
D03*
Y999490D02*
D03*
Y986790D02*
D03*
Y974090D02*
D03*
Y961390D02*
D03*
X592330Y1050290D02*
D03*
Y1037590D02*
D03*
Y1024890D02*
D03*
Y1012190D02*
D03*
Y999490D02*
D03*
Y986790D02*
D03*
Y974090D02*
D03*
Y961390D02*
D03*
X497330Y886460D02*
D03*
Y873760D02*
D03*
Y861060D02*
D03*
Y848360D02*
D03*
Y835660D02*
D03*
Y822960D02*
D03*
Y810260D02*
D03*
Y797560D02*
D03*
X592330Y886460D02*
D03*
Y873760D02*
D03*
Y861060D02*
D03*
Y848360D02*
D03*
Y835660D02*
D03*
Y822960D02*
D03*
Y810260D02*
D03*
Y797560D02*
D03*
D29*
X418360Y1336040D02*
D03*
X389360D02*
D03*
D30*
X602553Y1299210D02*
D03*
Y1270210D02*
D03*
D31*
X342900Y874470D02*
D03*
Y897270D02*
D03*
Y920070D02*
D03*
Y942870D02*
D03*
Y965670D02*
D03*
X393700Y897270D02*
D03*
Y920070D02*
D03*
Y942870D02*
D03*
Y965670D02*
D03*
X368300Y954270D02*
D03*
Y931470D02*
D03*
Y908670D02*
D03*
Y885870D02*
D03*
Y863070D02*
D03*
X715010Y960680D02*
D03*
Y937880D02*
D03*
Y915080D02*
D03*
Y892280D02*
D03*
Y869480D02*
D03*
X664210Y937880D02*
D03*
Y915080D02*
D03*
Y892280D02*
D03*
Y869480D02*
D03*
X689610Y880880D02*
D03*
Y903680D02*
D03*
Y926480D02*
D03*
Y949280D02*
D03*
Y972080D02*
D03*
D32*
X393300Y874670D02*
D03*
X664610Y960480D02*
D03*
D33*
X368300Y792770D02*
D03*
Y1042670D02*
D03*
X689610Y1042380D02*
D03*
Y792480D02*
D03*
D34*
X654850Y1299210D02*
D03*
D35*
X704850D02*
D03*
D36*
X419100Y1118870D02*
D03*
Y1144270D02*
D03*
Y1169670D02*
D03*
Y1195070D02*
D03*
Y1245870D02*
D03*
Y1271270D02*
D03*
D37*
Y1296670D02*
D03*
D38*
X288290Y1320800D02*
D03*
X769620Y678180D02*
D03*
X288290D02*
D03*
X770890Y1322070D02*
D03*
D39*
X608330Y822960D02*
D03*
Y835660D02*
D03*
X604520Y1074420D02*
D03*
X544830Y778510D02*
D03*
X519430D02*
D03*
X449580Y845820D02*
D03*
X608330Y848360D02*
D03*
Y886460D02*
D03*
Y1050290D02*
D03*
X544830Y1089660D02*
D03*
X608330Y1024890D02*
D03*
X519430Y1089660D02*
D03*
X608330Y1012190D02*
D03*
Y1037590D02*
D03*
Y873760D02*
D03*
Y861060D02*
D03*
X478790Y854710D02*
D03*
X450850Y821690D02*
D03*
X478790Y972820D02*
D03*
X608330Y999490D02*
D03*
Y986790D02*
D03*
X596900Y754380D02*
D03*
X471170D02*
D03*
X325120Y1169670D02*
D03*
X266700D02*
D03*
X478028Y871220D02*
D03*
X478790Y887730D02*
D03*
X477520Y811530D02*
D03*
X478790Y956310D02*
D03*
X477520Y795020D02*
D03*
X478790Y1050290D02*
D03*
M02*
