M48
;Layer_Color=9474304
;FILE_FORMAT=4:4
METRIC,LZ
;TYPE=PLATED
T01F00S00C0.3556
T02F00S00C0.9000
T03F00S00C1.0000
T04F00S00C1.3000
T05F00S00C3.2000
T06F00S00C3.3000
%
T01
X0047117Y0075438
X0051943Y0077851
X0054483
X005969Y0075438
X0032512Y0116967
X002667
X0047879Y0105029
Y0097282
Y0095631
Y0088773
X00478028Y0087122
X0047879Y0085471
X0044958Y0084582
X0045085Y0082169
X0047752Y0081153
Y0079502
X0060833Y0082296
Y0083566
Y0084836
Y0086106
Y0087376
Y0088646
Y0098679
Y0099949
Y0101219
Y0102489
Y0103759
Y0105029
X0060452Y0107442
X0054483Y0108966
X0051943
T02
X003429Y0087447
Y0089727
Y0092007
Y0094287
Y0096567
X003683Y0095427
Y0093147
Y0090867
Y0088587
Y0086307
X003933Y0087467
X003937Y0089727
Y0092007
Y0094287
Y0096567
X0066461Y0096048
X0066421Y0093788
Y0091508
Y0089228
Y0086948
X0068961Y0088088
Y0090368
Y0092648
Y0094928
Y0097208
X0071501Y0096068
Y0093788
Y0091508
Y0089228
Y0086948
T03
X004191Y0111887
Y0114427
Y0116967
Y0119507
Y0124587
Y0127127
Y0129667
T04
X0065485Y0129921
X0070485
T05
X0068961Y0079248
X003683Y0079277
Y0104267
X0068961Y0104238
T06
X0076962Y0067818
X0028829
X0077089Y0132207
X0028829Y013208
M30
