G04*
G04 #@! TF.GenerationSoftware,Altium Limited,Altium Designer,24.9.1 (31)*
G04*
G04 Layer_Physical_Order=1*
G04 Layer_Color=255*
%FSLAX44Y44*%
%MOMM*%
G71*
G04*
G04 #@! TF.SameCoordinates,CAE2FAD2-8FEE-4D69-87A0-5B06E0BA760C*
G04*
G04*
G04 #@! TF.FilePolarity,Positive*
G04*
G01*
G75*
%ADD14C,0.2540*%
%ADD15C,0.1524*%
%ADD17R,0.9500X0.9500*%
%ADD18R,2.7000X2.7000*%
%ADD19R,1.6000X1.0000*%
%ADD20R,0.9500X0.9500*%
%ADD21O,1.9000X0.6000*%
%ADD22R,1.3000X1.8000*%
%ADD23R,1.8000X1.3000*%
%ADD40C,1.2700*%
%ADD41C,0.5080*%
%ADD42C,1.2700*%
%ADD43R,1.2700X1.2700*%
%ADD44C,5.0000*%
%ADD45R,2.0000X2.0000*%
%ADD46C,2.0000*%
%ADD47C,1.6000*%
%ADD48R,1.6000X1.6000*%
%ADD49C,5.5000*%
%ADD50C,0.6604*%
D14*
X646430Y854710D02*
Y874500D01*
X640080Y848360D02*
X646430Y854710D01*
X608330Y848360D02*
X640080D01*
X592330D02*
X608330D01*
X646430Y874500D02*
X664210Y892280D01*
X592330Y822960D02*
X608330D01*
X592330Y835660D02*
X608330D01*
X586740Y1074420D02*
X604520D01*
X570230Y1090930D02*
Y1118870D01*
Y1090930D02*
X586740Y1074420D01*
X604520D02*
X613800Y1065140D01*
X519430Y1089660D02*
Y1118870D01*
X544830Y1089660D02*
Y1120278D01*
X574500Y750570D02*
X593090D01*
X572332Y748402D02*
X574500Y750570D01*
X593090D02*
X596900Y754380D01*
X610380D01*
X544830Y753110D02*
Y778510D01*
X519430Y753110D02*
Y778510D01*
X398780Y861060D02*
X405130Y867410D01*
Y883920D02*
X422910Y901700D01*
X405130Y867410D02*
Y883920D01*
X415290Y940939D02*
Y979170D01*
X401320Y886460D02*
X419100Y904240D01*
X411480Y943610D02*
Y990600D01*
X422910Y960120D02*
X449970Y987180D01*
X393700Y919349D02*
X415290Y940939D01*
X419100Y970280D02*
X453000Y1004180D01*
X400050Y932180D02*
X411480Y943610D01*
X419100Y904240D02*
Y970280D01*
X422910Y901700D02*
Y960120D01*
X415290Y979170D02*
X453780Y1017660D01*
X411480Y990600D02*
X455208Y1034328D01*
X449970Y987180D02*
X462280D01*
X453780Y1017660D02*
X462280D01*
X461948Y1034328D02*
X462280Y1034660D01*
X455208Y1034328D02*
X461948D01*
X453000Y1004180D02*
X462280D01*
X374650Y897890D02*
X386080Y886460D01*
X401320D01*
X361950Y897890D02*
X374650D01*
X345979Y913861D02*
X361950Y897890D01*
X345979Y913861D02*
Y914242D01*
X342900Y917321D02*
Y920070D01*
Y917321D02*
X345979Y914242D01*
X345949Y891031D02*
X361950Y875030D01*
X372110D01*
X386080Y861060D01*
X398780D01*
X342900Y894521D02*
Y897270D01*
X345949Y891031D02*
Y891471D01*
X342900Y894521D02*
X345949Y891471D01*
X387350Y932180D02*
X400050D01*
X382270Y908700D02*
Y927100D01*
Y908700D02*
X393700Y897270D01*
X382270Y927100D02*
X387350Y932180D01*
X662506Y871184D02*
X664210Y869480D01*
X592330Y886460D02*
X608330D01*
X611190Y859300D02*
X633730D01*
X609430Y861060D02*
X611190Y859300D01*
X592330Y861060D02*
X609430D01*
X611850Y876300D02*
X633730D01*
X609310Y873760D02*
X611850Y876300D01*
X592330Y873760D02*
X609310D01*
X613800Y1065140D02*
X633730D01*
X624350Y1047260D02*
X632460D01*
X614680Y1037590D02*
X624350Y1047260D01*
X608330Y1037590D02*
X614680D01*
X592330D02*
X608330D01*
X592330Y1024890D02*
X608330D01*
X592330Y1012190D02*
X608330D01*
X592330Y1050290D02*
X608330D01*
X478790Y972820D02*
X479425Y973455D01*
X496695D02*
X497330Y974090D01*
X479425Y973455D02*
X496695D01*
X462280Y972820D02*
X478790D01*
X592330Y999490D02*
X608330D01*
X592330Y986790D02*
X608330D01*
X455930Y754380D02*
X471170D01*
X311150Y1169670D02*
X325120D01*
X266700D02*
X279790D01*
X479425Y887095D02*
X496695D01*
X478790Y887730D02*
X479425Y887095D01*
X496695D02*
X497330Y886460D01*
X296790Y1157360D02*
Y1168400D01*
Y1157360D02*
X303140Y1151010D01*
X311150D01*
X462280Y811530D02*
X477520D01*
X483870D01*
X478790Y956310D02*
X479568Y957088D01*
X489894Y961390D02*
X497330D01*
X485591Y957088D02*
X489894Y961390D01*
X479568Y957088D02*
X485591D01*
X462770Y956310D02*
X478790D01*
X462280Y955820D02*
X462770Y956310D01*
X477520Y795020D02*
X478620D01*
X481160Y797560D02*
X497330D01*
X478620Y795020D02*
X481160Y797560D01*
X462280Y795410D02*
X462670Y795020D01*
X477520D01*
X478790Y1050290D02*
X497330D01*
X483870Y811530D02*
X485140Y810260D01*
X497330D01*
D15*
X482600Y999490D02*
X497330D01*
X462280Y1004180D02*
X477910D01*
X482600Y999490D01*
X477130Y1017660D02*
X482600Y1012190D01*
X462280Y1017660D02*
X477130D01*
X482600Y1012190D02*
X497330D01*
X462280Y1034660D02*
X472830D01*
X482600Y1024890D01*
X497330D01*
X462280Y987180D02*
X497330D01*
X449580Y845820D02*
X450843D01*
X454163Y842500D01*
X478268Y871742D02*
X488094Y861916D01*
X462280Y825500D02*
X482600D01*
X454943D02*
X462280D01*
X478691Y854809D02*
X478790Y854710D01*
X485140Y848360D01*
X471950Y856760D02*
X473901Y854809D01*
X478691D01*
X462280Y856760D02*
X471950D01*
X485140Y848360D02*
X497330D01*
X450850Y821690D02*
X451133D01*
X454943Y825500D01*
X454163Y842500D02*
X462280D01*
X465478Y839302D02*
X481498D01*
X462280Y842500D02*
X465478Y839302D01*
X481498D02*
X485140Y835660D01*
X474458Y871742D02*
X477506D01*
X478028Y871220D01*
X472440Y873760D02*
X474458Y871742D01*
X462280Y873760D02*
X472440D01*
X488094Y861916D02*
X496474D01*
X497330Y861060D01*
X496060Y811530D02*
X497330D01*
X485140Y835660D02*
X497330D01*
X482600Y825500D02*
X485140Y822960D01*
X497330D01*
D17*
X455930Y754380D02*
D03*
X438930D02*
D03*
X610380D02*
D03*
X627380D02*
D03*
X279790Y1169670D02*
D03*
X296790D02*
D03*
D18*
X556880Y1296670D02*
D03*
X494680D02*
D03*
X556880Y1220470D02*
D03*
X494680D02*
D03*
D19*
X519430Y1118870D02*
D03*
X570230D02*
D03*
X519430Y749300D02*
D03*
X570230D02*
D03*
X544830Y1118870D02*
D03*
Y749300D02*
D03*
D20*
X633730Y1065140D02*
D03*
Y1048140D02*
D03*
Y876300D02*
D03*
Y859300D02*
D03*
X311150Y1169670D02*
D03*
Y1152670D02*
D03*
X462280Y873760D02*
D03*
Y856760D02*
D03*
Y825500D02*
D03*
Y842500D02*
D03*
Y795410D02*
D03*
Y812410D02*
D03*
Y955820D02*
D03*
Y972820D02*
D03*
Y1034660D02*
D03*
Y1017660D02*
D03*
Y987180D02*
D03*
Y1004180D02*
D03*
D21*
X497330Y1050290D02*
D03*
Y1037590D02*
D03*
Y1024890D02*
D03*
Y1012190D02*
D03*
Y999490D02*
D03*
Y986790D02*
D03*
Y974090D02*
D03*
Y961390D02*
D03*
X592330Y1050290D02*
D03*
Y1037590D02*
D03*
Y1024890D02*
D03*
Y1012190D02*
D03*
Y999490D02*
D03*
Y986790D02*
D03*
Y974090D02*
D03*
Y961390D02*
D03*
X497330Y886460D02*
D03*
Y873760D02*
D03*
Y861060D02*
D03*
Y848360D02*
D03*
Y835660D02*
D03*
Y822960D02*
D03*
Y810260D02*
D03*
Y797560D02*
D03*
X592330Y886460D02*
D03*
Y873760D02*
D03*
Y861060D02*
D03*
Y848360D02*
D03*
Y835660D02*
D03*
Y822960D02*
D03*
Y810260D02*
D03*
Y797560D02*
D03*
D22*
X418360Y1336040D02*
D03*
X389360D02*
D03*
D23*
X602553Y1299210D02*
D03*
Y1270210D02*
D03*
D40*
X420750Y1294400D02*
X494680Y1220470D01*
X420750Y1294400D02*
Y1295020D01*
X419720Y1296050D02*
X420750Y1295020D01*
X419100Y1296050D02*
X419720D01*
X418360Y1297410D02*
Y1336040D01*
X396800Y1271270D02*
X419100D01*
X389360Y1278709D02*
X396800Y1271270D01*
X389360Y1278709D02*
Y1336040D01*
X419100Y1271270D02*
X464820Y1225550D01*
X525130Y1188720D02*
X556880Y1220470D01*
X472259Y1188720D02*
X525130D01*
X464820Y1196160D02*
Y1225550D01*
Y1196160D02*
X472259Y1188720D01*
X602553Y1270210D02*
X675850D01*
X521140Y1270210D02*
X602553Y1270210D01*
X494680Y1296670D02*
X521140Y1270210D01*
X675850Y1270210D02*
X704850Y1299210D01*
X603823D02*
X654850D01*
X559420D02*
X603823D01*
X556880Y1296670D02*
X559420Y1299210D01*
D41*
X368300Y792300D02*
X374830D01*
X627380Y754380D02*
X651510D01*
X689610Y792480D01*
X412750Y754380D02*
X438930D01*
X374830Y792300D02*
X412750Y754380D01*
D42*
X342900Y874470D02*
D03*
Y897270D02*
D03*
Y920070D02*
D03*
Y942870D02*
D03*
Y965670D02*
D03*
X393700Y897270D02*
D03*
Y920070D02*
D03*
Y942870D02*
D03*
Y965670D02*
D03*
X368300Y954270D02*
D03*
Y931470D02*
D03*
Y908670D02*
D03*
Y885870D02*
D03*
Y863070D02*
D03*
X715010Y960680D02*
D03*
Y937880D02*
D03*
Y915080D02*
D03*
Y892280D02*
D03*
Y869480D02*
D03*
X664210Y937880D02*
D03*
Y915080D02*
D03*
Y892280D02*
D03*
Y869480D02*
D03*
X689610Y880880D02*
D03*
Y903680D02*
D03*
Y926480D02*
D03*
Y949280D02*
D03*
Y972080D02*
D03*
D43*
X393300Y874670D02*
D03*
X664610Y960480D02*
D03*
D44*
X368300Y792770D02*
D03*
Y1042670D02*
D03*
X689610Y1042380D02*
D03*
Y792480D02*
D03*
D45*
X654850Y1299210D02*
D03*
D46*
X704850D02*
D03*
D47*
X419100Y1118870D02*
D03*
Y1144270D02*
D03*
Y1169670D02*
D03*
Y1195070D02*
D03*
Y1245870D02*
D03*
Y1271270D02*
D03*
D48*
Y1296670D02*
D03*
D49*
X288290Y1320800D02*
D03*
X769620Y678180D02*
D03*
X288290D02*
D03*
X770890Y1322070D02*
D03*
D50*
X608330Y822960D02*
D03*
Y835660D02*
D03*
X604520Y1074420D02*
D03*
X544830Y778510D02*
D03*
X519430D02*
D03*
X449580Y845820D02*
D03*
X608330Y848360D02*
D03*
Y886460D02*
D03*
Y1050290D02*
D03*
X544830Y1089660D02*
D03*
X608330Y1024890D02*
D03*
X519430Y1089660D02*
D03*
X608330Y1012190D02*
D03*
Y1037590D02*
D03*
Y873760D02*
D03*
Y861060D02*
D03*
X478790Y854710D02*
D03*
X450850Y821690D02*
D03*
X478790Y972820D02*
D03*
X608330Y999490D02*
D03*
Y986790D02*
D03*
X596900Y754380D02*
D03*
X471170D02*
D03*
X325120Y1169670D02*
D03*
X266700D02*
D03*
X478028Y871220D02*
D03*
X478790Y887730D02*
D03*
X477520Y811530D02*
D03*
X478790Y956310D02*
D03*
X477520Y795020D02*
D03*
X478790Y1050290D02*
D03*
M02*
