G04*
G04 #@! TF.GenerationSoftware,Altium Limited,Altium Designer,24.9.1 (31)*
G04*
G04 Layer_Physical_Order=2*
G04 Layer_Color=36540*
%FSLAX44Y44*%
%MOMM*%
G71*
G04*
G04 #@! TF.SameCoordinates,CAE2FAD2-8FEE-4D69-87A0-5B06E0BA760C*
G04*
G04*
G04 #@! TF.FilePolarity,Positive*
G04*
G01*
G75*
%ADD14C,0.2540*%
%ADD42C,1.2700*%
%ADD43R,1.2700X1.2700*%
%ADD44C,5.0000*%
%ADD45R,2.0000X2.0000*%
%ADD46C,2.0000*%
%ADD47C,1.6000*%
%ADD48R,1.6000X1.6000*%
%ADD49C,5.5000*%
%ADD50C,0.6604*%
G36*
X453390Y1174750D02*
X508000D01*
Y742950D01*
X254000D01*
Y1207770D01*
X453390D01*
Y1174750D01*
D02*
G37*
G36*
X803910Y742950D02*
X581660D01*
Y1101090D01*
X803910D01*
Y742950D01*
D02*
G37*
%LPC*%
G36*
X420320Y1204340D02*
X417880D01*
X415522Y1203708D01*
X413408Y1202488D01*
X411682Y1200762D01*
X410462Y1198648D01*
X409830Y1196290D01*
Y1193850D01*
X410462Y1191492D01*
X411682Y1189378D01*
X413408Y1187652D01*
X415522Y1186432D01*
X417880Y1185800D01*
X420320D01*
X422678Y1186432D01*
X424792Y1187652D01*
X426518Y1189378D01*
X427738Y1191492D01*
X428370Y1193850D01*
Y1196290D01*
X427738Y1198648D01*
X426518Y1200762D01*
X424792Y1202488D01*
X422678Y1203708D01*
X420320Y1204340D01*
D02*
G37*
G36*
X267970Y1175467D02*
Y1170940D01*
X272497D01*
X271653Y1172979D01*
X270009Y1174623D01*
X267970Y1175467D01*
D02*
G37*
G36*
X265430D02*
X263391Y1174623D01*
X261747Y1172979D01*
X260903Y1170940D01*
X265430D01*
Y1175467D01*
D02*
G37*
G36*
X326029Y1174242D02*
X324211D01*
X322530Y1173546D01*
X321244Y1172260D01*
X320548Y1170579D01*
Y1168761D01*
X321244Y1167080D01*
X322530Y1165794D01*
X324211Y1165098D01*
X326029D01*
X327710Y1165794D01*
X328996Y1167080D01*
X329692Y1168761D01*
Y1170579D01*
X328996Y1172260D01*
X327710Y1173546D01*
X326029Y1174242D01*
D02*
G37*
G36*
X272497Y1168400D02*
X267970D01*
Y1163873D01*
X270009Y1164717D01*
X271653Y1166361D01*
X272497Y1168400D01*
D02*
G37*
G36*
X265430D02*
X260903D01*
X261747Y1166361D01*
X263391Y1164717D01*
X265430Y1163873D01*
Y1168400D01*
D02*
G37*
G36*
X420320Y1178940D02*
X417880D01*
X415522Y1178308D01*
X413408Y1177088D01*
X411682Y1175362D01*
X410462Y1173248D01*
X409830Y1170890D01*
Y1168450D01*
X410462Y1166092D01*
X411682Y1163978D01*
X413408Y1162252D01*
X415522Y1161032D01*
X417880Y1160400D01*
X420320D01*
X422678Y1161032D01*
X424792Y1162252D01*
X426518Y1163978D01*
X427738Y1166092D01*
X428370Y1168450D01*
Y1170890D01*
X427738Y1173248D01*
X426518Y1175362D01*
X424792Y1177088D01*
X422678Y1178308D01*
X420320Y1178940D01*
D02*
G37*
G36*
X420488Y1154810D02*
X420370D01*
Y1145540D01*
X429640D01*
Y1145658D01*
X428922Y1148338D01*
X427534Y1150742D01*
X425572Y1152704D01*
X423168Y1154092D01*
X420488Y1154810D01*
D02*
G37*
G36*
X417830D02*
X417712D01*
X415032Y1154092D01*
X412628Y1152704D01*
X410666Y1150742D01*
X409278Y1148338D01*
X408560Y1145658D01*
Y1145540D01*
X417830D01*
Y1154810D01*
D02*
G37*
G36*
X429640Y1143000D02*
X420370D01*
Y1133730D01*
X420488D01*
X423168Y1134448D01*
X425572Y1135836D01*
X427534Y1137798D01*
X428922Y1140202D01*
X429640Y1142882D01*
Y1143000D01*
D02*
G37*
G36*
X417830D02*
X408560D01*
Y1142882D01*
X409278Y1140202D01*
X410666Y1137798D01*
X412628Y1135836D01*
X415032Y1134448D01*
X417712Y1133730D01*
X417830D01*
Y1143000D01*
D02*
G37*
G36*
X420320Y1128140D02*
X417880D01*
X415522Y1127508D01*
X413408Y1126288D01*
X411682Y1124562D01*
X410462Y1122448D01*
X409830Y1120090D01*
Y1117650D01*
X410462Y1115292D01*
X411682Y1113178D01*
X413408Y1111452D01*
X415522Y1110232D01*
X417880Y1109600D01*
X420320D01*
X422678Y1110232D01*
X424792Y1111452D01*
X426518Y1113178D01*
X427738Y1115292D01*
X428370Y1117650D01*
Y1120090D01*
X427738Y1122448D01*
X426518Y1124562D01*
X424792Y1126288D01*
X422678Y1127508D01*
X420320Y1128140D01*
D02*
G37*
G36*
X480060Y1056087D02*
Y1051560D01*
X484587D01*
X483743Y1053599D01*
X482099Y1055243D01*
X480060Y1056087D01*
D02*
G37*
G36*
X477520D02*
X475481Y1055243D01*
X473837Y1053599D01*
X472993Y1051560D01*
X477520D01*
Y1056087D01*
D02*
G37*
G36*
X484587Y1049020D02*
X480060D01*
Y1044493D01*
X482099Y1045337D01*
X483743Y1046981D01*
X484587Y1049020D01*
D02*
G37*
G36*
X477520D02*
X472993D01*
X473837Y1046981D01*
X475481Y1045337D01*
X477520Y1044493D01*
Y1049020D01*
D02*
G37*
G36*
X370368Y1068940D02*
X366232D01*
X362148Y1068293D01*
X358216Y1067015D01*
X354532Y1065138D01*
X351186Y1062708D01*
X348262Y1059784D01*
X345832Y1056439D01*
X343955Y1052754D01*
X342677Y1048822D01*
X342030Y1044737D01*
Y1040602D01*
X342677Y1036518D01*
X343955Y1032586D01*
X345832Y1028902D01*
X348262Y1025556D01*
X351186Y1022632D01*
X354532Y1020202D01*
X358216Y1018325D01*
X362148Y1017047D01*
X366232Y1016400D01*
X370368D01*
X374452Y1017047D01*
X378384Y1018325D01*
X382068Y1020202D01*
X385414Y1022632D01*
X388338Y1025556D01*
X390768Y1028902D01*
X392645Y1032586D01*
X393923Y1036518D01*
X394570Y1040602D01*
Y1044737D01*
X393923Y1048822D01*
X392645Y1052754D01*
X390768Y1056439D01*
X388338Y1059784D01*
X385414Y1062708D01*
X382068Y1065138D01*
X378384Y1067015D01*
X374452Y1068293D01*
X370368Y1068940D01*
D02*
G37*
G36*
X480060Y978617D02*
Y974090D01*
X484587D01*
X483743Y976129D01*
X482099Y977773D01*
X480060Y978617D01*
D02*
G37*
G36*
X477520D02*
X475481Y977773D01*
X473837Y976129D01*
X472993Y974090D01*
X477520D01*
Y978617D01*
D02*
G37*
G36*
X484587Y971550D02*
X480060D01*
Y967023D01*
X482099Y967867D01*
X483743Y969511D01*
X484587Y971550D01*
D02*
G37*
G36*
X477520D02*
X472993D01*
X473837Y969511D01*
X475481Y967867D01*
X477520Y967023D01*
Y971550D01*
D02*
G37*
G36*
X394703Y973290D02*
X392697D01*
X390759Y972771D01*
X389021Y971768D01*
X387603Y970349D01*
X386599Y968611D01*
X386080Y966673D01*
Y964667D01*
X386599Y962729D01*
X387603Y960991D01*
X389021Y959573D01*
X390759Y958569D01*
X392697Y958050D01*
X394703D01*
X396641Y958569D01*
X398379Y959573D01*
X399798Y960991D01*
X400801Y962729D01*
X401320Y964667D01*
Y966673D01*
X400801Y968611D01*
X399798Y970349D01*
X398379Y971768D01*
X396641Y972771D01*
X394703Y973290D01*
D02*
G37*
G36*
X343903D02*
X341897D01*
X339959Y972771D01*
X338221Y971768D01*
X336802Y970349D01*
X335799Y968611D01*
X335280Y966673D01*
Y964667D01*
X335799Y962729D01*
X336802Y960991D01*
X338221Y959573D01*
X339959Y958569D01*
X341897Y958050D01*
X343903D01*
X345841Y958569D01*
X347579Y959573D01*
X348997Y960991D01*
X350001Y962729D01*
X350520Y964667D01*
Y966673D01*
X350001Y968611D01*
X348997Y970349D01*
X347579Y971768D01*
X345841Y972771D01*
X343903Y973290D01*
D02*
G37*
G36*
X479699Y960882D02*
X477881D01*
X476200Y960186D01*
X474914Y958900D01*
X474218Y957219D01*
Y955401D01*
X474914Y953720D01*
X476200Y952434D01*
X477881Y951738D01*
X479699D01*
X481380Y952434D01*
X482666Y953720D01*
X483362Y955401D01*
Y957219D01*
X482666Y958900D01*
X481380Y960186D01*
X479699Y960882D01*
D02*
G37*
G36*
X369303Y961890D02*
X367297D01*
X365359Y961371D01*
X363621Y960368D01*
X362202Y958949D01*
X361199Y957211D01*
X360680Y955273D01*
Y953267D01*
X361199Y951329D01*
X362202Y949591D01*
X363621Y948173D01*
X365359Y947169D01*
X367297Y946650D01*
X369303D01*
X371241Y947169D01*
X372979Y948173D01*
X374398Y949591D01*
X375401Y951329D01*
X375920Y953267D01*
Y955273D01*
X375401Y957211D01*
X374398Y958949D01*
X372979Y960368D01*
X371241Y961371D01*
X369303Y961890D01*
D02*
G37*
G36*
X394703Y950490D02*
X392697D01*
X390759Y949971D01*
X389021Y948968D01*
X387603Y947549D01*
X386599Y945811D01*
X386080Y943873D01*
Y941867D01*
X386599Y939929D01*
X387603Y938191D01*
X389021Y936773D01*
X390759Y935769D01*
X392697Y935250D01*
X394703D01*
X396641Y935769D01*
X398379Y936773D01*
X399798Y938191D01*
X400801Y939929D01*
X401320Y941867D01*
Y943873D01*
X400801Y945811D01*
X399798Y947549D01*
X398379Y948968D01*
X396641Y949971D01*
X394703Y950490D01*
D02*
G37*
G36*
X343903D02*
X341897D01*
X339959Y949971D01*
X338221Y948968D01*
X336802Y947549D01*
X335799Y945811D01*
X335280Y943873D01*
Y941867D01*
X335799Y939929D01*
X336802Y938191D01*
X338221Y936773D01*
X339959Y935769D01*
X341897Y935250D01*
X343903D01*
X345841Y935769D01*
X347579Y936773D01*
X348997Y938191D01*
X350001Y939929D01*
X350520Y941867D01*
Y943873D01*
X350001Y945811D01*
X348997Y947549D01*
X347579Y948968D01*
X345841Y949971D01*
X343903Y950490D01*
D02*
G37*
G36*
X369303Y939090D02*
X367297D01*
X365359Y938571D01*
X363621Y937568D01*
X362202Y936149D01*
X361199Y934411D01*
X360680Y932473D01*
Y930467D01*
X361199Y928529D01*
X362202Y926791D01*
X363621Y925372D01*
X365359Y924369D01*
X367297Y923850D01*
X369303D01*
X371241Y924369D01*
X372979Y925372D01*
X374398Y926791D01*
X375401Y928529D01*
X375920Y930467D01*
Y932473D01*
X375401Y934411D01*
X374398Y936149D01*
X372979Y937568D01*
X371241Y938571D01*
X369303Y939090D01*
D02*
G37*
G36*
X394703Y927690D02*
X392697D01*
X390759Y927171D01*
X389021Y926168D01*
X387603Y924749D01*
X386599Y923011D01*
X386080Y921073D01*
Y919067D01*
X386599Y917129D01*
X387603Y915391D01*
X389021Y913972D01*
X390759Y912969D01*
X392697Y912450D01*
X394703D01*
X396641Y912969D01*
X398379Y913972D01*
X399798Y915391D01*
X400801Y917129D01*
X401320Y919067D01*
Y921073D01*
X400801Y923011D01*
X399798Y924749D01*
X398379Y926168D01*
X396641Y927171D01*
X394703Y927690D01*
D02*
G37*
G36*
X343903D02*
X341897D01*
X339959Y927171D01*
X338221Y926168D01*
X336802Y924749D01*
X335799Y923011D01*
X335280Y921073D01*
Y919067D01*
X335799Y917129D01*
X336802Y915391D01*
X338221Y913972D01*
X339959Y912969D01*
X341897Y912450D01*
X343903D01*
X345841Y912969D01*
X347579Y913972D01*
X348997Y915391D01*
X350001Y917129D01*
X350520Y919067D01*
Y921073D01*
X350001Y923011D01*
X348997Y924749D01*
X347579Y926168D01*
X345841Y927171D01*
X343903Y927690D01*
D02*
G37*
G36*
X369303Y916290D02*
X367297D01*
X365359Y915771D01*
X363621Y914768D01*
X362202Y913349D01*
X361199Y911611D01*
X360680Y909673D01*
Y907667D01*
X361199Y905729D01*
X362202Y903991D01*
X363621Y902572D01*
X365359Y901569D01*
X367297Y901050D01*
X369303D01*
X371241Y901569D01*
X372979Y902572D01*
X374398Y903991D01*
X375401Y905729D01*
X375920Y907667D01*
Y909673D01*
X375401Y911611D01*
X374398Y913349D01*
X372979Y914768D01*
X371241Y915771D01*
X369303Y916290D01*
D02*
G37*
G36*
X394703Y904890D02*
X392697D01*
X390759Y904371D01*
X389021Y903367D01*
X387603Y901949D01*
X386599Y900211D01*
X386080Y898273D01*
Y896267D01*
X386599Y894329D01*
X387603Y892591D01*
X389021Y891172D01*
X390759Y890169D01*
X392697Y889650D01*
X394703D01*
X396641Y890169D01*
X398379Y891172D01*
X399798Y892591D01*
X400801Y894329D01*
X401320Y896267D01*
Y898273D01*
X400801Y900211D01*
X399798Y901949D01*
X398379Y903367D01*
X396641Y904371D01*
X394703Y904890D01*
D02*
G37*
G36*
X343903D02*
X341897D01*
X339959Y904371D01*
X338221Y903367D01*
X336802Y901949D01*
X335799Y900211D01*
X335280Y898273D01*
Y896267D01*
X335799Y894329D01*
X336802Y892591D01*
X338221Y891172D01*
X339959Y890169D01*
X341897Y889650D01*
X343903D01*
X345841Y890169D01*
X347579Y891172D01*
X348997Y892591D01*
X350001Y894329D01*
X350520Y896267D01*
Y898273D01*
X350001Y900211D01*
X348997Y901949D01*
X347579Y903367D01*
X345841Y904371D01*
X343903Y904890D01*
D02*
G37*
G36*
X480060Y893527D02*
Y889000D01*
X484587D01*
X483743Y891039D01*
X482099Y892683D01*
X480060Y893527D01*
D02*
G37*
G36*
X477520D02*
X475481Y892683D01*
X473837Y891039D01*
X472993Y889000D01*
X477520D01*
Y893527D01*
D02*
G37*
G36*
X484587Y886460D02*
X480060D01*
Y881933D01*
X482099Y882777D01*
X483743Y884421D01*
X484587Y886460D01*
D02*
G37*
G36*
X477520D02*
X472993D01*
X473837Y884421D01*
X475481Y882777D01*
X477520Y881933D01*
Y886460D01*
D02*
G37*
G36*
X369303Y893490D02*
X367297D01*
X365359Y892971D01*
X363621Y891967D01*
X362202Y890549D01*
X361199Y888811D01*
X360680Y886873D01*
Y884867D01*
X361199Y882929D01*
X362202Y881191D01*
X363621Y879772D01*
X365359Y878769D01*
X367297Y878250D01*
X369303D01*
X371241Y878769D01*
X372979Y879772D01*
X374398Y881191D01*
X375401Y882929D01*
X375920Y884867D01*
Y886873D01*
X375401Y888811D01*
X374398Y890549D01*
X372979Y891967D01*
X371241Y892971D01*
X369303Y893490D01*
D02*
G37*
G36*
X344170Y883333D02*
Y875740D01*
X351763D01*
X351184Y877901D01*
X350014Y879929D01*
X348359Y881584D01*
X346331Y882754D01*
X344170Y883333D01*
D02*
G37*
G36*
X341630D02*
X339469Y882754D01*
X337441Y881584D01*
X335786Y879929D01*
X334616Y877901D01*
X334037Y875740D01*
X341630D01*
Y883333D01*
D02*
G37*
G36*
X400920Y882290D02*
X385680D01*
Y867050D01*
X400920D01*
Y882290D01*
D02*
G37*
G36*
X478937Y875792D02*
X477119D01*
X475438Y875096D01*
X474152Y873810D01*
X473456Y872129D01*
Y870311D01*
X474152Y868630D01*
X475438Y867344D01*
X477119Y866648D01*
X478937D01*
X480618Y867344D01*
X481904Y868630D01*
X482600Y870311D01*
Y872129D01*
X481904Y873810D01*
X480618Y875096D01*
X478937Y875792D01*
D02*
G37*
G36*
X351763Y873200D02*
X344170D01*
Y865607D01*
X346331Y866186D01*
X348359Y867356D01*
X350014Y869011D01*
X351184Y871039D01*
X351763Y873200D01*
D02*
G37*
G36*
X341630D02*
X334037D01*
X334616Y871039D01*
X335786Y869011D01*
X337441Y867356D01*
X339469Y866186D01*
X341630Y865607D01*
Y873200D01*
D02*
G37*
G36*
X369303Y870690D02*
X367297D01*
X365359Y870171D01*
X363621Y869167D01*
X362202Y867749D01*
X361199Y866011D01*
X360680Y864073D01*
Y862067D01*
X361199Y860129D01*
X362202Y858391D01*
X363621Y856973D01*
X365359Y855969D01*
X367297Y855450D01*
X369303D01*
X371241Y855969D01*
X372979Y856973D01*
X374398Y858391D01*
X375401Y860129D01*
X375920Y862067D01*
Y864073D01*
X375401Y866011D01*
X374398Y867749D01*
X372979Y869167D01*
X371241Y870171D01*
X369303Y870690D01*
D02*
G37*
G36*
X479699Y859282D02*
X477881D01*
X476200Y858586D01*
X474914Y857300D01*
X474218Y855619D01*
Y853801D01*
X474914Y852120D01*
X476200Y850834D01*
X477881Y850138D01*
X479699D01*
X481380Y850834D01*
X482666Y852120D01*
X483362Y853801D01*
Y855619D01*
X482666Y857300D01*
X481380Y858586D01*
X479699Y859282D01*
D02*
G37*
G36*
X450489Y850392D02*
X448671D01*
X446990Y849696D01*
X445704Y848410D01*
X445008Y846729D01*
Y844911D01*
X445704Y843230D01*
X446990Y841944D01*
X448671Y841248D01*
X450489D01*
X452170Y841944D01*
X453456Y843230D01*
X454152Y844911D01*
Y846729D01*
X453456Y848410D01*
X452170Y849696D01*
X450489Y850392D01*
D02*
G37*
G36*
X451759Y826262D02*
X449941D01*
X448260Y825566D01*
X446974Y824280D01*
X446278Y822599D01*
Y820781D01*
X446974Y819100D01*
X448260Y817814D01*
X449941Y817118D01*
X451759D01*
X453440Y817814D01*
X454726Y819100D01*
X455422Y820781D01*
Y822599D01*
X454726Y824280D01*
X453440Y825566D01*
X451759Y826262D01*
D02*
G37*
G36*
X478790Y817327D02*
Y812800D01*
X483317D01*
X482473Y814839D01*
X480829Y816483D01*
X478790Y817327D01*
D02*
G37*
G36*
X476250D02*
X474211Y816483D01*
X472567Y814839D01*
X471723Y812800D01*
X476250D01*
Y817327D01*
D02*
G37*
G36*
X483317Y810260D02*
X478790D01*
Y805733D01*
X480829Y806577D01*
X482473Y808221D01*
X483317Y810260D01*
D02*
G37*
G36*
X476250D02*
X471723D01*
X472567Y808221D01*
X474211Y806577D01*
X476250Y805733D01*
Y810260D01*
D02*
G37*
G36*
X478429Y799592D02*
X476611D01*
X474930Y798896D01*
X473644Y797610D01*
X472948Y795929D01*
Y794111D01*
X473644Y792430D01*
X474930Y791144D01*
X476611Y790448D01*
X478429D01*
X480110Y791144D01*
X481396Y792430D01*
X482092Y794111D01*
Y795929D01*
X481396Y797610D01*
X480110Y798896D01*
X478429Y799592D01*
D02*
G37*
G36*
X370368Y819040D02*
X366232D01*
X362148Y818393D01*
X358216Y817115D01*
X354532Y815238D01*
X351186Y812808D01*
X348262Y809884D01*
X345832Y806538D01*
X343955Y802854D01*
X342677Y798922D01*
X342030Y794837D01*
Y790703D01*
X342677Y786618D01*
X343955Y782686D01*
X345832Y779001D01*
X348262Y775656D01*
X351186Y772732D01*
X354532Y770302D01*
X358216Y768425D01*
X362148Y767147D01*
X366232Y766500D01*
X370368D01*
X374452Y767147D01*
X378384Y768425D01*
X382068Y770302D01*
X385414Y772732D01*
X388338Y775656D01*
X390768Y779001D01*
X392645Y782686D01*
X393923Y786618D01*
X394570Y790703D01*
Y794837D01*
X393923Y798922D01*
X392645Y802854D01*
X390768Y806538D01*
X388338Y809884D01*
X385414Y812808D01*
X382068Y815238D01*
X378384Y817115D01*
X374452Y818393D01*
X370368Y819040D01*
D02*
G37*
G36*
X472440Y760177D02*
Y755650D01*
X476967D01*
X476123Y757689D01*
X474479Y759333D01*
X472440Y760177D01*
D02*
G37*
G36*
X469900D02*
X467861Y759333D01*
X466217Y757689D01*
X465373Y755650D01*
X469900D01*
Y760177D01*
D02*
G37*
G36*
X476967Y753110D02*
X472440D01*
Y748583D01*
X474479Y749427D01*
X476123Y751071D01*
X476967Y753110D01*
D02*
G37*
G36*
X469900D02*
X465373D01*
X466217Y751071D01*
X467861Y749427D01*
X469900Y748583D01*
Y753110D01*
D02*
G37*
G36*
X605790Y1080217D02*
Y1075690D01*
X610317D01*
X609473Y1077729D01*
X607829Y1079373D01*
X605790Y1080217D01*
D02*
G37*
G36*
X603250D02*
X601211Y1079373D01*
X599567Y1077729D01*
X598723Y1075690D01*
X603250D01*
Y1080217D01*
D02*
G37*
G36*
X610317Y1073150D02*
X605790D01*
Y1068623D01*
X607829Y1069467D01*
X609473Y1071111D01*
X610317Y1073150D01*
D02*
G37*
G36*
X603250D02*
X598723D01*
X599567Y1071111D01*
X601211Y1069467D01*
X603250Y1068623D01*
Y1073150D01*
D02*
G37*
G36*
X609239Y1054862D02*
X607421D01*
X605740Y1054166D01*
X604454Y1052880D01*
X603758Y1051199D01*
Y1049381D01*
X604454Y1047700D01*
X605740Y1046414D01*
X607421Y1045718D01*
X609239D01*
X610920Y1046414D01*
X612206Y1047700D01*
X612902Y1049381D01*
Y1051199D01*
X612206Y1052880D01*
X610920Y1054166D01*
X609239Y1054862D01*
D02*
G37*
G36*
Y1042162D02*
X607421D01*
X605740Y1041466D01*
X604454Y1040180D01*
X603758Y1038499D01*
Y1036681D01*
X604454Y1035000D01*
X605740Y1033714D01*
X607421Y1033018D01*
X609239D01*
X610920Y1033714D01*
X612206Y1035000D01*
X612902Y1036681D01*
Y1038499D01*
X612206Y1040180D01*
X610920Y1041466D01*
X609239Y1042162D01*
D02*
G37*
G36*
X609600Y1030687D02*
Y1026160D01*
X614127D01*
X613283Y1028199D01*
X611639Y1029843D01*
X609600Y1030687D01*
D02*
G37*
G36*
X607060D02*
X605021Y1029843D01*
X603377Y1028199D01*
X602533Y1026160D01*
X607060D01*
Y1030687D01*
D02*
G37*
G36*
X614127Y1023620D02*
X609600D01*
Y1019093D01*
X611639Y1019937D01*
X613283Y1021581D01*
X614127Y1023620D01*
D02*
G37*
G36*
X607060D02*
X602533D01*
X603377Y1021581D01*
X605021Y1019937D01*
X607060Y1019093D01*
Y1023620D01*
D02*
G37*
G36*
X691677Y1068650D02*
X687542D01*
X683458Y1068003D01*
X679526Y1066725D01*
X675842Y1064848D01*
X672496Y1062418D01*
X669572Y1059494D01*
X667142Y1056149D01*
X665265Y1052464D01*
X663987Y1048532D01*
X663340Y1044447D01*
Y1040312D01*
X663987Y1036228D01*
X665265Y1032296D01*
X667142Y1028612D01*
X669572Y1025266D01*
X672496Y1022342D01*
X675842Y1019912D01*
X679526Y1018035D01*
X683458Y1016757D01*
X687542Y1016110D01*
X691677D01*
X695762Y1016757D01*
X699694Y1018035D01*
X703379Y1019912D01*
X706724Y1022342D01*
X709648Y1025266D01*
X712078Y1028612D01*
X713955Y1032296D01*
X715233Y1036228D01*
X715880Y1040312D01*
Y1044447D01*
X715233Y1048532D01*
X713955Y1052464D01*
X712078Y1056149D01*
X709648Y1059494D01*
X706724Y1062418D01*
X703379Y1064848D01*
X699694Y1066725D01*
X695762Y1068003D01*
X691677Y1068650D01*
D02*
G37*
G36*
X609239Y1016762D02*
X607421D01*
X605740Y1016066D01*
X604454Y1014780D01*
X603758Y1013099D01*
Y1011281D01*
X604454Y1009600D01*
X605740Y1008314D01*
X607421Y1007618D01*
X609239D01*
X610920Y1008314D01*
X612206Y1009600D01*
X612902Y1011281D01*
Y1013099D01*
X612206Y1014780D01*
X610920Y1016066D01*
X609239Y1016762D01*
D02*
G37*
G36*
Y1004062D02*
X607421D01*
X605740Y1003366D01*
X604454Y1002080D01*
X603758Y1000399D01*
Y998581D01*
X604454Y996900D01*
X605740Y995614D01*
X607421Y994918D01*
X609239D01*
X610920Y995614D01*
X612206Y996900D01*
X612902Y998581D01*
Y1000399D01*
X612206Y1002080D01*
X610920Y1003366D01*
X609239Y1004062D01*
D02*
G37*
G36*
X609600Y992587D02*
Y988060D01*
X614127D01*
X613283Y990099D01*
X611639Y991743D01*
X609600Y992587D01*
D02*
G37*
G36*
X607060D02*
X605021Y991743D01*
X603377Y990099D01*
X602533Y988060D01*
X607060D01*
Y992587D01*
D02*
G37*
G36*
X614127Y985520D02*
X609600D01*
Y980993D01*
X611639Y981837D01*
X613283Y983481D01*
X614127Y985520D01*
D02*
G37*
G36*
X607060D02*
X602533D01*
X603377Y983481D01*
X605021Y981837D01*
X607060Y980993D01*
Y985520D01*
D02*
G37*
G36*
X690613Y979700D02*
X688607D01*
X686669Y979181D01*
X684931Y978177D01*
X683512Y976759D01*
X682509Y975021D01*
X681990Y973083D01*
Y971077D01*
X682509Y969139D01*
X683512Y967401D01*
X684931Y965983D01*
X686669Y964979D01*
X688607Y964460D01*
X690613D01*
X692551Y964979D01*
X694289Y965983D01*
X695707Y967401D01*
X696711Y969139D01*
X697230Y971077D01*
Y973083D01*
X696711Y975021D01*
X695707Y976759D01*
X694289Y978177D01*
X692551Y979181D01*
X690613Y979700D01*
D02*
G37*
G36*
X716013Y968300D02*
X714007D01*
X712069Y967781D01*
X710331Y966777D01*
X708913Y965359D01*
X707909Y963621D01*
X707390Y961683D01*
Y959677D01*
X707909Y957739D01*
X708913Y956001D01*
X710331Y954583D01*
X712069Y953579D01*
X714007Y953060D01*
X716013D01*
X717951Y953579D01*
X719689Y954583D01*
X721107Y956001D01*
X722111Y957739D01*
X722630Y959677D01*
Y961683D01*
X722111Y963621D01*
X721107Y965359D01*
X719689Y966777D01*
X717951Y967781D01*
X716013Y968300D01*
D02*
G37*
G36*
X672230Y968100D02*
X656990D01*
Y952860D01*
X672230D01*
Y968100D01*
D02*
G37*
G36*
X690613Y956900D02*
X688607D01*
X686669Y956381D01*
X684931Y955378D01*
X683512Y953959D01*
X682509Y952221D01*
X681990Y950283D01*
Y948277D01*
X682509Y946339D01*
X683512Y944601D01*
X684931Y943183D01*
X686669Y942179D01*
X688607Y941660D01*
X690613D01*
X692551Y942179D01*
X694289Y943183D01*
X695707Y944601D01*
X696711Y946339D01*
X697230Y948277D01*
Y950283D01*
X696711Y952221D01*
X695707Y953959D01*
X694289Y955378D01*
X692551Y956381D01*
X690613Y956900D01*
D02*
G37*
G36*
X716013Y945500D02*
X714007D01*
X712069Y944981D01*
X710331Y943978D01*
X708913Y942559D01*
X707909Y940821D01*
X707390Y938883D01*
Y936877D01*
X707909Y934939D01*
X708913Y933201D01*
X710331Y931783D01*
X712069Y930779D01*
X714007Y930260D01*
X716013D01*
X717951Y930779D01*
X719689Y931783D01*
X721107Y933201D01*
X722111Y934939D01*
X722630Y936877D01*
Y938883D01*
X722111Y940821D01*
X721107Y942559D01*
X719689Y943978D01*
X717951Y944981D01*
X716013Y945500D01*
D02*
G37*
G36*
X665213D02*
X663207D01*
X661269Y944981D01*
X659531Y943978D01*
X658112Y942559D01*
X657109Y940821D01*
X656590Y938883D01*
Y936877D01*
X657109Y934939D01*
X658112Y933201D01*
X659531Y931783D01*
X661269Y930779D01*
X663207Y930260D01*
X665213D01*
X667151Y930779D01*
X668889Y931783D01*
X670307Y933201D01*
X671311Y934939D01*
X671830Y936877D01*
Y938883D01*
X671311Y940821D01*
X670307Y942559D01*
X668889Y943978D01*
X667151Y944981D01*
X665213Y945500D01*
D02*
G37*
G36*
X690613Y934100D02*
X688607D01*
X686669Y933581D01*
X684931Y932578D01*
X683512Y931159D01*
X682509Y929421D01*
X681990Y927483D01*
Y925477D01*
X682509Y923539D01*
X683512Y921801D01*
X684931Y920383D01*
X686669Y919379D01*
X688607Y918860D01*
X690613D01*
X692551Y919379D01*
X694289Y920383D01*
X695707Y921801D01*
X696711Y923539D01*
X697230Y925477D01*
Y927483D01*
X696711Y929421D01*
X695707Y931159D01*
X694289Y932578D01*
X692551Y933581D01*
X690613Y934100D01*
D02*
G37*
G36*
X716013Y922700D02*
X714007D01*
X712069Y922181D01*
X710331Y921178D01*
X708913Y919759D01*
X707909Y918021D01*
X707390Y916083D01*
Y914077D01*
X707909Y912139D01*
X708913Y910401D01*
X710331Y908982D01*
X712069Y907979D01*
X714007Y907460D01*
X716013D01*
X717951Y907979D01*
X719689Y908982D01*
X721107Y910401D01*
X722111Y912139D01*
X722630Y914077D01*
Y916083D01*
X722111Y918021D01*
X721107Y919759D01*
X719689Y921178D01*
X717951Y922181D01*
X716013Y922700D01*
D02*
G37*
G36*
X665213D02*
X663207D01*
X661269Y922181D01*
X659531Y921178D01*
X658112Y919759D01*
X657109Y918021D01*
X656590Y916083D01*
Y914077D01*
X657109Y912139D01*
X658112Y910401D01*
X659531Y908982D01*
X661269Y907979D01*
X663207Y907460D01*
X665213D01*
X667151Y907979D01*
X668889Y908982D01*
X670307Y910401D01*
X671311Y912139D01*
X671830Y914077D01*
Y916083D01*
X671311Y918021D01*
X670307Y919759D01*
X668889Y921178D01*
X667151Y922181D01*
X665213Y922700D01*
D02*
G37*
G36*
X690613Y911300D02*
X688607D01*
X686669Y910781D01*
X684931Y909778D01*
X683512Y908359D01*
X682509Y906621D01*
X681990Y904683D01*
Y902677D01*
X682509Y900739D01*
X683512Y899001D01*
X684931Y897582D01*
X686669Y896579D01*
X688607Y896060D01*
X690613D01*
X692551Y896579D01*
X694289Y897582D01*
X695707Y899001D01*
X696711Y900739D01*
X697230Y902677D01*
Y904683D01*
X696711Y906621D01*
X695707Y908359D01*
X694289Y909778D01*
X692551Y910781D01*
X690613Y911300D01*
D02*
G37*
G36*
X716280Y901143D02*
Y893550D01*
X723873D01*
X723294Y895711D01*
X722124Y897739D01*
X720469Y899394D01*
X718441Y900564D01*
X716280Y901143D01*
D02*
G37*
G36*
X713740D02*
X711579Y900564D01*
X709551Y899394D01*
X707896Y897739D01*
X706726Y895711D01*
X706147Y893550D01*
X713740D01*
Y901143D01*
D02*
G37*
G36*
X665213Y899900D02*
X663207D01*
X661269Y899381D01*
X659531Y898378D01*
X658112Y896959D01*
X657109Y895221D01*
X656590Y893283D01*
Y891277D01*
X657109Y889339D01*
X658112Y887601D01*
X659531Y886182D01*
X661269Y885179D01*
X663207Y884660D01*
X665213D01*
X667151Y885179D01*
X668889Y886182D01*
X670307Y887601D01*
X671311Y889339D01*
X671830Y891277D01*
Y893283D01*
X671311Y895221D01*
X670307Y896959D01*
X668889Y898378D01*
X667151Y899381D01*
X665213Y899900D01*
D02*
G37*
G36*
X713740Y891010D02*
X706147D01*
X706726Y888849D01*
X707896Y886821D01*
X709551Y885166D01*
X711579Y883996D01*
X713740Y883417D01*
Y891010D01*
D02*
G37*
G36*
X723873D02*
X716280D01*
Y883417D01*
X718441Y883996D01*
X720469Y885166D01*
X722124Y886821D01*
X723294Y888849D01*
X723873Y891010D01*
D02*
G37*
G36*
X609239Y891032D02*
X607421D01*
X605740Y890336D01*
X604454Y889050D01*
X603758Y887369D01*
Y885551D01*
X604454Y883870D01*
X605740Y882584D01*
X607421Y881888D01*
X609239D01*
X610920Y882584D01*
X612206Y883870D01*
X612902Y885551D01*
Y887369D01*
X612206Y889050D01*
X610920Y890336D01*
X609239Y891032D01*
D02*
G37*
G36*
X690613Y888500D02*
X688607D01*
X686669Y887981D01*
X684931Y886977D01*
X683512Y885559D01*
X682509Y883821D01*
X681990Y881883D01*
Y879877D01*
X682509Y877939D01*
X683512Y876201D01*
X684931Y874782D01*
X686669Y873779D01*
X688607Y873260D01*
X690613D01*
X692551Y873779D01*
X694289Y874782D01*
X695707Y876201D01*
X696711Y877939D01*
X697230Y879877D01*
Y881883D01*
X696711Y883821D01*
X695707Y885559D01*
X694289Y886977D01*
X692551Y887981D01*
X690613Y888500D01*
D02*
G37*
G36*
X716280Y878343D02*
Y870750D01*
X723873D01*
X723294Y872911D01*
X722124Y874939D01*
X720469Y876594D01*
X718441Y877764D01*
X716280Y878343D01*
D02*
G37*
G36*
X713740D02*
X711579Y877764D01*
X709551Y876594D01*
X707896Y874939D01*
X706726Y872911D01*
X706147Y870750D01*
X713740D01*
Y878343D01*
D02*
G37*
G36*
X609239Y878332D02*
X607421D01*
X605740Y877636D01*
X604454Y876350D01*
X603758Y874669D01*
Y872851D01*
X604454Y871170D01*
X605740Y869884D01*
X607421Y869188D01*
X609239D01*
X610920Y869884D01*
X612206Y871170D01*
X612902Y872851D01*
Y874669D01*
X612206Y876350D01*
X610920Y877636D01*
X609239Y878332D01*
D02*
G37*
G36*
X609600Y866857D02*
Y862330D01*
X614127D01*
X613283Y864369D01*
X611639Y866013D01*
X609600Y866857D01*
D02*
G37*
G36*
X607060D02*
X605021Y866013D01*
X603377Y864369D01*
X602533Y862330D01*
X607060D01*
Y866857D01*
D02*
G37*
G36*
X665213Y877100D02*
X663207D01*
X661269Y876581D01*
X659531Y875577D01*
X658112Y874159D01*
X657109Y872421D01*
X656590Y870483D01*
Y868477D01*
X657109Y866539D01*
X658112Y864801D01*
X659531Y863382D01*
X661269Y862379D01*
X663207Y861860D01*
X665213D01*
X667151Y862379D01*
X668889Y863382D01*
X670307Y864801D01*
X671311Y866539D01*
X671830Y868477D01*
Y870483D01*
X671311Y872421D01*
X670307Y874159D01*
X668889Y875577D01*
X667151Y876581D01*
X665213Y877100D01*
D02*
G37*
G36*
X723873Y868210D02*
X716280D01*
Y860617D01*
X718441Y861196D01*
X720469Y862366D01*
X722124Y864021D01*
X723294Y866049D01*
X723873Y868210D01*
D02*
G37*
G36*
X713740D02*
X706147D01*
X706726Y866049D01*
X707896Y864021D01*
X709551Y862366D01*
X711579Y861196D01*
X713740Y860617D01*
Y868210D01*
D02*
G37*
G36*
X614127Y859790D02*
X609600D01*
Y855263D01*
X611639Y856107D01*
X613283Y857751D01*
X614127Y859790D01*
D02*
G37*
G36*
X607060D02*
X602533D01*
X603377Y857751D01*
X605021Y856107D01*
X607060Y855263D01*
Y859790D01*
D02*
G37*
G36*
X609239Y852932D02*
X607421D01*
X605740Y852236D01*
X604454Y850950D01*
X603758Y849269D01*
Y847451D01*
X604454Y845770D01*
X605740Y844484D01*
X607421Y843788D01*
X609239D01*
X610920Y844484D01*
X612206Y845770D01*
X612902Y847451D01*
Y849269D01*
X612206Y850950D01*
X610920Y852236D01*
X609239Y852932D01*
D02*
G37*
G36*
Y840232D02*
X607421D01*
X605740Y839536D01*
X604454Y838250D01*
X603758Y836569D01*
Y834751D01*
X604454Y833070D01*
X605740Y831784D01*
X607421Y831088D01*
X609239D01*
X610920Y831784D01*
X612206Y833070D01*
X612902Y834751D01*
Y836569D01*
X612206Y838250D01*
X610920Y839536D01*
X609239Y840232D01*
D02*
G37*
G36*
X609600Y828757D02*
Y824230D01*
X614127D01*
X613283Y826269D01*
X611639Y827913D01*
X609600Y828757D01*
D02*
G37*
G36*
X607060D02*
X605021Y827913D01*
X603377Y826269D01*
X602533Y824230D01*
X607060D01*
Y828757D01*
D02*
G37*
G36*
X614127Y821690D02*
X609600D01*
Y817163D01*
X611639Y818007D01*
X613283Y819651D01*
X614127Y821690D01*
D02*
G37*
G36*
X607060D02*
X602533D01*
X603377Y819651D01*
X605021Y818007D01*
X607060Y817163D01*
Y821690D01*
D02*
G37*
G36*
X691677Y818750D02*
X687542D01*
X683458Y818103D01*
X679526Y816825D01*
X675842Y814948D01*
X672496Y812518D01*
X669572Y809594D01*
X667142Y806248D01*
X665265Y802564D01*
X663987Y798632D01*
X663340Y794548D01*
Y790413D01*
X663987Y786328D01*
X665265Y782396D01*
X667142Y778711D01*
X669572Y775366D01*
X672496Y772442D01*
X675842Y770012D01*
X679526Y768135D01*
X683458Y766857D01*
X687542Y766210D01*
X691677D01*
X695762Y766857D01*
X699694Y768135D01*
X703379Y770012D01*
X706724Y772442D01*
X709648Y775366D01*
X712078Y778711D01*
X713955Y782396D01*
X715233Y786328D01*
X715880Y790413D01*
Y794548D01*
X715233Y798632D01*
X713955Y802564D01*
X712078Y806248D01*
X709648Y809594D01*
X706724Y812518D01*
X703379Y814948D01*
X699694Y816825D01*
X695762Y818103D01*
X691677Y818750D01*
D02*
G37*
G36*
X598170Y760177D02*
Y755650D01*
X602697D01*
X601853Y757689D01*
X600209Y759333D01*
X598170Y760177D01*
D02*
G37*
G36*
X595630D02*
X593591Y759333D01*
X591947Y757689D01*
X591103Y755650D01*
X595630D01*
Y760177D01*
D02*
G37*
G36*
X602697Y753110D02*
X598170D01*
Y748583D01*
X600209Y749427D01*
X601853Y751071D01*
X602697Y753110D01*
D02*
G37*
G36*
X595630D02*
X591103D01*
X591947Y751071D01*
X593591Y749427D01*
X595630Y748583D01*
Y753110D01*
D02*
G37*
%LPD*%
D14*
X478790Y887730D02*
X480060D01*
X478790Y886460D02*
X480060Y887730D01*
Y887900D01*
X342900Y872832D02*
Y873200D01*
D42*
Y874470D02*
D03*
Y897270D02*
D03*
Y920070D02*
D03*
Y942870D02*
D03*
Y965670D02*
D03*
X393700Y897270D02*
D03*
Y920070D02*
D03*
Y942870D02*
D03*
Y965670D02*
D03*
X368300Y954270D02*
D03*
Y931470D02*
D03*
Y908670D02*
D03*
Y885870D02*
D03*
Y863070D02*
D03*
X715010Y960680D02*
D03*
Y937880D02*
D03*
Y915080D02*
D03*
Y892280D02*
D03*
Y869480D02*
D03*
X664210Y937880D02*
D03*
Y915080D02*
D03*
Y892280D02*
D03*
Y869480D02*
D03*
X689610Y880880D02*
D03*
Y903680D02*
D03*
Y926480D02*
D03*
Y949280D02*
D03*
Y972080D02*
D03*
D43*
X393300Y874670D02*
D03*
X664610Y960480D02*
D03*
D44*
X368300Y792770D02*
D03*
Y1042670D02*
D03*
X689610Y1042380D02*
D03*
Y792480D02*
D03*
D45*
X654850Y1299210D02*
D03*
D46*
X704850D02*
D03*
D47*
X419100Y1118870D02*
D03*
Y1144270D02*
D03*
Y1169670D02*
D03*
Y1195070D02*
D03*
Y1245870D02*
D03*
Y1271270D02*
D03*
D48*
Y1296670D02*
D03*
D49*
X288290Y1320800D02*
D03*
X769620Y678180D02*
D03*
X288290D02*
D03*
X770890Y1322070D02*
D03*
D50*
X608330Y822960D02*
D03*
Y835660D02*
D03*
X604520Y1074420D02*
D03*
X544830Y778510D02*
D03*
X519430D02*
D03*
X449580Y845820D02*
D03*
X608330Y848360D02*
D03*
Y886460D02*
D03*
Y1050290D02*
D03*
X544830Y1089660D02*
D03*
X608330Y1024890D02*
D03*
X519430Y1089660D02*
D03*
X608330Y1012190D02*
D03*
Y1037590D02*
D03*
Y873760D02*
D03*
Y861060D02*
D03*
X478790Y854710D02*
D03*
X450850Y821690D02*
D03*
X478790Y972820D02*
D03*
X608330Y999490D02*
D03*
Y986790D02*
D03*
X596900Y754380D02*
D03*
X471170D02*
D03*
X325120Y1169670D02*
D03*
X266700D02*
D03*
X478028Y871220D02*
D03*
X478790Y887730D02*
D03*
X477520Y811530D02*
D03*
X478790Y956310D02*
D03*
X477520Y795020D02*
D03*
X478790Y1050290D02*
D03*
M02*
