G04*
G04 #@! TF.GenerationSoftware,Altium Limited,Altium Designer,24.9.1 (31)*
G04*
G04 Layer_Physical_Order=4*
G04 Layer_Color=16711680*
%FSLAX44Y44*%
%MOMM*%
G71*
G04*
G04 #@! TF.SameCoordinates,CAE2FAD2-8FEE-4D69-87A0-5B06E0BA760C*
G04*
G04*
G04 #@! TF.FilePolarity,Positive*
G04*
G01*
G75*
%ADD14C,0.2540*%
%ADD20R,0.9500X0.9500*%
%ADD40C,1.2700*%
%ADD42C,1.2700*%
%ADD43R,1.2700X1.2700*%
%ADD44C,5.0000*%
%ADD45R,2.0000X2.0000*%
%ADD46C,2.0000*%
%ADD47C,1.6000*%
%ADD48R,1.6000X1.6000*%
%ADD49C,5.5000*%
%ADD50C,0.6604*%
D14*
X608330Y886460D02*
X647230D01*
X664210Y869480D01*
X596900Y778510D02*
X621030Y802640D01*
Y873760D01*
X544830Y778510D02*
X596900D01*
X617220Y805180D02*
Y839470D01*
X525272Y785622D02*
X597662D01*
X617220Y805180D01*
X608330Y848360D02*
X617220Y839470D01*
X646430Y955660D02*
Y974090D01*
X608330Y1012190D02*
X646430Y974090D01*
Y955660D02*
X664210Y937880D01*
X568960Y1089660D02*
X676910Y981710D01*
X544830Y1089660D02*
X568960D01*
X599440Y1012190D02*
X608330D01*
X574040Y1076960D02*
X590550Y1060450D01*
X519546Y1083194D02*
X525780Y1076960D01*
X574040D01*
X590550Y1021080D02*
Y1060450D01*
X519546Y1083194D02*
Y1089544D01*
X519430Y1089660D02*
X519546Y1089544D01*
X519430Y779780D02*
X525272Y785622D01*
X608330Y886460D02*
X621030Y873760D01*
X676910Y927780D02*
Y981710D01*
X664210Y915080D02*
X676910Y927780D01*
X590550Y1021080D02*
X599440Y1012190D01*
X439030Y1195070D02*
X450120Y1183980D01*
X438313Y1155173D02*
X450120Y1166980D01*
X419100Y1144270D02*
X430003Y1155173D01*
X438313D01*
X419100Y1195070D02*
X439030D01*
X415458Y1144270D02*
X419100D01*
X391160Y1149740D02*
X409988D01*
X415458Y1144270D01*
X391160Y1166740D02*
X394090Y1169670D01*
X419100D01*
D20*
X450120Y1183980D02*
D03*
Y1166980D02*
D03*
X391160Y1166740D02*
D03*
Y1149740D02*
D03*
D40*
X751840Y854710D02*
Y980150D01*
X689610Y792480D02*
X751840Y854710D01*
X689610Y1042380D02*
X751840Y980150D01*
X306070Y855000D02*
Y980440D01*
Y855000D02*
X368300Y792770D01*
X306070Y980440D02*
X368300Y1042670D01*
D42*
X342900Y874470D02*
D03*
Y897270D02*
D03*
Y920070D02*
D03*
Y942870D02*
D03*
Y965670D02*
D03*
X393700Y897270D02*
D03*
Y920070D02*
D03*
Y942870D02*
D03*
Y965670D02*
D03*
X368300Y954270D02*
D03*
Y931470D02*
D03*
Y908670D02*
D03*
Y885870D02*
D03*
Y863070D02*
D03*
X715010Y960680D02*
D03*
Y937880D02*
D03*
Y915080D02*
D03*
Y892280D02*
D03*
Y869480D02*
D03*
X664210Y937880D02*
D03*
Y915080D02*
D03*
Y892280D02*
D03*
Y869480D02*
D03*
X689610Y880880D02*
D03*
Y903680D02*
D03*
Y926480D02*
D03*
Y949280D02*
D03*
Y972080D02*
D03*
D43*
X393300Y874670D02*
D03*
X664610Y960480D02*
D03*
D44*
X368300Y792770D02*
D03*
Y1042670D02*
D03*
X689610Y1042380D02*
D03*
Y792480D02*
D03*
D45*
X654850Y1299210D02*
D03*
D46*
X704850D02*
D03*
D47*
X419100Y1118870D02*
D03*
Y1144270D02*
D03*
Y1169670D02*
D03*
Y1195070D02*
D03*
Y1245870D02*
D03*
Y1271270D02*
D03*
D48*
Y1296670D02*
D03*
D49*
X288290Y1320800D02*
D03*
X769620Y678180D02*
D03*
X288290D02*
D03*
X770890Y1322070D02*
D03*
D50*
X608330Y822960D02*
D03*
Y835660D02*
D03*
X604520Y1074420D02*
D03*
X544830Y778510D02*
D03*
X519430D02*
D03*
X449580Y845820D02*
D03*
X608330Y848360D02*
D03*
Y886460D02*
D03*
Y1050290D02*
D03*
X544830Y1089660D02*
D03*
X608330Y1024890D02*
D03*
X519430Y1089660D02*
D03*
X608330Y1012190D02*
D03*
Y1037590D02*
D03*
Y873760D02*
D03*
Y861060D02*
D03*
X478790Y854710D02*
D03*
X450850Y821690D02*
D03*
X478790Y972820D02*
D03*
X608330Y999490D02*
D03*
Y986790D02*
D03*
X596900Y754380D02*
D03*
X471170D02*
D03*
X325120Y1169670D02*
D03*
X266700D02*
D03*
X478028Y871220D02*
D03*
X478790Y887730D02*
D03*
X477520Y811530D02*
D03*
X478790Y956310D02*
D03*
X477520Y795020D02*
D03*
X478790Y1050290D02*
D03*
M02*
