M48
;Layer_Color=9474304
;FILE_FORMAT=2:5
INCH,LZ
;TYPE=PLATED
T1F00S00C0.01400
T2F00S00C0.03543
T3F00S00C0.03937
T4F00S00C0.04331
T5F00S00C0.05118
T6F00S00C0.12598
T7F00S00C0.12992
%
T01
X-0006578Y-0005259
X-0008579Y0000241
X-0006078Y0006241
X-0000078Y0008741
X0005922Y0006241
X0008422Y0000241
X0005922Y-0005759
X-0000078Y-0008259
X0032291Y-00002
X0048Y0001
X0060291Y00018
X0072894Y-0000062
X0085445Y0000953
X0074237Y0017854
X0062535Y0017556
X0050535
X0040535
X0094687Y0023313
X0098Y0024
X0102Y00246
X0102809Y0071221
X0098809
X0093809
X01851Y0067021
Y0064021
X01881
Y0067021
X01911
Y0064021
X0208549Y0080777
X0213549
Y0085777
X0208549
X0257922Y0006241
X0263921Y0008741
X0269921Y0006241
X0272422Y0000241
X0269921Y-0005759
X0263921Y-0008259
X0257421Y-0005259
X0255421Y0000241
X0431422
X0433422Y-0005259
X0439922Y-0008259
X0445922Y-0005759
X0448421Y0000241
X0445922Y0006241
X0439922Y0008741
X0433921Y0006241
X0374291Y00678
X0371291
X0368291
Y00708
X0371291
X0374291
X0613921Y0006241
X0611421Y0000241
X0613421Y-0005259
X0619921Y-0008259
X0625921Y-0005759
X0628421Y0000241
X0625921Y0006241
X0619921Y0008741
X0577291Y0097383
X0572291
Y0102383
X0577291
Y0107383
X0531291
Y0102383
Y0097383
X0526291
Y0102383
X0513535Y0113044
X0507528Y0113037
X0506453Y01857
Y01907
X0501453
Y01857
X0511453
Y01907
X0516453
X0521453
X0526453
Y01857
X0521453
X0516453
X0545814Y0185609
X0550814
X0555814
X0560814
X0565814
X0570814
Y0190609
X0565814
X0560814
X0555814
X0550814
X0545814
X0397349Y0156129
Y0151129
X0392349
Y0146129
X0397349
X0388795Y0164
X0347425Y01329
Y01299
X0344425
Y01329
X0356Y0236
Y0241
X0361
Y0236
X0366
Y0241
X0332
Y0236
X0327
Y0241
X0322
Y0236
X0332425Y01329
Y01299
X0335425
Y01329
X0338425
Y01299
X0341425
Y01329
X0211741Y01448
Y01498
X0206741
Y01448
X0211741Y01548
X0198899Y0167101
X0213549Y0090777
X0162425Y01291
X0159425
Y01321
X0156425
Y01291
X0153425
Y01321
X0150425
Y01291
X0147425
Y01321
X0162425
X0102Y0139
X0098584Y0138831
X0094584Y0138432
X0093Y019
X0097927Y0189927
X0102Y019
Y0243
X0098
X0094
X-000405Y0378251
X-0004152Y0388741
X0030535Y0372044
X0039291Y03758
X0051Y0388091
X0053451Y0359347
X0054291Y03478
X0057291Y03418
X0057791Y0321209
X0062791
X0067791
X0072791
X0076291Y03128
Y03098
Y03068
X0084291Y03008
X0056803Y0299288
Y02948
X0079291Y03388
X0068291Y03528
X0066528Y0359472
X0073861Y0359139
X0073291Y03628
X0081094Y0363003
X0085563Y0362724
X0086137Y0374772
X0082079Y0374587
X0100416Y03628
X0102273Y0358247
X0101Y0349
X0110175Y0349342
X0115291Y0347291
X0111349Y0338771
X0124047Y0343044
X0133Y0356
Y0361
X0134118Y0384185
X0137119Y0381535
X0141556Y0390556
X0141453Y0395656
X0120677Y0382186
X012274Y0378249
X0111606Y0376485
X011048Y0362988
X0173422Y0379741
X0171422Y0385241
X0173922Y0391241
X0179921Y0393741
Y0376741
X0185922Y0379241
X0188421Y0385241
X0185922Y0391241
X0292552Y0338757
X0261291Y03008
X0322Y0246
X0327
X0332
X0356
X0361
X0366
X0437422Y0379741
X0435422Y0385241
X0437921Y0391241
X0443922Y0393741
X0449922Y0391241
X0452422Y0385241
X0449922Y0379241
X0443922Y0376741
X0701421Y0379741
X0699422Y0385241
X0701922Y0391241
X0707922Y0393741
X0713921Y0391241
X0716422Y0385241
X0713921Y0379241
X0707922Y0376741
X0435291Y04358
X0445291Y04718
X0264291
X0253047Y0437044
X0144868Y0428035
X0135504Y0426505
X0135291Y04218
X0139291Y04148
X0135535Y0406044
X0123331Y0403839
X0122567Y0423524
X0122661Y042943
X0135786Y0433413
X0129Y0448345
X012Y0446
X0114824Y0446378
X0111474Y0446394
X0101764Y0446273
X0098457Y0460061
X0105731Y0459782
X01098Y0457939
X0111291Y0472556
X0121Y0478
X013Y0473
X0134Y0475
X0135Y0484
X0131291Y0493709
X0116659Y04948
X0102081Y0487716
X0096285Y0473071
X0076535Y0466556
X0071047
X0063047
X0063Y0461
X0055291Y04678
X0063Y0476
X0071756Y0479756
X0068291Y0485288
Y04908
X005Y0497
X0037341Y0488537
X0041Y0478
X0040002Y0463949
X0045241Y04478
X0054492Y0446206
X00572Y0443709
X005165Y0433647
X0052Y043
X0052291Y04258
Y04218
X005111Y0417619
X0051599Y041069
X0051741Y0406971
X0051296Y040305
X00397Y0401871
X0030535Y0405556
X003331Y0418366
X0039418Y0418905
X0038791Y0426139
X0038898Y0431188
X0039Y0435
X008011Y0446981
X0078352Y0458198
X0084081Y0458779
X0134Y0462
X0139
X0037546Y0507685
X0037389Y0517799
X0037081Y0556119
X0019524Y0470103
X0021291Y046655
X0019291Y04638
X0013291Y04458
X-0003Y0444
X-00092Y04588
Y04638
X-0002Y0472
X-0004Y0411
Y0403
X0029Y0418
X0022Y0619
Y0625
X0036509Y0624219
X0036543Y0618885
X0036781Y0613415
X0036883Y0608014
X0036Y0592
X0037291Y05798
X0036741Y057475
X0036826Y0560885
X0074362Y0571729
Y0581729
X0074291Y05868
X0081453Y0597962
X0085039Y0618729
X0073362Y0623729
Y0633729
X0073291Y06388
X0081291Y06498
X0037291Y06538
X0037Y0644
X0036951Y0671165
X0037402Y0677305
X003707Y069428
X0037291Y07058
X0083941Y0566729
X0613421Y0767541
X0611421Y0773041
X0613921Y0779041
X0619921Y0781541
X0625921Y0779041
X0628421Y0773041
X0625921Y0767041
X0619921Y0764541
X0445922Y0767041
X0448421Y0773041
X0445922Y0779041
X0439922Y0781541
X0433921Y0779041
X0431422Y0773041
X0433422Y0767541
X0439922Y0764541
X0269921Y0767041
X0272422Y0773041
X0269921Y0779041
X0263921Y0781541
X0257922Y0779041
X0255421Y0773041
X0257421Y0767541
X0263921Y0764541
X0037291Y071645
X0005922Y0767041
X-0000078Y0764541
X-0006578Y0767541
X-0008579Y0773041
X-0006078Y0779041
X-0000078Y0781541
X0005922Y0779041
X0008422Y0773041
T02
X-0008Y0536895
Y0545871
Y0554847
X0002Y0550359
Y0541383
Y0532406
X0011842Y0536973
X0012Y0545871
Y0554847
Y0563824
Y05728
X0002Y0568312
Y0559335
X-0008Y0563824
Y05728
Y0672702
Y0681678
Y0690654
Y0699631
Y0708607
X0002Y0704119
Y0695143
Y0686166
Y067719
Y0668213
X0011842Y067278
X0012Y0681678
Y0690654
Y0699631
Y0708607
T03
X0014Y00448
X0024
X0034
X0054
X0064
X0074
X0084
Y0094021
X0074
X0064
X0054
X0034
Y0143831
X0054
X0064
X0074
X0084
Y0195
X0074
X0064
X0054
X0034
Y02448
X0054
X0064
X0074
X0084
X0024
X0014
Y0195
X0024
Y0143831
X0014
Y0094021
X0024
T04
X0238999Y0032429
Y0042429
Y0052429
X0418999
Y0042429
Y0032429
X0598999
Y0042429
Y0052429
X0778999
Y0042429
Y0032429
X010252Y0280425
Y0290425
Y0300425
Y0310425
Y0320425
Y0330425
Y0340425
X028252
Y0330425
Y0320425
Y0310425
Y0300425
Y0290425
Y0280425
X046252
Y0290425
Y0300425
Y0310425
Y0320425
Y0330425
Y0340425
X0450964Y0352326
X0440964
X0430964
X0610964
X0620964
X0630964
X064252Y0340425
Y0330425
Y0320425
Y0310425
Y0300425
Y0290425
Y0280425
X0779964Y0432326
Y0442326
Y0452326
Y0462326
Y0472326
Y0482326
Y0492326
X0599964
Y0482326
Y0472326
Y0462326
Y0452326
Y0442326
Y0432326
X0610964Y0421326
X0620964
X0630964
X0450964
X0440964
X0430964
X0419964Y0432326
Y0442326
Y0452326
Y0462326
Y0472326
Y0482326
Y0492326
X0239964
Y0482326
Y0472326
Y0462326
Y0452326
Y0442326
Y0432326
X0643476Y0720307
Y0730307
Y0740307
X0463476
Y0730307
Y0720307
X0283476
Y0730307
Y0740307
X0103476
Y0730307
Y0720307
T05
X0002291Y03338
Y0353485
T06
X0002Y0504729
Y0603115
Y0640536
Y0738922
T07
X0Y0
X0110552Y-0000091
X0264Y0
X0290552Y-0000091
X044Y0
X0470552Y-0000091
X062Y0
X0650552Y-0000091
X018Y0385
X0232552Y0248909
X0412552
X0444Y0385
X0592552Y0248909
X0772552
X0708Y0385
X065Y05238
X047
X029
X011
X0772Y07728
X062
X0592
X044
X0412
X0264
X0232
X-0
M30
