G04*
G04 #@! TF.GenerationSoftware,Altium Limited,Altium Designer,20.0.14 (345)*
G04*
G04 Layer_Color=32896*
%FSLAX25Y25*%
%MOIN*%
G70*
G01*
G75*
%ADD10C,0.00787*%
G36*
X242777Y145552D02*
X242926Y145545D01*
X243055Y145532D01*
X243166Y145513D01*
X243263Y145500D01*
X243328Y145487D01*
X243354Y145481D01*
X243373D01*
X243379Y145474D01*
X243386D01*
X243503Y145442D01*
X243613Y145403D01*
X243703Y145364D01*
X243781Y145325D01*
X243846Y145286D01*
X243891Y145260D01*
X243924Y145241D01*
X243930Y145234D01*
X244008Y145169D01*
X244073Y145105D01*
X244131Y145040D01*
X244177Y144982D01*
X244209Y144923D01*
X244235Y144884D01*
X244248Y144859D01*
X244254Y144845D01*
X244293Y144761D01*
X244319Y144671D01*
X244338Y144586D01*
X244351Y144509D01*
X244358Y144437D01*
X244364Y144385D01*
Y144353D01*
Y144340D01*
X244358Y144211D01*
X244345Y144159D01*
X244338Y144107D01*
X244325Y144068D01*
X244313Y144042D01*
X244306Y144023D01*
Y144016D01*
X244254Y143912D01*
X244228Y143867D01*
X244202Y143828D01*
X244177Y143802D01*
X244157Y143776D01*
X244144Y143763D01*
X244138Y143757D01*
X244053Y143679D01*
X243976Y143627D01*
X243937Y143601D01*
X243911Y143588D01*
X243891Y143575D01*
X243885D01*
X243775Y143530D01*
X243716Y143511D01*
X243665Y143498D01*
X243619Y143485D01*
X243587Y143478D01*
X243561Y143472D01*
X243554D01*
X243658Y143426D01*
X243742Y143368D01*
X243820Y143316D01*
X243885Y143264D01*
X243937Y143213D01*
X243969Y143174D01*
X243995Y143148D01*
X244002Y143141D01*
X244053Y143057D01*
X244092Y142966D01*
X244125Y142869D01*
X244144Y142785D01*
X244157Y142701D01*
X244163Y142642D01*
Y142616D01*
Y142597D01*
Y142590D01*
Y142584D01*
X244157Y142506D01*
X244151Y142429D01*
X244138Y142364D01*
X244125Y142305D01*
X244105Y142253D01*
X244092Y142221D01*
X244086Y142195D01*
X244079Y142189D01*
X244047Y142124D01*
X244008Y142066D01*
X243963Y142014D01*
X243924Y141968D01*
X243891Y141929D01*
X243859Y141904D01*
X243840Y141891D01*
X243833Y141884D01*
X243768Y141839D01*
X243703Y141800D01*
X243632Y141768D01*
X243574Y141742D01*
X243515Y141722D01*
X243470Y141709D01*
X243444Y141696D01*
X243431D01*
X243341Y141670D01*
X243250Y141657D01*
X243159Y141644D01*
X243075Y141631D01*
X242997D01*
X242939Y141625D01*
X242790D01*
X242705Y141631D01*
X242673D01*
X242647Y141638D01*
X242628D01*
X242544Y141644D01*
X242466Y141657D01*
X242433Y141664D01*
X242407D01*
X242394Y141670D01*
X242388D01*
X242304Y141683D01*
X242226Y141703D01*
X242194Y141709D01*
X242168Y141716D01*
X242155Y141722D01*
X242148D01*
X242064Y141742D01*
X241980Y141761D01*
X241947Y141774D01*
X241921Y141780D01*
X241909Y141787D01*
X241902D01*
Y142383D01*
X242071Y142338D01*
X242148Y142312D01*
X242219Y142299D01*
X242271Y142286D01*
X242317Y142273D01*
X242349Y142266D01*
X242356D01*
X242518Y142241D01*
X242595Y142234D01*
X242667Y142228D01*
X242725Y142221D01*
X242809D01*
X242919Y142228D01*
X243017Y142241D01*
X243094Y142260D01*
X243159Y142279D01*
X243211Y142305D01*
X243250Y142325D01*
X243269Y142338D01*
X243276Y142344D01*
X243328Y142396D01*
X243367Y142454D01*
X243392Y142513D01*
X243412Y142571D01*
X243425Y142623D01*
X243431Y142662D01*
Y142688D01*
Y142701D01*
X243425Y142778D01*
X243412Y142850D01*
X243405Y142876D01*
X243399Y142895D01*
X243392Y142908D01*
Y142914D01*
X243354Y142986D01*
X243315Y143044D01*
X243276Y143083D01*
X243269Y143089D01*
X243263Y143096D01*
X243185Y143148D01*
X243107Y143187D01*
X243075Y143200D01*
X243049Y143213D01*
X243029Y143219D01*
X243023D01*
X242965Y143232D01*
X242900Y143238D01*
X242842Y143251D01*
X242777D01*
X242725Y143258D01*
X242258D01*
Y143802D01*
X242764D01*
X242848Y143809D01*
X242919Y143815D01*
X242978Y143822D01*
X243029Y143835D01*
X243062Y143841D01*
X243088Y143848D01*
X243094D01*
X243159Y143861D01*
X243211Y143880D01*
X243263Y143899D01*
X243302Y143919D01*
X243334Y143932D01*
X243360Y143945D01*
X243373Y143951D01*
X243379Y143958D01*
X243457Y144016D01*
X243509Y144074D01*
X243529Y144094D01*
X243541Y144113D01*
X243554Y144126D01*
Y144133D01*
X243587Y144211D01*
X243606Y144282D01*
X243613Y144314D01*
Y144340D01*
Y144353D01*
Y144360D01*
X243606Y144457D01*
X243593Y144502D01*
X243587Y144541D01*
X243574Y144573D01*
X243561Y144599D01*
X243554Y144612D01*
Y144619D01*
X243509Y144696D01*
X243451Y144755D01*
X243425Y144774D01*
X243405Y144794D01*
X243392Y144800D01*
X243386Y144807D01*
X243295Y144859D01*
X243204Y144891D01*
X243159Y144904D01*
X243133Y144917D01*
X243107Y144923D01*
X243101D01*
X242965Y144943D01*
X242893Y144956D01*
X242829D01*
X242770Y144962D01*
X242595D01*
X242505Y144956D01*
X242420D01*
X242349Y144949D01*
X242291D01*
X242245Y144943D01*
X242207D01*
X242122Y144936D01*
X242045Y144923D01*
X241980Y144917D01*
X241915Y144904D01*
X241870Y144897D01*
X241831Y144891D01*
X241805Y144884D01*
X241798D01*
Y145500D01*
X241857Y145507D01*
X241921Y145513D01*
X241941Y145519D01*
X241980D01*
X242057Y145526D01*
X242122Y145532D01*
X242148Y145539D01*
X242187D01*
X242271Y145545D01*
X242336D01*
X242369Y145552D01*
X242407D01*
X242485Y145558D01*
X242615D01*
X242777Y145552D01*
D02*
G37*
G36*
X239226Y144275D02*
X239589D01*
X239725Y144269D01*
X239854Y144262D01*
X239971Y144243D01*
X240068Y144223D01*
X240152Y144211D01*
X240211Y144191D01*
X240250Y144185D01*
X240263Y144178D01*
X240366Y144133D01*
X240463Y144087D01*
X240548Y144042D01*
X240613Y143997D01*
X240671Y143958D01*
X240716Y143925D01*
X240742Y143899D01*
X240749Y143893D01*
X240820Y143822D01*
X240878Y143744D01*
X240924Y143673D01*
X240969Y143608D01*
X241001Y143550D01*
X241021Y143498D01*
X241034Y143472D01*
X241040Y143459D01*
X241073Y143362D01*
X241098Y143264D01*
X241118Y143174D01*
X241131Y143089D01*
X241137Y143018D01*
X241144Y142960D01*
Y142921D01*
Y142908D01*
X241137Y142804D01*
X241131Y142701D01*
X241111Y142616D01*
X241092Y142539D01*
X241073Y142474D01*
X241060Y142429D01*
X241047Y142403D01*
X241040Y142390D01*
X240995Y142305D01*
X240949Y142234D01*
X240898Y142169D01*
X240852Y142111D01*
X240807Y142066D01*
X240774Y142033D01*
X240749Y142014D01*
X240742Y142007D01*
X240671Y141955D01*
X240587Y141904D01*
X240509Y141865D01*
X240438Y141832D01*
X240366Y141806D01*
X240314Y141787D01*
X240282Y141780D01*
X240276Y141774D01*
X240269D01*
X240159Y141748D01*
X240049Y141722D01*
X239939Y141709D01*
X239835Y141703D01*
X239744Y141696D01*
X239679Y141690D01*
X238500D01*
Y145500D01*
X239226D01*
Y144275D01*
D02*
G37*
G36*
X106258Y433269D02*
X106381Y433256D01*
X106492Y433230D01*
X106595Y433204D01*
X106680Y433178D01*
X106744Y433152D01*
X106764Y433145D01*
X106783Y433139D01*
X106790Y433133D01*
X106796D01*
X106906Y433081D01*
X107017Y433016D01*
X107107Y432958D01*
X107192Y432899D01*
X107256Y432847D01*
X107308Y432802D01*
X107341Y432776D01*
X107353Y432763D01*
X106978Y432284D01*
X106913Y432342D01*
X106848Y432394D01*
X106790Y432439D01*
X106731Y432472D01*
X106686Y432504D01*
X106647Y432523D01*
X106621Y432536D01*
X106615Y432543D01*
X106544Y432575D01*
X106466Y432601D01*
X106401Y432614D01*
X106336Y432627D01*
X106278Y432633D01*
X106239Y432640D01*
X106200D01*
X106109Y432633D01*
X106032Y432621D01*
X106006Y432608D01*
X105986Y432601D01*
X105973Y432595D01*
X105967D01*
X105895Y432562D01*
X105844Y432523D01*
X105811Y432497D01*
X105798Y432491D01*
Y432484D01*
X105753Y432426D01*
X105721Y432374D01*
X105701Y432335D01*
X105695Y432323D01*
Y432316D01*
X105669Y432245D01*
X105662Y432173D01*
X105656Y432148D01*
Y432128D01*
Y432115D01*
Y432109D01*
X105662Y432018D01*
X105669Y431934D01*
X105675Y431901D01*
X105682Y431875D01*
X105688Y431862D01*
Y431856D01*
X105714Y431759D01*
X105753Y431674D01*
X105772Y431636D01*
X105785Y431610D01*
X105792Y431590D01*
X105798Y431584D01*
X105831Y431532D01*
X105870Y431474D01*
X105909Y431422D01*
X105941Y431370D01*
X105980Y431325D01*
X106006Y431292D01*
X106025Y431266D01*
X106032Y431260D01*
X106090Y431188D01*
X106161Y431117D01*
X106226Y431046D01*
X106291Y430975D01*
X106349Y430916D01*
X106395Y430871D01*
X106427Y430839D01*
X106440Y430826D01*
X107334Y429918D01*
Y429400D01*
X104749D01*
Y430055D01*
X106356D01*
X105805Y430579D01*
X105727Y430657D01*
X105649Y430728D01*
X105585Y430793D01*
X105526Y430858D01*
X105481Y430903D01*
X105448Y430942D01*
X105422Y430968D01*
X105416Y430975D01*
X105351Y431046D01*
X105299Y431111D01*
X105247Y431176D01*
X105202Y431227D01*
X105170Y431279D01*
X105144Y431312D01*
X105131Y431337D01*
X105124Y431344D01*
X105047Y431480D01*
X105021Y431545D01*
X104995Y431603D01*
X104975Y431655D01*
X104962Y431694D01*
X104949Y431720D01*
Y431726D01*
X104911Y431875D01*
X104898Y431953D01*
X104891Y432018D01*
X104885Y432070D01*
Y432115D01*
Y432141D01*
Y432154D01*
X104891Y432251D01*
X104898Y432342D01*
X104911Y432426D01*
X104930Y432497D01*
X104949Y432556D01*
X104962Y432595D01*
X104969Y432627D01*
X104975Y432633D01*
X105014Y432711D01*
X105053Y432776D01*
X105092Y432841D01*
X105137Y432886D01*
X105170Y432932D01*
X105202Y432958D01*
X105222Y432977D01*
X105228Y432983D01*
X105293Y433035D01*
X105358Y433074D01*
X105422Y433113D01*
X105481Y433145D01*
X105539Y433165D01*
X105578Y433184D01*
X105604Y433197D01*
X105617D01*
X105701Y433223D01*
X105792Y433243D01*
X105876Y433256D01*
X105954Y433269D01*
X106025D01*
X106077Y433275D01*
X106122D01*
X106258Y433269D01*
D02*
G37*
G36*
X110600Y429400D02*
X109874D01*
Y430625D01*
X109511D01*
X109375Y430631D01*
X109246Y430638D01*
X109129Y430657D01*
X109032Y430677D01*
X108948Y430689D01*
X108889Y430709D01*
X108850Y430715D01*
X108837Y430722D01*
X108734Y430767D01*
X108637Y430813D01*
X108552Y430858D01*
X108487Y430903D01*
X108429Y430942D01*
X108384Y430975D01*
X108358Y431001D01*
X108351Y431007D01*
X108280Y431078D01*
X108222Y431156D01*
X108177Y431227D01*
X108131Y431292D01*
X108099Y431351D01*
X108079Y431402D01*
X108066Y431428D01*
X108060Y431441D01*
X108027Y431538D01*
X108001Y431636D01*
X107982Y431726D01*
X107969Y431811D01*
X107963Y431882D01*
X107956Y431940D01*
Y431979D01*
Y431992D01*
X107963Y432096D01*
X107969Y432199D01*
X107989Y432284D01*
X108008Y432361D01*
X108027Y432426D01*
X108040Y432472D01*
X108053Y432497D01*
X108060Y432510D01*
X108105Y432595D01*
X108151Y432666D01*
X108202Y432731D01*
X108248Y432789D01*
X108293Y432834D01*
X108326Y432867D01*
X108351Y432886D01*
X108358Y432893D01*
X108429Y432945D01*
X108513Y432996D01*
X108591Y433035D01*
X108662Y433068D01*
X108734Y433094D01*
X108786Y433113D01*
X108818Y433119D01*
X108825Y433126D01*
X108831D01*
X108941Y433152D01*
X109051Y433178D01*
X109161Y433191D01*
X109265Y433197D01*
X109356Y433204D01*
X109421Y433210D01*
X110600D01*
Y429400D01*
D02*
G37*
%LPC*%
G36*
X239686Y143679D02*
X239226D01*
Y142286D01*
X239673D01*
X239738Y142292D01*
X239796Y142299D01*
X239854Y142312D01*
X239893Y142318D01*
X239926Y142331D01*
X239945Y142338D01*
X239951D01*
X240055Y142377D01*
X240094Y142403D01*
X240133Y142422D01*
X240159Y142441D01*
X240178Y142461D01*
X240191Y142467D01*
X240198Y142474D01*
X240263Y142539D01*
X240308Y142610D01*
X240321Y142636D01*
X240334Y142662D01*
X240340Y142675D01*
Y142681D01*
X240373Y142778D01*
X240386Y142863D01*
X240392Y142902D01*
Y142927D01*
Y142947D01*
Y142953D01*
X240386Y143070D01*
X240379Y143122D01*
X240366Y143167D01*
X240360Y143206D01*
X240347Y143232D01*
X240340Y143251D01*
Y143258D01*
X240295Y143349D01*
X240250Y143420D01*
X240224Y143446D01*
X240211Y143465D01*
X240198Y143478D01*
X240191Y143485D01*
X240113Y143550D01*
X240036Y143595D01*
X240003Y143614D01*
X239977Y143621D01*
X239958Y143634D01*
X239951D01*
X239841Y143660D01*
X239783Y143666D01*
X239731Y143673D01*
X239686Y143679D01*
D02*
G37*
G36*
X109874Y432614D02*
X109427D01*
X109362Y432608D01*
X109304Y432601D01*
X109246Y432588D01*
X109207Y432582D01*
X109174Y432569D01*
X109155Y432562D01*
X109149D01*
X109045Y432523D01*
X109006Y432497D01*
X108967Y432478D01*
X108941Y432459D01*
X108922Y432439D01*
X108909Y432433D01*
X108902Y432426D01*
X108837Y432361D01*
X108792Y432290D01*
X108779Y432264D01*
X108766Y432238D01*
X108760Y432225D01*
Y432219D01*
X108727Y432122D01*
X108714Y432037D01*
X108708Y431998D01*
Y431973D01*
Y431953D01*
Y431947D01*
X108714Y431830D01*
X108721Y431778D01*
X108734Y431733D01*
X108740Y431694D01*
X108753Y431668D01*
X108760Y431649D01*
Y431642D01*
X108805Y431551D01*
X108850Y431480D01*
X108876Y431454D01*
X108889Y431435D01*
X108902Y431422D01*
X108909Y431415D01*
X108986Y431351D01*
X109064Y431305D01*
X109097Y431286D01*
X109123Y431279D01*
X109142Y431266D01*
X109149D01*
X109259Y431240D01*
X109317Y431234D01*
X109369Y431227D01*
X109414Y431221D01*
X109874D01*
Y432614D01*
D02*
G37*
%LPD*%
D10*
X100000Y395000D02*
X110000D01*
X100000D02*
Y465000D01*
X110000Y395000D02*
Y465000D01*
X100000D02*
X110000D01*
X236000Y146500D02*
Y178500D01*
Y146500D02*
X246000D01*
Y178500D01*
X236000D02*
X246000D01*
M02*
