G04*
G04 #@! TF.GenerationSoftware,Altium Limited,Altium Designer,20.0.14 (345)*
G04*
G04 Layer_Color=16711935*
%FSLAX25Y25*%
%MOIN*%
G70*
G01*
G75*
%ADD50C,0.08674*%
%ADD51C,0.14580*%
%ADD52C,0.07887*%
%ADD53C,0.06902*%
%ADD54C,0.22453*%
%ADD55C,0.07800*%
D50*
X105000Y450000D02*
D03*
Y430000D02*
D03*
Y440000D02*
D03*
Y420000D02*
D03*
Y410000D02*
D03*
Y400000D02*
D03*
Y460000D02*
D03*
X233000Y114500D02*
D03*
Y124500D02*
D03*
Y134500D02*
D03*
X109500Y177500D02*
D03*
X225500D02*
D03*
Y213500D02*
D03*
X109500D02*
D03*
X158500Y328000D02*
D03*
X218500D02*
D03*
X188500D02*
D03*
X241000Y172500D02*
D03*
Y162500D02*
D03*
Y152500D02*
D03*
D51*
X148980Y148000D02*
D03*
X181500D02*
D03*
D52*
X218500Y248000D02*
D03*
X158500D02*
D03*
D53*
X166500Y457500D02*
D03*
X116000Y436500D02*
D03*
Y447500D02*
D03*
Y458500D02*
D03*
Y425500D02*
D03*
X219500Y387000D02*
D03*
X208000D02*
D03*
D54*
X112500Y120000D02*
D03*
X234500Y369000D02*
D03*
D55*
X186100Y455000D02*
D03*
X236500D02*
D03*
Y404600D02*
D03*
X186100D02*
D03*
X211300Y429800D02*
D03*
M02*
