M48
;Layer_Color=9474304
;FILE_FORMAT=2:5
INCH,LZ
;TYPE=PLATED
T1F00S00C0.01575
T2F00S00C0.03937
T3F00S00C0.04000
T4F00S00C0.04331
T5F00S00C0.04600
T6F00S00C0.04921
T7F00S00C0.05000
T8F00S00C0.07598
T9F00S00C0.12992
%
T01
X0226Y0154
X0148Y03035
X01375
X0107095Y0285405
X01035Y0332
X0106Y03565
X0116Y0353
X01225Y0363
X0122Y03805
X01185Y0394039
X01235Y0408671
X0136874Y0406
X01515Y0362
X0131Y03225
X01335Y0316
X01955Y0362
T02
X01585Y0248
X02185
T03
X0116Y04255
Y04365
Y04475
Y04585
X01665Y04575
X0208Y0387
X02195
T04
X0233Y01145
Y01245
Y01345
X0241Y01525
Y01625
Y01725
X0105Y04
Y041
Y042
Y043
Y044
Y045
Y046
T05
X01861Y04046
Y0455
X02365
Y04046
X02113Y04298
T06
X01585Y0328
X01885
X02185
T07
X02255Y01775
Y02135
X01095
Y01775
T08
X014898Y0148
X01815
T09
X01125Y012
X02345Y0369
M30
