G04*
G04 #@! TF.GenerationSoftware,Altium Limited,Altium Designer,20.0.14 (345)*
G04*
G04 Layer_Physical_Order=2*
G04 Layer_Color=16711680*
%FSLAX25Y25*%
%MOIN*%
G70*
G01*
G75*
%ADD56C,0.00900*%
%ADD57C,0.03000*%
%ADD58C,0.07874*%
%ADD59C,0.13780*%
%ADD60C,0.07087*%
%ADD61C,0.06102*%
%ADD62C,0.21654*%
%ADD63C,0.07000*%
%ADD64C,0.03150*%
%ADD65C,0.04000*%
G36*
X246500Y371820D02*
X246000Y371761D01*
X245783Y372666D01*
X245070Y374386D01*
X244098Y375973D01*
X242889Y377389D01*
X241473Y378598D01*
X239886Y379570D01*
X238166Y380283D01*
X236356Y380717D01*
X235000Y380824D01*
Y369000D01*
Y357176D01*
X236356Y357283D01*
X238166Y357717D01*
X239886Y358430D01*
X241473Y359402D01*
X242889Y360611D01*
X244098Y362027D01*
X245070Y363614D01*
X245783Y365334D01*
X246000Y366239D01*
X246500Y366180D01*
Y107500D01*
X100000D01*
Y397864D01*
X100500Y397963D01*
X100688Y397510D01*
X101479Y396479D01*
X102510Y395688D01*
X103711Y395190D01*
X105000Y395020D01*
X106289Y395190D01*
X107490Y395688D01*
X108521Y396479D01*
X109312Y397510D01*
X109810Y398711D01*
X109980Y400000D01*
X109810Y401289D01*
X109312Y402490D01*
X108521Y403521D01*
X107490Y404313D01*
X106483Y404729D01*
Y405271D01*
X107490Y405688D01*
X108521Y406479D01*
X109312Y407510D01*
X109810Y408711D01*
X109980Y410000D01*
X109810Y411289D01*
X109312Y412490D01*
X108521Y413521D01*
X107490Y414313D01*
X106483Y414729D01*
Y415271D01*
X107490Y415688D01*
X108521Y416479D01*
X109312Y417510D01*
X109482Y417919D01*
X109226Y417879D01*
X108917Y417811D01*
X108638Y417728D01*
X108387Y417630D01*
X108166Y417516D01*
X107974Y417388D01*
X107812Y417244D01*
Y419500D01*
X105000D01*
Y420500D01*
X107812D01*
Y422756D01*
X107974Y422612D01*
X108166Y422484D01*
X108387Y422370D01*
X108638Y422272D01*
X108917Y422189D01*
X109226Y422121D01*
X109482Y422081D01*
X109312Y422490D01*
X108521Y423521D01*
X107490Y424312D01*
X106483Y424729D01*
Y425271D01*
X107490Y425688D01*
X108521Y426479D01*
X109312Y427510D01*
X109810Y428711D01*
X109980Y430000D01*
X109810Y431289D01*
X109312Y432490D01*
X108521Y433521D01*
X107490Y434312D01*
X106483Y434729D01*
Y435271D01*
X107490Y435687D01*
X108521Y436479D01*
X109312Y437510D01*
X109810Y438711D01*
X109980Y440000D01*
X109810Y441289D01*
X109312Y442490D01*
X108521Y443521D01*
X107490Y444312D01*
X106483Y444729D01*
Y445271D01*
X107490Y445687D01*
X108521Y446479D01*
X109312Y447510D01*
X109810Y448711D01*
X109980Y450000D01*
X109810Y451289D01*
X109312Y452490D01*
X108521Y453521D01*
X107490Y454313D01*
X106483Y454729D01*
Y455271D01*
X107490Y455688D01*
X108521Y456479D01*
X109312Y457510D01*
X109810Y458711D01*
X109980Y460000D01*
X109810Y461289D01*
X109312Y462490D01*
X108521Y463521D01*
X107490Y464313D01*
X107037Y464500D01*
X107136Y465000D01*
X246500D01*
Y371820D01*
D02*
G37*
%LPC*%
G36*
X237000Y459473D02*
Y455500D01*
X240973D01*
X240884Y456175D01*
X240431Y457269D01*
X239709Y458209D01*
X238769Y458931D01*
X237675Y459384D01*
X237000Y459473D01*
D02*
G37*
G36*
X186600D02*
Y455500D01*
X190573D01*
X190484Y456175D01*
X190031Y457269D01*
X189309Y458209D01*
X188369Y458931D01*
X187275Y459384D01*
X186600Y459473D01*
D02*
G37*
G36*
X236000D02*
X235325Y459384D01*
X234231Y458931D01*
X233291Y458209D01*
X232569Y457269D01*
X232116Y456175D01*
X232027Y455500D01*
X236000D01*
Y459473D01*
D02*
G37*
G36*
X185600D02*
X184925Y459384D01*
X183831Y458931D01*
X182891Y458209D01*
X182169Y457269D01*
X181716Y456175D01*
X181627Y455500D01*
X185600D01*
Y459473D01*
D02*
G37*
G36*
X116000Y462586D02*
X114942Y462447D01*
X113957Y462039D01*
X113111Y461389D01*
X112461Y460543D01*
X112053Y459558D01*
X111914Y458500D01*
X112053Y457442D01*
X112461Y456457D01*
X113111Y455611D01*
X113957Y454961D01*
X114942Y454553D01*
X116000Y454414D01*
X117058Y454553D01*
X118043Y454961D01*
X118889Y455611D01*
X119539Y456457D01*
X119947Y457442D01*
X120086Y458500D01*
X119947Y459558D01*
X119539Y460543D01*
X118889Y461389D01*
X118043Y462039D01*
X117058Y462447D01*
X116000Y462586D01*
D02*
G37*
G36*
X166500Y461586D02*
X165442Y461447D01*
X164457Y461039D01*
X163611Y460389D01*
X162961Y459543D01*
X162553Y458558D01*
X162414Y457500D01*
X162553Y456442D01*
X162961Y455457D01*
X163611Y454611D01*
X164457Y453961D01*
X165442Y453553D01*
X166500Y453414D01*
X167558Y453553D01*
X168543Y453961D01*
X169389Y454611D01*
X170039Y455457D01*
X170447Y456442D01*
X170586Y457500D01*
X170447Y458558D01*
X170039Y459543D01*
X169389Y460389D01*
X168543Y461039D01*
X167558Y461447D01*
X166500Y461586D01*
D02*
G37*
G36*
X240973Y454500D02*
X237000D01*
Y450527D01*
X237675Y450616D01*
X238769Y451069D01*
X239709Y451791D01*
X240431Y452731D01*
X240884Y453825D01*
X240973Y454500D01*
D02*
G37*
G36*
X190573D02*
X186600D01*
Y450527D01*
X187275Y450616D01*
X188369Y451069D01*
X189309Y451791D01*
X190031Y452731D01*
X190484Y453825D01*
X190573Y454500D01*
D02*
G37*
G36*
X236000D02*
X232027D01*
X232116Y453825D01*
X232569Y452731D01*
X233291Y451791D01*
X234231Y451069D01*
X235325Y450616D01*
X236000Y450527D01*
Y454500D01*
D02*
G37*
G36*
X185600D02*
X181627D01*
X181716Y453825D01*
X182169Y452731D01*
X182891Y451791D01*
X183831Y451069D01*
X184925Y450616D01*
X185600Y450527D01*
Y454500D01*
D02*
G37*
G36*
X116000Y451586D02*
X114942Y451447D01*
X113957Y451039D01*
X113111Y450389D01*
X112461Y449543D01*
X112053Y448558D01*
X111914Y447500D01*
X112053Y446442D01*
X112461Y445457D01*
X113111Y444611D01*
X113957Y443961D01*
X114942Y443553D01*
X116000Y443414D01*
X117058Y443553D01*
X118043Y443961D01*
X118889Y444611D01*
X119539Y445457D01*
X119947Y446442D01*
X120086Y447500D01*
X119947Y448558D01*
X119539Y449543D01*
X118889Y450389D01*
X118043Y451039D01*
X117058Y451447D01*
X116000Y451586D01*
D02*
G37*
G36*
Y440586D02*
X114942Y440447D01*
X113957Y440039D01*
X113111Y439389D01*
X112461Y438543D01*
X112053Y437558D01*
X111914Y436500D01*
X112053Y435442D01*
X112461Y434457D01*
X113111Y433611D01*
X113957Y432961D01*
X114942Y432553D01*
X116000Y432414D01*
X117058Y432553D01*
X118043Y432961D01*
X118889Y433611D01*
X119539Y434457D01*
X119947Y435442D01*
X120086Y436500D01*
X119947Y437558D01*
X119539Y438543D01*
X118889Y439389D01*
X118043Y440039D01*
X117058Y440447D01*
X116000Y440586D01*
D02*
G37*
G36*
X211300Y434339D02*
X210125Y434184D01*
X209031Y433731D01*
X208091Y433009D01*
X207369Y432069D01*
X206916Y430975D01*
X206761Y429800D01*
X206916Y428625D01*
X207369Y427531D01*
X208091Y426591D01*
X209031Y425869D01*
X210125Y425416D01*
X211300Y425261D01*
X212475Y425416D01*
X213569Y425869D01*
X214509Y426591D01*
X215231Y427531D01*
X215684Y428625D01*
X215839Y429800D01*
X215684Y430975D01*
X215231Y432069D01*
X214509Y433009D01*
X213569Y433731D01*
X212475Y434184D01*
X211300Y434339D01*
D02*
G37*
G36*
X116000Y429586D02*
X114942Y429447D01*
X113957Y429039D01*
X113111Y428389D01*
X112461Y427543D01*
X112053Y426558D01*
X111914Y425500D01*
X112053Y424442D01*
X112461Y423457D01*
X113111Y422611D01*
X113957Y421961D01*
X114942Y421553D01*
X116000Y421414D01*
X117058Y421553D01*
X118043Y421961D01*
X118889Y422611D01*
X119539Y423457D01*
X119947Y424442D01*
X120086Y425500D01*
X119947Y426558D01*
X119539Y427543D01*
X118889Y428389D01*
X118043Y429039D01*
X117058Y429447D01*
X116000Y429586D01*
D02*
G37*
G36*
X124000Y411202D02*
Y409171D01*
X126031D01*
X126008Y409343D01*
X125749Y409970D01*
X125336Y410508D01*
X124799Y410920D01*
X124172Y411180D01*
X124000Y411202D01*
D02*
G37*
G36*
X123000D02*
X122828Y411180D01*
X122202Y410920D01*
X121664Y410508D01*
X121251Y409970D01*
X120992Y409343D01*
X120969Y409171D01*
X123000D01*
Y411202D01*
D02*
G37*
G36*
X137374Y408531D02*
Y406500D01*
X139405D01*
X139383Y406672D01*
X139123Y407299D01*
X138710Y407836D01*
X138172Y408249D01*
X137546Y408508D01*
X137374Y408531D01*
D02*
G37*
G36*
X136374D02*
X136202Y408508D01*
X135575Y408249D01*
X135038Y407836D01*
X134625Y407299D01*
X134365Y406672D01*
X134343Y406500D01*
X136374D01*
Y408531D01*
D02*
G37*
G36*
X126031Y408171D02*
X124000D01*
Y406140D01*
X124172Y406163D01*
X124799Y406422D01*
X125336Y406835D01*
X125749Y407373D01*
X126008Y407999D01*
X126031Y408171D01*
D02*
G37*
G36*
X123000D02*
X120969D01*
X120992Y407999D01*
X121251Y407373D01*
X121664Y406835D01*
X122202Y406422D01*
X122828Y406163D01*
X123000Y406140D01*
Y408171D01*
D02*
G37*
G36*
X237000Y409073D02*
Y405100D01*
X240973D01*
X240884Y405775D01*
X240431Y406869D01*
X239709Y407809D01*
X238769Y408531D01*
X237675Y408984D01*
X237000Y409073D01*
D02*
G37*
G36*
X186600D02*
Y405100D01*
X190573D01*
X190484Y405775D01*
X190031Y406869D01*
X189309Y407809D01*
X188369Y408531D01*
X187275Y408984D01*
X186600Y409073D01*
D02*
G37*
G36*
X236000D02*
X235325Y408984D01*
X234231Y408531D01*
X233291Y407809D01*
X232569Y406869D01*
X232116Y405775D01*
X232027Y405100D01*
X236000D01*
Y409073D01*
D02*
G37*
G36*
X185600D02*
X184925Y408984D01*
X183831Y408531D01*
X182891Y407809D01*
X182169Y406869D01*
X181716Y405775D01*
X181627Y405100D01*
X185600D01*
Y409073D01*
D02*
G37*
G36*
X139405Y405500D02*
X137374D01*
Y403469D01*
X137546Y403491D01*
X138172Y403751D01*
X138710Y404164D01*
X139123Y404702D01*
X139383Y405328D01*
X139405Y405500D01*
D02*
G37*
G36*
X136374D02*
X134343D01*
X134365Y405328D01*
X134625Y404702D01*
X135038Y404164D01*
X135575Y403751D01*
X136202Y403491D01*
X136374Y403469D01*
Y405500D01*
D02*
G37*
G36*
X240973Y404100D02*
X237000D01*
Y400127D01*
X237675Y400216D01*
X238769Y400669D01*
X239709Y401391D01*
X240431Y402331D01*
X240884Y403425D01*
X240973Y404100D01*
D02*
G37*
G36*
X190573D02*
X186600D01*
Y400127D01*
X187275Y400216D01*
X188369Y400669D01*
X189309Y401391D01*
X190031Y402331D01*
X190484Y403425D01*
X190573Y404100D01*
D02*
G37*
G36*
X236000D02*
X232027D01*
X232116Y403425D01*
X232569Y402331D01*
X233291Y401391D01*
X234231Y400669D01*
X235325Y400216D01*
X236000Y400127D01*
Y404100D01*
D02*
G37*
G36*
X185600D02*
X181627D01*
X181716Y403425D01*
X182169Y402331D01*
X182891Y401391D01*
X183831Y400669D01*
X184925Y400216D01*
X185600Y400127D01*
Y404100D01*
D02*
G37*
G36*
X118500Y396636D02*
X117828Y396548D01*
X117201Y396288D01*
X116664Y395876D01*
X116251Y395338D01*
X115991Y394711D01*
X115903Y394039D01*
X115962Y393592D01*
X114955Y392585D01*
X114634Y392105D01*
X114522Y391539D01*
Y355111D01*
X114164Y354836D01*
X113751Y354298D01*
X113491Y353672D01*
X113403Y353000D01*
X113491Y352328D01*
X113751Y351701D01*
X114164Y351164D01*
X114701Y350751D01*
X115328Y350491D01*
X116000Y350403D01*
X116672Y350491D01*
X117298Y350751D01*
X117836Y351164D01*
X118249Y351701D01*
X118509Y352328D01*
X118597Y353000D01*
X118509Y353672D01*
X118249Y354298D01*
X117836Y354836D01*
X117478Y355111D01*
Y390927D01*
X118053Y391501D01*
X118500Y391442D01*
X119172Y391531D01*
X119799Y391790D01*
X120336Y392203D01*
X120749Y392741D01*
X121009Y393367D01*
X121097Y394039D01*
X121009Y394711D01*
X120749Y395338D01*
X120336Y395876D01*
X119799Y396288D01*
X119172Y396548D01*
X118500Y396636D01*
D02*
G37*
G36*
X220000Y391020D02*
Y387500D01*
X223520D01*
X223447Y388058D01*
X223039Y389043D01*
X222389Y389889D01*
X221543Y390539D01*
X220558Y390947D01*
X220000Y391020D01*
D02*
G37*
G36*
X219000D02*
X218442Y390947D01*
X217457Y390539D01*
X216611Y389889D01*
X215961Y389043D01*
X215553Y388058D01*
X215480Y387500D01*
X219000D01*
Y391020D01*
D02*
G37*
G36*
X223520Y386500D02*
X220000D01*
Y382980D01*
X220558Y383053D01*
X221543Y383461D01*
X222389Y384111D01*
X223039Y384957D01*
X223447Y385942D01*
X223520Y386500D01*
D02*
G37*
G36*
X219000D02*
X215480D01*
X215553Y385942D01*
X215961Y384957D01*
X216611Y384111D01*
X217457Y383461D01*
X218442Y383053D01*
X219000Y382980D01*
Y386500D01*
D02*
G37*
G36*
X208000Y391086D02*
X206942Y390947D01*
X205957Y390539D01*
X205111Y389889D01*
X204461Y389043D01*
X204053Y388058D01*
X203914Y387000D01*
X204053Y385942D01*
X204461Y384957D01*
X205111Y384111D01*
X205957Y383461D01*
X206942Y383053D01*
X208000Y382914D01*
X209058Y383053D01*
X210043Y383461D01*
X210889Y384111D01*
X211539Y384957D01*
X211947Y385942D01*
X212086Y387000D01*
X211947Y388058D01*
X211539Y389043D01*
X210889Y389889D01*
X210043Y390539D01*
X209058Y390947D01*
X208000Y391086D01*
D02*
G37*
G36*
X122500Y383031D02*
Y381000D01*
X124531D01*
X124509Y381172D01*
X124249Y381799D01*
X123836Y382336D01*
X123299Y382749D01*
X122672Y383009D01*
X122500Y383031D01*
D02*
G37*
G36*
X121500D02*
X121328Y383009D01*
X120702Y382749D01*
X120164Y382336D01*
X119751Y381799D01*
X119492Y381172D01*
X119469Y381000D01*
X121500D01*
Y383031D01*
D02*
G37*
G36*
X124531Y380000D02*
X122500D01*
Y377969D01*
X122672Y377992D01*
X123299Y378251D01*
X123836Y378664D01*
X124249Y379202D01*
X124509Y379828D01*
X124531Y380000D01*
D02*
G37*
G36*
X121500D02*
X119469D01*
X119492Y379828D01*
X119751Y379202D01*
X120164Y378664D01*
X120702Y378251D01*
X121328Y377992D01*
X121500Y377969D01*
Y380000D01*
D02*
G37*
G36*
X234000Y380824D02*
X232644Y380717D01*
X230834Y380283D01*
X229114Y379570D01*
X227527Y378598D01*
X226111Y377389D01*
X224902Y375973D01*
X223930Y374386D01*
X223217Y372666D01*
X222783Y370856D01*
X222676Y369500D01*
X234000D01*
Y380824D01*
D02*
G37*
G36*
X123000Y365531D02*
Y363500D01*
X125031D01*
X125008Y363672D01*
X124749Y364299D01*
X124336Y364836D01*
X123799Y365249D01*
X123172Y365509D01*
X123000Y365531D01*
D02*
G37*
G36*
X122000D02*
X121828Y365509D01*
X121202Y365249D01*
X120664Y364836D01*
X120251Y364299D01*
X119992Y363672D01*
X119969Y363500D01*
X122000D01*
Y365531D01*
D02*
G37*
G36*
X196000Y364531D02*
Y362500D01*
X198031D01*
X198009Y362672D01*
X197749Y363299D01*
X197336Y363836D01*
X196799Y364249D01*
X196172Y364509D01*
X196000Y364531D01*
D02*
G37*
G36*
X195000D02*
X194828Y364509D01*
X194202Y364249D01*
X193664Y363836D01*
X193251Y363299D01*
X192991Y362672D01*
X192969Y362500D01*
X195000D01*
Y364531D01*
D02*
G37*
G36*
X152000D02*
Y362500D01*
X154031D01*
X154008Y362672D01*
X153749Y363299D01*
X153336Y363836D01*
X152798Y364249D01*
X152172Y364509D01*
X152000Y364531D01*
D02*
G37*
G36*
X151000D02*
X150828Y364509D01*
X150201Y364249D01*
X149664Y363836D01*
X149251Y363299D01*
X148992Y362672D01*
X148969Y362500D01*
X151000D01*
Y364531D01*
D02*
G37*
G36*
X125031Y362500D02*
X123000D01*
Y360469D01*
X123172Y360491D01*
X123799Y360751D01*
X124336Y361164D01*
X124749Y361701D01*
X125008Y362328D01*
X125031Y362500D01*
D02*
G37*
G36*
X122000D02*
X119969D01*
X119992Y362328D01*
X120251Y361701D01*
X120664Y361164D01*
X121202Y360751D01*
X121828Y360491D01*
X122000Y360469D01*
Y362500D01*
D02*
G37*
G36*
X198031Y361500D02*
X196000D01*
Y359469D01*
X196172Y359491D01*
X196799Y359751D01*
X197336Y360164D01*
X197749Y360701D01*
X198009Y361328D01*
X198031Y361500D01*
D02*
G37*
G36*
X195000D02*
X192969D01*
X192991Y361328D01*
X193251Y360701D01*
X193664Y360164D01*
X194202Y359751D01*
X194828Y359491D01*
X195000Y359469D01*
Y361500D01*
D02*
G37*
G36*
X154031D02*
X152000D01*
Y359469D01*
X152172Y359491D01*
X152798Y359751D01*
X153336Y360164D01*
X153749Y360701D01*
X154008Y361328D01*
X154031Y361500D01*
D02*
G37*
G36*
X151000D02*
X148969D01*
X148992Y361328D01*
X149251Y360701D01*
X149664Y360164D01*
X150201Y359751D01*
X150828Y359491D01*
X151000Y359469D01*
Y361500D01*
D02*
G37*
G36*
X234000Y368500D02*
X222676D01*
X222783Y367144D01*
X223217Y365334D01*
X223930Y363614D01*
X224902Y362027D01*
X226111Y360611D01*
X227527Y359402D01*
X229114Y358430D01*
X230834Y357717D01*
X232644Y357283D01*
X234000Y357176D01*
Y368500D01*
D02*
G37*
G36*
X106500Y359031D02*
Y357000D01*
X108531D01*
X108509Y357172D01*
X108249Y357799D01*
X107836Y358336D01*
X107299Y358749D01*
X106672Y359009D01*
X106500Y359031D01*
D02*
G37*
G36*
X105500D02*
X105328Y359009D01*
X104701Y358749D01*
X104164Y358336D01*
X103751Y357799D01*
X103491Y357172D01*
X103469Y357000D01*
X105500D01*
Y359031D01*
D02*
G37*
G36*
X108531Y356000D02*
X106500D01*
Y353969D01*
X106672Y353992D01*
X107299Y354251D01*
X107836Y354664D01*
X108249Y355202D01*
X108509Y355828D01*
X108531Y356000D01*
D02*
G37*
G36*
X105500D02*
X103469D01*
X103491Y355828D01*
X103751Y355202D01*
X104164Y354664D01*
X104701Y354251D01*
X105328Y353992D01*
X105500Y353969D01*
Y356000D01*
D02*
G37*
G36*
X104000Y334531D02*
Y332500D01*
X106031D01*
X106009Y332672D01*
X105749Y333298D01*
X105336Y333836D01*
X104798Y334249D01*
X104172Y334508D01*
X104000Y334531D01*
D02*
G37*
G36*
X103000D02*
X102828Y334508D01*
X102201Y334249D01*
X101664Y333836D01*
X101251Y333298D01*
X100991Y332672D01*
X100969Y332500D01*
X103000D01*
Y334531D01*
D02*
G37*
G36*
X106031Y331500D02*
X104000D01*
Y329469D01*
X104172Y329491D01*
X104798Y329751D01*
X105336Y330164D01*
X105749Y330701D01*
X106009Y331328D01*
X106031Y331500D01*
D02*
G37*
G36*
X103000D02*
X100969D01*
X100991Y331328D01*
X101251Y330701D01*
X101664Y330164D01*
X102201Y329751D01*
X102828Y329491D01*
X103000Y329469D01*
Y331500D01*
D02*
G37*
G36*
X218500Y332980D02*
X217211Y332810D01*
X216010Y332312D01*
X214979Y331521D01*
X214188Y330490D01*
X213690Y329289D01*
X213520Y328000D01*
X213690Y326711D01*
X214188Y325510D01*
X214979Y324479D01*
X216010Y323688D01*
X217211Y323190D01*
X218500Y323020D01*
X219789Y323190D01*
X220990Y323688D01*
X222021Y324479D01*
X222813Y325510D01*
X223310Y326711D01*
X223480Y328000D01*
X223310Y329289D01*
X222813Y330490D01*
X222021Y331521D01*
X220990Y332312D01*
X219789Y332810D01*
X218500Y332980D01*
D02*
G37*
G36*
X188500D02*
X187211Y332810D01*
X186010Y332312D01*
X184979Y331521D01*
X184187Y330490D01*
X183690Y329289D01*
X183520Y328000D01*
X183690Y326711D01*
X184187Y325510D01*
X184979Y324479D01*
X186010Y323688D01*
X187211Y323190D01*
X188500Y323020D01*
X189789Y323190D01*
X190990Y323688D01*
X192021Y324479D01*
X192813Y325510D01*
X193310Y326711D01*
X193480Y328000D01*
X193310Y329289D01*
X192813Y330490D01*
X192021Y331521D01*
X190990Y332312D01*
X189789Y332810D01*
X188500Y332980D01*
D02*
G37*
G36*
X158500D02*
X157211Y332810D01*
X156010Y332312D01*
X154979Y331521D01*
X154188Y330490D01*
X153690Y329289D01*
X153520Y328000D01*
X153690Y326711D01*
X154188Y325510D01*
X154979Y324479D01*
X156010Y323688D01*
X157211Y323190D01*
X158500Y323020D01*
X159789Y323190D01*
X160990Y323688D01*
X162021Y324479D01*
X162812Y325510D01*
X163310Y326711D01*
X163480Y328000D01*
X163310Y329289D01*
X162812Y330490D01*
X162021Y331521D01*
X160990Y332312D01*
X159789Y332810D01*
X158500Y332980D01*
D02*
G37*
G36*
X131500Y325031D02*
Y323000D01*
X133531D01*
X133509Y323172D01*
X133249Y323798D01*
X132836Y324336D01*
X132299Y324749D01*
X131672Y325009D01*
X131500Y325031D01*
D02*
G37*
G36*
X130500D02*
X130328Y325009D01*
X129701Y324749D01*
X129164Y324336D01*
X128751Y323798D01*
X128491Y323172D01*
X128469Y323000D01*
X130500D01*
Y325031D01*
D02*
G37*
G36*
X133531Y322000D02*
X131500D01*
Y319969D01*
X131672Y319991D01*
X132299Y320251D01*
X132836Y320664D01*
X133249Y321201D01*
X133509Y321828D01*
X133531Y322000D01*
D02*
G37*
G36*
X130500D02*
X128469D01*
X128491Y321828D01*
X128751Y321201D01*
X129164Y320664D01*
X129701Y320251D01*
X130328Y319991D01*
X130500Y319969D01*
Y322000D01*
D02*
G37*
G36*
X134000Y318531D02*
Y316500D01*
X136031D01*
X136009Y316672D01*
X135749Y317299D01*
X135336Y317836D01*
X134799Y318249D01*
X134172Y318509D01*
X134000Y318531D01*
D02*
G37*
G36*
X133000D02*
X132828Y318509D01*
X132202Y318249D01*
X131664Y317836D01*
X131251Y317299D01*
X130991Y316672D01*
X130969Y316500D01*
X133000D01*
Y318531D01*
D02*
G37*
G36*
X136031Y315500D02*
X134000D01*
Y313469D01*
X134172Y313492D01*
X134799Y313751D01*
X135336Y314164D01*
X135749Y314702D01*
X136009Y315328D01*
X136031Y315500D01*
D02*
G37*
G36*
X133000D02*
X130969D01*
X130991Y315328D01*
X131251Y314702D01*
X131664Y314164D01*
X132202Y313751D01*
X132828Y313492D01*
X133000Y313469D01*
Y315500D01*
D02*
G37*
G36*
X148000Y306097D02*
X147328Y306009D01*
X146702Y305749D01*
X146164Y305336D01*
X145889Y304978D01*
X139611D01*
X139336Y305336D01*
X138798Y305749D01*
X138172Y306009D01*
X137500Y306097D01*
X136828Y306009D01*
X136202Y305749D01*
X135664Y305336D01*
X135251Y304799D01*
X134992Y304172D01*
X134903Y303500D01*
X134992Y302828D01*
X135251Y302202D01*
X135664Y301664D01*
X136202Y301251D01*
X136828Y300992D01*
X137500Y300903D01*
X138172Y300992D01*
X138798Y301251D01*
X139336Y301664D01*
X139611Y302022D01*
X145889D01*
X146164Y301664D01*
X146702Y301251D01*
X147328Y300992D01*
X148000Y300903D01*
X148672Y300992D01*
X149299Y301251D01*
X149836Y301664D01*
X150249Y302202D01*
X150508Y302828D01*
X150597Y303500D01*
X150508Y304172D01*
X150249Y304799D01*
X149836Y305336D01*
X149299Y305749D01*
X148672Y306009D01*
X148000Y306097D01*
D02*
G37*
G36*
X107595Y287937D02*
Y285906D01*
X109626D01*
X109603Y286078D01*
X109344Y286704D01*
X108931Y287242D01*
X108393Y287655D01*
X107767Y287914D01*
X107595Y287937D01*
D02*
G37*
G36*
X106595D02*
X106422Y287914D01*
X105796Y287655D01*
X105258Y287242D01*
X104845Y286704D01*
X104586Y286078D01*
X104563Y285906D01*
X106595D01*
Y287937D01*
D02*
G37*
G36*
X109626Y284906D02*
X107595D01*
Y282874D01*
X107767Y282897D01*
X108393Y283156D01*
X108931Y283569D01*
X109344Y284107D01*
X109603Y284733D01*
X109626Y284906D01*
D02*
G37*
G36*
X106595D02*
X104563D01*
X104586Y284733D01*
X104845Y284107D01*
X105258Y283569D01*
X105796Y283156D01*
X106422Y282897D01*
X106595Y282874D01*
Y284906D01*
D02*
G37*
G36*
X218500Y256585D02*
X216825Y256420D01*
X215215Y255931D01*
X213731Y255138D01*
X212430Y254070D01*
X211362Y252769D01*
X210569Y251285D01*
X210080Y249675D01*
X209915Y248000D01*
X210080Y246325D01*
X210569Y244715D01*
X211362Y243231D01*
X212430Y241930D01*
X213731Y240862D01*
X215215Y240069D01*
X216825Y239580D01*
X218500Y239415D01*
X220175Y239580D01*
X221785Y240069D01*
X223269Y240862D01*
X224570Y241930D01*
X225638Y243231D01*
X226431Y244715D01*
X226920Y246325D01*
X227085Y248000D01*
X226920Y249675D01*
X226431Y251285D01*
X225638Y252769D01*
X224570Y254070D01*
X223269Y255138D01*
X221785Y255931D01*
X220175Y256420D01*
X218500Y256585D01*
D02*
G37*
G36*
X158500D02*
X156825Y256420D01*
X155215Y255931D01*
X153731Y255138D01*
X152430Y254070D01*
X151362Y252769D01*
X150569Y251285D01*
X150080Y249675D01*
X149915Y248000D01*
X150080Y246325D01*
X150569Y244715D01*
X151362Y243231D01*
X152430Y241930D01*
X153731Y240862D01*
X155215Y240069D01*
X156825Y239580D01*
X158500Y239415D01*
X160175Y239580D01*
X161785Y240069D01*
X163269Y240862D01*
X164570Y241930D01*
X165638Y243231D01*
X166431Y244715D01*
X166920Y246325D01*
X167085Y248000D01*
X166920Y249675D01*
X166431Y251285D01*
X165638Y252769D01*
X164570Y254070D01*
X163269Y255138D01*
X161785Y255931D01*
X160175Y256420D01*
X158500Y256585D01*
D02*
G37*
G36*
X225500Y222480D02*
X223748Y222308D01*
X222063Y221797D01*
X220511Y220967D01*
X219150Y219850D01*
X218033Y218489D01*
X217203Y216937D01*
X216692Y215252D01*
X216520Y213500D01*
X216692Y211748D01*
X217203Y210063D01*
X218033Y208511D01*
X219150Y207150D01*
X220511Y206033D01*
X222063Y205203D01*
X223748Y204692D01*
X225500Y204520D01*
X227252Y204692D01*
X228937Y205203D01*
X230489Y206033D01*
X231850Y207150D01*
X232967Y208511D01*
X233797Y210063D01*
X234308Y211748D01*
X234480Y213500D01*
X234308Y215252D01*
X233797Y216937D01*
X232967Y218489D01*
X231850Y219850D01*
X230489Y220967D01*
X228937Y221797D01*
X227252Y222308D01*
X225500Y222480D01*
D02*
G37*
G36*
X109500D02*
X107748Y222308D01*
X106063Y221797D01*
X104511Y220967D01*
X103150Y219850D01*
X102033Y218489D01*
X101203Y216937D01*
X100692Y215252D01*
X100520Y213500D01*
X100692Y211748D01*
X101203Y210063D01*
X102033Y208511D01*
X103150Y207150D01*
X104511Y206033D01*
X106063Y205203D01*
X107748Y204692D01*
X109500Y204520D01*
X111252Y204692D01*
X112937Y205203D01*
X114489Y206033D01*
X115850Y207150D01*
X116967Y208511D01*
X117797Y210063D01*
X118308Y211748D01*
X118480Y213500D01*
X118308Y215252D01*
X117797Y216937D01*
X116967Y218489D01*
X115850Y219850D01*
X114489Y220967D01*
X112937Y221797D01*
X111252Y222308D01*
X109500Y222480D01*
D02*
G37*
G36*
X225500Y186480D02*
X223748Y186308D01*
X222063Y185797D01*
X220511Y184967D01*
X219150Y183850D01*
X218033Y182489D01*
X217203Y180937D01*
X216692Y179252D01*
X216520Y177500D01*
X216692Y175748D01*
X217203Y174063D01*
X218033Y172511D01*
X219150Y171150D01*
X220511Y170033D01*
X222063Y169203D01*
X223748Y168692D01*
X225500Y168520D01*
X227252Y168692D01*
X228937Y169203D01*
X230489Y170033D01*
X231850Y171150D01*
X232967Y172511D01*
X233797Y174063D01*
X234308Y175748D01*
X234480Y177500D01*
X234308Y179252D01*
X233797Y180937D01*
X232967Y182489D01*
X231850Y183850D01*
X230489Y184967D01*
X228937Y185797D01*
X227252Y186308D01*
X225500Y186480D01*
D02*
G37*
G36*
X109500D02*
X107748Y186308D01*
X106063Y185797D01*
X104511Y184967D01*
X103150Y183850D01*
X102033Y182489D01*
X101203Y180937D01*
X100692Y179252D01*
X100520Y177500D01*
X100692Y175748D01*
X101203Y174063D01*
X102033Y172511D01*
X103150Y171150D01*
X104511Y170033D01*
X106063Y169203D01*
X107748Y168692D01*
X109500Y168520D01*
X111252Y168692D01*
X112937Y169203D01*
X114489Y170033D01*
X115850Y171150D01*
X116967Y172511D01*
X117797Y174063D01*
X118308Y175748D01*
X118480Y177500D01*
X118308Y179252D01*
X117797Y180937D01*
X116967Y182489D01*
X115850Y183850D01*
X114489Y184967D01*
X112937Y185797D01*
X111252Y186308D01*
X109500Y186480D01*
D02*
G37*
G36*
X241000Y177480D02*
X239711Y177310D01*
X238510Y176813D01*
X237479Y176021D01*
X236687Y174990D01*
X236190Y173789D01*
X236020Y172500D01*
X236180Y171285D01*
X224198Y159302D01*
X223645Y158475D01*
X223451Y157500D01*
Y154365D01*
X223403Y154000D01*
X223492Y153328D01*
X223751Y152701D01*
X224164Y152164D01*
X224701Y151751D01*
X225328Y151491D01*
X226000Y151403D01*
X226672Y151491D01*
X227298Y151751D01*
X227836Y152164D01*
X228249Y152701D01*
X228508Y153328D01*
X228597Y154000D01*
X228549Y154365D01*
Y156444D01*
X235654Y163549D01*
X236128Y163316D01*
X236086Y163000D01*
X241000D01*
X245914D01*
X245810Y163789D01*
X245312Y164990D01*
X244521Y166021D01*
X243490Y166813D01*
X242483Y167229D01*
Y167771D01*
X243490Y168187D01*
X244521Y168979D01*
X245312Y170010D01*
X245810Y171211D01*
X245980Y172500D01*
X245810Y173789D01*
X245312Y174990D01*
X244521Y176021D01*
X243490Y176813D01*
X242289Y177310D01*
X241000Y177480D01*
D02*
G37*
G36*
X245914Y162000D02*
X241000D01*
X236086D01*
X236190Y161211D01*
X236687Y160010D01*
X237479Y158979D01*
X238510Y158187D01*
X239517Y157771D01*
Y157229D01*
X238510Y156813D01*
X237479Y156021D01*
X236687Y154990D01*
X236190Y153789D01*
X236020Y152500D01*
X236190Y151211D01*
X236687Y150010D01*
X237479Y148979D01*
X238510Y148187D01*
X239711Y147690D01*
X241000Y147520D01*
X242289Y147690D01*
X243490Y148187D01*
X244521Y148979D01*
X245312Y150010D01*
X245810Y151211D01*
X245980Y152500D01*
X245810Y153789D01*
X245312Y154990D01*
X244521Y156021D01*
X243490Y156813D01*
X242483Y157229D01*
Y157771D01*
X243490Y158187D01*
X244521Y158979D01*
X245312Y160010D01*
X245810Y161211D01*
X245914Y162000D01*
D02*
G37*
G36*
X181500Y159926D02*
X179634Y159780D01*
X177814Y159343D01*
X176085Y158627D01*
X174490Y157649D01*
X173067Y156433D01*
X171851Y155010D01*
X170873Y153414D01*
X170157Y151686D01*
X169720Y149866D01*
X169573Y148000D01*
X169720Y146134D01*
X170157Y144315D01*
X170873Y142586D01*
X171851Y140990D01*
X173067Y139567D01*
X174490Y138351D01*
X176085Y137373D01*
X177814Y136657D01*
X179634Y136220D01*
X181500Y136074D01*
X183366Y136220D01*
X185186Y136657D01*
X186915Y137373D01*
X188510Y138351D01*
X189933Y139567D01*
X191149Y140990D01*
X192127Y142586D01*
X192843Y144315D01*
X193280Y146134D01*
X193427Y148000D01*
X193280Y149866D01*
X192843Y151686D01*
X192127Y153414D01*
X191149Y155010D01*
X189933Y156433D01*
X188510Y157649D01*
X186915Y158627D01*
X185186Y159343D01*
X183366Y159780D01*
X181500Y159926D01*
D02*
G37*
G36*
X148980D02*
X147115Y159780D01*
X145295Y159343D01*
X143566Y158627D01*
X141970Y157649D01*
X140547Y156433D01*
X139331Y155010D01*
X138354Y153414D01*
X137637Y151686D01*
X137201Y149866D01*
X137054Y148000D01*
X137201Y146134D01*
X137637Y144315D01*
X138354Y142586D01*
X139331Y140990D01*
X140547Y139567D01*
X141970Y138351D01*
X143566Y137373D01*
X145295Y136657D01*
X147115Y136220D01*
X148980Y136074D01*
X150846Y136220D01*
X152666Y136657D01*
X154395Y137373D01*
X155991Y138351D01*
X157414Y139567D01*
X158629Y140990D01*
X159607Y142586D01*
X160323Y144315D01*
X160760Y146134D01*
X160907Y148000D01*
X160760Y149866D01*
X160323Y151686D01*
X159607Y153414D01*
X158629Y155010D01*
X157414Y156433D01*
X155991Y157649D01*
X154395Y158627D01*
X152666Y159343D01*
X150846Y159780D01*
X148980Y159926D01*
D02*
G37*
G36*
X233000Y139480D02*
X231711Y139310D01*
X230510Y138812D01*
X229479Y138021D01*
X228688Y136990D01*
X228190Y135789D01*
X228020Y134500D01*
X228190Y133211D01*
X228688Y132010D01*
X229479Y130979D01*
X230510Y130187D01*
X231517Y129771D01*
Y129229D01*
X230510Y128813D01*
X229479Y128021D01*
X228688Y126990D01*
X228190Y125789D01*
X228086Y125000D01*
X233000D01*
X237914D01*
X237810Y125789D01*
X237313Y126990D01*
X236521Y128021D01*
X235490Y128813D01*
X234483Y129229D01*
Y129771D01*
X235490Y130187D01*
X236521Y130979D01*
X237313Y132010D01*
X237810Y133211D01*
X237980Y134500D01*
X237810Y135789D01*
X237313Y136990D01*
X236521Y138021D01*
X235490Y138812D01*
X234289Y139310D01*
X233000Y139480D01*
D02*
G37*
G36*
X113000Y131824D02*
Y120500D01*
X124324D01*
X124217Y121856D01*
X123783Y123666D01*
X123070Y125386D01*
X122098Y126973D01*
X120889Y128389D01*
X119473Y129598D01*
X117886Y130570D01*
X116166Y131283D01*
X114356Y131717D01*
X113000Y131824D01*
D02*
G37*
G36*
X112000D02*
X110644Y131717D01*
X108834Y131283D01*
X107114Y130570D01*
X105527Y129598D01*
X104111Y128389D01*
X102902Y126973D01*
X101930Y125386D01*
X101217Y123666D01*
X100783Y121856D01*
X100676Y120500D01*
X112000D01*
Y131824D01*
D02*
G37*
G36*
X237914Y124000D02*
X233000D01*
X228086D01*
X228190Y123211D01*
X228688Y122010D01*
X229479Y120979D01*
X230510Y120187D01*
X231517Y119771D01*
Y119229D01*
X230510Y118813D01*
X229479Y118021D01*
X228688Y116990D01*
X228190Y115789D01*
X228020Y114500D01*
X228190Y113211D01*
X228688Y112010D01*
X229479Y110979D01*
X230510Y110187D01*
X231711Y109690D01*
X233000Y109520D01*
X234289Y109690D01*
X235490Y110187D01*
X236521Y110979D01*
X237313Y112010D01*
X237810Y113211D01*
X237980Y114500D01*
X237810Y115789D01*
X237313Y116990D01*
X236521Y118021D01*
X235490Y118813D01*
X234483Y119229D01*
Y119771D01*
X235490Y120187D01*
X236521Y120979D01*
X237313Y122010D01*
X237810Y123211D01*
X237914Y124000D01*
D02*
G37*
G36*
X124324Y119500D02*
X113000D01*
Y108176D01*
X114356Y108283D01*
X116166Y108717D01*
X117886Y109430D01*
X119473Y110402D01*
X120889Y111611D01*
X122098Y113027D01*
X123070Y114614D01*
X123783Y116334D01*
X124217Y118144D01*
X124324Y119500D01*
D02*
G37*
G36*
X112000D02*
X100676D01*
X100783Y118144D01*
X101217Y116334D01*
X101930Y114614D01*
X102902Y113027D01*
X104111Y111611D01*
X105527Y110402D01*
X107114Y109430D01*
X108834Y108717D01*
X110644Y108283D01*
X112000Y108176D01*
Y119500D01*
D02*
G37*
%LPD*%
D56*
X116000Y353000D02*
Y391539D01*
X118500Y394039D01*
X137500Y303500D02*
X148000D01*
D57*
X226000Y157500D02*
X241000Y172500D01*
X226000Y154000D02*
Y157500D01*
D58*
X105000Y450000D02*
D03*
Y430000D02*
D03*
Y440000D02*
D03*
Y420000D02*
D03*
Y410000D02*
D03*
Y400000D02*
D03*
Y460000D02*
D03*
X233000Y114500D02*
D03*
Y124500D02*
D03*
Y134500D02*
D03*
X109500Y177500D02*
D03*
X225500D02*
D03*
Y213500D02*
D03*
X109500D02*
D03*
X158500Y328000D02*
D03*
X218500D02*
D03*
X188500D02*
D03*
X241000Y172500D02*
D03*
Y162500D02*
D03*
Y152500D02*
D03*
D59*
X148980Y148000D02*
D03*
X181500D02*
D03*
D60*
X218500Y248000D02*
D03*
X158500D02*
D03*
D61*
X166500Y457500D02*
D03*
X116000Y436500D02*
D03*
Y447500D02*
D03*
Y458500D02*
D03*
Y425500D02*
D03*
X219500Y387000D02*
D03*
X208000D02*
D03*
D62*
X112500Y120000D02*
D03*
X234500Y369000D02*
D03*
D63*
X186100Y455000D02*
D03*
X236500D02*
D03*
Y404600D02*
D03*
X186100D02*
D03*
X211300Y429800D02*
D03*
D64*
X133500Y316000D02*
D03*
X136874Y406000D02*
D03*
X131000Y322500D02*
D03*
X116000Y353000D02*
D03*
X106000Y356500D02*
D03*
X122000Y380500D02*
D03*
X118500Y394039D02*
D03*
X195500Y362000D02*
D03*
X151500D02*
D03*
X148000Y303500D02*
D03*
X137500D02*
D03*
X226000Y154000D02*
D03*
X107095Y285405D02*
D03*
X103500Y332000D02*
D03*
X122500Y363000D02*
D03*
X123500Y408671D02*
D03*
D65*
X105000Y420000D02*
X112000D01*
M02*
