G04*
G04 #@! TF.GenerationSoftware,Altium Limited,Altium Designer,20.0.14 (345)*
G04*
G04 Layer_Color=8421504*
%FSLAX25Y25*%
%MOIN*%
G70*
G01*
G75*
%ADD18R,0.02756X0.03347*%
%ADD19R,0.05906X0.04331*%
%ADD20R,0.03347X0.02756*%
%ADD21R,0.04331X0.05906*%
%ADD22R,0.03347X0.02756*%
%ADD23R,0.02756X0.03347*%
%ADD24R,0.04134X0.03740*%
%ADD25R,0.03937X0.03543*%
%ADD26R,0.03150X0.03543*%
%ADD27R,0.03937X0.04331*%
G04:AMPARAMS|DCode=28|XSize=21.65mil|YSize=31.5mil|CornerRadius=1.95mil|HoleSize=0mil|Usage=FLASHONLY|Rotation=180.000|XOffset=0mil|YOffset=0mil|HoleType=Round|Shape=RoundedRectangle|*
%AMROUNDEDRECTD28*
21,1,0.02165,0.02760,0,0,180.0*
21,1,0.01776,0.03150,0,0,180.0*
1,1,0.00390,-0.00888,0.01380*
1,1,0.00390,0.00888,0.01380*
1,1,0.00390,0.00888,-0.01380*
1,1,0.00390,-0.00888,-0.01380*
%
%ADD28ROUNDEDRECTD28*%
%ADD29R,0.01181X0.05709*%
G04:AMPARAMS|DCode=30|XSize=17.72mil|YSize=53.15mil|CornerRadius=1.95mil|HoleSize=0mil|Usage=FLASHONLY|Rotation=90.000|XOffset=0mil|YOffset=0mil|HoleType=Round|Shape=RoundedRectangle|*
%AMROUNDEDRECTD30*
21,1,0.01772,0.04925,0,0,90.0*
21,1,0.01382,0.05315,0,0,90.0*
1,1,0.00390,0.02463,0.00691*
1,1,0.00390,0.02463,-0.00691*
1,1,0.00390,-0.02463,-0.00691*
1,1,0.00390,-0.02463,0.00691*
%
%ADD30ROUNDEDRECTD30*%
%ADD31R,0.13386X0.07087*%
%ADD32R,0.02362X0.03150*%
%ADD33R,0.03150X0.03150*%
D18*
X112500Y410051D02*
D03*
Y403949D02*
D03*
X241000Y183949D02*
D03*
Y190051D02*
D03*
X103500Y386051D02*
D03*
Y379949D02*
D03*
D19*
X112000Y378800D02*
D03*
Y386200D02*
D03*
D20*
X144000Y406039D02*
D03*
Y410961D02*
D03*
D21*
X124253Y328500D02*
D03*
X131653D02*
D03*
X125800Y310000D02*
D03*
X133200D02*
D03*
X158700Y356000D02*
D03*
X151300D02*
D03*
X188300D02*
D03*
X195700D02*
D03*
D22*
X230102Y162000D02*
D03*
X224000D02*
D03*
D23*
X112461Y303500D02*
D03*
X107539D02*
D03*
D24*
X133500Y385646D02*
D03*
Y391354D02*
D03*
D25*
X103500Y337343D02*
D03*
Y342657D02*
D03*
X106000Y361343D02*
D03*
Y366657D02*
D03*
X123500Y418500D02*
D03*
Y413185D02*
D03*
X127500Y391158D02*
D03*
Y385842D02*
D03*
X123500Y398843D02*
D03*
Y404157D02*
D03*
D26*
X134500Y353500D02*
D03*
X129776D02*
D03*
D27*
X129244Y360500D02*
D03*
X134756D02*
D03*
X134756Y368500D02*
D03*
X129244D02*
D03*
D28*
X114260Y357980D02*
D03*
X118000D02*
D03*
X121740D02*
D03*
Y368020D02*
D03*
X114260D02*
D03*
D29*
X129000Y400000D02*
D03*
X130968D02*
D03*
X132937D02*
D03*
X134906D02*
D03*
X136874D02*
D03*
Y417323D02*
D03*
X134906D02*
D03*
X132937D02*
D03*
X130968D02*
D03*
X129000D02*
D03*
D30*
X128260Y345339D02*
D03*
X110740D02*
D03*
Y342779D02*
D03*
Y340220D02*
D03*
Y337661D02*
D03*
X128260Y342779D02*
D03*
Y340220D02*
D03*
Y337661D02*
D03*
D31*
X167000Y416524D02*
D03*
Y394476D02*
D03*
D32*
X112559Y310500D02*
D03*
X107441D02*
D03*
D33*
X107095Y296500D02*
D03*
X113000D02*
D03*
X107047Y317500D02*
D03*
X112953D02*
D03*
M02*
