G04*
G04 #@! TF.GenerationSoftware,Altium Limited,Altium Designer,19.1.9 (167)*
G04*
G04 Layer_Color=8388736*
%FSLAX25Y25*%
%MOIN*%
G70*
G01*
G75*
%ADD32R,0.06706X0.05131*%
%ADD33R,0.03556X0.04147*%
%ADD34R,0.04147X0.03556*%
%ADD35R,0.05131X0.06706*%
%ADD36R,0.04147X0.03556*%
%ADD37R,0.03556X0.04147*%
%ADD38R,0.04934X0.04540*%
%ADD39R,0.04737X0.04343*%
%ADD40R,0.03950X0.04343*%
%ADD41R,0.04737X0.05131*%
G04:AMPARAMS|DCode=42|XSize=29.65mil|YSize=39.5mil|CornerRadius=5.95mil|HoleSize=0mil|Usage=FLASHONLY|Rotation=180.000|XOffset=0mil|YOffset=0mil|HoleType=Round|Shape=RoundedRectangle|*
%AMROUNDEDRECTD42*
21,1,0.02965,0.02760,0,0,180.0*
21,1,0.01776,0.03950,0,0,180.0*
1,1,0.01190,-0.00888,0.01380*
1,1,0.01190,0.00888,0.01380*
1,1,0.01190,0.00888,-0.01380*
1,1,0.01190,-0.00888,-0.01380*
%
%ADD42ROUNDEDRECTD42*%
%ADD43R,0.01981X0.06509*%
G04:AMPARAMS|DCode=44|XSize=25.72mil|YSize=61.15mil|CornerRadius=5.95mil|HoleSize=0mil|Usage=FLASHONLY|Rotation=90.000|XOffset=0mil|YOffset=0mil|HoleType=Round|Shape=RoundedRectangle|*
%AMROUNDEDRECTD44*
21,1,0.02572,0.04925,0,0,90.0*
21,1,0.01382,0.06115,0,0,90.0*
1,1,0.01190,0.02463,0.00691*
1,1,0.01190,0.02463,-0.00691*
1,1,0.01190,-0.02463,-0.00691*
1,1,0.01190,-0.02463,0.00691*
%
%ADD44ROUNDEDRECTD44*%
%ADD45R,0.14186X0.07887*%
%ADD46R,0.03162X0.03950*%
%ADD47R,0.03950X0.03950*%
%ADD48C,0.08674*%
%ADD49C,0.06902*%
%ADD50O,0.14580X0.24422*%
%ADD51C,0.22453*%
%ADD52C,0.07800*%
G36*
X244167Y349571D02*
X244178Y349549D01*
X244200Y349504D01*
X244211Y349449D01*
X244245Y349371D01*
X244267Y349282D01*
X244300Y349193D01*
X244322Y349082D01*
X244389Y348827D01*
X244433Y348549D01*
X244478Y348249D01*
X244489Y347927D01*
Y347871D01*
X244478Y347794D01*
Y347694D01*
X244467Y347583D01*
X244444Y347449D01*
X244422Y347305D01*
X244389Y347138D01*
X244344Y346971D01*
X244289Y346794D01*
X244222Y346616D01*
X244145Y346438D01*
X244044Y346271D01*
X243933Y346105D01*
X243811Y345938D01*
X243667Y345794D01*
X243656Y345783D01*
X243622Y345760D01*
X243578Y345727D01*
X243511Y345683D01*
X243422Y345627D01*
X243322Y345561D01*
X243189Y345494D01*
X243045Y345427D01*
X242889Y345360D01*
X242700Y345294D01*
X242500Y345227D01*
X242289Y345172D01*
X242045Y345127D01*
X241789Y345094D01*
X241511Y345072D01*
X241223Y345060D01*
X241211D01*
X241189D01*
X241145D01*
X241089D01*
X241023Y345072D01*
X240934D01*
X240745Y345083D01*
X240534Y345105D01*
X240289Y345149D01*
X240045Y345194D01*
X239801Y345261D01*
X239789D01*
X239767Y345272D01*
X239734Y345283D01*
X239689Y345294D01*
X239578Y345349D01*
X239423Y345405D01*
X239256Y345494D01*
X239078Y345594D01*
X238889Y345705D01*
X238723Y345838D01*
X238701Y345860D01*
X238645Y345905D01*
X238567Y345994D01*
X238467Y346105D01*
X238356Y346238D01*
X238245Y346394D01*
X238134Y346571D01*
X238034Y346760D01*
Y346772D01*
X238023Y346783D01*
X238012Y346816D01*
X238001Y346860D01*
X237956Y346971D01*
X237912Y347116D01*
X237867Y347294D01*
X237823Y347505D01*
X237801Y347738D01*
X237790Y347982D01*
Y348149D01*
X237801Y348260D01*
X237812Y348394D01*
X237823Y348527D01*
X237867Y348827D01*
Y348849D01*
X237878Y348893D01*
X237901Y348971D01*
X237923Y349071D01*
X237956Y349182D01*
X238001Y349305D01*
X238101Y349582D01*
X238978D01*
X238967Y349571D01*
X238945Y349516D01*
X238912Y349449D01*
X238867Y349349D01*
X238823Y349238D01*
X238778Y349116D01*
X238689Y348838D01*
Y348816D01*
X238667Y348771D01*
X238656Y348693D01*
X238634Y348593D01*
X238612Y348471D01*
X238601Y348327D01*
X238578Y348171D01*
Y347927D01*
X238590Y347838D01*
X238601Y347727D01*
X238623Y347605D01*
X238656Y347460D01*
X238701Y347316D01*
X238756Y347171D01*
X238767Y347160D01*
X238790Y347116D01*
X238834Y347038D01*
X238889Y346960D01*
X238956Y346860D01*
X239045Y346749D01*
X239145Y346638D01*
X239267Y346538D01*
X239278Y346527D01*
X239323Y346494D01*
X239389Y346449D01*
X239489Y346394D01*
X239600Y346327D01*
X239745Y346260D01*
X239900Y346194D01*
X240067Y346138D01*
X240089D01*
X240145Y346116D01*
X240245Y346094D01*
X240378Y346072D01*
X240534Y346049D01*
X240711Y346027D01*
X240912Y346016D01*
X241134Y346005D01*
X241145D01*
X241189D01*
X241256D01*
X241345Y346016D01*
X241445D01*
X241567Y346027D01*
X241700Y346049D01*
X241845Y346072D01*
X242156Y346127D01*
X242478Y346216D01*
X242778Y346349D01*
X242911Y346427D01*
X243045Y346516D01*
X243056Y346527D01*
X243067Y346538D01*
X243100Y346571D01*
X243145Y346616D01*
X243189Y346660D01*
X243245Y346727D01*
X243311Y346805D01*
X243367Y346894D01*
X243422Y346994D01*
X243489Y347105D01*
X243545Y347238D01*
X243589Y347371D01*
X243633Y347516D01*
X243656Y347671D01*
X243678Y347849D01*
X243689Y348027D01*
Y348182D01*
X243678Y348282D01*
X243667Y348405D01*
X243656Y348538D01*
X243600Y348827D01*
Y348849D01*
X243578Y348893D01*
X243556Y348971D01*
X243522Y349071D01*
X243489Y349182D01*
X243444Y349305D01*
X243322Y349582D01*
X244167D01*
Y349571D01*
D02*
G37*
G36*
X241411Y344149D02*
X241600Y344138D01*
X241811Y344127D01*
X242045Y344094D01*
X242289Y344061D01*
X242522Y344005D01*
X242533D01*
X242545Y343994D01*
X242578D01*
X242622Y343983D01*
X242734Y343938D01*
X242878Y343894D01*
X243045Y343827D01*
X243222Y343749D01*
X243400Y343661D01*
X243578Y343549D01*
X243600Y343538D01*
X243656Y343494D01*
X243733Y343427D01*
X243833Y343338D01*
X243945Y343238D01*
X244056Y343105D01*
X244167Y342961D01*
X244267Y342794D01*
X244278Y342772D01*
X244300Y342716D01*
X244344Y342616D01*
X244378Y342494D01*
X244422Y342339D01*
X244467Y342161D01*
X244489Y341961D01*
X244500Y341739D01*
Y341650D01*
X244489Y341550D01*
X244478Y341416D01*
X244456Y341272D01*
X244422Y341105D01*
X244378Y340939D01*
X244311Y340772D01*
X244300Y340750D01*
X244278Y340705D01*
X244222Y340628D01*
X244156Y340528D01*
X244078Y340405D01*
X243967Y340283D01*
X243845Y340161D01*
X243700Y340039D01*
X243678Y340028D01*
X243622Y339994D01*
X243533Y339939D01*
X243411Y339872D01*
X243267Y339794D01*
X243089Y339717D01*
X242878Y339639D01*
X242656Y339572D01*
X242645D01*
X242622Y339561D01*
X242589D01*
X242545Y339550D01*
X242478Y339539D01*
X242411Y339528D01*
X242322Y339506D01*
X242234Y339494D01*
X242011Y339461D01*
X241756Y339439D01*
X241456Y339428D01*
X241145Y339417D01*
X241134D01*
X241111D01*
X241067D01*
X241023D01*
X240956D01*
X240878Y339428D01*
X240689Y339439D01*
X240478Y339450D01*
X240256Y339483D01*
X240012Y339517D01*
X239778Y339561D01*
X239767D01*
X239745Y339572D01*
X239723Y339583D01*
X239678Y339594D01*
X239556Y339628D01*
X239412Y339672D01*
X239245Y339739D01*
X239067Y339817D01*
X238889Y339917D01*
X238712Y340017D01*
X238689Y340028D01*
X238634Y340072D01*
X238556Y340139D01*
X238456Y340228D01*
X238345Y340328D01*
X238234Y340461D01*
X238123Y340605D01*
X238023Y340772D01*
X238012Y340794D01*
X237989Y340850D01*
X237945Y340950D01*
X237901Y341072D01*
X237856Y341228D01*
X237812Y341416D01*
X237790Y341616D01*
X237778Y341839D01*
Y341928D01*
X237790Y342027D01*
X237801Y342150D01*
X237823Y342294D01*
X237867Y342461D01*
X237912Y342616D01*
X237978Y342783D01*
X237989Y342805D01*
X238012Y342861D01*
X238067Y342938D01*
X238134Y343039D01*
X238212Y343150D01*
X238323Y343272D01*
X238445Y343394D01*
X238590Y343516D01*
X238612Y343527D01*
X238667Y343572D01*
X238756Y343627D01*
X238878Y343694D01*
X239023Y343772D01*
X239212Y343849D01*
X239412Y343927D01*
X239645Y343994D01*
X239656D01*
X239678Y344005D01*
X239712D01*
X239756Y344016D01*
X239823Y344038D01*
X239889Y344050D01*
X239978Y344061D01*
X240067Y344083D01*
X240289Y344105D01*
X240545Y344138D01*
X240834Y344149D01*
X241145Y344161D01*
X241156D01*
X241178D01*
X241223D01*
X241267D01*
X241334D01*
X241411Y344149D01*
D02*
G37*
G36*
X242589Y338250D02*
X242700Y338239D01*
X242822Y338217D01*
X242956Y338183D01*
X243100Y338139D01*
X243245Y338083D01*
X243256Y338072D01*
X243311Y338050D01*
X243378Y338006D01*
X243467Y337950D01*
X243567Y337872D01*
X243678Y337784D01*
X243789Y337672D01*
X243900Y337550D01*
X243911Y337539D01*
X243945Y337484D01*
X244000Y337417D01*
X244056Y337317D01*
X244133Y337183D01*
X244200Y337039D01*
X244278Y336861D01*
X244344Y336672D01*
Y336661D01*
X244356Y336650D01*
Y336617D01*
X244367Y336584D01*
X244389Y336473D01*
X244422Y336317D01*
X244456Y336139D01*
X244478Y335928D01*
X244489Y335695D01*
X244500Y335439D01*
Y335206D01*
X244489Y335095D01*
Y334984D01*
X244467Y334739D01*
Y334684D01*
X244456Y334628D01*
Y334550D01*
X244444Y334462D01*
X244433Y334362D01*
X244411Y334162D01*
X243633D01*
Y334173D01*
X243644Y334217D01*
X243656Y334273D01*
X243667Y334350D01*
X243678Y334451D01*
X243689Y334562D01*
X243722Y334806D01*
Y334873D01*
X243733Y334939D01*
Y335139D01*
X243744Y335262D01*
Y335695D01*
X243733Y335806D01*
X243722Y335939D01*
X243711Y336072D01*
X243689Y336217D01*
X243667Y336350D01*
Y336361D01*
X243644Y336406D01*
X243633Y336473D01*
X243600Y336550D01*
X243522Y336739D01*
X243467Y336828D01*
X243411Y336917D01*
X243400Y336928D01*
X243378Y336950D01*
X243345Y336995D01*
X243300Y337039D01*
X243167Y337150D01*
X243100Y337195D01*
X243011Y337239D01*
X243000D01*
X242967Y337261D01*
X242922Y337272D01*
X242856Y337295D01*
X242778Y337317D01*
X242689Y337328D01*
X242478Y337350D01*
X242467D01*
X242434D01*
X242378Y337339D01*
X242322D01*
X242167Y337295D01*
X242089Y337272D01*
X242011Y337228D01*
X242000D01*
X241978Y337206D01*
X241945Y337172D01*
X241889Y337139D01*
X241789Y337028D01*
X241678Y336884D01*
X241667Y336872D01*
X241656Y336850D01*
X241634Y336806D01*
X241600Y336739D01*
X241567Y336661D01*
X241534Y336573D01*
X241500Y336473D01*
X241478Y336361D01*
Y336350D01*
X241467Y336306D01*
X241456Y336250D01*
X241434Y336173D01*
X241423Y336072D01*
X241411Y335961D01*
X241400Y335706D01*
Y334962D01*
X240689D01*
Y335828D01*
X240678Y335895D01*
X240667Y335984D01*
X240656Y336072D01*
X240612Y336261D01*
Y336273D01*
X240600Y336306D01*
X240578Y336350D01*
X240556Y336406D01*
X240489Y336539D01*
X240389Y336672D01*
X240378Y336684D01*
X240367Y336706D01*
X240334Y336739D01*
X240289Y336772D01*
X240178Y336861D01*
X240034Y336939D01*
X240023D01*
X240001Y336950D01*
X239956Y336972D01*
X239889Y336995D01*
X239823Y337006D01*
X239734Y337028D01*
X239545Y337039D01*
X239534D01*
X239523D01*
X239456D01*
X239367Y337028D01*
X239256Y336995D01*
X239123Y336961D01*
X239001Y336906D01*
X238878Y336828D01*
X238778Y336717D01*
X238767Y336706D01*
X238745Y336661D01*
X238701Y336584D01*
X238656Y336484D01*
X238612Y336350D01*
X238567Y336184D01*
X238545Y335995D01*
X238534Y335773D01*
Y335650D01*
X238545Y335561D01*
Y335461D01*
X238556Y335339D01*
X238601Y335084D01*
Y335073D01*
X238612Y335028D01*
X238623Y334950D01*
X238645Y334861D01*
X238678Y334750D01*
X238712Y334628D01*
X238745Y334484D01*
X238790Y334339D01*
X238034D01*
Y334350D01*
X238023Y334373D01*
X238012Y334406D01*
X238001Y334451D01*
X237967Y334562D01*
X237934Y334695D01*
Y334706D01*
X237923Y334728D01*
Y334773D01*
X237912Y334817D01*
X237878Y334939D01*
X237856Y335084D01*
Y335095D01*
X237845Y335117D01*
Y335150D01*
X237834Y335206D01*
X237823Y335328D01*
X237801Y335461D01*
Y335495D01*
X237790Y335539D01*
Y335584D01*
X237778Y335706D01*
Y335917D01*
X237790Y336017D01*
Y336139D01*
X237812Y336284D01*
X237834Y336428D01*
X237856Y336584D01*
X237901Y336739D01*
Y336761D01*
X237923Y336806D01*
X237945Y336884D01*
X237978Y336972D01*
X238023Y337084D01*
X238078Y337195D01*
X238145Y337306D01*
X238223Y337406D01*
X238234Y337417D01*
X238256Y337450D01*
X238301Y337495D01*
X238367Y337561D01*
X238445Y337617D01*
X238523Y337684D01*
X238623Y337750D01*
X238734Y337806D01*
X238745Y337817D01*
X238790Y337828D01*
X238845Y337850D01*
X238934Y337883D01*
X239034Y337906D01*
X239145Y337928D01*
X239278Y337939D01*
X239412Y337950D01*
X239423D01*
X239434D01*
X239500D01*
X239612Y337939D01*
X239734Y337917D01*
X239889Y337883D01*
X240045Y337828D01*
X240200Y337761D01*
X240356Y337661D01*
X240367Y337650D01*
X240423Y337606D01*
X240489Y337539D01*
X240567Y337450D01*
X240667Y337339D01*
X240767Y337206D01*
X240867Y337039D01*
X240956Y336861D01*
Y336872D01*
X240967Y336906D01*
X240978Y336950D01*
X240989Y337017D01*
X241012Y337095D01*
X241045Y337183D01*
X241123Y337361D01*
Y337372D01*
X241145Y337406D01*
X241167Y337450D01*
X241200Y337517D01*
X241300Y337661D01*
X241423Y337806D01*
X241434Y337817D01*
X241456Y337839D01*
X241500Y337872D01*
X241545Y337917D01*
X241611Y337972D01*
X241689Y338028D01*
X241867Y338128D01*
X241878Y338139D01*
X241911Y338150D01*
X241967Y338172D01*
X242034Y338194D01*
X242123Y338217D01*
X242211Y338239D01*
X242322Y338261D01*
X242434D01*
X242456D01*
X242511D01*
X242589Y338250D01*
D02*
G37*
G36*
X242922Y332739D02*
X243022Y332728D01*
X243133Y332706D01*
X243256Y332673D01*
X243389Y332628D01*
X243511Y332573D01*
X243522Y332562D01*
X243567Y332540D01*
X243622Y332506D01*
X243700Y332451D01*
X243789Y332384D01*
X243878Y332306D01*
X243967Y332206D01*
X244056Y332095D01*
X244067Y332084D01*
X244089Y332040D01*
X244133Y331973D01*
X244178Y331895D01*
X244233Y331784D01*
X244289Y331662D01*
X244344Y331528D01*
X244389Y331373D01*
Y331351D01*
X244411Y331306D01*
X244422Y331218D01*
X244444Y331106D01*
X244467Y330973D01*
X244478Y330829D01*
X244500Y330662D01*
Y330395D01*
X244489Y330295D01*
Y330162D01*
X244478Y330018D01*
X244456Y329862D01*
X244422Y329695D01*
X244389Y329540D01*
X244378Y329518D01*
X244367Y329473D01*
X244333Y329395D01*
X244300Y329295D01*
X244256Y329195D01*
X244200Y329073D01*
X244133Y328962D01*
X244056Y328851D01*
X244044Y328840D01*
X244011Y328807D01*
X243967Y328762D01*
X243911Y328696D01*
X243833Y328629D01*
X243744Y328562D01*
X243644Y328496D01*
X243545Y328440D01*
X243533D01*
X243489Y328418D01*
X243433Y328396D01*
X243345Y328373D01*
X243256Y328351D01*
X243145Y328329D01*
X243022Y328318D01*
X242889Y328307D01*
X242878D01*
X242867D01*
X242833D01*
X242789Y328318D01*
X242678Y328329D01*
X242533Y328351D01*
X242378Y328384D01*
X242200Y328451D01*
X242022Y328529D01*
X241856Y328640D01*
X241834Y328651D01*
X241778Y328707D01*
X241700Y328784D01*
X241589Y328895D01*
X241467Y329040D01*
X241334Y329218D01*
X241189Y329429D01*
X241056Y329673D01*
Y329662D01*
X241045Y329651D01*
X241023Y329618D01*
X241000Y329573D01*
X240934Y329462D01*
X240845Y329318D01*
X240734Y329162D01*
X240612Y329018D01*
X240478Y328862D01*
X240334Y328740D01*
X240312Y328729D01*
X240267Y328696D01*
X240178Y328651D01*
X240067Y328595D01*
X239934Y328540D01*
X239778Y328496D01*
X239612Y328462D01*
X239423Y328451D01*
X239412D01*
X239367D01*
X239312Y328462D01*
X239234D01*
X239134Y328484D01*
X239034Y328507D01*
X238934Y328529D01*
X238823Y328573D01*
X238812Y328584D01*
X238767Y328595D01*
X238712Y328629D01*
X238645Y328673D01*
X238556Y328729D01*
X238467Y328796D01*
X238378Y328873D01*
X238289Y328962D01*
X238278Y328973D01*
X238245Y329007D01*
X238212Y329062D01*
X238156Y329140D01*
X238101Y329240D01*
X238034Y329351D01*
X237978Y329473D01*
X237923Y329618D01*
X237912Y329640D01*
X237901Y329684D01*
X237878Y329773D01*
X237845Y329884D01*
X237823Y330018D01*
X237801Y330184D01*
X237790Y330362D01*
X237778Y330551D01*
Y330729D01*
X237790Y330851D01*
X237801Y330995D01*
X237823Y331140D01*
X237856Y331295D01*
X237890Y331440D01*
Y331462D01*
X237912Y331506D01*
X237934Y331573D01*
X237967Y331662D01*
X238012Y331762D01*
X238067Y331862D01*
X238134Y331973D01*
X238201Y332073D01*
X238212Y332084D01*
X238234Y332117D01*
X238278Y332162D01*
X238334Y332228D01*
X238412Y332284D01*
X238490Y332351D01*
X238590Y332417D01*
X238689Y332473D01*
X238701Y332484D01*
X238734Y332495D01*
X238801Y332517D01*
X238867Y332540D01*
X238967Y332562D01*
X239078Y332584D01*
X239189Y332606D01*
X239323D01*
X239334D01*
X239345D01*
X239378D01*
X239412D01*
X239523Y332595D01*
X239656Y332562D01*
X239812Y332528D01*
X239967Y332473D01*
X240134Y332395D01*
X240289Y332284D01*
X240312Y332273D01*
X240356Y332228D01*
X240434Y332151D01*
X240523Y332051D01*
X240634Y331928D01*
X240756Y331773D01*
X240878Y331584D01*
X240989Y331384D01*
X241000Y331395D01*
X241012Y331429D01*
X241045Y331484D01*
X241078Y331562D01*
X241134Y331640D01*
X241189Y331729D01*
X241311Y331917D01*
X241322Y331928D01*
X241345Y331962D01*
X241378Y332006D01*
X241423Y332073D01*
X241545Y332206D01*
X241700Y332351D01*
X241711Y332362D01*
X241734Y332384D01*
X241778Y332417D01*
X241834Y332462D01*
X241911Y332506D01*
X241989Y332551D01*
X242178Y332640D01*
X242189D01*
X242222Y332662D01*
X242278Y332673D01*
X242356Y332695D01*
X242434Y332717D01*
X242533Y332728D01*
X242767Y332751D01*
X242789D01*
X242833D01*
X242922Y332739D01*
D02*
G37*
G36*
X241411Y327251D02*
X241600Y327240D01*
X241811Y327229D01*
X242045Y327196D01*
X242289Y327162D01*
X242522Y327107D01*
X242533D01*
X242545Y327096D01*
X242578D01*
X242622Y327084D01*
X242734Y327040D01*
X242878Y326996D01*
X243045Y326929D01*
X243222Y326851D01*
X243400Y326762D01*
X243578Y326651D01*
X243600Y326640D01*
X243656Y326596D01*
X243733Y326529D01*
X243833Y326440D01*
X243945Y326340D01*
X244056Y326207D01*
X244167Y326062D01*
X244267Y325896D01*
X244278Y325873D01*
X244300Y325818D01*
X244344Y325718D01*
X244378Y325596D01*
X244422Y325440D01*
X244467Y325262D01*
X244489Y325062D01*
X244500Y324840D01*
Y324751D01*
X244489Y324651D01*
X244478Y324518D01*
X244456Y324374D01*
X244422Y324207D01*
X244378Y324040D01*
X244311Y323874D01*
X244300Y323851D01*
X244278Y323807D01*
X244222Y323729D01*
X244156Y323629D01*
X244078Y323507D01*
X243967Y323385D01*
X243845Y323263D01*
X243700Y323141D01*
X243678Y323129D01*
X243622Y323096D01*
X243533Y323041D01*
X243411Y322974D01*
X243267Y322896D01*
X243089Y322818D01*
X242878Y322741D01*
X242656Y322674D01*
X242645D01*
X242622Y322663D01*
X242589D01*
X242545Y322652D01*
X242478Y322640D01*
X242411Y322629D01*
X242322Y322607D01*
X242234Y322596D01*
X242011Y322563D01*
X241756Y322540D01*
X241456Y322529D01*
X241145Y322518D01*
X241134D01*
X241111D01*
X241067D01*
X241023D01*
X240956D01*
X240878Y322529D01*
X240689Y322540D01*
X240478Y322552D01*
X240256Y322585D01*
X240012Y322618D01*
X239778Y322663D01*
X239767D01*
X239745Y322674D01*
X239723Y322685D01*
X239678Y322696D01*
X239556Y322729D01*
X239412Y322774D01*
X239245Y322840D01*
X239067Y322918D01*
X238889Y323018D01*
X238712Y323118D01*
X238689Y323129D01*
X238634Y323174D01*
X238556Y323240D01*
X238456Y323329D01*
X238345Y323429D01*
X238234Y323563D01*
X238123Y323707D01*
X238023Y323874D01*
X238012Y323896D01*
X237989Y323952D01*
X237945Y324051D01*
X237901Y324174D01*
X237856Y324329D01*
X237812Y324518D01*
X237790Y324718D01*
X237778Y324940D01*
Y325029D01*
X237790Y325129D01*
X237801Y325251D01*
X237823Y325396D01*
X237867Y325563D01*
X237912Y325718D01*
X237978Y325885D01*
X237989Y325907D01*
X238012Y325962D01*
X238067Y326040D01*
X238134Y326140D01*
X238212Y326251D01*
X238323Y326374D01*
X238445Y326496D01*
X238590Y326618D01*
X238612Y326629D01*
X238667Y326674D01*
X238756Y326729D01*
X238878Y326796D01*
X239023Y326873D01*
X239212Y326951D01*
X239412Y327029D01*
X239645Y327096D01*
X239656D01*
X239678Y327107D01*
X239712D01*
X239756Y327118D01*
X239823Y327140D01*
X239889Y327151D01*
X239978Y327162D01*
X240067Y327185D01*
X240289Y327207D01*
X240545Y327240D01*
X240834Y327251D01*
X241145Y327262D01*
X241156D01*
X241178D01*
X241223D01*
X241267D01*
X241334D01*
X241411Y327251D01*
D02*
G37*
G36*
Y321618D02*
X241600Y321607D01*
X241811Y321596D01*
X242045Y321563D01*
X242289Y321530D01*
X242522Y321474D01*
X242533D01*
X242545Y321463D01*
X242578D01*
X242622Y321452D01*
X242734Y321407D01*
X242878Y321363D01*
X243045Y321296D01*
X243222Y321218D01*
X243400Y321130D01*
X243578Y321019D01*
X243600Y321007D01*
X243656Y320963D01*
X243733Y320896D01*
X243833Y320807D01*
X243945Y320707D01*
X244056Y320574D01*
X244167Y320430D01*
X244267Y320263D01*
X244278Y320241D01*
X244300Y320185D01*
X244344Y320085D01*
X244378Y319963D01*
X244422Y319808D01*
X244467Y319630D01*
X244489Y319430D01*
X244500Y319208D01*
Y319119D01*
X244489Y319019D01*
X244478Y318885D01*
X244456Y318741D01*
X244422Y318574D01*
X244378Y318408D01*
X244311Y318241D01*
X244300Y318219D01*
X244278Y318174D01*
X244222Y318096D01*
X244156Y317997D01*
X244078Y317874D01*
X243967Y317752D01*
X243845Y317630D01*
X243700Y317508D01*
X243678Y317497D01*
X243622Y317463D01*
X243533Y317408D01*
X243411Y317341D01*
X243267Y317263D01*
X243089Y317185D01*
X242878Y317108D01*
X242656Y317041D01*
X242645D01*
X242622Y317030D01*
X242589D01*
X242545Y317019D01*
X242478Y317008D01*
X242411Y316997D01*
X242322Y316974D01*
X242234Y316963D01*
X242011Y316930D01*
X241756Y316908D01*
X241456Y316897D01*
X241145Y316886D01*
X241134D01*
X241111D01*
X241067D01*
X241023D01*
X240956D01*
X240878Y316897D01*
X240689Y316908D01*
X240478Y316919D01*
X240256Y316952D01*
X240012Y316986D01*
X239778Y317030D01*
X239767D01*
X239745Y317041D01*
X239723Y317052D01*
X239678Y317063D01*
X239556Y317097D01*
X239412Y317141D01*
X239245Y317208D01*
X239067Y317285D01*
X238889Y317386D01*
X238712Y317485D01*
X238689Y317497D01*
X238634Y317541D01*
X238556Y317608D01*
X238456Y317697D01*
X238345Y317797D01*
X238234Y317930D01*
X238123Y318074D01*
X238023Y318241D01*
X238012Y318263D01*
X237989Y318319D01*
X237945Y318419D01*
X237901Y318541D01*
X237856Y318696D01*
X237812Y318885D01*
X237790Y319085D01*
X237778Y319307D01*
Y319396D01*
X237790Y319496D01*
X237801Y319619D01*
X237823Y319763D01*
X237867Y319930D01*
X237912Y320085D01*
X237978Y320252D01*
X237989Y320274D01*
X238012Y320330D01*
X238067Y320407D01*
X238134Y320507D01*
X238212Y320619D01*
X238323Y320741D01*
X238445Y320863D01*
X238590Y320985D01*
X238612Y320996D01*
X238667Y321041D01*
X238756Y321096D01*
X238878Y321163D01*
X239023Y321241D01*
X239212Y321318D01*
X239412Y321396D01*
X239645Y321463D01*
X239656D01*
X239678Y321474D01*
X239712D01*
X239756Y321485D01*
X239823Y321507D01*
X239889Y321518D01*
X239978Y321530D01*
X240067Y321552D01*
X240289Y321574D01*
X240545Y321607D01*
X240834Y321618D01*
X241145Y321630D01*
X241156D01*
X241178D01*
X241223D01*
X241267D01*
X241334D01*
X241411Y321618D01*
D02*
G37*
G36*
X244411Y311542D02*
X243633D01*
X241956Y313219D01*
X241934Y313242D01*
X241889Y313286D01*
X241811Y313364D01*
X241711Y313464D01*
X241600Y313575D01*
X241478Y313686D01*
X241356Y313797D01*
X241245Y313897D01*
X241234Y313908D01*
X241189Y313941D01*
X241134Y313986D01*
X241067Y314041D01*
X240978Y314108D01*
X240889Y314175D01*
X240700Y314297D01*
X240689Y314308D01*
X240656Y314319D01*
X240612Y314352D01*
X240545Y314386D01*
X240400Y314453D01*
X240234Y314497D01*
X240223D01*
X240189Y314508D01*
X240145Y314519D01*
X240089Y314530D01*
X240023D01*
X239934Y314541D01*
X239756Y314552D01*
X239745D01*
X239712D01*
X239667D01*
X239612Y314541D01*
X239456Y314530D01*
X239300Y314486D01*
X239289D01*
X239267Y314475D01*
X239223Y314464D01*
X239167Y314441D01*
X239045Y314375D01*
X238912Y314286D01*
X238901Y314275D01*
X238878Y314264D01*
X238856Y314230D01*
X238812Y314197D01*
X238734Y314075D01*
X238645Y313930D01*
Y313919D01*
X238634Y313897D01*
X238612Y313853D01*
X238590Y313786D01*
X238578Y313708D01*
X238556Y313630D01*
X238545Y313530D01*
Y313353D01*
X238556Y313275D01*
X238567Y313175D01*
X238590Y313053D01*
X238623Y312930D01*
X238667Y312797D01*
X238734Y312664D01*
X238745Y312653D01*
X238767Y312608D01*
X238812Y312542D01*
X238867Y312453D01*
X238934Y312364D01*
X239012Y312253D01*
X239112Y312153D01*
X239212Y312042D01*
X238645Y311564D01*
X238623Y311586D01*
X238578Y311631D01*
X238512Y311708D01*
X238423Y311808D01*
X238323Y311930D01*
X238223Y312075D01*
X238112Y312230D01*
X238023Y312408D01*
Y312419D01*
X238012Y312430D01*
X237989Y312497D01*
X237945Y312597D01*
X237901Y312730D01*
X237856Y312897D01*
X237812Y313086D01*
X237790Y313297D01*
X237778Y313530D01*
Y313608D01*
X237790Y313686D01*
Y313797D01*
X237812Y313919D01*
X237834Y314053D01*
X237867Y314197D01*
X237912Y314330D01*
X237923Y314341D01*
X237934Y314386D01*
X237967Y314453D01*
X238012Y314541D01*
X238067Y314641D01*
X238123Y314741D01*
X238289Y314941D01*
X238301Y314952D01*
X238334Y314986D01*
X238389Y315030D01*
X238456Y315097D01*
X238545Y315163D01*
X238645Y315230D01*
X238756Y315297D01*
X238889Y315352D01*
X238901Y315364D01*
X238956Y315375D01*
X239023Y315397D01*
X239123Y315430D01*
X239245Y315452D01*
X239378Y315475D01*
X239523Y315486D01*
X239689Y315497D01*
X239701D01*
X239756D01*
X239823D01*
X239923Y315486D01*
X240023Y315475D01*
X240145Y315452D01*
X240389Y315397D01*
X240400D01*
X240445Y315375D01*
X240511Y315352D01*
X240589Y315319D01*
X240689Y315275D01*
X240800Y315219D01*
X241034Y315086D01*
X241045Y315075D01*
X241089Y315052D01*
X241145Y315008D01*
X241234Y314952D01*
X241334Y314875D01*
X241445Y314786D01*
X241567Y314686D01*
X241689Y314575D01*
X241700Y314564D01*
X241745Y314519D01*
X241811Y314453D01*
X241900Y314375D01*
X242011Y314264D01*
X242134Y314141D01*
X242278Y314008D01*
X242422Y313853D01*
X243578Y312675D01*
Y315852D01*
X244411D01*
Y311542D01*
D02*
G37*
G36*
X241411Y310353D02*
X241600Y310342D01*
X241811Y310331D01*
X242045Y310297D01*
X242289Y310264D01*
X242522Y310208D01*
X242533D01*
X242545Y310197D01*
X242578D01*
X242622Y310186D01*
X242734Y310142D01*
X242878Y310097D01*
X243045Y310031D01*
X243222Y309953D01*
X243400Y309864D01*
X243578Y309753D01*
X243600Y309742D01*
X243656Y309697D01*
X243733Y309631D01*
X243833Y309542D01*
X243945Y309442D01*
X244056Y309309D01*
X244167Y309164D01*
X244267Y308997D01*
X244278Y308975D01*
X244300Y308920D01*
X244344Y308820D01*
X244378Y308698D01*
X244422Y308542D01*
X244467Y308364D01*
X244489Y308164D01*
X244500Y307942D01*
Y307853D01*
X244489Y307753D01*
X244478Y307620D01*
X244456Y307475D01*
X244422Y307309D01*
X244378Y307142D01*
X244311Y306975D01*
X244300Y306953D01*
X244278Y306909D01*
X244222Y306831D01*
X244156Y306731D01*
X244078Y306609D01*
X243967Y306487D01*
X243845Y306364D01*
X243700Y306242D01*
X243678Y306231D01*
X243622Y306198D01*
X243533Y306142D01*
X243411Y306076D01*
X243267Y305998D01*
X243089Y305920D01*
X242878Y305842D01*
X242656Y305776D01*
X242645D01*
X242622Y305764D01*
X242589D01*
X242545Y305753D01*
X242478Y305742D01*
X242411Y305731D01*
X242322Y305709D01*
X242234Y305698D01*
X242011Y305664D01*
X241756Y305642D01*
X241456Y305631D01*
X241145Y305620D01*
X241134D01*
X241111D01*
X241067D01*
X241023D01*
X240956D01*
X240878Y305631D01*
X240689Y305642D01*
X240478Y305653D01*
X240256Y305687D01*
X240012Y305720D01*
X239778Y305764D01*
X239767D01*
X239745Y305776D01*
X239723Y305787D01*
X239678Y305798D01*
X239556Y305831D01*
X239412Y305875D01*
X239245Y305942D01*
X239067Y306020D01*
X238889Y306120D01*
X238712Y306220D01*
X238689Y306231D01*
X238634Y306276D01*
X238556Y306342D01*
X238456Y306431D01*
X238345Y306531D01*
X238234Y306664D01*
X238123Y306809D01*
X238023Y306975D01*
X238012Y306998D01*
X237989Y307053D01*
X237945Y307153D01*
X237901Y307275D01*
X237856Y307431D01*
X237812Y307620D01*
X237790Y307820D01*
X237778Y308042D01*
Y308131D01*
X237790Y308231D01*
X237801Y308353D01*
X237823Y308498D01*
X237867Y308664D01*
X237912Y308820D01*
X237978Y308986D01*
X237989Y309009D01*
X238012Y309064D01*
X238067Y309142D01*
X238134Y309242D01*
X238212Y309353D01*
X238323Y309475D01*
X238445Y309597D01*
X238590Y309720D01*
X238612Y309731D01*
X238667Y309775D01*
X238756Y309831D01*
X238878Y309897D01*
X239023Y309975D01*
X239212Y310053D01*
X239412Y310131D01*
X239645Y310197D01*
X239656D01*
X239678Y310208D01*
X239712D01*
X239756Y310220D01*
X239823Y310242D01*
X239889Y310253D01*
X239978Y310264D01*
X240067Y310286D01*
X240289Y310308D01*
X240545Y310342D01*
X240834Y310353D01*
X241145Y310364D01*
X241156D01*
X241178D01*
X241223D01*
X241267D01*
X241334D01*
X241411Y310353D01*
D02*
G37*
G36*
X244411Y300276D02*
X243633D01*
X241956Y301954D01*
X241934Y301976D01*
X241889Y302020D01*
X241811Y302098D01*
X241711Y302198D01*
X241600Y302309D01*
X241478Y302420D01*
X241356Y302531D01*
X241245Y302631D01*
X241234Y302642D01*
X241189Y302676D01*
X241134Y302720D01*
X241067Y302776D01*
X240978Y302842D01*
X240889Y302909D01*
X240700Y303031D01*
X240689Y303043D01*
X240656Y303054D01*
X240612Y303087D01*
X240545Y303120D01*
X240400Y303187D01*
X240234Y303231D01*
X240223D01*
X240189Y303242D01*
X240145Y303254D01*
X240089Y303265D01*
X240023D01*
X239934Y303276D01*
X239756Y303287D01*
X239745D01*
X239712D01*
X239667D01*
X239612Y303276D01*
X239456Y303265D01*
X239300Y303220D01*
X239289D01*
X239267Y303209D01*
X239223Y303198D01*
X239167Y303176D01*
X239045Y303109D01*
X238912Y303020D01*
X238901Y303009D01*
X238878Y302998D01*
X238856Y302965D01*
X238812Y302931D01*
X238734Y302809D01*
X238645Y302665D01*
Y302654D01*
X238634Y302631D01*
X238612Y302587D01*
X238590Y302520D01*
X238578Y302443D01*
X238556Y302365D01*
X238545Y302265D01*
Y302087D01*
X238556Y302009D01*
X238567Y301909D01*
X238590Y301787D01*
X238623Y301665D01*
X238667Y301532D01*
X238734Y301398D01*
X238745Y301387D01*
X238767Y301343D01*
X238812Y301276D01*
X238867Y301187D01*
X238934Y301098D01*
X239012Y300987D01*
X239112Y300887D01*
X239212Y300776D01*
X238645Y300298D01*
X238623Y300321D01*
X238578Y300365D01*
X238512Y300443D01*
X238423Y300543D01*
X238323Y300665D01*
X238223Y300809D01*
X238112Y300965D01*
X238023Y301143D01*
Y301154D01*
X238012Y301165D01*
X237989Y301232D01*
X237945Y301332D01*
X237901Y301465D01*
X237856Y301631D01*
X237812Y301820D01*
X237790Y302031D01*
X237778Y302265D01*
Y302343D01*
X237790Y302420D01*
Y302531D01*
X237812Y302654D01*
X237834Y302787D01*
X237867Y302931D01*
X237912Y303065D01*
X237923Y303076D01*
X237934Y303120D01*
X237967Y303187D01*
X238012Y303276D01*
X238067Y303376D01*
X238123Y303476D01*
X238289Y303676D01*
X238301Y303687D01*
X238334Y303720D01*
X238389Y303765D01*
X238456Y303831D01*
X238545Y303898D01*
X238645Y303965D01*
X238756Y304031D01*
X238889Y304087D01*
X238901Y304098D01*
X238956Y304109D01*
X239023Y304131D01*
X239123Y304165D01*
X239245Y304187D01*
X239378Y304209D01*
X239523Y304220D01*
X239689Y304231D01*
X239701D01*
X239756D01*
X239823D01*
X239923Y304220D01*
X240023Y304209D01*
X240145Y304187D01*
X240389Y304131D01*
X240400D01*
X240445Y304109D01*
X240511Y304087D01*
X240589Y304053D01*
X240689Y304009D01*
X240800Y303954D01*
X241034Y303820D01*
X241045Y303809D01*
X241089Y303787D01*
X241145Y303742D01*
X241234Y303687D01*
X241334Y303609D01*
X241445Y303520D01*
X241567Y303420D01*
X241689Y303309D01*
X241700Y303298D01*
X241745Y303254D01*
X241811Y303187D01*
X241900Y303109D01*
X242011Y302998D01*
X242134Y302876D01*
X242278Y302743D01*
X242422Y302587D01*
X243578Y301409D01*
Y304587D01*
X244411D01*
Y300276D01*
D02*
G37*
G36*
Y297299D02*
Y296099D01*
X237878Y293932D01*
Y294943D01*
X242289Y296343D01*
X243578Y296743D01*
X242289Y297154D01*
X237878Y298565D01*
Y299521D01*
X244411Y297299D01*
D02*
G37*
G36*
Y289277D02*
X237878D01*
Y292999D01*
X238634D01*
Y290166D01*
X240645D01*
Y292888D01*
X241400D01*
Y290166D01*
X243656D01*
Y292999D01*
X244411D01*
Y289277D01*
D02*
G37*
G36*
Y286900D02*
X242322Y285922D01*
X242311D01*
X242278Y285900D01*
X242245Y285877D01*
X242189Y285855D01*
X242056Y285778D01*
X241934Y285689D01*
X241922D01*
X241900Y285666D01*
X241834Y285622D01*
X241756Y285544D01*
X241678Y285444D01*
Y285433D01*
X241667Y285422D01*
X241622Y285355D01*
X241589Y285266D01*
X241545Y285155D01*
Y285144D01*
X241534Y285133D01*
Y285100D01*
X241523Y285055D01*
X241511Y284944D01*
X241500Y284800D01*
Y284389D01*
X244411D01*
Y283500D01*
X237878D01*
Y285344D01*
X237890Y285444D01*
Y285578D01*
X237912Y285733D01*
X237934Y285900D01*
X237967Y286066D01*
X238012Y286222D01*
Y286244D01*
X238034Y286289D01*
X238067Y286366D01*
X238101Y286455D01*
X238145Y286566D01*
X238212Y286678D01*
X238278Y286789D01*
X238356Y286889D01*
X238367Y286900D01*
X238401Y286933D01*
X238445Y286977D01*
X238512Y287033D01*
X238590Y287100D01*
X238678Y287166D01*
X238790Y287222D01*
X238901Y287277D01*
X238912Y287288D01*
X238956Y287300D01*
X239023Y287322D01*
X239112Y287344D01*
X239212Y287366D01*
X239334Y287388D01*
X239456Y287411D01*
X239600D01*
X239612D01*
X239656D01*
X239712D01*
X239789Y287400D01*
X239878Y287388D01*
X239978Y287366D01*
X240189Y287311D01*
X240200D01*
X240234Y287300D01*
X240289Y287277D01*
X240345Y287244D01*
X240511Y287166D01*
X240678Y287044D01*
X240689Y287033D01*
X240711Y287011D01*
X240756Y286977D01*
X240811Y286922D01*
X240867Y286855D01*
X240934Y286777D01*
X241067Y286600D01*
X241078Y286589D01*
X241089Y286555D01*
X241123Y286500D01*
X241156Y286433D01*
X241189Y286344D01*
X241234Y286244D01*
X241267Y286122D01*
X241300Y286000D01*
Y286011D01*
X241322Y286044D01*
X241345Y286100D01*
X241378Y286166D01*
X241423Y286233D01*
X241489Y286311D01*
X241556Y286389D01*
X241645Y286466D01*
X241656Y286477D01*
X241689Y286500D01*
X241734Y286544D01*
X241811Y286589D01*
X241900Y286655D01*
X242000Y286722D01*
X242134Y286789D01*
X242267Y286866D01*
X244411Y287911D01*
Y286900D01*
D02*
G37*
G36*
X221887Y338277D02*
X221903Y338212D01*
X221919Y338115D01*
X221935Y337985D01*
X221968Y337839D01*
X222000Y337677D01*
X222049Y337321D01*
Y337305D01*
X222065Y337240D01*
X222081Y337143D01*
Y337029D01*
X222097Y336883D01*
X222113Y336721D01*
X222130Y336397D01*
Y336268D01*
X222113Y336138D01*
Y335960D01*
X222097Y335766D01*
X222065Y335555D01*
X222032Y335344D01*
X221984Y335134D01*
Y335118D01*
X221952Y335053D01*
X221919Y334939D01*
X221870Y334826D01*
X221725Y334534D01*
X221644Y334389D01*
X221530Y334259D01*
X221514Y334243D01*
X221465Y334210D01*
X221401Y334146D01*
X221304Y334065D01*
X221190Y333984D01*
X221044Y333903D01*
X220899Y333822D01*
X220720Y333757D01*
X220704D01*
X220639Y333724D01*
X220526Y333708D01*
X220396Y333676D01*
X220218Y333643D01*
X220024Y333627D01*
X219813Y333595D01*
X219570D01*
X215957D01*
Y331618D01*
X214564D01*
Y333595D01*
X212685D01*
X212199Y335425D01*
X214564D01*
Y338293D01*
X215957D01*
Y335425D01*
X219441D01*
X219473D01*
X219538D01*
X219651Y335442D01*
X219797Y335458D01*
X219959Y335490D01*
X220105Y335539D01*
X220267Y335604D01*
X220396Y335701D01*
X220412Y335717D01*
X220445Y335766D01*
X220494Y335830D01*
X220542Y335928D01*
X220607Y336073D01*
X220655Y336235D01*
X220688Y336430D01*
X220704Y336673D01*
Y336835D01*
X220688Y336948D01*
Y337078D01*
X220672Y337207D01*
X220639Y337515D01*
Y337531D01*
X220623Y337580D01*
X220607Y337661D01*
X220591Y337774D01*
X220558Y337888D01*
X220526Y338017D01*
X220461Y338293D01*
X221887D01*
Y338277D01*
D02*
G37*
G36*
X221968Y328411D02*
X217156D01*
X217140D01*
X217108D01*
X217043D01*
X216962Y328395D01*
X216768Y328362D01*
X216541Y328297D01*
X216314Y328184D01*
X216120Y328022D01*
X216038Y327925D01*
X215974Y327811D01*
X215941Y327666D01*
X215925Y327504D01*
Y327423D01*
X215941Y327342D01*
X215974Y327228D01*
X216022Y327099D01*
X216087Y326937D01*
X216168Y326791D01*
X216298Y326629D01*
X216314Y326613D01*
X216363Y326564D01*
X216443Y326483D01*
X216557Y326370D01*
X216703Y326240D01*
X216865Y326094D01*
X217059Y325932D01*
X217286Y325770D01*
X221968D01*
Y323988D01*
X214564D01*
Y325527D01*
X215666Y325560D01*
X215650Y325576D01*
X215617Y325592D01*
X215569Y325641D01*
X215488Y325705D01*
X215326Y325851D01*
X215147Y326029D01*
X215131Y326046D01*
X215115Y326078D01*
X215067Y326127D01*
X215018Y326191D01*
X214888Y326353D01*
X214759Y326564D01*
X214742Y326580D01*
X214726Y326613D01*
X214694Y326677D01*
X214662Y326758D01*
X214580Y326953D01*
X214499Y327180D01*
Y327196D01*
X214483Y327244D01*
X214467Y327309D01*
X214451Y327390D01*
X214435Y327504D01*
X214419Y327617D01*
X214402Y327909D01*
Y328006D01*
X214419Y328119D01*
Y328249D01*
X214451Y328411D01*
X214483Y328573D01*
X214532Y328751D01*
X214597Y328913D01*
Y328929D01*
X214629Y328978D01*
X214678Y329059D01*
X214726Y329156D01*
X214888Y329383D01*
X215115Y329610D01*
X215131Y329626D01*
X215180Y329658D01*
X215245Y329707D01*
X215342Y329772D01*
X215472Y329853D01*
X215601Y329917D01*
X215763Y329982D01*
X215941Y330047D01*
X215957D01*
X216022Y330063D01*
X216120Y330096D01*
X216249Y330128D01*
X216411Y330144D01*
X216589Y330177D01*
X216800Y330193D01*
X217010D01*
X221968D01*
Y328411D01*
D02*
G37*
G36*
X218177Y322206D02*
X218193D01*
X218226D01*
X218274D01*
X218355Y322190D01*
X218517D01*
X218711Y322174D01*
Y317314D01*
X218728D01*
X218793D01*
X218890Y317330D01*
X219003D01*
X219149Y317346D01*
X219295Y317379D01*
X219586Y317460D01*
X219602D01*
X219651Y317492D01*
X219716Y317524D01*
X219797Y317573D01*
X219991Y317703D01*
X220202Y317881D01*
X220218Y317897D01*
X220234Y317929D01*
X220283Y317994D01*
X220332Y318059D01*
X220396Y318156D01*
X220461Y318270D01*
X220574Y318529D01*
Y318545D01*
X220591Y318594D01*
X220607Y318675D01*
X220639Y318788D01*
X220655Y318918D01*
X220688Y319063D01*
X220704Y319387D01*
Y319582D01*
X220688Y319728D01*
Y319906D01*
X220672Y320100D01*
X220655Y320311D01*
X220623Y320538D01*
Y320570D01*
X220607Y320651D01*
X220591Y320764D01*
X220558Y320926D01*
X220526Y321121D01*
X220477Y321331D01*
X220412Y321574D01*
X220348Y321817D01*
X221757D01*
Y321801D01*
X221773Y321769D01*
X221790Y321704D01*
X221806Y321623D01*
X221870Y321429D01*
X221919Y321186D01*
Y321137D01*
X221935Y321072D01*
X221952Y320975D01*
X221968Y320878D01*
X221984Y320764D01*
X222016Y320505D01*
Y320440D01*
X222032Y320376D01*
X222049Y320278D01*
X222065Y320181D01*
Y320052D01*
X222097Y319792D01*
Y319728D01*
X222113Y319663D01*
Y319582D01*
X222130Y319355D01*
Y318966D01*
X222113Y318804D01*
X222097Y318594D01*
X222081Y318367D01*
X222032Y318108D01*
X221984Y317848D01*
X221903Y317589D01*
X221887Y317557D01*
X221854Y317476D01*
X221806Y317362D01*
X221725Y317200D01*
X221627Y317022D01*
X221498Y316828D01*
X221352Y316633D01*
X221190Y316455D01*
X221174Y316439D01*
X221109Y316374D01*
X221012Y316293D01*
X220866Y316196D01*
X220704Y316083D01*
X220494Y315953D01*
X220267Y315840D01*
X220024Y315742D01*
X220007D01*
X219991Y315726D01*
X219894Y315710D01*
X219748Y315661D01*
X219554Y315629D01*
X219327Y315580D01*
X219052Y315532D01*
X218744Y315516D01*
X218420Y315499D01*
X218404D01*
X218371D01*
X218339D01*
X218274D01*
X218096Y315516D01*
X217869Y315532D01*
X217626Y315564D01*
X217351Y315597D01*
X217059Y315661D01*
X216784Y315742D01*
X216768D01*
X216751Y315759D01*
X216654Y315791D01*
X216525Y315840D01*
X216346Y315921D01*
X216152Y316018D01*
X215941Y316147D01*
X215731Y316277D01*
X215520Y316439D01*
X215504Y316455D01*
X215439Y316520D01*
X215342Y316617D01*
X215212Y316747D01*
X215083Y316909D01*
X214953Y317103D01*
X214807Y317314D01*
X214694Y317541D01*
X214678Y317573D01*
X214645Y317654D01*
X214597Y317784D01*
X214548Y317962D01*
X214499Y318172D01*
X214451Y318415D01*
X214419Y318691D01*
X214402Y318982D01*
Y319112D01*
X214419Y319258D01*
X214435Y319452D01*
X214467Y319663D01*
X214516Y319890D01*
X214580Y320133D01*
X214662Y320359D01*
X214678Y320392D01*
X214710Y320457D01*
X214759Y320570D01*
X214840Y320716D01*
X214937Y320878D01*
X215050Y321056D01*
X215180Y321218D01*
X215342Y321380D01*
X215358Y321396D01*
X215423Y321445D01*
X215504Y321526D01*
X215634Y321607D01*
X215779Y321704D01*
X215957Y321817D01*
X216168Y321915D01*
X216379Y321996D01*
X216411Y322012D01*
X216476Y322028D01*
X216605Y322060D01*
X216768Y322109D01*
X216962Y322158D01*
X217189Y322190D01*
X217448Y322206D01*
X217707Y322222D01*
X217740D01*
X217837D01*
X217983D01*
X218177Y322206D01*
D02*
G37*
G36*
X217448Y312324D02*
X217432D01*
X217383D01*
X217302D01*
X217205D01*
X216978Y312308D01*
X216751Y312276D01*
X216735D01*
X216703Y312259D01*
X216654D01*
X216573Y312243D01*
X216427Y312178D01*
X216265Y312097D01*
X216249D01*
X216233Y312081D01*
X216152Y312016D01*
X216071Y311919D01*
X215990Y311806D01*
X215974Y311773D01*
X215941Y311692D01*
X215909Y311563D01*
X215893Y311401D01*
Y311336D01*
X215909Y311255D01*
X215941Y311158D01*
X215974Y311028D01*
X216038Y310899D01*
X216120Y310753D01*
X216233Y310591D01*
X216249Y310575D01*
X216298Y310526D01*
X216379Y310429D01*
X216492Y310315D01*
X216638Y310186D01*
X216816Y310024D01*
X217027Y309862D01*
X217286Y309684D01*
X221968D01*
Y307853D01*
X214564D01*
Y309457D01*
X215650Y309538D01*
X215634Y309554D01*
X215601Y309570D01*
X215552Y309603D01*
X215488Y309651D01*
X215326Y309781D01*
X215147Y309943D01*
X215131Y309959D01*
X215115Y309975D01*
X215067Y310024D01*
X215018Y310089D01*
X214888Y310251D01*
X214759Y310445D01*
X214742Y310461D01*
X214726Y310494D01*
X214694Y310558D01*
X214662Y310639D01*
X214580Y310834D01*
X214499Y311077D01*
Y311093D01*
X214483Y311142D01*
X214467Y311206D01*
X214451Y311304D01*
X214435Y311401D01*
X214419Y311530D01*
X214402Y311822D01*
Y311919D01*
X214419Y312016D01*
Y312162D01*
X214451Y312308D01*
X214483Y312486D01*
X214532Y312648D01*
X214597Y312810D01*
X214613Y312826D01*
X214629Y312891D01*
X214678Y312972D01*
X214742Y313069D01*
X214824Y313183D01*
X214921Y313296D01*
X215050Y313426D01*
X215180Y313539D01*
X215196Y313555D01*
X215245Y313588D01*
X215326Y313636D01*
X215439Y313701D01*
X215569Y313782D01*
X215747Y313847D01*
X215925Y313912D01*
X216136Y313977D01*
X216168D01*
X216233Y313993D01*
X216346Y314025D01*
X216508Y314041D01*
X216703Y314074D01*
X216930Y314090D01*
X217173Y314106D01*
X217448D01*
Y312324D01*
D02*
G37*
G36*
X234338Y312195D02*
X233253Y312162D01*
X233269Y312146D01*
X233301Y312114D01*
X233350Y312065D01*
X233415Y312016D01*
X233593Y311854D01*
X233771Y311676D01*
X233787Y311660D01*
X233803Y311628D01*
X233852Y311579D01*
X233901Y311514D01*
X234030Y311352D01*
X234160Y311142D01*
Y311125D01*
X234192Y311093D01*
X234208Y311044D01*
X234257Y310963D01*
X234338Y310769D01*
X234403Y310542D01*
Y310526D01*
X234419Y310494D01*
X234435Y310413D01*
X234451Y310332D01*
X234468Y310218D01*
X234484Y310105D01*
X234500Y309813D01*
Y309700D01*
X234484Y309586D01*
X234468Y309424D01*
X234435Y309246D01*
X234387Y309052D01*
X234322Y308841D01*
X234241Y308647D01*
X234225Y308631D01*
X234192Y308566D01*
X234127Y308469D01*
X234046Y308355D01*
X233949Y308209D01*
X233820Y308080D01*
X233674Y307934D01*
X233496Y307788D01*
X233479Y307772D01*
X233415Y307740D01*
X233301Y307675D01*
X233172Y307594D01*
X232993Y307513D01*
X232799Y307432D01*
X232572Y307351D01*
X232329Y307270D01*
X232313D01*
X232297D01*
X232200Y307237D01*
X232070Y307221D01*
X231876Y307189D01*
X231649Y307156D01*
X231373Y307124D01*
X231082Y307108D01*
X230774Y307092D01*
X230758D01*
X230725D01*
X230677D01*
X230596D01*
X230515Y307108D01*
X230418D01*
X230175Y307124D01*
X229899Y307156D01*
X229591Y307205D01*
X229300Y307270D01*
X229008Y307367D01*
X228992D01*
X228976Y307383D01*
X228879Y307416D01*
X228749Y307480D01*
X228571Y307578D01*
X228376Y307691D01*
X228166Y307821D01*
X227971Y307983D01*
X227777Y308161D01*
X227761Y308177D01*
X227696Y308258D01*
X227599Y308355D01*
X227502Y308501D01*
X227372Y308679D01*
X227242Y308890D01*
X227129Y309117D01*
X227032Y309376D01*
Y309392D01*
X227016Y309408D01*
X226999Y309505D01*
X226951Y309635D01*
X226902Y309829D01*
X226870Y310056D01*
X226821Y310315D01*
X226805Y310591D01*
X226789Y310899D01*
Y311077D01*
X226805Y311255D01*
X226837Y311449D01*
Y311498D01*
X226854Y311547D01*
Y311628D01*
X226886Y311790D01*
X226935Y311968D01*
X224035D01*
Y313750D01*
X234338D01*
Y312195D01*
D02*
G37*
G36*
X229818Y304111D02*
X229802D01*
X229753D01*
X229672D01*
X229575D01*
X229348Y304095D01*
X229122Y304062D01*
X229105D01*
X229073Y304046D01*
X229024D01*
X228943Y304030D01*
X228798Y303965D01*
X228636Y303884D01*
X228619D01*
X228603Y303868D01*
X228522Y303803D01*
X228441Y303706D01*
X228360Y303592D01*
X228344Y303560D01*
X228312Y303479D01*
X228279Y303349D01*
X228263Y303187D01*
Y303123D01*
X228279Y303042D01*
X228312Y302944D01*
X228344Y302815D01*
X228409Y302685D01*
X228490Y302539D01*
X228603Y302377D01*
X228619Y302361D01*
X228668Y302313D01*
X228749Y302215D01*
X228862Y302102D01*
X229008Y301972D01*
X229186Y301810D01*
X229397Y301648D01*
X229656Y301470D01*
X234338D01*
Y299640D01*
X226935D01*
Y301243D01*
X228020Y301324D01*
X228004Y301341D01*
X227971Y301357D01*
X227923Y301389D01*
X227858Y301438D01*
X227696Y301567D01*
X227518Y301729D01*
X227502Y301746D01*
X227485Y301762D01*
X227437Y301810D01*
X227388Y301875D01*
X227259Y302037D01*
X227129Y302232D01*
X227113Y302248D01*
X227097Y302280D01*
X227064Y302345D01*
X227032Y302426D01*
X226951Y302620D01*
X226870Y302863D01*
Y302880D01*
X226854Y302928D01*
X226837Y302993D01*
X226821Y303090D01*
X226805Y303187D01*
X226789Y303317D01*
X226773Y303609D01*
Y303706D01*
X226789Y303803D01*
Y303949D01*
X226821Y304095D01*
X226854Y304273D01*
X226902Y304435D01*
X226967Y304597D01*
X226983Y304613D01*
X226999Y304678D01*
X227048Y304759D01*
X227113Y304856D01*
X227194Y304969D01*
X227291Y305083D01*
X227421Y305212D01*
X227550Y305326D01*
X227566Y305342D01*
X227615Y305374D01*
X227696Y305423D01*
X227809Y305488D01*
X227939Y305569D01*
X228117Y305634D01*
X228295Y305698D01*
X228506Y305763D01*
X228538D01*
X228603Y305779D01*
X228717Y305812D01*
X228879Y305828D01*
X229073Y305860D01*
X229300Y305877D01*
X229543Y305893D01*
X229818D01*
Y304111D01*
D02*
G37*
G36*
X217448D02*
X217432D01*
X217383D01*
X217302D01*
X217205D01*
X216978Y304095D01*
X216751Y304062D01*
X216735D01*
X216703Y304046D01*
X216654D01*
X216573Y304030D01*
X216427Y303965D01*
X216265Y303884D01*
X216249D01*
X216233Y303868D01*
X216152Y303803D01*
X216071Y303706D01*
X215990Y303592D01*
X215974Y303560D01*
X215941Y303479D01*
X215909Y303349D01*
X215893Y303187D01*
Y303123D01*
X215909Y303042D01*
X215941Y302944D01*
X215974Y302815D01*
X216038Y302685D01*
X216120Y302539D01*
X216233Y302377D01*
X216249Y302361D01*
X216298Y302313D01*
X216379Y302215D01*
X216492Y302102D01*
X216638Y301972D01*
X216816Y301810D01*
X217027Y301648D01*
X217286Y301470D01*
X221968D01*
Y299640D01*
X214564D01*
Y301243D01*
X215650Y301324D01*
X215634Y301341D01*
X215601Y301357D01*
X215552Y301389D01*
X215488Y301438D01*
X215326Y301567D01*
X215147Y301729D01*
X215131Y301746D01*
X215115Y301762D01*
X215067Y301810D01*
X215018Y301875D01*
X214888Y302037D01*
X214759Y302232D01*
X214742Y302248D01*
X214726Y302280D01*
X214694Y302345D01*
X214662Y302426D01*
X214580Y302620D01*
X214499Y302863D01*
Y302880D01*
X214483Y302928D01*
X214467Y302993D01*
X214451Y303090D01*
X214435Y303187D01*
X214419Y303317D01*
X214402Y303609D01*
Y303706D01*
X214419Y303803D01*
Y303949D01*
X214451Y304095D01*
X214483Y304273D01*
X214532Y304435D01*
X214597Y304597D01*
X214613Y304613D01*
X214629Y304678D01*
X214678Y304759D01*
X214742Y304856D01*
X214824Y304969D01*
X214921Y305083D01*
X215050Y305212D01*
X215180Y305326D01*
X215196Y305342D01*
X215245Y305374D01*
X215326Y305423D01*
X215439Y305488D01*
X215569Y305569D01*
X215747Y305634D01*
X215925Y305698D01*
X216136Y305763D01*
X216168D01*
X216233Y305779D01*
X216346Y305812D01*
X216508Y305828D01*
X216703Y305860D01*
X216930Y305877D01*
X217173Y305893D01*
X217448D01*
Y304111D01*
D02*
G37*
G36*
X221968Y295768D02*
X220882Y295735D01*
X220899Y295719D01*
X220931Y295687D01*
X220979Y295638D01*
X221044Y295590D01*
X221222Y295428D01*
X221401Y295249D01*
X221417Y295233D01*
X221433Y295217D01*
X221482Y295168D01*
X221530Y295104D01*
X221660Y294942D01*
X221790Y294731D01*
Y294715D01*
X221822Y294682D01*
X221838Y294634D01*
X221887Y294553D01*
X221968Y294358D01*
X222032Y294115D01*
Y294099D01*
X222049Y294067D01*
X222065Y293986D01*
X222081Y293905D01*
X222097Y293791D01*
X222113Y293678D01*
X222130Y293386D01*
Y293289D01*
X222113Y293192D01*
Y293046D01*
X222081Y292900D01*
X222049Y292722D01*
X222016Y292544D01*
X221952Y292382D01*
X221935Y292366D01*
X221919Y292317D01*
X221870Y292236D01*
X221822Y292139D01*
X221660Y291912D01*
X221433Y291669D01*
X221417Y291653D01*
X221368Y291621D01*
X221287Y291572D01*
X221190Y291507D01*
X221077Y291442D01*
X220931Y291378D01*
X220769Y291313D01*
X220607Y291248D01*
X220591D01*
X220526Y291232D01*
X220429Y291216D01*
X220283Y291183D01*
X220137Y291167D01*
X219943Y291135D01*
X219748Y291118D01*
X219538D01*
X214564D01*
Y292900D01*
X219392D01*
X219424D01*
X219489D01*
X219602Y292917D01*
X219732Y292933D01*
X220024Y292998D01*
X220169Y293046D01*
X220299Y293111D01*
X220315Y293127D01*
X220348Y293160D01*
X220396Y293208D01*
X220445Y293289D01*
X220510Y293386D01*
X220558Y293500D01*
X220591Y293646D01*
X220607Y293808D01*
Y293889D01*
X220591Y293970D01*
X220558Y294083D01*
X220526Y294213D01*
X220461Y294342D01*
X220364Y294504D01*
X220251Y294650D01*
X220234Y294666D01*
X220186Y294731D01*
X220105Y294812D01*
X219991Y294925D01*
X219846Y295055D01*
X219667Y295201D01*
X219473Y295363D01*
X219246Y295541D01*
X214564D01*
Y297323D01*
X221968D01*
Y295768D01*
D02*
G37*
G36*
X234338D02*
X233382Y295735D01*
X233398Y295719D01*
X233431Y295687D01*
X233463Y295638D01*
X233528Y295590D01*
X233674Y295428D01*
X233836Y295233D01*
X233852Y295217D01*
X233868Y295185D01*
X233901Y295136D01*
X233949Y295071D01*
X234063Y294893D01*
X234192Y294682D01*
Y294666D01*
X234208Y294634D01*
X234241Y294569D01*
X234273Y294488D01*
X234306Y294375D01*
X234354Y294261D01*
X234419Y294002D01*
Y293986D01*
X234435Y293937D01*
X234451Y293872D01*
Y293775D01*
X234468Y293646D01*
X234484Y293516D01*
X234500Y293208D01*
Y293111D01*
X234484Y293014D01*
Y292868D01*
X234468Y292722D01*
X234435Y292544D01*
X234338Y292204D01*
Y292188D01*
X234306Y292139D01*
X234273Y292058D01*
X234225Y291961D01*
X234079Y291734D01*
X233884Y291491D01*
X233868Y291475D01*
X233836Y291442D01*
X233771Y291394D01*
X233674Y291329D01*
X233577Y291264D01*
X233447Y291183D01*
X233155Y291054D01*
X233139D01*
X233074Y291037D01*
X232993Y291005D01*
X232880Y290989D01*
X232750Y290956D01*
X232588Y290924D01*
X232232Y290908D01*
X232200D01*
X232135D01*
X232038Y290924D01*
X231908Y290940D01*
X231762Y290956D01*
X231600Y291005D01*
X231422Y291054D01*
X231260Y291118D01*
X231244Y291135D01*
X231179Y291167D01*
X231098Y291216D01*
X231001Y291297D01*
X230871Y291378D01*
X230742Y291507D01*
X230612Y291637D01*
X230499Y291799D01*
X230482Y291815D01*
X230450Y291880D01*
X230385Y291977D01*
X230320Y292107D01*
X230239Y292269D01*
X230142Y292463D01*
X230061Y292690D01*
X229996Y292933D01*
Y292949D01*
X229980Y292965D01*
X229964Y293062D01*
X229932Y293208D01*
X229899Y293403D01*
X229867Y293629D01*
X229834Y293905D01*
X229802Y294213D01*
Y295525D01*
X229365D01*
X229348D01*
X229316D01*
X229267D01*
X229186Y295509D01*
X229024Y295492D01*
X228846Y295444D01*
X228830D01*
X228814Y295428D01*
X228717Y295379D01*
X228587Y295298D01*
X228457Y295185D01*
X228425Y295152D01*
X228360Y295055D01*
X228279Y294909D01*
X228214Y294715D01*
Y294699D01*
X228198Y294666D01*
X228182Y294601D01*
X228166Y294520D01*
X228150Y294423D01*
X228133Y294294D01*
X228117Y294018D01*
Y293775D01*
X228133Y293613D01*
X228150Y293403D01*
X228182Y293192D01*
X228279Y292706D01*
Y292674D01*
X228312Y292593D01*
X228344Y292479D01*
X228376Y292317D01*
X228441Y292139D01*
X228506Y291928D01*
X228684Y291491D01*
X227259D01*
X227242Y291507D01*
X227226Y291588D01*
X227194Y291685D01*
X227145Y291831D01*
X227097Y292009D01*
X227032Y292220D01*
X226967Y292447D01*
X226918Y292706D01*
Y292738D01*
X226902Y292819D01*
X226870Y292965D01*
X226837Y293143D01*
X226821Y293370D01*
X226789Y293613D01*
X226773Y293889D01*
Y294456D01*
X226789Y294650D01*
X226805Y294877D01*
X226837Y295104D01*
X226886Y295347D01*
X226935Y295573D01*
Y295606D01*
X226967Y295671D01*
X226999Y295784D01*
X227048Y295914D01*
X227129Y296076D01*
X227210Y296238D01*
X227307Y296400D01*
X227421Y296545D01*
X227437Y296562D01*
X227469Y296610D01*
X227550Y296675D01*
X227631Y296756D01*
X227745Y296853D01*
X227874Y296950D01*
X228036Y297031D01*
X228198Y297112D01*
X228214Y297129D01*
X228279Y297145D01*
X228376Y297177D01*
X228506Y297210D01*
X228668Y297242D01*
X228846Y297274D01*
X229057Y297307D01*
X229284D01*
X234338D01*
Y295768D01*
D02*
G37*
G36*
X233982Y289191D02*
X234014Y289110D01*
X234046Y288980D01*
X234111Y288818D01*
X234176Y288640D01*
X234225Y288429D01*
X234338Y287976D01*
Y287943D01*
X234354Y287878D01*
X234370Y287765D01*
X234403Y287603D01*
X234419Y287425D01*
X234451Y287214D01*
X234468Y286987D01*
Y286566D01*
X234451Y286485D01*
Y286388D01*
X234435Y286129D01*
X234403Y285853D01*
X234338Y285546D01*
X234273Y285238D01*
X234176Y284930D01*
Y284914D01*
X234160Y284898D01*
X234111Y284800D01*
X234046Y284655D01*
X233949Y284460D01*
X233820Y284250D01*
X233658Y284023D01*
X233479Y283796D01*
X233269Y283585D01*
X233236Y283569D01*
X233155Y283504D01*
X233026Y283407D01*
X232864Y283278D01*
X232637Y283148D01*
X232394Y283018D01*
X232102Y282889D01*
X231795Y282775D01*
X231778D01*
X231746Y282759D01*
X231697Y282743D01*
X231633Y282727D01*
X231552Y282711D01*
X231454Y282694D01*
X231195Y282646D01*
X230904Y282581D01*
X230547Y282549D01*
X230142Y282516D01*
X229721Y282500D01*
X229705D01*
X229672D01*
X229608D01*
X229510D01*
X229413Y282516D01*
X229284D01*
X229008Y282532D01*
X228668Y282565D01*
X228312Y282630D01*
X227939Y282694D01*
X227583Y282792D01*
X227566D01*
X227534Y282808D01*
X227485Y282824D01*
X227421Y282856D01*
X227259Y282921D01*
X227032Y283018D01*
X226789Y283148D01*
X226513Y283294D01*
X226254Y283472D01*
X225995Y283666D01*
X225963Y283699D01*
X225882Y283764D01*
X225768Y283893D01*
X225622Y284055D01*
X225460Y284266D01*
X225298Y284509D01*
X225153Y284768D01*
X225007Y285060D01*
Y285076D01*
X224991Y285092D01*
X224974Y285141D01*
X224958Y285205D01*
X224893Y285367D01*
X224829Y285594D01*
X224780Y285853D01*
X224715Y286161D01*
X224683Y286501D01*
X224667Y286874D01*
Y287279D01*
X224683Y287490D01*
Y287603D01*
X224699Y287668D01*
X224715Y287846D01*
X224748Y288057D01*
Y288105D01*
X224764Y288154D01*
Y288235D01*
X224796Y288413D01*
X224845Y288624D01*
Y288640D01*
X224861Y288672D01*
X224877Y288737D01*
X224893Y288802D01*
X224942Y288996D01*
X225007Y289223D01*
X226789D01*
X226773Y289191D01*
X226740Y289110D01*
X226692Y288996D01*
X226627Y288834D01*
X226562Y288656D01*
X226497Y288445D01*
X226384Y288024D01*
Y288008D01*
X226368Y287927D01*
X226335Y287830D01*
X226319Y287700D01*
X226287Y287538D01*
X226270Y287376D01*
X226254Y287020D01*
Y286906D01*
X226270Y286777D01*
X226287Y286615D01*
X226319Y286437D01*
X226368Y286242D01*
X226432Y286048D01*
X226513Y285853D01*
X226530Y285837D01*
X226562Y285772D01*
X226611Y285691D01*
X226692Y285578D01*
X226789Y285448D01*
X226902Y285319D01*
X227032Y285189D01*
X227194Y285060D01*
X227210Y285043D01*
X227275Y285011D01*
X227372Y284962D01*
X227485Y284881D01*
X227647Y284817D01*
X227826Y284736D01*
X228020Y284671D01*
X228247Y284606D01*
X228279D01*
X228344Y284590D01*
X228474Y284574D01*
X228636Y284541D01*
X228830Y284525D01*
X229057Y284493D01*
X229316Y284476D01*
X229575D01*
X229591D01*
X229608D01*
X229705D01*
X229851Y284493D01*
X230045D01*
X230256Y284509D01*
X230482Y284541D01*
X230968Y284622D01*
X231001D01*
X231066Y284655D01*
X231179Y284687D01*
X231325Y284736D01*
X231487Y284800D01*
X231649Y284881D01*
X231827Y284962D01*
X231989Y285076D01*
X232005Y285092D01*
X232054Y285141D01*
X232135Y285205D01*
X232232Y285303D01*
X232329Y285416D01*
X232443Y285562D01*
X232540Y285708D01*
X232637Y285886D01*
X232653Y285902D01*
X232669Y285967D01*
X232702Y286080D01*
X232734Y286210D01*
X232783Y286388D01*
X232815Y286582D01*
X232831Y286793D01*
X232848Y287036D01*
Y287198D01*
X232831Y287360D01*
X232815Y287554D01*
Y287571D01*
X232799Y287603D01*
Y287668D01*
X232783Y287733D01*
X232734Y287911D01*
X232686Y288121D01*
Y288138D01*
X232669Y288170D01*
X232653Y288235D01*
X232637Y288300D01*
X232572Y288478D01*
X232507Y288688D01*
Y288705D01*
X232491Y288737D01*
X232459Y288802D01*
X232443Y288867D01*
X232362Y289045D01*
X232281Y289223D01*
X233965D01*
X233982Y289191D01*
D02*
G37*
G36*
X221611D02*
X221644Y289110D01*
X221676Y288980D01*
X221741Y288818D01*
X221806Y288640D01*
X221854Y288429D01*
X221968Y287976D01*
Y287943D01*
X221984Y287878D01*
X222000Y287765D01*
X222032Y287603D01*
X222049Y287425D01*
X222081Y287214D01*
X222097Y286987D01*
Y286566D01*
X222081Y286485D01*
Y286388D01*
X222065Y286129D01*
X222032Y285853D01*
X221968Y285546D01*
X221903Y285238D01*
X221806Y284930D01*
Y284914D01*
X221790Y284898D01*
X221741Y284800D01*
X221676Y284655D01*
X221579Y284460D01*
X221449Y284250D01*
X221287Y284023D01*
X221109Y283796D01*
X220899Y283585D01*
X220866Y283569D01*
X220785Y283504D01*
X220655Y283407D01*
X220494Y283278D01*
X220267Y283148D01*
X220024Y283018D01*
X219732Y282889D01*
X219424Y282775D01*
X219408D01*
X219376Y282759D01*
X219327Y282743D01*
X219262Y282727D01*
X219181Y282711D01*
X219084Y282694D01*
X218825Y282646D01*
X218533Y282581D01*
X218177Y282549D01*
X217772Y282516D01*
X217351Y282500D01*
X217335D01*
X217302D01*
X217237D01*
X217140D01*
X217043Y282516D01*
X216913D01*
X216638Y282532D01*
X216298Y282565D01*
X215941Y282630D01*
X215569Y282694D01*
X215212Y282792D01*
X215196D01*
X215164Y282808D01*
X215115Y282824D01*
X215050Y282856D01*
X214888Y282921D01*
X214662Y283018D01*
X214419Y283148D01*
X214143Y283294D01*
X213884Y283472D01*
X213625Y283666D01*
X213592Y283699D01*
X213511Y283764D01*
X213398Y283893D01*
X213252Y284055D01*
X213090Y284266D01*
X212928Y284509D01*
X212782Y284768D01*
X212636Y285060D01*
Y285076D01*
X212620Y285092D01*
X212604Y285141D01*
X212588Y285205D01*
X212523Y285367D01*
X212458Y285594D01*
X212410Y285853D01*
X212345Y286161D01*
X212313Y286501D01*
X212296Y286874D01*
Y287279D01*
X212313Y287490D01*
Y287603D01*
X212329Y287668D01*
X212345Y287846D01*
X212377Y288057D01*
Y288105D01*
X212393Y288154D01*
Y288235D01*
X212426Y288413D01*
X212474Y288624D01*
Y288640D01*
X212491Y288672D01*
X212507Y288737D01*
X212523Y288802D01*
X212572Y288996D01*
X212636Y289223D01*
X214419D01*
X214402Y289191D01*
X214370Y289110D01*
X214321Y288996D01*
X214257Y288834D01*
X214192Y288656D01*
X214127Y288445D01*
X214014Y288024D01*
Y288008D01*
X213997Y287927D01*
X213965Y287830D01*
X213949Y287700D01*
X213916Y287538D01*
X213900Y287376D01*
X213884Y287020D01*
Y286906D01*
X213900Y286777D01*
X213916Y286615D01*
X213949Y286437D01*
X213997Y286242D01*
X214062Y286048D01*
X214143Y285853D01*
X214159Y285837D01*
X214192Y285772D01*
X214240Y285691D01*
X214321Y285578D01*
X214419Y285448D01*
X214532Y285319D01*
X214662Y285189D01*
X214824Y285060D01*
X214840Y285043D01*
X214904Y285011D01*
X215002Y284962D01*
X215115Y284881D01*
X215277Y284817D01*
X215455Y284736D01*
X215650Y284671D01*
X215877Y284606D01*
X215909D01*
X215974Y284590D01*
X216103Y284574D01*
X216265Y284541D01*
X216460Y284525D01*
X216687Y284493D01*
X216946Y284476D01*
X217205D01*
X217221D01*
X217237D01*
X217335D01*
X217480Y284493D01*
X217675D01*
X217885Y284509D01*
X218112Y284541D01*
X218598Y284622D01*
X218631D01*
X218695Y284655D01*
X218809Y284687D01*
X218954Y284736D01*
X219116Y284800D01*
X219279Y284881D01*
X219457Y284962D01*
X219619Y285076D01*
X219635Y285092D01*
X219684Y285141D01*
X219764Y285205D01*
X219862Y285303D01*
X219959Y285416D01*
X220072Y285562D01*
X220169Y285708D01*
X220267Y285886D01*
X220283Y285902D01*
X220299Y285967D01*
X220332Y286080D01*
X220364Y286210D01*
X220412Y286388D01*
X220445Y286582D01*
X220461Y286793D01*
X220477Y287036D01*
Y287198D01*
X220461Y287360D01*
X220445Y287554D01*
Y287571D01*
X220429Y287603D01*
Y287668D01*
X220412Y287733D01*
X220364Y287911D01*
X220315Y288121D01*
Y288138D01*
X220299Y288170D01*
X220283Y288235D01*
X220267Y288300D01*
X220202Y288478D01*
X220137Y288688D01*
Y288705D01*
X220121Y288737D01*
X220089Y288802D01*
X220072Y288867D01*
X219991Y289045D01*
X219910Y289223D01*
X221595D01*
X221611Y289191D01*
D02*
G37*
%LPC*%
G36*
X241411Y343283D02*
X241178D01*
X241167D01*
X241145D01*
X241111D01*
X241078D01*
X240967Y343272D01*
X240845Y343261D01*
X240834D01*
X240811D01*
X240778D01*
X240745Y343250D01*
X240634D01*
X240511Y343238D01*
X242567Y340472D01*
X242578D01*
X242611Y340483D01*
X242667Y340505D01*
X242722Y340528D01*
X242889Y340583D01*
X243056Y340661D01*
X243067Y340672D01*
X243089Y340683D01*
X243133Y340705D01*
X243178Y340739D01*
X243300Y340828D01*
X243433Y340939D01*
X243444Y340950D01*
X243456Y340972D01*
X243489Y341005D01*
X243522Y341050D01*
X243600Y341161D01*
X243678Y341305D01*
Y341316D01*
X243689Y341339D01*
X243700Y341383D01*
X243711Y341450D01*
X243733Y341516D01*
X243744Y341594D01*
X243756Y341783D01*
Y341839D01*
X243744Y341905D01*
X243733Y341994D01*
X243722Y342083D01*
X243689Y342194D01*
X243656Y342294D01*
X243600Y342405D01*
X243589Y342416D01*
X243567Y342450D01*
X243533Y342505D01*
X243478Y342572D01*
X243411Y342638D01*
X243322Y342716D01*
X243222Y342794D01*
X243111Y342872D01*
X243100Y342883D01*
X243056Y342905D01*
X242978Y342938D01*
X242889Y342983D01*
X242767Y343039D01*
X242634Y343083D01*
X242467Y343127D01*
X242300Y343172D01*
X242289D01*
X242278D01*
X242211Y343194D01*
X242111Y343205D01*
X241978Y343227D01*
X241811Y343250D01*
X241622Y343261D01*
X241411Y343283D01*
D02*
G37*
G36*
X239678Y343072D02*
X239667D01*
X239634Y343061D01*
X239589Y343039D01*
X239523Y343016D01*
X239378Y342961D01*
X239212Y342883D01*
X239200D01*
X239178Y342861D01*
X239134Y342839D01*
X239089Y342805D01*
X238967Y342716D01*
X238856Y342605D01*
X238845Y342594D01*
X238834Y342583D01*
X238801Y342550D01*
X238767Y342505D01*
X238689Y342383D01*
X238612Y342239D01*
Y342228D01*
X238601Y342205D01*
X238578Y342161D01*
X238567Y342105D01*
X238545Y342039D01*
X238534Y341961D01*
X238523Y341783D01*
Y341727D01*
X238534Y341661D01*
X238545Y341572D01*
X238567Y341483D01*
X238590Y341372D01*
X238634Y341272D01*
X238689Y341161D01*
X238701Y341150D01*
X238723Y341116D01*
X238756Y341061D01*
X238812Y340994D01*
X238889Y340928D01*
X238967Y340839D01*
X239067Y340761D01*
X239189Y340683D01*
X239200Y340672D01*
X239245Y340650D01*
X239312Y340616D01*
X239412Y340572D01*
X239534Y340528D01*
X239667Y340483D01*
X239823Y340439D01*
X240001Y340394D01*
X240023D01*
X240089Y340383D01*
X240189Y340361D01*
X240323Y340350D01*
X240489Y340328D01*
X240678Y340305D01*
X240889Y340294D01*
X241123D01*
X241134D01*
X241145D01*
X241223D01*
X241322D01*
X241434D01*
X241445D01*
X241456D01*
X241523D01*
X241611D01*
X241722Y340305D01*
X239678Y343072D01*
D02*
G37*
G36*
X239389Y331717D02*
X239367D01*
X239312D01*
X239234Y331706D01*
X239134Y331673D01*
X239034Y331640D01*
X238923Y331584D01*
X238812Y331506D01*
X238723Y331395D01*
X238712Y331384D01*
X238689Y331340D01*
X238656Y331273D01*
X238612Y331173D01*
X238567Y331051D01*
X238534Y330895D01*
X238512Y330729D01*
X238501Y330529D01*
Y330440D01*
X238512Y330340D01*
X238523Y330218D01*
X238556Y330073D01*
X238590Y329929D01*
X238645Y329784D01*
X238723Y329662D01*
X238734Y329651D01*
X238767Y329618D01*
X238812Y329562D01*
X238878Y329506D01*
X238978Y329451D01*
X239089Y329395D01*
X239223Y329362D01*
X239378Y329351D01*
X239389D01*
X239412D01*
X239445D01*
X239489Y329362D01*
X239612Y329384D01*
X239734Y329418D01*
X239745D01*
X239756Y329429D01*
X239834Y329473D01*
X239923Y329551D01*
X240034Y329651D01*
X240045Y329662D01*
X240056Y329684D01*
X240089Y329718D01*
X240123Y329762D01*
X240212Y329884D01*
X240323Y330040D01*
X240334Y330051D01*
X240345Y330084D01*
X240378Y330129D01*
X240411Y330195D01*
X240456Y330284D01*
X240500Y330373D01*
X240545Y330484D01*
X240600Y330606D01*
Y330617D01*
X240589Y330629D01*
X240556Y330695D01*
X240500Y330795D01*
X240434Y330918D01*
X240356Y331051D01*
X240267Y331195D01*
X240167Y331329D01*
X240056Y331440D01*
X240045Y331451D01*
X240001Y331484D01*
X239945Y331528D01*
X239867Y331584D01*
X239767Y331628D01*
X239656Y331673D01*
X239523Y331706D01*
X239389Y331717D01*
D02*
G37*
G36*
X242845Y331806D02*
X242833D01*
X242811D01*
X242778D01*
X242722Y331795D01*
X242611Y331784D01*
X242478Y331740D01*
X242467D01*
X242445Y331729D01*
X242411Y331717D01*
X242367Y331695D01*
X242256Y331628D01*
X242134Y331528D01*
X242123Y331517D01*
X242100Y331495D01*
X242067Y331462D01*
X242034Y331417D01*
X241978Y331362D01*
X241922Y331284D01*
X241867Y331206D01*
X241800Y331106D01*
X241789Y331095D01*
X241767Y331062D01*
X241734Y331006D01*
X241689Y330929D01*
X241634Y330840D01*
X241567Y330717D01*
X241500Y330595D01*
X241434Y330451D01*
X241445Y330440D01*
X241467Y330395D01*
X241500Y330329D01*
X241534Y330251D01*
X241645Y330073D01*
X241767Y329884D01*
X241778Y329873D01*
X241800Y329851D01*
X241834Y329806D01*
X241867Y329751D01*
X241978Y329629D01*
X242100Y329506D01*
X242111Y329495D01*
X242134Y329484D01*
X242167Y329462D01*
X242211Y329429D01*
X242322Y329362D01*
X242456Y329307D01*
X242467D01*
X242489Y329295D01*
X242522Y329284D01*
X242567D01*
X242689Y329262D01*
X242833Y329251D01*
X242845D01*
X242867D01*
X242911D01*
X242967Y329262D01*
X243100Y329284D01*
X243233Y329340D01*
X243245D01*
X243256Y329362D01*
X243333Y329406D01*
X243422Y329495D01*
X243522Y329607D01*
Y329618D01*
X243545Y329640D01*
X243567Y329673D01*
X243589Y329729D01*
X243644Y329851D01*
X243700Y330018D01*
Y330029D01*
X243711Y330062D01*
X243722Y330106D01*
Y330173D01*
X243733Y330240D01*
X243744Y330329D01*
X243756Y330529D01*
Y330617D01*
X243744Y330684D01*
X243733Y330840D01*
X243711Y331017D01*
Y331029D01*
X243700Y331062D01*
X243689Y331106D01*
X243667Y331162D01*
X243622Y331295D01*
X243545Y331429D01*
X243533Y331440D01*
X243522Y331462D01*
X243467Y331528D01*
X243367Y331617D01*
X243256Y331706D01*
X243245D01*
X243222Y331717D01*
X243189Y331740D01*
X243133Y331762D01*
X243011Y331795D01*
X242845Y331806D01*
D02*
G37*
G36*
X241411Y326385D02*
X241178D01*
X241167D01*
X241145D01*
X241111D01*
X241078D01*
X240967Y326374D01*
X240845Y326362D01*
X240834D01*
X240811D01*
X240778D01*
X240745Y326351D01*
X240634D01*
X240511Y326340D01*
X242567Y323574D01*
X242578D01*
X242611Y323585D01*
X242667Y323607D01*
X242722Y323629D01*
X242889Y323685D01*
X243056Y323763D01*
X243067Y323774D01*
X243089Y323785D01*
X243133Y323807D01*
X243178Y323840D01*
X243300Y323929D01*
X243433Y324040D01*
X243444Y324051D01*
X243456Y324074D01*
X243489Y324107D01*
X243522Y324151D01*
X243600Y324263D01*
X243678Y324407D01*
Y324418D01*
X243689Y324440D01*
X243700Y324485D01*
X243711Y324552D01*
X243733Y324618D01*
X243744Y324696D01*
X243756Y324885D01*
Y324940D01*
X243744Y325007D01*
X243733Y325096D01*
X243722Y325185D01*
X243689Y325296D01*
X243656Y325396D01*
X243600Y325507D01*
X243589Y325518D01*
X243567Y325551D01*
X243533Y325607D01*
X243478Y325674D01*
X243411Y325740D01*
X243322Y325818D01*
X243222Y325896D01*
X243111Y325974D01*
X243100Y325985D01*
X243056Y326007D01*
X242978Y326040D01*
X242889Y326085D01*
X242767Y326140D01*
X242634Y326185D01*
X242467Y326229D01*
X242300Y326273D01*
X242289D01*
X242278D01*
X242211Y326296D01*
X242111Y326307D01*
X241978Y326329D01*
X241811Y326351D01*
X241622Y326362D01*
X241411Y326385D01*
D02*
G37*
G36*
X239678Y326173D02*
X239667D01*
X239634Y326162D01*
X239589Y326140D01*
X239523Y326118D01*
X239378Y326062D01*
X239212Y325985D01*
X239200D01*
X239178Y325962D01*
X239134Y325940D01*
X239089Y325907D01*
X238967Y325818D01*
X238856Y325707D01*
X238845Y325696D01*
X238834Y325685D01*
X238801Y325651D01*
X238767Y325607D01*
X238689Y325485D01*
X238612Y325340D01*
Y325329D01*
X238601Y325307D01*
X238578Y325262D01*
X238567Y325207D01*
X238545Y325140D01*
X238534Y325062D01*
X238523Y324885D01*
Y324829D01*
X238534Y324763D01*
X238545Y324674D01*
X238567Y324585D01*
X238590Y324474D01*
X238634Y324374D01*
X238689Y324263D01*
X238701Y324252D01*
X238723Y324218D01*
X238756Y324163D01*
X238812Y324096D01*
X238889Y324029D01*
X238967Y323940D01*
X239067Y323863D01*
X239189Y323785D01*
X239200Y323774D01*
X239245Y323751D01*
X239312Y323718D01*
X239412Y323674D01*
X239534Y323629D01*
X239667Y323585D01*
X239823Y323540D01*
X240001Y323496D01*
X240023D01*
X240089Y323485D01*
X240189Y323463D01*
X240323Y323452D01*
X240489Y323429D01*
X240678Y323407D01*
X240889Y323396D01*
X241123D01*
X241134D01*
X241145D01*
X241223D01*
X241322D01*
X241434D01*
X241445D01*
X241456D01*
X241523D01*
X241611D01*
X241722Y323407D01*
X239678Y326173D01*
D02*
G37*
G36*
X241411Y320752D02*
X241178D01*
X241167D01*
X241145D01*
X241111D01*
X241078D01*
X240967Y320741D01*
X240845Y320730D01*
X240834D01*
X240811D01*
X240778D01*
X240745Y320719D01*
X240634D01*
X240511Y320707D01*
X242567Y317941D01*
X242578D01*
X242611Y317952D01*
X242667Y317974D01*
X242722Y317997D01*
X242889Y318052D01*
X243056Y318130D01*
X243067Y318141D01*
X243089Y318152D01*
X243133Y318174D01*
X243178Y318208D01*
X243300Y318297D01*
X243433Y318408D01*
X243444Y318419D01*
X243456Y318441D01*
X243489Y318474D01*
X243522Y318519D01*
X243600Y318630D01*
X243678Y318774D01*
Y318785D01*
X243689Y318808D01*
X243700Y318852D01*
X243711Y318919D01*
X243733Y318985D01*
X243744Y319063D01*
X243756Y319252D01*
Y319307D01*
X243744Y319374D01*
X243733Y319463D01*
X243722Y319552D01*
X243689Y319663D01*
X243656Y319763D01*
X243600Y319874D01*
X243589Y319885D01*
X243567Y319919D01*
X243533Y319974D01*
X243478Y320041D01*
X243411Y320108D01*
X243322Y320185D01*
X243222Y320263D01*
X243111Y320341D01*
X243100Y320352D01*
X243056Y320374D01*
X242978Y320407D01*
X242889Y320452D01*
X242767Y320507D01*
X242634Y320552D01*
X242467Y320596D01*
X242300Y320641D01*
X242289D01*
X242278D01*
X242211Y320663D01*
X242111Y320674D01*
X241978Y320696D01*
X241811Y320719D01*
X241622Y320730D01*
X241411Y320752D01*
D02*
G37*
G36*
X239678Y320541D02*
X239667D01*
X239634Y320530D01*
X239589Y320507D01*
X239523Y320485D01*
X239378Y320430D01*
X239212Y320352D01*
X239200D01*
X239178Y320330D01*
X239134Y320307D01*
X239089Y320274D01*
X238967Y320185D01*
X238856Y320074D01*
X238845Y320063D01*
X238834Y320052D01*
X238801Y320019D01*
X238767Y319974D01*
X238689Y319852D01*
X238612Y319707D01*
Y319696D01*
X238601Y319674D01*
X238578Y319630D01*
X238567Y319574D01*
X238545Y319508D01*
X238534Y319430D01*
X238523Y319252D01*
Y319196D01*
X238534Y319130D01*
X238545Y319041D01*
X238567Y318952D01*
X238590Y318841D01*
X238634Y318741D01*
X238689Y318630D01*
X238701Y318619D01*
X238723Y318585D01*
X238756Y318530D01*
X238812Y318463D01*
X238889Y318396D01*
X238967Y318308D01*
X239067Y318230D01*
X239189Y318152D01*
X239200Y318141D01*
X239245Y318119D01*
X239312Y318085D01*
X239412Y318041D01*
X239534Y317997D01*
X239667Y317952D01*
X239823Y317908D01*
X240001Y317863D01*
X240023D01*
X240089Y317852D01*
X240189Y317830D01*
X240323Y317819D01*
X240489Y317797D01*
X240678Y317774D01*
X240889Y317763D01*
X241123D01*
X241134D01*
X241145D01*
X241223D01*
X241322D01*
X241434D01*
X241445D01*
X241456D01*
X241523D01*
X241611D01*
X241722Y317774D01*
X239678Y320541D01*
D02*
G37*
G36*
X241411Y309486D02*
X241178D01*
X241167D01*
X241145D01*
X241111D01*
X241078D01*
X240967Y309475D01*
X240845Y309464D01*
X240834D01*
X240811D01*
X240778D01*
X240745Y309453D01*
X240634D01*
X240511Y309442D01*
X242567Y306676D01*
X242578D01*
X242611Y306687D01*
X242667Y306709D01*
X242722Y306731D01*
X242889Y306787D01*
X243056Y306864D01*
X243067Y306875D01*
X243089Y306887D01*
X243133Y306909D01*
X243178Y306942D01*
X243300Y307031D01*
X243433Y307142D01*
X243444Y307153D01*
X243456Y307175D01*
X243489Y307209D01*
X243522Y307253D01*
X243600Y307364D01*
X243678Y307509D01*
Y307520D01*
X243689Y307542D01*
X243700Y307587D01*
X243711Y307653D01*
X243733Y307720D01*
X243744Y307798D01*
X243756Y307986D01*
Y308042D01*
X243744Y308109D01*
X243733Y308197D01*
X243722Y308286D01*
X243689Y308398D01*
X243656Y308498D01*
X243600Y308609D01*
X243589Y308620D01*
X243567Y308653D01*
X243533Y308709D01*
X243478Y308775D01*
X243411Y308842D01*
X243322Y308920D01*
X243222Y308997D01*
X243111Y309075D01*
X243100Y309086D01*
X243056Y309109D01*
X242978Y309142D01*
X242889Y309186D01*
X242767Y309242D01*
X242634Y309286D01*
X242467Y309331D01*
X242300Y309375D01*
X242289D01*
X242278D01*
X242211Y309397D01*
X242111Y309408D01*
X241978Y309431D01*
X241811Y309453D01*
X241622Y309464D01*
X241411Y309486D01*
D02*
G37*
G36*
X239678Y309275D02*
X239667D01*
X239634Y309264D01*
X239589Y309242D01*
X239523Y309220D01*
X239378Y309164D01*
X239212Y309086D01*
X239200D01*
X239178Y309064D01*
X239134Y309042D01*
X239089Y309009D01*
X238967Y308920D01*
X238856Y308809D01*
X238845Y308798D01*
X238834Y308786D01*
X238801Y308753D01*
X238767Y308709D01*
X238689Y308586D01*
X238612Y308442D01*
Y308431D01*
X238601Y308409D01*
X238578Y308364D01*
X238567Y308309D01*
X238545Y308242D01*
X238534Y308164D01*
X238523Y307986D01*
Y307931D01*
X238534Y307864D01*
X238545Y307775D01*
X238567Y307686D01*
X238590Y307575D01*
X238634Y307475D01*
X238689Y307364D01*
X238701Y307353D01*
X238723Y307320D01*
X238756Y307264D01*
X238812Y307198D01*
X238889Y307131D01*
X238967Y307042D01*
X239067Y306964D01*
X239189Y306887D01*
X239200Y306875D01*
X239245Y306853D01*
X239312Y306820D01*
X239412Y306775D01*
X239534Y306731D01*
X239667Y306687D01*
X239823Y306642D01*
X240001Y306598D01*
X240023D01*
X240089Y306587D01*
X240189Y306564D01*
X240323Y306553D01*
X240489Y306531D01*
X240678Y306509D01*
X240889Y306498D01*
X241123D01*
X241134D01*
X241145D01*
X241223D01*
X241322D01*
X241434D01*
X241445D01*
X241456D01*
X241523D01*
X241611D01*
X241722Y306509D01*
X239678Y309275D01*
D02*
G37*
G36*
Y286477D02*
X239667D01*
X239656D01*
X239589D01*
X239500Y286455D01*
X239389Y286433D01*
X239256Y286400D01*
X239134Y286333D01*
X239012Y286255D01*
X238901Y286144D01*
X238889Y286133D01*
X238856Y286089D01*
X238812Y286011D01*
X238767Y285911D01*
X238723Y285778D01*
X238678Y285622D01*
X238645Y285433D01*
X238634Y285222D01*
Y284389D01*
X240789D01*
Y285211D01*
X240778Y285289D01*
Y285378D01*
X240756Y285478D01*
X240723Y285666D01*
Y285678D01*
X240711Y285711D01*
X240689Y285755D01*
X240667Y285822D01*
X240600Y285955D01*
X240511Y286100D01*
X240500Y286111D01*
X240489Y286133D01*
X240456Y286166D01*
X240411Y286200D01*
X240300Y286289D01*
X240167Y286378D01*
X240156D01*
X240134Y286389D01*
X240089Y286411D01*
X240023Y286433D01*
X239956Y286444D01*
X239867Y286466D01*
X239678Y286477D01*
D02*
G37*
G36*
X217432Y320408D02*
X217415D01*
X217367D01*
X217286D01*
X217173Y320392D01*
X216946Y320359D01*
X216687Y320295D01*
X216670D01*
X216638Y320278D01*
X216573Y320246D01*
X216492Y320214D01*
X216330Y320116D01*
X216152Y319971D01*
X216136Y319954D01*
X216120Y319938D01*
X216038Y319841D01*
X215925Y319695D01*
X215844Y319501D01*
Y319485D01*
X215828Y319452D01*
X215812Y319404D01*
X215779Y319339D01*
X215747Y319161D01*
X215731Y318934D01*
Y318820D01*
X215747Y318707D01*
X215779Y318545D01*
X215844Y318367D01*
X215925Y318189D01*
X216038Y318010D01*
X216184Y317832D01*
X216200Y317816D01*
X216265Y317767D01*
X216363Y317703D01*
X216508Y317605D01*
X216687Y317524D01*
X216897Y317443D01*
X217140Y317379D01*
X217432Y317330D01*
Y320408D01*
D02*
G37*
G36*
X231616Y311968D02*
X228376D01*
Y311952D01*
X228360Y311935D01*
X228344Y311887D01*
X228328Y311822D01*
X228279Y311644D01*
X228247Y311433D01*
Y311417D01*
X228231Y311385D01*
Y311320D01*
X228214Y311239D01*
X228198Y311044D01*
X228182Y310818D01*
Y310737D01*
X228198Y310656D01*
Y310558D01*
X228263Y310299D01*
X228295Y310170D01*
X228360Y310040D01*
Y310024D01*
X228393Y309991D01*
X228441Y309927D01*
X228490Y309846D01*
X228652Y309651D01*
X228862Y309457D01*
X228879Y309441D01*
X228927Y309424D01*
X228992Y309376D01*
X229089Y309327D01*
X229203Y309262D01*
X229332Y309198D01*
X229494Y309133D01*
X229656Y309084D01*
X229672D01*
X229737Y309068D01*
X229834Y309052D01*
X229948Y309019D01*
X230110Y309003D01*
X230288Y308971D01*
X230482Y308955D01*
X230693D01*
X230725D01*
X230790D01*
X230904D01*
X231049Y308971D01*
X231228D01*
X231390Y308987D01*
X231568Y309003D01*
X231746Y309036D01*
X231762D01*
X231811Y309052D01*
X231892Y309068D01*
X231989Y309100D01*
X232216Y309165D01*
X232459Y309279D01*
X232475D01*
X232507Y309311D01*
X232605Y309392D01*
X232750Y309522D01*
X232864Y309684D01*
Y309700D01*
X232880Y309732D01*
X232896Y309781D01*
X232912Y309846D01*
X232961Y310024D01*
X232977Y310234D01*
Y310315D01*
X232961Y310396D01*
X232929Y310510D01*
X232896Y310639D01*
X232831Y310785D01*
X232734Y310947D01*
X232621Y311093D01*
X232605Y311109D01*
X232556Y311158D01*
X232475Y311239D01*
X232362Y311352D01*
X232216Y311482D01*
X232038Y311628D01*
X231843Y311790D01*
X231616Y311968D01*
D02*
G37*
G36*
X232054Y295525D02*
X231066D01*
Y294261D01*
X231082Y294164D01*
X231098Y293905D01*
X231163Y293646D01*
Y293629D01*
X231179Y293597D01*
X231195Y293532D01*
X231228Y293467D01*
X231292Y293305D01*
X231406Y293143D01*
X231438Y293111D01*
X231503Y293030D01*
X231616Y292933D01*
X231762Y292852D01*
X231778D01*
X231795Y292836D01*
X231892Y292819D01*
X232021Y292787D01*
X232183Y292771D01*
X232200D01*
X232248D01*
X232329Y292787D01*
X232426Y292803D01*
X232540Y292836D01*
X232653Y292900D01*
X232767Y292965D01*
X232864Y293062D01*
X232880Y293079D01*
X232896Y293111D01*
X232929Y293176D01*
X232977Y293273D01*
X233026Y293386D01*
X233058Y293516D01*
X233074Y293678D01*
X233091Y293856D01*
Y293921D01*
X233074Y294002D01*
X233058Y294099D01*
X233026Y294213D01*
X232977Y294342D01*
X232912Y294488D01*
X232831Y294634D01*
X232815Y294650D01*
X232783Y294699D01*
X232718Y294796D01*
X232637Y294893D01*
X232524Y295023D01*
X232394Y295185D01*
X232232Y295347D01*
X232054Y295525D01*
D02*
G37*
%LPD*%
D32*
X112500Y380500D02*
D03*
Y387900D02*
D03*
D33*
Y410102D02*
D03*
Y404000D02*
D03*
X103500Y388051D02*
D03*
Y381949D02*
D03*
D34*
X142000Y405539D02*
D03*
Y410461D02*
D03*
D35*
X124253Y328000D02*
D03*
X131653D02*
D03*
X126800Y311000D02*
D03*
X134200D02*
D03*
X137700Y210500D02*
D03*
X130300D02*
D03*
X227800Y211000D02*
D03*
X235200D02*
D03*
D36*
X230602Y163500D02*
D03*
X224500D02*
D03*
X230602Y172500D02*
D03*
X224500D02*
D03*
D37*
X112461Y303500D02*
D03*
X107539D02*
D03*
D38*
X132000Y385146D02*
D03*
Y390854D02*
D03*
D39*
X103500Y334343D02*
D03*
Y339657D02*
D03*
X106000Y364342D02*
D03*
Y369657D02*
D03*
X122500Y418000D02*
D03*
Y412685D02*
D03*
X126000Y390657D02*
D03*
Y385343D02*
D03*
X122500Y398342D02*
D03*
Y403657D02*
D03*
D40*
X133500Y357500D02*
D03*
X128776D02*
D03*
D41*
X128244Y364500D02*
D03*
X133756D02*
D03*
X133756Y372500D02*
D03*
X128244D02*
D03*
D42*
X113260Y361980D02*
D03*
X117000D02*
D03*
X120740D02*
D03*
Y372020D02*
D03*
X113260D02*
D03*
D43*
X128000Y399500D02*
D03*
X129969D02*
D03*
X131937D02*
D03*
X133905D02*
D03*
X135874D02*
D03*
Y416823D02*
D03*
X133905D02*
D03*
X131937D02*
D03*
X129969D02*
D03*
X128000D02*
D03*
D44*
X128260Y342339D02*
D03*
X110740D02*
D03*
Y339779D02*
D03*
Y337221D02*
D03*
Y334661D02*
D03*
X128260Y339779D02*
D03*
Y337221D02*
D03*
Y334661D02*
D03*
D45*
X167000Y416524D02*
D03*
Y394476D02*
D03*
D46*
X112559Y310500D02*
D03*
X107441D02*
D03*
D47*
X107095Y296500D02*
D03*
X113000D02*
D03*
X107047Y317500D02*
D03*
X112953D02*
D03*
D48*
X105000Y450000D02*
D03*
Y430000D02*
D03*
Y440000D02*
D03*
Y420000D02*
D03*
Y410000D02*
D03*
Y400000D02*
D03*
Y460000D02*
D03*
X241000Y172500D02*
D03*
Y162500D02*
D03*
Y152500D02*
D03*
X233000Y134500D02*
D03*
Y124500D02*
D03*
Y114500D02*
D03*
X228000Y248539D02*
D03*
X138000Y248500D02*
D03*
X118000D02*
D03*
D49*
X166500Y457500D02*
D03*
X116000Y436500D02*
D03*
Y447500D02*
D03*
Y458500D02*
D03*
Y425500D02*
D03*
X219500Y387000D02*
D03*
X208000D02*
D03*
D50*
X152240Y331028D02*
D03*
Y351500D02*
D03*
Y372012D02*
D03*
X194760D02*
D03*
Y351500D02*
D03*
Y331028D02*
D03*
X152240Y119528D02*
D03*
Y140000D02*
D03*
Y160512D02*
D03*
X194760D02*
D03*
Y140000D02*
D03*
Y119528D02*
D03*
D51*
X112500Y120000D02*
D03*
X234500Y369000D02*
D03*
D52*
X186100Y455000D02*
D03*
X236500D02*
D03*
Y404600D02*
D03*
X186100D02*
D03*
X211300Y429800D02*
D03*
M02*
