M48
;Layer_Color=9474304
;FILE_FORMAT=2:5
INCH,LZ
;TYPE=PLATED
T1F00S00C0.01575
T2F00S00C0.04000
T3F00S00C0.04331
T4F00S00C0.04600
T5F00S00C0.04724
T6F00S00C0.10118
T7F00S00C0.12992
%
T01
X0226Y0157
X02355Y02175
X01695Y0293
X0162Y03005
X01385Y0311
X0107095Y0285405
X01305Y0216
X0131Y0322
X01035Y0329
X0106Y03595
X01165Y0357
X01215Y0367
X01195Y0379
X01165Y0395
X01225Y0408171
X0135874Y0404874
T02
X0116Y04255
Y04365
Y04475
Y04585
X01665Y04575
X0208Y0387
X02195
T03
X0233Y01145
Y01245
Y01345
X0241Y01525
Y01625
Y01725
X0105Y04
Y041
Y042
Y043
Y044
Y045
Y046
T04
X01861Y04046
Y0455
X02365
Y04046
X02113Y04298
T05
X0228Y0248539
X0138Y02485
X0118
T06
X015224Y0119528
Y014
X019476
Y0119528
Y0160512
X015224
Y0331028
Y03515
Y0372012
X019476
Y03515
Y0331028
T07
X01125Y012
X02345Y0369
M30
