G04*
G04 #@! TF.GenerationSoftware,Altium Limited,Altium Designer,19.1.9 (167)*
G04*
G04 Layer_Color=32768*
%FSLAX25Y25*%
%MOIN*%
G70*
G01*
G75*
%ADD13C,0.00394*%
%ADD64C,0.00197*%
D13*
X108563Y377310D02*
X116437D01*
X108563Y391090D02*
X116437D01*
X108563Y377310D02*
Y391090D01*
X116437Y377310D02*
Y391090D01*
X112500Y382231D02*
Y386169D01*
X110531Y384200D02*
X114469D01*
X110531Y407051D02*
X114469D01*
X112500Y405083D02*
Y409020D01*
X115453Y400850D02*
Y413252D01*
X109547Y400850D02*
Y413252D01*
X115453D01*
X109547Y400850D02*
X115453D01*
X142000Y406130D02*
Y409870D01*
X140130Y408000D02*
X143870D01*
X127953Y326031D02*
Y329969D01*
X125984Y328000D02*
X129921D01*
X121063Y331937D02*
X134843D01*
X121063Y324063D02*
X134843D01*
X121063D02*
Y331937D01*
X134843Y324063D02*
Y331937D01*
X130500Y309032D02*
Y312968D01*
X128532Y311000D02*
X132468D01*
X123610Y314937D02*
X137390D01*
X123610Y307063D02*
X137390D01*
X123610D02*
Y314937D01*
X137390Y307063D02*
Y314937D01*
X134000Y208531D02*
Y212469D01*
X132032Y210500D02*
X135968D01*
X127110Y206563D02*
X140890D01*
X127110Y214437D02*
X140890D01*
Y206563D02*
Y214437D01*
X127110Y206563D02*
Y214437D01*
X231500Y209032D02*
Y212968D01*
X229532Y211000D02*
X233469D01*
X224610Y214937D02*
X238390D01*
X224610Y207063D02*
X238390D01*
X224610D02*
Y214937D01*
X238390Y207063D02*
Y214937D01*
X227551Y161531D02*
Y165469D01*
X225583Y163500D02*
X229520D01*
X221350Y160547D02*
X233752D01*
X221350Y166453D02*
X233752D01*
Y160547D02*
Y166453D01*
X221350Y160547D02*
Y166453D01*
X227551Y170531D02*
Y174469D01*
X225583Y172500D02*
X229520D01*
X221350Y169547D02*
X233752D01*
X221350Y175453D02*
X233752D01*
Y169547D02*
Y175453D01*
X221350Y169547D02*
Y175453D01*
X101532Y385000D02*
X105468D01*
X103500Y383032D02*
Y386968D01*
X106453Y378799D02*
Y391201D01*
X100547Y378799D02*
Y391201D01*
X106453D01*
X100547Y378799D02*
X106453D01*
X108130Y303500D02*
X111870D01*
X110000Y301630D02*
Y305370D01*
X166500Y455532D02*
Y459469D01*
X164532Y457500D02*
X168468D01*
X166500Y455532D02*
Y459469D01*
X164532Y457500D02*
X168468D01*
X132000Y386228D02*
Y389772D01*
X130228Y388000D02*
X133772D01*
X103500Y335130D02*
Y338870D01*
X101630Y337000D02*
X105370D01*
X104130Y367000D02*
X107870D01*
X106000Y365130D02*
Y368870D01*
X129169Y357500D02*
X133106D01*
X131138Y355532D02*
Y359469D01*
X116000Y434531D02*
Y438469D01*
X114032Y436500D02*
X117968D01*
X116000Y434531D02*
Y438469D01*
X114032Y436500D02*
X117968D01*
X116000Y445532D02*
Y449469D01*
X114032Y447500D02*
X117968D01*
X116000Y445532D02*
Y449469D01*
X114032Y447500D02*
X117968D01*
X116000Y456531D02*
Y460468D01*
X114032Y458500D02*
X117968D01*
X116000Y456531D02*
Y460468D01*
X114032Y458500D02*
X117968D01*
X116000Y423531D02*
Y427468D01*
X114032Y425500D02*
X117968D01*
X116000Y423531D02*
Y427468D01*
X114032Y425500D02*
X117968D01*
X129032Y364500D02*
X132968D01*
X131000Y362531D02*
Y366469D01*
X129032Y372500D02*
X132968D01*
X131000Y370532D02*
Y374468D01*
X120630Y415343D02*
X124370D01*
X122500Y413472D02*
Y417213D01*
X126000Y386130D02*
Y389870D01*
X124130Y388000D02*
X127870D01*
X122500Y399130D02*
Y402870D01*
X120630Y401000D02*
X124370D01*
X117000Y365032D02*
Y368969D01*
X115032Y367000D02*
X118968D01*
X126000Y396500D02*
X138000D01*
X126000Y420000D02*
X138000D01*
X126000Y396500D02*
Y420000D01*
X138000Y396500D02*
Y420000D01*
X132000Y407080D02*
Y411017D01*
X130032Y409049D02*
X133968D01*
X119500Y336531D02*
Y340469D01*
X117532Y338500D02*
X121468D01*
X159323Y421051D02*
X174677D01*
X159323Y389949D02*
X174677D01*
Y421051D01*
X159323Y389949D02*
Y421051D01*
X167000Y403532D02*
Y407469D01*
X165032Y405500D02*
X168968D01*
X108228Y310500D02*
X111772D01*
X110000Y308728D02*
Y312272D01*
X110047Y295516D02*
Y297484D01*
X109063Y296500D02*
X111031D01*
X110000Y316516D02*
Y318484D01*
X109016Y317500D02*
X110984D01*
X219500Y385032D02*
Y388968D01*
X217531Y387000D02*
X221468D01*
X219500Y385032D02*
Y388968D01*
X217531Y387000D02*
X221468D01*
X208000Y385032D02*
Y388968D01*
X206031Y387000D02*
X209968D01*
X208000Y385032D02*
Y388968D01*
X206031Y387000D02*
X209968D01*
D64*
X171894Y457500D02*
G03*
X171894Y457500I-5394J0D01*
G01*
X121394Y436500D02*
G03*
X121394Y436500I-5394J0D01*
G01*
Y447500D02*
G03*
X121394Y447500I-5394J0D01*
G01*
Y458500D02*
G03*
X121394Y458500I-5394J0D01*
G01*
Y425500D02*
G03*
X121394Y425500I-5394J0D01*
G01*
X224894Y387000D02*
G03*
X224894Y387000I-5394J0D01*
G01*
X213394D02*
G03*
X213394Y387000I-5394J0D01*
G01*
X139638Y403669D02*
X144362D01*
X139638Y412331D02*
X144362D01*
X139638Y403669D02*
Y412331D01*
X144362Y403669D02*
Y412331D01*
X114331Y301138D02*
Y305862D01*
X105669Y301138D02*
Y305862D01*
Y301138D02*
X114331D01*
X105669Y305862D02*
X114331D01*
X127866Y381307D02*
X136134D01*
X127866Y394693D02*
X136134D01*
X127866Y381307D02*
Y394693D01*
X136134Y381307D02*
Y394693D01*
X100547Y331685D02*
X106453D01*
X100547Y342315D02*
X106453D01*
X100547Y331685D02*
Y342315D01*
X106453Y331685D02*
Y342315D01*
X103047Y361685D02*
Y372315D01*
X108953Y361685D02*
Y372315D01*
X103047Y361685D02*
X108953D01*
X103047Y372315D02*
X108953D01*
X135468Y355138D02*
Y359862D01*
X126807Y355138D02*
Y359862D01*
Y355138D02*
X135468D01*
X126807Y359862D02*
X135468D01*
X124307Y360366D02*
Y368634D01*
X137693Y360366D02*
Y368634D01*
X124307D02*
X137693D01*
X124307Y360366D02*
X137693D01*
X137693Y368366D02*
Y376634D01*
X124307Y368366D02*
Y376634D01*
Y368366D02*
X137693D01*
X124307Y376634D02*
X137693D01*
X125453Y410028D02*
Y420657D01*
X119547Y410028D02*
Y420657D01*
X125453D01*
X119547Y410028D02*
X125453D01*
X123047Y393315D02*
X128953D01*
X123047Y382685D02*
X128953D01*
Y393315D01*
X123047Y382685D02*
Y393315D01*
X119547Y395685D02*
X125453D01*
X119547Y406315D02*
X125453D01*
X119547Y395685D02*
Y406315D01*
X125453Y395685D02*
Y406315D01*
X110504Y360110D02*
X123496D01*
X110504Y373890D02*
X123496D01*
X110504Y360110D02*
Y373890D01*
X123496Y360110D02*
Y373890D01*
X107098Y331413D02*
X131902D01*
X107098Y345587D02*
X131902D01*
Y331413D02*
Y345587D01*
X107098Y331413D02*
Y345587D01*
X114134Y308335D02*
Y312665D01*
X105866Y308335D02*
Y312665D01*
Y308335D02*
X114134D01*
X105866Y312665D02*
X114134D01*
X105126Y294531D02*
Y298468D01*
X114969D01*
X105126Y294531D02*
X114969D01*
Y298468D01*
X105079Y315531D02*
Y319468D01*
X114921D01*
Y315531D02*
Y319468D01*
X105079Y315531D02*
X114921D01*
M02*
