G04*
G04 #@! TF.GenerationSoftware,Altium Limited,Altium Designer,19.1.9 (167)*
G04*
G04 Layer_Color=32896*
%FSLAX25Y25*%
%MOIN*%
G70*
G01*
G75*
%ADD10C,0.00787*%
G36*
X241277Y144552D02*
X241426Y144545D01*
X241555Y144532D01*
X241666Y144513D01*
X241763Y144500D01*
X241828Y144487D01*
X241853Y144481D01*
X241873D01*
X241879Y144474D01*
X241886D01*
X242003Y144442D01*
X242113Y144403D01*
X242203Y144364D01*
X242281Y144325D01*
X242346Y144286D01*
X242391Y144260D01*
X242424Y144241D01*
X242430Y144234D01*
X242508Y144169D01*
X242573Y144105D01*
X242631Y144040D01*
X242676Y143982D01*
X242709Y143923D01*
X242735Y143884D01*
X242748Y143859D01*
X242754Y143845D01*
X242793Y143761D01*
X242819Y143671D01*
X242839Y143586D01*
X242851Y143509D01*
X242858Y143437D01*
X242864Y143385D01*
Y143353D01*
Y143340D01*
X242858Y143210D01*
X242845Y143159D01*
X242839Y143107D01*
X242826Y143068D01*
X242813Y143042D01*
X242806Y143023D01*
Y143016D01*
X242754Y142912D01*
X242728Y142867D01*
X242702Y142828D01*
X242676Y142802D01*
X242657Y142776D01*
X242644Y142763D01*
X242638Y142757D01*
X242553Y142679D01*
X242476Y142627D01*
X242437Y142601D01*
X242411Y142588D01*
X242391Y142575D01*
X242385D01*
X242275Y142530D01*
X242216Y142511D01*
X242165Y142498D01*
X242119Y142485D01*
X242087Y142478D01*
X242061Y142472D01*
X242054D01*
X242158Y142426D01*
X242242Y142368D01*
X242320Y142316D01*
X242385Y142264D01*
X242437Y142213D01*
X242469Y142174D01*
X242495Y142148D01*
X242501Y142141D01*
X242553Y142057D01*
X242592Y141966D01*
X242625Y141869D01*
X242644Y141785D01*
X242657Y141701D01*
X242664Y141642D01*
Y141616D01*
Y141597D01*
Y141590D01*
Y141584D01*
X242657Y141506D01*
X242651Y141428D01*
X242638Y141364D01*
X242625Y141305D01*
X242605Y141253D01*
X242592Y141221D01*
X242586Y141195D01*
X242579Y141189D01*
X242547Y141124D01*
X242508Y141066D01*
X242463Y141014D01*
X242424Y140968D01*
X242391Y140929D01*
X242359Y140904D01*
X242339Y140891D01*
X242333Y140884D01*
X242268Y140839D01*
X242203Y140800D01*
X242132Y140768D01*
X242074Y140742D01*
X242016Y140722D01*
X241970Y140709D01*
X241944Y140696D01*
X241931D01*
X241841Y140670D01*
X241750Y140657D01*
X241659Y140644D01*
X241575Y140631D01*
X241497D01*
X241439Y140625D01*
X241290D01*
X241206Y140631D01*
X241173D01*
X241147Y140638D01*
X241128D01*
X241043Y140644D01*
X240966Y140657D01*
X240933Y140664D01*
X240907D01*
X240895Y140670D01*
X240888D01*
X240804Y140683D01*
X240726Y140703D01*
X240694Y140709D01*
X240668Y140716D01*
X240655Y140722D01*
X240648D01*
X240564Y140742D01*
X240480Y140761D01*
X240447Y140774D01*
X240421Y140780D01*
X240408Y140787D01*
X240402D01*
Y141383D01*
X240570Y141338D01*
X240648Y141312D01*
X240720Y141299D01*
X240771Y141286D01*
X240817Y141273D01*
X240849Y141267D01*
X240856D01*
X241018Y141241D01*
X241095Y141234D01*
X241167Y141228D01*
X241225Y141221D01*
X241309D01*
X241419Y141228D01*
X241517Y141241D01*
X241594Y141260D01*
X241659Y141279D01*
X241711Y141305D01*
X241750Y141325D01*
X241769Y141338D01*
X241776Y141344D01*
X241828Y141396D01*
X241866Y141454D01*
X241892Y141513D01*
X241912Y141571D01*
X241925Y141623D01*
X241931Y141662D01*
Y141688D01*
Y141701D01*
X241925Y141778D01*
X241912Y141850D01*
X241905Y141876D01*
X241899Y141895D01*
X241892Y141908D01*
Y141914D01*
X241853Y141986D01*
X241815Y142044D01*
X241776Y142083D01*
X241769Y142089D01*
X241763Y142096D01*
X241685Y142148D01*
X241607Y142187D01*
X241575Y142200D01*
X241549Y142213D01*
X241529Y142219D01*
X241523D01*
X241465Y142232D01*
X241400Y142238D01*
X241342Y142251D01*
X241277D01*
X241225Y142258D01*
X240758D01*
Y142802D01*
X241264D01*
X241348Y142809D01*
X241419Y142815D01*
X241478Y142822D01*
X241529Y142835D01*
X241562Y142841D01*
X241588Y142848D01*
X241594D01*
X241659Y142861D01*
X241711Y142880D01*
X241763Y142899D01*
X241802Y142919D01*
X241834Y142932D01*
X241860Y142945D01*
X241873Y142951D01*
X241879Y142958D01*
X241957Y143016D01*
X242009Y143074D01*
X242028Y143094D01*
X242041Y143113D01*
X242054Y143126D01*
Y143133D01*
X242087Y143210D01*
X242106Y143282D01*
X242113Y143314D01*
Y143340D01*
Y143353D01*
Y143359D01*
X242106Y143457D01*
X242093Y143502D01*
X242087Y143541D01*
X242074Y143573D01*
X242061Y143599D01*
X242054Y143612D01*
Y143619D01*
X242009Y143696D01*
X241951Y143755D01*
X241925Y143774D01*
X241905Y143794D01*
X241892Y143800D01*
X241886Y143807D01*
X241795Y143859D01*
X241705Y143891D01*
X241659Y143904D01*
X241633Y143917D01*
X241607Y143923D01*
X241601D01*
X241465Y143943D01*
X241393Y143956D01*
X241329D01*
X241270Y143962D01*
X241095D01*
X241005Y143956D01*
X240920D01*
X240849Y143949D01*
X240791D01*
X240745Y143943D01*
X240707D01*
X240622Y143936D01*
X240545Y143923D01*
X240480Y143917D01*
X240415Y143904D01*
X240370Y143897D01*
X240331Y143891D01*
X240305Y143884D01*
X240298D01*
Y144500D01*
X240357Y144507D01*
X240421Y144513D01*
X240441Y144519D01*
X240480D01*
X240558Y144526D01*
X240622Y144532D01*
X240648Y144539D01*
X240687D01*
X240771Y144545D01*
X240836D01*
X240869Y144552D01*
X240907D01*
X240985Y144558D01*
X241115D01*
X241277Y144552D01*
D02*
G37*
G36*
X237726Y143275D02*
X238089D01*
X238225Y143269D01*
X238354Y143262D01*
X238471Y143243D01*
X238568Y143223D01*
X238652Y143210D01*
X238711Y143191D01*
X238750Y143185D01*
X238763Y143178D01*
X238866Y143133D01*
X238963Y143087D01*
X239048Y143042D01*
X239112Y142997D01*
X239171Y142958D01*
X239216Y142925D01*
X239242Y142899D01*
X239249Y142893D01*
X239320Y142822D01*
X239378Y142744D01*
X239423Y142673D01*
X239469Y142608D01*
X239501Y142550D01*
X239521Y142498D01*
X239534Y142472D01*
X239540Y142459D01*
X239573Y142362D01*
X239598Y142264D01*
X239618Y142174D01*
X239631Y142089D01*
X239637Y142018D01*
X239644Y141960D01*
Y141921D01*
Y141908D01*
X239637Y141804D01*
X239631Y141701D01*
X239611Y141616D01*
X239592Y141539D01*
X239573Y141474D01*
X239560Y141428D01*
X239547Y141403D01*
X239540Y141390D01*
X239495Y141305D01*
X239449Y141234D01*
X239398Y141169D01*
X239352Y141111D01*
X239307Y141066D01*
X239275Y141033D01*
X239249Y141014D01*
X239242Y141007D01*
X239171Y140955D01*
X239087Y140904D01*
X239009Y140865D01*
X238937Y140832D01*
X238866Y140806D01*
X238814Y140787D01*
X238782Y140780D01*
X238775Y140774D01*
X238769D01*
X238659Y140748D01*
X238549Y140722D01*
X238439Y140709D01*
X238335Y140703D01*
X238244Y140696D01*
X238179Y140690D01*
X237000D01*
Y144500D01*
X237726D01*
Y143275D01*
D02*
G37*
G36*
X106258Y433269D02*
X106381Y433256D01*
X106492Y433230D01*
X106595Y433204D01*
X106680Y433178D01*
X106744Y433152D01*
X106764Y433145D01*
X106783Y433139D01*
X106790Y433133D01*
X106796D01*
X106906Y433081D01*
X107017Y433016D01*
X107107Y432958D01*
X107192Y432899D01*
X107256Y432847D01*
X107308Y432802D01*
X107341Y432776D01*
X107353Y432763D01*
X106978Y432284D01*
X106913Y432342D01*
X106848Y432394D01*
X106790Y432439D01*
X106731Y432472D01*
X106686Y432504D01*
X106647Y432523D01*
X106621Y432536D01*
X106615Y432543D01*
X106544Y432575D01*
X106466Y432601D01*
X106401Y432614D01*
X106336Y432627D01*
X106278Y432633D01*
X106239Y432640D01*
X106200D01*
X106109Y432633D01*
X106032Y432621D01*
X106006Y432608D01*
X105986Y432601D01*
X105973Y432595D01*
X105967D01*
X105895Y432562D01*
X105844Y432523D01*
X105811Y432497D01*
X105798Y432491D01*
Y432484D01*
X105753Y432426D01*
X105721Y432374D01*
X105701Y432335D01*
X105695Y432323D01*
Y432316D01*
X105669Y432245D01*
X105662Y432173D01*
X105656Y432148D01*
Y432128D01*
Y432115D01*
Y432109D01*
X105662Y432018D01*
X105669Y431934D01*
X105675Y431901D01*
X105682Y431875D01*
X105688Y431862D01*
Y431856D01*
X105714Y431759D01*
X105753Y431674D01*
X105772Y431636D01*
X105785Y431610D01*
X105792Y431590D01*
X105798Y431584D01*
X105831Y431532D01*
X105870Y431474D01*
X105909Y431422D01*
X105941Y431370D01*
X105980Y431325D01*
X106006Y431292D01*
X106025Y431266D01*
X106032Y431260D01*
X106090Y431188D01*
X106161Y431117D01*
X106226Y431046D01*
X106291Y430975D01*
X106349Y430916D01*
X106395Y430871D01*
X106427Y430839D01*
X106440Y430826D01*
X107334Y429918D01*
Y429400D01*
X104749D01*
Y430055D01*
X106356D01*
X105805Y430579D01*
X105727Y430657D01*
X105649Y430728D01*
X105585Y430793D01*
X105526Y430858D01*
X105481Y430903D01*
X105448Y430942D01*
X105422Y430968D01*
X105416Y430975D01*
X105351Y431046D01*
X105299Y431111D01*
X105247Y431176D01*
X105202Y431227D01*
X105170Y431279D01*
X105144Y431312D01*
X105131Y431337D01*
X105124Y431344D01*
X105047Y431480D01*
X105021Y431545D01*
X104995Y431603D01*
X104975Y431655D01*
X104962Y431694D01*
X104949Y431720D01*
Y431726D01*
X104911Y431875D01*
X104898Y431953D01*
X104891Y432018D01*
X104885Y432070D01*
Y432115D01*
Y432141D01*
Y432154D01*
X104891Y432251D01*
X104898Y432342D01*
X104911Y432426D01*
X104930Y432497D01*
X104949Y432556D01*
X104962Y432595D01*
X104969Y432627D01*
X104975Y432633D01*
X105014Y432711D01*
X105053Y432776D01*
X105092Y432841D01*
X105137Y432886D01*
X105170Y432932D01*
X105202Y432958D01*
X105222Y432977D01*
X105228Y432983D01*
X105293Y433035D01*
X105358Y433074D01*
X105422Y433113D01*
X105481Y433145D01*
X105539Y433165D01*
X105578Y433184D01*
X105604Y433197D01*
X105617D01*
X105701Y433223D01*
X105792Y433243D01*
X105876Y433256D01*
X105954Y433269D01*
X106025D01*
X106077Y433275D01*
X106122D01*
X106258Y433269D01*
D02*
G37*
G36*
X110600Y429400D02*
X109874D01*
Y430625D01*
X109511D01*
X109375Y430631D01*
X109246Y430638D01*
X109129Y430657D01*
X109032Y430677D01*
X108948Y430689D01*
X108889Y430709D01*
X108850Y430715D01*
X108837Y430722D01*
X108734Y430767D01*
X108637Y430813D01*
X108552Y430858D01*
X108487Y430903D01*
X108429Y430942D01*
X108384Y430975D01*
X108358Y431001D01*
X108351Y431007D01*
X108280Y431078D01*
X108222Y431156D01*
X108177Y431227D01*
X108131Y431292D01*
X108099Y431351D01*
X108079Y431402D01*
X108066Y431428D01*
X108060Y431441D01*
X108027Y431538D01*
X108001Y431636D01*
X107982Y431726D01*
X107969Y431811D01*
X107963Y431882D01*
X107956Y431940D01*
Y431979D01*
Y431992D01*
X107963Y432096D01*
X107969Y432199D01*
X107989Y432284D01*
X108008Y432361D01*
X108027Y432426D01*
X108040Y432472D01*
X108053Y432497D01*
X108060Y432510D01*
X108105Y432595D01*
X108151Y432666D01*
X108202Y432731D01*
X108248Y432789D01*
X108293Y432834D01*
X108326Y432867D01*
X108351Y432886D01*
X108358Y432893D01*
X108429Y432945D01*
X108513Y432996D01*
X108591Y433035D01*
X108662Y433068D01*
X108734Y433094D01*
X108786Y433113D01*
X108818Y433119D01*
X108825Y433126D01*
X108831D01*
X108941Y433152D01*
X109051Y433178D01*
X109161Y433191D01*
X109265Y433197D01*
X109356Y433204D01*
X109421Y433210D01*
X110600D01*
Y429400D01*
D02*
G37*
%LPC*%
G36*
X238186Y142679D02*
X237726D01*
Y141286D01*
X238173D01*
X238238Y141292D01*
X238296Y141299D01*
X238354Y141312D01*
X238393Y141318D01*
X238426Y141331D01*
X238445Y141338D01*
X238452D01*
X238555Y141377D01*
X238594Y141403D01*
X238633Y141422D01*
X238659Y141441D01*
X238678Y141461D01*
X238691Y141467D01*
X238698Y141474D01*
X238763Y141539D01*
X238808Y141610D01*
X238821Y141636D01*
X238834Y141662D01*
X238840Y141675D01*
Y141681D01*
X238873Y141778D01*
X238886Y141863D01*
X238892Y141902D01*
Y141927D01*
Y141947D01*
Y141953D01*
X238886Y142070D01*
X238879Y142122D01*
X238866Y142167D01*
X238860Y142206D01*
X238847Y142232D01*
X238840Y142251D01*
Y142258D01*
X238795Y142349D01*
X238750Y142420D01*
X238724Y142446D01*
X238711Y142465D01*
X238698Y142478D01*
X238691Y142485D01*
X238614Y142550D01*
X238536Y142595D01*
X238503Y142614D01*
X238477Y142621D01*
X238458Y142634D01*
X238452D01*
X238341Y142660D01*
X238283Y142666D01*
X238231Y142673D01*
X238186Y142679D01*
D02*
G37*
G36*
X109874Y432614D02*
X109427D01*
X109362Y432608D01*
X109304Y432601D01*
X109246Y432588D01*
X109207Y432582D01*
X109174Y432569D01*
X109155Y432562D01*
X109149D01*
X109045Y432523D01*
X109006Y432497D01*
X108967Y432478D01*
X108941Y432459D01*
X108922Y432439D01*
X108909Y432433D01*
X108902Y432426D01*
X108837Y432361D01*
X108792Y432290D01*
X108779Y432264D01*
X108766Y432238D01*
X108760Y432225D01*
Y432219D01*
X108727Y432122D01*
X108714Y432037D01*
X108708Y431998D01*
Y431973D01*
Y431953D01*
Y431947D01*
X108714Y431830D01*
X108721Y431778D01*
X108734Y431733D01*
X108740Y431694D01*
X108753Y431668D01*
X108760Y431649D01*
Y431642D01*
X108805Y431551D01*
X108850Y431480D01*
X108876Y431454D01*
X108889Y431435D01*
X108902Y431422D01*
X108909Y431415D01*
X108986Y431351D01*
X109064Y431305D01*
X109097Y431286D01*
X109123Y431279D01*
X109142Y431266D01*
X109149D01*
X109259Y431240D01*
X109317Y431234D01*
X109369Y431227D01*
X109414Y431221D01*
X109874D01*
Y432614D01*
D02*
G37*
%LPD*%
D10*
X100000Y395000D02*
X110000D01*
X100000D02*
Y465000D01*
X110000Y395000D02*
Y465000D01*
X100000D02*
X110000D01*
X236000Y146500D02*
Y178500D01*
Y146500D02*
X246000D01*
Y178500D01*
X236000D02*
X246000D01*
M02*
