G04*
G04 #@! TF.GenerationSoftware,Altium Limited,Altium Designer,19.1.9 (167)*
G04*
G04 Layer_Color=16711935*
%FSLAX25Y25*%
%MOIN*%
G70*
G01*
G75*
%ADD48C,0.08674*%
%ADD49C,0.06902*%
%ADD50O,0.14580X0.24422*%
%ADD51C,0.22453*%
%ADD52C,0.07800*%
D48*
X105000Y450000D02*
D03*
Y430000D02*
D03*
Y440000D02*
D03*
Y420000D02*
D03*
Y410000D02*
D03*
Y400000D02*
D03*
Y460000D02*
D03*
X241000Y172500D02*
D03*
Y162500D02*
D03*
Y152500D02*
D03*
X233000Y134500D02*
D03*
Y124500D02*
D03*
Y114500D02*
D03*
X228000Y248539D02*
D03*
X138000Y248500D02*
D03*
X118000D02*
D03*
D49*
X166500Y457500D02*
D03*
X116000Y436500D02*
D03*
Y447500D02*
D03*
Y458500D02*
D03*
Y425500D02*
D03*
X219500Y387000D02*
D03*
X208000D02*
D03*
D50*
X152240Y331028D02*
D03*
Y351500D02*
D03*
Y372012D02*
D03*
X194760D02*
D03*
Y351500D02*
D03*
Y331028D02*
D03*
X152240Y119528D02*
D03*
Y140000D02*
D03*
Y160512D02*
D03*
X194760D02*
D03*
Y140000D02*
D03*
Y119528D02*
D03*
D51*
X112500Y120000D02*
D03*
X234500Y369000D02*
D03*
D52*
X186100Y455000D02*
D03*
X236500D02*
D03*
Y404600D02*
D03*
X186100D02*
D03*
X211300Y429800D02*
D03*
M02*
