G04*
G04 #@! TF.GenerationSoftware,Altium Limited,Altium Designer,19.1.9 (167)*
G04*
G04 Layer_Color=16711935*
%FSLAX25Y25*%
%MOIN*%
G70*
G01*
G75*
%ADD13C,0.00394*%
D13*
X171500Y457500D02*
G03*
X171500Y457500I-5000J0D01*
G01*
X121000Y436500D02*
G03*
X121000Y436500I-5000J0D01*
G01*
Y447500D02*
G03*
X121000Y447500I-5000J0D01*
G01*
Y458500D02*
G03*
X121000Y458500I-5000J0D01*
G01*
Y425500D02*
G03*
X121000Y425500I-5000J0D01*
G01*
X224500Y387000D02*
G03*
X224500Y387000I-5000J0D01*
G01*
X213000D02*
G03*
X213000Y387000I-5000J0D01*
G01*
X109646Y379869D02*
X115354D01*
X109646Y388531D02*
X115354D01*
X109646Y379869D02*
Y388531D01*
X115354Y379869D02*
Y388531D01*
X114469Y403508D02*
Y410595D01*
X110531Y403508D02*
Y410595D01*
X114469D01*
X110531Y403508D02*
X114469D01*
X140130Y404555D02*
X143870D01*
X140130Y411445D02*
X143870D01*
X140130Y404555D02*
Y411445D01*
X143870Y404555D02*
Y411445D01*
X123622Y330854D02*
X132283D01*
X123622Y325146D02*
X132283D01*
X123622D02*
Y330854D01*
X132283Y325146D02*
Y330854D01*
X126169Y313854D02*
X134831D01*
X126169Y308146D02*
X134831D01*
X126169D02*
Y313854D01*
X134831Y308146D02*
Y313854D01*
X129669Y207646D02*
X138331D01*
X129669Y213354D02*
X138331D01*
Y207646D02*
Y213354D01*
X129669Y207646D02*
Y213354D01*
X227169Y213854D02*
X235831D01*
X227169Y208146D02*
X235831D01*
X227169D02*
Y213854D01*
X235831Y208146D02*
Y213854D01*
X224008Y161531D02*
X231095D01*
X224008Y165469D02*
X231095D01*
Y161531D02*
Y165469D01*
X224008Y161531D02*
Y165469D01*
Y170531D02*
X231095D01*
X224008Y174469D02*
X231095D01*
Y170531D02*
Y174469D01*
X224008Y170531D02*
Y174469D01*
X105468Y381457D02*
Y388543D01*
X101532Y381457D02*
Y388543D01*
X105468D01*
X101532Y381457D02*
X105468D01*
X113445Y301630D02*
Y305370D01*
X106555Y301630D02*
Y305370D01*
Y301630D02*
X113445D01*
X106555Y305370D02*
X113445D01*
X130228Y384653D02*
X133772D01*
X130228Y391347D02*
X133772D01*
X130228Y384653D02*
Y391347D01*
X133772Y384653D02*
Y391347D01*
X101630Y333555D02*
X105370D01*
X101630Y340445D02*
X105370D01*
X101630Y333555D02*
Y340445D01*
X105370Y333555D02*
Y340445D01*
X104130Y363555D02*
Y370445D01*
X107870Y363555D02*
Y370445D01*
X104130Y363555D02*
X107870D01*
X104130Y370445D02*
X107870D01*
X134681Y355532D02*
Y359469D01*
X127594Y355532D02*
Y359469D01*
Y355532D02*
X134681D01*
X127594Y359469D02*
X134681D01*
X127457Y362531D02*
Y366469D01*
X134543Y362531D02*
Y366469D01*
X127457D02*
X134543D01*
X127457Y362531D02*
X134543D01*
X134543Y370532D02*
Y374468D01*
X127457Y370532D02*
Y374468D01*
Y370532D02*
X134543D01*
X127457Y374468D02*
X134543D01*
X124370Y411898D02*
Y418787D01*
X120630Y411898D02*
Y418787D01*
X124370D01*
X120630Y411898D02*
X124370D01*
X124130Y391445D02*
X127870D01*
X124130Y384555D02*
X127870D01*
Y391445D01*
X124130Y384555D02*
Y391445D01*
X120630Y397555D02*
X124370D01*
X120630Y404445D02*
X124370D01*
X120630Y397555D02*
Y404445D01*
X124370Y397555D02*
Y404445D01*
X110996Y363555D02*
X123004D01*
X110996Y370445D02*
X123004D01*
X110996Y363555D02*
Y370445D01*
X123004Y363555D02*
Y370445D01*
X126000Y402500D02*
X138000D01*
X126000Y414000D02*
X138000D01*
X126000Y402500D02*
Y414000D01*
X138000Y402500D02*
Y414000D01*
X113398Y332398D02*
X125602D01*
X113398Y344602D02*
X125602D01*
Y332398D02*
Y344602D01*
X113398Y332398D02*
Y344602D01*
X160209Y418590D02*
X173791D01*
X160209Y392409D02*
X173791D01*
Y418590D01*
X160209Y392409D02*
Y418590D01*
X113347Y308728D02*
Y312272D01*
X106653Y308728D02*
Y312272D01*
Y308728D02*
X113347D01*
X106653Y312272D02*
X113347D01*
X106898Y294925D02*
Y298075D01*
X113197Y294925D02*
Y298075D01*
X106898D02*
X113197D01*
X106898Y294925D02*
X113197D01*
X106850Y319075D02*
X113150D01*
X106850Y315925D02*
Y319075D01*
X113150Y315925D02*
Y319075D01*
X106850Y315925D02*
X113150D01*
M02*
