G04*
G04 #@! TF.GenerationSoftware,Altium Limited,Altium Designer,20.0.14 (345)*
G04*
G04 Layer_Physical_Order=1*
G04 Layer_Color=255*
%FSLAX25Y25*%
%MOIN*%
G70*
G01*
G75*
%ADD10C,0.01000*%
%ADD19R,0.42000X0.35000*%
%ADD20R,0.04200X0.15000*%
%ADD21R,0.03543X0.03150*%
%ADD22R,0.03150X0.03543*%
%ADD23R,0.09000X0.03000*%
%ADD24R,0.05906X0.04331*%
%ADD25R,0.03937X0.06299*%
%ADD26R,0.07087X0.05118*%
%ADD27R,0.04331X0.05906*%
%ADD28R,0.05118X0.07087*%
%ADD29R,0.11811X0.06299*%
%ADD30R,0.22835X0.24410*%
%ADD31R,0.03740X0.03740*%
%ADD32R,0.06299X0.03937*%
%ADD33R,0.01968X0.03543*%
%ADD34R,0.03740X0.03740*%
%ADD35O,0.02362X0.05709*%
%ADD36O,0.08268X0.01181*%
%ADD37O,0.01181X0.08268*%
%ADD38O,0.03937X0.02362*%
%ADD39O,0.07480X0.02362*%
%ADD40O,0.02362X0.03937*%
%ADD41R,0.10630X0.10630*%
G04:AMPARAMS|DCode=42|XSize=29.92mil|YSize=94.49mil|CornerRadius=7.48mil|HoleSize=0mil|Usage=FLASHONLY|Rotation=270.000|XOffset=0mil|YOffset=0mil|HoleType=Round|Shape=RoundedRectangle|*
%AMROUNDEDRECTD42*
21,1,0.02992,0.07953,0,0,270.0*
21,1,0.01496,0.09449,0,0,270.0*
1,1,0.01496,-0.03976,-0.00748*
1,1,0.01496,-0.03976,0.00748*
1,1,0.01496,0.03976,0.00748*
1,1,0.01496,0.03976,-0.00748*
%
%ADD42ROUNDEDRECTD42*%
%ADD43O,0.01000X0.05315*%
%ADD82C,0.02000*%
%ADD83C,0.05000*%
%ADD84C,0.03000*%
%ADD85C,0.00600*%
%ADD86C,0.00900*%
%ADD87R,0.12000X0.17000*%
%ADD88R,0.15808X0.15786*%
%ADD89R,0.87045X0.12686*%
%ADD90R,0.17606X0.06901*%
%ADD91R,0.11836X0.06901*%
%ADD92C,0.07874*%
%ADD93R,0.07874X0.07874*%
%ADD94R,0.06299X0.06299*%
%ADD95C,0.06299*%
%ADD96R,0.07874X0.07874*%
%ADD97C,0.19685*%
%ADD98C,0.05000*%
%ADD99R,0.05000X0.05000*%
%ADD100C,0.07000*%
%ADD101R,0.07000X0.07000*%
%ADD102C,0.21654*%
%ADD103C,0.02600*%
D10*
X437843Y432326D02*
X439169Y431000D01*
X419964Y432326D02*
X437843D01*
X430291Y437044D02*
X435187D01*
X435737Y437594D01*
X436170D01*
X433867Y445935D02*
X439169D01*
X430488Y442556D02*
X433867Y445935D01*
X430291Y442556D02*
X430488D01*
X437988Y460738D02*
X439169D01*
X429576Y452326D02*
X437988Y460738D01*
X419964Y452326D02*
X429576D01*
X267116Y345204D02*
X277741D01*
X282520Y340425D01*
X267200Y330425D02*
X282520D01*
X267116Y330509D02*
X267200Y330425D01*
X277022Y314927D02*
X282520Y320425D01*
X267116Y314927D02*
X277022D01*
X239964Y442326D02*
X249291D01*
Y442556D02*
X257230D01*
X258291Y443617D01*
X239964Y452326D02*
X251905D01*
X257110Y457531D02*
X258291D01*
X251905Y452326D02*
X257110Y457531D01*
X31874Y446160D02*
X33343Y444692D01*
X28291Y448260D02*
Y455856D01*
X30391Y446160D02*
X31874D01*
X28291Y448260D02*
X30391Y446160D01*
X33343Y444692D02*
X34524D01*
X35786Y451870D02*
Y452110D01*
X33136Y453579D02*
X34318D01*
X39884Y442447D02*
Y447772D01*
X34318Y453579D02*
X35786Y452110D01*
Y451870D02*
X39884Y447772D01*
X34524Y444692D02*
X39909Y439307D01*
X45233D01*
X36222Y437550D02*
X40056D01*
X34472Y435800D02*
X36222Y437550D01*
X39335Y435335D02*
X45268D01*
X40268Y437339D02*
X45233D01*
X33291Y435800D02*
X34472D01*
X39000Y435000D02*
X39335Y435335D01*
X40056Y437550D02*
X40268Y437339D01*
X39884Y442447D02*
X40997Y441334D01*
Y441276D02*
Y441334D01*
X31227Y458792D02*
X47284D01*
X50119Y461627D01*
X42893Y460629D02*
X48150Y465887D01*
X30589Y460629D02*
X42893D01*
X28291Y455856D02*
X31227Y458792D01*
X30535Y421800D02*
Y426153D01*
X32057Y427675D01*
X33238D01*
X25291Y455331D02*
X30589Y460629D01*
X25291Y442619D02*
Y455331D01*
X21009Y454143D02*
X29925Y463060D01*
X35606D01*
X16352Y458800D02*
X21009Y454143D01*
X23291Y451861D01*
X48150Y465887D02*
Y467800D01*
X35606Y466800D02*
X36394D01*
X38468Y464725D02*
X39696D01*
X36394Y466800D02*
X38468Y464725D01*
X39696D02*
X40002Y464419D01*
X127260Y472627D02*
X127633Y473000D01*
X22000Y625291D02*
X22146Y625146D01*
X110175Y349342D02*
Y353257D01*
X97764Y348943D02*
X97821Y349000D01*
X77760Y359576D02*
X78291Y359044D01*
X77475Y358228D02*
X78291Y359044D01*
X62248Y326072D02*
X62520Y325800D01*
X56264Y359347D02*
X56717Y359800D01*
X117027Y494800D02*
X117263D01*
X116659D02*
X117027D01*
X83941Y566729D02*
X85039D01*
X79760D02*
X83941D01*
X73958Y358491D02*
X76676D01*
X77323Y359139D01*
X135372Y418200D02*
X136216Y419044D01*
X135241Y418200D02*
X135372D01*
X128732Y415650D02*
X145304D01*
X147193Y417539D01*
X144515Y428035D02*
X144643Y428162D01*
X137581Y428035D02*
X144515D01*
X147193Y417539D02*
Y432795D01*
X142433Y437556D02*
X147193Y432795D01*
X139291Y437556D02*
X142433D01*
X149885Y390394D02*
Y575115D01*
X96271Y628729D02*
X149885Y575115D01*
X135806Y376315D02*
X149885Y390394D01*
X135169Y411483D02*
X135241Y411556D01*
X139291D01*
X136216Y419044D02*
X139291D01*
X72271Y362503D02*
X72692Y362081D01*
X72271Y362503D02*
Y368962D01*
X70233Y364785D02*
Y368962D01*
X69681Y364232D02*
X70233Y364785D01*
Y368962D02*
X70268Y368997D01*
X69681Y356627D02*
X72791Y353516D01*
X69681Y356627D02*
Y364232D01*
X62556Y359472D02*
X66528D01*
X62047Y359800D02*
X62138Y359891D01*
X72236Y368997D02*
X72271Y368962D01*
X58736Y341800D02*
X62791Y345855D01*
X53451Y359347D02*
X56264D01*
X120988Y382186D02*
X128732D01*
X120527Y382647D02*
X120988Y382186D01*
X128698Y378214D02*
X128732Y378249D01*
X124161Y378214D02*
X128698D01*
X123146Y377199D02*
X124161Y378214D01*
X122713Y377199D02*
X123146D01*
X138291Y395044D02*
X138903Y395656D01*
X141453D01*
X35777Y612556D02*
X36851Y613631D01*
X81291Y597800D02*
X81453Y597962D01*
X36996Y613631D02*
X37122D01*
X36851D02*
X36996D01*
X37130Y613765D01*
X36781Y613415D02*
X36996Y613631D01*
X32620Y560885D02*
X36826D01*
X32291Y560556D02*
X32620Y560885D01*
X45302Y433402D02*
X51405D01*
X51650Y433647D01*
X45268Y433367D02*
X45302Y433402D01*
X71756Y476000D02*
Y479756D01*
X56024Y476005D02*
X57268Y477249D01*
X56024Y473341D02*
Y476005D01*
X57268Y477249D02*
X61318D01*
X62567Y476000D01*
X63000D01*
X66244D01*
X50119Y461627D02*
Y473341D01*
X136756Y479000D02*
Y482244D01*
X135000Y484000D02*
X136756Y482244D01*
X131579Y484000D02*
X135000D01*
X131291Y484288D02*
X131579Y484000D01*
X127633Y473000D02*
X130000D01*
X134000Y475000D02*
Y476047D01*
X131244Y478803D02*
X134000Y476047D01*
X131244Y478803D02*
Y479000D01*
X127260Y472627D02*
Y472800D01*
X123323D02*
Y475464D01*
X125587Y477728D02*
X130169D01*
X123323Y475464D02*
X125587Y477728D01*
X130169D02*
X131244Y478803D01*
X123348Y456348D02*
X140541Y473541D01*
Y535550D01*
X99584Y576507D02*
X99948Y576143D01*
X123348Y442447D02*
Y456348D01*
X99291Y576800D02*
X99584Y576507D01*
X109672Y364066D02*
Y368962D01*
Y364066D02*
X110480Y363259D01*
Y362988D02*
Y363259D01*
X119535Y352800D02*
Y357800D01*
X113609Y363923D02*
Y368962D01*
Y363923D02*
X119535Y357997D01*
X110480Y362988D02*
X110671Y362797D01*
X112260D01*
X119535Y357800D02*
Y357997D01*
X130172Y356000D02*
X133000D01*
X129426Y355254D02*
X130172Y356000D01*
X128351Y356329D02*
X129426Y355254D01*
X115543Y365405D02*
Y368997D01*
X119362Y361000D02*
X133000D01*
X292552Y336399D02*
Y338757D01*
X292000Y335847D02*
X292552Y336399D01*
X54506Y452447D02*
X54520Y452461D01*
X54506Y446220D02*
Y452447D01*
X54492Y446206D02*
X54506Y446220D01*
X125047Y357603D02*
Y357800D01*
Y357603D02*
X126122Y356528D01*
X126319D01*
X126518Y356329D01*
X128351D01*
X115578Y364785D02*
X119362Y361000D01*
X57968Y498921D02*
X58366Y499319D01*
X61600Y496647D02*
Y497156D01*
X60291Y498662D02*
Y503800D01*
X56244Y497197D02*
X57968Y498921D01*
X56244Y497220D02*
X57956Y498932D01*
X58366Y499319D02*
Y499920D01*
X66535Y512800D02*
X71071D01*
X58366Y504630D02*
X66535Y512800D01*
X58366Y499920D02*
X58366Y504630D01*
X71071Y512800D02*
X76000Y517729D01*
X61600Y497156D02*
Y497353D01*
X60291Y498662D02*
X61600Y497353D01*
Y497156D02*
X61756Y497000D01*
X57993Y493525D02*
X60196Y495728D01*
X57993Y490861D02*
Y493525D01*
X60196Y495728D02*
X60681D01*
X61600Y496647D01*
X56024Y490861D02*
Y497000D01*
X67291Y510800D02*
X72929D01*
X60291Y503800D02*
X67291Y510800D01*
X292000Y335847D02*
X292291Y335556D01*
X111349Y334614D02*
Y338771D01*
X111291Y334556D02*
X111349Y334614D01*
X-4152Y383079D02*
Y388741D01*
X-4243Y382988D02*
X-4152Y383079D01*
Y388741D02*
Y394521D01*
X-4243Y394612D02*
X-4152Y394521D01*
X42098Y608468D02*
X42358Y608729D01*
X36883Y608014D02*
X37316D01*
X37771Y608468D02*
X42098D01*
X37316Y608014D02*
X37771Y608468D01*
X37130Y613765D02*
X42323D01*
X45268Y429430D02*
X50997D01*
X51567Y430000D01*
X52000D01*
X50119Y490861D02*
Y496881D01*
X50000Y497000D02*
X50119Y496881D01*
X72791Y321209D02*
Y326072D01*
X67791Y321209D02*
Y326072D01*
X62791Y321209D02*
Y326072D01*
X57791Y321209D02*
Y326072D01*
X67791D02*
X72791D01*
X57791D02*
X62248D01*
X62791D02*
X67791D01*
X105044Y353044D02*
X105291D01*
X101000Y349000D02*
X105044Y353044D01*
X97821Y349000D02*
X101000D01*
X97280Y349427D02*
X97764Y348943D01*
X56717Y359800D02*
X57045Y359472D01*
X39700Y401871D02*
X45268D01*
X36047Y401800D02*
X36118Y401871D01*
X39700D01*
X36047Y401800D02*
X36163Y401684D01*
X98457Y462879D02*
Y462969D01*
X97291Y464044D02*
X97382D01*
X98457Y462969D01*
Y459634D02*
Y460061D01*
Y459634D02*
X99795Y458296D01*
X97291Y464044D02*
X98457Y462879D01*
Y460061D02*
Y462879D01*
X134000Y457756D02*
Y462000D01*
X133803Y452244D02*
X134000D01*
X130210Y448651D02*
X133803Y452244D01*
X129306Y448651D02*
X130210D01*
X129000Y448345D02*
X129306Y448651D01*
X129000Y445262D02*
Y448345D01*
X128916Y445178D02*
X129000Y445262D01*
X138803Y449103D02*
Y452244D01*
X132945Y443244D02*
X138803Y449103D01*
X139000Y457756D02*
Y462000D01*
X128732Y445178D02*
X128916D01*
X44418Y6630D02*
Y11918D01*
X44291Y12044D02*
X44418Y11918D01*
X68417Y-4074D02*
Y-183D01*
X68291Y-4200D02*
X68417Y-4074D01*
X72894Y-62D02*
X72894Y-62D01*
X69807Y-62D02*
X72894D01*
X69661Y84D02*
X69807Y-62D01*
X60021Y1800D02*
X60291D01*
X59674Y1453D02*
X60021Y1800D01*
X68291Y6636D02*
Y12044D01*
Y6636D02*
X68417Y6510D01*
X56291Y8146D02*
Y12044D01*
X80291Y8146D02*
Y12044D01*
X44291Y-189D02*
Y63D01*
X44418Y-62D02*
X45480Y1000D01*
X48000D01*
X44291Y-4200D02*
Y-189D01*
X44418Y-62D01*
X68589Y17854D02*
X74237D01*
X68291Y17556D02*
X68589Y17854D01*
X642520Y340425D02*
X652291Y330654D01*
Y317556D02*
Y330654D01*
X450964Y421326D02*
X578964D01*
X599964Y442326D01*
X59494Y461000D02*
X63000D01*
X59370Y461123D02*
X59494Y461000D01*
X59961Y467226D02*
Y473341D01*
X59291Y466556D02*
X59961Y467226D01*
X57993Y473341D02*
X59961D01*
X54056Y469035D02*
X55291Y467800D01*
X15319Y393528D02*
X16819Y392028D01*
X45268D01*
X15122Y393528D02*
X15319D01*
X37075Y488537D02*
X37341D01*
X32535Y483997D02*
X37075Y488537D01*
X32535Y483800D02*
Y483997D01*
X114366Y357556D02*
X115291D01*
X82835Y359139D02*
Y363607D01*
X36881Y668525D02*
X36951Y668595D01*
X57520Y347800D02*
X57531Y347811D01*
X101581Y280425D02*
X102520D01*
X72291Y283800D02*
X98206D01*
X101581Y280425D01*
X99669Y584332D02*
X144000Y540000D01*
Y449509D02*
Y540000D01*
X133798Y439307D02*
X144000Y449509D01*
X99948Y576143D02*
X140541Y535550D01*
X98533Y576800D02*
X99291D01*
X90760Y584332D02*
X99669D01*
X152000Y386000D02*
Y579566D01*
X121449Y368997D02*
X134997D01*
X152000Y386000D01*
X93766Y637800D02*
X152000Y579566D01*
X88110Y637800D02*
X93766D01*
X90362Y628729D02*
X96271D01*
X125291Y496241D02*
X126047Y496997D01*
X125291Y490320D02*
Y496241D01*
X121354Y472800D02*
Y477213D01*
X121000Y477567D02*
X121354Y477213D01*
X121000Y477567D02*
Y478000D01*
X120000Y446000D02*
X121414Y447414D01*
Y452427D01*
X121449Y452461D01*
X120860Y463800D02*
X121291D01*
X120949D02*
X121073D01*
X115941Y460555D02*
X117512Y458984D01*
Y452461D02*
Y458984D01*
X119480Y462331D02*
X120949Y463800D01*
X119480Y452461D02*
Y462331D01*
X117417Y468643D02*
Y472800D01*
X113291Y463800D02*
X114472D01*
X115941Y465269D02*
Y467166D01*
X114472Y463800D02*
X115941Y465269D01*
Y467166D02*
X117417Y468643D01*
X114472Y463800D02*
X115941Y462331D01*
Y460555D02*
Y462331D01*
X29000Y420265D02*
X30535Y421800D01*
X29000Y418000D02*
Y420265D01*
X72291Y309800D02*
X76291D01*
X67638D02*
X72291D01*
X33310Y418366D02*
X33616Y418673D01*
X33310Y418366D02*
X33634D01*
X33616Y418673D02*
Y419172D01*
X36047Y421603D01*
Y421800D01*
X39418Y418905D02*
X39851D01*
X40499Y419553D01*
X45233D01*
X56291Y1453D02*
X59674D01*
X84945D02*
X85445Y953D01*
X80291Y1453D02*
X84945D01*
X45233Y437339D02*
X45268Y437304D01*
X40997Y441276D02*
X45233D01*
X45268Y441241D01*
X110175Y353257D02*
X110298Y353380D01*
X138291Y390556D02*
X141556D01*
X115291Y347291D02*
Y351044D01*
X87535Y348000D02*
Y355029D01*
X86169Y346728D02*
X87441Y348000D01*
X84291Y331619D02*
Y344756D01*
X87441Y348000D02*
X87535D01*
X86169Y346634D02*
Y346728D01*
X84291Y344756D02*
X86169Y346634D01*
X90760Y339268D02*
X101363D01*
X89291Y337800D02*
X90760Y339268D01*
X101363D02*
X102520Y340425D01*
X81091Y363000D02*
X81094Y363003D01*
X81401Y363309D01*
X82538D01*
X82835Y363607D01*
X88019Y363874D02*
Y368962D01*
X88203Y358172D02*
Y363690D01*
X87984Y368997D02*
X88019Y368962D01*
Y363874D02*
X88203Y363690D01*
X85563Y362724D02*
X85981Y363142D01*
Y368962D01*
X72791Y347528D02*
Y353516D01*
X23291Y403800D02*
Y451532D01*
Y403800D02*
X29157Y397934D01*
X-4000Y406855D02*
Y411000D01*
Y394855D02*
Y403000D01*
X-4055Y394800D02*
X-4000Y394855D01*
Y403000D02*
Y406745D01*
X-4055Y406800D02*
X-4000Y406745D01*
X-4243Y382988D02*
X-4055Y382800D01*
X-4243Y394612D02*
X-4055Y394800D01*
X-4050Y370806D02*
Y378251D01*
X-4055Y370800D02*
X-4050Y370806D01*
Y378251D02*
Y382794D01*
X-4055Y382800D02*
X-4050Y382794D01*
X-4055Y406800D02*
X-4000Y406855D01*
X26654Y393997D02*
X45268D01*
X14047Y406603D02*
X26654Y393997D01*
X25291Y442619D02*
X32110Y435800D01*
X36047Y421800D02*
X36817Y422570D01*
X39648D01*
X38791Y426139D02*
X40148Y427496D01*
X45233D02*
X45268Y427461D01*
X40148Y427496D02*
X45233D01*
X37241Y607750D02*
Y607800D01*
X37843Y561469D02*
X42098D01*
X37259Y560885D02*
X37843Y561469D01*
X36826Y560885D02*
X37259D01*
X37081Y556119D02*
X41748D01*
X33366D02*
X37081D01*
X36000Y592000D02*
X36271Y591729D01*
X42358D01*
X37202Y643798D02*
X42289D01*
X37291Y653800D02*
Y657485D01*
X41748Y556119D02*
X42358Y556729D01*
X32291Y555044D02*
X33366Y556119D01*
X22000Y613847D02*
Y619000D01*
Y625000D01*
Y629753D02*
X22291Y630044D01*
X22000Y625291D02*
Y629753D01*
Y613847D02*
X22291Y613556D01*
X82835Y363607D02*
X84013Y364785D01*
X85981Y368962D02*
X86016Y368997D01*
X90760Y319268D02*
X101363D01*
X102520Y320425D01*
X89291Y317800D02*
X90760Y319268D01*
X120291Y343044D02*
X124047D01*
X450964Y341981D02*
X462520Y330425D01*
X450964Y341981D02*
Y352326D01*
X439274Y350473D02*
X440964D01*
X770291Y441999D02*
Y454044D01*
Y441999D02*
X779964Y432326D01*
X249291Y437044D02*
X253047D01*
X59291Y461044D02*
X59370Y461123D01*
X58217Y459969D02*
X59291Y461044D01*
X37181Y691226D02*
X37291Y691115D01*
X37070Y694280D02*
X37181Y694169D01*
Y691226D02*
Y694169D01*
X37291Y702485D02*
Y705800D01*
Y713115D02*
Y716450D01*
Y702485D02*
X37309Y702467D01*
X36951Y668595D02*
Y671165D01*
X36881Y668525D02*
X37291Y668115D01*
X37347Y677361D02*
X37402Y677305D01*
X37347Y677361D02*
Y680430D01*
X37291Y680485D02*
X37347Y680430D01*
X54037Y490879D02*
X54056Y490861D01*
X24758Y470322D02*
X24976Y470540D01*
X24539Y470103D02*
X24758Y470322D01*
X19743D02*
X24758D01*
X19524Y470103D02*
X19743Y470322D01*
X13124Y468800D02*
X13967Y469643D01*
X18631D01*
X19091Y470103D01*
X19524D01*
X24539D01*
X80094Y461044D02*
X80291D01*
X79020Y459969D02*
X80094Y461044D01*
X79020Y459772D02*
Y459969D01*
X78658Y459411D02*
X79020Y459772D01*
X78658Y458504D02*
Y459411D01*
X78352Y458198D02*
X78658Y458504D01*
X78176Y452496D02*
Y458022D01*
X78142Y452461D02*
X78176Y452496D01*
Y458022D02*
X78352Y458198D01*
X83312Y458779D02*
X84081D01*
X83291Y458800D02*
X83312Y458779D01*
X83764D02*
X84081D01*
X83387Y458402D02*
X83764Y458779D01*
X83387Y457947D02*
Y458402D01*
X82113Y456674D02*
X83387Y457947D01*
X82113Y452496D02*
Y456674D01*
X96073Y472859D02*
X96285Y473071D01*
X96073Y470631D02*
Y472859D01*
Y470631D02*
X97148Y469556D01*
X97291D01*
X99535Y483800D02*
Y483997D01*
X101775Y486236D01*
Y487410D01*
X102081Y487716D01*
X117027Y494800D02*
X117417Y494410D01*
X117263Y494800D02*
X117277Y494786D01*
X117417Y490320D02*
Y494410D01*
X95291Y507800D02*
X105021Y498070D01*
X119461D01*
X120535Y496996D01*
X106271Y499820D02*
X118442D01*
X118443Y499822D01*
X97291Y508800D02*
X106271Y499820D01*
X120535Y496603D02*
Y496996D01*
X123244Y499800D02*
X126047Y496997D01*
X118443Y499822D02*
X122628D01*
X122650Y499800D02*
X123244D01*
X122628Y499822D02*
X122650Y499800D01*
X128767Y431364D02*
X134252D01*
X137581Y428035D01*
X135175Y426505D02*
X135504D01*
X134218Y427461D02*
X135175Y426505D01*
X132438Y433402D02*
X132450Y433413D01*
X128732Y433367D02*
X128767Y433402D01*
X132450Y433413D02*
X136057D01*
X128767Y433402D02*
X132438D01*
X128732Y425493D02*
X128767Y425458D01*
X132945D01*
X133038Y425365D01*
X133038D01*
X134116Y424287D01*
Y423408D02*
Y424287D01*
Y423408D02*
X135291Y422233D01*
Y421800D02*
Y422233D01*
X138339Y423800D02*
X138535D01*
X138339D02*
X139094Y424556D01*
X136645Y422106D02*
X138339Y423800D01*
X139094Y424556D02*
X139291D01*
X135597Y422106D02*
X136645D01*
X135291Y421800D02*
X135597Y422106D01*
X136756Y381535D02*
X137119D01*
X135438Y380217D02*
X136756Y381535D01*
X137119Y383872D02*
X138291Y385044D01*
X137119Y381535D02*
Y383872D01*
X128732Y380217D02*
X135438D01*
X128732Y384154D02*
X128748Y384170D01*
X134102D01*
X134118Y384185D01*
X100416Y362800D02*
X106193D01*
X100416D02*
X100416D01*
X110101Y358892D02*
X110298D01*
X106193Y362800D02*
X110101Y358892D01*
X104982Y358247D02*
X105291Y358556D01*
X102273Y358247D02*
X104982D01*
X99839Y358301D02*
X99893Y358247D01*
X102273D01*
X97280Y349427D02*
Y349443D01*
X94721Y358301D02*
Y361661D01*
X95858Y362798D01*
Y368997D01*
X82541Y352510D02*
X88203Y358172D01*
X86050Y369032D02*
Y374686D01*
X86016Y368997D02*
X86050Y369032D01*
Y374686D02*
X86137Y374772D01*
X45268Y409745D02*
X45302Y409780D01*
X50256D01*
X51166Y410690D01*
X51599D01*
X45268Y407776D02*
X50502D01*
X51308Y406971D01*
X51741D01*
X45268Y403839D02*
X45302Y403805D01*
X50108D01*
X50863Y403050D01*
X51296D01*
X45233Y431364D02*
X45268Y431398D01*
X39074Y431364D02*
X45233D01*
X38898Y431188D02*
X39074Y431364D01*
X45233Y419553D02*
X45268Y419587D01*
X45233Y421591D02*
X45268Y421556D01*
X40628Y421591D02*
X45233D01*
X39648Y422570D02*
X40628Y421591D01*
X45302Y425527D02*
X52019D01*
X45268Y425493D02*
X45302Y425527D01*
X45268Y423524D02*
X50567D01*
X52291Y421800D01*
X52019Y425527D02*
X52291Y425800D01*
X32291Y607044D02*
X36265D01*
X439806Y479975D02*
X444806D01*
X24851Y466675D02*
X24976Y466800D01*
X21416Y466675D02*
X24851D01*
X21291Y466550D02*
X21416Y466675D01*
X45241Y445204D02*
X45268Y445178D01*
X45241Y445204D02*
Y447800D01*
X128732Y427461D02*
X134218D01*
X74362Y571729D02*
X79760D01*
X125291Y472800D02*
X127260D01*
X261291Y300800D02*
X267291D01*
X258291Y471800D02*
X264291D01*
X117417Y490320D02*
X119386D01*
X121354D01*
X78047Y597800D02*
X81291D01*
X74362Y581729D02*
X79760D01*
X99795Y452461D02*
Y458296D01*
X73362Y633729D02*
X79760D01*
X78047Y649800D02*
X81291D01*
X65291Y485288D02*
X68291D01*
X101764Y446273D02*
Y452461D01*
X13124Y448800D02*
X13291Y448632D01*
X12281Y449643D02*
X13124Y448800D01*
X13291Y445800D02*
Y448632D01*
X42098Y561469D02*
X42358Y561729D01*
X32291Y612556D02*
X35777D01*
X42323Y613765D02*
X42358Y613729D01*
X36265Y607044D02*
X36971Y607750D01*
X37241D01*
X45268Y417619D02*
X51110D01*
X32110Y435800D02*
X33291D01*
X20302Y463060D02*
X24976D01*
X19562Y463800D02*
X20302Y463060D01*
X13124Y463800D02*
X19291D01*
X82079Y368997D02*
Y374587D01*
X99830Y363386D02*
Y368962D01*
Y363386D02*
X100416Y362800D01*
X10291Y475800D02*
X29594D01*
X34854Y470540D02*
X35606D01*
X29594Y475800D02*
X34854Y470540D01*
X13124Y458800D02*
X16352D01*
X23291Y451532D02*
Y451861D01*
X5291Y452972D02*
X8620Y449643D01*
X12281D01*
X5291Y452972D02*
Y470800D01*
X10291Y475800D01*
X19291Y463800D02*
X19562D01*
X45268Y388091D02*
X51000D01*
X21110Y390060D02*
X45268D01*
X14047Y382997D02*
X21110Y390060D01*
X45302Y441276D02*
X49480D01*
X50711Y442506D01*
Y458270D01*
X52087Y459646D01*
X45268Y441241D02*
X45302Y441276D01*
X80110Y446981D02*
Y452461D01*
X122567Y423524D02*
X128732D01*
X123331Y403839D02*
X128732D01*
X111606Y368997D02*
Y376485D01*
X115543Y368997D02*
X115578Y368962D01*
Y364785D02*
Y368962D01*
X112260Y362797D02*
X114291Y360766D01*
Y357631D02*
X114366Y357556D01*
X114291Y357631D02*
Y360766D01*
X113575Y368997D02*
X113609Y368962D01*
X109638Y368997D02*
X109672Y368962D01*
X56803Y294800D02*
X60291D01*
X56803Y299288D02*
X60291D01*
X84291Y300800D02*
X89291D01*
X79760Y618729D02*
X85039D01*
X88110Y621800D01*
X89291D01*
X85039Y566729D02*
X88110Y569800D01*
X89291D01*
X32291Y-4200D02*
Y-200D01*
X282520Y330425D02*
X291910D01*
X292291Y330044D01*
X102520Y330425D02*
X102826Y330119D01*
X110216D01*
X111291Y329044D01*
X88110Y317800D02*
X89291D01*
X82541Y323369D02*
X88110Y317800D01*
X89110Y327800D02*
X89291D01*
X88110D02*
X89110D01*
X90579Y329269D01*
X84291Y331619D02*
X88110Y327800D01*
X90579Y329269D02*
X101363D01*
X102520Y330425D01*
X82541Y323369D02*
Y352510D01*
X239964Y432326D02*
X240022Y432268D01*
X256823D01*
X258291Y430800D01*
X119386Y470643D02*
Y472800D01*
Y470643D02*
X119392Y470637D01*
Y465269D02*
Y470637D01*
Y465269D02*
X120860Y463800D01*
X90291Y576800D02*
X98533D01*
X74303Y545800D02*
X88697D01*
X79879Y541850D02*
X89242D01*
X79000Y542729D02*
X79879Y541850D01*
X83758Y577800D02*
X89291D01*
X82687Y576729D02*
X83758Y577800D01*
X79760Y576729D02*
X82687D01*
X89291Y577800D02*
X90291Y576800D01*
X88110Y585800D02*
X89291D01*
X82181Y591729D02*
X88110Y585800D01*
X79760Y591729D02*
X82181D01*
X89291Y585800D02*
X90760Y584332D01*
X83758Y629800D02*
X89291D01*
X82687Y628729D02*
X83758Y629800D01*
X79760Y628729D02*
X82687D01*
X89291Y629800D02*
X90362Y628729D01*
X82181Y643729D02*
X88110Y637800D01*
X79760Y643729D02*
X82181D01*
X76291Y306800D02*
Y309800D01*
Y312800D01*
X40535Y17556D02*
X44291D01*
X50535D01*
X56291D01*
X62535D01*
X68291D01*
X74535D02*
X80291D01*
Y-4200D02*
Y1453D01*
X56291Y-4200D02*
Y1453D01*
X60291Y309146D02*
X60945Y309800D01*
X60291Y304800D02*
Y309146D01*
Y284454D02*
X60945Y283800D01*
X60291Y284454D02*
Y289288D01*
X2638Y370800D02*
X8535D01*
X2638Y382800D02*
X8535D01*
X2638Y394800D02*
X8535D01*
X2638Y406800D02*
X8535D01*
X14047Y394603D02*
X15122Y393528D01*
X14047Y394603D02*
Y394800D01*
Y370800D02*
Y370997D01*
X15122Y372072D01*
X15319D01*
X29370Y386123D01*
X45268D01*
X14047Y382800D02*
Y382997D01*
Y406603D02*
Y406800D01*
X29157Y397934D02*
X45268D01*
X30535Y401800D02*
Y405556D01*
X472291Y317556D02*
Y330654D01*
X462520Y340425D02*
X472291Y330654D01*
Y307556D02*
Y312044D01*
X462520Y310425D02*
X463064Y310969D01*
X471216D01*
X472291Y312044D01*
X462520Y300425D02*
X463064Y300969D01*
X471216D01*
X472291Y302044D01*
X770291Y464044D02*
X771366Y462969D01*
X779321D01*
X779964Y462326D01*
X599964D02*
X610573D01*
X611291Y463044D01*
X651217Y310969D02*
X652291Y312044D01*
X643064Y310969D02*
X651217D01*
X642520Y310425D02*
X643064Y310969D01*
X652291Y307556D02*
Y312044D01*
X642520Y300425D02*
X643064Y300969D01*
X651217D01*
X652291Y302044D01*
X599964Y472326D02*
X600931Y471359D01*
X608291D01*
X611094Y468556D02*
X611291D01*
X608291Y471359D02*
X611094Y468556D01*
X611291Y443654D02*
Y453044D01*
X599964Y432326D02*
X611291Y443654D01*
X439192Y350555D02*
X440964Y352326D01*
Y350473D02*
Y352326D01*
X419964Y442326D02*
X430062D01*
X430291Y442556D01*
X138535Y423800D02*
X139291Y424556D01*
X128732Y431398D02*
X128767Y431364D01*
Y376315D02*
X135806D01*
X82079Y452461D02*
X82113Y452496D01*
X55610Y340119D02*
X57291Y341800D01*
X99839Y358301D02*
Y359089D01*
X100323Y359573D01*
X79291Y338800D02*
Y342044D01*
X84013Y364785D02*
Y368962D01*
X84047Y368997D01*
X91921Y347657D02*
X91972Y347606D01*
Y346875D02*
Y347606D01*
X89918Y368962D02*
X89953Y368997D01*
Y357447D02*
Y368928D01*
X89918Y368962D02*
X89953Y368928D01*
X87535Y355029D02*
X89953Y357447D01*
X136057Y433413D02*
X136351Y433119D01*
X138216D01*
X122661Y429430D02*
X128732D01*
X138216Y433119D02*
X139291Y432044D01*
X611291Y458556D02*
Y463044D01*
X773259Y472326D02*
X779964D01*
X770488Y469556D02*
X773259Y472326D01*
X770291Y469556D02*
X770488D01*
X79264Y347528D02*
X79291Y347556D01*
X72791Y347528D02*
X79264D01*
X57045Y350317D02*
Y353800D01*
Y350317D02*
X57531Y349831D01*
Y347811D02*
Y349831D01*
X62556Y353800D02*
X67021D01*
X68021Y352800D01*
X68291D01*
X119535Y349312D02*
Y352800D01*
Y349312D02*
X120291Y348556D01*
X128732Y443210D02*
X128767Y443244D01*
X132945D01*
X128732Y439272D02*
X128767Y439307D01*
X133798D01*
X67291Y466556D02*
X71047D01*
X58068Y458219D02*
X64467D01*
X66020Y459772D02*
Y459969D01*
X67094Y461044D02*
X67291D01*
X66020Y459969D02*
X67094Y461044D01*
X64467Y458219D02*
X66020Y459772D01*
X56523Y452496D02*
Y456674D01*
X56488Y452461D02*
X56523Y452496D01*
Y456674D02*
X58068Y458219D01*
X52586Y456674D02*
X55881Y459969D01*
X58217D01*
X52551Y452461D02*
X52586Y452496D01*
Y456674D01*
X104618Y359229D02*
X105291Y358556D01*
X99795Y368997D02*
X99830Y368962D01*
X37236Y409745D02*
X45268D01*
X36291Y408800D02*
X37236Y409745D01*
X138216Y436481D02*
X139291Y437556D01*
X48150Y467800D02*
Y473341D01*
X52087Y490861D02*
X54056D01*
X50119D02*
X52087D01*
X95291Y507800D02*
Y535800D01*
X89242Y541850D02*
X95291Y535800D01*
X73250Y544747D02*
X74303Y545800D01*
X88697D02*
X97291Y537206D01*
Y508800D02*
Y537206D01*
X73250Y535479D02*
Y544747D01*
Y535479D02*
X76000Y532729D01*
X79000D01*
X72929Y510800D02*
X76000Y507729D01*
X79000D01*
X76000Y517729D02*
X79000D01*
X123323Y490320D02*
Y493816D01*
X120535Y496603D02*
X123323Y493816D01*
X57200Y443709D02*
X58457Y444965D01*
Y452461D01*
X54056Y469035D02*
Y473341D01*
X52087Y459646D02*
Y473341D01*
X76535Y466556D02*
X80291D01*
X59291D02*
X63047D01*
X30535Y372044D02*
Y375800D01*
X62520Y325800D02*
X62791Y326072D01*
X62394Y359635D02*
Y368997D01*
Y359635D02*
X62556Y359472D01*
X53366Y340119D02*
X55610D01*
X57291Y341800D02*
X58736D01*
X52291Y339044D02*
X53366Y340119D01*
X62791Y345855D02*
Y347528D01*
X54291Y347800D02*
X57520D01*
X53563Y347072D02*
X54291Y347800D01*
X53291Y345556D02*
X53488D01*
X53563Y345631D01*
Y347072D01*
X52291Y344556D02*
X53291Y345556D01*
X67791Y347528D02*
Y352029D01*
X68291Y352529D01*
Y352800D01*
X128732Y405808D02*
X135029D01*
X135265Y406044D01*
X135535D01*
X139291D01*
X45233Y376246D02*
X45268Y376280D01*
X40008Y376246D02*
X45233D01*
X39562Y375800D02*
X40008Y376246D01*
X39291Y375800D02*
X39562D01*
X36047D02*
X39291D01*
X128732Y376280D02*
X128767Y376315D01*
X124520Y441276D02*
X128698D01*
X128732Y441241D01*
X123348Y442447D02*
X124520Y441276D01*
X746140Y78540D02*
X750139D01*
Y81206D01*
Y82539D02*
Y83872D01*
Y83205D01*
X746140D01*
X746806Y82539D01*
D19*
X513828Y167402D02*
D03*
X558828D02*
D03*
D20*
X500428Y129902D02*
D03*
X507128D02*
D03*
X527228D02*
D03*
X520528D02*
D03*
X513828D02*
D03*
X558828D02*
D03*
X565528D02*
D03*
X572228D02*
D03*
X552128D02*
D03*
X545428D02*
D03*
D21*
X770291Y464044D02*
D03*
Y469556D02*
D03*
X652291Y307556D02*
D03*
Y302044D02*
D03*
X611291Y463044D02*
D03*
Y468556D02*
D03*
X472291Y307556D02*
D03*
Y302044D02*
D03*
X22291Y608044D02*
D03*
Y613556D02*
D03*
X36291Y414312D02*
D03*
Y408800D02*
D03*
X139291Y432044D02*
D03*
Y437556D02*
D03*
X120291Y348556D02*
D03*
Y343044D02*
D03*
X138291Y395044D02*
D03*
Y400556D02*
D03*
X32291Y566044D02*
D03*
Y571556D02*
D03*
Y618044D02*
D03*
Y623556D02*
D03*
Y582556D02*
D03*
Y577044D02*
D03*
Y633556D02*
D03*
Y628044D02*
D03*
X22291Y635556D02*
D03*
Y630044D02*
D03*
X109291Y489556D02*
D03*
Y484044D02*
D03*
X41291Y468044D02*
D03*
Y473556D02*
D03*
X106291Y468044D02*
D03*
Y473556D02*
D03*
X42291Y489556D02*
D03*
Y484044D02*
D03*
X652291Y312044D02*
D03*
Y317556D02*
D03*
X472291Y312044D02*
D03*
Y317556D02*
D03*
X611291Y458556D02*
D03*
Y453044D02*
D03*
X770291Y459556D02*
D03*
Y454044D02*
D03*
X52291Y339044D02*
D03*
Y344556D02*
D03*
X129426Y355254D02*
D03*
Y360766D02*
D03*
X134000Y457756D02*
D03*
Y452244D02*
D03*
X139291Y419044D02*
D03*
Y424556D02*
D03*
Y411556D02*
D03*
Y406044D02*
D03*
X138291Y390556D02*
D03*
Y385044D02*
D03*
X97291Y469556D02*
D03*
Y464044D02*
D03*
X139000Y457756D02*
D03*
Y452244D02*
D03*
X67291Y466556D02*
D03*
Y461044D02*
D03*
X115291Y351044D02*
D03*
Y356556D02*
D03*
X110375Y358556D02*
D03*
Y353044D02*
D03*
X105291Y353044D02*
D03*
Y358556D02*
D03*
X32291Y612556D02*
D03*
Y607044D02*
D03*
X80291Y466556D02*
D03*
Y461044D02*
D03*
X59291Y466556D02*
D03*
Y461044D02*
D03*
X32291Y560556D02*
D03*
Y555044D02*
D03*
X65291Y485288D02*
D03*
Y490800D02*
D03*
X131291Y484288D02*
D03*
Y489800D02*
D03*
X292291Y335556D02*
D03*
Y330044D02*
D03*
X379741Y82044D02*
D03*
Y87556D02*
D03*
X80291Y12044D02*
D03*
Y17556D02*
D03*
X68291Y12044D02*
D03*
Y17556D02*
D03*
X56291Y12044D02*
D03*
Y17556D02*
D03*
X44291Y12044D02*
D03*
Y17556D02*
D03*
X98809Y96465D02*
D03*
Y101977D02*
D03*
X98584Y145075D02*
D03*
Y150587D02*
D03*
X98059Y194446D02*
D03*
Y199958D02*
D03*
X98000Y46244D02*
D03*
Y51756D02*
D03*
Y252756D02*
D03*
Y247244D02*
D03*
X111291Y334556D02*
D03*
Y329044D02*
D03*
X79291Y342044D02*
D03*
Y347556D02*
D03*
X60291Y289288D02*
D03*
Y294800D02*
D03*
Y304800D02*
D03*
Y299288D02*
D03*
X249291Y442556D02*
D03*
Y437044D02*
D03*
X430291Y442556D02*
D03*
Y437044D02*
D03*
X196344Y83533D02*
D03*
Y78021D02*
D03*
D22*
X92756Y348000D02*
D03*
X87244D02*
D03*
X38047Y483800D02*
D03*
X32535D02*
D03*
X105047D02*
D03*
X99535D02*
D03*
X61756Y497000D02*
D03*
X56244D02*
D03*
X126047Y496800D02*
D03*
X120535D02*
D03*
X57045Y359472D02*
D03*
X62556D02*
D03*
X77323Y359139D02*
D03*
X82835D02*
D03*
X125047Y357800D02*
D03*
X119535D02*
D03*
X30535Y421800D02*
D03*
X36047D02*
D03*
X78047Y597800D02*
D03*
X72535D02*
D03*
X30535Y401800D02*
D03*
X36047D02*
D03*
X30535Y375800D02*
D03*
X36047D02*
D03*
X78047Y649800D02*
D03*
X72535D02*
D03*
X136756Y479000D02*
D03*
X131244D02*
D03*
X71756Y476000D02*
D03*
X66244D02*
D03*
X558693Y117375D02*
D03*
X564205D02*
D03*
X379488Y164000D02*
D03*
X385000D02*
D03*
X193244Y163000D02*
D03*
X198756D02*
D03*
X57045Y353800D02*
D03*
X62556D02*
D03*
X14047Y406800D02*
D03*
X8535D02*
D03*
X14047Y394800D02*
D03*
X8535D02*
D03*
X14047Y382800D02*
D03*
X8535D02*
D03*
X14047Y370800D02*
D03*
X8535D02*
D03*
X165779Y128800D02*
D03*
X171291D02*
D03*
X513827Y117174D02*
D03*
X519339D02*
D03*
X172901Y64021D02*
D03*
X178413D02*
D03*
X355229Y67800D02*
D03*
X360741D02*
D03*
X352259Y130373D02*
D03*
X357771D02*
D03*
D23*
X79000Y527729D02*
D03*
Y522729D02*
D03*
Y517729D02*
D03*
Y532729D02*
D03*
Y537729D02*
D03*
Y542729D02*
D03*
Y507729D02*
D03*
Y512729D02*
D03*
X44000Y542729D02*
D03*
Y507729D02*
D03*
Y512729D02*
D03*
Y517729D02*
D03*
Y522729D02*
D03*
Y537729D02*
D03*
Y532729D02*
D03*
Y527729D02*
D03*
D24*
X98000Y29300D02*
D03*
Y36700D02*
D03*
X98584Y126131D02*
D03*
Y133531D02*
D03*
X97927Y177433D02*
D03*
Y184833D02*
D03*
X98000Y238700D02*
D03*
Y231300D02*
D03*
X98809Y84921D02*
D03*
Y77521D02*
D03*
D25*
X439169Y479975D02*
D03*
Y445935D02*
D03*
Y431000D02*
D03*
X258291Y471800D02*
D03*
Y443617D02*
D03*
Y430800D02*
D03*
X267116Y345204D02*
D03*
Y330509D02*
D03*
X267291Y300800D02*
D03*
X267116Y314927D02*
D03*
X33238Y427675D02*
D03*
X33136Y453579D02*
D03*
X33291Y435800D02*
D03*
X33343Y444692D02*
D03*
X258291Y457531D02*
D03*
X439169Y460738D02*
D03*
X72291Y309800D02*
D03*
Y283800D02*
D03*
D26*
X572449Y104958D02*
D03*
Y116375D02*
D03*
X526583Y104756D02*
D03*
Y116174D02*
D03*
X0Y194709D02*
D03*
Y183291D02*
D03*
Y244709D02*
D03*
Y233291D02*
D03*
Y143709D02*
D03*
Y132291D02*
D03*
Y82291D02*
D03*
Y93709D02*
D03*
X-0Y43709D02*
D03*
Y32291D02*
D03*
D27*
X546416Y115796D02*
D03*
X553816D02*
D03*
X507820Y115595D02*
D03*
X500420D02*
D03*
D28*
X380932Y156129D02*
D03*
X392349D02*
D03*
X392449Y94800D02*
D03*
X381032D02*
D03*
X208549Y90777D02*
D03*
X197132D02*
D03*
X195323Y154800D02*
D03*
X206741D02*
D03*
X23291Y321000D02*
D03*
X34709D02*
D03*
D29*
X370032Y75804D02*
D03*
Y93796D02*
D03*
X186840Y72025D02*
D03*
Y90017D02*
D03*
X185032Y136808D02*
D03*
Y154800D02*
D03*
X370032Y155600D02*
D03*
Y137608D02*
D03*
D30*
X342552Y84800D02*
D03*
X159360Y81021D02*
D03*
X157552Y145804D02*
D03*
X342552Y146604D02*
D03*
D31*
X80291Y8146D02*
D03*
Y1453D02*
D03*
X68417Y6510D02*
D03*
Y-183D02*
D03*
X56291Y8146D02*
D03*
Y1453D02*
D03*
X44418Y6630D02*
D03*
Y-62D02*
D03*
D32*
X44291Y-4200D02*
D03*
X32291D02*
D03*
X89291Y337800D02*
D03*
Y327800D02*
D03*
Y317800D02*
D03*
Y300800D02*
D03*
X105291Y463800D02*
D03*
X113291D02*
D03*
X121291D02*
D03*
X89291Y569800D02*
D03*
Y577800D02*
D03*
Y585800D02*
D03*
Y621800D02*
D03*
Y629800D02*
D03*
Y637800D02*
D03*
X56291Y-4200D02*
D03*
X80291D02*
D03*
X68291D02*
D03*
D33*
X99839Y358301D02*
D03*
X94721D02*
D03*
X97280Y349443D02*
D03*
D34*
X67638Y283800D02*
D03*
X60945D02*
D03*
Y309800D02*
D03*
X67638D02*
D03*
X-4055Y406800D02*
D03*
X2638D02*
D03*
X-4055Y394800D02*
D03*
X2638D02*
D03*
Y382800D02*
D03*
X-4055D02*
D03*
X2638Y370800D02*
D03*
X-4055D02*
D03*
D35*
X72791Y347528D02*
D03*
X67791D02*
D03*
X62791D02*
D03*
X57791D02*
D03*
X72791Y326072D02*
D03*
X67791D02*
D03*
X62791D02*
D03*
X57791D02*
D03*
D36*
X45268Y376280D02*
D03*
Y378249D02*
D03*
Y380217D02*
D03*
Y382186D02*
D03*
Y384154D02*
D03*
Y386123D02*
D03*
Y388091D02*
D03*
Y390060D02*
D03*
Y392028D02*
D03*
Y393997D02*
D03*
Y395965D02*
D03*
Y397934D02*
D03*
Y399902D02*
D03*
Y401871D02*
D03*
Y403839D02*
D03*
Y405808D02*
D03*
Y407776D02*
D03*
Y409745D02*
D03*
Y411713D02*
D03*
Y413682D02*
D03*
Y415650D02*
D03*
Y417619D02*
D03*
Y419587D02*
D03*
Y421556D02*
D03*
Y423524D02*
D03*
Y425493D02*
D03*
Y427461D02*
D03*
Y429430D02*
D03*
Y431398D02*
D03*
Y433367D02*
D03*
Y435335D02*
D03*
Y437304D02*
D03*
Y439272D02*
D03*
Y441241D02*
D03*
Y443210D02*
D03*
Y445178D02*
D03*
X128732D02*
D03*
Y443210D02*
D03*
Y441241D02*
D03*
Y439272D02*
D03*
Y437304D02*
D03*
Y435335D02*
D03*
Y433367D02*
D03*
Y431398D02*
D03*
Y429430D02*
D03*
Y427461D02*
D03*
Y425493D02*
D03*
Y423524D02*
D03*
Y421556D02*
D03*
Y419587D02*
D03*
Y417619D02*
D03*
Y415650D02*
D03*
Y413682D02*
D03*
Y411713D02*
D03*
Y409745D02*
D03*
Y407776D02*
D03*
Y405808D02*
D03*
Y403839D02*
D03*
Y401871D02*
D03*
Y399902D02*
D03*
Y397934D02*
D03*
Y395965D02*
D03*
Y393997D02*
D03*
Y392028D02*
D03*
Y390060D02*
D03*
Y388091D02*
D03*
Y386123D02*
D03*
Y384154D02*
D03*
Y382186D02*
D03*
Y380217D02*
D03*
Y378249D02*
D03*
Y376280D02*
D03*
D37*
X52551Y452461D02*
D03*
X54520D02*
D03*
X56488D02*
D03*
X58457D02*
D03*
X60425D02*
D03*
X62394D02*
D03*
X64362D02*
D03*
X66331D02*
D03*
X68299D02*
D03*
X70268D02*
D03*
X72236D02*
D03*
X74205D02*
D03*
X76173D02*
D03*
X78142D02*
D03*
X80110D02*
D03*
X82079D02*
D03*
X84047D02*
D03*
X86016D02*
D03*
X87984D02*
D03*
X89953D02*
D03*
X91921D02*
D03*
X93890D02*
D03*
X95858D02*
D03*
X97827D02*
D03*
X99795D02*
D03*
X101764D02*
D03*
X103732D02*
D03*
X105701D02*
D03*
X107669D02*
D03*
X109638D02*
D03*
X111606D02*
D03*
X113575D02*
D03*
X115543D02*
D03*
X117512D02*
D03*
X119480D02*
D03*
X121449D02*
D03*
Y368997D02*
D03*
X119480D02*
D03*
X117512D02*
D03*
X115543D02*
D03*
X113575D02*
D03*
X111606D02*
D03*
X109638D02*
D03*
X107669D02*
D03*
X105701D02*
D03*
X103732D02*
D03*
X101764D02*
D03*
X99795D02*
D03*
X97827D02*
D03*
X95858D02*
D03*
X93890D02*
D03*
X91921D02*
D03*
X89953D02*
D03*
X87984D02*
D03*
X86016D02*
D03*
X84047D02*
D03*
X82079D02*
D03*
X80110D02*
D03*
X78142D02*
D03*
X76173D02*
D03*
X74205D02*
D03*
X72236D02*
D03*
X70268D02*
D03*
X68299D02*
D03*
X66331D02*
D03*
X64362D02*
D03*
X62394D02*
D03*
X60425D02*
D03*
X58457D02*
D03*
X56488D02*
D03*
X54520D02*
D03*
X52551D02*
D03*
D38*
X35606Y463060D02*
D03*
Y466800D02*
D03*
Y470540D02*
D03*
X24976Y463060D02*
D03*
Y466800D02*
D03*
Y470540D02*
D03*
D39*
X79760Y556729D02*
D03*
Y561729D02*
D03*
Y566729D02*
D03*
Y571729D02*
D03*
Y576729D02*
D03*
Y581729D02*
D03*
Y586729D02*
D03*
Y591729D02*
D03*
X42358Y556729D02*
D03*
Y561729D02*
D03*
Y566729D02*
D03*
Y571729D02*
D03*
Y576729D02*
D03*
Y581729D02*
D03*
Y586729D02*
D03*
Y591729D02*
D03*
X79760Y608729D02*
D03*
Y613729D02*
D03*
Y618729D02*
D03*
Y623729D02*
D03*
Y628729D02*
D03*
Y633729D02*
D03*
Y638729D02*
D03*
Y643729D02*
D03*
X42358Y608729D02*
D03*
Y613729D02*
D03*
Y618729D02*
D03*
Y623729D02*
D03*
Y628729D02*
D03*
Y633729D02*
D03*
Y638729D02*
D03*
Y643729D02*
D03*
D40*
X41032Y668115D02*
D03*
X37291D02*
D03*
X33551D02*
D03*
X41032Y657485D02*
D03*
X37291D02*
D03*
X33551D02*
D03*
X41032Y691115D02*
D03*
X37291D02*
D03*
X33551D02*
D03*
X41032Y680485D02*
D03*
X37291D02*
D03*
X33551D02*
D03*
X41032Y713115D02*
D03*
X37291D02*
D03*
X33551D02*
D03*
X41032Y702485D02*
D03*
X37291D02*
D03*
X33551D02*
D03*
D41*
X26244Y306000D02*
D03*
X1756D02*
D03*
X26244Y276000D02*
D03*
X1756D02*
D03*
D42*
X13124Y448800D02*
D03*
Y453800D02*
D03*
Y458800D02*
D03*
Y463800D02*
D03*
Y468800D02*
D03*
X-2231Y448800D02*
D03*
Y453800D02*
D03*
Y458800D02*
D03*
Y463800D02*
D03*
Y468800D02*
D03*
D43*
X113480Y472800D02*
D03*
X115449D02*
D03*
X117417D02*
D03*
X119386D02*
D03*
X121354D02*
D03*
X123323D02*
D03*
X125291D02*
D03*
X127260D02*
D03*
X113480Y490320D02*
D03*
X115449D02*
D03*
X117417D02*
D03*
X119386D02*
D03*
X121354D02*
D03*
X123323D02*
D03*
X125291D02*
D03*
X127260D02*
D03*
X46182Y473341D02*
D03*
X48150D02*
D03*
X50119D02*
D03*
X52087D02*
D03*
X54056D02*
D03*
X56024D02*
D03*
X57993D02*
D03*
X59961D02*
D03*
X46182Y490861D02*
D03*
X48150D02*
D03*
X50119D02*
D03*
X52087D02*
D03*
X54056D02*
D03*
X56024D02*
D03*
X57993D02*
D03*
X59961D02*
D03*
D82*
X198827Y163173D02*
X199000Y163000D01*
X79800Y239000D02*
X98000D01*
X61956Y252756D02*
X98000D01*
X54000Y244800D02*
X61956Y252756D01*
X94000Y243000D02*
X98000D01*
Y239000D02*
Y243000D01*
X74000Y195000D02*
X79000Y190000D01*
X93000D01*
X198827Y167030D02*
X198899Y167101D01*
X198756Y163000D02*
X199000D01*
X198827Y163173D02*
Y167030D01*
X198756Y163000D02*
X198797Y163041D01*
X198899Y167101D02*
X199000Y167000D01*
X193244Y157863D02*
Y163000D01*
Y157863D02*
X195323Y155784D01*
Y154800D02*
Y155784D01*
X98000Y243000D02*
X102000D01*
X97862Y199958D02*
X98059D01*
X96670Y201150D02*
X97862Y199958D01*
X54000Y195000D02*
X60150Y201150D01*
X96670D01*
X98809Y84921D02*
Y96465D01*
X54809Y94021D02*
X62765Y101977D01*
X98809D01*
X98000Y243000D02*
Y247244D01*
X61340Y150587D02*
X98584D01*
X54584Y143831D02*
X61340Y150587D01*
X60956Y51756D02*
X98000D01*
X54000Y44800D02*
X60956Y51756D01*
X98000Y42000D02*
Y46244D01*
Y36700D02*
Y42000D01*
X380403Y156658D02*
X380932Y156129D01*
X380063Y156998D02*
X380403Y156658D01*
X380063Y157982D02*
X380403Y157642D01*
X379373Y158672D02*
X380063Y157982D01*
X380403Y156658D02*
Y157642D01*
Y155600D02*
Y156658D01*
X380063Y157982D02*
Y163425D01*
Y156998D02*
Y157982D01*
X379488Y164000D02*
X380063Y163425D01*
X98000Y238700D02*
Y239000D01*
X74000Y244800D02*
X79800Y239000D01*
X381032Y88776D02*
Y94800D01*
X379812Y87556D02*
X381032Y88776D01*
X37000Y644000D02*
X37202Y643798D01*
X42289D02*
X42358Y643729D01*
X-2000Y469031D02*
Y472000D01*
X-2231Y468800D02*
X-2000Y469031D01*
X-9200Y463800D02*
X-2231D01*
X-9200Y458800D02*
X-2231D01*
X-3000Y444000D02*
Y448304D01*
X-2504Y448800D02*
X-2231D01*
X-3000Y448304D02*
X-2504Y448800D01*
X507820Y110410D02*
Y115595D01*
X513827Y116977D02*
Y117174D01*
Y110418D02*
Y116977D01*
X545428Y129902D02*
X552128D01*
X545428D02*
X545843Y129487D01*
Y116211D02*
Y129487D01*
X546001Y116211D02*
X546416Y115796D01*
X558693Y117375D02*
X558839Y117521D01*
X558682D02*
Y129756D01*
X558828Y129902D01*
X553816Y115796D02*
X554623Y116603D01*
X558118D01*
X558693Y117178D01*
Y117375D01*
X513827Y117174D02*
X513974Y117320D01*
X513682D02*
Y129756D01*
X513828Y129902D01*
X507820Y115595D02*
X512445D01*
X513827Y116977D01*
X379544Y82044D02*
X379741D01*
X375453Y77953D02*
X379544Y82044D01*
X372182Y77953D02*
X375453D01*
X370032Y75804D02*
X372182Y77953D01*
X352259Y130373D02*
Y136896D01*
X342552Y146604D02*
X352259Y136896D01*
X347742Y130373D02*
X352259D01*
X347425Y130056D02*
X347742Y130373D01*
X347425Y129900D02*
Y130056D01*
Y129900D02*
X347725Y129600D01*
X385000Y164000D02*
X388795D01*
X360741Y67800D02*
X368291D01*
X368291Y67800D01*
X370032Y155600D02*
X380403D01*
X380028Y93796D02*
X380386Y94154D01*
X379741Y87556D02*
X379812D01*
X370032Y93796D02*
X380028D01*
X354654Y68375D02*
X355229Y67800D01*
X354654Y68375D02*
Y71910D01*
X342552Y84013D02*
X354654Y71910D01*
X162725Y128800D02*
X165779D01*
X162425Y129100D02*
X162725Y128800D01*
X178413Y64021D02*
X182100D01*
X185032Y154800D02*
X195323D01*
X165779Y128800D02*
Y137576D01*
X157552Y145804D02*
X165779Y137576D01*
X186840Y90017D02*
X196372D01*
X196738Y90384D01*
X196344Y83533D02*
X196738Y83927D01*
Y90384D01*
X186840Y72025D02*
X189596D01*
X195018Y77447D01*
X195770D01*
X196344Y78021D01*
X178413Y64021D02*
Y64218D01*
X181935Y67740D02*
Y69876D01*
X184084Y72025D01*
X186840D01*
X172901Y64021D02*
Y64218D01*
X169777Y67342D02*
X172901Y64218D01*
X169777Y67342D02*
Y69817D01*
X159360Y80234D02*
X169777Y69817D01*
X2000Y603115D02*
X17165D01*
X22095Y608044D01*
X22291D01*
X2000Y640536D02*
X17114D01*
X22095Y635556D01*
X22291D01*
X770291Y459556D02*
Y464044D01*
D83*
X500278Y115595D02*
Y129752D01*
X10000Y353000D02*
X34650Y328350D01*
X2291Y353485D02*
X2674Y353102D01*
X4191Y353000D02*
X10000D01*
X2674Y353102D02*
X4088D01*
X4191Y353000D01*
X34650Y321059D02*
Y328350D01*
X1756Y306000D02*
X15713Y319957D01*
X23232D01*
X23291Y320016D01*
Y321000D01*
X15091D02*
X23291D01*
X2291Y333800D02*
X15091Y321000D01*
X34709Y314465D02*
Y321000D01*
X26244Y306000D02*
X34709Y314465D01*
X34650Y321059D02*
X34709Y321000D01*
X102520Y280425D02*
X196000D01*
Y448526D02*
X239800Y492326D01*
X196000Y280425D02*
Y448526D01*
Y280425D02*
X282520D01*
X335791Y173300D02*
X400291D01*
X316546Y192546D02*
X335791Y173300D01*
X400291D02*
X443689Y129902D01*
X24000Y233000D02*
Y244800D01*
Y195000D02*
Y233000D01*
X0Y233291D02*
X23709D01*
X24000Y233000D01*
Y183000D02*
Y195000D01*
Y143831D02*
Y183000D01*
X0Y183291D02*
X23709D01*
X24000Y183000D01*
X24696Y132000D02*
Y143719D01*
Y93909D02*
Y132000D01*
X0Y132291D02*
X24405D01*
X24696Y132000D01*
X24809Y82000D02*
Y94021D01*
Y45960D02*
Y82000D01*
X0Y82291D02*
X24517D01*
X24809Y82000D01*
X0Y32291D02*
X16291D01*
X23751Y39751D02*
Y44903D01*
X16291Y32291D02*
X23751Y39751D01*
Y92954D02*
Y93421D01*
X24103Y93772D01*
X24000Y143013D02*
Y143831D01*
X0Y93709D02*
X14496D01*
X59Y143768D02*
X14183D01*
X13466Y244754D02*
X13756Y245044D01*
X23751Y44903D02*
X24809Y45960D01*
X24000Y244800D02*
X24249Y245049D01*
Y274005D01*
X0Y143709D02*
X59Y143768D01*
X14183D02*
X14352Y143599D01*
X24103Y93772D02*
X24560D01*
X64000Y194648D02*
Y195000D01*
Y194648D02*
X66350Y192298D01*
Y191831D02*
Y192298D01*
Y191831D02*
X80749Y177433D01*
X80882Y126131D02*
X98584D01*
X64000Y143480D02*
Y143831D01*
Y143480D02*
X66350Y141129D01*
Y140663D02*
Y141129D01*
Y140663D02*
X80882Y126131D01*
X82282Y84921D02*
X98809D01*
X74000Y93669D02*
Y94021D01*
Y93669D02*
X76350Y91319D01*
Y90852D02*
Y91319D01*
Y90852D02*
X82282Y84921D01*
X24560Y93772D02*
X24696Y93909D01*
X-984Y93709D02*
X0D01*
X24584Y143831D02*
X24696Y143719D01*
X355994Y247994D02*
X361096Y242893D01*
X164690Y118000D02*
X174209Y127519D01*
X138084Y118000D02*
X164690D01*
X174209Y127519D02*
Y128741D01*
X98584Y126131D02*
X129953D01*
X138084Y118000D01*
X154673Y84921D02*
X159360Y80234D01*
X98809Y84921D02*
X154673D01*
X581000Y50000D02*
X668000Y137000D01*
X632000Y701000D02*
X668000Y665000D01*
Y137000D02*
Y665000D01*
X446000Y715000D02*
Y729000D01*
X456757Y739757D01*
X462926D02*
X463476Y740307D01*
X456757Y739757D02*
X462926D01*
X446000Y715000D02*
X460000Y701000D01*
X632000D01*
X290243Y739757D02*
X351000Y679000D01*
Y252989D02*
X355692Y248297D01*
X351000Y252989D02*
Y679000D01*
X284026Y739757D02*
X290243D01*
X283476Y740307D02*
X284026Y739757D01*
X103476Y740307D02*
X283476D01*
X355983Y247994D02*
X355994D01*
X355692Y248286D02*
Y248297D01*
Y248286D02*
X355983Y247994D01*
X463476Y740307D02*
X643476D01*
X581000Y32429D02*
X598999D01*
X489571D02*
X581000D01*
X643476Y720307D02*
X688000Y675783D01*
X463476Y720307D02*
X643476D01*
X688000Y52429D02*
Y675783D01*
X581000Y32429D02*
Y50000D01*
X598999Y32429D02*
X778999D01*
X598999Y52429D02*
X688000D01*
X778999D01*
X103476Y720307D02*
X283476D01*
X331086Y246000D02*
X332000D01*
X330800Y246286D02*
X331086Y246000D01*
X330800Y246286D02*
Y672983D01*
X283476Y720307D02*
X330800Y672983D01*
X76350Y41631D02*
X81282Y36700D01*
X98000D01*
X74000Y44448D02*
X76350Y42098D01*
X74000Y44448D02*
Y44800D01*
X76350Y41631D02*
Y42098D01*
X427200Y94800D02*
X489571Y32429D01*
X392449Y94800D02*
X427200D01*
X392408Y155086D02*
X393392D01*
X392349Y155145D02*
Y156129D01*
Y155145D02*
X392408Y155086D01*
X275539Y17000D02*
X342552Y84013D01*
X184076Y17000D02*
X275539D01*
X98000Y36700D02*
X164376D01*
X184076Y17000D01*
X174209Y128741D02*
X182276Y136808D01*
X185032D01*
X71700Y231300D02*
X98000D01*
X64249Y238751D02*
X71700Y231300D01*
X98000D02*
X98118D01*
X136872Y192546D01*
X316546D01*
X359112Y129443D02*
X367276Y137608D01*
X370032D01*
X359112Y127515D02*
Y129443D01*
X351597Y120000D02*
X359112Y127515D01*
X326000Y120000D02*
X351597D01*
X268567Y177433D02*
X326000Y120000D01*
X97927Y177433D02*
X268567D01*
X80749D02*
X97927D01*
X0Y43709D02*
X12557D01*
X13648Y44800D01*
X14000D01*
X14352Y143599D02*
X14584Y143831D01*
X0Y194709D02*
X59Y194768D01*
X13768D01*
X14000Y195000D01*
X0Y244709D02*
X46Y244754D01*
X13466D01*
X24249Y274005D02*
X26244Y276000D01*
X64249Y238751D02*
Y244551D01*
X64000Y244800D02*
X64249Y244551D01*
X13756Y245044D02*
Y264000D01*
X1756Y276000D02*
X13756Y264000D01*
X756Y275000D02*
X1756Y276000D01*
X419964Y492326D02*
X599964D01*
X239800D02*
X239964D01*
X462520Y280425D02*
X642520D01*
X520820Y117937D02*
X522524Y116233D01*
X526524D01*
X526583Y116174D01*
X520528Y117937D02*
Y129902D01*
X443689D02*
X500428D01*
X500278Y129752D02*
X500428Y129902D01*
X0Y143709D02*
X59Y143650D01*
D84*
X507728Y138352D02*
X510278Y140902D01*
X541642D02*
X544828Y137716D01*
X510278Y140902D02*
X541642D01*
X507728Y130502D02*
Y138352D01*
X544828Y130502D02*
Y137716D01*
X98000Y24000D02*
X101400D01*
X102000Y24600D01*
X97313Y23313D02*
X98000Y24000D01*
X94687Y23313D02*
X97313D01*
X101831Y138831D02*
X102000Y139000D01*
X98584Y138831D02*
X101831D01*
X93000Y190000D02*
X93072Y189927D01*
X97927D01*
X101927D02*
X102000Y190000D01*
X97927Y189927D02*
X101927D01*
X98809Y71221D02*
X102809D01*
X93809D02*
X98809D01*
Y77521D01*
X94584Y138432D02*
X98184D01*
X80002D02*
X94584D01*
X98059Y190059D02*
Y194446D01*
X97927Y189927D02*
X98059Y190059D01*
X97927Y184833D02*
Y189927D01*
X98000Y24000D02*
Y29300D01*
X74584Y143831D02*
X74603D01*
X80002Y138432D01*
X98184D02*
X98584Y138831D01*
Y145075D01*
Y133531D02*
Y138831D01*
X64000Y44800D02*
X79500Y29300D01*
X98000D01*
X564205Y117178D02*
Y117375D01*
Y117178D02*
X564280Y117103D01*
X571721D01*
X572449Y116375D01*
X565528Y117560D02*
Y129902D01*
X500428D02*
X507128D01*
X507728Y130502D01*
X544828D02*
X545428Y129902D01*
X558828D02*
Y164402D01*
D85*
X94855Y343007D02*
X95706D01*
X92756Y345106D02*
X94855Y343007D01*
X92756Y345106D02*
Y348000D01*
X74205Y365296D02*
Y367147D01*
Y365296D02*
X74533Y364968D01*
Y364774D02*
Y364968D01*
Y364774D02*
X75963Y363343D01*
X76848D02*
X77231Y362961D01*
X75963Y363343D02*
X76848D01*
X56599Y374259D02*
X59024Y376684D01*
X56599Y369108D02*
Y374259D01*
X56488Y368997D02*
X56599Y369108D01*
X31522Y414607D02*
X35996D01*
X36291Y414312D01*
X117512Y368997D02*
X117548Y369033D01*
Y376629D01*
X117583Y376665D01*
X138730Y400995D02*
X143186D01*
X138291Y400556D02*
X138730Y400995D01*
X22395Y673605D02*
X38519D01*
X14965Y681035D02*
X22395Y673605D01*
X12000Y681678D02*
X12643Y681035D01*
X14965D01*
X14810Y677190D02*
X23885Y668115D01*
X2780Y677190D02*
X14810D01*
X23885Y668115D02*
X33551D01*
X12000Y708607D02*
X18122Y702485D01*
X33551D01*
X20111Y697980D02*
X39471D01*
X14911Y703181D02*
X20111Y697980D01*
X39471D02*
X41032Y699540D01*
X15200Y685800D02*
X26045Y674955D01*
X2366Y685800D02*
X15200D01*
X26045Y674955D02*
X38759D01*
X12000Y690654D02*
X12346D01*
X22515Y680485D02*
X33551D01*
X12346Y690654D02*
X22515Y680485D01*
X43144Y541873D02*
X48144D01*
X37546Y507685D02*
X43814D01*
X43929Y507800D01*
X37389Y517799D02*
X43928D01*
X43929Y517800D01*
X42202Y618885D02*
X42358Y618729D01*
X36543Y618885D02*
X42202D01*
X35702Y618044D02*
X36543Y618885D01*
X32291Y618044D02*
X35702D01*
X41868Y624219D02*
X42358Y623729D01*
X36509Y624219D02*
X41868D01*
X32291Y623556D02*
X32954Y624219D01*
X36509D01*
X-4450Y703181D02*
X11169Y718800D01*
X-8000Y690654D02*
X-4450Y694204D01*
Y703181D01*
X1146Y699800D02*
X5291D01*
X-2578Y696076D02*
X1146Y699800D01*
X-2578Y687100D02*
Y696076D01*
X-8000Y681678D02*
X-2578Y687100D01*
X-8000Y672702D02*
X-7902Y672800D01*
X105731Y459240D02*
X107341Y457630D01*
X107669Y454312D02*
Y456162D01*
X107341Y456490D02*
X107669Y456162D01*
X107341Y456490D02*
Y457630D01*
X109486Y457939D02*
X109562Y457864D01*
Y452537D02*
Y457864D01*
Y452537D02*
X109638Y452461D01*
X105731Y459240D02*
Y459782D01*
X113575Y447635D02*
Y452461D01*
Y447635D02*
X114824Y446386D01*
Y446378D02*
Y446386D01*
X111474Y446394D02*
X111540Y446461D01*
Y452395D02*
X111606Y452461D01*
X111540Y446461D02*
Y452395D01*
X36291Y576800D02*
X36473Y576618D01*
Y575018D02*
Y576618D01*
Y575018D02*
X36741Y574750D01*
X32535Y576800D02*
X36291D01*
X33118Y581729D02*
X37291D01*
Y579800D02*
Y581729D01*
X32291Y577044D02*
X32535Y576800D01*
X2532Y572800D02*
X6082Y569250D01*
X2532Y563824D02*
X6509Y567800D01*
X-8000Y572800D02*
X2532D01*
X-8000Y563824D02*
X2532D01*
X6509Y567800D02*
X30468D01*
X30820Y567319D02*
X32094Y566044D01*
X30468Y567800D02*
X30820Y567449D01*
Y567319D02*
Y567449D01*
X12000Y699631D02*
X15001Y696630D01*
X38385D01*
X41032Y693984D01*
X11169Y718800D02*
X38588D01*
X40739Y716649D01*
Y713408D02*
Y716649D01*
X38519Y673605D02*
X40844Y671280D01*
X38759Y674955D02*
X40739Y676935D01*
X40844Y668302D02*
Y671280D01*
X40739Y676935D02*
Y680192D01*
X40844Y668302D02*
X41032Y668115D01*
Y691115D02*
Y693984D01*
Y699540D02*
Y702485D01*
X43929Y517800D02*
X44000Y517729D01*
X43929Y507800D02*
X44000Y507729D01*
X-7902Y672800D02*
X5291D01*
X8672Y703181D02*
X14911D01*
X5291Y672800D02*
X14886Y663205D01*
X36099D01*
X2390Y676800D02*
X2780Y677190D01*
X2000D02*
X2390Y676800D01*
X17976Y691115D02*
X33551D01*
X2000Y695143D02*
X13949D01*
X17976Y691115D01*
X2000Y686166D02*
X2366Y685800D01*
X40739Y680192D02*
X41032Y680485D01*
X2000Y668213D02*
X12728Y657485D01*
X33551D01*
X36099Y663205D02*
X41032Y658273D01*
Y657485D02*
Y658273D01*
X40739Y713408D02*
X41032Y713115D01*
X5291Y699800D02*
X8672Y703181D01*
X2000Y704119D02*
X10996Y713115D01*
X33551D01*
X37291Y581729D02*
X39322D01*
X32291Y582556D02*
X33118Y581729D01*
X36291Y576800D02*
X42287D01*
X42358Y576729D01*
X39322Y581729D02*
X42358D01*
X6161Y540523D02*
X33255D01*
X41049Y532729D01*
X44201Y549800D02*
X49641Y555241D01*
X15929Y549800D02*
X44201D01*
X15697Y551150D02*
X43641D01*
X48291Y555800D01*
X32976Y628729D02*
X47362D01*
X48291Y555800D02*
Y627800D01*
X29789Y569250D02*
X32094Y571556D01*
X32291D01*
X6082Y569250D02*
X29789D01*
X47362Y628729D02*
X48291Y627800D01*
X42358Y633729D02*
X44917D01*
X49641Y629005D01*
X132955Y386451D02*
X135291Y388787D01*
X132761Y386451D02*
X132955D01*
X132433Y386123D02*
X132761Y386451D01*
X135291Y388787D02*
Y392387D01*
X137016Y393769D02*
X138291Y395044D01*
X135291Y392387D02*
X136673Y393769D01*
X137016D01*
X32291Y633556D02*
X32465Y633729D01*
X42358D01*
X32291Y628044D02*
X32976Y628729D01*
X32465Y571729D02*
X39322D01*
X32291Y571556D02*
X32465Y571729D01*
X32976Y566729D02*
X42358D01*
X32291Y566044D02*
X32976Y566729D01*
X32094Y566044D02*
X32291D01*
X49641Y555241D02*
Y629005D01*
X12000Y554847D02*
X15697Y551150D01*
X12000Y545871D02*
X15929Y549800D01*
X2490Y541873D02*
X43144D01*
X44000Y542729D01*
X2000Y541383D02*
X2490Y541873D01*
X41049Y532729D02*
X44000D01*
X3438Y537800D02*
X6161Y540523D01*
X562Y537800D02*
X3438D01*
X2000Y546403D02*
Y550359D01*
X-1550Y542853D02*
X2000Y546403D01*
X-1550Y539912D02*
Y542853D01*
Y539912D02*
X562Y537800D01*
D86*
X41000Y473847D02*
X41291Y473556D01*
X41000Y473847D02*
Y478000D01*
X131291Y489800D02*
Y493709D01*
X41732Y473800D02*
X46136D01*
X41291Y468044D02*
X41535Y467800D01*
X48150D01*
X105882Y463800D02*
X106472D01*
X105291D02*
X105882D01*
X106472D02*
X109641Y460632D01*
X113460D01*
X115489Y458602D01*
Y452515D02*
Y458602D01*
X46182Y473754D02*
X46201Y473773D01*
X56005Y473360D02*
X56024Y473341D01*
X56005Y473360D02*
Y475953D01*
X106291Y468044D02*
X113286D01*
X115430Y470188D01*
Y472781D01*
X106291Y464210D02*
Y468044D01*
X105882Y463800D02*
X106291Y464210D01*
X73362Y623729D02*
X79760D01*
X67638Y283800D02*
X72291D01*
X111291Y472556D02*
X113434D01*
X74327Y586765D02*
X79724D01*
X73291Y638800D02*
X73327Y638765D01*
X72535Y639556D02*
Y649800D01*
Y639556D02*
X73291Y638800D01*
X72535Y588556D02*
X74291Y586800D01*
X65291Y490800D02*
X68291D01*
X108291Y472556D02*
X111291D01*
X113434D02*
X113480Y472602D01*
Y472800D01*
X115430Y472781D02*
X115449Y472800D01*
X115489Y452515D02*
X115543Y452461D01*
X45051Y485169D02*
X48131Y488249D01*
X43416Y485169D02*
X45051D01*
X48131Y490842D02*
X48150Y490861D01*
X48131Y488249D02*
Y490842D01*
X42291Y484044D02*
X43416Y485169D01*
X38291Y484044D02*
X42291D01*
X38047Y483800D02*
X38291Y484044D01*
X42291Y489556D02*
X43416Y490681D01*
X46136D01*
X46182Y490727D01*
Y490861D01*
X112891Y485169D02*
X115430Y487707D01*
X110416Y485169D02*
X112891D01*
X109291Y484044D02*
X110416Y485169D01*
X109047Y483800D02*
X109291Y484044D01*
X115430Y490301D02*
X115449Y490320D01*
X115430Y487707D02*
Y490301D01*
X109291Y489556D02*
X113434D01*
X113480Y489602D01*
Y490320D01*
X105047Y483800D02*
X109047D01*
X46136Y473800D02*
X46182Y473754D01*
X127306Y489800D02*
X131291D01*
X127260Y489846D02*
X127306Y489800D01*
X127260Y489846D02*
Y490320D01*
X60008Y490800D02*
X65291D01*
X59961Y490846D02*
Y490861D01*
Y490846D02*
X60008Y490800D01*
X79724Y586765D02*
X79760Y586729D01*
X74291Y586800D02*
X74327Y586765D01*
X72535Y588556D02*
Y597800D01*
X79724Y638765D02*
X79760Y638729D01*
X73327Y638765D02*
X79724D01*
D87*
X395223Y151873D02*
D03*
X575323Y100702D02*
D03*
X529457Y100501D02*
D03*
X209615Y150544D02*
D03*
X211423Y86521D02*
D03*
D88*
X361096Y242893D02*
D03*
X327096Y240893D02*
D03*
D89*
X536329Y187861D02*
D03*
D90*
X339939Y131400D02*
D03*
X154939Y130600D02*
D03*
D91*
X370032Y69349D02*
D03*
X186840Y65571D02*
D03*
D92*
X779964Y442326D02*
D03*
Y462326D02*
D03*
Y452326D02*
D03*
Y472326D02*
D03*
Y482326D02*
D03*
Y432326D02*
D03*
X599964Y442326D02*
D03*
Y462326D02*
D03*
Y452326D02*
D03*
Y472326D02*
D03*
Y482326D02*
D03*
Y432326D02*
D03*
X419964D02*
D03*
Y482326D02*
D03*
Y472326D02*
D03*
Y452326D02*
D03*
Y462326D02*
D03*
Y442326D02*
D03*
X642520Y330425D02*
D03*
Y310425D02*
D03*
Y320425D02*
D03*
Y300425D02*
D03*
Y290425D02*
D03*
Y340425D02*
D03*
X462520D02*
D03*
Y290425D02*
D03*
Y300425D02*
D03*
Y320425D02*
D03*
Y310425D02*
D03*
Y330425D02*
D03*
X239964Y442326D02*
D03*
Y462326D02*
D03*
Y452326D02*
D03*
Y472326D02*
D03*
Y482326D02*
D03*
Y432326D02*
D03*
X102520Y340425D02*
D03*
Y290425D02*
D03*
Y300425D02*
D03*
Y320425D02*
D03*
Y310425D02*
D03*
Y330425D02*
D03*
X282520D02*
D03*
Y310425D02*
D03*
Y320425D02*
D03*
Y300425D02*
D03*
Y290425D02*
D03*
Y340425D02*
D03*
X103476Y740307D02*
D03*
Y730307D02*
D03*
X238999Y42429D02*
D03*
Y32429D02*
D03*
X598999D02*
D03*
Y42429D02*
D03*
X643476Y730307D02*
D03*
Y740307D02*
D03*
X283476D02*
D03*
Y730307D02*
D03*
X418999Y42429D02*
D03*
Y32429D02*
D03*
X778999D02*
D03*
Y42429D02*
D03*
X463476Y730307D02*
D03*
Y740307D02*
D03*
X610964Y421326D02*
D03*
X620964D02*
D03*
X440964D02*
D03*
X430964D02*
D03*
Y352326D02*
D03*
X440964D02*
D03*
X620964D02*
D03*
X610964D02*
D03*
D93*
X779964Y492326D02*
D03*
X599964D02*
D03*
X419964D02*
D03*
X642520Y280425D02*
D03*
X462520D02*
D03*
X239964Y492326D02*
D03*
X102520Y280425D02*
D03*
X282520D02*
D03*
X103476Y720307D02*
D03*
X238999Y52429D02*
D03*
X598999D02*
D03*
X643476Y720307D02*
D03*
X283476D02*
D03*
X418999Y52429D02*
D03*
X778999D02*
D03*
X463476Y720307D02*
D03*
D94*
X14000Y143831D02*
D03*
Y94021D02*
D03*
Y195000D02*
D03*
Y44800D02*
D03*
Y244800D02*
D03*
D95*
X24000Y143831D02*
D03*
X34000D02*
D03*
X54000D02*
D03*
X64000D02*
D03*
X74000D02*
D03*
X84000D02*
D03*
Y94021D02*
D03*
X74000D02*
D03*
X64000D02*
D03*
X54000D02*
D03*
X34000D02*
D03*
X24000D02*
D03*
Y195000D02*
D03*
X34000D02*
D03*
X54000D02*
D03*
X64000D02*
D03*
X74000D02*
D03*
X84000D02*
D03*
Y44800D02*
D03*
X74000D02*
D03*
X64000D02*
D03*
X54000D02*
D03*
X34000D02*
D03*
X24000D02*
D03*
Y244800D02*
D03*
X34000D02*
D03*
X54000D02*
D03*
X64000D02*
D03*
X74000D02*
D03*
X84000D02*
D03*
D96*
X630964Y421326D02*
D03*
X450964D02*
D03*
Y352326D02*
D03*
X630964D02*
D03*
D97*
X2000Y603115D02*
D03*
Y504729D02*
D03*
Y640536D02*
D03*
Y738922D02*
D03*
D98*
Y532406D02*
D03*
Y541383D02*
D03*
Y550359D02*
D03*
Y559335D02*
D03*
Y568312D02*
D03*
X12000Y572800D02*
D03*
Y563824D02*
D03*
Y554847D02*
D03*
Y545871D02*
D03*
X-8000Y572800D02*
D03*
Y563824D02*
D03*
Y554847D02*
D03*
Y545871D02*
D03*
Y536895D02*
D03*
Y672702D02*
D03*
Y681678D02*
D03*
Y690654D02*
D03*
Y699631D02*
D03*
Y708607D02*
D03*
X12000Y681678D02*
D03*
Y690654D02*
D03*
Y699631D02*
D03*
Y708607D02*
D03*
X2000Y704119D02*
D03*
Y695143D02*
D03*
Y686166D02*
D03*
Y677190D02*
D03*
Y668213D02*
D03*
D99*
X11842Y536973D02*
D03*
Y672780D02*
D03*
D100*
X2291Y333800D02*
D03*
D101*
Y353485D02*
D03*
D102*
X180000Y385000D02*
D03*
X110000Y523800D02*
D03*
X412000Y772800D02*
D03*
X440000D02*
D03*
X592000D02*
D03*
X620000D02*
D03*
X444000Y385000D02*
D03*
X708000D02*
D03*
X650552Y-91D02*
D03*
X620000Y0D02*
D03*
X290552Y-91D02*
D03*
X264000Y0D02*
D03*
X0D02*
D03*
X772000Y772800D02*
D03*
X440000Y0D02*
D03*
X412552Y248909D02*
D03*
X772552D02*
D03*
X592552D02*
D03*
X232552D02*
D03*
X232000Y772800D02*
D03*
X264000D02*
D03*
X650000Y523800D02*
D03*
X470000D02*
D03*
X470552Y-91D02*
D03*
X110552D02*
D03*
X290000Y523800D02*
D03*
X-0Y772800D02*
D03*
D103*
X436170Y437594D02*
D03*
X39000Y435000D02*
D03*
X40002Y464419D02*
D03*
X73958Y358491D02*
D03*
X135241Y418200D02*
D03*
X144643Y428162D02*
D03*
X135169Y411483D02*
D03*
X95706Y343007D02*
D03*
X72692Y362081D02*
D03*
X66528Y359472D02*
D03*
X77231Y362961D02*
D03*
X59024Y376684D02*
D03*
X53451Y359347D02*
D03*
X54291Y347800D02*
D03*
X57291Y341800D02*
D03*
X31522Y414607D02*
D03*
X120527Y382647D02*
D03*
X117583Y376665D02*
D03*
X122713Y377199D02*
D03*
X143186Y400995D02*
D03*
X141453Y395656D02*
D03*
X81453Y597962D02*
D03*
X625921Y767041D02*
D03*
X613921Y779041D02*
D03*
X613421Y767541D02*
D03*
X625921Y779041D02*
D03*
X619921Y764541D02*
D03*
X628421Y773041D02*
D03*
X611421D02*
D03*
X619921Y781541D02*
D03*
X625921Y-5759D02*
D03*
X613921Y6241D02*
D03*
X613421Y-5259D02*
D03*
X625921Y6241D02*
D03*
X619921Y-8259D02*
D03*
X628421Y241D02*
D03*
X611421D02*
D03*
X619921Y8741D02*
D03*
X443922Y393741D02*
D03*
X435422Y385241D02*
D03*
X452422D02*
D03*
X443922Y376741D02*
D03*
X449922Y391241D02*
D03*
X437422Y379741D02*
D03*
X437921Y391241D02*
D03*
X449922Y379241D02*
D03*
X707922Y393741D02*
D03*
X699422Y385241D02*
D03*
X716422D02*
D03*
X707922Y376741D02*
D03*
X713921Y391241D02*
D03*
X701421Y379741D02*
D03*
X701922Y391241D02*
D03*
X713921Y379241D02*
D03*
X179921Y393741D02*
D03*
X171422Y385241D02*
D03*
X188421D02*
D03*
X179921Y376741D02*
D03*
X185922Y391241D02*
D03*
X173422Y379741D02*
D03*
X173922Y391241D02*
D03*
X185922Y379241D02*
D03*
X263921Y8741D02*
D03*
X255421Y241D02*
D03*
X272422D02*
D03*
X263921Y-8259D02*
D03*
X269921Y6241D02*
D03*
X257421Y-5259D02*
D03*
X257922Y6241D02*
D03*
X269921Y-5759D02*
D03*
X439922Y8741D02*
D03*
X431422Y241D02*
D03*
X448421D02*
D03*
X439922Y-8259D02*
D03*
X445922Y6241D02*
D03*
X433422Y-5259D02*
D03*
X433921Y6241D02*
D03*
X445922Y-5759D02*
D03*
X-78Y8741D02*
D03*
X-8579Y241D02*
D03*
X8422D02*
D03*
X-78Y-8259D02*
D03*
X5922Y6241D02*
D03*
X-6578Y-5259D02*
D03*
X-6078Y6241D02*
D03*
X5922Y-5759D02*
D03*
X439922Y781541D02*
D03*
X431422Y773041D02*
D03*
X448421D02*
D03*
X439922Y764541D02*
D03*
X445922Y779041D02*
D03*
X433422Y767541D02*
D03*
X433921Y779041D02*
D03*
X445922Y767041D02*
D03*
X263921Y781541D02*
D03*
X255421Y773041D02*
D03*
X272422D02*
D03*
X263921Y764541D02*
D03*
X269921Y779041D02*
D03*
X257421Y767541D02*
D03*
X257922Y779041D02*
D03*
X269921Y767041D02*
D03*
X5922D02*
D03*
X-6078Y779041D02*
D03*
X-6578Y767541D02*
D03*
X5922Y779041D02*
D03*
X-78Y764541D02*
D03*
X8422Y773041D02*
D03*
X-8579D02*
D03*
X-78Y781541D02*
D03*
X51650Y433647D02*
D03*
X71756Y479756D02*
D03*
X41000Y478000D02*
D03*
X63000Y476000D02*
D03*
X135000Y484000D02*
D03*
X130000Y473000D02*
D03*
X134000Y475000D02*
D03*
X131291Y493709D02*
D03*
X110480Y362988D02*
D03*
X133000Y356000D02*
D03*
Y361000D02*
D03*
X292552Y338757D02*
D03*
X54492Y446206D02*
D03*
X111349Y338771D02*
D03*
X-4152Y388741D02*
D03*
X37546Y507685D02*
D03*
X37389Y517799D02*
D03*
X36883Y608014D02*
D03*
X36781Y613415D02*
D03*
X36543Y618885D02*
D03*
X36509Y624219D02*
D03*
X52000Y430000D02*
D03*
X50000Y497000D02*
D03*
X72791Y321209D02*
D03*
X67791D02*
D03*
X62791D02*
D03*
X57791D02*
D03*
X101000Y349000D02*
D03*
X39700Y401871D02*
D03*
X98457Y460061D02*
D03*
X134000Y462000D02*
D03*
X129000Y448345D02*
D03*
X139000Y462000D02*
D03*
X98000Y243000D02*
D03*
X94000D02*
D03*
X72894Y-62D02*
D03*
X60291Y1800D02*
D03*
X48000Y1000D02*
D03*
X109800Y457939D02*
D03*
X111474Y446394D02*
D03*
X114824Y446378D02*
D03*
X105731Y459782D02*
D03*
X102000Y24600D02*
D03*
X98000Y24000D02*
D03*
X74237Y17854D02*
D03*
X94687Y23313D02*
D03*
X198899Y167101D02*
D03*
X102000Y139000D02*
D03*
X392349Y146129D02*
D03*
Y151129D02*
D03*
X397349Y146129D02*
D03*
Y151129D02*
D03*
Y156129D02*
D03*
X332000Y236000D02*
D03*
X356000Y246000D02*
D03*
Y241000D02*
D03*
Y236000D02*
D03*
X361000Y246000D02*
D03*
Y241000D02*
D03*
Y236000D02*
D03*
X366000Y246000D02*
D03*
Y241000D02*
D03*
Y236000D02*
D03*
X332000Y241000D02*
D03*
Y246000D02*
D03*
X327000Y236000D02*
D03*
Y241000D02*
D03*
Y246000D02*
D03*
X322000Y236000D02*
D03*
Y241000D02*
D03*
Y246000D02*
D03*
X102000Y243000D02*
D03*
X93000Y190000D02*
D03*
X102000D02*
D03*
X102809Y71221D02*
D03*
X93809D02*
D03*
X98809D02*
D03*
X94584Y138432D02*
D03*
X97927Y189927D02*
D03*
X98584Y138831D02*
D03*
X63000Y461000D02*
D03*
X55291Y467800D02*
D03*
X37341Y488537D02*
D03*
X121000Y478000D02*
D03*
X120000Y446000D02*
D03*
X111291Y472556D02*
D03*
X29000Y418000D02*
D03*
X33310Y418366D02*
D03*
X39418Y418905D02*
D03*
X85445Y953D02*
D03*
X110175Y349342D02*
D03*
X141556Y390556D02*
D03*
X115291Y347291D02*
D03*
X81094Y363003D02*
D03*
X85563Y362724D02*
D03*
X-4000Y411000D02*
D03*
Y403000D02*
D03*
X-4050Y378251D02*
D03*
X38791Y426139D02*
D03*
X36826Y560885D02*
D03*
X37081Y556119D02*
D03*
X36000Y592000D02*
D03*
X37000Y644000D02*
D03*
X37291Y653800D02*
D03*
X36741Y574750D02*
D03*
X37291Y579800D02*
D03*
X22000Y625000D02*
D03*
Y619000D02*
D03*
X-2000Y472000D02*
D03*
X-9200Y463800D02*
D03*
Y458800D02*
D03*
X-3000Y444000D02*
D03*
X570814Y185609D02*
D03*
X565814D02*
D03*
X560814D02*
D03*
X555814D02*
D03*
X550814D02*
D03*
X545814D02*
D03*
X570814Y190609D02*
D03*
X565814D02*
D03*
X560814D02*
D03*
X555814D02*
D03*
X550814D02*
D03*
X545814D02*
D03*
X501453Y190700D02*
D03*
X506453D02*
D03*
X511453D02*
D03*
X516453D02*
D03*
X521453D02*
D03*
X526453D02*
D03*
X501453Y185700D02*
D03*
X506453D02*
D03*
X511453D02*
D03*
X516453D02*
D03*
X521453D02*
D03*
X526453D02*
D03*
X507820Y110410D02*
D03*
X513827Y110418D02*
D03*
X332425Y132900D02*
D03*
Y129900D02*
D03*
X335425Y132900D02*
D03*
Y129900D02*
D03*
X347425D02*
D03*
Y132900D02*
D03*
X338425D02*
D03*
Y129900D02*
D03*
X344425D02*
D03*
X341425D02*
D03*
X344425Y132900D02*
D03*
X341425D02*
D03*
X388795Y164000D02*
D03*
X374291Y67800D02*
D03*
X371291D02*
D03*
X368291D02*
D03*
X374291Y70800D02*
D03*
X371291D02*
D03*
X368291D02*
D03*
X124047Y343044D02*
D03*
X253047Y437044D02*
D03*
X37070Y694280D02*
D03*
X37291Y705800D02*
D03*
Y716450D02*
D03*
X36951Y671165D02*
D03*
X37402Y677305D02*
D03*
X19524Y470103D02*
D03*
X78352Y458198D02*
D03*
X84081Y458779D02*
D03*
X96285Y473071D02*
D03*
X83941Y566729D02*
D03*
X102081Y487716D02*
D03*
X116659Y494800D02*
D03*
X135504Y426505D02*
D03*
X135786Y433413D02*
D03*
X135291Y421800D02*
D03*
X137119Y381535D02*
D03*
X134118Y384185D02*
D03*
X102273Y358247D02*
D03*
X86137Y374772D02*
D03*
X51741Y406971D02*
D03*
X51296Y403050D02*
D03*
X51599Y410690D02*
D03*
X38898Y431188D02*
D03*
X52291Y425800D02*
D03*
Y421800D02*
D03*
X156425Y132100D02*
D03*
X159425D02*
D03*
X156425Y129100D02*
D03*
X159425D02*
D03*
X153425D02*
D03*
Y132100D02*
D03*
X162425D02*
D03*
Y129100D02*
D03*
X150425D02*
D03*
Y132100D02*
D03*
X147425Y129100D02*
D03*
Y132100D02*
D03*
X185100Y67021D02*
D03*
X188100D02*
D03*
X191100D02*
D03*
X185100Y64021D02*
D03*
X188100D02*
D03*
X191100D02*
D03*
X56803Y299288D02*
D03*
X444806Y479975D02*
D03*
X211741Y149800D02*
D03*
X21291Y466550D02*
D03*
X45241Y447800D02*
D03*
X73362Y623729D02*
D03*
X74362Y571729D02*
D03*
X261291Y300800D02*
D03*
X264291Y471800D02*
D03*
X74291Y586800D02*
D03*
X74362Y581729D02*
D03*
X73291Y638800D02*
D03*
X73362Y633729D02*
D03*
X81291Y649800D02*
D03*
X68291Y490800D02*
D03*
Y485288D02*
D03*
X76535Y466556D02*
D03*
X101764Y446273D02*
D03*
X13291Y445800D02*
D03*
X51110Y417619D02*
D03*
X19291Y463800D02*
D03*
X82079Y374587D02*
D03*
X100416Y362800D02*
D03*
X51000Y388091D02*
D03*
X80110Y446981D02*
D03*
X122567Y423524D02*
D03*
X123331Y403839D02*
D03*
X111606Y376485D02*
D03*
X56803Y294800D02*
D03*
X84291Y300800D02*
D03*
X85039Y618729D02*
D03*
X32291Y-200D02*
D03*
X76291Y306800D02*
D03*
Y312800D02*
D03*
Y309800D02*
D03*
X40535Y17556D02*
D03*
X50535D02*
D03*
X62535D02*
D03*
X30535Y405556D02*
D03*
X135535Y406044D02*
D03*
X79291Y338800D02*
D03*
X122661Y429430D02*
D03*
X71047Y466556D02*
D03*
X57200Y443709D02*
D03*
X63047Y466556D02*
D03*
X30535Y372044D02*
D03*
X68291Y352800D02*
D03*
X39291Y375800D02*
D03*
X572449Y94958D02*
D03*
Y99958D02*
D03*
X577449Y94958D02*
D03*
Y99958D02*
D03*
Y104958D02*
D03*
X531583Y104756D02*
D03*
Y99756D02*
D03*
Y94757D02*
D03*
X526583Y99756D02*
D03*
Y94757D02*
D03*
X206741Y144800D02*
D03*
Y149800D02*
D03*
X211741Y144800D02*
D03*
Y154800D02*
D03*
X213549Y90777D02*
D03*
Y85777D02*
D03*
Y80777D02*
D03*
X208549Y85777D02*
D03*
Y80777D02*
D03*
M02*
