G04*
G04 #@! TF.GenerationSoftware,Altium Limited,Altium Designer,20.0.14 (345)*
G04*
G04 Layer_Physical_Order=4*
G04 Layer_Color=16711680*
%FSLAX25Y25*%
%MOIN*%
G70*
G01*
G75*
%ADD10C,0.01000*%
%ADD83C,0.05000*%
%ADD85C,0.00600*%
%ADD87R,0.12000X0.17000*%
%ADD92C,0.07874*%
%ADD93R,0.07874X0.07874*%
%ADD94R,0.06299X0.06299*%
%ADD95C,0.06299*%
%ADD96R,0.07874X0.07874*%
%ADD97C,0.19685*%
%ADD98C,0.05000*%
%ADD99R,0.05000X0.05000*%
%ADD100C,0.07000*%
%ADD101R,0.07000X0.07000*%
%ADD102C,0.21654*%
%ADD103C,0.02600*%
%ADD105R,0.16000X0.16000*%
G36*
X-3197Y785526D02*
X773260D01*
X773992Y784794D01*
X773843Y784301D01*
X773808Y784270D01*
X772000Y784413D01*
X770183Y784270D01*
X768411Y783844D01*
X766728Y783147D01*
X765174Y782195D01*
X763789Y781011D01*
X762605Y779626D01*
X761653Y778072D01*
X760956Y776389D01*
X760530Y774617D01*
X760387Y772800D01*
X760530Y770983D01*
X760956Y769211D01*
X761653Y767528D01*
X762605Y765974D01*
X763789Y764589D01*
X765174Y763405D01*
X766728Y762453D01*
X768411Y761756D01*
X770183Y761330D01*
X772000Y761187D01*
X773817Y761330D01*
X775588Y761756D01*
X777272Y762453D01*
X778826Y763405D01*
X780211Y764589D01*
X781395Y765974D01*
X782347Y767528D01*
X783044Y769211D01*
X783470Y770983D01*
X783612Y772800D01*
X783470Y774608D01*
X783500Y774643D01*
X783994Y774792D01*
X785526Y773260D01*
X785526Y-2434D01*
X775234Y-12725D01*
X-3173D01*
X-3243Y-12739D01*
X-5041Y-12562D01*
X-6837Y-12017D01*
X-8492Y-11133D01*
X-9942Y-9942D01*
X-11133Y-8492D01*
X-12017Y-6837D01*
X-12562Y-5041D01*
X-12739Y-3243D01*
X-12725Y-3173D01*
Y776064D01*
X-12735Y776111D01*
X-12562Y777864D01*
X-12017Y779660D01*
X-11133Y781315D01*
X-9942Y782766D01*
X-8492Y783956D01*
X-6837Y784841D01*
X-5041Y785386D01*
X-3338Y785554D01*
X-3197Y785526D01*
D02*
G37*
%LPC*%
G36*
X620000Y784413D02*
X618183Y784270D01*
X616411Y783844D01*
X614728Y783147D01*
X613174Y782195D01*
X611789Y781011D01*
X610605Y779626D01*
X609653Y778072D01*
X608956Y776389D01*
X608530Y774617D01*
X608387Y772800D01*
X608530Y770983D01*
X608956Y769211D01*
X609653Y767528D01*
X610605Y765974D01*
X611789Y764589D01*
X613174Y763405D01*
X614728Y762453D01*
X616411Y761756D01*
X618183Y761330D01*
X620000Y761187D01*
X621817Y761330D01*
X623589Y761756D01*
X625272Y762453D01*
X626826Y763405D01*
X628211Y764589D01*
X629395Y765974D01*
X630347Y767528D01*
X631044Y769211D01*
X631470Y770983D01*
X631613Y772800D01*
X631470Y774617D01*
X631044Y776389D01*
X630347Y778072D01*
X629395Y779626D01*
X628211Y781011D01*
X626826Y782195D01*
X625272Y783147D01*
X623589Y783844D01*
X621817Y784270D01*
X620000Y784413D01*
D02*
G37*
G36*
X592000D02*
X590183Y784270D01*
X588412Y783844D01*
X586728Y783147D01*
X585174Y782195D01*
X583789Y781011D01*
X582605Y779626D01*
X581653Y778072D01*
X580956Y776389D01*
X580530Y774617D01*
X580387Y772800D01*
X580530Y770983D01*
X580956Y769211D01*
X581653Y767528D01*
X582605Y765974D01*
X583789Y764589D01*
X585174Y763405D01*
X586728Y762453D01*
X588412Y761756D01*
X590183Y761330D01*
X592000Y761187D01*
X593817Y761330D01*
X595588Y761756D01*
X597272Y762453D01*
X598826Y763405D01*
X600211Y764589D01*
X601395Y765974D01*
X602347Y767528D01*
X603044Y769211D01*
X603470Y770983D01*
X603613Y772800D01*
X603470Y774617D01*
X603044Y776389D01*
X602347Y778072D01*
X601395Y779626D01*
X600211Y781011D01*
X598826Y782195D01*
X597272Y783147D01*
X595588Y783844D01*
X593817Y784270D01*
X592000Y784413D01*
D02*
G37*
G36*
X440000D02*
X438183Y784270D01*
X436412Y783844D01*
X434728Y783147D01*
X433174Y782195D01*
X431789Y781011D01*
X430605Y779626D01*
X429653Y778072D01*
X428956Y776389D01*
X428530Y774617D01*
X428387Y772800D01*
X428530Y770983D01*
X428956Y769211D01*
X429653Y767528D01*
X430605Y765974D01*
X431789Y764589D01*
X433174Y763405D01*
X434728Y762453D01*
X436412Y761756D01*
X438183Y761330D01*
X440000Y761187D01*
X441817Y761330D01*
X443588Y761756D01*
X445272Y762453D01*
X446826Y763405D01*
X448211Y764589D01*
X449395Y765974D01*
X450347Y767528D01*
X451044Y769211D01*
X451470Y770983D01*
X451613Y772800D01*
X451470Y774617D01*
X451044Y776389D01*
X450347Y778072D01*
X449395Y779626D01*
X448211Y781011D01*
X446826Y782195D01*
X445272Y783147D01*
X443588Y783844D01*
X441817Y784270D01*
X440000Y784413D01*
D02*
G37*
G36*
X412000D02*
X410183Y784270D01*
X408412Y783844D01*
X406728Y783147D01*
X405174Y782195D01*
X403789Y781011D01*
X402605Y779626D01*
X401653Y778072D01*
X400956Y776389D01*
X400530Y774617D01*
X400387Y772800D01*
X400530Y770983D01*
X400956Y769211D01*
X401653Y767528D01*
X402605Y765974D01*
X403789Y764589D01*
X405174Y763405D01*
X406728Y762453D01*
X408412Y761756D01*
X410183Y761330D01*
X412000Y761187D01*
X413817Y761330D01*
X415588Y761756D01*
X417272Y762453D01*
X418826Y763405D01*
X420211Y764589D01*
X421395Y765974D01*
X422347Y767528D01*
X423044Y769211D01*
X423470Y770983D01*
X423612Y772800D01*
X423470Y774617D01*
X423044Y776389D01*
X422347Y778072D01*
X421395Y779626D01*
X420211Y781011D01*
X418826Y782195D01*
X417272Y783147D01*
X415588Y783844D01*
X413817Y784270D01*
X412000Y784413D01*
D02*
G37*
G36*
X264000D02*
X262183Y784270D01*
X260412Y783844D01*
X258728Y783147D01*
X257174Y782195D01*
X255789Y781011D01*
X254605Y779626D01*
X253653Y778072D01*
X252956Y776389D01*
X252530Y774617D01*
X252387Y772800D01*
X252530Y770983D01*
X252956Y769211D01*
X253653Y767528D01*
X254605Y765974D01*
X255789Y764589D01*
X257174Y763405D01*
X258728Y762453D01*
X260412Y761756D01*
X262183Y761330D01*
X264000Y761187D01*
X265817Y761330D01*
X267588Y761756D01*
X269272Y762453D01*
X270826Y763405D01*
X272211Y764589D01*
X273395Y765974D01*
X274347Y767528D01*
X275044Y769211D01*
X275470Y770983D01*
X275612Y772800D01*
X275470Y774617D01*
X275044Y776389D01*
X274347Y778072D01*
X273395Y779626D01*
X272211Y781011D01*
X270826Y782195D01*
X269272Y783147D01*
X267588Y783844D01*
X265817Y784270D01*
X264000Y784413D01*
D02*
G37*
G36*
X232000D02*
X230183Y784270D01*
X228412Y783844D01*
X226728Y783147D01*
X225174Y782195D01*
X223789Y781011D01*
X222605Y779626D01*
X221653Y778072D01*
X220956Y776389D01*
X220530Y774617D01*
X220387Y772800D01*
X220530Y770983D01*
X220956Y769211D01*
X221653Y767528D01*
X222605Y765974D01*
X223789Y764589D01*
X225174Y763405D01*
X226728Y762453D01*
X228412Y761756D01*
X230183Y761330D01*
X232000Y761187D01*
X233817Y761330D01*
X235588Y761756D01*
X237272Y762453D01*
X238826Y763405D01*
X240211Y764589D01*
X241395Y765974D01*
X242347Y767528D01*
X243044Y769211D01*
X243470Y770983D01*
X243613Y772800D01*
X243470Y774617D01*
X243044Y776389D01*
X242347Y778072D01*
X241395Y779626D01*
X240211Y781011D01*
X238826Y782195D01*
X237272Y783147D01*
X235588Y783844D01*
X233817Y784270D01*
X232000Y784413D01*
D02*
G37*
G36*
X-0D02*
X-1817Y784270D01*
X-3588Y783844D01*
X-5272Y783147D01*
X-6826Y782195D01*
X-8211Y781011D01*
X-9395Y779626D01*
X-10347Y778072D01*
X-11044Y776389D01*
X-11470Y774617D01*
X-11613Y772800D01*
X-11470Y770983D01*
X-11044Y769211D01*
X-10347Y767528D01*
X-9395Y765974D01*
X-8211Y764589D01*
X-6826Y763405D01*
X-5272Y762453D01*
X-3588Y761756D01*
X-1817Y761330D01*
X-0Y761187D01*
X1817Y761330D01*
X3588Y761756D01*
X5272Y762453D01*
X6826Y763405D01*
X8211Y764589D01*
X9395Y765974D01*
X10347Y767528D01*
X11044Y769211D01*
X11470Y770983D01*
X11613Y772800D01*
X11470Y774617D01*
X11044Y776389D01*
X10347Y778072D01*
X9395Y779626D01*
X8211Y781011D01*
X6826Y782195D01*
X5272Y783147D01*
X3588Y783844D01*
X1817Y784270D01*
X-0Y784413D01*
D02*
G37*
G36*
X2000Y749547D02*
X338Y749416D01*
X-1283Y749027D01*
X-2824Y748389D01*
X-4245Y747518D01*
X-5513Y746435D01*
X-6596Y745167D01*
X-7467Y743746D01*
X-8105Y742205D01*
X-8495Y740584D01*
X-8625Y738922D01*
X-8495Y737260D01*
X-8105Y735639D01*
X-7467Y734098D01*
X-6596Y732677D01*
X-5513Y731409D01*
X-4245Y730326D01*
X-2824Y729455D01*
X-1283Y728817D01*
X338Y728428D01*
X2000Y728297D01*
X3662Y728428D01*
X5283Y728817D01*
X6824Y729455D01*
X8245Y730326D01*
X9513Y731409D01*
X10596Y732677D01*
X11467Y734098D01*
X12105Y735639D01*
X12494Y737260D01*
X12625Y738922D01*
X12494Y740584D01*
X12105Y742205D01*
X11467Y743746D01*
X10596Y745167D01*
X9513Y746435D01*
X8245Y747518D01*
X6824Y748389D01*
X5283Y749027D01*
X3662Y749416D01*
X2000Y749547D01*
D02*
G37*
G36*
X643476Y746273D02*
X642312Y746158D01*
X641193Y745819D01*
X640161Y745267D01*
X639257Y744525D01*
X638515Y743621D01*
X637964Y742590D01*
X637625Y741471D01*
X637510Y740307D01*
X637625Y739143D01*
X637964Y738024D01*
X638515Y736993D01*
X639257Y736089D01*
X640161Y735347D01*
X641003Y734897D01*
X641053Y734667D01*
X641042Y734379D01*
X641026Y734335D01*
X640133Y733650D01*
X639382Y732671D01*
X638909Y731531D01*
X638748Y730307D01*
X638909Y729083D01*
X639382Y727943D01*
X640133Y726964D01*
X640454Y726717D01*
X640294Y726244D01*
X637539D01*
Y714370D01*
X649413D01*
Y726244D01*
X646658D01*
X646497Y726717D01*
X646818Y726964D01*
X647570Y727943D01*
X648042Y729083D01*
X648203Y730307D01*
X648042Y731531D01*
X647570Y732671D01*
X646818Y733650D01*
X645926Y734335D01*
X645910Y734379D01*
X645898Y734667D01*
X645949Y734897D01*
X646790Y735347D01*
X647694Y736089D01*
X648436Y736993D01*
X648987Y738024D01*
X649327Y739143D01*
X649441Y740307D01*
X649327Y741471D01*
X648987Y742590D01*
X648436Y743621D01*
X647694Y744525D01*
X646790Y745267D01*
X645759Y745819D01*
X644639Y746158D01*
X643476Y746273D01*
D02*
G37*
G36*
X463476D02*
X462312Y746158D01*
X461193Y745819D01*
X460161Y745267D01*
X459257Y744525D01*
X458515Y743621D01*
X457964Y742590D01*
X457624Y741471D01*
X457510Y740307D01*
X457624Y739143D01*
X457964Y738024D01*
X458515Y736993D01*
X459257Y736089D01*
X460161Y735347D01*
X461002Y734897D01*
X461053Y734667D01*
X461042Y734379D01*
X461026Y734335D01*
X460133Y733650D01*
X459381Y732671D01*
X458909Y731531D01*
X458748Y730307D01*
X458909Y729083D01*
X459381Y727943D01*
X460133Y726964D01*
X460454Y726717D01*
X460294Y726244D01*
X457539D01*
Y714370D01*
X469413D01*
Y726244D01*
X466658D01*
X466497Y726717D01*
X466818Y726964D01*
X467570Y727943D01*
X468042Y729083D01*
X468203Y730307D01*
X468042Y731531D01*
X467570Y732671D01*
X466818Y733650D01*
X465926Y734335D01*
X465910Y734379D01*
X465898Y734667D01*
X465949Y734897D01*
X466790Y735347D01*
X467694Y736089D01*
X468436Y736993D01*
X468987Y738024D01*
X469327Y739143D01*
X469441Y740307D01*
X469327Y741471D01*
X468987Y742590D01*
X468436Y743621D01*
X467694Y744525D01*
X466790Y745267D01*
X465759Y745819D01*
X464640Y746158D01*
X463476Y746273D01*
D02*
G37*
G36*
X283476D02*
X282312Y746158D01*
X281193Y745819D01*
X280161Y745267D01*
X279257Y744525D01*
X278515Y743621D01*
X277964Y742590D01*
X277625Y741471D01*
X277510Y740307D01*
X277625Y739143D01*
X277964Y738024D01*
X278515Y736993D01*
X279257Y736089D01*
X280161Y735347D01*
X281002Y734897D01*
X281053Y734667D01*
X281042Y734379D01*
X281026Y734335D01*
X280133Y733650D01*
X279381Y732671D01*
X278909Y731531D01*
X278748Y730307D01*
X278909Y729083D01*
X279381Y727943D01*
X280133Y726964D01*
X280454Y726717D01*
X280294Y726244D01*
X277539D01*
Y714370D01*
X289413D01*
Y726244D01*
X286658D01*
X286497Y726717D01*
X286818Y726964D01*
X287570Y727943D01*
X288042Y729083D01*
X288203Y730307D01*
X288042Y731531D01*
X287570Y732671D01*
X286818Y733650D01*
X285926Y734335D01*
X285910Y734379D01*
X285898Y734667D01*
X285949Y734897D01*
X286790Y735347D01*
X287694Y736089D01*
X288436Y736993D01*
X288987Y738024D01*
X289327Y739143D01*
X289441Y740307D01*
X289327Y741471D01*
X288987Y742590D01*
X288436Y743621D01*
X287694Y744525D01*
X286790Y745267D01*
X285759Y745819D01*
X284640Y746158D01*
X283476Y746273D01*
D02*
G37*
G36*
X103476D02*
X102312Y746158D01*
X101193Y745819D01*
X100161Y745267D01*
X99257Y744525D01*
X98515Y743621D01*
X97964Y742590D01*
X97624Y741471D01*
X97510Y740307D01*
X97624Y739143D01*
X97964Y738024D01*
X98515Y736993D01*
X99257Y736089D01*
X100161Y735347D01*
X101003Y734897D01*
X101053Y734667D01*
X101042Y734379D01*
X101026Y734335D01*
X100133Y733650D01*
X99382Y732671D01*
X98909Y731531D01*
X98748Y730307D01*
X98909Y729083D01*
X99382Y727943D01*
X100133Y726964D01*
X100454Y726717D01*
X100294Y726244D01*
X97539D01*
Y714370D01*
X109413D01*
Y726244D01*
X106658D01*
X106497Y726717D01*
X106818Y726964D01*
X107570Y727943D01*
X108042Y729083D01*
X108203Y730307D01*
X108042Y731531D01*
X107570Y732671D01*
X106818Y733650D01*
X105926Y734335D01*
X105910Y734379D01*
X105898Y734667D01*
X105949Y734897D01*
X106790Y735347D01*
X107694Y736089D01*
X108436Y736993D01*
X108987Y738024D01*
X109327Y739143D01*
X109441Y740307D01*
X109327Y741471D01*
X108987Y742590D01*
X108436Y743621D01*
X107694Y744525D01*
X106790Y745267D01*
X105759Y745819D01*
X104639Y746158D01*
X103476Y746273D01*
D02*
G37*
G36*
X-8000Y711885D02*
X-8848Y711773D01*
X-9639Y711446D01*
X-10318Y710925D01*
X-10839Y710246D01*
X-11166Y709455D01*
X-11278Y708607D01*
X-11166Y707759D01*
X-10839Y706968D01*
X-10318Y706289D01*
X-9639Y705768D01*
X-8848Y705441D01*
X-8000Y705329D01*
X-7152Y705441D01*
X-6361Y705768D01*
X-5682Y706289D01*
X-5161Y706968D01*
X-4834Y707759D01*
X-4722Y708607D01*
X-4834Y709455D01*
X-5161Y710246D01*
X-5682Y710925D01*
X-6361Y711446D01*
X-7152Y711773D01*
X-8000Y711885D01*
D02*
G37*
G36*
X37291Y707890D02*
X36491Y707731D01*
X35813Y707278D01*
X35360Y706600D01*
X35201Y705800D01*
X35360Y705000D01*
X35813Y704322D01*
X36491Y703869D01*
X37291Y703710D01*
X38091Y703869D01*
X38769Y704322D01*
X39222Y705000D01*
X39382Y705800D01*
X39222Y706600D01*
X38769Y707278D01*
X38091Y707731D01*
X37291Y707890D01*
D02*
G37*
G36*
X2000Y707397D02*
X1152Y707285D01*
X361Y706958D01*
X-318Y706437D01*
X-839Y705758D01*
X-1166Y704967D01*
X-1278Y704119D01*
X-1166Y703270D01*
X-839Y702480D01*
X-318Y701801D01*
X361Y701280D01*
X1152Y700953D01*
X2000Y700841D01*
X2848Y700953D01*
X3639Y701280D01*
X4318Y701801D01*
X4839Y702480D01*
X5166Y703270D01*
X5278Y704119D01*
X5166Y704967D01*
X4839Y705758D01*
X4318Y706437D01*
X3639Y706958D01*
X2848Y707285D01*
X2000Y707397D01*
D02*
G37*
G36*
X12000Y711885D02*
X11152Y711773D01*
X10361Y711446D01*
X9682Y710925D01*
X9161Y710246D01*
X8834Y709455D01*
X8722Y708607D01*
X8834Y707759D01*
X9161Y706968D01*
X9682Y706289D01*
X10361Y705768D01*
X11152Y705441D01*
X12000Y705329D01*
X12848Y705441D01*
X13417Y705676D01*
X23221Y695872D01*
Y682092D01*
X22721Y681885D01*
X15059Y689546D01*
X15166Y689806D01*
X15278Y690654D01*
X15166Y691503D01*
X14839Y692293D01*
X14318Y692972D01*
X13639Y693493D01*
X12848Y693821D01*
X12000Y693932D01*
X11152Y693821D01*
X10361Y693493D01*
X9682Y692972D01*
X9161Y692293D01*
X8834Y691503D01*
X8362Y691609D01*
Y693357D01*
X11433Y696427D01*
X12000Y696353D01*
X12848Y696464D01*
X13639Y696792D01*
X14318Y697313D01*
X14839Y697992D01*
X15166Y698782D01*
X15278Y699631D01*
X15166Y700479D01*
X14839Y701270D01*
X14318Y701949D01*
X13639Y702470D01*
X12848Y702797D01*
X12000Y702909D01*
X11152Y702797D01*
X10361Y702470D01*
X9682Y701949D01*
X9161Y701270D01*
X8834Y700479D01*
X8722Y699631D01*
X8834Y698782D01*
X9161Y697992D01*
X9512Y697535D01*
X6534Y694557D01*
X6302Y694210D01*
X6221Y693800D01*
Y688800D01*
X6302Y688390D01*
X6534Y688043D01*
X9342Y685235D01*
X9342Y685235D01*
X9690Y685003D01*
X10092Y684923D01*
X10106Y684898D01*
X10237Y684421D01*
X9682Y683996D01*
X9161Y683317D01*
X8834Y682526D01*
X8722Y681678D01*
X8834Y680829D01*
X9161Y680039D01*
X9682Y679360D01*
X10361Y678839D01*
X11152Y678512D01*
X12000Y678400D01*
X12848Y678512D01*
X13417Y678747D01*
X15221Y676943D01*
Y676280D01*
X12843D01*
Y672780D01*
X11842D01*
Y671780D01*
X8343D01*
Y669879D01*
X7842Y669671D01*
X3825Y673689D01*
Y674494D01*
X4318Y674872D01*
X4839Y675551D01*
X5166Y676341D01*
X5278Y677190D01*
X5166Y678038D01*
X4839Y678829D01*
X4318Y679508D01*
X3639Y680029D01*
X2848Y680356D01*
X2000Y680468D01*
X1152Y680356D01*
X361Y680029D01*
X21Y679767D01*
X-479Y680014D01*
Y682173D01*
X583Y683235D01*
X1152Y683000D01*
X2000Y682888D01*
X2848Y683000D01*
X3639Y683327D01*
X4318Y683848D01*
X4839Y684527D01*
X5166Y685318D01*
X5278Y686166D01*
X5166Y687015D01*
X4839Y687805D01*
X4318Y688484D01*
X3639Y689005D01*
X2848Y689332D01*
X2000Y689444D01*
X1152Y689332D01*
X361Y689005D01*
X-318Y688484D01*
X-839Y687805D01*
X-1166Y687015D01*
X-1278Y686166D01*
X-1166Y685318D01*
X-931Y684749D01*
X-2138Y683542D01*
X-2638Y683749D01*
Y688990D01*
X583Y692212D01*
X1152Y691976D01*
X2000Y691864D01*
X2848Y691976D01*
X3639Y692304D01*
X4318Y692825D01*
X4839Y693504D01*
X5166Y694294D01*
X5278Y695143D01*
X5166Y695991D01*
X4839Y696781D01*
X4318Y697460D01*
X3639Y697981D01*
X2848Y698309D01*
X2000Y698421D01*
X1152Y698309D01*
X361Y697981D01*
X-318Y697460D01*
X-839Y696781D01*
X-1166Y695991D01*
X-1278Y695143D01*
X-1166Y694294D01*
X-931Y693726D01*
X-4250Y690406D01*
X-4724Y690640D01*
X-4722Y690654D01*
X-4834Y691503D01*
X-5161Y692293D01*
X-5682Y692972D01*
X-6361Y693493D01*
X-7152Y693821D01*
X-8000Y693932D01*
X-8848Y693821D01*
X-9639Y693493D01*
X-10318Y692972D01*
X-10839Y692293D01*
X-11166Y691503D01*
X-11278Y690654D01*
X-11166Y689806D01*
X-10839Y689015D01*
X-10318Y688336D01*
X-9639Y687816D01*
X-8848Y687488D01*
X-8000Y687376D01*
X-7152Y687488D01*
X-6361Y687816D01*
X-5682Y688336D01*
X-5279Y688861D01*
X-4779Y688692D01*
Y683641D01*
X-5279Y683471D01*
X-5682Y683996D01*
X-6361Y684517D01*
X-7152Y684844D01*
X-8000Y684956D01*
X-8848Y684844D01*
X-9639Y684517D01*
X-10318Y683996D01*
X-10839Y683317D01*
X-11166Y682526D01*
X-11278Y681678D01*
X-11166Y680829D01*
X-10839Y680039D01*
X-10318Y679360D01*
X-9639Y678839D01*
X-8848Y678512D01*
X-8000Y678400D01*
X-7152Y678512D01*
X-6361Y678839D01*
X-5682Y679360D01*
X-5279Y679885D01*
X-4779Y679715D01*
Y674664D01*
X-5279Y674495D01*
X-5682Y675020D01*
X-6361Y675540D01*
X-7152Y675868D01*
X-8000Y675980D01*
X-8848Y675868D01*
X-9639Y675540D01*
X-10318Y675020D01*
X-10839Y674341D01*
X-11166Y673550D01*
X-11278Y672702D01*
X-11166Y671853D01*
X-10839Y671063D01*
X-10318Y670384D01*
X-9639Y669863D01*
X-8848Y669535D01*
X-8000Y669423D01*
X-7152Y669535D01*
X-6361Y669863D01*
X-5682Y670384D01*
X-5279Y670909D01*
X-4779Y670739D01*
Y662800D01*
X-4698Y662390D01*
X-4466Y662043D01*
X7247Y650331D01*
X6935Y649935D01*
X6824Y650003D01*
X5283Y650641D01*
X3662Y651031D01*
X2000Y651161D01*
X338Y651031D01*
X-1283Y650641D01*
X-2824Y650003D01*
X-4245Y649132D01*
X-5513Y648049D01*
X-6596Y646782D01*
X-7467Y645360D01*
X-8105Y643820D01*
X-8495Y642198D01*
X-8625Y640536D01*
X-8495Y638874D01*
X-8105Y637253D01*
X-7467Y635712D01*
X-6596Y634291D01*
X-5513Y633023D01*
X-4245Y631940D01*
X-2824Y631069D01*
X-1283Y630431D01*
X338Y630042D01*
X2000Y629911D01*
X3662Y630042D01*
X5283Y630431D01*
X6824Y631069D01*
X8245Y631940D01*
X9513Y633023D01*
X10596Y634291D01*
X11467Y635712D01*
X12105Y637253D01*
X12494Y638874D01*
X12625Y640536D01*
X12494Y642198D01*
X12105Y643820D01*
X11467Y645360D01*
X11399Y645471D01*
X11795Y645783D01*
X23354Y634223D01*
Y627091D01*
X22913Y626856D01*
X22800Y626931D01*
X22000Y627090D01*
X21200Y626931D01*
X20522Y626478D01*
X20069Y625800D01*
X19910Y625000D01*
X20069Y624200D01*
X20522Y623522D01*
X21200Y623069D01*
X22000Y622910D01*
X22800Y623069D01*
X22913Y623144D01*
X23354Y622909D01*
Y621091D01*
X22913Y620856D01*
X22800Y620931D01*
X22000Y621090D01*
X21200Y620931D01*
X20522Y620478D01*
X20069Y619800D01*
X19910Y619000D01*
X20069Y618200D01*
X20522Y617522D01*
X21200Y617069D01*
X22000Y616910D01*
X22800Y617069D01*
X22913Y617144D01*
X23354Y616909D01*
Y468053D01*
X22854Y467901D01*
X22769Y468028D01*
X22091Y468481D01*
X21576Y468584D01*
X21332Y469119D01*
X21455Y469303D01*
X21614Y470103D01*
X21455Y470903D01*
X21002Y471581D01*
X20324Y472034D01*
X19524Y472193D01*
X18724Y472034D01*
X18046Y471581D01*
X17593Y470903D01*
X17434Y470103D01*
X17593Y469303D01*
X18046Y468625D01*
X18724Y468172D01*
X19240Y468070D01*
X19483Y467534D01*
X19360Y467350D01*
X19201Y466550D01*
X19326Y465924D01*
X19291Y465890D01*
X18491Y465731D01*
X17813Y465278D01*
X17360Y464600D01*
X17201Y463800D01*
X17360Y463000D01*
X17813Y462322D01*
X18491Y461869D01*
X19291Y461710D01*
X20091Y461869D01*
X20769Y462322D01*
X21222Y463000D01*
X21382Y463800D01*
X21257Y464426D01*
X21291Y464460D01*
X22091Y464619D01*
X22769Y465072D01*
X22854Y465199D01*
X23354Y465047D01*
Y430576D01*
X23435Y430166D01*
X23667Y429819D01*
X38078Y415409D01*
X38425Y415176D01*
X38835Y415095D01*
X49197D01*
X49607Y415176D01*
X49954Y415409D01*
X50264Y415719D01*
X50310Y415688D01*
X51110Y415529D01*
X51910Y415688D01*
X52588Y416141D01*
X53041Y416819D01*
X53200Y417619D01*
X53041Y418419D01*
X52588Y419097D01*
X52401Y419222D01*
X52507Y419753D01*
X53091Y419869D01*
X53769Y420322D01*
X54222Y421000D01*
X54382Y421800D01*
X54222Y422600D01*
X53769Y423278D01*
X53438Y423499D01*
Y424101D01*
X53769Y424322D01*
X54222Y425000D01*
X54382Y425800D01*
X54222Y426600D01*
X53769Y427278D01*
X53143Y427697D01*
X53079Y427966D01*
X53065Y428246D01*
X53478Y428522D01*
X53931Y429200D01*
X54090Y430000D01*
X53995Y430481D01*
X54757Y431243D01*
X54989Y431590D01*
X55071Y432000D01*
X55071Y432000D01*
Y435000D01*
X54989Y435410D01*
X54757Y435757D01*
X45284Y445230D01*
X45467Y445755D01*
X46041Y445869D01*
X46719Y446322D01*
X47172Y447000D01*
X47332Y447800D01*
X47172Y448600D01*
X46719Y449278D01*
X46041Y449731D01*
X45241Y449890D01*
X44441Y449731D01*
X43763Y449278D01*
X43310Y448600D01*
X43196Y448025D01*
X42672Y447842D01*
X35362Y455152D01*
Y486909D01*
X35862Y487061D01*
X35863Y487059D01*
X36541Y486606D01*
X37341Y486447D01*
X38141Y486606D01*
X38819Y487059D01*
X39272Y487737D01*
X39432Y488537D01*
X39272Y489337D01*
X38819Y490015D01*
X38141Y490468D01*
X37341Y490627D01*
X36541Y490468D01*
X35863Y490015D01*
X35862Y490013D01*
X35362Y490164D01*
Y497357D01*
X43048Y505043D01*
X43280Y505390D01*
X43362Y505800D01*
Y655800D01*
X43280Y656210D01*
X43048Y656557D01*
X43048Y656557D01*
X25362Y674243D01*
Y696316D01*
X25280Y696726D01*
X25048Y697073D01*
X14931Y707190D01*
X15166Y707759D01*
X15278Y708607D01*
X15166Y709455D01*
X14839Y710246D01*
X14318Y710925D01*
X13639Y711446D01*
X12848Y711773D01*
X12000Y711885D01*
D02*
G37*
G36*
X-8000Y702909D02*
X-8848Y702797D01*
X-9639Y702470D01*
X-10318Y701949D01*
X-10839Y701270D01*
X-11166Y700479D01*
X-11278Y699631D01*
X-11166Y698782D01*
X-10839Y697992D01*
X-10318Y697313D01*
X-9639Y696792D01*
X-8848Y696464D01*
X-8000Y696353D01*
X-7152Y696464D01*
X-6361Y696792D01*
X-5682Y697313D01*
X-5161Y697992D01*
X-4834Y698782D01*
X-4722Y699631D01*
X-4834Y700479D01*
X-5161Y701270D01*
X-5682Y701949D01*
X-6361Y702470D01*
X-7152Y702797D01*
X-8000Y702909D01*
D02*
G37*
G36*
X37402Y679395D02*
X36602Y679236D01*
X35924Y678783D01*
X35471Y678105D01*
X35312Y677305D01*
X35471Y676506D01*
X35924Y675827D01*
X36602Y675374D01*
X37402Y675215D01*
X38202Y675374D01*
X38880Y675827D01*
X39333Y676506D01*
X39492Y677305D01*
X39333Y678105D01*
X38880Y678783D01*
X38202Y679236D01*
X37402Y679395D01*
D02*
G37*
G36*
X10842Y676280D02*
X8343D01*
Y673780D01*
X10842D01*
Y676280D01*
D02*
G37*
G36*
X81291Y651890D02*
X80491Y651731D01*
X79813Y651278D01*
X79360Y650600D01*
X79201Y649800D01*
X79360Y649000D01*
X79813Y648322D01*
X80491Y647869D01*
X81291Y647710D01*
X82091Y647869D01*
X82769Y648322D01*
X83222Y649000D01*
X83381Y649800D01*
X83222Y650600D01*
X82769Y651278D01*
X82091Y651731D01*
X81291Y651890D01*
D02*
G37*
G36*
X73362Y635819D02*
X72562Y635660D01*
X71884Y635207D01*
X71431Y634529D01*
X71272Y633729D01*
X71431Y632929D01*
X71884Y632251D01*
X72562Y631798D01*
X73362Y631639D01*
X74162Y631798D01*
X74840Y632251D01*
X75293Y632929D01*
X75452Y633729D01*
X75293Y634529D01*
X74840Y635207D01*
X74162Y635660D01*
X73362Y635819D01*
D02*
G37*
G36*
X85039Y620819D02*
X84240Y620660D01*
X83561Y620207D01*
X83108Y619529D01*
X82949Y618729D01*
X83108Y617929D01*
X83561Y617251D01*
X84240Y616798D01*
X85039Y616639D01*
X85839Y616798D01*
X86517Y617251D01*
X86970Y617929D01*
X87129Y618729D01*
X86970Y619529D01*
X86517Y620207D01*
X85839Y620660D01*
X85039Y620819D01*
D02*
G37*
G36*
X81453Y600052D02*
X80653Y599893D01*
X79975Y599440D01*
X79522Y598762D01*
X79363Y597962D01*
X79522Y597162D01*
X79975Y596484D01*
X80653Y596031D01*
X81453Y595871D01*
X82253Y596031D01*
X82931Y596484D01*
X83384Y597162D01*
X83543Y597962D01*
X83384Y598762D01*
X82931Y599440D01*
X82253Y599893D01*
X81453Y600052D01*
D02*
G37*
G36*
X74362Y583819D02*
X73562Y583660D01*
X72884Y583207D01*
X72431Y582529D01*
X72272Y581729D01*
X72431Y580929D01*
X72884Y580251D01*
X73562Y579798D01*
X74362Y579639D01*
X75162Y579798D01*
X75840Y580251D01*
X76293Y580929D01*
X76452Y581729D01*
X76293Y582529D01*
X75840Y583207D01*
X75162Y583660D01*
X74362Y583819D01*
D02*
G37*
G36*
X12000Y576078D02*
X11152Y575966D01*
X10361Y575639D01*
X9682Y575118D01*
X9161Y574439D01*
X8834Y573648D01*
X8722Y572800D01*
X8834Y571952D01*
X9161Y571161D01*
X9682Y570482D01*
X10361Y569961D01*
X11152Y569634D01*
X12000Y569522D01*
X12848Y569634D01*
X13639Y569961D01*
X14318Y570482D01*
X14839Y571161D01*
X15166Y571952D01*
X15278Y572800D01*
X15166Y573648D01*
X14839Y574439D01*
X14318Y575118D01*
X13639Y575639D01*
X12848Y575966D01*
X12000Y576078D01*
D02*
G37*
G36*
X-8000D02*
X-8848Y575966D01*
X-9639Y575639D01*
X-10318Y575118D01*
X-10839Y574439D01*
X-11166Y573648D01*
X-11278Y572800D01*
X-11166Y571952D01*
X-10839Y571161D01*
X-10318Y570482D01*
X-9639Y569961D01*
X-8848Y569634D01*
X-8000Y569522D01*
X-7152Y569634D01*
X-6361Y569961D01*
X-5682Y570482D01*
X-5161Y571161D01*
X-4834Y571952D01*
X-4722Y572800D01*
X-4834Y573648D01*
X-5161Y574439D01*
X-5682Y575118D01*
X-6361Y575639D01*
X-7152Y575966D01*
X-8000Y576078D01*
D02*
G37*
G36*
X2000Y571590D02*
X1152Y571478D01*
X361Y571151D01*
X-318Y570630D01*
X-839Y569951D01*
X-1166Y569160D01*
X-1278Y568312D01*
X-1166Y567463D01*
X-839Y566673D01*
X-318Y565994D01*
X361Y565473D01*
X1152Y565145D01*
X2000Y565034D01*
X2848Y565145D01*
X3639Y565473D01*
X4318Y565994D01*
X4839Y566673D01*
X5166Y567463D01*
X5278Y568312D01*
X5166Y569160D01*
X4839Y569951D01*
X4318Y570630D01*
X3639Y571151D01*
X2848Y571478D01*
X2000Y571590D01*
D02*
G37*
G36*
X83941Y568819D02*
X83141Y568660D01*
X82463Y568207D01*
X82010Y567529D01*
X81851Y566729D01*
X82010Y565929D01*
X82463Y565251D01*
X83141Y564798D01*
X83941Y564639D01*
X84741Y564798D01*
X85419Y565251D01*
X85872Y565929D01*
X86032Y566729D01*
X85872Y567529D01*
X85419Y568207D01*
X84741Y568660D01*
X83941Y568819D01*
D02*
G37*
G36*
X12000Y567102D02*
X11152Y566990D01*
X10361Y566663D01*
X9682Y566142D01*
X9161Y565463D01*
X8834Y564672D01*
X8722Y563824D01*
X8834Y562975D01*
X9161Y562185D01*
X9682Y561506D01*
X10361Y560985D01*
X11152Y560657D01*
X12000Y560546D01*
X12848Y560657D01*
X13639Y560985D01*
X14318Y561506D01*
X14839Y562185D01*
X15166Y562975D01*
X15278Y563824D01*
X15166Y564672D01*
X14839Y565463D01*
X14318Y566142D01*
X13639Y566663D01*
X12848Y566990D01*
X12000Y567102D01*
D02*
G37*
G36*
X-8000D02*
X-8848Y566990D01*
X-9639Y566663D01*
X-10318Y566142D01*
X-10839Y565463D01*
X-11166Y564672D01*
X-11278Y563824D01*
X-11166Y562975D01*
X-10839Y562185D01*
X-10318Y561506D01*
X-9639Y560985D01*
X-8848Y560657D01*
X-8000Y560546D01*
X-7152Y560657D01*
X-6361Y560985D01*
X-5682Y561506D01*
X-5161Y562185D01*
X-4834Y562975D01*
X-4722Y563824D01*
X-4834Y564672D01*
X-5161Y565463D01*
X-5682Y566142D01*
X-6361Y566663D01*
X-7152Y566990D01*
X-8000Y567102D01*
D02*
G37*
G36*
X2000Y562613D02*
X1152Y562502D01*
X361Y562174D01*
X-318Y561653D01*
X-839Y560974D01*
X-1166Y560184D01*
X-1278Y559335D01*
X-1166Y558487D01*
X-839Y557696D01*
X-318Y557018D01*
X361Y556497D01*
X1152Y556169D01*
X2000Y556057D01*
X2848Y556169D01*
X3639Y556497D01*
X4318Y557018D01*
X4839Y557696D01*
X5166Y558487D01*
X5278Y559335D01*
X5166Y560184D01*
X4839Y560974D01*
X4318Y561653D01*
X3639Y562174D01*
X2848Y562502D01*
X2000Y562613D01*
D02*
G37*
G36*
X12000Y558125D02*
X11152Y558014D01*
X10361Y557686D01*
X9682Y557165D01*
X9161Y556486D01*
X8834Y555696D01*
X8722Y554847D01*
X8834Y553999D01*
X9161Y553208D01*
X9682Y552529D01*
X10361Y552008D01*
X11152Y551681D01*
X12000Y551569D01*
X12848Y551681D01*
X13639Y552008D01*
X14318Y552529D01*
X14839Y553208D01*
X15166Y553999D01*
X15278Y554847D01*
X15166Y555696D01*
X14839Y556486D01*
X14318Y557165D01*
X13639Y557686D01*
X12848Y558014D01*
X12000Y558125D01*
D02*
G37*
G36*
X-8000D02*
X-8848Y558014D01*
X-9639Y557686D01*
X-10318Y557165D01*
X-10839Y556486D01*
X-11166Y555696D01*
X-11278Y554847D01*
X-11166Y553999D01*
X-10839Y553208D01*
X-10318Y552529D01*
X-9639Y552008D01*
X-8848Y551681D01*
X-8000Y551569D01*
X-7152Y551681D01*
X-6361Y552008D01*
X-5682Y552529D01*
X-5161Y553208D01*
X-4834Y553999D01*
X-4722Y554847D01*
X-4834Y555696D01*
X-5161Y556486D01*
X-5682Y557165D01*
X-6361Y557686D01*
X-7152Y558014D01*
X-8000Y558125D01*
D02*
G37*
G36*
X2000Y553637D02*
X1152Y553525D01*
X361Y553198D01*
X-318Y552677D01*
X-839Y551998D01*
X-1166Y551207D01*
X-1278Y550359D01*
X-1166Y549511D01*
X-839Y548720D01*
X-318Y548041D01*
X361Y547520D01*
X1152Y547193D01*
X2000Y547081D01*
X2848Y547193D01*
X3639Y547520D01*
X4318Y548041D01*
X4839Y548720D01*
X5166Y549511D01*
X5278Y550359D01*
X5166Y551207D01*
X4839Y551998D01*
X4318Y552677D01*
X3639Y553198D01*
X2848Y553525D01*
X2000Y553637D01*
D02*
G37*
G36*
X12000Y549149D02*
X11152Y549037D01*
X10361Y548710D01*
X9682Y548189D01*
X9161Y547510D01*
X8834Y546719D01*
X8722Y545871D01*
X8834Y545022D01*
X9161Y544232D01*
X9682Y543553D01*
X10361Y543032D01*
X11152Y542704D01*
X12000Y542593D01*
X12848Y542704D01*
X13639Y543032D01*
X14318Y543553D01*
X14839Y544232D01*
X15166Y545022D01*
X15278Y545871D01*
X15166Y546719D01*
X14839Y547510D01*
X14318Y548189D01*
X13639Y548710D01*
X12848Y549037D01*
X12000Y549149D01*
D02*
G37*
G36*
X-8000D02*
X-8848Y549037D01*
X-9639Y548710D01*
X-10318Y548189D01*
X-10839Y547510D01*
X-11166Y546719D01*
X-11278Y545871D01*
X-11166Y545022D01*
X-10839Y544232D01*
X-10318Y543553D01*
X-9639Y543032D01*
X-8848Y542704D01*
X-8000Y542593D01*
X-7152Y542704D01*
X-6361Y543032D01*
X-5682Y543553D01*
X-5161Y544232D01*
X-4834Y545022D01*
X-4722Y545871D01*
X-4834Y546719D01*
X-5161Y547510D01*
X-5682Y548189D01*
X-6361Y548710D01*
X-7152Y549037D01*
X-8000Y549149D01*
D02*
G37*
G36*
X2000Y544661D02*
X1152Y544549D01*
X361Y544221D01*
X-318Y543701D01*
X-839Y543022D01*
X-1166Y542231D01*
X-1278Y541383D01*
X-1166Y540534D01*
X-839Y539744D01*
X-318Y539065D01*
X361Y538544D01*
X1152Y538216D01*
X2000Y538105D01*
X2848Y538216D01*
X3639Y538544D01*
X4318Y539065D01*
X4839Y539744D01*
X5166Y540534D01*
X5278Y541383D01*
X5166Y542231D01*
X4839Y543022D01*
X4318Y543701D01*
X3639Y544221D01*
X2848Y544549D01*
X2000Y544661D01*
D02*
G37*
G36*
X15092Y540223D02*
X8592D01*
Y533723D01*
X15092D01*
Y540223D01*
D02*
G37*
G36*
X-8000Y540172D02*
X-8848Y540061D01*
X-9639Y539733D01*
X-10318Y539212D01*
X-10839Y538533D01*
X-11166Y537743D01*
X-11278Y536895D01*
X-11166Y536046D01*
X-10839Y535255D01*
X-10318Y534577D01*
X-9639Y534056D01*
X-8848Y533728D01*
X-8000Y533616D01*
X-7152Y533728D01*
X-6361Y534056D01*
X-5682Y534577D01*
X-5161Y535255D01*
X-4834Y536046D01*
X-4722Y536895D01*
X-4834Y537743D01*
X-5161Y538533D01*
X-5682Y539212D01*
X-6361Y539733D01*
X-7152Y540061D01*
X-8000Y540172D01*
D02*
G37*
G36*
X2000Y535684D02*
X1152Y535573D01*
X361Y535245D01*
X-318Y534724D01*
X-839Y534045D01*
X-1166Y533255D01*
X-1278Y532406D01*
X-1166Y531558D01*
X-839Y530767D01*
X-318Y530088D01*
X361Y529567D01*
X1152Y529240D01*
X2000Y529128D01*
X2848Y529240D01*
X3639Y529567D01*
X4318Y530088D01*
X4839Y530767D01*
X5166Y531558D01*
X5278Y532406D01*
X5166Y533255D01*
X4839Y534045D01*
X4318Y534724D01*
X3639Y535245D01*
X2848Y535573D01*
X2000Y535684D01*
D02*
G37*
G36*
Y613740D02*
X338Y613609D01*
X-1283Y613220D01*
X-2824Y612582D01*
X-4245Y611711D01*
X-5513Y610628D01*
X-6596Y609360D01*
X-7467Y607939D01*
X-8105Y606398D01*
X-8495Y604777D01*
X-8625Y603115D01*
X-8495Y601453D01*
X-8105Y599832D01*
X-7467Y598291D01*
X-6596Y596870D01*
X-5513Y595602D01*
X-4245Y594519D01*
X-2824Y593648D01*
X-1283Y593010D01*
X338Y592621D01*
X2000Y592490D01*
X3662Y592621D01*
X4534Y592830D01*
X16132Y581232D01*
Y523497D01*
X6828Y514193D01*
X6824Y514196D01*
X5283Y514834D01*
X3662Y515224D01*
X2000Y515354D01*
X338Y515224D01*
X-1283Y514834D01*
X-2824Y514196D01*
X-4245Y513325D01*
X-5513Y512242D01*
X-6596Y510975D01*
X-7467Y509553D01*
X-8105Y508012D01*
X-8495Y506391D01*
X-8625Y504729D01*
X-8495Y503067D01*
X-8105Y501446D01*
X-7467Y499905D01*
X-6596Y498484D01*
X-5513Y497216D01*
X-4245Y496133D01*
X-2824Y495262D01*
X-1283Y494624D01*
X338Y494235D01*
X2000Y494104D01*
X3662Y494235D01*
X5283Y494624D01*
X6824Y495262D01*
X8245Y496133D01*
X9513Y497216D01*
X10596Y498484D01*
X11467Y499905D01*
X12105Y501446D01*
X12494Y503067D01*
X12625Y504729D01*
X12494Y506391D01*
X12105Y508012D01*
X11467Y509553D01*
X11464Y509558D01*
X21728Y519821D01*
X22249Y520500D01*
X22576Y521290D01*
X22688Y522139D01*
Y582590D01*
X22632Y583014D01*
X22576Y583439D01*
X22249Y584229D01*
X21728Y584908D01*
X10214Y596422D01*
X10596Y596870D01*
X11467Y598291D01*
X12105Y599832D01*
X12494Y601453D01*
X12625Y603115D01*
X12494Y604777D01*
X12105Y606398D01*
X11467Y607939D01*
X10596Y609360D01*
X9513Y610628D01*
X8245Y611711D01*
X6824Y612582D01*
X5283Y613220D01*
X3662Y613609D01*
X2000Y613740D01*
D02*
G37*
G36*
X650000Y535413D02*
X648183Y535270D01*
X646412Y534844D01*
X644728Y534147D01*
X643174Y533195D01*
X641789Y532011D01*
X640605Y530626D01*
X639653Y529072D01*
X638956Y527388D01*
X638530Y525617D01*
X638387Y523800D01*
X638530Y521983D01*
X638956Y520212D01*
X639653Y518528D01*
X640605Y516974D01*
X641789Y515589D01*
X643174Y514405D01*
X644728Y513453D01*
X646412Y512756D01*
X648183Y512330D01*
X650000Y512187D01*
X651817Y512330D01*
X653588Y512756D01*
X655272Y513453D01*
X656826Y514405D01*
X658211Y515589D01*
X659395Y516974D01*
X660347Y518528D01*
X661044Y520212D01*
X661470Y521983D01*
X661613Y523800D01*
X661470Y525617D01*
X661044Y527388D01*
X660347Y529072D01*
X659395Y530626D01*
X658211Y532011D01*
X656826Y533195D01*
X655272Y534147D01*
X653588Y534844D01*
X651817Y535270D01*
X650000Y535413D01*
D02*
G37*
G36*
X470000D02*
X468183Y535270D01*
X466411Y534844D01*
X464728Y534147D01*
X463174Y533195D01*
X461789Y532011D01*
X460605Y530626D01*
X459653Y529072D01*
X458956Y527388D01*
X458530Y525617D01*
X458387Y523800D01*
X458530Y521983D01*
X458956Y520212D01*
X459653Y518528D01*
X460605Y516974D01*
X461789Y515589D01*
X463174Y514405D01*
X464728Y513453D01*
X466411Y512756D01*
X468183Y512330D01*
X470000Y512187D01*
X471817Y512330D01*
X473588Y512756D01*
X475272Y513453D01*
X476826Y514405D01*
X478211Y515589D01*
X479395Y516974D01*
X480347Y518528D01*
X481044Y520212D01*
X481470Y521983D01*
X481612Y523800D01*
X481470Y525617D01*
X481044Y527388D01*
X480347Y529072D01*
X479395Y530626D01*
X478211Y532011D01*
X476826Y533195D01*
X475272Y534147D01*
X473588Y534844D01*
X471817Y535270D01*
X470000Y535413D01*
D02*
G37*
G36*
X290000D02*
X288183Y535270D01*
X286411Y534844D01*
X284728Y534147D01*
X283174Y533195D01*
X281789Y532011D01*
X280605Y530626D01*
X279653Y529072D01*
X278956Y527388D01*
X278530Y525617D01*
X278387Y523800D01*
X278530Y521983D01*
X278956Y520212D01*
X279653Y518528D01*
X280605Y516974D01*
X281789Y515589D01*
X283174Y514405D01*
X284728Y513453D01*
X286411Y512756D01*
X288183Y512330D01*
X290000Y512187D01*
X291817Y512330D01*
X293588Y512756D01*
X295272Y513453D01*
X296826Y514405D01*
X298211Y515589D01*
X299395Y516974D01*
X300347Y518528D01*
X301044Y520212D01*
X301470Y521983D01*
X301612Y523800D01*
X301470Y525617D01*
X301044Y527388D01*
X300347Y529072D01*
X299395Y530626D01*
X298211Y532011D01*
X296826Y533195D01*
X295272Y534147D01*
X293588Y534844D01*
X291817Y535270D01*
X290000Y535413D01*
D02*
G37*
G36*
X110000D02*
X108183Y535270D01*
X106412Y534844D01*
X104728Y534147D01*
X103174Y533195D01*
X101789Y532011D01*
X100605Y530626D01*
X99653Y529072D01*
X98956Y527388D01*
X98530Y525617D01*
X98387Y523800D01*
X98530Y521983D01*
X98956Y520212D01*
X99653Y518528D01*
X100605Y516974D01*
X101789Y515589D01*
X103174Y514405D01*
X104728Y513453D01*
X106412Y512756D01*
X108183Y512330D01*
X110000Y512187D01*
X111817Y512330D01*
X113588Y512756D01*
X115272Y513453D01*
X116826Y514405D01*
X118211Y515589D01*
X119395Y516974D01*
X120347Y518528D01*
X121044Y520212D01*
X121470Y521983D01*
X121613Y523800D01*
X121470Y525617D01*
X121044Y527388D01*
X120347Y529072D01*
X119395Y530626D01*
X118211Y532011D01*
X116826Y533195D01*
X115272Y534147D01*
X113588Y534844D01*
X111817Y535270D01*
X110000Y535413D01*
D02*
G37*
G36*
X784651Y497013D02*
X775277D01*
Y495604D01*
X604651D01*
Y497013D01*
X595277D01*
Y487639D01*
X598666D01*
X598698Y487139D01*
X598675Y487136D01*
X597474Y486639D01*
X596443Y485847D01*
X595651Y484816D01*
X595154Y483615D01*
X595116Y483326D01*
X599964D01*
X604812D01*
X604774Y483615D01*
X604276Y484816D01*
X603485Y485847D01*
X602454Y486639D01*
X601253Y487136D01*
X601229Y487139D01*
X601262Y487639D01*
X604651D01*
Y489048D01*
X775277D01*
Y487639D01*
X778666D01*
X778698Y487139D01*
X778675Y487136D01*
X777474Y486639D01*
X776443Y485847D01*
X775652Y484816D01*
X775154Y483615D01*
X775116Y483326D01*
X779964D01*
X784812D01*
X784774Y483615D01*
X784276Y484816D01*
X783485Y485847D01*
X782454Y486639D01*
X781253Y487136D01*
X781229Y487139D01*
X781262Y487639D01*
X784651D01*
Y497013D01*
D02*
G37*
G36*
X424651D02*
X415277D01*
Y495604D01*
X244651D01*
Y497013D01*
X235277D01*
Y487639D01*
X238666D01*
X238698Y487139D01*
X238675Y487136D01*
X237474Y486639D01*
X236443Y485847D01*
X235651Y484816D01*
X235154Y483615D01*
X235116Y483326D01*
X239964D01*
X244812D01*
X244774Y483615D01*
X244276Y484816D01*
X243485Y485847D01*
X242454Y486639D01*
X241253Y487136D01*
X241230Y487139D01*
X241262Y487639D01*
X244651D01*
Y489048D01*
X415277D01*
Y487639D01*
X418666D01*
X418698Y487139D01*
X418675Y487136D01*
X417474Y486639D01*
X416443Y485847D01*
X415652Y484816D01*
X415154Y483615D01*
X415116Y483326D01*
X419964D01*
X424812D01*
X424774Y483615D01*
X424276Y484816D01*
X423485Y485847D01*
X422454Y486639D01*
X421253Y487136D01*
X421230Y487139D01*
X421262Y487639D01*
X424651D01*
Y497013D01*
D02*
G37*
G36*
X50000Y499090D02*
X49200Y498931D01*
X48522Y498478D01*
X48069Y497800D01*
X47910Y497000D01*
X48069Y496200D01*
X48522Y495522D01*
X49200Y495069D01*
X50000Y494910D01*
X50800Y495069D01*
X51478Y495522D01*
X51931Y496200D01*
X52090Y497000D01*
X51931Y497800D01*
X51478Y498478D01*
X50800Y498931D01*
X50000Y499090D01*
D02*
G37*
G36*
X116659Y496890D02*
X115859Y496731D01*
X115181Y496278D01*
X114728Y495600D01*
X114569Y494800D01*
X114728Y494000D01*
X115181Y493322D01*
X115859Y492869D01*
X116659Y492710D01*
X117459Y492869D01*
X118137Y493322D01*
X118590Y494000D01*
X118749Y494800D01*
X118590Y495600D01*
X118137Y496278D01*
X117459Y496731D01*
X116659Y496890D01*
D02*
G37*
G36*
X131291Y495799D02*
X130491Y495640D01*
X129813Y495187D01*
X129360Y494509D01*
X129201Y493709D01*
X129360Y492909D01*
X129813Y492231D01*
X130491Y491778D01*
X131291Y491618D01*
X132091Y491778D01*
X132769Y492231D01*
X133222Y492909D01*
X133381Y493709D01*
X133222Y494509D01*
X132769Y495187D01*
X132091Y495640D01*
X131291Y495799D01*
D02*
G37*
G36*
X68291Y492890D02*
X67491Y492731D01*
X66813Y492278D01*
X66360Y491600D01*
X66201Y490800D01*
X66360Y490000D01*
X66813Y489322D01*
X67491Y488869D01*
X68291Y488710D01*
X69091Y488869D01*
X69769Y489322D01*
X70222Y490000D01*
X70381Y490800D01*
X70222Y491600D01*
X69769Y492278D01*
X69091Y492731D01*
X68291Y492890D01*
D02*
G37*
G36*
X102081Y489806D02*
X101281Y489647D01*
X100603Y489194D01*
X100150Y488516D01*
X99991Y487716D01*
X100150Y486916D01*
X100603Y486238D01*
X101281Y485785D01*
X102081Y485626D01*
X102881Y485785D01*
X103559Y486238D01*
X104012Y486916D01*
X104171Y487716D01*
X104012Y488516D01*
X103559Y489194D01*
X102881Y489647D01*
X102081Y489806D01*
D02*
G37*
G36*
X68291Y487378D02*
X67491Y487219D01*
X66813Y486766D01*
X66360Y486088D01*
X66201Y485288D01*
X66360Y484488D01*
X66813Y483810D01*
X67491Y483357D01*
X68291Y483198D01*
X69091Y483357D01*
X69769Y483810D01*
X70222Y484488D01*
X70381Y485288D01*
X70222Y486088D01*
X69769Y486766D01*
X69091Y487219D01*
X68291Y487378D01*
D02*
G37*
G36*
X135000Y486090D02*
X134200Y485931D01*
X133522Y485478D01*
X133069Y484800D01*
X132910Y484000D01*
X133069Y483200D01*
X133522Y482522D01*
X134200Y482069D01*
X135000Y481910D01*
X135800Y482069D01*
X136478Y482522D01*
X136931Y483200D01*
X137090Y484000D01*
X136931Y484800D01*
X136478Y485478D01*
X135800Y485931D01*
X135000Y486090D01*
D02*
G37*
G36*
X444806Y482065D02*
X444006Y481906D01*
X443328Y481453D01*
X442875Y480775D01*
X442716Y479975D01*
X442875Y479175D01*
X443328Y478497D01*
X444006Y478044D01*
X444806Y477885D01*
X445606Y478044D01*
X446284Y478497D01*
X446737Y479175D01*
X446897Y479975D01*
X446737Y480775D01*
X446284Y481453D01*
X445606Y481906D01*
X444806Y482065D01*
D02*
G37*
G36*
X71756Y481846D02*
X70956Y481687D01*
X70278Y481234D01*
X69825Y480556D01*
X69666Y479756D01*
X69825Y478956D01*
X70278Y478278D01*
X70956Y477825D01*
X71756Y477666D01*
X72556Y477825D01*
X73234Y478278D01*
X73687Y478956D01*
X73846Y479756D01*
X73687Y480556D01*
X73234Y481234D01*
X72556Y481687D01*
X71756Y481846D01*
D02*
G37*
G36*
X121000Y480090D02*
X120200Y479931D01*
X119522Y479478D01*
X119069Y478800D01*
X118910Y478000D01*
X119069Y477200D01*
X119522Y476522D01*
X120200Y476069D01*
X121000Y475910D01*
X121800Y476069D01*
X122478Y476522D01*
X122931Y477200D01*
X123090Y478000D01*
X122931Y478800D01*
X122478Y479478D01*
X121800Y479931D01*
X121000Y480090D01*
D02*
G37*
G36*
X96285Y475161D02*
X95486Y475002D01*
X94807Y474549D01*
X94354Y473871D01*
X94195Y473071D01*
X94354Y472271D01*
X94807Y471593D01*
X95486Y471140D01*
X96285Y470981D01*
X97085Y471140D01*
X97763Y471593D01*
X98216Y472271D01*
X98375Y473071D01*
X98216Y473871D01*
X97763Y474549D01*
X97085Y475002D01*
X96285Y475161D01*
D02*
G37*
G36*
X130000Y475090D02*
X129200Y474931D01*
X128522Y474478D01*
X128069Y473800D01*
X127910Y473000D01*
X128069Y472200D01*
X128522Y471522D01*
X129200Y471069D01*
X130000Y470910D01*
X130800Y471069D01*
X131478Y471522D01*
X131931Y472200D01*
X132090Y473000D01*
X131931Y473800D01*
X131478Y474478D01*
X130800Y474931D01*
X130000Y475090D01*
D02*
G37*
G36*
X264291Y473890D02*
X263491Y473731D01*
X262813Y473278D01*
X262360Y472600D01*
X262201Y471800D01*
X262360Y471000D01*
X262813Y470322D01*
X263491Y469869D01*
X264291Y469710D01*
X265091Y469869D01*
X265769Y470322D01*
X266222Y471000D01*
X266382Y471800D01*
X266222Y472600D01*
X265769Y473278D01*
X265091Y473731D01*
X264291Y473890D01*
D02*
G37*
G36*
X784812Y481326D02*
X779964D01*
X775116D01*
X775154Y481038D01*
X775652Y479837D01*
X776443Y478805D01*
X777474Y478014D01*
X778675Y477516D01*
X779161Y477452D01*
Y476948D01*
X778740Y476893D01*
X777600Y476420D01*
X776621Y475669D01*
X775870Y474690D01*
X775398Y473550D01*
X775237Y472326D01*
X775398Y471103D01*
X775870Y469963D01*
X776621Y468984D01*
X777600Y468232D01*
X778740Y467760D01*
X779964Y467599D01*
X781187Y467760D01*
X782328Y468232D01*
X783307Y468984D01*
X784058Y469963D01*
X784530Y471103D01*
X784691Y472326D01*
X784530Y473550D01*
X784058Y474690D01*
X783307Y475669D01*
X782328Y476420D01*
X781187Y476893D01*
X780767Y476948D01*
Y477452D01*
X781253Y477516D01*
X782454Y478014D01*
X783485Y478805D01*
X784276Y479837D01*
X784774Y481038D01*
X784812Y481326D01*
D02*
G37*
G36*
X604812D02*
X599964D01*
X595116D01*
X595154Y481038D01*
X595651Y479837D01*
X596443Y478805D01*
X597474Y478014D01*
X598675Y477516D01*
X599161Y477452D01*
Y476948D01*
X598740Y476893D01*
X597600Y476420D01*
X596621Y475669D01*
X595870Y474690D01*
X595398Y473550D01*
X595236Y472326D01*
X595398Y471103D01*
X595870Y469963D01*
X596621Y468984D01*
X597600Y468232D01*
X598740Y467760D01*
X599964Y467599D01*
X601188Y467760D01*
X602328Y468232D01*
X603307Y468984D01*
X604058Y469963D01*
X604530Y471103D01*
X604691Y472326D01*
X604530Y473550D01*
X604058Y474690D01*
X603307Y475669D01*
X602328Y476420D01*
X601188Y476893D01*
X600767Y476948D01*
Y477452D01*
X601253Y477516D01*
X602454Y478014D01*
X603485Y478805D01*
X604276Y479837D01*
X604774Y481038D01*
X604812Y481326D01*
D02*
G37*
G36*
X424812Y481326D02*
X419964D01*
X415116D01*
X415154Y481038D01*
X415652Y479837D01*
X416443Y478805D01*
X417474Y478014D01*
X418675Y477516D01*
X419161Y477452D01*
Y476948D01*
X418740Y476893D01*
X417600Y476420D01*
X416621Y475669D01*
X415870Y474690D01*
X415398Y473550D01*
X415237Y472326D01*
X415398Y471103D01*
X415870Y469963D01*
X416621Y468984D01*
X417600Y468232D01*
X418740Y467760D01*
X419964Y467599D01*
X421187Y467760D01*
X422328Y468232D01*
X423307Y468984D01*
X424058Y469963D01*
X424530Y471103D01*
X424691Y472326D01*
X424530Y473550D01*
X424058Y474690D01*
X423307Y475669D01*
X422328Y476420D01*
X421187Y476893D01*
X420767Y476948D01*
Y477452D01*
X421253Y477516D01*
X422454Y478014D01*
X423485Y478805D01*
X424276Y479837D01*
X424774Y481038D01*
X424812Y481326D01*
D02*
G37*
G36*
X244812D02*
X239964D01*
X235116D01*
X235154Y481038D01*
X235651Y479837D01*
X236443Y478805D01*
X237474Y478014D01*
X238675Y477516D01*
X239161Y477452D01*
Y476948D01*
X238740Y476893D01*
X237600Y476420D01*
X236621Y475669D01*
X235870Y474690D01*
X235398Y473550D01*
X235237Y472326D01*
X235398Y471103D01*
X235870Y469963D01*
X236621Y468984D01*
X237600Y468232D01*
X238740Y467760D01*
X239964Y467599D01*
X241188Y467760D01*
X242328Y468232D01*
X243307Y468984D01*
X244058Y469963D01*
X244530Y471103D01*
X244691Y472326D01*
X244530Y473550D01*
X244058Y474690D01*
X243307Y475669D01*
X242328Y476420D01*
X241188Y476893D01*
X240767Y476948D01*
Y477452D01*
X241253Y477516D01*
X242454Y478014D01*
X243485Y478805D01*
X244276Y479837D01*
X244774Y481038D01*
X244812Y481326D01*
D02*
G37*
G36*
X55291Y469890D02*
X54491Y469731D01*
X53813Y469278D01*
X53360Y468600D01*
X53201Y467800D01*
X53360Y467000D01*
X53813Y466322D01*
X54491Y465869D01*
X55291Y465710D01*
X56091Y465869D01*
X56769Y466322D01*
X57222Y467000D01*
X57381Y467800D01*
X57222Y468600D01*
X56769Y469278D01*
X56091Y469731D01*
X55291Y469890D01*
D02*
G37*
G36*
X76535Y468646D02*
X75735Y468487D01*
X75057Y468034D01*
X74604Y467356D01*
X74445Y466556D01*
X74604Y465756D01*
X75057Y465078D01*
X75735Y464625D01*
X76535Y464466D01*
X77335Y464625D01*
X78013Y465078D01*
X78466Y465756D01*
X78626Y466556D01*
X78466Y467356D01*
X78013Y468034D01*
X77335Y468487D01*
X76535Y468646D01*
D02*
G37*
G36*
X71047D02*
X70247Y468487D01*
X69569Y468034D01*
X69116Y467356D01*
X68957Y466556D01*
X69116Y465756D01*
X69569Y465078D01*
X70247Y464625D01*
X71047Y464466D01*
X71847Y464625D01*
X72525Y465078D01*
X72978Y465756D01*
X73137Y466556D01*
X72978Y467356D01*
X72525Y468034D01*
X71847Y468487D01*
X71047Y468646D01*
D02*
G37*
G36*
X63047D02*
X62247Y468487D01*
X61569Y468034D01*
X61116Y467356D01*
X60957Y466556D01*
X61116Y465756D01*
X61569Y465078D01*
X62247Y464625D01*
X63047Y464466D01*
X63847Y464625D01*
X64525Y465078D01*
X64978Y465756D01*
X65137Y466556D01*
X64978Y467356D01*
X64525Y468034D01*
X63847Y468487D01*
X63047Y468646D01*
D02*
G37*
G36*
X-9200Y465890D02*
X-10000Y465731D01*
X-10678Y465278D01*
X-11131Y464600D01*
X-11290Y463800D01*
X-11131Y463000D01*
X-10678Y462322D01*
X-10000Y461869D01*
X-9200Y461710D01*
X-8400Y461869D01*
X-7722Y462322D01*
X-7269Y463000D01*
X-7110Y463800D01*
X-7269Y464600D01*
X-7722Y465278D01*
X-8400Y465731D01*
X-9200Y465890D01*
D02*
G37*
G36*
X139000Y464090D02*
X138200Y463931D01*
X137522Y463478D01*
X137069Y462800D01*
X136910Y462000D01*
X137069Y461200D01*
X137522Y460522D01*
X138200Y460069D01*
X139000Y459910D01*
X139800Y460069D01*
X140478Y460522D01*
X140931Y461200D01*
X141090Y462000D01*
X140931Y462800D01*
X140478Y463478D01*
X139800Y463931D01*
X139000Y464090D01*
D02*
G37*
G36*
X134000D02*
X133200Y463931D01*
X132522Y463478D01*
X132069Y462800D01*
X131910Y462000D01*
X132069Y461200D01*
X132522Y460522D01*
X133200Y460069D01*
X134000Y459910D01*
X134800Y460069D01*
X135478Y460522D01*
X135931Y461200D01*
X136090Y462000D01*
X135931Y462800D01*
X135478Y463478D01*
X134800Y463931D01*
X134000Y464090D01*
D02*
G37*
G36*
X779964Y467054D02*
X778740Y466893D01*
X777600Y466420D01*
X776621Y465669D01*
X775870Y464690D01*
X775398Y463550D01*
X775237Y462326D01*
X775398Y461103D01*
X775870Y459963D01*
X776621Y458984D01*
X777600Y458232D01*
X778740Y457760D01*
X779964Y457599D01*
X781187Y457760D01*
X782328Y458232D01*
X783307Y458984D01*
X784058Y459963D01*
X784530Y461103D01*
X784691Y462326D01*
X784530Y463550D01*
X784058Y464690D01*
X783307Y465669D01*
X782328Y466420D01*
X781187Y466893D01*
X779964Y467054D01*
D02*
G37*
G36*
X599964D02*
X598740Y466893D01*
X597600Y466420D01*
X596621Y465669D01*
X595870Y464690D01*
X595398Y463550D01*
X595236Y462326D01*
X595398Y461103D01*
X595870Y459963D01*
X596621Y458984D01*
X597600Y458232D01*
X598740Y457760D01*
X599964Y457599D01*
X601188Y457760D01*
X602328Y458232D01*
X603307Y458984D01*
X604058Y459963D01*
X604530Y461103D01*
X604691Y462326D01*
X604530Y463550D01*
X604058Y464690D01*
X603307Y465669D01*
X602328Y466420D01*
X601188Y466893D01*
X599964Y467054D01*
D02*
G37*
G36*
X419964D02*
X418740Y466893D01*
X417600Y466420D01*
X416621Y465669D01*
X415870Y464690D01*
X415398Y463550D01*
X415237Y462326D01*
X415398Y461103D01*
X415870Y459963D01*
X416621Y458984D01*
X417600Y458232D01*
X418740Y457760D01*
X419964Y457599D01*
X421187Y457760D01*
X422328Y458232D01*
X423307Y458984D01*
X424058Y459963D01*
X424530Y461103D01*
X424691Y462326D01*
X424530Y463550D01*
X424058Y464690D01*
X423307Y465669D01*
X422328Y466420D01*
X421187Y466893D01*
X419964Y467054D01*
D02*
G37*
G36*
X-9200Y460890D02*
X-10000Y460731D01*
X-10678Y460278D01*
X-11131Y459600D01*
X-11290Y458800D01*
X-11131Y458000D01*
X-10678Y457322D01*
X-10000Y456869D01*
X-9200Y456710D01*
X-8400Y456869D01*
X-7722Y457322D01*
X-7269Y458000D01*
X-7110Y458800D01*
X-7269Y459600D01*
X-7722Y460278D01*
X-8400Y460731D01*
X-9200Y460890D01*
D02*
G37*
G36*
X84081Y460870D02*
X83281Y460710D01*
X82603Y460257D01*
X82150Y459579D01*
X81991Y458779D01*
X82150Y457979D01*
X82603Y457301D01*
X83281Y456848D01*
X84081Y456689D01*
X84881Y456848D01*
X85559Y457301D01*
X86012Y457979D01*
X86172Y458779D01*
X86012Y459579D01*
X85559Y460257D01*
X84881Y460710D01*
X84081Y460870D01*
D02*
G37*
G36*
X105731Y461872D02*
X104931Y461713D01*
X104253Y461260D01*
X103800Y460581D01*
X103641Y459782D01*
X103800Y458982D01*
X104253Y458303D01*
X104931Y457850D01*
X105731Y457691D01*
X106531Y457850D01*
X107209Y458303D01*
X107299Y458439D01*
X107770Y458244D01*
X107710Y457939D01*
X107869Y457140D01*
X108322Y456461D01*
X109000Y456008D01*
X109800Y455849D01*
X110600Y456008D01*
X111278Y456461D01*
X111731Y457140D01*
X111890Y457939D01*
X111731Y458739D01*
X111278Y459417D01*
X110600Y459871D01*
X109800Y460030D01*
X109000Y459871D01*
X108322Y459417D01*
X108232Y459282D01*
X107761Y459478D01*
X107821Y459782D01*
X107662Y460581D01*
X107209Y461260D01*
X106531Y461713D01*
X105731Y461872D01*
D02*
G37*
G36*
X599964Y457054D02*
X598740Y456893D01*
X597600Y456420D01*
X596621Y455669D01*
X595870Y454690D01*
X595398Y453550D01*
X595236Y452326D01*
X595398Y451103D01*
X595870Y449963D01*
X596621Y448983D01*
X597600Y448232D01*
X598740Y447760D01*
X599964Y447599D01*
X601188Y447760D01*
X602328Y448232D01*
X603307Y448983D01*
X604058Y449963D01*
X604530Y451103D01*
X604691Y452326D01*
X604530Y453550D01*
X604058Y454690D01*
X603307Y455669D01*
X602328Y456420D01*
X601188Y456893D01*
X599964Y457054D01*
D02*
G37*
G36*
X239964D02*
X238740Y456893D01*
X237600Y456420D01*
X236621Y455669D01*
X235870Y454690D01*
X235398Y453550D01*
X235237Y452326D01*
X235398Y451103D01*
X235870Y449963D01*
X236621Y448983D01*
X237600Y448232D01*
X238740Y447760D01*
X239964Y447599D01*
X241188Y447760D01*
X242328Y448232D01*
X243307Y448983D01*
X244058Y449963D01*
X244530Y451103D01*
X244691Y452326D01*
X244530Y453550D01*
X244058Y454690D01*
X243307Y455669D01*
X242328Y456420D01*
X241188Y456893D01*
X239964Y457054D01*
D02*
G37*
G36*
X80110Y449071D02*
X79310Y448912D01*
X78632Y448459D01*
X78179Y447781D01*
X78020Y446981D01*
X78179Y446181D01*
X78632Y445503D01*
X79310Y445050D01*
X80110Y444891D01*
X80910Y445050D01*
X81588Y445503D01*
X82041Y446181D01*
X82200Y446981D01*
X82041Y447781D01*
X81588Y448459D01*
X80910Y448912D01*
X80110Y449071D01*
D02*
G37*
G36*
X111474Y448485D02*
X110674Y448325D01*
X109996Y447872D01*
X109543Y447194D01*
X109384Y446394D01*
X109543Y445595D01*
X109996Y444916D01*
X110674Y444463D01*
X111474Y444304D01*
X112274Y444463D01*
X112952Y444916D01*
X113334D01*
X113346Y444900D01*
X114024Y444446D01*
X114824Y444287D01*
X115624Y444446D01*
X116302Y444900D01*
X116755Y445578D01*
X116914Y446378D01*
X116755Y447177D01*
X116302Y447856D01*
X115624Y448309D01*
X114824Y448468D01*
X114024Y448309D01*
X113346Y447856D01*
X112963D01*
X112952Y447872D01*
X112274Y448325D01*
X111474Y448485D01*
D02*
G37*
G36*
X101764Y448363D02*
X100964Y448204D01*
X100286Y447750D01*
X99833Y447072D01*
X99674Y446273D01*
X99833Y445473D01*
X100286Y444795D01*
X100964Y444341D01*
X101764Y444182D01*
X102564Y444341D01*
X103242Y444795D01*
X103695Y445473D01*
X103854Y446273D01*
X103695Y447072D01*
X103242Y447750D01*
X102564Y448204D01*
X101764Y448363D01*
D02*
G37*
G36*
X120000Y448090D02*
X119200Y447931D01*
X118522Y447478D01*
X118069Y446800D01*
X117910Y446000D01*
X118069Y445200D01*
X118522Y444522D01*
X119200Y444069D01*
X120000Y443910D01*
X120800Y444069D01*
X121478Y444522D01*
X121931Y445200D01*
X122090Y446000D01*
X121931Y446800D01*
X121478Y447478D01*
X120800Y447931D01*
X120000Y448090D01*
D02*
G37*
G36*
X13291Y447890D02*
X12491Y447731D01*
X11813Y447278D01*
X11360Y446600D01*
X11201Y445800D01*
X11360Y445000D01*
X11813Y444322D01*
X12491Y443869D01*
X13291Y443710D01*
X14091Y443869D01*
X14769Y444322D01*
X15222Y445000D01*
X15382Y445800D01*
X15222Y446600D01*
X14769Y447278D01*
X14091Y447731D01*
X13291Y447890D01*
D02*
G37*
G36*
X-3000Y446090D02*
X-3800Y445931D01*
X-4478Y445478D01*
X-4931Y444800D01*
X-5090Y444000D01*
X-4931Y443200D01*
X-4478Y442522D01*
X-3800Y442069D01*
X-3000Y441910D01*
X-2200Y442069D01*
X-1522Y442522D01*
X-1069Y443200D01*
X-910Y444000D01*
X-1069Y444800D01*
X-1522Y445478D01*
X-2200Y445931D01*
X-3000Y446090D01*
D02*
G37*
G36*
X54492Y448296D02*
X53692Y448137D01*
X53014Y447684D01*
X52561Y447006D01*
X52402Y446206D01*
X52561Y445406D01*
X53014Y444728D01*
X53692Y444275D01*
X54492Y444116D01*
X54778Y444173D01*
X55132Y443819D01*
X55110Y443709D01*
X55269Y442909D01*
X55722Y442231D01*
X56400Y441778D01*
X57200Y441619D01*
X58000Y441778D01*
X58678Y442231D01*
X59131Y442909D01*
X59290Y443709D01*
X59131Y444509D01*
X58678Y445187D01*
X58000Y445640D01*
X57200Y445799D01*
X56914Y445742D01*
X56560Y446096D01*
X56582Y446206D01*
X56423Y447006D01*
X55970Y447684D01*
X55291Y448137D01*
X54492Y448296D01*
D02*
G37*
G36*
X779964Y447054D02*
X778740Y446893D01*
X777600Y446420D01*
X776621Y445669D01*
X775870Y444690D01*
X775398Y443550D01*
X775237Y442326D01*
X775398Y441103D01*
X775870Y439963D01*
X776621Y438983D01*
X777600Y438232D01*
X778740Y437760D01*
X779964Y437599D01*
X781187Y437760D01*
X782328Y438232D01*
X783307Y438983D01*
X784058Y439963D01*
X784530Y441103D01*
X784691Y442326D01*
X784530Y443550D01*
X784058Y444690D01*
X783307Y445669D01*
X782328Y446420D01*
X781187Y446893D01*
X779964Y447054D01*
D02*
G37*
G36*
X599964D02*
X598740Y446893D01*
X597600Y446420D01*
X596621Y445669D01*
X595870Y444690D01*
X595398Y443550D01*
X595236Y442326D01*
X595398Y441103D01*
X595870Y439963D01*
X596621Y438983D01*
X597600Y438232D01*
X598740Y437760D01*
X599964Y437599D01*
X601188Y437760D01*
X602328Y438232D01*
X603307Y438983D01*
X604058Y439963D01*
X604530Y441103D01*
X604691Y442326D01*
X604530Y443550D01*
X604058Y444690D01*
X603307Y445669D01*
X602328Y446420D01*
X601188Y446893D01*
X599964Y447054D01*
D02*
G37*
G36*
X419964D02*
X418740Y446893D01*
X417600Y446420D01*
X416621Y445669D01*
X415870Y444690D01*
X415398Y443550D01*
X415237Y442326D01*
X415398Y441103D01*
X415870Y439963D01*
X416621Y438983D01*
X417600Y438232D01*
X418740Y437760D01*
X419964Y437599D01*
X421187Y437760D01*
X422328Y438232D01*
X423307Y438983D01*
X424058Y439963D01*
X424530Y441103D01*
X424691Y442326D01*
X424530Y443550D01*
X424058Y444690D01*
X423307Y445669D01*
X422328Y446420D01*
X421187Y446893D01*
X419964Y447054D01*
D02*
G37*
G36*
X239964D02*
X238740Y446893D01*
X237600Y446420D01*
X236621Y445669D01*
X235870Y444690D01*
X235398Y443550D01*
X235237Y442326D01*
X235398Y441103D01*
X235870Y439963D01*
X236621Y438983D01*
X237600Y438232D01*
X238740Y437760D01*
X239964Y437599D01*
X241188Y437760D01*
X242328Y438232D01*
X243307Y438983D01*
X244058Y439963D01*
X244530Y441103D01*
X244691Y442326D01*
X244530Y443550D01*
X244058Y444690D01*
X243307Y445669D01*
X242328Y446420D01*
X241188Y446893D01*
X239964Y447054D01*
D02*
G37*
G36*
X135786Y435503D02*
X134986Y435344D01*
X134308Y434891D01*
X133855Y434213D01*
X133696Y433413D01*
X133855Y432613D01*
X134308Y431935D01*
X134986Y431482D01*
X135786Y431323D01*
X136586Y431482D01*
X137264Y431935D01*
X137717Y432613D01*
X137876Y433413D01*
X137717Y434213D01*
X137264Y434891D01*
X136586Y435344D01*
X135786Y435503D01*
D02*
G37*
G36*
X599964Y437054D02*
X598740Y436893D01*
X597600Y436420D01*
X596621Y435669D01*
X595870Y434690D01*
X595398Y433550D01*
X595236Y432326D01*
X595398Y431103D01*
X595870Y429963D01*
X596621Y428983D01*
X597600Y428232D01*
X598740Y427760D01*
X599964Y427599D01*
X601188Y427760D01*
X602328Y428232D01*
X603307Y428983D01*
X604058Y429963D01*
X604530Y431103D01*
X604691Y432326D01*
X604530Y433550D01*
X604058Y434690D01*
X603307Y435669D01*
X602328Y436420D01*
X601188Y436893D01*
X599964Y437054D01*
D02*
G37*
G36*
X239964D02*
X238740Y436893D01*
X237600Y436420D01*
X236621Y435669D01*
X235870Y434690D01*
X235398Y433550D01*
X235237Y432326D01*
X235398Y431103D01*
X235870Y429963D01*
X236621Y428983D01*
X237600Y428232D01*
X238740Y427760D01*
X239964Y427599D01*
X241188Y427760D01*
X242328Y428232D01*
X243307Y428983D01*
X244058Y429963D01*
X244530Y431103D01*
X244691Y432326D01*
X244530Y433550D01*
X244058Y434690D01*
X243307Y435669D01*
X242328Y436420D01*
X241188Y436893D01*
X239964Y437054D01*
D02*
G37*
G36*
X122661Y431520D02*
X121862Y431361D01*
X121183Y430908D01*
X120730Y430230D01*
X120571Y429430D01*
X120730Y428630D01*
X121183Y427952D01*
X121862Y427499D01*
X122661Y427340D01*
X123461Y427499D01*
X124139Y427952D01*
X124592Y428630D01*
X124751Y429430D01*
X124592Y430230D01*
X124139Y430908D01*
X123461Y431361D01*
X122661Y431520D01*
D02*
G37*
G36*
X144643Y430253D02*
X143843Y430093D01*
X143165Y429640D01*
X142712Y428962D01*
X142553Y428162D01*
X142712Y427363D01*
X143165Y426685D01*
X143843Y426231D01*
X144643Y426072D01*
X145443Y426231D01*
X146121Y426685D01*
X146574Y427363D01*
X146733Y428162D01*
X146574Y428962D01*
X146121Y429640D01*
X145443Y430093D01*
X144643Y430253D01*
D02*
G37*
G36*
X135504Y428595D02*
X134704Y428436D01*
X134026Y427983D01*
X133573Y427305D01*
X133414Y426505D01*
X133573Y425705D01*
X134026Y425027D01*
X134704Y424574D01*
X135504Y424415D01*
X136304Y424574D01*
X136982Y425027D01*
X137435Y425705D01*
X137594Y426505D01*
X137435Y427305D01*
X136982Y427983D01*
X136304Y428436D01*
X135504Y428595D01*
D02*
G37*
G36*
X429964Y426174D02*
X429675Y426136D01*
X428474Y425639D01*
X427443Y424847D01*
X426651Y423816D01*
X426154Y422615D01*
X426116Y422326D01*
X429964D01*
Y426174D01*
D02*
G37*
G36*
X609964Y426174D02*
X609675Y426136D01*
X608474Y425639D01*
X607443Y424847D01*
X606651Y423816D01*
X606154Y422615D01*
X606116Y422326D01*
X609964D01*
Y426174D01*
D02*
G37*
G36*
X122567Y425615D02*
X121767Y425456D01*
X121089Y425002D01*
X120636Y424324D01*
X120477Y423524D01*
X120636Y422724D01*
X121089Y422046D01*
X121767Y421593D01*
X122567Y421434D01*
X123367Y421593D01*
X124045Y422046D01*
X124498Y422724D01*
X124657Y423524D01*
X124498Y424324D01*
X124045Y425002D01*
X123367Y425456D01*
X122567Y425615D01*
D02*
G37*
G36*
X635651Y426013D02*
X626277D01*
Y416639D01*
X635651D01*
Y426013D01*
D02*
G37*
G36*
X455651D02*
X446277D01*
Y416639D01*
X455651D01*
Y426013D01*
D02*
G37*
G36*
X611964Y426174D02*
Y421326D01*
Y416478D01*
X612253Y416516D01*
X613454Y417014D01*
X614485Y417805D01*
X615276Y418836D01*
X615774Y420038D01*
X615838Y420524D01*
X616342D01*
X616398Y420103D01*
X616870Y418963D01*
X617621Y417983D01*
X618600Y417232D01*
X619740Y416760D01*
X620964Y416599D01*
X622188Y416760D01*
X623328Y417232D01*
X624307Y417983D01*
X625058Y418963D01*
X625530Y420103D01*
X625691Y421326D01*
X625530Y422550D01*
X625058Y423690D01*
X624307Y424669D01*
X623328Y425420D01*
X622188Y425893D01*
X620964Y426054D01*
X619740Y425893D01*
X618600Y425420D01*
X617621Y424669D01*
X616870Y423690D01*
X616398Y422550D01*
X616342Y422129D01*
X615838D01*
X615774Y422615D01*
X615276Y423816D01*
X614485Y424847D01*
X613454Y425639D01*
X612253Y426136D01*
X611964Y426174D01*
D02*
G37*
G36*
X239964Y467054D02*
X238740Y466893D01*
X237600Y466420D01*
X236621Y465669D01*
X235870Y464690D01*
X235398Y463550D01*
X235237Y462326D01*
X235398Y461103D01*
X235870Y459963D01*
X236621Y458984D01*
X237600Y458232D01*
X238740Y457760D01*
X239964Y457599D01*
X241188Y457760D01*
X242277Y458211D01*
X285250Y415238D01*
X285663Y414962D01*
X286151Y414865D01*
X435777D01*
X436265Y414962D01*
X436678Y415238D01*
X438651Y417211D01*
X439740Y416760D01*
X440964Y416599D01*
X442188Y416760D01*
X443328Y417232D01*
X444307Y417983D01*
X445058Y418963D01*
X445530Y420103D01*
X445691Y421326D01*
X445530Y422550D01*
X445058Y423690D01*
X444307Y424669D01*
X443328Y425420D01*
X442188Y425893D01*
X440964Y426054D01*
X439740Y425893D01*
X438600Y425420D01*
X437621Y424669D01*
X436870Y423690D01*
X436398Y422550D01*
X436342Y422129D01*
X435838D01*
X435774Y422615D01*
X435276Y423816D01*
X434485Y424847D01*
X433454Y425639D01*
X432253Y426136D01*
X431964Y426174D01*
Y421326D01*
X430964D01*
Y420326D01*
X426116D01*
X426154Y420038D01*
X426651Y418836D01*
X427359Y417914D01*
X427197Y417414D01*
X286679D01*
X244079Y460013D01*
X244530Y461103D01*
X244691Y462326D01*
X244530Y463550D01*
X244058Y464690D01*
X243307Y465669D01*
X242328Y466420D01*
X241188Y466893D01*
X239964Y467054D01*
D02*
G37*
G36*
X609964Y420326D02*
X606116D01*
X606154Y420038D01*
X606651Y418836D01*
X607443Y417805D01*
X608474Y417014D01*
X609675Y416516D01*
X609964Y416478D01*
Y420326D01*
D02*
G37*
G36*
X135241Y420291D02*
X134441Y420131D01*
X133763Y419678D01*
X133310Y419000D01*
X133151Y418200D01*
X133310Y417401D01*
X133763Y416722D01*
X134441Y416269D01*
X135241Y416110D01*
X136041Y416269D01*
X136719Y416722D01*
X137172Y417401D01*
X137331Y418200D01*
X137172Y419000D01*
X136719Y419678D01*
X136041Y420131D01*
X135241Y420291D01*
D02*
G37*
G36*
X779964Y457054D02*
X778740Y456893D01*
X777600Y456420D01*
X776621Y455669D01*
X775870Y454690D01*
X775398Y453550D01*
X775237Y452326D01*
X775398Y451103D01*
X775849Y450013D01*
X739110Y413274D01*
X586528D01*
X546575Y453228D01*
X546161Y453504D01*
X545674Y453601D01*
X424509D01*
X424058Y454690D01*
X423307Y455669D01*
X422328Y456420D01*
X421187Y456893D01*
X419964Y457054D01*
X418740Y456893D01*
X417600Y456420D01*
X416621Y455669D01*
X415870Y454690D01*
X415398Y453550D01*
X415237Y452326D01*
X415398Y451103D01*
X415870Y449963D01*
X416621Y448983D01*
X417600Y448232D01*
X418740Y447760D01*
X419964Y447599D01*
X421187Y447760D01*
X422328Y448232D01*
X423307Y448983D01*
X424058Y449963D01*
X424509Y451052D01*
X545146D01*
X585099Y411099D01*
X585512Y410822D01*
X586000Y410725D01*
X739638D01*
X740125Y410822D01*
X740539Y411099D01*
X777651Y448211D01*
X778740Y447760D01*
X779964Y447599D01*
X781187Y447760D01*
X782328Y448232D01*
X783307Y448983D01*
X784058Y449963D01*
X784530Y451103D01*
X784691Y452326D01*
X784530Y453550D01*
X784058Y454690D01*
X783307Y455669D01*
X782328Y456420D01*
X781187Y456893D01*
X779964Y457054D01*
D02*
G37*
G36*
X29000Y420090D02*
X28200Y419931D01*
X27522Y419478D01*
X27069Y418800D01*
X26910Y418000D01*
X27069Y417200D01*
X27522Y416522D01*
X28200Y416069D01*
X29000Y415910D01*
X29376Y415985D01*
X29676Y415535D01*
X29591Y415407D01*
X29432Y414607D01*
X29591Y413807D01*
X30044Y413129D01*
X30722Y412676D01*
X31522Y412516D01*
X32322Y412676D01*
X33000Y413129D01*
X33453Y413807D01*
X33612Y414607D01*
X33453Y415407D01*
X33000Y416085D01*
X32322Y416538D01*
X31522Y416697D01*
X31146Y416622D01*
X30845Y417072D01*
X30931Y417200D01*
X31090Y418000D01*
X30931Y418800D01*
X30478Y419478D01*
X29800Y419931D01*
X29000Y420090D01*
D02*
G37*
G36*
X135169Y413573D02*
X134369Y413414D01*
X133691Y412961D01*
X133238Y412283D01*
X133078Y411483D01*
X133238Y410683D01*
X133691Y410005D01*
X134369Y409552D01*
X135169Y409393D01*
X135968Y409552D01*
X136647Y410005D01*
X137100Y410683D01*
X137259Y411483D01*
X137100Y412283D01*
X136647Y412961D01*
X135968Y413414D01*
X135169Y413573D01*
D02*
G37*
G36*
X30535Y407646D02*
X29735Y407487D01*
X29057Y407034D01*
X28604Y406356D01*
X28445Y405556D01*
X28604Y404756D01*
X29057Y404078D01*
X29735Y403625D01*
X30535Y403466D01*
X31335Y403625D01*
X32013Y404078D01*
X32466Y404756D01*
X32625Y405556D01*
X32466Y406356D01*
X32013Y407034D01*
X31335Y407487D01*
X30535Y407646D01*
D02*
G37*
G36*
X779964Y437054D02*
X778740Y436893D01*
X777600Y436420D01*
X776621Y435669D01*
X775870Y434690D01*
X775398Y433550D01*
X775237Y432326D01*
X775398Y431103D01*
X775849Y430014D01*
X749110Y403274D01*
X568528D01*
X538575Y433227D01*
X538161Y433504D01*
X537674Y433601D01*
X424509D01*
X424058Y434690D01*
X423307Y435669D01*
X422328Y436420D01*
X421187Y436893D01*
X419964Y437054D01*
X418740Y436893D01*
X417600Y436420D01*
X416621Y435669D01*
X415870Y434690D01*
X415398Y433550D01*
X415237Y432326D01*
X415398Y431103D01*
X415870Y429963D01*
X416621Y428983D01*
X417600Y428232D01*
X418740Y427760D01*
X419964Y427599D01*
X421187Y427760D01*
X422328Y428232D01*
X423307Y428983D01*
X424058Y429963D01*
X424509Y431052D01*
X537146D01*
X567099Y401099D01*
X567512Y400822D01*
X568000Y400726D01*
X749638D01*
X750125Y400822D01*
X750539Y401099D01*
X777651Y428211D01*
X778740Y427760D01*
X779964Y427599D01*
X781187Y427760D01*
X782328Y428232D01*
X783307Y428983D01*
X784058Y429963D01*
X784530Y431103D01*
X784691Y432326D01*
X784530Y433550D01*
X784058Y434690D01*
X783307Y435669D01*
X782328Y436420D01*
X781187Y436893D01*
X779964Y437054D01*
D02*
G37*
G36*
X123331Y405930D02*
X122531Y405770D01*
X121853Y405317D01*
X121400Y404639D01*
X121240Y403839D01*
X121400Y403040D01*
X121853Y402361D01*
X122531Y401908D01*
X123331Y401749D01*
X124130Y401908D01*
X124809Y402361D01*
X125262Y403040D01*
X125421Y403839D01*
X125262Y404639D01*
X124809Y405317D01*
X124130Y405770D01*
X123331Y405930D01*
D02*
G37*
G36*
X51599Y412780D02*
X50799Y412621D01*
X50121Y412168D01*
X49668Y411490D01*
X49509Y410690D01*
X49668Y409890D01*
X50121Y409212D01*
X50389Y409033D01*
Y408533D01*
X50263Y408449D01*
X49810Y407771D01*
X49650Y406971D01*
X49810Y406171D01*
X50263Y405493D01*
X50364Y405425D01*
X50313Y404858D01*
X49818Y404528D01*
X49365Y403850D01*
X49206Y403050D01*
X49365Y402250D01*
X49818Y401572D01*
X50496Y401119D01*
X51296Y400959D01*
X52096Y401119D01*
X52774Y401572D01*
X53227Y402250D01*
X53386Y403050D01*
X53227Y403850D01*
X52774Y404528D01*
X52673Y404595D01*
X52724Y405162D01*
X53219Y405493D01*
X53672Y406171D01*
X53831Y406971D01*
X53672Y407771D01*
X53219Y408449D01*
X52951Y408628D01*
Y409128D01*
X53077Y409212D01*
X53530Y409890D01*
X53689Y410690D01*
X53530Y411490D01*
X53077Y412168D01*
X52399Y412621D01*
X51599Y412780D01*
D02*
G37*
G36*
X143186Y403085D02*
X142386Y402926D01*
X141708Y402473D01*
X141255Y401795D01*
X141096Y400995D01*
X141102Y400963D01*
X123070Y382931D01*
X122528Y383096D01*
X122458Y383447D01*
X122005Y384125D01*
X121327Y384578D01*
X120527Y384737D01*
X119727Y384578D01*
X119049Y384125D01*
X118596Y383447D01*
X118437Y382647D01*
X118596Y381847D01*
X119049Y381169D01*
X119727Y380716D01*
X120078Y380646D01*
X120242Y380103D01*
X118594Y378455D01*
X118383Y378596D01*
X117583Y378755D01*
X116783Y378596D01*
X116105Y378143D01*
X115652Y377465D01*
X115493Y376665D01*
X115652Y375865D01*
X116105Y375187D01*
X116783Y374734D01*
X117583Y374575D01*
X118383Y374734D01*
X119061Y375187D01*
X119515Y375865D01*
X119636Y376479D01*
X119663Y376497D01*
X120155Y376989D01*
X120698Y376824D01*
X120782Y376399D01*
X121236Y375721D01*
X121914Y375268D01*
X122713Y375109D01*
X123513Y375268D01*
X124191Y375721D01*
X124644Y376399D01*
X124804Y377199D01*
X124644Y377999D01*
X124191Y378677D01*
X123513Y379130D01*
X123089Y379215D01*
X122924Y379757D01*
X138909Y395742D01*
X139391Y395516D01*
X139522Y394856D01*
X139975Y394178D01*
X140653Y393725D01*
X141453Y393566D01*
X142253Y393725D01*
X142931Y394178D01*
X143384Y394856D01*
X143543Y395656D01*
X143384Y396456D01*
X142931Y397134D01*
X142253Y397587D01*
X141592Y397718D01*
X141367Y398200D01*
X142293Y399126D01*
X142386Y399064D01*
X143186Y398905D01*
X143986Y399064D01*
X144664Y399517D01*
X145117Y400195D01*
X145276Y400995D01*
X145117Y401795D01*
X144664Y402473D01*
X143986Y402926D01*
X143186Y403085D01*
D02*
G37*
G36*
X141556Y392646D02*
X140756Y392487D01*
X140078Y392034D01*
X139625Y391356D01*
X139466Y390556D01*
X139625Y389756D01*
X140078Y389078D01*
X140756Y388625D01*
X141556Y388466D01*
X142356Y388625D01*
X143034Y389078D01*
X143487Y389756D01*
X143646Y390556D01*
X143487Y391356D01*
X143034Y392034D01*
X142356Y392487D01*
X141556Y392646D01*
D02*
G37*
G36*
X51000Y390181D02*
X50200Y390022D01*
X49522Y389569D01*
X49069Y388891D01*
X48910Y388091D01*
X49069Y387292D01*
X49522Y386613D01*
X50200Y386160D01*
X51000Y386001D01*
X51800Y386160D01*
X52478Y386613D01*
X52931Y387292D01*
X53090Y388091D01*
X52931Y388891D01*
X52478Y389569D01*
X51800Y390022D01*
X51000Y390181D01*
D02*
G37*
G36*
X134118Y386275D02*
X133318Y386116D01*
X132640Y385663D01*
X132187Y384985D01*
X132028Y384185D01*
X132187Y383385D01*
X132640Y382707D01*
X133318Y382254D01*
X134118Y382095D01*
X134918Y382254D01*
X135596Y382707D01*
X136049Y383385D01*
X136208Y384185D01*
X136049Y384985D01*
X135596Y385663D01*
X134918Y386116D01*
X134118Y386275D01*
D02*
G37*
G36*
X86137Y376862D02*
X85337Y376703D01*
X84658Y376250D01*
X84347Y375783D01*
X83772Y375747D01*
X83768Y375749D01*
X83557Y376065D01*
X82879Y376519D01*
X82079Y376678D01*
X81279Y376519D01*
X80601Y376065D01*
X80148Y375387D01*
X79988Y374587D01*
X80148Y373787D01*
X80601Y373109D01*
X81279Y372656D01*
X82079Y372497D01*
X82879Y372656D01*
X83557Y373109D01*
X83869Y373576D01*
X84443Y373612D01*
X84447Y373610D01*
X84658Y373294D01*
X85337Y372841D01*
X86137Y372682D01*
X86936Y372841D01*
X87615Y373294D01*
X88068Y373972D01*
X88227Y374772D01*
X88068Y375572D01*
X87615Y376250D01*
X86936Y376703D01*
X86137Y376862D01*
D02*
G37*
G36*
X59024Y378774D02*
X58224Y378615D01*
X57546Y378162D01*
X57093Y377484D01*
X56934Y376684D01*
X57093Y375884D01*
X57546Y375206D01*
X58224Y374753D01*
X59024Y374594D01*
X59824Y374753D01*
X60502Y375206D01*
X60955Y375884D01*
X61115Y376684D01*
X60955Y377484D01*
X60502Y378162D01*
X59824Y378615D01*
X59024Y378774D01*
D02*
G37*
G36*
X111606Y378575D02*
X110806Y378416D01*
X110128Y377963D01*
X109675Y377285D01*
X109516Y376485D01*
X109675Y375685D01*
X110128Y375007D01*
X110806Y374554D01*
X111606Y374395D01*
X112406Y374554D01*
X113084Y375007D01*
X113537Y375685D01*
X113696Y376485D01*
X113537Y377285D01*
X113084Y377963D01*
X112406Y378416D01*
X111606Y378575D01*
D02*
G37*
G36*
X708000Y396613D02*
X706183Y396470D01*
X704412Y396044D01*
X702728Y395347D01*
X701174Y394395D01*
X699789Y393211D01*
X698605Y391826D01*
X697653Y390272D01*
X696956Y388589D01*
X696530Y386817D01*
X696387Y385000D01*
X696530Y383183D01*
X696956Y381412D01*
X697653Y379728D01*
X698605Y378174D01*
X699789Y376789D01*
X701174Y375605D01*
X702728Y374653D01*
X704412Y373956D01*
X706183Y373530D01*
X708000Y373387D01*
X709817Y373530D01*
X711588Y373956D01*
X713272Y374653D01*
X714826Y375605D01*
X716211Y376789D01*
X717395Y378174D01*
X718347Y379728D01*
X719044Y381412D01*
X719470Y383183D01*
X719613Y385000D01*
X719470Y386817D01*
X719044Y388589D01*
X718347Y390272D01*
X717395Y391826D01*
X716211Y393211D01*
X714826Y394395D01*
X713272Y395347D01*
X711588Y396044D01*
X709817Y396470D01*
X708000Y396613D01*
D02*
G37*
G36*
X444000D02*
X442183Y396470D01*
X440412Y396044D01*
X438728Y395347D01*
X437174Y394395D01*
X435789Y393211D01*
X434605Y391826D01*
X433653Y390272D01*
X432956Y388589D01*
X432530Y386817D01*
X432387Y385000D01*
X432530Y383183D01*
X432956Y381412D01*
X433653Y379728D01*
X434605Y378174D01*
X435789Y376789D01*
X437174Y375605D01*
X438728Y374653D01*
X440412Y373956D01*
X442183Y373530D01*
X444000Y373387D01*
X445817Y373530D01*
X447588Y373956D01*
X449272Y374653D01*
X450826Y375605D01*
X452211Y376789D01*
X453395Y378174D01*
X454347Y379728D01*
X455044Y381412D01*
X455470Y383183D01*
X455613Y385000D01*
X455470Y386817D01*
X455044Y388589D01*
X454347Y390272D01*
X453395Y391826D01*
X452211Y393211D01*
X450826Y394395D01*
X449272Y395347D01*
X447588Y396044D01*
X445817Y396470D01*
X444000Y396613D01*
D02*
G37*
G36*
X180000D02*
X178183Y396470D01*
X176411Y396044D01*
X174728Y395347D01*
X173174Y394395D01*
X171789Y393211D01*
X170605Y391826D01*
X169653Y390272D01*
X168956Y388589D01*
X168530Y386817D01*
X168387Y385000D01*
X168530Y383183D01*
X168956Y381412D01*
X169653Y379728D01*
X170605Y378174D01*
X171789Y376789D01*
X173174Y375605D01*
X174728Y374653D01*
X176411Y373956D01*
X178183Y373530D01*
X180000Y373387D01*
X181817Y373530D01*
X183589Y373956D01*
X185272Y374653D01*
X186826Y375605D01*
X188211Y376789D01*
X189395Y378174D01*
X190347Y379728D01*
X191044Y381412D01*
X191470Y383183D01*
X191613Y385000D01*
X191470Y386817D01*
X191044Y388589D01*
X190347Y390272D01*
X189395Y391826D01*
X188211Y393211D01*
X186826Y394395D01*
X185272Y395347D01*
X183589Y396044D01*
X181817Y396470D01*
X180000Y396613D01*
D02*
G37*
G36*
X30535Y374134D02*
X29735Y373975D01*
X29057Y373522D01*
X28604Y372844D01*
X28445Y372044D01*
X28604Y371244D01*
X29057Y370566D01*
X29735Y370113D01*
X30535Y369954D01*
X31335Y370113D01*
X32013Y370566D01*
X32466Y371244D01*
X32625Y372044D01*
X32466Y372844D01*
X32013Y373522D01*
X31335Y373975D01*
X30535Y374134D01*
D02*
G37*
G36*
X77231Y365051D02*
X76431Y364892D01*
X75753Y364439D01*
X75300Y363760D01*
X75141Y362961D01*
X75300Y362161D01*
X75753Y361483D01*
X76431Y361030D01*
X77231Y360871D01*
X78031Y361030D01*
X78709Y361483D01*
X79162Y362161D01*
X79321Y362961D01*
X79162Y363760D01*
X78709Y364439D01*
X78031Y364892D01*
X77231Y365051D01*
D02*
G37*
G36*
X100416Y364890D02*
X99616Y364731D01*
X98938Y364278D01*
X98485Y363600D01*
X98326Y362800D01*
X98485Y362000D01*
X98938Y361322D01*
X99616Y360869D01*
X100416Y360710D01*
X101216Y360869D01*
X101894Y361322D01*
X102347Y362000D01*
X102506Y362800D01*
X102347Y363600D01*
X101894Y364278D01*
X101216Y364731D01*
X100416Y364890D01*
D02*
G37*
G36*
X85563Y364814D02*
X84763Y364655D01*
X84085Y364202D01*
X83632Y363524D01*
X83473Y362724D01*
X83632Y361924D01*
X84085Y361246D01*
X84763Y360793D01*
X85563Y360634D01*
X86363Y360793D01*
X87041Y361246D01*
X87494Y361924D01*
X87653Y362724D01*
X87494Y363524D01*
X87041Y364202D01*
X86363Y364655D01*
X85563Y364814D01*
D02*
G37*
G36*
X53451Y361437D02*
X52651Y361278D01*
X51973Y360825D01*
X51520Y360146D01*
X51361Y359347D01*
X51520Y358547D01*
X51973Y357869D01*
X52651Y357416D01*
X53451Y357257D01*
X54251Y357416D01*
X54929Y357869D01*
X55382Y358547D01*
X55541Y359347D01*
X55382Y360146D01*
X54929Y360825D01*
X54251Y361278D01*
X53451Y361437D01*
D02*
G37*
G36*
X72692Y364172D02*
X71892Y364013D01*
X71214Y363559D01*
X70761Y362881D01*
X70602Y362081D01*
X70761Y361281D01*
X71214Y360603D01*
X71892Y360150D01*
X71987Y360132D01*
X72217Y359576D01*
X72027Y359291D01*
X71868Y358491D01*
X72027Y357692D01*
X72480Y357013D01*
X73158Y356560D01*
X73958Y356401D01*
X74758Y356560D01*
X75436Y357013D01*
X75889Y357692D01*
X76048Y358491D01*
X75889Y359291D01*
X75436Y359969D01*
X74758Y360422D01*
X74663Y360441D01*
X74433Y360997D01*
X74623Y361281D01*
X74783Y362081D01*
X74623Y362881D01*
X74170Y363559D01*
X73492Y364013D01*
X72692Y364172D01*
D02*
G37*
G36*
X133000Y358090D02*
X132200Y357931D01*
X131522Y357478D01*
X131069Y356800D01*
X130910Y356000D01*
X131069Y355200D01*
X131522Y354522D01*
X132200Y354069D01*
X133000Y353910D01*
X133800Y354069D01*
X134478Y354522D01*
X134931Y355200D01*
X135090Y356000D01*
X134931Y356800D01*
X134478Y357478D01*
X133800Y357931D01*
X133000Y358090D01*
D02*
G37*
G36*
X429964Y357174D02*
X429675Y357136D01*
X428474Y356639D01*
X427443Y355847D01*
X426651Y354816D01*
X426154Y353615D01*
X426116Y353326D01*
X429964D01*
Y357174D01*
D02*
G37*
G36*
X609964Y357174D02*
X609675Y357136D01*
X608474Y356639D01*
X607443Y355847D01*
X606651Y354816D01*
X606154Y353615D01*
X606116Y353326D01*
X609964D01*
Y357174D01*
D02*
G37*
G36*
X610000Y364275D02*
X473000D01*
X472512Y364177D01*
X472099Y363901D01*
X456151Y347953D01*
X455651Y348161D01*
Y357013D01*
X446277D01*
Y347639D01*
X455130D01*
X455337Y347139D01*
X419897Y311700D01*
X287065D01*
X286614Y312789D01*
X285863Y313768D01*
X284883Y314519D01*
X283743Y314991D01*
X282520Y315153D01*
X281296Y314991D01*
X280156Y314519D01*
X279177Y313768D01*
X278426Y312789D01*
X277953Y311649D01*
X277792Y310425D01*
X277953Y309202D01*
X278426Y308061D01*
X279177Y307082D01*
X280156Y306331D01*
X281296Y305859D01*
X282520Y305698D01*
X283743Y305859D01*
X284883Y306331D01*
X285863Y307082D01*
X286614Y308061D01*
X287065Y309151D01*
X420425D01*
X420913Y309248D01*
X421326Y309524D01*
X473528Y361725D01*
X609472D01*
X616764Y354434D01*
X616398Y353550D01*
X616342Y353129D01*
X615838D01*
X615774Y353615D01*
X615276Y354816D01*
X614485Y355847D01*
X613454Y356639D01*
X612253Y357136D01*
X611964Y357174D01*
Y352326D01*
Y347478D01*
X612253Y347516D01*
X613454Y348014D01*
X614485Y348805D01*
X615276Y349836D01*
X615774Y351038D01*
X615838Y351523D01*
X616342D01*
X616398Y351103D01*
X616870Y349963D01*
X617621Y348984D01*
X618600Y348232D01*
X619740Y347760D01*
X620964Y347599D01*
X622188Y347760D01*
X623328Y348232D01*
X624307Y348984D01*
X625058Y349963D01*
X625530Y351103D01*
X625691Y352326D01*
X625530Y353550D01*
X625058Y354690D01*
X624307Y355669D01*
X623328Y356420D01*
X622188Y356893D01*
X620964Y357054D01*
X619740Y356893D01*
X618600Y356420D01*
X618477Y356326D01*
X610901Y363901D01*
X610488Y364177D01*
X610000Y364275D01*
D02*
G37*
G36*
X68291Y354890D02*
X67491Y354731D01*
X66813Y354278D01*
X66360Y353600D01*
X66201Y352800D01*
X66360Y352000D01*
X66813Y351322D01*
X67491Y350869D01*
X68291Y350710D01*
X69091Y350869D01*
X69769Y351322D01*
X70222Y352000D01*
X70381Y352800D01*
X70222Y353600D01*
X69769Y354278D01*
X69091Y354731D01*
X68291Y354890D01*
D02*
G37*
G36*
X7791Y358985D02*
X-3209D01*
Y347985D01*
X7791D01*
Y358985D01*
D02*
G37*
G36*
X635651Y357013D02*
X626277D01*
Y347639D01*
X635651D01*
Y357013D01*
D02*
G37*
G36*
X429964Y351326D02*
X426116D01*
X426154Y351038D01*
X426651Y349836D01*
X427443Y348805D01*
X428474Y348014D01*
X429675Y347516D01*
X429964Y347478D01*
Y351326D01*
D02*
G37*
G36*
X609964D02*
X606116D01*
X606154Y351038D01*
X606651Y349836D01*
X607443Y348805D01*
X608474Y348014D01*
X609675Y347516D01*
X609964Y347478D01*
Y351326D01*
D02*
G37*
G36*
X110175Y351432D02*
X109375Y351273D01*
X108696Y350820D01*
X108243Y350142D01*
X108084Y349342D01*
X108243Y348542D01*
X108696Y347864D01*
X109375Y347411D01*
X110175Y347252D01*
X110974Y347411D01*
X111652Y347864D01*
X112106Y348542D01*
X112265Y349342D01*
X112106Y350142D01*
X111652Y350820D01*
X110974Y351273D01*
X110175Y351432D01*
D02*
G37*
G36*
X101000Y351090D02*
X100200Y350931D01*
X99522Y350478D01*
X99069Y349800D01*
X98910Y349000D01*
X99069Y348200D01*
X99522Y347522D01*
X100200Y347069D01*
X101000Y346910D01*
X101800Y347069D01*
X102478Y347522D01*
X102931Y348200D01*
X103090Y349000D01*
X102931Y349800D01*
X102478Y350478D01*
X101800Y350931D01*
X101000Y351090D01*
D02*
G37*
G36*
X115291Y349381D02*
X114491Y349222D01*
X113813Y348769D01*
X113360Y348091D01*
X113201Y347291D01*
X113360Y346491D01*
X113813Y345813D01*
X114491Y345360D01*
X115291Y345201D01*
X116091Y345360D01*
X116769Y345813D01*
X117222Y346491D01*
X117382Y347291D01*
X117222Y348091D01*
X116769Y348769D01*
X116091Y349222D01*
X115291Y349381D01*
D02*
G37*
G36*
X431964Y357174D02*
Y352326D01*
Y347478D01*
X432253Y347516D01*
X433454Y348014D01*
X434485Y348805D01*
X435276Y349836D01*
X435774Y351038D01*
X435838Y351523D01*
X436342D01*
X436398Y351103D01*
X436849Y350013D01*
X431910Y345075D01*
X312819D01*
X307192Y350701D01*
X306779Y350977D01*
X306291Y351075D01*
X141895D01*
X141407Y350977D01*
X140993Y350701D01*
X104833Y314540D01*
X103743Y314991D01*
X102520Y315153D01*
X101296Y314991D01*
X100156Y314519D01*
X99177Y313768D01*
X98426Y312789D01*
X97953Y311649D01*
X97792Y310425D01*
X97953Y309202D01*
X98426Y308061D01*
X99177Y307082D01*
X100156Y306331D01*
X101296Y305859D01*
X102520Y305698D01*
X103743Y305859D01*
X104884Y306331D01*
X105863Y307082D01*
X106614Y308061D01*
X107086Y309202D01*
X107247Y310425D01*
X107086Y311649D01*
X106635Y312738D01*
X142423Y348526D01*
X305763D01*
X311390Y342899D01*
X311804Y342622D01*
X312291Y342526D01*
X432438D01*
X432925Y342622D01*
X433339Y342899D01*
X438651Y348211D01*
X439740Y347760D01*
X440964Y347599D01*
X442188Y347760D01*
X443328Y348232D01*
X444307Y348984D01*
X445058Y349963D01*
X445530Y351103D01*
X445691Y352326D01*
X445530Y353550D01*
X445058Y354690D01*
X444307Y355669D01*
X443328Y356420D01*
X442188Y356893D01*
X440964Y357054D01*
X439740Y356893D01*
X438600Y356420D01*
X437621Y355669D01*
X436870Y354690D01*
X436398Y353550D01*
X436342Y353129D01*
X435838D01*
X435774Y353615D01*
X435276Y354816D01*
X434485Y355847D01*
X433454Y356639D01*
X432253Y357136D01*
X431964Y357174D01*
D02*
G37*
G36*
X95706Y345097D02*
X94906Y344938D01*
X94228Y344485D01*
X93775Y343807D01*
X93616Y343007D01*
X93775Y342207D01*
X94228Y341529D01*
X94906Y341076D01*
X95706Y340916D01*
X96505Y341076D01*
X97184Y341529D01*
X97637Y342207D01*
X97796Y343007D01*
X97637Y343807D01*
X97184Y344485D01*
X96505Y344938D01*
X95706Y345097D01*
D02*
G37*
G36*
X57291Y343890D02*
X56491Y343731D01*
X55813Y343278D01*
X55360Y342600D01*
X55201Y341800D01*
X55360Y341000D01*
X55813Y340322D01*
X56491Y339869D01*
X57291Y339710D01*
X58091Y339869D01*
X58769Y340322D01*
X59222Y341000D01*
X59382Y341800D01*
X59222Y342600D01*
X58769Y343278D01*
X58091Y343731D01*
X57291Y343890D01*
D02*
G37*
G36*
X642520Y345153D02*
X641296Y344991D01*
X640156Y344519D01*
X639177Y343768D01*
X638426Y342789D01*
X637953Y341649D01*
X637792Y340425D01*
X637953Y339201D01*
X638426Y338061D01*
X639177Y337082D01*
X640156Y336331D01*
X641296Y335859D01*
X642520Y335698D01*
X643743Y335859D01*
X644883Y336331D01*
X645863Y337082D01*
X646614Y338061D01*
X647086Y339201D01*
X647247Y340425D01*
X647086Y341649D01*
X646614Y342789D01*
X645863Y343768D01*
X644883Y344519D01*
X643743Y344991D01*
X642520Y345153D01*
D02*
G37*
G36*
X462520D02*
X461296Y344991D01*
X460156Y344519D01*
X459177Y343768D01*
X458426Y342789D01*
X457953Y341649D01*
X457792Y340425D01*
X457953Y339201D01*
X458426Y338061D01*
X459177Y337082D01*
X460156Y336331D01*
X461296Y335859D01*
X462520Y335698D01*
X463743Y335859D01*
X464884Y336331D01*
X465863Y337082D01*
X466614Y338061D01*
X467086Y339201D01*
X467247Y340425D01*
X467086Y341649D01*
X466614Y342789D01*
X465863Y343768D01*
X464884Y344519D01*
X463743Y344991D01*
X462520Y345153D01*
D02*
G37*
G36*
X282520D02*
X281296Y344991D01*
X280156Y344519D01*
X279177Y343768D01*
X278426Y342789D01*
X277953Y341649D01*
X277792Y340425D01*
X277953Y339201D01*
X278426Y338061D01*
X279177Y337082D01*
X280156Y336331D01*
X281296Y335859D01*
X282520Y335698D01*
X283743Y335859D01*
X284883Y336331D01*
X285863Y337082D01*
X286614Y338061D01*
X287086Y339201D01*
X287247Y340425D01*
X287086Y341649D01*
X286614Y342789D01*
X285863Y343768D01*
X284883Y344519D01*
X283743Y344991D01*
X282520Y345153D01*
D02*
G37*
G36*
X102520D02*
X101296Y344991D01*
X100156Y344519D01*
X99177Y343768D01*
X98426Y342789D01*
X97953Y341649D01*
X97792Y340425D01*
X97953Y339201D01*
X98426Y338061D01*
X99177Y337082D01*
X100156Y336331D01*
X101296Y335859D01*
X102520Y335698D01*
X103743Y335859D01*
X104884Y336331D01*
X105863Y337082D01*
X106614Y338061D01*
X107086Y339201D01*
X107247Y340425D01*
X107086Y341649D01*
X106614Y342789D01*
X105863Y343768D01*
X104884Y344519D01*
X103743Y344991D01*
X102520Y345153D01*
D02*
G37*
G36*
X2291Y339348D02*
X855Y339158D01*
X-482Y338604D01*
X-1631Y337723D01*
X-2513Y336574D01*
X-3067Y335236D01*
X-3256Y333800D01*
X-3067Y332364D01*
X-2513Y331026D01*
X-1631Y329877D01*
X-482Y328996D01*
X855Y328442D01*
X2291Y328253D01*
X3727Y328442D01*
X5065Y328996D01*
X6214Y329877D01*
X7096Y331026D01*
X7650Y332364D01*
X7839Y333800D01*
X7650Y335236D01*
X7096Y336574D01*
X6214Y337723D01*
X5065Y338604D01*
X3727Y339158D01*
X2291Y339348D01*
D02*
G37*
G36*
X642520Y335153D02*
X641296Y334992D01*
X640156Y334519D01*
X639177Y333768D01*
X638426Y332789D01*
X637953Y331649D01*
X637792Y330425D01*
X637953Y329202D01*
X638426Y328061D01*
X639177Y327082D01*
X640156Y326331D01*
X641296Y325859D01*
X642520Y325698D01*
X643743Y325859D01*
X644883Y326331D01*
X645863Y327082D01*
X646614Y328061D01*
X647086Y329202D01*
X647247Y330425D01*
X647086Y331649D01*
X646614Y332789D01*
X645863Y333768D01*
X644883Y334519D01*
X643743Y334992D01*
X642520Y335153D01*
D02*
G37*
G36*
X462520D02*
X461296Y334992D01*
X460156Y334519D01*
X459177Y333768D01*
X458426Y332789D01*
X457953Y331649D01*
X457792Y330425D01*
X457953Y329202D01*
X458426Y328061D01*
X459177Y327082D01*
X460156Y326331D01*
X461296Y325859D01*
X462520Y325698D01*
X463743Y325859D01*
X464884Y326331D01*
X465863Y327082D01*
X466614Y328061D01*
X467086Y329202D01*
X467247Y330425D01*
X467086Y331649D01*
X466614Y332789D01*
X465863Y333768D01*
X464884Y334519D01*
X463743Y334992D01*
X462520Y335153D01*
D02*
G37*
G36*
X282520D02*
X281296Y334992D01*
X280156Y334519D01*
X279177Y333768D01*
X278426Y332789D01*
X277953Y331649D01*
X277792Y330425D01*
X277953Y329202D01*
X278426Y328061D01*
X279177Y327082D01*
X280156Y326331D01*
X281296Y325859D01*
X282520Y325698D01*
X283743Y325859D01*
X284883Y326331D01*
X285863Y327082D01*
X286614Y328061D01*
X287086Y329202D01*
X287247Y330425D01*
X287086Y331649D01*
X286614Y332789D01*
X285863Y333768D01*
X284883Y334519D01*
X283743Y334992D01*
X282520Y335153D01*
D02*
G37*
G36*
X102520D02*
X101296Y334992D01*
X100156Y334519D01*
X99177Y333768D01*
X98426Y332789D01*
X97953Y331649D01*
X97792Y330425D01*
X97953Y329202D01*
X98426Y328061D01*
X99177Y327082D01*
X100156Y326331D01*
X101296Y325859D01*
X102520Y325698D01*
X103743Y325859D01*
X104884Y326331D01*
X105863Y327082D01*
X106614Y328061D01*
X107086Y329202D01*
X107247Y330425D01*
X107086Y331649D01*
X106614Y332789D01*
X105863Y333768D01*
X104884Y334519D01*
X103743Y334992D01*
X102520Y335153D01*
D02*
G37*
G36*
X72791Y323299D02*
X71991Y323140D01*
X71313Y322687D01*
X70860Y322009D01*
X70701Y321209D01*
X70860Y320409D01*
X71313Y319731D01*
X71991Y319278D01*
X72791Y319118D01*
X73591Y319278D01*
X74269Y319731D01*
X74722Y320409D01*
X74882Y321209D01*
X74722Y322009D01*
X74269Y322687D01*
X73591Y323140D01*
X72791Y323299D01*
D02*
G37*
G36*
X67791D02*
X66991Y323140D01*
X66313Y322687D01*
X65860Y322009D01*
X65701Y321209D01*
X65860Y320409D01*
X66313Y319731D01*
X66991Y319278D01*
X67791Y319118D01*
X68591Y319278D01*
X69269Y319731D01*
X69722Y320409D01*
X69881Y321209D01*
X69722Y322009D01*
X69269Y322687D01*
X68591Y323140D01*
X67791Y323299D01*
D02*
G37*
G36*
X62791D02*
X61991Y323140D01*
X61313Y322687D01*
X60860Y322009D01*
X60701Y321209D01*
X60860Y320409D01*
X61313Y319731D01*
X61991Y319278D01*
X62791Y319118D01*
X63591Y319278D01*
X64269Y319731D01*
X64722Y320409D01*
X64881Y321209D01*
X64722Y322009D01*
X64269Y322687D01*
X63591Y323140D01*
X62791Y323299D01*
D02*
G37*
G36*
X57791D02*
X56991Y323140D01*
X56313Y322687D01*
X55860Y322009D01*
X55701Y321209D01*
X55860Y320409D01*
X56313Y319731D01*
X56991Y319278D01*
X57791Y319118D01*
X58591Y319278D01*
X59269Y319731D01*
X59722Y320409D01*
X59882Y321209D01*
X59722Y322009D01*
X59269Y322687D01*
X58591Y323140D01*
X57791Y323299D01*
D02*
G37*
G36*
X642520Y325153D02*
X641296Y324991D01*
X640156Y324519D01*
X639177Y323768D01*
X638426Y322789D01*
X637953Y321649D01*
X637792Y320425D01*
X637953Y319201D01*
X638426Y318061D01*
X639177Y317082D01*
X640156Y316331D01*
X641296Y315859D01*
X642520Y315698D01*
X643743Y315859D01*
X644883Y316331D01*
X645863Y317082D01*
X646614Y318061D01*
X647086Y319201D01*
X647247Y320425D01*
X647086Y321649D01*
X646614Y322789D01*
X645863Y323768D01*
X644883Y324519D01*
X643743Y324991D01*
X642520Y325153D01*
D02*
G37*
G36*
X462520D02*
X461296Y324991D01*
X460156Y324519D01*
X459177Y323768D01*
X458426Y322789D01*
X457953Y321649D01*
X457792Y320425D01*
X457953Y319201D01*
X458426Y318061D01*
X459177Y317082D01*
X460156Y316331D01*
X461296Y315859D01*
X462520Y315698D01*
X463743Y315859D01*
X464884Y316331D01*
X465863Y317082D01*
X466614Y318061D01*
X467086Y319201D01*
X467247Y320425D01*
X467086Y321649D01*
X466614Y322789D01*
X465863Y323768D01*
X464884Y324519D01*
X463743Y324991D01*
X462520Y325153D01*
D02*
G37*
G36*
X282520D02*
X281296Y324991D01*
X280156Y324519D01*
X279177Y323768D01*
X278426Y322789D01*
X277953Y321649D01*
X277792Y320425D01*
X277953Y319201D01*
X278426Y318061D01*
X279177Y317082D01*
X280156Y316331D01*
X281296Y315859D01*
X282520Y315698D01*
X283743Y315859D01*
X284883Y316331D01*
X285863Y317082D01*
X286614Y318061D01*
X287086Y319201D01*
X287247Y320425D01*
X287086Y321649D01*
X286614Y322789D01*
X285863Y323768D01*
X284883Y324519D01*
X283743Y324991D01*
X282520Y325153D01*
D02*
G37*
G36*
X102520D02*
X101296Y324991D01*
X100156Y324519D01*
X99177Y323768D01*
X98426Y322789D01*
X97953Y321649D01*
X97792Y320425D01*
X97953Y319201D01*
X98426Y318061D01*
X99177Y317082D01*
X100156Y316331D01*
X101296Y315859D01*
X102520Y315698D01*
X103743Y315859D01*
X104884Y316331D01*
X105863Y317082D01*
X106614Y318061D01*
X107086Y319201D01*
X107247Y320425D01*
X107086Y321649D01*
X106614Y322789D01*
X105863Y323768D01*
X104884Y324519D01*
X103743Y324991D01*
X102520Y325153D01*
D02*
G37*
G36*
X642520Y315153D02*
X641296Y314991D01*
X640156Y314519D01*
X639177Y313768D01*
X638426Y312789D01*
X637953Y311649D01*
X637792Y310425D01*
X637953Y309202D01*
X638426Y308061D01*
X639177Y307082D01*
X640156Y306331D01*
X641296Y305859D01*
X642520Y305698D01*
X643743Y305859D01*
X644883Y306331D01*
X645863Y307082D01*
X646614Y308061D01*
X647086Y309202D01*
X647247Y310425D01*
X647086Y311649D01*
X646614Y312789D01*
X645863Y313768D01*
X644883Y314519D01*
X643743Y314991D01*
X642520Y315153D01*
D02*
G37*
G36*
X462520D02*
X461296Y314991D01*
X460156Y314519D01*
X459177Y313768D01*
X458426Y312789D01*
X457953Y311649D01*
X457792Y310425D01*
X457953Y309202D01*
X458426Y308061D01*
X459177Y307082D01*
X460156Y306331D01*
X461296Y305859D01*
X462520Y305698D01*
X463743Y305859D01*
X464884Y306331D01*
X465863Y307082D01*
X466614Y308061D01*
X467086Y309202D01*
X467247Y310425D01*
X467086Y311649D01*
X466614Y312789D01*
X465863Y313768D01*
X464884Y314519D01*
X463743Y314991D01*
X462520Y315153D01*
D02*
G37*
G36*
X261291Y302890D02*
X260491Y302731D01*
X259813Y302278D01*
X259360Y301600D01*
X259201Y300800D01*
X259360Y300000D01*
X259813Y299322D01*
X260491Y298869D01*
X261291Y298710D01*
X262091Y298869D01*
X262769Y299322D01*
X263222Y300000D01*
X263382Y300800D01*
X263222Y301600D01*
X262769Y302278D01*
X262091Y302731D01*
X261291Y302890D01*
D02*
G37*
G36*
X84291D02*
X83491Y302731D01*
X82813Y302278D01*
X82360Y301600D01*
X82201Y300800D01*
X82360Y300000D01*
X82813Y299322D01*
X83491Y298869D01*
X84291Y298710D01*
X85091Y298869D01*
X85769Y299322D01*
X86222Y300000D01*
X86382Y300800D01*
X86222Y301600D01*
X85769Y302278D01*
X85091Y302731D01*
X84291Y302890D01*
D02*
G37*
G36*
X56803Y301378D02*
X56003Y301219D01*
X55325Y300766D01*
X54872Y300088D01*
X54713Y299288D01*
X54872Y298488D01*
X55325Y297810D01*
X56003Y297357D01*
X56296Y297299D01*
Y296789D01*
X56003Y296731D01*
X55325Y296278D01*
X54872Y295600D01*
X54713Y294800D01*
X54872Y294000D01*
X55325Y293322D01*
X56003Y292869D01*
X56803Y292710D01*
X57603Y292869D01*
X58281Y293322D01*
X58734Y294000D01*
X58893Y294800D01*
X58734Y295600D01*
X58281Y296278D01*
X57603Y296731D01*
X57311Y296789D01*
Y297299D01*
X57603Y297357D01*
X58281Y297810D01*
X58734Y298488D01*
X58893Y299288D01*
X58734Y300088D01*
X58281Y300766D01*
X57603Y301219D01*
X56803Y301378D01*
D02*
G37*
G36*
X102520Y305153D02*
X101296Y304992D01*
X100156Y304519D01*
X99177Y303768D01*
X98426Y302789D01*
X97953Y301649D01*
X97792Y300425D01*
X97953Y299201D01*
X98426Y298061D01*
X99177Y297082D01*
X100156Y296331D01*
X101296Y295859D01*
X101717Y295803D01*
Y295299D01*
X101231Y295235D01*
X100030Y294738D01*
X98999Y293946D01*
X98207Y292915D01*
X97710Y291714D01*
X97672Y291425D01*
X102520D01*
X107368D01*
X107330Y291714D01*
X106832Y292915D01*
X106041Y293946D01*
X105010Y294738D01*
X103809Y295235D01*
X103323Y295299D01*
Y295803D01*
X103743Y295859D01*
X104884Y296331D01*
X105863Y297082D01*
X106614Y298061D01*
X107086Y299201D01*
X107247Y300425D01*
X107086Y301649D01*
X106614Y302789D01*
X105863Y303768D01*
X104884Y304519D01*
X103743Y304992D01*
X102520Y305153D01*
D02*
G37*
G36*
X462520D02*
X461296Y304992D01*
X460156Y304519D01*
X459177Y303768D01*
X458426Y302789D01*
X457953Y301649D01*
X457792Y300425D01*
X457953Y299201D01*
X458426Y298061D01*
X459177Y297082D01*
X460156Y296331D01*
X461296Y295859D01*
X461717Y295803D01*
Y295299D01*
X461231Y295235D01*
X460030Y294738D01*
X458999Y293946D01*
X458207Y292915D01*
X457710Y291714D01*
X457672Y291425D01*
X462520D01*
X467368D01*
X467330Y291714D01*
X466832Y292915D01*
X466041Y293946D01*
X465010Y294738D01*
X463809Y295235D01*
X463323Y295299D01*
Y295803D01*
X463743Y295859D01*
X464884Y296331D01*
X465863Y297082D01*
X466614Y298061D01*
X467086Y299201D01*
X467247Y300425D01*
X467086Y301649D01*
X466614Y302789D01*
X465863Y303768D01*
X464884Y304519D01*
X463743Y304992D01*
X462520Y305153D01*
D02*
G37*
G36*
X282520D02*
X281296Y304992D01*
X280156Y304519D01*
X279177Y303768D01*
X278426Y302789D01*
X277953Y301649D01*
X277792Y300425D01*
X277953Y299201D01*
X278426Y298061D01*
X279177Y297082D01*
X280156Y296331D01*
X281296Y295859D01*
X281717Y295803D01*
Y295299D01*
X281231Y295235D01*
X280030Y294738D01*
X278999Y293946D01*
X278207Y292915D01*
X277710Y291714D01*
X277672Y291425D01*
X282520D01*
X287368D01*
X287330Y291714D01*
X286832Y292915D01*
X286041Y293946D01*
X285010Y294738D01*
X283809Y295235D01*
X283323Y295299D01*
Y295803D01*
X283743Y295859D01*
X284883Y296331D01*
X285863Y297082D01*
X286614Y298061D01*
X287086Y299201D01*
X287247Y300425D01*
X287086Y301649D01*
X286614Y302789D01*
X285863Y303768D01*
X284883Y304519D01*
X283743Y304992D01*
X282520Y305153D01*
D02*
G37*
G36*
X642520D02*
X641296Y304992D01*
X640156Y304519D01*
X639177Y303768D01*
X638426Y302789D01*
X637953Y301649D01*
X637792Y300425D01*
X637953Y299201D01*
X638426Y298061D01*
X639177Y297082D01*
X640156Y296331D01*
X641296Y295859D01*
X641717Y295803D01*
Y295299D01*
X641231Y295235D01*
X640030Y294738D01*
X638999Y293946D01*
X638207Y292915D01*
X637710Y291714D01*
X637672Y291425D01*
X642520D01*
X647368D01*
X647330Y291714D01*
X646832Y292915D01*
X646041Y293946D01*
X645010Y294738D01*
X643809Y295235D01*
X643323Y295299D01*
Y295803D01*
X643743Y295859D01*
X644883Y296331D01*
X645863Y297082D01*
X646614Y298061D01*
X647086Y299201D01*
X647247Y300425D01*
X647086Y301649D01*
X646614Y302789D01*
X645863Y303768D01*
X644883Y304519D01*
X643743Y304992D01*
X642520Y305153D01*
D02*
G37*
G36*
X467368Y289425D02*
X462520D01*
X457672D01*
X457710Y289136D01*
X458207Y287935D01*
X458999Y286904D01*
X460030Y286113D01*
X461231Y285615D01*
X461254Y285612D01*
X461221Y285112D01*
X457833D01*
Y283703D01*
X287207D01*
Y285112D01*
X283818D01*
X283785Y285612D01*
X283809Y285615D01*
X285010Y286113D01*
X286041Y286904D01*
X286832Y287935D01*
X287330Y289136D01*
X287368Y289425D01*
X282520D01*
X277672D01*
X277710Y289136D01*
X278207Y287935D01*
X278999Y286904D01*
X280030Y286113D01*
X281231Y285615D01*
X281254Y285612D01*
X281221Y285112D01*
X277833D01*
Y275738D01*
X287207D01*
Y277147D01*
X457833D01*
Y275738D01*
X459242D01*
Y172272D01*
X459298Y171848D01*
X459353Y171424D01*
X459681Y170633D01*
X460202Y169954D01*
X522401Y107756D01*
Y94627D01*
X522459Y94334D01*
X522625Y94086D01*
X522873Y93920D01*
X523165Y93862D01*
X524715D01*
X525105Y93278D01*
X525783Y92825D01*
X526583Y92666D01*
X527383Y92825D01*
X528061Y93278D01*
X528451Y93862D01*
X529715D01*
X530105Y93278D01*
X530783Y92825D01*
X531583Y92666D01*
X532383Y92825D01*
X533061Y93278D01*
X533451Y93862D01*
X535165D01*
X535458Y93920D01*
X535706Y94086D01*
X535872Y94334D01*
X535930Y94627D01*
Y111627D01*
X535872Y111919D01*
X535706Y112168D01*
X535458Y112333D01*
X535165Y112391D01*
X527037D01*
X465798Y173630D01*
Y275738D01*
X467207D01*
Y285112D01*
X463818D01*
X463785Y285612D01*
X463809Y285615D01*
X465010Y286113D01*
X466041Y286904D01*
X466832Y287935D01*
X467330Y289136D01*
X467368Y289425D01*
D02*
G37*
G36*
X647368Y289425D02*
X642520D01*
X637672D01*
X637710Y289136D01*
X638207Y287935D01*
X638999Y286904D01*
X640030Y286113D01*
X641231Y285615D01*
X641254Y285612D01*
X641221Y285112D01*
X637833D01*
Y275738D01*
X647207D01*
Y285112D01*
X643818D01*
X643785Y285612D01*
X643809Y285615D01*
X645010Y286113D01*
X646041Y286904D01*
X646832Y287935D01*
X647330Y289136D01*
X647368Y289425D01*
D02*
G37*
G36*
X107368Y289425D02*
X102520D01*
X97672D01*
X97710Y289136D01*
X98207Y287935D01*
X98999Y286904D01*
X100030Y286113D01*
X101231Y285615D01*
X101254Y285612D01*
X101221Y285112D01*
X97833D01*
Y275738D01*
X107207D01*
Y285112D01*
X103818D01*
X103785Y285612D01*
X103809Y285615D01*
X105010Y286113D01*
X106041Y286904D01*
X106832Y287935D01*
X107330Y289136D01*
X107368Y289425D01*
D02*
G37*
G36*
X24000Y249994D02*
X22656Y249817D01*
X21403Y249298D01*
X20327Y248473D01*
X19650Y247590D01*
X19150Y247759D01*
Y249950D01*
X8850D01*
Y239650D01*
X9461D01*
Y200150D01*
X8850D01*
Y189850D01*
X9461D01*
Y148981D01*
X8850D01*
Y138682D01*
X9461D01*
Y99171D01*
X8850D01*
Y88871D01*
X9461D01*
Y49950D01*
X8850D01*
Y39650D01*
X19150D01*
Y41841D01*
X19650Y42010D01*
X20327Y41127D01*
X21403Y40302D01*
X22656Y39783D01*
X24000Y39606D01*
X25344Y39783D01*
X26597Y40302D01*
X27673Y41127D01*
X28498Y42203D01*
X29017Y43456D01*
X29194Y44800D01*
X29017Y46144D01*
X28498Y47397D01*
X27673Y48473D01*
X26597Y49298D01*
X25344Y49817D01*
X24000Y49994D01*
X22656Y49817D01*
X21403Y49298D01*
X20327Y48473D01*
X19650Y47590D01*
X19150Y47759D01*
Y49950D01*
X18539D01*
Y88871D01*
X19150D01*
Y91062D01*
X19650Y91231D01*
X20327Y90348D01*
X21403Y89523D01*
X22656Y89004D01*
X24000Y88827D01*
X25344Y89004D01*
X26597Y89523D01*
X27673Y90348D01*
X28498Y91424D01*
X29017Y92677D01*
X29194Y94021D01*
X29017Y95365D01*
X28498Y96618D01*
X27673Y97694D01*
X26597Y98519D01*
X25344Y99038D01*
X24000Y99215D01*
X22656Y99038D01*
X21403Y98519D01*
X20327Y97694D01*
X19650Y96811D01*
X19150Y96980D01*
Y99171D01*
X18539D01*
Y138682D01*
X19150D01*
Y140872D01*
X19650Y141042D01*
X20327Y140159D01*
X21403Y139333D01*
X22656Y138814D01*
X24000Y138637D01*
X25344Y138814D01*
X26597Y139333D01*
X27673Y140159D01*
X28498Y141234D01*
X29017Y142487D01*
X29194Y143831D01*
X29017Y145176D01*
X28498Y146428D01*
X27673Y147504D01*
X26597Y148329D01*
X25344Y148848D01*
X24000Y149025D01*
X22656Y148848D01*
X21403Y148329D01*
X20327Y147504D01*
X19650Y146621D01*
X19150Y146791D01*
Y148981D01*
X18539D01*
Y189850D01*
X19150D01*
Y192041D01*
X19650Y192210D01*
X20327Y191327D01*
X21403Y190502D01*
X22656Y189983D01*
X24000Y189806D01*
X25344Y189983D01*
X26597Y190502D01*
X27673Y191327D01*
X28498Y192403D01*
X29017Y193656D01*
X29194Y195000D01*
X29017Y196344D01*
X28498Y197597D01*
X27673Y198673D01*
X26597Y199498D01*
X25344Y200017D01*
X24000Y200194D01*
X22656Y200017D01*
X21403Y199498D01*
X20327Y198673D01*
X19650Y197790D01*
X19150Y197959D01*
Y200150D01*
X18539D01*
Y239650D01*
X19150D01*
Y241841D01*
X19650Y242010D01*
X20327Y241127D01*
X21403Y240302D01*
X22656Y239783D01*
X24000Y239606D01*
X25344Y239783D01*
X26597Y240302D01*
X27673Y241127D01*
X28498Y242203D01*
X29017Y243456D01*
X29194Y244800D01*
X29017Y246144D01*
X28498Y247397D01*
X27673Y248473D01*
X26597Y249298D01*
X25344Y249817D01*
X24000Y249994D01*
D02*
G37*
G36*
X64000D02*
X62656Y249817D01*
X61403Y249298D01*
X60327Y248473D01*
X59502Y247397D01*
X59250Y246789D01*
X58750D01*
X58498Y247397D01*
X57673Y248473D01*
X56597Y249298D01*
X55344Y249817D01*
X54000Y249994D01*
X52656Y249817D01*
X51403Y249298D01*
X50327Y248473D01*
X49502Y247397D01*
X48983Y246144D01*
X48806Y244800D01*
X48983Y243456D01*
X49502Y242203D01*
X50327Y241127D01*
X51403Y240302D01*
X52656Y239783D01*
X54000Y239606D01*
X55344Y239783D01*
X56597Y240302D01*
X57673Y241127D01*
X58498Y242203D01*
X58750Y242811D01*
X59250D01*
X59502Y242203D01*
X60327Y241127D01*
X61403Y240302D01*
X62656Y239783D01*
X64000Y239606D01*
X65344Y239783D01*
X66597Y240302D01*
X67673Y241127D01*
X68498Y242203D01*
X69017Y243456D01*
X69194Y244800D01*
X69017Y246144D01*
X68498Y247397D01*
X67673Y248473D01*
X66597Y249298D01*
X65344Y249817D01*
X64000Y249994D01*
D02*
G37*
G36*
X102000Y245090D02*
X101200Y244931D01*
X100522Y244478D01*
X100301Y244147D01*
X99699D01*
X99478Y244478D01*
X98800Y244931D01*
X98000Y245090D01*
X97200Y244931D01*
X96522Y244478D01*
X96301Y244147D01*
X95699D01*
X95478Y244478D01*
X94800Y244931D01*
X94000Y245090D01*
X93200Y244931D01*
X92522Y244478D01*
X92069Y243800D01*
X91910Y243000D01*
X92069Y242200D01*
X92522Y241522D01*
X93200Y241069D01*
X94000Y240910D01*
X94800Y241069D01*
X95478Y241522D01*
X95699Y241853D01*
X96301D01*
X96522Y241522D01*
X97200Y241069D01*
X98000Y240910D01*
X98800Y241069D01*
X99478Y241522D01*
X99699Y241853D01*
X100301D01*
X100522Y241522D01*
X101200Y241069D01*
X102000Y240910D01*
X102800Y241069D01*
X103478Y241522D01*
X103931Y242200D01*
X104090Y243000D01*
X103931Y243800D01*
X103478Y244478D01*
X102800Y244931D01*
X102000Y245090D01*
D02*
G37*
G36*
X84000Y248733D02*
X82982Y248599D01*
X82033Y248206D01*
X81219Y247581D01*
X80594Y246767D01*
X80201Y245818D01*
X80067Y244800D01*
X80201Y243782D01*
X80594Y242833D01*
X81219Y242019D01*
X82033Y241394D01*
X82982Y241001D01*
X84000Y240867D01*
X85018Y241001D01*
X85967Y241394D01*
X86781Y242019D01*
X87406Y242833D01*
X87799Y243782D01*
X87933Y244800D01*
X87799Y245818D01*
X87406Y246767D01*
X86781Y247581D01*
X85967Y248206D01*
X85018Y248599D01*
X84000Y248733D01*
D02*
G37*
G36*
X74000D02*
X72982Y248599D01*
X72033Y248206D01*
X71219Y247581D01*
X70594Y246767D01*
X70201Y245818D01*
X70067Y244800D01*
X70201Y243782D01*
X70594Y242833D01*
X71219Y242019D01*
X72033Y241394D01*
X72982Y241001D01*
X74000Y240867D01*
X75018Y241001D01*
X75967Y241394D01*
X76781Y242019D01*
X77406Y242833D01*
X77799Y243782D01*
X77933Y244800D01*
X77799Y245818D01*
X77406Y246767D01*
X76781Y247581D01*
X75967Y248206D01*
X75018Y248599D01*
X74000Y248733D01*
D02*
G37*
G36*
X34000D02*
X32982Y248599D01*
X32033Y248206D01*
X31219Y247581D01*
X30594Y246767D01*
X30201Y245818D01*
X30067Y244800D01*
X30201Y243782D01*
X30594Y242833D01*
X31219Y242019D01*
X32033Y241394D01*
X32982Y241001D01*
X34000Y240867D01*
X35018Y241001D01*
X35967Y241394D01*
X36781Y242019D01*
X37406Y242833D01*
X37799Y243782D01*
X37933Y244800D01*
X37799Y245818D01*
X37406Y246767D01*
X36781Y247581D01*
X35967Y248206D01*
X35018Y248599D01*
X34000Y248733D01*
D02*
G37*
G36*
X772552Y260521D02*
X770735Y260378D01*
X768963Y259953D01*
X767280Y259256D01*
X765726Y258303D01*
X764340Y257120D01*
X763157Y255734D01*
X762205Y254181D01*
X761507Y252497D01*
X761082Y250725D01*
X760939Y248909D01*
X761082Y247092D01*
X761507Y245320D01*
X762205Y243637D01*
X763157Y242083D01*
X764340Y240697D01*
X765726Y239514D01*
X767280Y238562D01*
X768963Y237864D01*
X770735Y237439D01*
X772552Y237296D01*
X774368Y237439D01*
X776140Y237864D01*
X777824Y238562D01*
X779377Y239514D01*
X780763Y240697D01*
X781946Y242083D01*
X782899Y243637D01*
X783596Y245320D01*
X784021Y247092D01*
X784164Y248909D01*
X784021Y250725D01*
X783596Y252497D01*
X782899Y254181D01*
X781946Y255734D01*
X780763Y257120D01*
X779377Y258303D01*
X777824Y259256D01*
X776140Y259953D01*
X774368Y260378D01*
X772552Y260521D01*
D02*
G37*
G36*
X592552D02*
X590735Y260378D01*
X588963Y259953D01*
X587280Y259256D01*
X585726Y258303D01*
X584340Y257120D01*
X583157Y255734D01*
X582205Y254181D01*
X581507Y252497D01*
X581082Y250725D01*
X580939Y248909D01*
X581082Y247092D01*
X581507Y245320D01*
X582205Y243637D01*
X583157Y242083D01*
X584340Y240697D01*
X585726Y239514D01*
X587280Y238562D01*
X588963Y237864D01*
X590735Y237439D01*
X592552Y237296D01*
X594368Y237439D01*
X596140Y237864D01*
X597824Y238562D01*
X599377Y239514D01*
X600763Y240697D01*
X601946Y242083D01*
X602899Y243637D01*
X603596Y245320D01*
X604021Y247092D01*
X604164Y248909D01*
X604021Y250725D01*
X603596Y252497D01*
X602899Y254181D01*
X601946Y255734D01*
X600763Y257120D01*
X599377Y258303D01*
X597824Y259256D01*
X596140Y259953D01*
X594368Y260378D01*
X592552Y260521D01*
D02*
G37*
G36*
X412552D02*
X410735Y260378D01*
X408963Y259953D01*
X407280Y259256D01*
X405726Y258303D01*
X404340Y257120D01*
X403157Y255734D01*
X402205Y254181D01*
X401507Y252497D01*
X401082Y250725D01*
X400939Y248909D01*
X401082Y247092D01*
X401507Y245320D01*
X402205Y243637D01*
X403157Y242083D01*
X404340Y240697D01*
X405726Y239514D01*
X407280Y238562D01*
X408963Y237864D01*
X410735Y237439D01*
X412552Y237296D01*
X414368Y237439D01*
X416140Y237864D01*
X417824Y238562D01*
X419377Y239514D01*
X420763Y240697D01*
X421946Y242083D01*
X422898Y243637D01*
X423596Y245320D01*
X424021Y247092D01*
X424164Y248909D01*
X424021Y250725D01*
X423596Y252497D01*
X422898Y254181D01*
X421946Y255734D01*
X420763Y257120D01*
X419377Y258303D01*
X417824Y259256D01*
X416140Y259953D01*
X414368Y260378D01*
X412552Y260521D01*
D02*
G37*
G36*
X232552D02*
X230735Y260378D01*
X228963Y259953D01*
X227280Y259256D01*
X225726Y258303D01*
X224340Y257120D01*
X223157Y255734D01*
X222205Y254181D01*
X221507Y252497D01*
X221082Y250725D01*
X220939Y248909D01*
X221082Y247092D01*
X221507Y245320D01*
X222205Y243637D01*
X223157Y242083D01*
X224340Y240697D01*
X225726Y239514D01*
X227280Y238562D01*
X228963Y237864D01*
X230735Y237439D01*
X232552Y237296D01*
X234368Y237439D01*
X236140Y237864D01*
X237824Y238562D01*
X239377Y239514D01*
X240763Y240697D01*
X241946Y242083D01*
X242899Y243637D01*
X243596Y245320D01*
X244021Y247092D01*
X244164Y248909D01*
X244021Y250725D01*
X243596Y252497D01*
X242899Y254181D01*
X241946Y255734D01*
X240763Y257120D01*
X239377Y258303D01*
X237824Y259256D01*
X236140Y259953D01*
X234368Y260378D01*
X232552Y260521D01*
D02*
G37*
G36*
X339000Y267539D02*
X279000D01*
X277825Y267384D01*
X276731Y266931D01*
X275791Y266209D01*
X275791Y266209D01*
X184791Y175209D01*
X184069Y174269D01*
X183616Y173175D01*
X183461Y172000D01*
Y111000D01*
X183616Y109825D01*
X184069Y108731D01*
X184791Y107791D01*
X203575Y89006D01*
Y78044D01*
X203731Y77264D01*
X204173Y76602D01*
X204834Y76160D01*
X205615Y76005D01*
X209010D01*
Y55948D01*
X209165Y54773D01*
X209618Y53678D01*
X210340Y52738D01*
X233308Y29770D01*
X233308Y29770D01*
X233954Y29274D01*
X234039Y29115D01*
X234781Y28211D01*
X235685Y27469D01*
X236716Y26917D01*
X237835Y26578D01*
X238999Y26463D01*
X240163Y26578D01*
X241282Y26917D01*
X242314Y27469D01*
X242827Y27890D01*
X415171D01*
X415685Y27469D01*
X416716Y26917D01*
X417836Y26578D01*
X418999Y26463D01*
X420163Y26578D01*
X421282Y26917D01*
X422314Y27469D01*
X423218Y28211D01*
X423960Y29115D01*
X424511Y30146D01*
X424850Y31265D01*
X424965Y32429D01*
X424850Y33593D01*
X424511Y34712D01*
X423960Y35743D01*
X423218Y36647D01*
X422314Y37389D01*
X421472Y37839D01*
X421422Y38069D01*
X421433Y38357D01*
X421449Y38401D01*
X422342Y39086D01*
X423093Y40065D01*
X423566Y41205D01*
X423727Y42429D01*
X423566Y43652D01*
X423093Y44793D01*
X422342Y45772D01*
X422021Y46018D01*
X422181Y46492D01*
X424936D01*
Y58366D01*
X413062D01*
Y56968D01*
X244936D01*
Y58366D01*
X243538D01*
Y117541D01*
X243384Y118716D01*
X242930Y119811D01*
X242209Y120751D01*
X217654Y145306D01*
Y153235D01*
X295880Y231461D01*
X317703D01*
X318220Y231116D01*
X319000Y230961D01*
X335000D01*
X335780Y231116D01*
X336442Y231558D01*
X336884Y232220D01*
X337039Y233000D01*
Y249000D01*
X336884Y249780D01*
X336442Y250442D01*
X335780Y250884D01*
X335000Y251039D01*
X319000D01*
X318220Y250884D01*
X317558Y250442D01*
X317116Y249780D01*
X316961Y249000D01*
Y240539D01*
X294000D01*
X294000Y240539D01*
X292825Y240384D01*
X291731Y239931D01*
X290791Y239209D01*
X290791Y239209D01*
X212664Y161083D01*
X203615D01*
X202834Y160928D01*
X202173Y160486D01*
X201731Y159825D01*
X201575Y159044D01*
Y142044D01*
X201731Y141264D01*
X202173Y140602D01*
X202834Y140160D01*
X203615Y140005D01*
X210117D01*
X234460Y115661D01*
Y58366D01*
X233062D01*
Y46492D01*
X235817D01*
X235978Y46018D01*
X235656Y45772D01*
X234905Y44793D01*
X234433Y43652D01*
X234272Y42429D01*
X234289Y42296D01*
X233841Y42074D01*
X218088Y57828D01*
Y76099D01*
X218395Y76160D01*
X219057Y76602D01*
X219499Y77264D01*
X219654Y78044D01*
Y95044D01*
X219499Y95824D01*
X219057Y96486D01*
X218395Y96928D01*
X217615Y97083D01*
X208336D01*
X192539Y112880D01*
Y170120D01*
X280880Y258461D01*
X337120D01*
X350961Y244620D01*
Y233000D01*
X351116Y232220D01*
X351558Y231558D01*
X352220Y231116D01*
X353000Y230961D01*
X369000D01*
X369780Y231116D01*
X370442Y231558D01*
X370884Y232220D01*
X371039Y233000D01*
Y249000D01*
X370884Y249780D01*
X370442Y250442D01*
X369780Y250884D01*
X369000Y251039D01*
X357380D01*
X342209Y266209D01*
X341269Y266931D01*
X340175Y267384D01*
X339000Y267539D01*
D02*
G37*
G36*
X64000Y200194D02*
X62656Y200017D01*
X61403Y199498D01*
X60327Y198673D01*
X59502Y197597D01*
X59250Y196989D01*
X58750D01*
X58498Y197597D01*
X57673Y198673D01*
X56597Y199498D01*
X55344Y200017D01*
X54000Y200194D01*
X52656Y200017D01*
X51403Y199498D01*
X50327Y198673D01*
X49502Y197597D01*
X48983Y196344D01*
X48806Y195000D01*
X48983Y193656D01*
X49502Y192403D01*
X50327Y191327D01*
X51403Y190502D01*
X52656Y189983D01*
X54000Y189806D01*
X55344Y189983D01*
X56597Y190502D01*
X57673Y191327D01*
X58498Y192403D01*
X58750Y193011D01*
X59250D01*
X59502Y192403D01*
X60327Y191327D01*
X61403Y190502D01*
X62656Y189983D01*
X64000Y189806D01*
X65344Y189983D01*
X66597Y190502D01*
X67673Y191327D01*
X68498Y192403D01*
X69017Y193656D01*
X69194Y195000D01*
X69017Y196344D01*
X68498Y197597D01*
X67673Y198673D01*
X66597Y199498D01*
X65344Y200017D01*
X64000Y200194D01*
D02*
G37*
G36*
X84000Y198933D02*
X82982Y198799D01*
X82033Y198406D01*
X81219Y197781D01*
X80594Y196967D01*
X80201Y196018D01*
X80067Y195000D01*
X80201Y193982D01*
X80594Y193033D01*
X81219Y192219D01*
X82033Y191594D01*
X82982Y191201D01*
X84000Y191067D01*
X85018Y191201D01*
X85967Y191594D01*
X86781Y192219D01*
X87406Y193033D01*
X87799Y193982D01*
X87933Y195000D01*
X87799Y196018D01*
X87406Y196967D01*
X86781Y197781D01*
X85967Y198406D01*
X85018Y198799D01*
X84000Y198933D01*
D02*
G37*
G36*
X74000D02*
X72982Y198799D01*
X72033Y198406D01*
X71219Y197781D01*
X70594Y196967D01*
X70201Y196018D01*
X70067Y195000D01*
X70201Y193982D01*
X70594Y193033D01*
X71219Y192219D01*
X72033Y191594D01*
X72982Y191201D01*
X74000Y191067D01*
X75018Y191201D01*
X75967Y191594D01*
X76781Y192219D01*
X77406Y193033D01*
X77799Y193982D01*
X77933Y195000D01*
X77799Y196018D01*
X77406Y196967D01*
X76781Y197781D01*
X75967Y198406D01*
X75018Y198799D01*
X74000Y198933D01*
D02*
G37*
G36*
X34000D02*
X32982Y198799D01*
X32033Y198406D01*
X31219Y197781D01*
X30594Y196967D01*
X30201Y196018D01*
X30067Y195000D01*
X30201Y193982D01*
X30594Y193033D01*
X31219Y192219D01*
X32033Y191594D01*
X32982Y191201D01*
X34000Y191067D01*
X35018Y191201D01*
X35967Y191594D01*
X36781Y192219D01*
X37406Y193033D01*
X37799Y193982D01*
X37933Y195000D01*
X37799Y196018D01*
X37406Y196967D01*
X36781Y197781D01*
X35967Y198406D01*
X35018Y198799D01*
X34000Y198933D01*
D02*
G37*
G36*
X102000Y192090D02*
X101200Y191931D01*
X100522Y191478D01*
X100240Y191056D01*
X99647Y191044D01*
X99405Y191405D01*
X98727Y191858D01*
X97927Y192018D01*
X97128Y191858D01*
X96450Y191405D01*
X95996Y190727D01*
X95837Y189927D01*
X95996Y189128D01*
X96450Y188450D01*
X97128Y187996D01*
X97927Y187837D01*
X98727Y187996D01*
X99405Y188450D01*
X99687Y188871D01*
X100281Y188883D01*
X100522Y188522D01*
X101200Y188069D01*
X102000Y187910D01*
X102800Y188069D01*
X103478Y188522D01*
X103931Y189200D01*
X104090Y190000D01*
X103931Y190800D01*
X103478Y191478D01*
X102800Y191931D01*
X102000Y192090D01*
D02*
G37*
G36*
X526453Y192790D02*
X525653Y192631D01*
X524975Y192178D01*
X524522Y191500D01*
X524363Y190700D01*
X524522Y189900D01*
X524975Y189222D01*
X525653Y188769D01*
X526453Y188610D01*
X527253Y188769D01*
X527931Y189222D01*
X528384Y189900D01*
X528543Y190700D01*
X528384Y191500D01*
X527931Y192178D01*
X527253Y192631D01*
X526453Y192790D01*
D02*
G37*
G36*
X521453D02*
X520653Y192631D01*
X519975Y192178D01*
X519522Y191500D01*
X519363Y190700D01*
X519522Y189900D01*
X519975Y189222D01*
X520653Y188769D01*
X521453Y188610D01*
X522253Y188769D01*
X522931Y189222D01*
X523384Y189900D01*
X523543Y190700D01*
X523384Y191500D01*
X522931Y192178D01*
X522253Y192631D01*
X521453Y192790D01*
D02*
G37*
G36*
X516453D02*
X515653Y192631D01*
X514975Y192178D01*
X514522Y191500D01*
X514363Y190700D01*
X514522Y189900D01*
X514975Y189222D01*
X515653Y188769D01*
X516453Y188610D01*
X517253Y188769D01*
X517931Y189222D01*
X518384Y189900D01*
X518543Y190700D01*
X518384Y191500D01*
X517931Y192178D01*
X517253Y192631D01*
X516453Y192790D01*
D02*
G37*
G36*
X511453D02*
X510653Y192631D01*
X509975Y192178D01*
X509522Y191500D01*
X509363Y190700D01*
X509522Y189900D01*
X509975Y189222D01*
X510653Y188769D01*
X511453Y188610D01*
X512253Y188769D01*
X512931Y189222D01*
X513384Y189900D01*
X513543Y190700D01*
X513384Y191500D01*
X512931Y192178D01*
X512253Y192631D01*
X511453Y192790D01*
D02*
G37*
G36*
X506453D02*
X505653Y192631D01*
X504975Y192178D01*
X504522Y191500D01*
X504363Y190700D01*
X504522Y189900D01*
X504975Y189222D01*
X505653Y188769D01*
X506453Y188610D01*
X507253Y188769D01*
X507931Y189222D01*
X508384Y189900D01*
X508543Y190700D01*
X508384Y191500D01*
X507931Y192178D01*
X507253Y192631D01*
X506453Y192790D01*
D02*
G37*
G36*
X501453D02*
X500653Y192631D01*
X499975Y192178D01*
X499522Y191500D01*
X499363Y190700D01*
X499522Y189900D01*
X499975Y189222D01*
X500653Y188769D01*
X501453Y188610D01*
X502253Y188769D01*
X502931Y189222D01*
X503384Y189900D01*
X503543Y190700D01*
X503384Y191500D01*
X502931Y192178D01*
X502253Y192631D01*
X501453Y192790D01*
D02*
G37*
G36*
X570814Y192699D02*
X570014Y192540D01*
X569336Y192087D01*
X568883Y191409D01*
X568723Y190609D01*
X568883Y189809D01*
X569336Y189131D01*
X570014Y188678D01*
X570814Y188519D01*
X571614Y188678D01*
X572292Y189131D01*
X572745Y189809D01*
X572904Y190609D01*
X572745Y191409D01*
X572292Y192087D01*
X571614Y192540D01*
X570814Y192699D01*
D02*
G37*
G36*
X565814D02*
X565014Y192540D01*
X564336Y192087D01*
X563883Y191409D01*
X563724Y190609D01*
X563883Y189809D01*
X564336Y189131D01*
X565014Y188678D01*
X565814Y188519D01*
X566613Y188678D01*
X567292Y189131D01*
X567745Y189809D01*
X567904Y190609D01*
X567745Y191409D01*
X567292Y192087D01*
X566613Y192540D01*
X565814Y192699D01*
D02*
G37*
G36*
X560814D02*
X560014Y192540D01*
X559336Y192087D01*
X558883Y191409D01*
X558723Y190609D01*
X558883Y189809D01*
X559336Y189131D01*
X560014Y188678D01*
X560814Y188519D01*
X561614Y188678D01*
X562292Y189131D01*
X562745Y189809D01*
X562904Y190609D01*
X562745Y191409D01*
X562292Y192087D01*
X561614Y192540D01*
X560814Y192699D01*
D02*
G37*
G36*
X555814D02*
X555014Y192540D01*
X554336Y192087D01*
X553883Y191409D01*
X553723Y190609D01*
X553883Y189809D01*
X554336Y189131D01*
X555014Y188678D01*
X555814Y188519D01*
X556613Y188678D01*
X557292Y189131D01*
X557745Y189809D01*
X557904Y190609D01*
X557745Y191409D01*
X557292Y192087D01*
X556613Y192540D01*
X555814Y192699D01*
D02*
G37*
G36*
X550814D02*
X550014Y192540D01*
X549336Y192087D01*
X548883Y191409D01*
X548724Y190609D01*
X548883Y189809D01*
X549336Y189131D01*
X550014Y188678D01*
X550814Y188519D01*
X551614Y188678D01*
X552292Y189131D01*
X552745Y189809D01*
X552904Y190609D01*
X552745Y191409D01*
X552292Y192087D01*
X551614Y192540D01*
X550814Y192699D01*
D02*
G37*
G36*
X545814D02*
X545014Y192540D01*
X544336Y192087D01*
X543883Y191409D01*
X543723Y190609D01*
X543883Y189809D01*
X544336Y189131D01*
X545014Y188678D01*
X545814Y188519D01*
X546614Y188678D01*
X547292Y189131D01*
X547745Y189809D01*
X547904Y190609D01*
X547745Y191409D01*
X547292Y192087D01*
X546614Y192540D01*
X545814Y192699D01*
D02*
G37*
G36*
X93000Y192090D02*
X92200Y191931D01*
X91522Y191478D01*
X91069Y190800D01*
X90910Y190000D01*
X91069Y189200D01*
X91522Y188522D01*
X92200Y188069D01*
X93000Y187910D01*
X93800Y188069D01*
X94478Y188522D01*
X94931Y189200D01*
X95090Y190000D01*
X94931Y190800D01*
X94478Y191478D01*
X93800Y191931D01*
X93000Y192090D01*
D02*
G37*
G36*
X526453Y187790D02*
X525653Y187631D01*
X524975Y187178D01*
X524522Y186500D01*
X524363Y185700D01*
X524522Y184900D01*
X524975Y184222D01*
X525653Y183769D01*
X526453Y183610D01*
X527253Y183769D01*
X527931Y184222D01*
X528384Y184900D01*
X528543Y185700D01*
X528384Y186500D01*
X527931Y187178D01*
X527253Y187631D01*
X526453Y187790D01*
D02*
G37*
G36*
X521453D02*
X520653Y187631D01*
X519975Y187178D01*
X519522Y186500D01*
X519363Y185700D01*
X519522Y184900D01*
X519975Y184222D01*
X520653Y183769D01*
X521453Y183610D01*
X522253Y183769D01*
X522931Y184222D01*
X523384Y184900D01*
X523543Y185700D01*
X523384Y186500D01*
X522931Y187178D01*
X522253Y187631D01*
X521453Y187790D01*
D02*
G37*
G36*
X516453D02*
X515653Y187631D01*
X514975Y187178D01*
X514522Y186500D01*
X514363Y185700D01*
X514522Y184900D01*
X514975Y184222D01*
X515653Y183769D01*
X516453Y183610D01*
X517253Y183769D01*
X517931Y184222D01*
X518384Y184900D01*
X518543Y185700D01*
X518384Y186500D01*
X517931Y187178D01*
X517253Y187631D01*
X516453Y187790D01*
D02*
G37*
G36*
X511453D02*
X510653Y187631D01*
X509975Y187178D01*
X509522Y186500D01*
X509363Y185700D01*
X509522Y184900D01*
X509975Y184222D01*
X510653Y183769D01*
X511453Y183610D01*
X512253Y183769D01*
X512931Y184222D01*
X513384Y184900D01*
X513543Y185700D01*
X513384Y186500D01*
X512931Y187178D01*
X512253Y187631D01*
X511453Y187790D01*
D02*
G37*
G36*
X506453D02*
X505653Y187631D01*
X504975Y187178D01*
X504522Y186500D01*
X504363Y185700D01*
X504522Y184900D01*
X504975Y184222D01*
X505653Y183769D01*
X506453Y183610D01*
X507253Y183769D01*
X507931Y184222D01*
X508384Y184900D01*
X508543Y185700D01*
X508384Y186500D01*
X507931Y187178D01*
X507253Y187631D01*
X506453Y187790D01*
D02*
G37*
G36*
X501453D02*
X500653Y187631D01*
X499975Y187178D01*
X499522Y186500D01*
X499363Y185700D01*
X499522Y184900D01*
X499975Y184222D01*
X500653Y183769D01*
X501453Y183610D01*
X502253Y183769D01*
X502931Y184222D01*
X503384Y184900D01*
X503543Y185700D01*
X503384Y186500D01*
X502931Y187178D01*
X502253Y187631D01*
X501453Y187790D01*
D02*
G37*
G36*
X570814Y187699D02*
X570014Y187540D01*
X569336Y187087D01*
X568883Y186409D01*
X568723Y185609D01*
X568883Y184809D01*
X569336Y184131D01*
X570014Y183678D01*
X570814Y183519D01*
X571614Y183678D01*
X572292Y184131D01*
X572745Y184809D01*
X572904Y185609D01*
X572745Y186409D01*
X572292Y187087D01*
X571614Y187540D01*
X570814Y187699D01*
D02*
G37*
G36*
X565814D02*
X565014Y187540D01*
X564336Y187087D01*
X563883Y186409D01*
X563724Y185609D01*
X563883Y184809D01*
X564336Y184131D01*
X565014Y183678D01*
X565814Y183519D01*
X566613Y183678D01*
X567292Y184131D01*
X567745Y184809D01*
X567904Y185609D01*
X567745Y186409D01*
X567292Y187087D01*
X566613Y187540D01*
X565814Y187699D01*
D02*
G37*
G36*
X560814D02*
X560014Y187540D01*
X559336Y187087D01*
X558883Y186409D01*
X558723Y185609D01*
X558883Y184809D01*
X559336Y184131D01*
X560014Y183678D01*
X560814Y183519D01*
X561614Y183678D01*
X562292Y184131D01*
X562745Y184809D01*
X562904Y185609D01*
X562745Y186409D01*
X562292Y187087D01*
X561614Y187540D01*
X560814Y187699D01*
D02*
G37*
G36*
X555814D02*
X555014Y187540D01*
X554336Y187087D01*
X553883Y186409D01*
X553723Y185609D01*
X553883Y184809D01*
X554336Y184131D01*
X555014Y183678D01*
X555814Y183519D01*
X556613Y183678D01*
X557292Y184131D01*
X557745Y184809D01*
X557904Y185609D01*
X557745Y186409D01*
X557292Y187087D01*
X556613Y187540D01*
X555814Y187699D01*
D02*
G37*
G36*
X550814D02*
X550014Y187540D01*
X549336Y187087D01*
X548883Y186409D01*
X548724Y185609D01*
X548883Y184809D01*
X549336Y184131D01*
X550014Y183678D01*
X550814Y183519D01*
X551614Y183678D01*
X552292Y184131D01*
X552745Y184809D01*
X552904Y185609D01*
X552745Y186409D01*
X552292Y187087D01*
X551614Y187540D01*
X550814Y187699D01*
D02*
G37*
G36*
X545814D02*
X545014Y187540D01*
X544336Y187087D01*
X543883Y186409D01*
X543723Y185609D01*
X543883Y184809D01*
X544336Y184131D01*
X545014Y183678D01*
X545814Y183519D01*
X546614Y183678D01*
X547292Y184131D01*
X547745Y184809D01*
X547904Y185609D01*
X547745Y186409D01*
X547292Y187087D01*
X546614Y187540D01*
X545814Y187699D01*
D02*
G37*
G36*
X198899Y169191D02*
X198099Y169032D01*
X197421Y168579D01*
X196968Y167901D01*
X196809Y167101D01*
X196968Y166301D01*
X197421Y165623D01*
X198099Y165170D01*
X198899Y165011D01*
X199699Y165170D01*
X200377Y165623D01*
X200830Y166301D01*
X200989Y167101D01*
X200830Y167901D01*
X200377Y168579D01*
X199699Y169032D01*
X198899Y169191D01*
D02*
G37*
G36*
X64000Y149025D02*
X62656Y148848D01*
X61403Y148329D01*
X60327Y147504D01*
X59502Y146428D01*
X59250Y145820D01*
X58750D01*
X58498Y146428D01*
X57673Y147504D01*
X56597Y148329D01*
X55344Y148848D01*
X54000Y149025D01*
X52656Y148848D01*
X51403Y148329D01*
X50327Y147504D01*
X49502Y146428D01*
X48983Y145176D01*
X48806Y143831D01*
X48983Y142487D01*
X49502Y141234D01*
X50327Y140159D01*
X51403Y139333D01*
X52656Y138814D01*
X54000Y138637D01*
X55344Y138814D01*
X56597Y139333D01*
X57673Y140159D01*
X58498Y141234D01*
X58750Y141842D01*
X59250D01*
X59502Y141234D01*
X60327Y140159D01*
X61403Y139333D01*
X62656Y138814D01*
X64000Y138637D01*
X65344Y138814D01*
X66597Y139333D01*
X67673Y140159D01*
X68498Y141234D01*
X69017Y142487D01*
X69194Y143831D01*
X69017Y145176D01*
X68498Y146428D01*
X67673Y147504D01*
X66597Y148329D01*
X65344Y148848D01*
X64000Y149025D01*
D02*
G37*
G36*
X102000Y141090D02*
X101200Y140931D01*
X100522Y140478D01*
X100513Y140465D01*
X99953Y140382D01*
X99384Y140762D01*
X98584Y140921D01*
X97784Y140762D01*
X97106Y140309D01*
X96751Y139778D01*
X96282Y139718D01*
X96173Y139744D01*
X96062Y139910D01*
X95384Y140363D01*
X94584Y140522D01*
X93784Y140363D01*
X93106Y139910D01*
X92653Y139232D01*
X92494Y138432D01*
X92653Y137632D01*
X93106Y136954D01*
X93784Y136501D01*
X94584Y136342D01*
X95384Y136501D01*
X96062Y136954D01*
X96417Y137485D01*
X96886Y137545D01*
X96995Y137519D01*
X97106Y137353D01*
X97784Y136900D01*
X98584Y136741D01*
X99384Y136900D01*
X100062Y137353D01*
X100071Y137366D01*
X100631Y137449D01*
X101200Y137069D01*
X102000Y136910D01*
X102800Y137069D01*
X103478Y137522D01*
X103931Y138200D01*
X104090Y139000D01*
X103931Y139800D01*
X103478Y140478D01*
X102800Y140931D01*
X102000Y141090D01*
D02*
G37*
G36*
X84000Y147765D02*
X82982Y147631D01*
X82033Y147238D01*
X81219Y146613D01*
X80594Y145798D01*
X80201Y144849D01*
X80067Y143831D01*
X80201Y142813D01*
X80594Y141865D01*
X81219Y141050D01*
X82033Y140425D01*
X82982Y140032D01*
X84000Y139898D01*
X85018Y140032D01*
X85967Y140425D01*
X86781Y141050D01*
X87406Y141865D01*
X87799Y142813D01*
X87933Y143831D01*
X87799Y144849D01*
X87406Y145798D01*
X86781Y146613D01*
X85967Y147238D01*
X85018Y147631D01*
X84000Y147765D01*
D02*
G37*
G36*
X74000D02*
X72982Y147631D01*
X72033Y147238D01*
X71219Y146613D01*
X70594Y145798D01*
X70201Y144849D01*
X70067Y143831D01*
X70201Y142813D01*
X70594Y141865D01*
X71219Y141050D01*
X72033Y140425D01*
X72982Y140032D01*
X74000Y139898D01*
X75018Y140032D01*
X75967Y140425D01*
X76781Y141050D01*
X77406Y141865D01*
X77799Y142813D01*
X77933Y143831D01*
X77799Y144849D01*
X77406Y145798D01*
X76781Y146613D01*
X75967Y147238D01*
X75018Y147631D01*
X74000Y147765D01*
D02*
G37*
G36*
X34000D02*
X32982Y147631D01*
X32033Y147238D01*
X31219Y146613D01*
X30594Y145798D01*
X30201Y144849D01*
X30067Y143831D01*
X30201Y142813D01*
X30594Y141865D01*
X31219Y141050D01*
X32033Y140425D01*
X32982Y140032D01*
X34000Y139898D01*
X35018Y140032D01*
X35967Y140425D01*
X36781Y141050D01*
X37406Y141865D01*
X37799Y142813D01*
X37933Y143831D01*
X37799Y144849D01*
X37406Y145798D01*
X36781Y146613D01*
X35967Y147238D01*
X35018Y147631D01*
X34000Y147765D01*
D02*
G37*
G36*
X347425Y134990D02*
X346625Y134831D01*
X345947Y134378D01*
X345903D01*
X345224Y134831D01*
X344425Y134990D01*
X343625Y134831D01*
X342947Y134378D01*
X342903D01*
X342225Y134831D01*
X341425Y134990D01*
X340625Y134831D01*
X339947Y134378D01*
X339903D01*
X339225Y134831D01*
X338425Y134990D01*
X337625Y134831D01*
X336947Y134378D01*
X336903D01*
X336225Y134831D01*
X335425Y134990D01*
X334625Y134831D01*
X333947Y134378D01*
X333903D01*
X333225Y134831D01*
X332425Y134990D01*
X331625Y134831D01*
X330947Y134378D01*
X330494Y133700D01*
X330334Y132900D01*
X330494Y132100D01*
X330947Y131422D01*
Y131378D01*
X330494Y130700D01*
X330334Y129900D01*
X330494Y129100D01*
X330947Y128422D01*
X331625Y127969D01*
X332425Y127810D01*
X333225Y127969D01*
X333903Y128422D01*
X333947D01*
X334625Y127969D01*
X335425Y127810D01*
X336225Y127969D01*
X336903Y128422D01*
X336947D01*
X337625Y127969D01*
X338425Y127810D01*
X339225Y127969D01*
X339903Y128422D01*
X339947D01*
X340625Y127969D01*
X341425Y127810D01*
X342225Y127969D01*
X342903Y128422D01*
X342947D01*
X343625Y127969D01*
X344425Y127810D01*
X345224Y127969D01*
X345903Y128422D01*
X345947D01*
X346625Y127969D01*
X347425Y127810D01*
X348224Y127969D01*
X348903Y128422D01*
X349356Y129100D01*
X349515Y129900D01*
X349356Y130700D01*
X348903Y131378D01*
Y131422D01*
X349356Y132100D01*
X349515Y132900D01*
X349356Y133700D01*
X348903Y134378D01*
X348224Y134831D01*
X347425Y134990D01*
D02*
G37*
G36*
X162425Y134190D02*
X161625Y134031D01*
X160947Y133578D01*
X160903D01*
X160224Y134031D01*
X159425Y134190D01*
X158625Y134031D01*
X157947Y133578D01*
X157903D01*
X157225Y134031D01*
X156425Y134190D01*
X155625Y134031D01*
X154947Y133578D01*
X154903D01*
X154225Y134031D01*
X153425Y134190D01*
X152625Y134031D01*
X151947Y133578D01*
X151903D01*
X151225Y134031D01*
X150425Y134190D01*
X149625Y134031D01*
X148947Y133578D01*
X148903D01*
X148224Y134031D01*
X147425Y134190D01*
X146625Y134031D01*
X145947Y133578D01*
X145494Y132900D01*
X145334Y132100D01*
X145494Y131300D01*
X145947Y130622D01*
Y130578D01*
X145494Y129900D01*
X145334Y129100D01*
X145494Y128300D01*
X145947Y127622D01*
X146625Y127169D01*
X147425Y127010D01*
X148224Y127169D01*
X148903Y127622D01*
X148947D01*
X149625Y127169D01*
X150425Y127010D01*
X151225Y127169D01*
X151903Y127622D01*
X151947D01*
X152625Y127169D01*
X153425Y127010D01*
X154225Y127169D01*
X154903Y127622D01*
X154947D01*
X155625Y127169D01*
X156425Y127010D01*
X157225Y127169D01*
X157903Y127622D01*
X157947D01*
X158625Y127169D01*
X159425Y127010D01*
X160224Y127169D01*
X160903Y127622D01*
X160947D01*
X161625Y127169D01*
X162425Y127010D01*
X163224Y127169D01*
X163903Y127622D01*
X164356Y128300D01*
X164515Y129100D01*
X164356Y129900D01*
X163903Y130578D01*
Y130622D01*
X164356Y131300D01*
X164515Y132100D01*
X164356Y132900D01*
X163903Y133578D01*
X163224Y134031D01*
X162425Y134190D01*
D02*
G37*
G36*
X513827Y112508D02*
X513027Y112349D01*
X512349Y111896D01*
X511896Y111218D01*
X511737Y110418D01*
X511896Y109618D01*
X512349Y108940D01*
X513027Y108487D01*
X513827Y108328D01*
X514627Y108487D01*
X515305Y108940D01*
X515758Y109618D01*
X515917Y110418D01*
X515758Y111218D01*
X515305Y111896D01*
X514627Y112349D01*
X513827Y112508D01*
D02*
G37*
G36*
X507820Y112501D02*
X507020Y112341D01*
X506342Y111888D01*
X505889Y111210D01*
X505730Y110410D01*
X505889Y109610D01*
X506342Y108932D01*
X507020Y108479D01*
X507820Y108320D01*
X508620Y108479D01*
X509298Y108932D01*
X509751Y109610D01*
X509910Y110410D01*
X509751Y111210D01*
X509298Y111888D01*
X508620Y112341D01*
X507820Y112501D01*
D02*
G37*
G36*
X84000Y97954D02*
X82982Y97820D01*
X82033Y97427D01*
X81219Y96802D01*
X80594Y95988D01*
X80201Y95039D01*
X80067Y94021D01*
X80201Y93003D01*
X80594Y92054D01*
X81219Y91240D01*
X82033Y90615D01*
X82982Y90222D01*
X84000Y90088D01*
X85018Y90222D01*
X85967Y90615D01*
X86781Y91240D01*
X87406Y92054D01*
X87799Y93003D01*
X87933Y94021D01*
X87799Y95039D01*
X87406Y95988D01*
X86781Y96802D01*
X85967Y97427D01*
X85018Y97820D01*
X84000Y97954D01*
D02*
G37*
G36*
X64000D02*
X62982Y97820D01*
X62033Y97427D01*
X61219Y96802D01*
X60594Y95988D01*
X60201Y95039D01*
X60067Y94021D01*
X60201Y93003D01*
X60594Y92054D01*
X61219Y91240D01*
X62033Y90615D01*
X62982Y90222D01*
X64000Y90088D01*
X65018Y90222D01*
X65967Y90615D01*
X66781Y91240D01*
X67406Y92054D01*
X67799Y93003D01*
X67933Y94021D01*
X67799Y95039D01*
X67406Y95988D01*
X66781Y96802D01*
X65967Y97427D01*
X65018Y97820D01*
X64000Y97954D01*
D02*
G37*
G36*
X34000D02*
X32982Y97820D01*
X32033Y97427D01*
X31219Y96802D01*
X30594Y95988D01*
X30201Y95039D01*
X30067Y94021D01*
X30201Y93003D01*
X30594Y92054D01*
X31219Y91240D01*
X32033Y90615D01*
X32982Y90222D01*
X34000Y90088D01*
X35018Y90222D01*
X35967Y90615D01*
X36781Y91240D01*
X37406Y92054D01*
X37799Y93003D01*
X37933Y94021D01*
X37799Y95039D01*
X37406Y95988D01*
X36781Y96802D01*
X35967Y97427D01*
X35018Y97820D01*
X34000Y97954D01*
D02*
G37*
G36*
X74000Y99215D02*
X72656Y99038D01*
X71403Y98519D01*
X70327Y97694D01*
X69502Y96618D01*
X68983Y95365D01*
X68806Y94021D01*
X68983Y92677D01*
X69502Y91424D01*
X70327Y90348D01*
X71403Y89523D01*
X72656Y89004D01*
X74000Y88827D01*
X75344Y89004D01*
X76597Y89523D01*
X77673Y90348D01*
X78498Y91424D01*
X79017Y92677D01*
X79194Y94021D01*
X79017Y95365D01*
X78498Y96618D01*
X77673Y97694D01*
X76597Y98519D01*
X75344Y99038D01*
X74000Y99215D01*
D02*
G37*
G36*
X54000D02*
X52656Y99038D01*
X51403Y98519D01*
X50327Y97694D01*
X49502Y96618D01*
X48983Y95365D01*
X48806Y94021D01*
X48983Y92677D01*
X49502Y91424D01*
X50327Y90348D01*
X51403Y89523D01*
X52656Y89004D01*
X54000Y88827D01*
X55344Y89004D01*
X56597Y89523D01*
X57673Y90348D01*
X58498Y91424D01*
X59017Y92677D01*
X59194Y94021D01*
X59017Y95365D01*
X58498Y96618D01*
X57673Y97694D01*
X56597Y98519D01*
X55344Y99038D01*
X54000Y99215D01*
D02*
G37*
G36*
X776029Y85959D02*
X768530D01*
Y75794D01*
X776029D01*
Y85959D01*
D02*
G37*
G36*
X102809Y73311D02*
X102009Y73152D01*
X101331Y72699D01*
X101109Y72368D01*
X100508D01*
X100287Y72699D01*
X99609Y73152D01*
X98809Y73311D01*
X98009Y73152D01*
X97331Y72699D01*
X96878Y72021D01*
X96719Y71221D01*
X96878Y70421D01*
X97331Y69743D01*
X98009Y69290D01*
X98809Y69131D01*
X99609Y69290D01*
X100287Y69743D01*
X100508Y70074D01*
X101109D01*
X101331Y69743D01*
X102009Y69290D01*
X102809Y69131D01*
X103609Y69290D01*
X104287Y69743D01*
X104740Y70421D01*
X104899Y71221D01*
X104740Y72021D01*
X104287Y72699D01*
X103609Y73152D01*
X102809Y73311D01*
D02*
G37*
G36*
X374291Y72890D02*
X373491Y72731D01*
X372813Y72278D01*
X372769D01*
X372091Y72731D01*
X371291Y72890D01*
X370491Y72731D01*
X369813Y72278D01*
X369769D01*
X369091Y72731D01*
X368291Y72890D01*
X367491Y72731D01*
X366813Y72278D01*
X366360Y71600D01*
X366201Y70800D01*
X366360Y70000D01*
X366813Y69322D01*
Y69278D01*
X366360Y68600D01*
X366201Y67800D01*
X366360Y67000D01*
X366813Y66322D01*
X367491Y65869D01*
X368291Y65710D01*
X369091Y65869D01*
X369769Y66322D01*
X369813D01*
X370491Y65869D01*
X371291Y65710D01*
X372091Y65869D01*
X372769Y66322D01*
X372813D01*
X373491Y65869D01*
X374291Y65710D01*
X375091Y65869D01*
X375769Y66322D01*
X376222Y67000D01*
X376381Y67800D01*
X376222Y68600D01*
X375769Y69278D01*
Y69322D01*
X376222Y70000D01*
X376381Y70800D01*
X376222Y71600D01*
X375769Y72278D01*
X375091Y72731D01*
X374291Y72890D01*
D02*
G37*
G36*
X93809Y73311D02*
X93009Y73152D01*
X92331Y72699D01*
X91878Y72021D01*
X91719Y71221D01*
X91878Y70421D01*
X92331Y69743D01*
X93009Y69290D01*
X93809Y69131D01*
X94609Y69290D01*
X95287Y69743D01*
X95740Y70421D01*
X95899Y71221D01*
X95740Y72021D01*
X95287Y72699D01*
X94609Y73152D01*
X93809Y73311D01*
D02*
G37*
G36*
X191100Y69112D02*
X190300Y68952D01*
X189622Y68499D01*
X189578D01*
X188900Y68952D01*
X188100Y69112D01*
X187300Y68952D01*
X186622Y68499D01*
X186578D01*
X185900Y68952D01*
X185100Y69112D01*
X184300Y68952D01*
X183622Y68499D01*
X183169Y67821D01*
X183010Y67021D01*
X183169Y66221D01*
X183622Y65543D01*
Y65499D01*
X183169Y64821D01*
X183010Y64021D01*
X183169Y63222D01*
X183622Y62543D01*
X184300Y62090D01*
X185100Y61931D01*
X185900Y62090D01*
X186578Y62543D01*
X186622D01*
X187300Y62090D01*
X188100Y61931D01*
X188900Y62090D01*
X189578Y62543D01*
X189622D01*
X190300Y62090D01*
X191100Y61931D01*
X191900Y62090D01*
X192578Y62543D01*
X193031Y63222D01*
X193190Y64021D01*
X193031Y64821D01*
X192578Y65499D01*
Y65543D01*
X193031Y66221D01*
X193190Y67021D01*
X193031Y67821D01*
X192578Y68499D01*
X191900Y68952D01*
X191100Y69112D01*
D02*
G37*
G36*
X84000Y48733D02*
X82982Y48599D01*
X82033Y48206D01*
X81219Y47581D01*
X80594Y46767D01*
X80201Y45818D01*
X80067Y44800D01*
X80201Y43782D01*
X80594Y42833D01*
X81219Y42019D01*
X82033Y41394D01*
X82982Y41001D01*
X84000Y40867D01*
X85018Y41001D01*
X85967Y41394D01*
X86781Y42019D01*
X87406Y42833D01*
X87799Y43782D01*
X87933Y44800D01*
X87799Y45818D01*
X87406Y46767D01*
X86781Y47581D01*
X85967Y48206D01*
X85018Y48599D01*
X84000Y48733D01*
D02*
G37*
G36*
X64000D02*
X62982Y48599D01*
X62033Y48206D01*
X61219Y47581D01*
X60594Y46767D01*
X60201Y45818D01*
X60067Y44800D01*
X60201Y43782D01*
X60594Y42833D01*
X61219Y42019D01*
X62033Y41394D01*
X62982Y41001D01*
X64000Y40867D01*
X65018Y41001D01*
X65967Y41394D01*
X66781Y42019D01*
X67406Y42833D01*
X67799Y43782D01*
X67933Y44800D01*
X67799Y45818D01*
X67406Y46767D01*
X66781Y47581D01*
X65967Y48206D01*
X65018Y48599D01*
X64000Y48733D01*
D02*
G37*
G36*
X34000D02*
X32982Y48599D01*
X32033Y48206D01*
X31219Y47581D01*
X30594Y46767D01*
X30201Y45818D01*
X30067Y44800D01*
X30201Y43782D01*
X30594Y42833D01*
X31219Y42019D01*
X32033Y41394D01*
X32982Y41001D01*
X34000Y40867D01*
X35018Y41001D01*
X35967Y41394D01*
X36781Y42019D01*
X37406Y42833D01*
X37799Y43782D01*
X37933Y44800D01*
X37799Y45818D01*
X37406Y46767D01*
X36781Y47581D01*
X35967Y48206D01*
X35018Y48599D01*
X34000Y48733D01*
D02*
G37*
G36*
X74000Y49994D02*
X72656Y49817D01*
X71403Y49298D01*
X70327Y48473D01*
X69502Y47397D01*
X68983Y46144D01*
X68806Y44800D01*
X68983Y43456D01*
X69502Y42203D01*
X70327Y41127D01*
X71403Y40302D01*
X72656Y39783D01*
X74000Y39606D01*
X75344Y39783D01*
X76597Y40302D01*
X77673Y41127D01*
X78498Y42203D01*
X79017Y43456D01*
X79194Y44800D01*
X79017Y46144D01*
X78498Y47397D01*
X77673Y48473D01*
X76597Y49298D01*
X75344Y49817D01*
X74000Y49994D01*
D02*
G37*
G36*
X54000D02*
X52656Y49817D01*
X51403Y49298D01*
X50327Y48473D01*
X49502Y47397D01*
X48983Y46144D01*
X48806Y44800D01*
X48983Y43456D01*
X49502Y42203D01*
X50327Y41127D01*
X51403Y40302D01*
X52656Y39783D01*
X54000Y39606D01*
X55344Y39783D01*
X56597Y40302D01*
X57673Y41127D01*
X58498Y42203D01*
X59017Y43456D01*
X59194Y44800D01*
X59017Y46144D01*
X58498Y47397D01*
X57673Y48473D01*
X56597Y49298D01*
X55344Y49817D01*
X54000Y49994D01*
D02*
G37*
G36*
X784936Y58366D02*
X773062D01*
Y46492D01*
X775817D01*
X775978Y46018D01*
X775657Y45772D01*
X774905Y44793D01*
X774433Y43652D01*
X774272Y42429D01*
X774433Y41205D01*
X774905Y40065D01*
X775657Y39086D01*
X776549Y38401D01*
X776565Y38357D01*
X776577Y38069D01*
X776526Y37839D01*
X775685Y37389D01*
X774781Y36647D01*
X774039Y35743D01*
X773488Y34712D01*
X773148Y33593D01*
X773034Y32429D01*
X773148Y31265D01*
X773488Y30146D01*
X774039Y29115D01*
X774781Y28211D01*
X775685Y27469D01*
X776716Y26917D01*
X777836Y26578D01*
X778999Y26463D01*
X780163Y26578D01*
X781282Y26917D01*
X782314Y27469D01*
X783218Y28211D01*
X783960Y29115D01*
X784511Y30146D01*
X784850Y31265D01*
X784965Y32429D01*
X784850Y33593D01*
X784511Y34712D01*
X783960Y35743D01*
X783218Y36647D01*
X782314Y37389D01*
X781472Y37839D01*
X781422Y38069D01*
X781433Y38357D01*
X781449Y38401D01*
X782342Y39086D01*
X783093Y40065D01*
X783566Y41205D01*
X783727Y42429D01*
X783566Y43652D01*
X783093Y44793D01*
X782342Y45772D01*
X782021Y46018D01*
X782181Y46492D01*
X784936D01*
Y58366D01*
D02*
G37*
G36*
X388795Y166090D02*
X387995Y165931D01*
X387317Y165478D01*
X386864Y164800D01*
X386705Y164000D01*
X386864Y163200D01*
X387317Y162522D01*
X387628Y162314D01*
X387666Y162189D01*
X387686Y161674D01*
X387339Y161153D01*
X387184Y160373D01*
Y143373D01*
X387339Y142593D01*
X387781Y141931D01*
X388443Y141489D01*
X389223Y141334D01*
X395725D01*
X487840Y49220D01*
X488779Y48498D01*
X489874Y48045D01*
X491049Y47890D01*
X593062D01*
Y46492D01*
X595817D01*
X595978Y46018D01*
X595656Y45772D01*
X594905Y44793D01*
X594433Y43652D01*
X594272Y42429D01*
X594433Y41205D01*
X594905Y40065D01*
X595656Y39086D01*
X596549Y38401D01*
X596565Y38357D01*
X596577Y38069D01*
X596526Y37839D01*
X595685Y37389D01*
X594781Y36647D01*
X594039Y35743D01*
X593488Y34712D01*
X593148Y33593D01*
X593034Y32429D01*
X593148Y31265D01*
X593488Y30146D01*
X594039Y29115D01*
X594781Y28211D01*
X595685Y27469D01*
X596716Y26917D01*
X597835Y26578D01*
X598999Y26463D01*
X600163Y26578D01*
X601282Y26917D01*
X602314Y27469D01*
X603218Y28211D01*
X603960Y29115D01*
X604511Y30146D01*
X604850Y31265D01*
X604965Y32429D01*
X604850Y33593D01*
X604511Y34712D01*
X603960Y35743D01*
X603218Y36647D01*
X602314Y37389D01*
X601472Y37839D01*
X601422Y38069D01*
X601433Y38357D01*
X601449Y38401D01*
X602342Y39086D01*
X603093Y40065D01*
X603566Y41205D01*
X603727Y42429D01*
X603566Y43652D01*
X603093Y44793D01*
X602342Y45772D01*
X602021Y46018D01*
X602181Y46492D01*
X604936D01*
Y58366D01*
X593062D01*
Y56968D01*
X492929D01*
X403262Y146635D01*
Y160373D01*
X403107Y161153D01*
X402665Y161815D01*
X402003Y162257D01*
X401223Y162412D01*
X390801D01*
X390533Y162912D01*
X390726Y163200D01*
X390885Y164000D01*
X390726Y164800D01*
X390273Y165478D01*
X389595Y165931D01*
X388795Y166090D01*
D02*
G37*
G36*
X102000Y26690D02*
X101200Y26531D01*
X100522Y26078D01*
X100100Y25447D01*
X99847Y25385D01*
X99553Y25366D01*
X99478Y25478D01*
X98800Y25931D01*
X98000Y26090D01*
X97200Y25931D01*
X96522Y25478D01*
X96095Y24838D01*
X95487Y25244D01*
X94687Y25403D01*
X93887Y25244D01*
X93209Y24791D01*
X92756Y24113D01*
X92597Y23313D01*
X92756Y22513D01*
X93209Y21835D01*
X93887Y21382D01*
X94687Y21223D01*
X95487Y21382D01*
X96165Y21835D01*
X96592Y22475D01*
X97200Y22069D01*
X98000Y21910D01*
X98800Y22069D01*
X99478Y22522D01*
X99900Y23153D01*
X100153Y23214D01*
X100447Y23234D01*
X100522Y23122D01*
X101200Y22669D01*
X102000Y22510D01*
X102800Y22669D01*
X103478Y23122D01*
X103931Y23800D01*
X104090Y24600D01*
X103931Y25400D01*
X103478Y26078D01*
X102800Y26531D01*
X102000Y26690D01*
D02*
G37*
G36*
X74237Y19944D02*
X73438Y19785D01*
X72759Y19332D01*
X72306Y18654D01*
X72147Y17854D01*
X72306Y17054D01*
X72759Y16376D01*
X73438Y15923D01*
X74237Y15764D01*
X75037Y15923D01*
X75715Y16376D01*
X76168Y17054D01*
X76328Y17854D01*
X76168Y18654D01*
X75715Y19332D01*
X75037Y19785D01*
X74237Y19944D01*
D02*
G37*
G36*
X62535Y19646D02*
X61735Y19487D01*
X61057Y19034D01*
X60604Y18356D01*
X60445Y17556D01*
X60604Y16756D01*
X61057Y16078D01*
X61735Y15625D01*
X62535Y15466D01*
X63335Y15625D01*
X64013Y16078D01*
X64467Y16756D01*
X64626Y17556D01*
X64467Y18356D01*
X64013Y19034D01*
X63335Y19487D01*
X62535Y19646D01*
D02*
G37*
G36*
X50535D02*
X49736Y19487D01*
X49057Y19034D01*
X48604Y18356D01*
X48445Y17556D01*
X48604Y16756D01*
X49057Y16078D01*
X49736Y15625D01*
X50535Y15466D01*
X51335Y15625D01*
X52013Y16078D01*
X52466Y16756D01*
X52626Y17556D01*
X52466Y18356D01*
X52013Y19034D01*
X51335Y19487D01*
X50535Y19646D01*
D02*
G37*
G36*
X40535D02*
X39735Y19487D01*
X39057Y19034D01*
X38604Y18356D01*
X38445Y17556D01*
X38604Y16756D01*
X39057Y16078D01*
X39735Y15625D01*
X40535Y15466D01*
X41335Y15625D01*
X42013Y16078D01*
X42467Y16756D01*
X42626Y17556D01*
X42467Y18356D01*
X42013Y19034D01*
X41335Y19487D01*
X40535Y19646D01*
D02*
G37*
G36*
X60291Y5128D02*
X59430Y5015D01*
X58627Y4682D01*
X57938Y4154D01*
X57409Y3464D01*
X57076Y2661D01*
X56963Y1800D01*
X57076Y938D01*
X57409Y136D01*
X57938Y-554D01*
X58627Y-1082D01*
X59430Y-1415D01*
X60291Y-1529D01*
X61153Y-1415D01*
X61955Y-1082D01*
X62645Y-554D01*
X63174Y136D01*
X63506Y938D01*
X63620Y1800D01*
X63506Y2661D01*
X63174Y3464D01*
X62645Y4154D01*
X61955Y4682D01*
X61153Y5015D01*
X60291Y5128D01*
D02*
G37*
G36*
X32291Y1890D02*
X31491Y1731D01*
X30813Y1278D01*
X30360Y600D01*
X30201Y-200D01*
X30360Y-1000D01*
X30813Y-1678D01*
X31491Y-2131D01*
X32291Y-2290D01*
X33091Y-2131D01*
X33769Y-1678D01*
X34222Y-1000D01*
X34381Y-200D01*
X34222Y600D01*
X33769Y1278D01*
X33091Y1731D01*
X32291Y1890D01*
D02*
G37*
G36*
X48000Y4329D02*
X47139Y4215D01*
X46336Y3883D01*
X45646Y3354D01*
X45118Y2664D01*
X44785Y1861D01*
X44671Y1000D01*
X44785Y138D01*
X45118Y-664D01*
X45646Y-1354D01*
X46336Y-1883D01*
X47139Y-2215D01*
X48000Y-2328D01*
X48862Y-2215D01*
X49664Y-1883D01*
X50354Y-1354D01*
X50883Y-664D01*
X51215Y138D01*
X51328Y1000D01*
X51215Y1861D01*
X50883Y2664D01*
X50354Y3354D01*
X49664Y3883D01*
X48862Y4215D01*
X48000Y4329D01*
D02*
G37*
G36*
X85445Y4282D02*
X84583Y4169D01*
X83781Y3836D01*
X83091Y3307D01*
X82562Y2618D01*
X82230Y1815D01*
X82116Y953D01*
X82230Y92D01*
X82562Y-711D01*
X83091Y-1400D01*
X83781Y-1929D01*
X84583Y-2262D01*
X85445Y-2375D01*
X86306Y-2262D01*
X87109Y-1929D01*
X87798Y-1400D01*
X88327Y-711D01*
X88660Y92D01*
X88773Y953D01*
X88660Y1815D01*
X88327Y2618D01*
X87798Y3307D01*
X87109Y3836D01*
X86306Y4169D01*
X85445Y4282D01*
D02*
G37*
G36*
X72894Y3267D02*
X72032Y3153D01*
X71230Y2821D01*
X70540Y2292D01*
X70012Y1602D01*
X69679Y800D01*
X69565Y-62D01*
X69679Y-923D01*
X70012Y-1726D01*
X70540Y-2415D01*
X71230Y-2944D01*
X72032Y-3277D01*
X72894Y-3390D01*
X73756Y-3277D01*
X74558Y-2944D01*
X75248Y-2415D01*
X75776Y-1726D01*
X76109Y-923D01*
X76222Y-62D01*
X76109Y800D01*
X75776Y1602D01*
X75248Y2292D01*
X74558Y2821D01*
X73756Y3153D01*
X72894Y3267D01*
D02*
G37*
G36*
X620000Y11613D02*
X618183Y11470D01*
X616411Y11044D01*
X614728Y10347D01*
X613174Y9395D01*
X611789Y8211D01*
X610605Y6826D01*
X609653Y5272D01*
X608956Y3588D01*
X608530Y1817D01*
X608387Y0D01*
X608530Y-1817D01*
X608956Y-3588D01*
X609653Y-5272D01*
X610605Y-6826D01*
X611789Y-8211D01*
X613174Y-9395D01*
X614728Y-10347D01*
X616411Y-11044D01*
X618183Y-11470D01*
X620000Y-11613D01*
X621817Y-11470D01*
X623589Y-11044D01*
X625272Y-10347D01*
X626826Y-9395D01*
X628211Y-8211D01*
X629395Y-6826D01*
X630347Y-5272D01*
X631044Y-3588D01*
X631470Y-1817D01*
X631613Y0D01*
X631470Y1817D01*
X631044Y3588D01*
X630347Y5272D01*
X629395Y6826D01*
X628211Y8211D01*
X626826Y9395D01*
X625272Y10347D01*
X623589Y11044D01*
X621817Y11470D01*
X620000Y11613D01*
D02*
G37*
G36*
X440000D02*
X438183Y11470D01*
X436412Y11044D01*
X434728Y10347D01*
X433174Y9395D01*
X431789Y8211D01*
X430605Y6826D01*
X429653Y5272D01*
X428956Y3588D01*
X428530Y1817D01*
X428387Y0D01*
X428530Y-1817D01*
X428956Y-3588D01*
X429653Y-5272D01*
X430605Y-6826D01*
X431789Y-8211D01*
X433174Y-9395D01*
X434728Y-10347D01*
X436412Y-11044D01*
X438183Y-11470D01*
X440000Y-11613D01*
X441817Y-11470D01*
X443588Y-11044D01*
X445272Y-10347D01*
X446826Y-9395D01*
X448211Y-8211D01*
X449395Y-6826D01*
X450347Y-5272D01*
X451044Y-3588D01*
X451470Y-1817D01*
X451613Y0D01*
X451470Y1817D01*
X451044Y3588D01*
X450347Y5272D01*
X449395Y6826D01*
X448211Y8211D01*
X446826Y9395D01*
X445272Y10347D01*
X443588Y11044D01*
X441817Y11470D01*
X440000Y11613D01*
D02*
G37*
G36*
X264000D02*
X262183Y11470D01*
X260412Y11044D01*
X258728Y10347D01*
X257174Y9395D01*
X255789Y8211D01*
X254605Y6826D01*
X253653Y5272D01*
X252956Y3588D01*
X252530Y1817D01*
X252387Y0D01*
X252530Y-1817D01*
X252956Y-3588D01*
X253653Y-5272D01*
X254605Y-6826D01*
X255789Y-8211D01*
X257174Y-9395D01*
X258728Y-10347D01*
X260412Y-11044D01*
X262183Y-11470D01*
X264000Y-11613D01*
X265817Y-11470D01*
X267588Y-11044D01*
X269272Y-10347D01*
X270826Y-9395D01*
X272211Y-8211D01*
X273395Y-6826D01*
X274347Y-5272D01*
X275044Y-3588D01*
X275470Y-1817D01*
X275612Y0D01*
X275470Y1817D01*
X275044Y3588D01*
X274347Y5272D01*
X273395Y6826D01*
X272211Y8211D01*
X270826Y9395D01*
X269272Y10347D01*
X267588Y11044D01*
X265817Y11470D01*
X264000Y11613D01*
D02*
G37*
G36*
X0D02*
X-1817Y11470D01*
X-3588Y11044D01*
X-5272Y10347D01*
X-6826Y9395D01*
X-8211Y8211D01*
X-9395Y6826D01*
X-10347Y5272D01*
X-11044Y3588D01*
X-11470Y1817D01*
X-11613Y0D01*
X-11470Y-1817D01*
X-11044Y-3588D01*
X-10347Y-5272D01*
X-9395Y-6826D01*
X-8211Y-8211D01*
X-6826Y-9395D01*
X-5272Y-10347D01*
X-3588Y-11044D01*
X-1817Y-11470D01*
X0Y-11613D01*
X1817Y-11470D01*
X3588Y-11044D01*
X5272Y-10347D01*
X6826Y-9395D01*
X8211Y-8211D01*
X9395Y-6826D01*
X10347Y-5272D01*
X11044Y-3588D01*
X11470Y-1817D01*
X11613Y0D01*
X11470Y1817D01*
X11044Y3588D01*
X10347Y5272D01*
X9395Y6826D01*
X8211Y8211D01*
X6826Y9395D01*
X5272Y10347D01*
X3588Y11044D01*
X1817Y11470D01*
X0Y11613D01*
D02*
G37*
G36*
X650552Y11521D02*
X648735Y11378D01*
X646963Y10953D01*
X645280Y10256D01*
X643726Y9303D01*
X642340Y8120D01*
X641157Y6734D01*
X640205Y5181D01*
X639507Y3497D01*
X639082Y1725D01*
X638939Y-91D01*
X639082Y-1908D01*
X639507Y-3680D01*
X640205Y-5363D01*
X641157Y-6917D01*
X642340Y-8303D01*
X643726Y-9486D01*
X645280Y-10438D01*
X646963Y-11135D01*
X648735Y-11561D01*
X650552Y-11704D01*
X652368Y-11561D01*
X654140Y-11135D01*
X655824Y-10438D01*
X657377Y-9486D01*
X658763Y-8303D01*
X659946Y-6917D01*
X660898Y-5363D01*
X661596Y-3680D01*
X662021Y-1908D01*
X662164Y-91D01*
X662021Y1725D01*
X661596Y3497D01*
X660898Y5181D01*
X659946Y6734D01*
X658763Y8120D01*
X657377Y9303D01*
X655824Y10256D01*
X654140Y10953D01*
X652368Y11378D01*
X650552Y11521D01*
D02*
G37*
G36*
X470552D02*
X468735Y11378D01*
X466963Y10953D01*
X465280Y10256D01*
X463726Y9303D01*
X462340Y8120D01*
X461157Y6734D01*
X460205Y5181D01*
X459507Y3497D01*
X459082Y1725D01*
X458939Y-91D01*
X459082Y-1908D01*
X459507Y-3680D01*
X460205Y-5363D01*
X461157Y-6917D01*
X462340Y-8303D01*
X463726Y-9486D01*
X465280Y-10438D01*
X466963Y-11135D01*
X468735Y-11561D01*
X470552Y-11704D01*
X472368Y-11561D01*
X474140Y-11135D01*
X475824Y-10438D01*
X477377Y-9486D01*
X478763Y-8303D01*
X479946Y-6917D01*
X480899Y-5363D01*
X481596Y-3680D01*
X482021Y-1908D01*
X482164Y-91D01*
X482021Y1725D01*
X481596Y3497D01*
X480899Y5181D01*
X479946Y6734D01*
X478763Y8120D01*
X477377Y9303D01*
X475824Y10256D01*
X474140Y10953D01*
X472368Y11378D01*
X470552Y11521D01*
D02*
G37*
G36*
X290552D02*
X288735Y11378D01*
X286963Y10953D01*
X285280Y10256D01*
X283726Y9303D01*
X282340Y8120D01*
X281157Y6734D01*
X280205Y5181D01*
X279507Y3497D01*
X279082Y1725D01*
X278939Y-91D01*
X279082Y-1908D01*
X279507Y-3680D01*
X280205Y-5363D01*
X281157Y-6917D01*
X282340Y-8303D01*
X283726Y-9486D01*
X285280Y-10438D01*
X286963Y-11135D01*
X288735Y-11561D01*
X290552Y-11704D01*
X292368Y-11561D01*
X294140Y-11135D01*
X295824Y-10438D01*
X297377Y-9486D01*
X298763Y-8303D01*
X299946Y-6917D01*
X300899Y-5363D01*
X301596Y-3680D01*
X302021Y-1908D01*
X302164Y-91D01*
X302021Y1725D01*
X301596Y3497D01*
X300899Y5181D01*
X299946Y6734D01*
X298763Y8120D01*
X297377Y9303D01*
X295824Y10256D01*
X294140Y10953D01*
X292368Y11378D01*
X290552Y11521D01*
D02*
G37*
G36*
X110552D02*
X108735Y11378D01*
X106963Y10953D01*
X105280Y10256D01*
X103726Y9303D01*
X102340Y8120D01*
X101157Y6734D01*
X100205Y5181D01*
X99507Y3497D01*
X99082Y1725D01*
X98939Y-91D01*
X99082Y-1908D01*
X99507Y-3680D01*
X100205Y-5363D01*
X101157Y-6917D01*
X102340Y-8303D01*
X103726Y-9486D01*
X105280Y-10438D01*
X106963Y-11135D01*
X108735Y-11561D01*
X110552Y-11704D01*
X112368Y-11561D01*
X114140Y-11135D01*
X115824Y-10438D01*
X117377Y-9486D01*
X118763Y-8303D01*
X119946Y-6917D01*
X120898Y-5363D01*
X121596Y-3680D01*
X122021Y-1908D01*
X122164Y-91D01*
X122021Y1725D01*
X121596Y3497D01*
X120898Y5181D01*
X119946Y6734D01*
X118763Y8120D01*
X117377Y9303D01*
X115824Y10256D01*
X114140Y10953D01*
X112368Y11378D01*
X110552Y11521D01*
D02*
G37*
%LPD*%
D10*
X739638Y412000D02*
X779964Y452326D01*
X586000Y412000D02*
X739638D01*
X545674Y452326D02*
X586000Y412000D01*
X419964Y452326D02*
X545674D01*
X749638Y402000D02*
X779964Y432326D01*
X568000Y402000D02*
X749638D01*
X537674Y432326D02*
X568000Y402000D01*
X419964Y432326D02*
X537674D01*
X312291Y343800D02*
X432438D01*
X440964Y352326D01*
X306291Y349800D02*
X312291Y343800D01*
X420425Y310425D02*
X473000Y363000D01*
X620674Y352326D02*
X620964D01*
X610000Y363000D02*
X620674Y352326D01*
X473000Y363000D02*
X610000D01*
X282520Y310425D02*
X420425D01*
X141895Y349800D02*
X306291D01*
X102520Y310425D02*
X141895Y349800D01*
X286151Y416139D02*
X435777D01*
X239964Y462326D02*
X286151Y416139D01*
X435777D02*
X440964Y421326D01*
X770280Y77544D02*
X774279D01*
Y80210D01*
Y83543D02*
X770280D01*
X772279Y81543D01*
Y84209D01*
D83*
X600438Y492800D02*
X600911Y492326D01*
X779038D02*
X780427Y490938D01*
X778570Y42000D02*
X778999Y42429D01*
X14000Y44800D02*
Y94021D01*
Y94621D02*
Y143831D01*
Y94621D02*
X14087Y94534D01*
X14095D01*
X14000Y143831D02*
Y195000D01*
Y244800D01*
X211741Y154800D02*
X212800D01*
X294000Y236000D02*
X322000D01*
X212800Y154800D02*
X294000Y236000D01*
X339000Y263000D02*
X356000Y246000D01*
X279000Y263000D02*
X339000D01*
X188000Y172000D02*
X279000Y263000D01*
X188000Y111000D02*
Y172000D01*
Y111000D02*
X208000Y91000D01*
X238999Y32429D02*
X418999D01*
X213549Y55948D02*
Y80777D01*
Y55948D02*
X236518Y32979D01*
X238449D01*
X238999Y32429D01*
Y52429D02*
X418999D01*
X211741Y144800D02*
X238999Y117541D01*
Y52429D02*
Y117541D01*
X397349Y146129D02*
X491049Y52429D01*
X598999D01*
X239964Y492326D02*
X419964D01*
X282520Y280425D02*
X462520D01*
X2000Y504729D02*
X19410Y522139D01*
Y582590D01*
X5239Y596761D02*
X19410Y582590D01*
X5239Y596761D02*
Y600668D01*
X600911Y492326D02*
X779038D01*
X599964D02*
X600438Y492800D01*
X462520Y172272D02*
Y280425D01*
Y172272D02*
X526291Y108501D01*
X239450Y491812D02*
X239964Y492326D01*
D85*
X39000Y435000D02*
Y435091D01*
X142648Y400995D02*
X143186D01*
X118713Y377254D02*
X118906D01*
X118125Y376665D02*
X118713Y377254D01*
X117583Y376665D02*
X118125D01*
X118906Y377254D02*
X142648Y400995D01*
X12000Y681678D02*
X16291Y677387D01*
Y662800D02*
Y677387D01*
X12000Y681678D02*
Y681678D01*
X51650Y433647D02*
Y433810D01*
X34291Y454709D02*
X54000Y435000D01*
X32941Y452519D02*
X51650Y433810D01*
X54000Y432000D02*
Y435000D01*
X34291Y454709D02*
Y497800D01*
X32941Y452519D02*
Y498450D01*
X52000Y430000D02*
Y430000D01*
X54000Y432000D01*
X28474Y437617D02*
Y647526D01*
X2755Y673245D02*
Y676435D01*
Y673245D02*
X28474Y647526D01*
X16291Y662800D02*
X30241Y648850D01*
X2000Y677190D02*
X2755Y676435D01*
X30241Y443850D02*
Y648850D01*
X2000Y668213D02*
X2787D01*
X27124Y437058D02*
Y643876D01*
X2787Y668213D02*
X27124Y643876D01*
X31591Y446500D02*
X41518Y436573D01*
Y434027D02*
Y436573D01*
X31591Y446500D02*
Y651500D01*
X34291Y497800D02*
X42291Y505800D01*
X19291Y663800D02*
X31591Y651500D01*
X32941Y498450D02*
X40941Y506450D01*
X30241Y443850D02*
X39000Y435091D01*
X38835Y416165D02*
X49197D01*
X24424Y430576D02*
X38835Y416165D01*
X24424Y430576D02*
Y634667D01*
X25774Y432135D02*
Y637317D01*
Y432135D02*
X39004Y418905D01*
X39418D01*
X38898Y431407D02*
X41518Y434027D01*
X22291Y664709D02*
X40941Y646059D01*
Y506450D02*
Y646059D01*
X42291Y505800D02*
Y655800D01*
X24291Y673800D02*
X42291Y655800D01*
X22291Y664709D02*
Y680800D01*
X-1550Y664641D02*
X25774Y637317D01*
X27124Y437058D02*
X38043Y426139D01*
X28474Y437617D02*
X37291Y428800D01*
X-3709Y662800D02*
X24424Y634667D01*
X38898Y431188D02*
Y431407D01*
X37291Y428800D02*
X40291D01*
X43291Y425800D01*
X38043Y426139D02*
X38791D01*
X43291Y425800D02*
X52291D01*
X49197Y416165D02*
X50651Y417619D01*
X51110D01*
X19291Y663800D02*
Y679800D01*
X12000Y708607D02*
X24291Y696316D01*
Y673800D02*
Y696316D01*
X12437Y690654D02*
X22291Y680800D01*
X13099Y685992D02*
X19291Y679800D01*
X10099Y685992D02*
X13099D01*
X7291Y688800D02*
X10099Y685992D01*
X12000Y690654D02*
X12437D01*
X-1550Y664641D02*
Y682616D01*
X2000Y686166D01*
X-3709Y662800D02*
Y689434D01*
X2000Y695143D01*
Y695143D01*
X12000Y698509D02*
Y699631D01*
X7291Y688800D02*
Y693800D01*
X12000Y698509D01*
D87*
X211615Y86544D02*
D03*
X209615Y150544D02*
D03*
X395223Y151873D02*
D03*
X529165Y103127D02*
D03*
D92*
X779964Y442326D02*
D03*
Y462326D02*
D03*
Y452326D02*
D03*
Y472326D02*
D03*
Y482326D02*
D03*
Y432326D02*
D03*
X599964Y442326D02*
D03*
Y462326D02*
D03*
Y452326D02*
D03*
Y472326D02*
D03*
Y482326D02*
D03*
Y432326D02*
D03*
X419964D02*
D03*
Y482326D02*
D03*
Y472326D02*
D03*
Y452326D02*
D03*
Y462326D02*
D03*
Y442326D02*
D03*
X642520Y330425D02*
D03*
Y310425D02*
D03*
Y320425D02*
D03*
Y300425D02*
D03*
Y290425D02*
D03*
Y340425D02*
D03*
X462520D02*
D03*
Y290425D02*
D03*
Y300425D02*
D03*
Y320425D02*
D03*
Y310425D02*
D03*
Y330425D02*
D03*
X239964Y442326D02*
D03*
Y462326D02*
D03*
Y452326D02*
D03*
Y472326D02*
D03*
Y482326D02*
D03*
Y432326D02*
D03*
X102520Y340425D02*
D03*
Y290425D02*
D03*
Y300425D02*
D03*
Y320425D02*
D03*
Y310425D02*
D03*
Y330425D02*
D03*
X282520D02*
D03*
Y310425D02*
D03*
Y320425D02*
D03*
Y300425D02*
D03*
Y290425D02*
D03*
Y340425D02*
D03*
X103476Y740307D02*
D03*
Y730307D02*
D03*
X238999Y42429D02*
D03*
Y32429D02*
D03*
X598999D02*
D03*
Y42429D02*
D03*
X643476Y730307D02*
D03*
Y740307D02*
D03*
X283476D02*
D03*
Y730307D02*
D03*
X418999Y42429D02*
D03*
Y32429D02*
D03*
X778999D02*
D03*
Y42429D02*
D03*
X463476Y730307D02*
D03*
Y740307D02*
D03*
X610964Y421326D02*
D03*
X620964D02*
D03*
X440964D02*
D03*
X430964D02*
D03*
Y352326D02*
D03*
X440964D02*
D03*
X620964D02*
D03*
X610964D02*
D03*
D93*
X779964Y492326D02*
D03*
X599964D02*
D03*
X419964D02*
D03*
X642520Y280425D02*
D03*
X462520D02*
D03*
X239964Y492326D02*
D03*
X102520Y280425D02*
D03*
X282520D02*
D03*
X103476Y720307D02*
D03*
X238999Y52429D02*
D03*
X598999D02*
D03*
X643476Y720307D02*
D03*
X283476D02*
D03*
X418999Y52429D02*
D03*
X778999D02*
D03*
X463476Y720307D02*
D03*
D94*
X14000Y143831D02*
D03*
Y94021D02*
D03*
Y195000D02*
D03*
Y44800D02*
D03*
Y244800D02*
D03*
D95*
X24000Y143831D02*
D03*
X34000D02*
D03*
X54000D02*
D03*
X64000D02*
D03*
X74000D02*
D03*
X84000D02*
D03*
Y94021D02*
D03*
X74000D02*
D03*
X64000D02*
D03*
X54000D02*
D03*
X34000D02*
D03*
X24000D02*
D03*
Y195000D02*
D03*
X34000D02*
D03*
X54000D02*
D03*
X64000D02*
D03*
X74000D02*
D03*
X84000D02*
D03*
Y44800D02*
D03*
X74000D02*
D03*
X64000D02*
D03*
X54000D02*
D03*
X34000D02*
D03*
X24000D02*
D03*
Y244800D02*
D03*
X34000D02*
D03*
X54000D02*
D03*
X64000D02*
D03*
X74000D02*
D03*
X84000D02*
D03*
D96*
X630964Y421326D02*
D03*
X450964D02*
D03*
Y352326D02*
D03*
X630964D02*
D03*
D97*
X2000Y603115D02*
D03*
Y504729D02*
D03*
Y640536D02*
D03*
Y738922D02*
D03*
D98*
Y532406D02*
D03*
Y541383D02*
D03*
Y550359D02*
D03*
Y559335D02*
D03*
Y568312D02*
D03*
X12000Y572800D02*
D03*
Y563824D02*
D03*
Y554847D02*
D03*
Y545871D02*
D03*
X-8000Y572800D02*
D03*
Y563824D02*
D03*
Y554847D02*
D03*
Y545871D02*
D03*
Y536895D02*
D03*
Y672702D02*
D03*
Y681678D02*
D03*
Y690654D02*
D03*
Y699631D02*
D03*
Y708607D02*
D03*
X12000Y681678D02*
D03*
Y690654D02*
D03*
Y699631D02*
D03*
Y708607D02*
D03*
X2000Y704119D02*
D03*
Y695143D02*
D03*
Y686166D02*
D03*
Y677190D02*
D03*
Y668213D02*
D03*
D99*
X11842Y536973D02*
D03*
Y672780D02*
D03*
D100*
X2291Y333800D02*
D03*
D101*
Y353485D02*
D03*
D102*
X180000Y385000D02*
D03*
X110000Y523800D02*
D03*
X412000Y772800D02*
D03*
X440000D02*
D03*
X592000D02*
D03*
X620000D02*
D03*
X444000Y385000D02*
D03*
X708000D02*
D03*
X650552Y-91D02*
D03*
X620000Y0D02*
D03*
X290552Y-91D02*
D03*
X264000Y0D02*
D03*
X0D02*
D03*
X772000Y772800D02*
D03*
X440000Y0D02*
D03*
X412552Y248909D02*
D03*
X772552D02*
D03*
X592552D02*
D03*
X232552D02*
D03*
X232000Y772800D02*
D03*
X264000D02*
D03*
X650000Y523800D02*
D03*
X470000D02*
D03*
X470552Y-91D02*
D03*
X110552D02*
D03*
X290000Y523800D02*
D03*
X-0Y772800D02*
D03*
D103*
X436170Y437594D02*
D03*
X39000Y435000D02*
D03*
X40002Y464419D02*
D03*
X73958Y358491D02*
D03*
X135241Y418200D02*
D03*
X144643Y428162D02*
D03*
X135169Y411483D02*
D03*
X95706Y343007D02*
D03*
X72692Y362081D02*
D03*
X66528Y359472D02*
D03*
X77231Y362961D02*
D03*
X59024Y376684D02*
D03*
X53451Y359347D02*
D03*
X54291Y347800D02*
D03*
X57291Y341800D02*
D03*
X31522Y414607D02*
D03*
X120527Y382647D02*
D03*
X117583Y376665D02*
D03*
X122713Y377199D02*
D03*
X143186Y400995D02*
D03*
X141453Y395656D02*
D03*
X81453Y597962D02*
D03*
X625921Y767041D02*
D03*
X613921Y779041D02*
D03*
X613421Y767541D02*
D03*
X625921Y779041D02*
D03*
X619921Y764541D02*
D03*
X628421Y773041D02*
D03*
X611421D02*
D03*
X619921Y781541D02*
D03*
X625921Y-5759D02*
D03*
X613921Y6241D02*
D03*
X613421Y-5259D02*
D03*
X625921Y6241D02*
D03*
X619921Y-8259D02*
D03*
X628421Y241D02*
D03*
X611421D02*
D03*
X619921Y8741D02*
D03*
X443922Y393741D02*
D03*
X435422Y385241D02*
D03*
X452422D02*
D03*
X443922Y376741D02*
D03*
X449922Y391241D02*
D03*
X437422Y379741D02*
D03*
X437921Y391241D02*
D03*
X449922Y379241D02*
D03*
X707922Y393741D02*
D03*
X699422Y385241D02*
D03*
X716422D02*
D03*
X707922Y376741D02*
D03*
X713921Y391241D02*
D03*
X701421Y379741D02*
D03*
X701922Y391241D02*
D03*
X713921Y379241D02*
D03*
X179921Y393741D02*
D03*
X171422Y385241D02*
D03*
X188421D02*
D03*
X179921Y376741D02*
D03*
X185922Y391241D02*
D03*
X173422Y379741D02*
D03*
X173922Y391241D02*
D03*
X185922Y379241D02*
D03*
X263921Y8741D02*
D03*
X255421Y241D02*
D03*
X272422D02*
D03*
X263921Y-8259D02*
D03*
X269921Y6241D02*
D03*
X257421Y-5259D02*
D03*
X257922Y6241D02*
D03*
X269921Y-5759D02*
D03*
X439922Y8741D02*
D03*
X431422Y241D02*
D03*
X448421D02*
D03*
X439922Y-8259D02*
D03*
X445922Y6241D02*
D03*
X433422Y-5259D02*
D03*
X433921Y6241D02*
D03*
X445922Y-5759D02*
D03*
X-78Y8741D02*
D03*
X-8579Y241D02*
D03*
X8422D02*
D03*
X-78Y-8259D02*
D03*
X5922Y6241D02*
D03*
X-6578Y-5259D02*
D03*
X-6078Y6241D02*
D03*
X5922Y-5759D02*
D03*
X439922Y781541D02*
D03*
X431422Y773041D02*
D03*
X448421D02*
D03*
X439922Y764541D02*
D03*
X445922Y779041D02*
D03*
X433422Y767541D02*
D03*
X433921Y779041D02*
D03*
X445922Y767041D02*
D03*
X263921Y781541D02*
D03*
X255421Y773041D02*
D03*
X272422D02*
D03*
X263921Y764541D02*
D03*
X269921Y779041D02*
D03*
X257421Y767541D02*
D03*
X257922Y779041D02*
D03*
X269921Y767041D02*
D03*
X5922D02*
D03*
X-6078Y779041D02*
D03*
X-6578Y767541D02*
D03*
X5922Y779041D02*
D03*
X-78Y764541D02*
D03*
X8422Y773041D02*
D03*
X-8579D02*
D03*
X-78Y781541D02*
D03*
X51650Y433647D02*
D03*
X71756Y479756D02*
D03*
X41000Y478000D02*
D03*
X63000Y476000D02*
D03*
X135000Y484000D02*
D03*
X130000Y473000D02*
D03*
X134000Y475000D02*
D03*
X131291Y493709D02*
D03*
X110480Y362988D02*
D03*
X133000Y356000D02*
D03*
Y361000D02*
D03*
X292552Y338757D02*
D03*
X54492Y446206D02*
D03*
X111349Y338771D02*
D03*
X-4152Y388741D02*
D03*
X37546Y507685D02*
D03*
X37389Y517799D02*
D03*
X36883Y608014D02*
D03*
X36781Y613415D02*
D03*
X36543Y618885D02*
D03*
X36509Y624219D02*
D03*
X52000Y430000D02*
D03*
X50000Y497000D02*
D03*
X72791Y321209D02*
D03*
X67791D02*
D03*
X62791D02*
D03*
X57791D02*
D03*
X101000Y349000D02*
D03*
X39700Y401871D02*
D03*
X98457Y460061D02*
D03*
X134000Y462000D02*
D03*
X129000Y448345D02*
D03*
X139000Y462000D02*
D03*
X98000Y243000D02*
D03*
X94000D02*
D03*
X72894Y-62D02*
D03*
X60291Y1800D02*
D03*
X48000Y1000D02*
D03*
X109800Y457939D02*
D03*
X111474Y446394D02*
D03*
X114824Y446378D02*
D03*
X105731Y459782D02*
D03*
X102000Y24600D02*
D03*
X98000Y24000D02*
D03*
X74237Y17854D02*
D03*
X94687Y23313D02*
D03*
X198899Y167101D02*
D03*
X102000Y139000D02*
D03*
X392349Y146129D02*
D03*
Y151129D02*
D03*
X397349Y146129D02*
D03*
Y151129D02*
D03*
Y156129D02*
D03*
X332000Y236000D02*
D03*
X356000Y246000D02*
D03*
Y241000D02*
D03*
Y236000D02*
D03*
X361000Y246000D02*
D03*
Y241000D02*
D03*
Y236000D02*
D03*
X366000Y246000D02*
D03*
Y241000D02*
D03*
Y236000D02*
D03*
X332000Y241000D02*
D03*
Y246000D02*
D03*
X327000Y236000D02*
D03*
Y241000D02*
D03*
Y246000D02*
D03*
X322000Y236000D02*
D03*
Y241000D02*
D03*
Y246000D02*
D03*
X102000Y243000D02*
D03*
X93000Y190000D02*
D03*
X102000D02*
D03*
X102809Y71221D02*
D03*
X93809D02*
D03*
X98809D02*
D03*
X94584Y138432D02*
D03*
X97927Y189927D02*
D03*
X98584Y138831D02*
D03*
X63000Y461000D02*
D03*
X55291Y467800D02*
D03*
X37341Y488537D02*
D03*
X121000Y478000D02*
D03*
X120000Y446000D02*
D03*
X111291Y472556D02*
D03*
X29000Y418000D02*
D03*
X33310Y418366D02*
D03*
X39418Y418905D02*
D03*
X85445Y953D02*
D03*
X110175Y349342D02*
D03*
X141556Y390556D02*
D03*
X115291Y347291D02*
D03*
X81094Y363003D02*
D03*
X85563Y362724D02*
D03*
X-4000Y411000D02*
D03*
Y403000D02*
D03*
X-4050Y378251D02*
D03*
X38791Y426139D02*
D03*
X36826Y560885D02*
D03*
X37081Y556119D02*
D03*
X36000Y592000D02*
D03*
X37000Y644000D02*
D03*
X37291Y653800D02*
D03*
X36741Y574750D02*
D03*
X37291Y579800D02*
D03*
X22000Y625000D02*
D03*
Y619000D02*
D03*
X-2000Y472000D02*
D03*
X-9200Y463800D02*
D03*
Y458800D02*
D03*
X-3000Y444000D02*
D03*
X570814Y185609D02*
D03*
X565814D02*
D03*
X560814D02*
D03*
X555814D02*
D03*
X550814D02*
D03*
X545814D02*
D03*
X570814Y190609D02*
D03*
X565814D02*
D03*
X560814D02*
D03*
X555814D02*
D03*
X550814D02*
D03*
X545814D02*
D03*
X501453Y190700D02*
D03*
X506453D02*
D03*
X511453D02*
D03*
X516453D02*
D03*
X521453D02*
D03*
X526453D02*
D03*
X501453Y185700D02*
D03*
X506453D02*
D03*
X511453D02*
D03*
X516453D02*
D03*
X521453D02*
D03*
X526453D02*
D03*
X507820Y110410D02*
D03*
X513827Y110418D02*
D03*
X332425Y132900D02*
D03*
Y129900D02*
D03*
X335425Y132900D02*
D03*
Y129900D02*
D03*
X347425D02*
D03*
Y132900D02*
D03*
X338425D02*
D03*
Y129900D02*
D03*
X344425D02*
D03*
X341425D02*
D03*
X344425Y132900D02*
D03*
X341425D02*
D03*
X388795Y164000D02*
D03*
X374291Y67800D02*
D03*
X371291D02*
D03*
X368291D02*
D03*
X374291Y70800D02*
D03*
X371291D02*
D03*
X368291D02*
D03*
X124047Y343044D02*
D03*
X253047Y437044D02*
D03*
X37070Y694280D02*
D03*
X37291Y705800D02*
D03*
Y716450D02*
D03*
X36951Y671165D02*
D03*
X37402Y677305D02*
D03*
X19524Y470103D02*
D03*
X78352Y458198D02*
D03*
X84081Y458779D02*
D03*
X96285Y473071D02*
D03*
X83941Y566729D02*
D03*
X102081Y487716D02*
D03*
X116659Y494800D02*
D03*
X135504Y426505D02*
D03*
X135786Y433413D02*
D03*
X135291Y421800D02*
D03*
X137119Y381535D02*
D03*
X134118Y384185D02*
D03*
X102273Y358247D02*
D03*
X86137Y374772D02*
D03*
X51741Y406971D02*
D03*
X51296Y403050D02*
D03*
X51599Y410690D02*
D03*
X38898Y431188D02*
D03*
X52291Y425800D02*
D03*
Y421800D02*
D03*
X156425Y132100D02*
D03*
X159425D02*
D03*
X156425Y129100D02*
D03*
X159425D02*
D03*
X153425D02*
D03*
Y132100D02*
D03*
X162425D02*
D03*
Y129100D02*
D03*
X150425D02*
D03*
Y132100D02*
D03*
X147425Y129100D02*
D03*
Y132100D02*
D03*
X185100Y67021D02*
D03*
X188100D02*
D03*
X191100D02*
D03*
X185100Y64021D02*
D03*
X188100D02*
D03*
X191100D02*
D03*
X56803Y299288D02*
D03*
X444806Y479975D02*
D03*
X211741Y149800D02*
D03*
X21291Y466550D02*
D03*
X45241Y447800D02*
D03*
X73362Y623729D02*
D03*
X74362Y571729D02*
D03*
X261291Y300800D02*
D03*
X264291Y471800D02*
D03*
X74291Y586800D02*
D03*
X74362Y581729D02*
D03*
X73291Y638800D02*
D03*
X73362Y633729D02*
D03*
X81291Y649800D02*
D03*
X68291Y490800D02*
D03*
Y485288D02*
D03*
X76535Y466556D02*
D03*
X101764Y446273D02*
D03*
X13291Y445800D02*
D03*
X51110Y417619D02*
D03*
X19291Y463800D02*
D03*
X82079Y374587D02*
D03*
X100416Y362800D02*
D03*
X51000Y388091D02*
D03*
X80110Y446981D02*
D03*
X122567Y423524D02*
D03*
X123331Y403839D02*
D03*
X111606Y376485D02*
D03*
X56803Y294800D02*
D03*
X84291Y300800D02*
D03*
X85039Y618729D02*
D03*
X32291Y-200D02*
D03*
X76291Y306800D02*
D03*
Y312800D02*
D03*
Y309800D02*
D03*
X40535Y17556D02*
D03*
X50535D02*
D03*
X62535D02*
D03*
X30535Y405556D02*
D03*
X135535Y406044D02*
D03*
X79291Y338800D02*
D03*
X122661Y429430D02*
D03*
X71047Y466556D02*
D03*
X57200Y443709D02*
D03*
X63047Y466556D02*
D03*
X30535Y372044D02*
D03*
X68291Y352800D02*
D03*
X39291Y375800D02*
D03*
X572449Y94958D02*
D03*
Y99958D02*
D03*
X577449Y94958D02*
D03*
Y99958D02*
D03*
Y104958D02*
D03*
X531583Y104756D02*
D03*
Y99756D02*
D03*
Y94757D02*
D03*
X526583Y99756D02*
D03*
Y94757D02*
D03*
X206741Y144800D02*
D03*
Y149800D02*
D03*
X211741Y144800D02*
D03*
Y154800D02*
D03*
X213549Y90777D02*
D03*
Y85777D02*
D03*
Y80777D02*
D03*
X208549Y85777D02*
D03*
Y80777D02*
D03*
D105*
X361000Y241000D02*
D03*
X327000D02*
D03*
M02*
