G04*
G04 #@! TF.GenerationSoftware,Altium Limited,Altium Designer,20.0.14 (345)*
G04*
G04 Layer_Physical_Order=2*
G04 Layer_Color=36540*
%FSLAX25Y25*%
%MOIN*%
G70*
G01*
G75*
%ADD10C,0.01000*%
%ADD83C,0.05000*%
%ADD92C,0.07874*%
%ADD93R,0.07874X0.07874*%
%ADD95C,0.06299*%
%ADD97C,0.19685*%
%ADD98C,0.05000*%
%ADD102C,0.21654*%
%ADD103C,0.02600*%
%ADD104C,0.08000*%
G36*
X-3197Y785526D02*
X773124D01*
X773611Y785038D01*
X773388Y784554D01*
X773000Y784585D01*
Y773800D01*
X783785D01*
X783754Y774188D01*
X784238Y774411D01*
X785526Y773124D01*
X785526Y-2459D01*
X775259Y-12725D01*
X-3173D01*
X-3243Y-12739D01*
X-5041Y-12562D01*
X-6837Y-12017D01*
X-8492Y-11133D01*
X-9942Y-9942D01*
X-11133Y-8492D01*
X-12017Y-6837D01*
X-12562Y-5041D01*
X-12739Y-3243D01*
X-12725Y-3173D01*
Y595982D01*
X-12316Y596139D01*
X-12225Y596144D01*
X-4541Y588459D01*
X-4293Y588294D01*
X-4000Y588235D01*
X13000Y588235D01*
X13293Y588294D01*
X13541Y588459D01*
X13541Y588459D01*
X19541Y594459D01*
X19706Y594707D01*
X19765Y595000D01*
Y652247D01*
X19706Y652540D01*
X19541Y652788D01*
X19486Y653386D01*
X25609Y659510D01*
X26130Y660188D01*
X26458Y660979D01*
X26569Y661828D01*
Y717631D01*
X26458Y718479D01*
X26130Y719270D01*
X25609Y719949D01*
X11464Y734094D01*
X11467Y734098D01*
X12105Y735639D01*
X12494Y737260D01*
X12625Y738922D01*
X12494Y740584D01*
X12105Y742205D01*
X11467Y743746D01*
X10596Y745167D01*
X9513Y746435D01*
X8245Y747518D01*
X6824Y748389D01*
X5283Y749027D01*
X3662Y749416D01*
X2000Y749547D01*
X338Y749416D01*
X-1283Y749027D01*
X-2824Y748389D01*
X-4245Y747518D01*
X-5513Y746435D01*
X-6596Y745167D01*
X-7467Y743746D01*
X-8105Y742205D01*
X-8495Y740584D01*
X-8625Y738922D01*
X-8495Y737260D01*
X-8105Y735639D01*
X-7467Y734098D01*
X-6596Y732677D01*
X-5513Y731409D01*
X-4245Y730326D01*
X-2824Y729455D01*
X-1283Y728817D01*
X338Y728428D01*
X2000Y728297D01*
X3662Y728428D01*
X5283Y728817D01*
X6824Y729455D01*
X6828Y729458D01*
X20013Y716273D01*
Y663185D01*
X11314Y654486D01*
X10715Y654541D01*
X10467Y654706D01*
X10175Y654765D01*
X-10000Y654765D01*
X-10074Y654750D01*
X-10150Y654750D01*
X-10219Y654721D01*
X-10293Y654706D01*
X-10356Y654664D01*
X-10425Y654635D01*
X-10478Y654582D01*
X-10541Y654541D01*
X-10583Y654478D01*
X-10636Y654424D01*
X-12225Y652040D01*
X-12725Y652192D01*
Y776064D01*
X-12735Y776111D01*
X-12562Y777864D01*
X-12017Y779660D01*
X-11133Y781315D01*
X-9942Y782766D01*
X-8492Y783956D01*
X-6837Y784841D01*
X-5041Y785386D01*
X-3338Y785554D01*
X-3197Y785526D01*
D02*
G37*
G36*
X10175Y654000D02*
X10366Y653538D01*
X7010Y650182D01*
X6938Y650227D01*
X5361Y650880D01*
X3701Y651278D01*
X3000Y651334D01*
Y641536D01*
X12797D01*
X12742Y642238D01*
X12344Y643897D01*
X11691Y645474D01*
X11646Y645546D01*
X18538Y652438D01*
X19000Y652247D01*
Y595000D01*
X13000Y589000D01*
X-4000Y589000D01*
X-11706Y596706D01*
Y651441D01*
X-10000Y654000D01*
X10175Y654000D01*
D02*
G37*
%LPC*%
G36*
X593000Y784585D02*
Y773800D01*
X603785D01*
X603717Y774656D01*
X603283Y776466D01*
X602570Y778186D01*
X601598Y779773D01*
X600389Y781189D01*
X598973Y782398D01*
X597386Y783370D01*
X595666Y784083D01*
X593856Y784517D01*
X593000Y784585D01*
D02*
G37*
G36*
X413000D02*
Y773800D01*
X423785D01*
X423717Y774656D01*
X423283Y776466D01*
X422570Y778186D01*
X421598Y779773D01*
X420389Y781189D01*
X418973Y782398D01*
X417386Y783370D01*
X415666Y784083D01*
X413856Y784517D01*
X413000Y784585D01*
D02*
G37*
G36*
X233000D02*
Y773800D01*
X243785D01*
X243717Y774656D01*
X243283Y776466D01*
X242570Y778186D01*
X241598Y779773D01*
X240389Y781189D01*
X238973Y782398D01*
X237386Y783370D01*
X235666Y784083D01*
X233856Y784517D01*
X233000Y784585D01*
D02*
G37*
G36*
X621000Y784585D02*
Y773800D01*
X631785D01*
X631717Y774656D01*
X631283Y776466D01*
X630570Y778186D01*
X629598Y779773D01*
X628389Y781189D01*
X626973Y782398D01*
X625386Y783370D01*
X623666Y784083D01*
X621856Y784517D01*
X621000Y784585D01*
D02*
G37*
G36*
X619000D02*
X618144Y784517D01*
X616334Y784083D01*
X614614Y783370D01*
X613027Y782398D01*
X611611Y781189D01*
X610402Y779773D01*
X609430Y778186D01*
X608717Y776466D01*
X608283Y774656D01*
X608215Y773800D01*
X619000D01*
Y784585D01*
D02*
G37*
G36*
X441000D02*
Y773800D01*
X451785D01*
X451717Y774656D01*
X451283Y776466D01*
X450570Y778186D01*
X449598Y779773D01*
X448389Y781189D01*
X446973Y782398D01*
X445386Y783370D01*
X443666Y784083D01*
X441856Y784517D01*
X441000Y784585D01*
D02*
G37*
G36*
X439000D02*
X438144Y784517D01*
X436334Y784083D01*
X434614Y783370D01*
X433027Y782398D01*
X431611Y781189D01*
X430402Y779773D01*
X429430Y778186D01*
X428717Y776466D01*
X428283Y774656D01*
X428215Y773800D01*
X439000D01*
Y784585D01*
D02*
G37*
G36*
X265000D02*
Y773800D01*
X275785D01*
X275717Y774656D01*
X275283Y776466D01*
X274570Y778186D01*
X273598Y779773D01*
X272389Y781189D01*
X270973Y782398D01*
X269386Y783370D01*
X267666Y784083D01*
X265856Y784517D01*
X265000Y784585D01*
D02*
G37*
G36*
X263000D02*
X262144Y784517D01*
X260334Y784083D01*
X258614Y783370D01*
X257027Y782398D01*
X255611Y781189D01*
X254402Y779773D01*
X253430Y778186D01*
X252717Y776466D01*
X252283Y774656D01*
X252215Y773800D01*
X263000D01*
Y784585D01*
D02*
G37*
G36*
X1000D02*
Y773800D01*
X11785D01*
X11717Y774656D01*
X11283Y776466D01*
X10570Y778186D01*
X9598Y779773D01*
X8389Y781189D01*
X6973Y782398D01*
X5386Y783370D01*
X3666Y784083D01*
X1856Y784517D01*
X1000Y784585D01*
D02*
G37*
G36*
X-1000D02*
X-1856Y784517D01*
X-3666Y784083D01*
X-5386Y783370D01*
X-6973Y782398D01*
X-8389Y781189D01*
X-9598Y779773D01*
X-10570Y778186D01*
X-11283Y776466D01*
X-11717Y774656D01*
X-11785Y773800D01*
X-1000D01*
Y784585D01*
D02*
G37*
G36*
X771000D02*
X770144Y784517D01*
X768334Y784083D01*
X766614Y783370D01*
X765027Y782398D01*
X763611Y781189D01*
X762402Y779773D01*
X761430Y778186D01*
X760717Y776466D01*
X760283Y774656D01*
X760215Y773800D01*
X771000D01*
Y784585D01*
D02*
G37*
G36*
X591000D02*
X590144Y784517D01*
X588334Y784083D01*
X586614Y783370D01*
X585027Y782398D01*
X583611Y781189D01*
X582402Y779773D01*
X581430Y778186D01*
X580717Y776466D01*
X580283Y774656D01*
X580215Y773800D01*
X591000D01*
Y784585D01*
D02*
G37*
G36*
X411000D02*
X410144Y784517D01*
X408334Y784083D01*
X406614Y783370D01*
X405027Y782398D01*
X403611Y781189D01*
X402402Y779773D01*
X401430Y778186D01*
X400717Y776466D01*
X400283Y774656D01*
X400215Y773800D01*
X411000D01*
Y784585D01*
D02*
G37*
G36*
X231000D02*
X230144Y784517D01*
X228334Y784083D01*
X226614Y783370D01*
X225027Y782398D01*
X223611Y781189D01*
X222402Y779773D01*
X221430Y778186D01*
X220717Y776466D01*
X220283Y774656D01*
X220215Y773800D01*
X231000D01*
Y784585D01*
D02*
G37*
G36*
X783785Y771800D02*
X773000D01*
Y761015D01*
X773856Y761083D01*
X775666Y761517D01*
X777386Y762230D01*
X778973Y763202D01*
X780389Y764411D01*
X781598Y765827D01*
X782570Y767414D01*
X783283Y769134D01*
X783717Y770944D01*
X783785Y771800D01*
D02*
G37*
G36*
X603785D02*
X593000D01*
Y761015D01*
X593856Y761083D01*
X595666Y761517D01*
X597386Y762230D01*
X598973Y763202D01*
X600389Y764411D01*
X601598Y765827D01*
X602570Y767414D01*
X603283Y769134D01*
X603717Y770944D01*
X603785Y771800D01*
D02*
G37*
G36*
X423785D02*
X413000D01*
Y761015D01*
X413856Y761083D01*
X415666Y761517D01*
X417386Y762230D01*
X418973Y763202D01*
X420389Y764411D01*
X421598Y765827D01*
X422570Y767414D01*
X423283Y769134D01*
X423717Y770944D01*
X423785Y771800D01*
D02*
G37*
G36*
X243785D02*
X233000D01*
Y761015D01*
X233856Y761083D01*
X235666Y761517D01*
X237386Y762230D01*
X238973Y763202D01*
X240389Y764411D01*
X241598Y765827D01*
X242570Y767414D01*
X243283Y769134D01*
X243717Y770944D01*
X243785Y771800D01*
D02*
G37*
G36*
X631785D02*
X621000D01*
Y761015D01*
X621856Y761083D01*
X623666Y761517D01*
X625386Y762230D01*
X626973Y763202D01*
X628389Y764411D01*
X629598Y765827D01*
X630570Y767414D01*
X631283Y769134D01*
X631717Y770944D01*
X631785Y771800D01*
D02*
G37*
G36*
X619000D02*
X608215D01*
X608283Y770944D01*
X608717Y769134D01*
X609430Y767414D01*
X610402Y765827D01*
X611611Y764411D01*
X613027Y763202D01*
X614614Y762230D01*
X616334Y761517D01*
X618144Y761083D01*
X619000Y761015D01*
Y771800D01*
D02*
G37*
G36*
X451785D02*
X441000D01*
Y761015D01*
X441856Y761083D01*
X443666Y761517D01*
X445386Y762230D01*
X446973Y763202D01*
X448389Y764411D01*
X449598Y765827D01*
X450570Y767414D01*
X451283Y769134D01*
X451717Y770944D01*
X451785Y771800D01*
D02*
G37*
G36*
X439000D02*
X428215D01*
X428283Y770944D01*
X428717Y769134D01*
X429430Y767414D01*
X430402Y765827D01*
X431611Y764411D01*
X433027Y763202D01*
X434614Y762230D01*
X436334Y761517D01*
X438144Y761083D01*
X439000Y761015D01*
Y771800D01*
D02*
G37*
G36*
X275785D02*
X265000D01*
Y761015D01*
X265856Y761083D01*
X267666Y761517D01*
X269386Y762230D01*
X270973Y763202D01*
X272389Y764411D01*
X273598Y765827D01*
X274570Y767414D01*
X275283Y769134D01*
X275717Y770944D01*
X275785Y771800D01*
D02*
G37*
G36*
X263000D02*
X252215D01*
X252283Y770944D01*
X252717Y769134D01*
X253430Y767414D01*
X254402Y765827D01*
X255611Y764411D01*
X257027Y763202D01*
X258614Y762230D01*
X260334Y761517D01*
X262144Y761083D01*
X263000Y761015D01*
Y771800D01*
D02*
G37*
G36*
X11785D02*
X1000D01*
Y761015D01*
X1856Y761083D01*
X3666Y761517D01*
X5386Y762230D01*
X6973Y763202D01*
X8389Y764411D01*
X9598Y765827D01*
X10570Y767414D01*
X11283Y769134D01*
X11717Y770944D01*
X11785Y771800D01*
D02*
G37*
G36*
X-1000D02*
X-11785D01*
X-11717Y770944D01*
X-11283Y769134D01*
X-10570Y767414D01*
X-9598Y765827D01*
X-8389Y764411D01*
X-6973Y763202D01*
X-5386Y762230D01*
X-3666Y761517D01*
X-1856Y761083D01*
X-1000Y761015D01*
Y771800D01*
D02*
G37*
G36*
X771000D02*
X760215D01*
X760283Y770944D01*
X760717Y769134D01*
X761430Y767414D01*
X762402Y765827D01*
X763611Y764411D01*
X765027Y763202D01*
X766614Y762230D01*
X768334Y761517D01*
X770144Y761083D01*
X771000Y761015D01*
Y771800D01*
D02*
G37*
G36*
X591000D02*
X580215D01*
X580283Y770944D01*
X580717Y769134D01*
X581430Y767414D01*
X582402Y765827D01*
X583611Y764411D01*
X585027Y763202D01*
X586614Y762230D01*
X588334Y761517D01*
X590144Y761083D01*
X591000Y761015D01*
Y771800D01*
D02*
G37*
G36*
X411000D02*
X400215D01*
X400283Y770944D01*
X400717Y769134D01*
X401430Y767414D01*
X402402Y765827D01*
X403611Y764411D01*
X405027Y763202D01*
X406614Y762230D01*
X408334Y761517D01*
X410144Y761083D01*
X411000Y761015D01*
Y771800D01*
D02*
G37*
G36*
X231000D02*
X220215D01*
X220283Y770944D01*
X220717Y769134D01*
X221430Y767414D01*
X222402Y765827D01*
X223611Y764411D01*
X225027Y763202D01*
X226614Y762230D01*
X228334Y761517D01*
X230144Y761083D01*
X231000Y761015D01*
Y771800D01*
D02*
G37*
G36*
X463476Y746273D02*
X462312Y746158D01*
X461193Y745819D01*
X460161Y745267D01*
X459257Y744525D01*
X458515Y743621D01*
X457964Y742590D01*
X457624Y741471D01*
X457510Y740307D01*
X457624Y739143D01*
X457964Y738024D01*
X458515Y736993D01*
X459257Y736089D01*
X460161Y735347D01*
X460747Y735034D01*
X460747Y735034D01*
X460770Y734454D01*
X459955Y733828D01*
X459163Y732797D01*
X458666Y731596D01*
X458628Y731307D01*
X463476D01*
X468324D01*
X468286Y731596D01*
X467788Y732797D01*
X466997Y733828D01*
X466181Y734454D01*
X466204Y735034D01*
X466205Y735034D01*
X466790Y735347D01*
X467694Y736089D01*
X468436Y736993D01*
X468987Y738024D01*
X469327Y739143D01*
X469441Y740307D01*
X469327Y741471D01*
X468987Y742590D01*
X468436Y743621D01*
X467694Y744525D01*
X466790Y745267D01*
X465759Y745819D01*
X464640Y746158D01*
X463476Y746273D01*
D02*
G37*
G36*
X283476D02*
X282312Y746158D01*
X281193Y745819D01*
X280161Y745267D01*
X279257Y744525D01*
X278515Y743621D01*
X277964Y742590D01*
X277625Y741471D01*
X277510Y740307D01*
X277625Y739143D01*
X277964Y738024D01*
X278515Y736993D01*
X279257Y736089D01*
X280161Y735347D01*
X280747Y735034D01*
X280747Y735034D01*
X280770Y734454D01*
X279955Y733828D01*
X279163Y732797D01*
X278666Y731596D01*
X278628Y731307D01*
X283476D01*
X288324D01*
X288286Y731596D01*
X287788Y732797D01*
X286997Y733828D01*
X286181Y734454D01*
X286204Y735034D01*
X286205Y735034D01*
X286790Y735347D01*
X287694Y736089D01*
X288436Y736993D01*
X288987Y738024D01*
X289327Y739143D01*
X289441Y740307D01*
X289327Y741471D01*
X288987Y742590D01*
X288436Y743621D01*
X287694Y744525D01*
X286790Y745267D01*
X285759Y745819D01*
X284640Y746158D01*
X283476Y746273D01*
D02*
G37*
G36*
X103476D02*
X102312Y746158D01*
X101193Y745819D01*
X100161Y745267D01*
X99257Y744525D01*
X98515Y743621D01*
X97964Y742590D01*
X97624Y741471D01*
X97510Y740307D01*
X97624Y739143D01*
X97964Y738024D01*
X98515Y736993D01*
X99257Y736089D01*
X100161Y735347D01*
X100747Y735034D01*
X100747Y735034D01*
X100770Y734454D01*
X99954Y733828D01*
X99163Y732797D01*
X98666Y731596D01*
X98628Y731307D01*
X103476D01*
X108324D01*
X108286Y731596D01*
X107788Y732797D01*
X106997Y733828D01*
X106181Y734454D01*
X106204Y735034D01*
X106204Y735034D01*
X106790Y735347D01*
X107694Y736089D01*
X108436Y736993D01*
X108987Y738024D01*
X109327Y739143D01*
X109441Y740307D01*
X109327Y741471D01*
X108987Y742590D01*
X108436Y743621D01*
X107694Y744525D01*
X106790Y745267D01*
X105759Y745819D01*
X104639Y746158D01*
X103476Y746273D01*
D02*
G37*
G36*
X643476D02*
X642312Y746158D01*
X641193Y745819D01*
X640161Y745267D01*
X639257Y744525D01*
X638515Y743621D01*
X637964Y742590D01*
X637625Y741471D01*
X637510Y740307D01*
X637625Y739143D01*
X637964Y738024D01*
X638515Y736993D01*
X639257Y736089D01*
X640161Y735347D01*
X640747Y735034D01*
X640747Y735034D01*
X640770Y734454D01*
X639955Y733828D01*
X639163Y732797D01*
X638666Y731596D01*
X638628Y731307D01*
X643476D01*
X648324D01*
X648286Y731596D01*
X647788Y732797D01*
X646997Y733828D01*
X646181Y734454D01*
X646204Y735034D01*
X646205Y735034D01*
X646790Y735347D01*
X647694Y736089D01*
X648436Y736993D01*
X648987Y738024D01*
X649327Y739143D01*
X649441Y740307D01*
X649327Y741471D01*
X648987Y742590D01*
X648436Y743621D01*
X647694Y744525D01*
X646790Y745267D01*
X645759Y745819D01*
X644639Y746158D01*
X643476Y746273D01*
D02*
G37*
G36*
X648324Y729307D02*
X643476D01*
X638628D01*
X638666Y729018D01*
X639163Y727817D01*
X639955Y726786D01*
X640044Y726717D01*
X639883Y726244D01*
X637539D01*
Y714370D01*
X649413D01*
Y726244D01*
X647068D01*
X646908Y726717D01*
X646997Y726786D01*
X647788Y727817D01*
X648286Y729018D01*
X648324Y729307D01*
D02*
G37*
G36*
X468324Y729307D02*
X463476D01*
X458628D01*
X458666Y729018D01*
X459163Y727817D01*
X459955Y726786D01*
X460044Y726717D01*
X459883Y726244D01*
X457539D01*
Y714370D01*
X469413D01*
Y726244D01*
X467068D01*
X466908Y726717D01*
X466997Y726786D01*
X467788Y727817D01*
X468286Y729018D01*
X468324Y729307D01*
D02*
G37*
G36*
X288324D02*
X283476D01*
X278628D01*
X278666Y729018D01*
X279163Y727817D01*
X279955Y726786D01*
X280044Y726717D01*
X279883Y726244D01*
X277539D01*
Y714370D01*
X289413D01*
Y726244D01*
X287068D01*
X286908Y726717D01*
X286997Y726786D01*
X287788Y727817D01*
X288286Y729018D01*
X288324Y729307D01*
D02*
G37*
G36*
X108324D02*
X103476D01*
X98628D01*
X98666Y729018D01*
X99163Y727817D01*
X99954Y726786D01*
X100044Y726717D01*
X99883Y726244D01*
X97539D01*
Y714370D01*
X109413D01*
Y726244D01*
X107068D01*
X106908Y726717D01*
X106997Y726786D01*
X107788Y727817D01*
X108286Y729018D01*
X108324Y729307D01*
D02*
G37*
G36*
X37291Y718540D02*
X36491Y718381D01*
X35813Y717928D01*
X35360Y717250D01*
X35201Y716450D01*
X35360Y715650D01*
X35813Y714972D01*
X36491Y714519D01*
X37291Y714360D01*
X38091Y714519D01*
X38769Y714972D01*
X39222Y715650D01*
X39382Y716450D01*
X39222Y717250D01*
X38769Y717928D01*
X38091Y718381D01*
X37291Y718540D01*
D02*
G37*
G36*
X-7000Y711981D02*
Y709607D01*
X-4626D01*
X-4943Y710372D01*
X-5504Y711103D01*
X-6235Y711664D01*
X-7000Y711981D01*
D02*
G37*
G36*
X-9000Y711981D02*
X-9765Y711664D01*
X-10496Y711103D01*
X-11057Y710372D01*
X-11374Y709607D01*
X-9000D01*
Y711981D01*
D02*
G37*
G36*
X12000Y711885D02*
X11152Y711773D01*
X10361Y711446D01*
X9682Y710925D01*
X9161Y710246D01*
X8834Y709455D01*
X8722Y708607D01*
X8834Y707759D01*
X9161Y706968D01*
X9682Y706289D01*
X10361Y705768D01*
X11152Y705441D01*
X12000Y705329D01*
X12848Y705441D01*
X13639Y705768D01*
X14318Y706289D01*
X14839Y706968D01*
X15166Y707759D01*
X15278Y708607D01*
X15166Y709455D01*
X14839Y710246D01*
X14318Y710925D01*
X13639Y711446D01*
X12848Y711773D01*
X12000Y711885D01*
D02*
G37*
G36*
X-9000Y707607D02*
X-11374D01*
X-11057Y706842D01*
X-10496Y706111D01*
X-9765Y705550D01*
X-9000Y705233D01*
Y707607D01*
D02*
G37*
G36*
X-4626D02*
X-7000D01*
Y705233D01*
X-6235Y705550D01*
X-5504Y706111D01*
X-4943Y706842D01*
X-4626Y707607D01*
D02*
G37*
G36*
X2000Y707397D02*
X1152Y707285D01*
X361Y706958D01*
X-318Y706437D01*
X-839Y705758D01*
X-1166Y704967D01*
X-1278Y704119D01*
X-1166Y703270D01*
X-839Y702480D01*
X-318Y701801D01*
X361Y701280D01*
X1152Y700953D01*
X2000Y700841D01*
X2848Y700953D01*
X3639Y701280D01*
X4318Y701801D01*
X4839Y702480D01*
X5166Y703270D01*
X5278Y704119D01*
X5166Y704967D01*
X4839Y705758D01*
X4318Y706437D01*
X3639Y706958D01*
X2848Y707285D01*
X2000Y707397D01*
D02*
G37*
G36*
X-7000Y703005D02*
Y700631D01*
X-4626D01*
X-4943Y701396D01*
X-5504Y702127D01*
X-6235Y702688D01*
X-7000Y703005D01*
D02*
G37*
G36*
X-9000Y703005D02*
X-9765Y702688D01*
X-10496Y702127D01*
X-11057Y701396D01*
X-11374Y700631D01*
X-9000D01*
Y703005D01*
D02*
G37*
G36*
X12000Y702909D02*
X11152Y702797D01*
X10361Y702470D01*
X9682Y701949D01*
X9161Y701270D01*
X8834Y700479D01*
X8722Y699631D01*
X8834Y698782D01*
X9161Y697992D01*
X9682Y697313D01*
X10361Y696792D01*
X11152Y696464D01*
X12000Y696353D01*
X12848Y696464D01*
X13639Y696792D01*
X14318Y697313D01*
X14839Y697992D01*
X15166Y698782D01*
X15278Y699631D01*
X15166Y700479D01*
X14839Y701270D01*
X14318Y701949D01*
X13639Y702470D01*
X12848Y702797D01*
X12000Y702909D01*
D02*
G37*
G36*
X-9000Y698631D02*
X-11374D01*
X-11057Y697866D01*
X-10496Y697134D01*
X-9765Y696573D01*
X-9000Y696257D01*
Y698631D01*
D02*
G37*
G36*
X-4626D02*
X-7000D01*
Y696256D01*
X-6235Y696573D01*
X-5504Y697134D01*
X-4943Y697866D01*
X-4626Y698631D01*
D02*
G37*
G36*
X37070Y696370D02*
X36270Y696211D01*
X35592Y695758D01*
X35139Y695080D01*
X34980Y694280D01*
X35139Y693480D01*
X35592Y692802D01*
X36270Y692349D01*
X37070Y692190D01*
X37870Y692349D01*
X38548Y692802D01*
X39001Y693480D01*
X39160Y694280D01*
X39001Y695080D01*
X38548Y695758D01*
X37870Y696211D01*
X37070Y696370D01*
D02*
G37*
G36*
X2000Y698421D02*
X1152Y698309D01*
X361Y697981D01*
X-318Y697460D01*
X-839Y696781D01*
X-1166Y695991D01*
X-1278Y695143D01*
X-1166Y694294D01*
X-839Y693504D01*
X-318Y692825D01*
X361Y692304D01*
X1152Y691976D01*
X2000Y691864D01*
X2848Y691976D01*
X3639Y692304D01*
X4318Y692825D01*
X4839Y693504D01*
X5166Y694294D01*
X5278Y695143D01*
X5166Y695991D01*
X4839Y696781D01*
X4318Y697460D01*
X3639Y697981D01*
X2848Y698309D01*
X2000Y698421D01*
D02*
G37*
G36*
X12000Y693932D02*
X11152Y693821D01*
X10361Y693493D01*
X9682Y692972D01*
X9161Y692293D01*
X8834Y691503D01*
X8722Y690654D01*
X8834Y689806D01*
X9161Y689015D01*
X9682Y688336D01*
X10361Y687816D01*
X11152Y687488D01*
X12000Y687376D01*
X12848Y687488D01*
X13639Y687816D01*
X14318Y688336D01*
X14839Y689015D01*
X15166Y689806D01*
X15278Y690654D01*
X15166Y691503D01*
X14839Y692293D01*
X14318Y692972D01*
X13639Y693493D01*
X12848Y693821D01*
X12000Y693932D01*
D02*
G37*
G36*
X-8000D02*
X-8848Y693821D01*
X-9639Y693493D01*
X-10318Y692972D01*
X-10839Y692293D01*
X-11166Y691503D01*
X-11278Y690654D01*
X-11166Y689806D01*
X-10839Y689015D01*
X-10318Y688336D01*
X-9639Y687816D01*
X-8848Y687488D01*
X-8000Y687376D01*
X-7152Y687488D01*
X-6361Y687816D01*
X-5682Y688336D01*
X-5161Y689015D01*
X-4834Y689806D01*
X-4722Y690654D01*
X-4834Y691503D01*
X-5161Y692293D01*
X-5682Y692972D01*
X-6361Y693493D01*
X-7152Y693821D01*
X-8000Y693932D01*
D02*
G37*
G36*
X2000Y689444D02*
X1152Y689332D01*
X361Y689005D01*
X-318Y688484D01*
X-839Y687805D01*
X-1166Y687015D01*
X-1278Y686166D01*
X-1166Y685318D01*
X-839Y684527D01*
X-318Y683848D01*
X361Y683327D01*
X1152Y683000D01*
X2000Y682888D01*
X2848Y683000D01*
X3639Y683327D01*
X4318Y683848D01*
X4839Y684527D01*
X5166Y685318D01*
X5278Y686166D01*
X5166Y687015D01*
X4839Y687805D01*
X4318Y688484D01*
X3639Y689005D01*
X2848Y689332D01*
X2000Y689444D01*
D02*
G37*
G36*
X12000Y684956D02*
X11152Y684844D01*
X10361Y684517D01*
X9682Y683996D01*
X9161Y683317D01*
X8834Y682526D01*
X8722Y681678D01*
X8834Y680829D01*
X9161Y680039D01*
X9682Y679360D01*
X10361Y678839D01*
X11152Y678512D01*
X12000Y678400D01*
X12848Y678512D01*
X13639Y678839D01*
X14318Y679360D01*
X14839Y680039D01*
X15166Y680829D01*
X15278Y681678D01*
X15166Y682526D01*
X14839Y683317D01*
X14318Y683996D01*
X13639Y684517D01*
X12848Y684844D01*
X12000Y684956D01*
D02*
G37*
G36*
X-8000D02*
X-8848Y684844D01*
X-9639Y684517D01*
X-10318Y683996D01*
X-10839Y683317D01*
X-11166Y682526D01*
X-11278Y681678D01*
X-11166Y680829D01*
X-10839Y680039D01*
X-10318Y679360D01*
X-9639Y678839D01*
X-8848Y678512D01*
X-8000Y678400D01*
X-7152Y678512D01*
X-6361Y678839D01*
X-5682Y679360D01*
X-5161Y680039D01*
X-4834Y680829D01*
X-4722Y681678D01*
X-4834Y682526D01*
X-5161Y683317D01*
X-5682Y683996D01*
X-6361Y684517D01*
X-7152Y684844D01*
X-8000Y684956D01*
D02*
G37*
G36*
X2000Y680468D02*
X1152Y680356D01*
X361Y680029D01*
X-318Y679508D01*
X-839Y678829D01*
X-1166Y678038D01*
X-1278Y677190D01*
X-1166Y676341D01*
X-839Y675551D01*
X-318Y674872D01*
X361Y674351D01*
X1152Y674023D01*
X2000Y673912D01*
X2848Y674023D01*
X3639Y674351D01*
X4318Y674872D01*
X4839Y675551D01*
X5166Y676341D01*
X5278Y677190D01*
X5166Y678038D01*
X4839Y678829D01*
X4318Y679508D01*
X3639Y680029D01*
X2848Y680356D01*
X2000Y680468D01*
D02*
G37*
G36*
X15092Y676030D02*
X8592D01*
Y669530D01*
X15092D01*
Y676030D01*
D02*
G37*
G36*
X-8000Y675980D02*
X-8848Y675868D01*
X-9639Y675540D01*
X-10318Y675020D01*
X-10839Y674341D01*
X-11166Y673550D01*
X-11278Y672702D01*
X-11166Y671853D01*
X-10839Y671063D01*
X-10318Y670384D01*
X-9639Y669863D01*
X-8848Y669535D01*
X-8000Y669423D01*
X-7152Y669535D01*
X-6361Y669863D01*
X-5682Y670384D01*
X-5161Y671063D01*
X-4834Y671853D01*
X-4722Y672702D01*
X-4834Y673550D01*
X-5161Y674341D01*
X-5682Y675020D01*
X-6361Y675540D01*
X-7152Y675868D01*
X-8000Y675980D01*
D02*
G37*
G36*
X36951Y673255D02*
X36151Y673096D01*
X35473Y672643D01*
X35020Y671965D01*
X34861Y671165D01*
X35020Y670365D01*
X35473Y669687D01*
X36151Y669234D01*
X36951Y669075D01*
X37751Y669234D01*
X38429Y669687D01*
X38882Y670365D01*
X39041Y671165D01*
X38882Y671965D01*
X38429Y672643D01*
X37751Y673096D01*
X36951Y673255D01*
D02*
G37*
G36*
X2000Y671491D02*
X1152Y671380D01*
X361Y671052D01*
X-318Y670531D01*
X-839Y669852D01*
X-1166Y669062D01*
X-1278Y668213D01*
X-1166Y667365D01*
X-839Y666574D01*
X-318Y665896D01*
X361Y665375D01*
X1152Y665047D01*
X2000Y664935D01*
X2848Y665047D01*
X3639Y665375D01*
X4318Y665896D01*
X4839Y666574D01*
X5166Y667365D01*
X5278Y668213D01*
X5166Y669062D01*
X4839Y669852D01*
X4318Y670531D01*
X3639Y671052D01*
X2848Y671380D01*
X2000Y671491D01*
D02*
G37*
G36*
X73291Y640890D02*
X72491Y640731D01*
X71813Y640278D01*
X71360Y639600D01*
X71201Y638800D01*
X71360Y638000D01*
X71813Y637322D01*
X72491Y636869D01*
X73291Y636710D01*
X74091Y636869D01*
X74769Y637322D01*
X75222Y638000D01*
X75381Y638800D01*
X75222Y639600D01*
X74769Y640278D01*
X74091Y640731D01*
X73291Y640890D01*
D02*
G37*
G36*
X73362Y625819D02*
X72562Y625660D01*
X71884Y625207D01*
X71431Y624529D01*
X71272Y623729D01*
X71431Y622929D01*
X71884Y622251D01*
X72562Y621798D01*
X73362Y621639D01*
X74162Y621798D01*
X74840Y622251D01*
X75293Y622929D01*
X75452Y623729D01*
X75293Y624529D01*
X74840Y625207D01*
X74162Y625660D01*
X73362Y625819D01*
D02*
G37*
G36*
X74291Y588890D02*
X73491Y588731D01*
X72813Y588278D01*
X72360Y587600D01*
X72201Y586800D01*
X72360Y586000D01*
X72813Y585322D01*
X73491Y584869D01*
X74291Y584710D01*
X75091Y584869D01*
X75769Y585322D01*
X76222Y586000D01*
X76381Y586800D01*
X76222Y587600D01*
X75769Y588278D01*
X75091Y588731D01*
X74291Y588890D01*
D02*
G37*
G36*
X74362Y573819D02*
X73562Y573660D01*
X72884Y573207D01*
X72431Y572529D01*
X72272Y571729D01*
X72431Y570929D01*
X72884Y570251D01*
X73562Y569798D01*
X74362Y569639D01*
X75162Y569798D01*
X75840Y570251D01*
X76293Y570929D01*
X76452Y571729D01*
X76293Y572529D01*
X75840Y573207D01*
X75162Y573660D01*
X74362Y573819D01*
D02*
G37*
G36*
X12000Y576078D02*
X11152Y575966D01*
X10361Y575639D01*
X9682Y575118D01*
X9161Y574439D01*
X8834Y573648D01*
X8722Y572800D01*
X8834Y571952D01*
X9161Y571161D01*
X9682Y570482D01*
X10361Y569961D01*
X11152Y569634D01*
X12000Y569522D01*
X12848Y569634D01*
X13639Y569961D01*
X14318Y570482D01*
X14839Y571161D01*
X15166Y571952D01*
X15278Y572800D01*
X15166Y573648D01*
X14839Y574439D01*
X14318Y575118D01*
X13639Y575639D01*
X12848Y575966D01*
X12000Y576078D01*
D02*
G37*
G36*
X-8000D02*
X-8848Y575966D01*
X-9639Y575639D01*
X-10318Y575118D01*
X-10839Y574439D01*
X-11166Y573648D01*
X-11278Y572800D01*
X-11166Y571952D01*
X-10839Y571161D01*
X-10318Y570482D01*
X-9639Y569961D01*
X-8848Y569634D01*
X-8000Y569522D01*
X-7152Y569634D01*
X-6361Y569961D01*
X-5682Y570482D01*
X-5161Y571161D01*
X-4834Y571952D01*
X-4722Y572800D01*
X-4834Y573648D01*
X-5161Y574439D01*
X-5682Y575118D01*
X-6361Y575639D01*
X-7152Y575966D01*
X-8000Y576078D01*
D02*
G37*
G36*
X2000Y571590D02*
X1152Y571478D01*
X361Y571151D01*
X-318Y570630D01*
X-839Y569951D01*
X-1166Y569160D01*
X-1278Y568312D01*
X-1166Y567463D01*
X-839Y566673D01*
X-318Y565994D01*
X361Y565473D01*
X1152Y565145D01*
X2000Y565034D01*
X2848Y565145D01*
X3639Y565473D01*
X4318Y565994D01*
X4839Y566673D01*
X5166Y567463D01*
X5278Y568312D01*
X5166Y569160D01*
X4839Y569951D01*
X4318Y570630D01*
X3639Y571151D01*
X2848Y571478D01*
X2000Y571590D01*
D02*
G37*
G36*
X12000Y567102D02*
X11152Y566990D01*
X10361Y566663D01*
X9682Y566142D01*
X9161Y565463D01*
X8834Y564672D01*
X8722Y563824D01*
X8834Y562975D01*
X9161Y562185D01*
X9682Y561506D01*
X10361Y560985D01*
X11152Y560657D01*
X12000Y560546D01*
X12848Y560657D01*
X13639Y560985D01*
X14318Y561506D01*
X14839Y562185D01*
X15166Y562975D01*
X15278Y563824D01*
X15166Y564672D01*
X14839Y565463D01*
X14318Y566142D01*
X13639Y566663D01*
X12848Y566990D01*
X12000Y567102D01*
D02*
G37*
G36*
X-8000D02*
X-8848Y566990D01*
X-9639Y566663D01*
X-10318Y566142D01*
X-10839Y565463D01*
X-11166Y564672D01*
X-11278Y563824D01*
X-11166Y562975D01*
X-10839Y562185D01*
X-10318Y561506D01*
X-9639Y560985D01*
X-8848Y560657D01*
X-8000Y560546D01*
X-7152Y560657D01*
X-6361Y560985D01*
X-5682Y561506D01*
X-5161Y562185D01*
X-4834Y562975D01*
X-4722Y563824D01*
X-4834Y564672D01*
X-5161Y565463D01*
X-5682Y566142D01*
X-6361Y566663D01*
X-7152Y566990D01*
X-8000Y567102D01*
D02*
G37*
G36*
X2000Y562613D02*
X1152Y562502D01*
X361Y562174D01*
X-318Y561653D01*
X-839Y560974D01*
X-1166Y560184D01*
X-1278Y559335D01*
X-1166Y558487D01*
X-839Y557696D01*
X-318Y557018D01*
X361Y556497D01*
X1152Y556169D01*
X2000Y556057D01*
X2848Y556169D01*
X3639Y556497D01*
X4318Y557018D01*
X4839Y557696D01*
X5166Y558487D01*
X5278Y559335D01*
X5166Y560184D01*
X4839Y560974D01*
X4318Y561653D01*
X3639Y562174D01*
X2848Y562502D01*
X2000Y562613D01*
D02*
G37*
G36*
X32000Y647765D02*
X31707Y647707D01*
X31459Y647541D01*
X29459Y645541D01*
X29294Y645293D01*
X29235Y645000D01*
X29235Y558731D01*
X29253Y558643D01*
Y548818D01*
X15554Y535119D01*
X15092Y535311D01*
Y540223D01*
X8592D01*
Y533723D01*
X13505D01*
X13697Y533261D01*
X10369Y529934D01*
X4830D01*
X4583Y530434D01*
X4839Y530767D01*
X5166Y531558D01*
X5278Y532406D01*
X5166Y533255D01*
X4839Y534045D01*
X4318Y534724D01*
X3639Y535245D01*
X2848Y535573D01*
X2000Y535684D01*
X1152Y535573D01*
X361Y535245D01*
X-318Y534724D01*
X-839Y534045D01*
X-1166Y533255D01*
X-1278Y532406D01*
X-1166Y531558D01*
X-1082Y531354D01*
X-1506Y531070D01*
X-4722Y534287D01*
Y536895D01*
X-4834Y537743D01*
X-5161Y538533D01*
X-5682Y539212D01*
X-6361Y539733D01*
X-7152Y540061D01*
X-8000Y540172D01*
X-8848Y540061D01*
X-9639Y539733D01*
X-10318Y539212D01*
X-10839Y538533D01*
X-11166Y537743D01*
X-11278Y536895D01*
Y532929D01*
X-11222Y532505D01*
X-11166Y532081D01*
X-10839Y531290D01*
X-10318Y530611D01*
X-4045Y524338D01*
X-3366Y523817D01*
X-2576Y523490D01*
X-1727Y523378D01*
X11727D01*
X12152Y523434D01*
X12576Y523490D01*
X13366Y523817D01*
X14045Y524338D01*
X34849Y545142D01*
X35370Y545821D01*
X35697Y546611D01*
X35809Y547460D01*
Y553928D01*
X36221Y554184D01*
X36309Y554182D01*
X37081Y554029D01*
X37881Y554188D01*
X38559Y554641D01*
X39012Y555319D01*
X39171Y556119D01*
X39012Y556919D01*
X38621Y557504D01*
X38648Y557759D01*
X38680Y557903D01*
X38747Y558072D01*
X38924Y558190D01*
X38924Y558190D01*
X40541Y559807D01*
X40541Y559807D01*
X40707Y560055D01*
X40765Y560348D01*
X40765Y647000D01*
X40707Y647293D01*
X40541Y647541D01*
X40293Y647707D01*
X40000Y647765D01*
X32000D01*
X32000Y647765D01*
D02*
G37*
G36*
X12000Y558125D02*
X11152Y558014D01*
X10361Y557686D01*
X9682Y557165D01*
X9161Y556486D01*
X8834Y555696D01*
X8722Y554847D01*
X8834Y553999D01*
X9161Y553208D01*
X9682Y552529D01*
X10361Y552008D01*
X11152Y551681D01*
X12000Y551569D01*
X12848Y551681D01*
X13639Y552008D01*
X14318Y552529D01*
X14839Y553208D01*
X15166Y553999D01*
X15278Y554847D01*
X15166Y555696D01*
X14839Y556486D01*
X14318Y557165D01*
X13639Y557686D01*
X12848Y558014D01*
X12000Y558125D01*
D02*
G37*
G36*
X-8000D02*
X-8848Y558014D01*
X-9639Y557686D01*
X-10318Y557165D01*
X-10839Y556486D01*
X-11166Y555696D01*
X-11278Y554847D01*
X-11166Y553999D01*
X-10839Y553208D01*
X-10318Y552529D01*
X-9639Y552008D01*
X-8848Y551681D01*
X-8000Y551569D01*
X-7152Y551681D01*
X-6361Y552008D01*
X-5682Y552529D01*
X-5161Y553208D01*
X-4834Y553999D01*
X-4722Y554847D01*
X-4834Y555696D01*
X-5161Y556486D01*
X-5682Y557165D01*
X-6361Y557686D01*
X-7152Y558014D01*
X-8000Y558125D01*
D02*
G37*
G36*
X2000Y553637D02*
X1152Y553525D01*
X361Y553198D01*
X-318Y552677D01*
X-839Y551998D01*
X-1166Y551207D01*
X-1278Y550359D01*
X-1166Y549511D01*
X-839Y548720D01*
X-318Y548041D01*
X361Y547520D01*
X1152Y547193D01*
X2000Y547081D01*
X2848Y547193D01*
X3639Y547520D01*
X4318Y548041D01*
X4839Y548720D01*
X5166Y549511D01*
X5278Y550359D01*
X5166Y551207D01*
X4839Y551998D01*
X4318Y552677D01*
X3639Y553198D01*
X2848Y553525D01*
X2000Y553637D01*
D02*
G37*
G36*
X12000Y549149D02*
X11152Y549037D01*
X10361Y548710D01*
X9682Y548189D01*
X9161Y547510D01*
X8834Y546719D01*
X8722Y545871D01*
X8834Y545022D01*
X9161Y544232D01*
X9682Y543553D01*
X10361Y543032D01*
X11152Y542704D01*
X12000Y542593D01*
X12848Y542704D01*
X13639Y543032D01*
X14318Y543553D01*
X14839Y544232D01*
X15166Y545022D01*
X15278Y545871D01*
X15166Y546719D01*
X14839Y547510D01*
X14318Y548189D01*
X13639Y548710D01*
X12848Y549037D01*
X12000Y549149D01*
D02*
G37*
G36*
X-8000D02*
X-8848Y549037D01*
X-9639Y548710D01*
X-10318Y548189D01*
X-10839Y547510D01*
X-11166Y546719D01*
X-11278Y545871D01*
X-11166Y545022D01*
X-10839Y544232D01*
X-10318Y543553D01*
X-9639Y543032D01*
X-8848Y542704D01*
X-8000Y542593D01*
X-7152Y542704D01*
X-6361Y543032D01*
X-5682Y543553D01*
X-5161Y544232D01*
X-4834Y545022D01*
X-4722Y545871D01*
X-4834Y546719D01*
X-5161Y547510D01*
X-5682Y548189D01*
X-6361Y548710D01*
X-7152Y549037D01*
X-8000Y549149D01*
D02*
G37*
G36*
X2000Y544661D02*
X1152Y544549D01*
X361Y544221D01*
X-318Y543701D01*
X-839Y543022D01*
X-1166Y542231D01*
X-1278Y541383D01*
X-1166Y540534D01*
X-839Y539744D01*
X-318Y539065D01*
X361Y538544D01*
X1152Y538216D01*
X2000Y538105D01*
X2848Y538216D01*
X3639Y538544D01*
X4318Y539065D01*
X4839Y539744D01*
X5166Y540534D01*
X5278Y541383D01*
X5166Y542231D01*
X4839Y543022D01*
X4318Y543701D01*
X3639Y544221D01*
X2848Y544549D01*
X2000Y544661D01*
D02*
G37*
G36*
X651000Y535585D02*
Y524800D01*
X661785D01*
X661717Y525656D01*
X661283Y527466D01*
X660570Y529186D01*
X659598Y530773D01*
X658389Y532189D01*
X656973Y533398D01*
X655386Y534370D01*
X653666Y535083D01*
X651856Y535517D01*
X651000Y535585D01*
D02*
G37*
G36*
X471000D02*
Y524800D01*
X481785D01*
X481717Y525656D01*
X481283Y527466D01*
X480570Y529186D01*
X479598Y530773D01*
X478389Y532189D01*
X476973Y533398D01*
X475386Y534370D01*
X473666Y535083D01*
X471856Y535517D01*
X471000Y535585D01*
D02*
G37*
G36*
X291000D02*
Y524800D01*
X301785D01*
X301717Y525656D01*
X301283Y527466D01*
X300570Y529186D01*
X299598Y530773D01*
X298389Y532189D01*
X296973Y533398D01*
X295386Y534370D01*
X293666Y535083D01*
X291856Y535517D01*
X291000Y535585D01*
D02*
G37*
G36*
X111000Y535585D02*
Y524800D01*
X121785D01*
X121717Y525656D01*
X121283Y527466D01*
X120570Y529186D01*
X119598Y530773D01*
X118389Y532189D01*
X116973Y533398D01*
X115386Y534370D01*
X113666Y535083D01*
X111856Y535517D01*
X111000Y535585D01*
D02*
G37*
G36*
X109000D02*
X108144Y535517D01*
X106334Y535083D01*
X104614Y534370D01*
X103027Y533398D01*
X101611Y532189D01*
X100402Y530773D01*
X99430Y529186D01*
X98717Y527466D01*
X98283Y525656D01*
X98215Y524800D01*
X109000D01*
Y535585D01*
D02*
G37*
G36*
X649000D02*
X648144Y535517D01*
X646334Y535083D01*
X644614Y534370D01*
X643027Y533398D01*
X641611Y532189D01*
X640402Y530773D01*
X639430Y529186D01*
X638717Y527466D01*
X638283Y525656D01*
X638215Y524800D01*
X649000D01*
Y535585D01*
D02*
G37*
G36*
X469000D02*
X468144Y535517D01*
X466334Y535083D01*
X464614Y534370D01*
X463027Y533398D01*
X461611Y532189D01*
X460402Y530773D01*
X459430Y529186D01*
X458717Y527466D01*
X458283Y525656D01*
X458215Y524800D01*
X469000D01*
Y535585D01*
D02*
G37*
G36*
X289000D02*
X288144Y535517D01*
X286334Y535083D01*
X284614Y534370D01*
X283027Y533398D01*
X281611Y532189D01*
X280402Y530773D01*
X279430Y529186D01*
X278717Y527466D01*
X278283Y525656D01*
X278215Y524800D01*
X289000D01*
Y535585D01*
D02*
G37*
G36*
X37389Y519889D02*
X36589Y519730D01*
X35911Y519277D01*
X35458Y518599D01*
X35299Y517799D01*
X35458Y516999D01*
X35911Y516321D01*
X36589Y515868D01*
X37389Y515709D01*
X38189Y515868D01*
X38867Y516321D01*
X39320Y516999D01*
X39479Y517799D01*
X39320Y518599D01*
X38867Y519277D01*
X38189Y519730D01*
X37389Y519889D01*
D02*
G37*
G36*
X661785Y522800D02*
X651000D01*
Y512015D01*
X651856Y512083D01*
X653666Y512517D01*
X655386Y513230D01*
X656973Y514202D01*
X658389Y515411D01*
X659598Y516827D01*
X660570Y518414D01*
X661283Y520134D01*
X661717Y521944D01*
X661785Y522800D01*
D02*
G37*
G36*
X481785D02*
X471000D01*
Y512015D01*
X471856Y512083D01*
X473666Y512517D01*
X475386Y513230D01*
X476973Y514202D01*
X478389Y515411D01*
X479598Y516827D01*
X480570Y518414D01*
X481283Y520134D01*
X481717Y521944D01*
X481785Y522800D01*
D02*
G37*
G36*
X301785D02*
X291000D01*
Y512015D01*
X291856Y512083D01*
X293666Y512517D01*
X295386Y513230D01*
X296973Y514202D01*
X298389Y515411D01*
X299598Y516827D01*
X300570Y518414D01*
X301283Y520134D01*
X301717Y521944D01*
X301785Y522800D01*
D02*
G37*
G36*
X121785D02*
X111000D01*
Y512015D01*
X111856Y512083D01*
X113666Y512517D01*
X115386Y513230D01*
X116973Y514202D01*
X118389Y515411D01*
X119598Y516827D01*
X120570Y518414D01*
X121283Y520134D01*
X121717Y521944D01*
X121785Y522800D01*
D02*
G37*
G36*
X109000D02*
X98215D01*
X98283Y521944D01*
X98717Y520134D01*
X99430Y518414D01*
X100402Y516827D01*
X101611Y515411D01*
X103027Y514202D01*
X104614Y513230D01*
X106334Y512517D01*
X108144Y512083D01*
X109000Y512015D01*
Y522800D01*
D02*
G37*
G36*
X649000D02*
X638215D01*
X638283Y521944D01*
X638717Y520134D01*
X639430Y518414D01*
X640402Y516827D01*
X641611Y515411D01*
X643027Y514202D01*
X644614Y513230D01*
X646334Y512517D01*
X648144Y512083D01*
X649000Y512015D01*
Y522800D01*
D02*
G37*
G36*
X469000D02*
X458215D01*
X458283Y521944D01*
X458717Y520134D01*
X459430Y518414D01*
X460402Y516827D01*
X461611Y515411D01*
X463027Y514202D01*
X464614Y513230D01*
X466334Y512517D01*
X468144Y512083D01*
X469000Y512015D01*
Y522800D01*
D02*
G37*
G36*
X289000D02*
X278215D01*
X278283Y521944D01*
X278717Y520134D01*
X279430Y518414D01*
X280402Y516827D01*
X281611Y515411D01*
X283027Y514202D01*
X284614Y513230D01*
X286334Y512517D01*
X288144Y512083D01*
X289000Y512015D01*
Y522800D01*
D02*
G37*
G36*
X37546Y509775D02*
X36746Y509616D01*
X36068Y509163D01*
X35614Y508485D01*
X35455Y507685D01*
X35614Y506885D01*
X36068Y506207D01*
X36746Y505754D01*
X37546Y505595D01*
X38346Y505754D01*
X39024Y506207D01*
X39477Y506885D01*
X39636Y507685D01*
X39477Y508485D01*
X39024Y509163D01*
X38346Y509616D01*
X37546Y509775D01*
D02*
G37*
G36*
X2000Y515354D02*
X338Y515224D01*
X-1283Y514834D01*
X-2824Y514196D01*
X-4245Y513325D01*
X-5513Y512242D01*
X-6596Y510975D01*
X-7467Y509553D01*
X-8105Y508012D01*
X-8495Y506391D01*
X-8625Y504729D01*
X-8495Y503067D01*
X-8105Y501446D01*
X-7467Y499905D01*
X-6596Y498484D01*
X-5513Y497216D01*
X-4245Y496133D01*
X-2824Y495262D01*
X-1283Y494624D01*
X338Y494235D01*
X2000Y494104D01*
X3662Y494235D01*
X5283Y494624D01*
X6824Y495262D01*
X8245Y496133D01*
X9513Y497216D01*
X10596Y498484D01*
X11467Y499905D01*
X12105Y501446D01*
X12494Y503067D01*
X12625Y504729D01*
X12494Y506391D01*
X12105Y508012D01*
X11467Y509553D01*
X10596Y510975D01*
X9513Y512242D01*
X8245Y513325D01*
X6824Y514196D01*
X5283Y514834D01*
X3662Y515224D01*
X2000Y515354D01*
D02*
G37*
G36*
X131291Y495799D02*
X130491Y495640D01*
X129813Y495187D01*
X129360Y494509D01*
X129201Y493709D01*
X129360Y492909D01*
X129813Y492231D01*
X130491Y491778D01*
X131291Y491618D01*
X132091Y491778D01*
X132769Y492231D01*
X133222Y492909D01*
X133381Y493709D01*
X133222Y494509D01*
X132769Y495187D01*
X132091Y495640D01*
X131291Y495799D01*
D02*
G37*
G36*
X68291Y492890D02*
X67491Y492731D01*
X66813Y492278D01*
X66360Y491600D01*
X66201Y490800D01*
X66360Y490000D01*
X66813Y489322D01*
X67491Y488869D01*
X68291Y488710D01*
X69091Y488869D01*
X69769Y489322D01*
X70222Y490000D01*
X70381Y490800D01*
X70222Y491600D01*
X69769Y492278D01*
X69091Y492731D01*
X68291Y492890D01*
D02*
G37*
G36*
X784651Y497013D02*
X775277D01*
Y487639D01*
X784651D01*
Y497013D01*
D02*
G37*
G36*
X604651D02*
X595277D01*
Y487639D01*
X604651D01*
Y497013D01*
D02*
G37*
G36*
X424651D02*
X415277D01*
Y487639D01*
X424651D01*
Y497013D01*
D02*
G37*
G36*
X244651D02*
X235277D01*
Y487639D01*
X244651D01*
Y497013D01*
D02*
G37*
G36*
X121000Y480090D02*
X120200Y479931D01*
X119522Y479478D01*
X119069Y478800D01*
X118910Y478000D01*
X119069Y477200D01*
X119522Y476522D01*
X120200Y476069D01*
X121000Y475910D01*
X121800Y476069D01*
X122478Y476522D01*
X122931Y477200D01*
X123090Y478000D01*
X122931Y478800D01*
X122478Y479478D01*
X121800Y479931D01*
X121000Y480090D01*
D02*
G37*
G36*
X41000Y480090D02*
X40200Y479931D01*
X39522Y479478D01*
X39069Y478800D01*
X38910Y478000D01*
X39069Y477200D01*
X39522Y476522D01*
X40200Y476069D01*
X41000Y475910D01*
X41800Y476069D01*
X42478Y476522D01*
X42931Y477200D01*
X43090Y478000D01*
X42931Y478800D01*
X42478Y479478D01*
X41800Y479931D01*
X41000Y480090D01*
D02*
G37*
G36*
X63000Y478090D02*
X62200Y477931D01*
X61522Y477478D01*
X61069Y476800D01*
X60910Y476000D01*
X61069Y475200D01*
X61522Y474522D01*
X62200Y474069D01*
X63000Y473910D01*
X63800Y474069D01*
X64478Y474522D01*
X64931Y475200D01*
X65090Y476000D01*
X64931Y476800D01*
X64478Y477478D01*
X63800Y477931D01*
X63000Y478090D01*
D02*
G37*
G36*
X779964Y487054D02*
X778740Y486893D01*
X777600Y486420D01*
X776621Y485669D01*
X775870Y484690D01*
X775398Y483550D01*
X775237Y482326D01*
X775398Y481103D01*
X775870Y479963D01*
X776621Y478983D01*
X777600Y478232D01*
X778740Y477760D01*
X779161Y477704D01*
Y477200D01*
X778675Y477136D01*
X777474Y476639D01*
X776443Y475847D01*
X775652Y474816D01*
X775154Y473615D01*
X775116Y473326D01*
X779964D01*
X784812D01*
X784774Y473615D01*
X784276Y474816D01*
X783485Y475847D01*
X782454Y476639D01*
X781253Y477136D01*
X780767Y477200D01*
Y477704D01*
X781187Y477760D01*
X782328Y478232D01*
X783307Y478983D01*
X784058Y479963D01*
X784530Y481103D01*
X784691Y482326D01*
X784530Y483550D01*
X784058Y484690D01*
X783307Y485669D01*
X782328Y486420D01*
X781187Y486893D01*
X779964Y487054D01*
D02*
G37*
G36*
X599964D02*
X598740Y486893D01*
X597600Y486420D01*
X596621Y485669D01*
X595870Y484690D01*
X595398Y483550D01*
X595236Y482326D01*
X595398Y481103D01*
X595870Y479963D01*
X596621Y478983D01*
X597600Y478232D01*
X598740Y477760D01*
X599161Y477704D01*
Y477200D01*
X598675Y477136D01*
X597474Y476639D01*
X596443Y475847D01*
X595651Y474816D01*
X595154Y473615D01*
X595116Y473326D01*
X599964D01*
X604812D01*
X604774Y473615D01*
X604276Y474816D01*
X603485Y475847D01*
X602454Y476639D01*
X601253Y477136D01*
X600767Y477200D01*
Y477704D01*
X601188Y477760D01*
X602328Y478232D01*
X603307Y478983D01*
X604058Y479963D01*
X604530Y481103D01*
X604691Y482326D01*
X604530Y483550D01*
X604058Y484690D01*
X603307Y485669D01*
X602328Y486420D01*
X601188Y486893D01*
X599964Y487054D01*
D02*
G37*
G36*
X419964D02*
X418740Y486893D01*
X417600Y486420D01*
X416621Y485669D01*
X415870Y484690D01*
X415398Y483550D01*
X415237Y482326D01*
X415398Y481103D01*
X415870Y479963D01*
X416621Y478983D01*
X417600Y478232D01*
X418740Y477760D01*
X419161Y477704D01*
Y477200D01*
X418675Y477136D01*
X417474Y476639D01*
X416443Y475847D01*
X415652Y474816D01*
X415154Y473615D01*
X415116Y473326D01*
X419964D01*
X424812D01*
X424774Y473615D01*
X424276Y474816D01*
X423485Y475847D01*
X422454Y476639D01*
X421253Y477136D01*
X420767Y477200D01*
Y477704D01*
X421187Y477760D01*
X422328Y478232D01*
X423307Y478983D01*
X424058Y479963D01*
X424530Y481103D01*
X424691Y482326D01*
X424530Y483550D01*
X424058Y484690D01*
X423307Y485669D01*
X422328Y486420D01*
X421187Y486893D01*
X419964Y487054D01*
D02*
G37*
G36*
X239964D02*
X238740Y486893D01*
X237600Y486420D01*
X236621Y485669D01*
X235870Y484690D01*
X235398Y483550D01*
X235237Y482326D01*
X235398Y481103D01*
X235870Y479963D01*
X236621Y478983D01*
X237600Y478232D01*
X238740Y477760D01*
X239161Y477704D01*
Y477200D01*
X238675Y477136D01*
X237474Y476639D01*
X236443Y475847D01*
X235651Y474816D01*
X235154Y473615D01*
X235116Y473326D01*
X239964D01*
X244812D01*
X244774Y473615D01*
X244276Y474816D01*
X243485Y475847D01*
X242454Y476639D01*
X241253Y477136D01*
X240767Y477200D01*
Y477704D01*
X241188Y477760D01*
X242328Y478232D01*
X243307Y478983D01*
X244058Y479963D01*
X244530Y481103D01*
X244691Y482326D01*
X244530Y483550D01*
X244058Y484690D01*
X243307Y485669D01*
X242328Y486420D01*
X241188Y486893D01*
X239964Y487054D01*
D02*
G37*
G36*
X134000Y477090D02*
X133200Y476931D01*
X132522Y476478D01*
X132069Y475800D01*
X131910Y475000D01*
X132069Y474200D01*
X132522Y473522D01*
X133200Y473069D01*
X134000Y472910D01*
X134800Y473069D01*
X135478Y473522D01*
X135931Y474200D01*
X136090Y475000D01*
X135931Y475800D01*
X135478Y476478D01*
X134800Y476931D01*
X134000Y477090D01*
D02*
G37*
G36*
X111291Y474646D02*
X110491Y474487D01*
X109813Y474034D01*
X109360Y473356D01*
X109201Y472556D01*
X109360Y471756D01*
X109813Y471078D01*
X110491Y470625D01*
X111291Y470466D01*
X112091Y470625D01*
X112769Y471078D01*
X113222Y471756D01*
X113382Y472556D01*
X113222Y473356D01*
X112769Y474034D01*
X112091Y474487D01*
X111291Y474646D01*
D02*
G37*
G36*
X-2000Y474090D02*
X-2800Y473931D01*
X-3478Y473478D01*
X-3931Y472800D01*
X-4090Y472000D01*
X-3931Y471200D01*
X-3478Y470522D01*
X-2800Y470069D01*
X-2000Y469910D01*
X-1200Y470069D01*
X-522Y470522D01*
X-69Y471200D01*
X90Y472000D01*
X-69Y472800D01*
X-522Y473478D01*
X-1200Y473931D01*
X-2000Y474090D01*
D02*
G37*
G36*
X19524Y472193D02*
X18724Y472034D01*
X18046Y471581D01*
X17593Y470903D01*
X17434Y470103D01*
X17593Y469303D01*
X18046Y468625D01*
X18724Y468172D01*
X19524Y468013D01*
X20324Y468172D01*
X21002Y468625D01*
X21455Y469303D01*
X21614Y470103D01*
X21455Y470903D01*
X21002Y471581D01*
X20324Y472034D01*
X19524Y472193D01*
D02*
G37*
G36*
X55291Y469890D02*
X54491Y469731D01*
X53813Y469278D01*
X53360Y468600D01*
X53201Y467800D01*
X53360Y467000D01*
X53813Y466322D01*
X54491Y465869D01*
X55291Y465710D01*
X56091Y465869D01*
X56769Y466322D01*
X57222Y467000D01*
X57381Y467800D01*
X57222Y468600D01*
X56769Y469278D01*
X56091Y469731D01*
X55291Y469890D01*
D02*
G37*
G36*
X40002Y466509D02*
X39202Y466350D01*
X38524Y465897D01*
X38071Y465219D01*
X37912Y464419D01*
X38071Y463619D01*
X38524Y462941D01*
X39202Y462488D01*
X40002Y462329D01*
X40802Y462488D01*
X41480Y462941D01*
X41933Y463619D01*
X42092Y464419D01*
X41933Y465219D01*
X41480Y465897D01*
X40802Y466350D01*
X40002Y466509D01*
D02*
G37*
G36*
X19291Y465890D02*
X18491Y465731D01*
X17813Y465278D01*
X17360Y464600D01*
X17201Y463800D01*
X17360Y463000D01*
X17813Y462322D01*
X18491Y461869D01*
X19291Y461710D01*
X20091Y461869D01*
X20769Y462322D01*
X21222Y463000D01*
X21382Y463800D01*
X21222Y464600D01*
X20769Y465278D01*
X20091Y465731D01*
X19291Y465890D01*
D02*
G37*
G36*
X63000Y463090D02*
X62200Y462931D01*
X61522Y462478D01*
X61069Y461800D01*
X60910Y461000D01*
X61069Y460200D01*
X61522Y459522D01*
X62200Y459069D01*
X63000Y458910D01*
X63800Y459069D01*
X64478Y459522D01*
X64931Y460200D01*
X65090Y461000D01*
X64931Y461800D01*
X64478Y462478D01*
X63800Y462931D01*
X63000Y463090D01*
D02*
G37*
G36*
X98457Y462151D02*
X97657Y461992D01*
X96979Y461539D01*
X96526Y460861D01*
X96367Y460061D01*
X96526Y459261D01*
X96979Y458583D01*
X97657Y458130D01*
X98457Y457971D01*
X99257Y458130D01*
X99935Y458583D01*
X100388Y459261D01*
X100547Y460061D01*
X100388Y460861D01*
X99935Y461539D01*
X99257Y461992D01*
X98457Y462151D01*
D02*
G37*
G36*
X784812Y471326D02*
X779964D01*
X775116D01*
X775154Y471037D01*
X775652Y469837D01*
X776443Y468805D01*
X777474Y468014D01*
X778675Y467516D01*
X779161Y467452D01*
Y466948D01*
X778740Y466893D01*
X777600Y466420D01*
X776621Y465669D01*
X775870Y464690D01*
X775398Y463550D01*
X775237Y462326D01*
X775398Y461103D01*
X775870Y459963D01*
X776621Y458984D01*
X777600Y458232D01*
X778740Y457760D01*
X779964Y457599D01*
X781187Y457760D01*
X782328Y458232D01*
X783307Y458984D01*
X784058Y459963D01*
X784530Y461103D01*
X784691Y462326D01*
X784530Y463550D01*
X784058Y464690D01*
X783307Y465669D01*
X782328Y466420D01*
X781187Y466893D01*
X780767Y466948D01*
Y467452D01*
X781253Y467516D01*
X782454Y468014D01*
X783485Y468805D01*
X784276Y469837D01*
X784774Y471037D01*
X784812Y471326D01*
D02*
G37*
G36*
X604812D02*
X599964D01*
X595116D01*
X595154Y471037D01*
X595651Y469837D01*
X596443Y468805D01*
X597474Y468014D01*
X598675Y467516D01*
X599161Y467452D01*
Y466948D01*
X598740Y466893D01*
X597600Y466420D01*
X596621Y465669D01*
X595870Y464690D01*
X595398Y463550D01*
X595236Y462326D01*
X595398Y461103D01*
X595870Y459963D01*
X596621Y458984D01*
X597600Y458232D01*
X598740Y457760D01*
X599964Y457599D01*
X601188Y457760D01*
X602328Y458232D01*
X603307Y458984D01*
X604058Y459963D01*
X604530Y461103D01*
X604691Y462326D01*
X604530Y463550D01*
X604058Y464690D01*
X603307Y465669D01*
X602328Y466420D01*
X601188Y466893D01*
X600767Y466948D01*
Y467452D01*
X601253Y467516D01*
X602454Y468014D01*
X603485Y468805D01*
X604276Y469837D01*
X604774Y471037D01*
X604812Y471326D01*
D02*
G37*
G36*
X424812Y471326D02*
X419964D01*
X415116D01*
X415154Y471037D01*
X415652Y469837D01*
X416443Y468805D01*
X417474Y468014D01*
X418675Y467516D01*
X419161Y467452D01*
Y466948D01*
X418740Y466893D01*
X417600Y466420D01*
X416621Y465669D01*
X415870Y464690D01*
X415398Y463550D01*
X415237Y462326D01*
X415398Y461103D01*
X415870Y459963D01*
X416621Y458984D01*
X417600Y458232D01*
X418740Y457760D01*
X419964Y457599D01*
X421187Y457760D01*
X422328Y458232D01*
X423307Y458984D01*
X424058Y459963D01*
X424530Y461103D01*
X424691Y462326D01*
X424530Y463550D01*
X424058Y464690D01*
X423307Y465669D01*
X422328Y466420D01*
X421187Y466893D01*
X420767Y466948D01*
Y467452D01*
X421253Y467516D01*
X422454Y468014D01*
X423485Y468805D01*
X424276Y469837D01*
X424774Y471037D01*
X424812Y471326D01*
D02*
G37*
G36*
X244812D02*
X239964D01*
X235116D01*
X235154Y471037D01*
X235651Y469837D01*
X236443Y468805D01*
X237474Y468014D01*
X238675Y467516D01*
X239161Y467452D01*
Y466948D01*
X238740Y466893D01*
X237600Y466420D01*
X236621Y465669D01*
X235870Y464690D01*
X235398Y463550D01*
X235237Y462326D01*
X235398Y461103D01*
X235870Y459963D01*
X236621Y458984D01*
X237600Y458232D01*
X238740Y457760D01*
X239964Y457599D01*
X241188Y457760D01*
X242328Y458232D01*
X243307Y458984D01*
X244058Y459963D01*
X244530Y461103D01*
X244691Y462326D01*
X244530Y463550D01*
X244058Y464690D01*
X243307Y465669D01*
X242328Y466420D01*
X241188Y466893D01*
X240767Y466948D01*
Y467452D01*
X241253Y467516D01*
X242454Y468014D01*
X243485Y468805D01*
X244276Y469837D01*
X244774Y471037D01*
X244812Y471326D01*
D02*
G37*
G36*
X84081Y460870D02*
X83281Y460710D01*
X82603Y460257D01*
X82150Y459579D01*
X81991Y458779D01*
X82150Y457979D01*
X82603Y457301D01*
X83281Y456848D01*
X84081Y456689D01*
X84881Y456848D01*
X85559Y457301D01*
X86012Y457979D01*
X86172Y458779D01*
X86012Y459579D01*
X85559Y460257D01*
X84881Y460710D01*
X84081Y460870D01*
D02*
G37*
G36*
X78352Y460288D02*
X77552Y460129D01*
X76874Y459676D01*
X76421Y458998D01*
X76262Y458198D01*
X76421Y457398D01*
X76874Y456720D01*
X77552Y456267D01*
X78352Y456108D01*
X79152Y456267D01*
X79830Y456720D01*
X80283Y457398D01*
X80443Y458198D01*
X80283Y458998D01*
X79830Y459676D01*
X79152Y460129D01*
X78352Y460288D01*
D02*
G37*
G36*
X105731Y461872D02*
X104931Y461713D01*
X104253Y461260D01*
X103800Y460581D01*
X103641Y459782D01*
X103800Y458982D01*
X104253Y458303D01*
X104931Y457850D01*
X105731Y457691D01*
X106531Y457850D01*
X107209Y458303D01*
X107299Y458439D01*
X107770Y458244D01*
X107710Y457939D01*
X107869Y457140D01*
X108322Y456461D01*
X109000Y456008D01*
X109800Y455849D01*
X110600Y456008D01*
X111278Y456461D01*
X111731Y457140D01*
X111890Y457939D01*
X111731Y458739D01*
X111278Y459417D01*
X110600Y459871D01*
X109800Y460030D01*
X109000Y459871D01*
X108322Y459417D01*
X108232Y459282D01*
X107761Y459478D01*
X107821Y459782D01*
X107662Y460581D01*
X107209Y461260D01*
X106531Y461713D01*
X105731Y461872D01*
D02*
G37*
G36*
X779964Y457054D02*
X778740Y456893D01*
X777600Y456420D01*
X776621Y455669D01*
X775870Y454690D01*
X775398Y453550D01*
X775237Y452326D01*
X775398Y451103D01*
X775870Y449963D01*
X776621Y448983D01*
X777600Y448232D01*
X778740Y447760D01*
X779964Y447599D01*
X781187Y447760D01*
X782328Y448232D01*
X783307Y448983D01*
X784058Y449963D01*
X784530Y451103D01*
X784691Y452326D01*
X784530Y453550D01*
X784058Y454690D01*
X783307Y455669D01*
X782328Y456420D01*
X781187Y456893D01*
X779964Y457054D01*
D02*
G37*
G36*
X599964D02*
X598740Y456893D01*
X597600Y456420D01*
X596621Y455669D01*
X595870Y454690D01*
X595398Y453550D01*
X595236Y452326D01*
X595398Y451103D01*
X595870Y449963D01*
X596621Y448983D01*
X597600Y448232D01*
X598740Y447760D01*
X599964Y447599D01*
X601188Y447760D01*
X602328Y448232D01*
X603307Y448983D01*
X604058Y449963D01*
X604530Y451103D01*
X604691Y452326D01*
X604530Y453550D01*
X604058Y454690D01*
X603307Y455669D01*
X602328Y456420D01*
X601188Y456893D01*
X599964Y457054D01*
D02*
G37*
G36*
X419964D02*
X418740Y456893D01*
X417600Y456420D01*
X416621Y455669D01*
X415870Y454690D01*
X415398Y453550D01*
X415237Y452326D01*
X415398Y451103D01*
X415870Y449963D01*
X416621Y448983D01*
X417600Y448232D01*
X418740Y447760D01*
X419964Y447599D01*
X421187Y447760D01*
X422328Y448232D01*
X423307Y448983D01*
X424058Y449963D01*
X424530Y451103D01*
X424691Y452326D01*
X424530Y453550D01*
X424058Y454690D01*
X423307Y455669D01*
X422328Y456420D01*
X421187Y456893D01*
X419964Y457054D01*
D02*
G37*
G36*
X239964D02*
X238740Y456893D01*
X237600Y456420D01*
X236621Y455669D01*
X235870Y454690D01*
X235398Y453550D01*
X235237Y452326D01*
X235398Y451103D01*
X235870Y449963D01*
X236621Y448983D01*
X237600Y448232D01*
X238740Y447760D01*
X239964Y447599D01*
X241188Y447760D01*
X242328Y448232D01*
X243307Y448983D01*
X244058Y449963D01*
X244530Y451103D01*
X244691Y452326D01*
X244530Y453550D01*
X244058Y454690D01*
X243307Y455669D01*
X242328Y456420D01*
X241188Y456893D01*
X239964Y457054D01*
D02*
G37*
G36*
X129000Y450435D02*
X128200Y450276D01*
X127522Y449823D01*
X127069Y449145D01*
X126910Y448345D01*
X127069Y447545D01*
X127522Y446867D01*
X128200Y446414D01*
X129000Y446254D01*
X129800Y446414D01*
X130478Y446867D01*
X130931Y447545D01*
X131090Y448345D01*
X130931Y449145D01*
X130478Y449823D01*
X129800Y450276D01*
X129000Y450435D01*
D02*
G37*
G36*
X45241Y449890D02*
X44441Y449731D01*
X43763Y449278D01*
X43310Y448600D01*
X43151Y447800D01*
X43310Y447000D01*
X43763Y446322D01*
X44441Y445869D01*
X45241Y445710D01*
X46041Y445869D01*
X46719Y446322D01*
X47172Y447000D01*
X47332Y447800D01*
X47172Y448600D01*
X46719Y449278D01*
X46041Y449731D01*
X45241Y449890D01*
D02*
G37*
G36*
X111474Y448485D02*
X110674Y448325D01*
X109996Y447872D01*
X109543Y447194D01*
X109384Y446394D01*
X109543Y445595D01*
X109996Y444916D01*
X110674Y444463D01*
X111474Y444304D01*
X112274Y444463D01*
X112952Y444916D01*
X113334D01*
X113346Y444900D01*
X114024Y444446D01*
X114824Y444287D01*
X115624Y444446D01*
X116302Y444900D01*
X116755Y445578D01*
X116914Y446378D01*
X116755Y447177D01*
X116302Y447856D01*
X115624Y448309D01*
X114824Y448468D01*
X114024Y448309D01*
X113346Y447856D01*
X112963D01*
X112952Y447872D01*
X112274Y448325D01*
X111474Y448485D01*
D02*
G37*
G36*
X120000Y448090D02*
X119200Y447931D01*
X118522Y447478D01*
X118069Y446800D01*
X117910Y446000D01*
X118069Y445200D01*
X118522Y444522D01*
X119200Y444069D01*
X120000Y443910D01*
X120800Y444069D01*
X121478Y444522D01*
X121931Y445200D01*
X122090Y446000D01*
X121931Y446800D01*
X121478Y447478D01*
X120800Y447931D01*
X120000Y448090D01*
D02*
G37*
G36*
X13291Y447890D02*
X12491Y447731D01*
X11813Y447278D01*
X11360Y446600D01*
X11201Y445800D01*
X11360Y445000D01*
X11813Y444322D01*
X12491Y443869D01*
X13291Y443710D01*
X14091Y443869D01*
X14769Y444322D01*
X15222Y445000D01*
X15382Y445800D01*
X15222Y446600D01*
X14769Y447278D01*
X14091Y447731D01*
X13291Y447890D01*
D02*
G37*
G36*
X57200Y445799D02*
X56400Y445640D01*
X55722Y445187D01*
X55269Y444509D01*
X55110Y443709D01*
X55269Y442909D01*
X55722Y442231D01*
X56400Y441778D01*
X57200Y441619D01*
X58000Y441778D01*
X58678Y442231D01*
X59131Y442909D01*
X59290Y443709D01*
X59131Y444509D01*
X58678Y445187D01*
X58000Y445640D01*
X57200Y445799D01*
D02*
G37*
G36*
X779964Y447054D02*
X778740Y446893D01*
X777600Y446420D01*
X776621Y445669D01*
X775870Y444690D01*
X775398Y443550D01*
X775237Y442326D01*
X775398Y441103D01*
X775870Y439963D01*
X776621Y438983D01*
X777600Y438232D01*
X778740Y437760D01*
X779964Y437599D01*
X781187Y437760D01*
X782328Y438232D01*
X783307Y438983D01*
X784058Y439963D01*
X784530Y441103D01*
X784691Y442326D01*
X784530Y443550D01*
X784058Y444690D01*
X783307Y445669D01*
X782328Y446420D01*
X781187Y446893D01*
X779964Y447054D01*
D02*
G37*
G36*
X599964D02*
X598740Y446893D01*
X597600Y446420D01*
X596621Y445669D01*
X595870Y444690D01*
X595398Y443550D01*
X595236Y442326D01*
X595398Y441103D01*
X595870Y439963D01*
X596621Y438983D01*
X597600Y438232D01*
X598740Y437760D01*
X599964Y437599D01*
X601188Y437760D01*
X602328Y438232D01*
X603307Y438983D01*
X604058Y439963D01*
X604530Y441103D01*
X604691Y442326D01*
X604530Y443550D01*
X604058Y444690D01*
X603307Y445669D01*
X602328Y446420D01*
X601188Y446893D01*
X599964Y447054D01*
D02*
G37*
G36*
X419964D02*
X418740Y446893D01*
X417600Y446420D01*
X416621Y445669D01*
X415870Y444690D01*
X415398Y443550D01*
X415237Y442326D01*
X415398Y441103D01*
X415870Y439963D01*
X416621Y438983D01*
X417600Y438232D01*
X418740Y437760D01*
X419964Y437599D01*
X421187Y437760D01*
X422328Y438232D01*
X423307Y438983D01*
X424058Y439963D01*
X424530Y441103D01*
X424691Y442326D01*
X424530Y443550D01*
X424058Y444690D01*
X423307Y445669D01*
X422328Y446420D01*
X421187Y446893D01*
X419964Y447054D01*
D02*
G37*
G36*
X239964D02*
X238740Y446893D01*
X237600Y446420D01*
X236621Y445669D01*
X235870Y444690D01*
X235398Y443550D01*
X235237Y442326D01*
X235398Y441103D01*
X235870Y439963D01*
X236621Y438983D01*
X237600Y438232D01*
X238740Y437760D01*
X239964Y437599D01*
X241188Y437760D01*
X242328Y438232D01*
X243307Y438983D01*
X244058Y439963D01*
X244530Y441103D01*
X244691Y442326D01*
X244530Y443550D01*
X244058Y444690D01*
X243307Y445669D01*
X242328Y446420D01*
X241188Y446893D01*
X239964Y447054D01*
D02*
G37*
G36*
X436170Y439684D02*
X435370Y439525D01*
X434692Y439072D01*
X434239Y438394D01*
X434080Y437594D01*
X434239Y436794D01*
X434692Y436116D01*
X435370Y435663D01*
X436170Y435504D01*
X436970Y435663D01*
X437648Y436116D01*
X438101Y436794D01*
X438260Y437594D01*
X438101Y438394D01*
X437648Y439072D01*
X436970Y439525D01*
X436170Y439684D01*
D02*
G37*
G36*
X253047Y439134D02*
X252247Y438975D01*
X251569Y438522D01*
X251116Y437844D01*
X250957Y437044D01*
X251116Y436244D01*
X251569Y435566D01*
X252247Y435113D01*
X253047Y434954D01*
X253847Y435113D01*
X254525Y435566D01*
X254978Y436244D01*
X255137Y437044D01*
X254978Y437844D01*
X254525Y438522D01*
X253847Y438975D01*
X253047Y439134D01*
D02*
G37*
G36*
X135786Y435503D02*
X134986Y435344D01*
X134308Y434891D01*
X133855Y434213D01*
X133696Y433413D01*
X133855Y432613D01*
X134308Y431935D01*
X134986Y431482D01*
X135786Y431323D01*
X136586Y431482D01*
X137264Y431935D01*
X137717Y432613D01*
X137876Y433413D01*
X137717Y434213D01*
X137264Y434891D01*
X136586Y435344D01*
X135786Y435503D01*
D02*
G37*
G36*
X39000Y437090D02*
X38200Y436931D01*
X37522Y436478D01*
X37069Y435800D01*
X36910Y435000D01*
X37069Y434200D01*
X37522Y433522D01*
X37661Y433429D01*
Y432828D01*
X37420Y432666D01*
X36967Y431988D01*
X36808Y431188D01*
X36967Y430388D01*
X37420Y429710D01*
X38098Y429257D01*
X38898Y429098D01*
X39698Y429257D01*
X40376Y429710D01*
X40829Y430388D01*
X40988Y431188D01*
X40829Y431988D01*
X40376Y432666D01*
X40237Y432760D01*
Y433361D01*
X40478Y433522D01*
X40931Y434200D01*
X41090Y435000D01*
X40931Y435800D01*
X40478Y436478D01*
X39800Y436931D01*
X39000Y437090D01*
D02*
G37*
G36*
X779964Y437054D02*
X778740Y436893D01*
X777600Y436420D01*
X776621Y435669D01*
X775870Y434690D01*
X775398Y433550D01*
X775237Y432326D01*
X775398Y431103D01*
X775870Y429963D01*
X776621Y428983D01*
X777600Y428232D01*
X778740Y427760D01*
X779964Y427599D01*
X781187Y427760D01*
X782328Y428232D01*
X783307Y428983D01*
X784058Y429963D01*
X784530Y431103D01*
X784691Y432326D01*
X784530Y433550D01*
X784058Y434690D01*
X783307Y435669D01*
X782328Y436420D01*
X781187Y436893D01*
X779964Y437054D01*
D02*
G37*
G36*
X599964D02*
X598740Y436893D01*
X597600Y436420D01*
X596621Y435669D01*
X595870Y434690D01*
X595398Y433550D01*
X595236Y432326D01*
X595398Y431103D01*
X595870Y429963D01*
X596621Y428983D01*
X597600Y428232D01*
X598740Y427760D01*
X599964Y427599D01*
X601188Y427760D01*
X602328Y428232D01*
X603307Y428983D01*
X604058Y429963D01*
X604530Y431103D01*
X604691Y432326D01*
X604530Y433550D01*
X604058Y434690D01*
X603307Y435669D01*
X602328Y436420D01*
X601188Y436893D01*
X599964Y437054D01*
D02*
G37*
G36*
X419964D02*
X418740Y436893D01*
X417600Y436420D01*
X416621Y435669D01*
X415870Y434690D01*
X415398Y433550D01*
X415237Y432326D01*
X415398Y431103D01*
X415870Y429963D01*
X416621Y428983D01*
X417600Y428232D01*
X418740Y427760D01*
X419964Y427599D01*
X421187Y427760D01*
X422328Y428232D01*
X423307Y428983D01*
X424058Y429963D01*
X424530Y431103D01*
X424691Y432326D01*
X424530Y433550D01*
X424058Y434690D01*
X423307Y435669D01*
X422328Y436420D01*
X421187Y436893D01*
X419964Y437054D01*
D02*
G37*
G36*
X239964D02*
X238740Y436893D01*
X237600Y436420D01*
X236621Y435669D01*
X235870Y434690D01*
X235398Y433550D01*
X235237Y432326D01*
X235398Y431103D01*
X235870Y429963D01*
X236621Y428983D01*
X237600Y428232D01*
X238740Y427760D01*
X239964Y427599D01*
X241188Y427760D01*
X242328Y428232D01*
X243307Y428983D01*
X244058Y429963D01*
X244530Y431103D01*
X244691Y432326D01*
X244530Y433550D01*
X244058Y434690D01*
X243307Y435669D01*
X242328Y436420D01*
X241188Y436893D01*
X239964Y437054D01*
D02*
G37*
G36*
X122661Y431520D02*
X121862Y431361D01*
X121183Y430908D01*
X120730Y430230D01*
X120571Y429430D01*
X120730Y428630D01*
X121183Y427952D01*
X121862Y427499D01*
X122661Y427340D01*
X123461Y427499D01*
X124139Y427952D01*
X124592Y428630D01*
X124751Y429430D01*
X124592Y430230D01*
X124139Y430908D01*
X123461Y431361D01*
X122661Y431520D01*
D02*
G37*
G36*
X144643Y430253D02*
X143843Y430093D01*
X143165Y429640D01*
X142712Y428962D01*
X142553Y428162D01*
X142712Y427363D01*
X143165Y426685D01*
X143843Y426231D01*
X144643Y426072D01*
X145443Y426231D01*
X146121Y426685D01*
X146574Y427363D01*
X146733Y428162D01*
X146574Y428962D01*
X146121Y429640D01*
X145443Y430093D01*
X144643Y430253D01*
D02*
G37*
G36*
X135504Y428595D02*
X134704Y428436D01*
X134026Y427983D01*
X133573Y427305D01*
X133414Y426505D01*
X133573Y425705D01*
X134026Y425027D01*
X134704Y424574D01*
X135504Y424415D01*
X136304Y424574D01*
X136982Y425027D01*
X137435Y425705D01*
X137594Y426505D01*
X137435Y427305D01*
X136982Y427983D01*
X136304Y428436D01*
X135504Y428595D01*
D02*
G37*
G36*
X38791Y428229D02*
X37992Y428070D01*
X37314Y427617D01*
X36860Y426939D01*
X36701Y426139D01*
X36860Y425339D01*
X37314Y424661D01*
X37992Y424208D01*
X38791Y424049D01*
X39591Y424208D01*
X40269Y424661D01*
X40723Y425339D01*
X40882Y426139D01*
X40723Y426939D01*
X40269Y427617D01*
X39591Y428070D01*
X38791Y428229D01*
D02*
G37*
G36*
X51650Y435737D02*
X50850Y435578D01*
X50172Y435125D01*
X49719Y434447D01*
X49560Y433647D01*
X49719Y432847D01*
X50172Y432169D01*
X50414Y432007D01*
X50522Y431478D01*
X50476Y431410D01*
X50069Y430800D01*
X49910Y430000D01*
X50069Y429200D01*
X50522Y428522D01*
X51149Y428103D01*
X51212Y427834D01*
X51226Y427554D01*
X50813Y427278D01*
X50360Y426600D01*
X50201Y425800D01*
X50360Y425000D01*
X50813Y424322D01*
X51491Y423869D01*
X52291Y423710D01*
X53091Y423869D01*
X53769Y424322D01*
X54222Y425000D01*
X54382Y425800D01*
X54222Y426600D01*
X53769Y427278D01*
X53143Y427697D01*
X53079Y427966D01*
X53065Y428246D01*
X53478Y428522D01*
X53931Y429200D01*
X54090Y430000D01*
X53931Y430800D01*
X53478Y431478D01*
X53236Y431640D01*
X53128Y432169D01*
X53174Y432237D01*
X53581Y432847D01*
X53740Y433647D01*
X53581Y434447D01*
X53128Y435125D01*
X52450Y435578D01*
X51650Y435737D01*
D02*
G37*
G36*
X135291Y423890D02*
X134491Y423731D01*
X133813Y423278D01*
X133360Y422600D01*
X133201Y421800D01*
X133360Y421000D01*
X133813Y420322D01*
X134491Y419869D01*
X135291Y419710D01*
X136091Y419869D01*
X136769Y420322D01*
X137222Y421000D01*
X137381Y421800D01*
X137222Y422600D01*
X136769Y423278D01*
X136091Y423731D01*
X135291Y423890D01*
D02*
G37*
G36*
X39418Y420995D02*
X38618Y420836D01*
X37940Y420383D01*
X37487Y419705D01*
X37328Y418905D01*
X37487Y418105D01*
X37940Y417427D01*
X38618Y416974D01*
X39418Y416815D01*
X40218Y416974D01*
X40896Y417427D01*
X41349Y418105D01*
X41508Y418905D01*
X41349Y419705D01*
X40896Y420383D01*
X40218Y420836D01*
X39418Y420995D01*
D02*
G37*
G36*
X635651Y426013D02*
X626277D01*
Y416639D01*
X635651D01*
Y426013D01*
D02*
G37*
G36*
X455651D02*
X446277D01*
Y416639D01*
X455651D01*
Y426013D01*
D02*
G37*
G36*
X620964Y426054D02*
X619740Y425893D01*
X618600Y425420D01*
X617621Y424669D01*
X616870Y423690D01*
X616398Y422550D01*
X616236Y421326D01*
X616398Y420103D01*
X616870Y418963D01*
X617621Y417983D01*
X618600Y417232D01*
X619740Y416760D01*
X620964Y416599D01*
X622188Y416760D01*
X623328Y417232D01*
X624307Y417983D01*
X625058Y418963D01*
X625530Y420103D01*
X625691Y421326D01*
X625530Y422550D01*
X625058Y423690D01*
X624307Y424669D01*
X623328Y425420D01*
X622188Y425893D01*
X620964Y426054D01*
D02*
G37*
G36*
X610964D02*
X609740Y425893D01*
X608600Y425420D01*
X607621Y424669D01*
X606870Y423690D01*
X606398Y422550D01*
X606237Y421326D01*
X606398Y420103D01*
X606870Y418963D01*
X607621Y417983D01*
X608600Y417232D01*
X609740Y416760D01*
X610964Y416599D01*
X612187Y416760D01*
X613328Y417232D01*
X614307Y417983D01*
X615058Y418963D01*
X615530Y420103D01*
X615691Y421326D01*
X615530Y422550D01*
X615058Y423690D01*
X614307Y424669D01*
X613328Y425420D01*
X612187Y425893D01*
X610964Y426054D01*
D02*
G37*
G36*
X440964D02*
X439740Y425893D01*
X438600Y425420D01*
X437621Y424669D01*
X436870Y423690D01*
X436398Y422550D01*
X436236Y421326D01*
X436398Y420103D01*
X436870Y418963D01*
X437621Y417983D01*
X438600Y417232D01*
X439740Y416760D01*
X440964Y416599D01*
X442188Y416760D01*
X443328Y417232D01*
X444307Y417983D01*
X445058Y418963D01*
X445530Y420103D01*
X445691Y421326D01*
X445530Y422550D01*
X445058Y423690D01*
X444307Y424669D01*
X443328Y425420D01*
X442188Y425893D01*
X440964Y426054D01*
D02*
G37*
G36*
X430964D02*
X429740Y425893D01*
X428600Y425420D01*
X427621Y424669D01*
X426870Y423690D01*
X426398Y422550D01*
X426236Y421326D01*
X426398Y420103D01*
X426870Y418963D01*
X427621Y417983D01*
X428600Y417232D01*
X429740Y416760D01*
X430964Y416599D01*
X432188Y416760D01*
X433328Y417232D01*
X434307Y417983D01*
X435058Y418963D01*
X435530Y420103D01*
X435691Y421326D01*
X435530Y422550D01*
X435058Y423690D01*
X434307Y424669D01*
X433328Y425420D01*
X432188Y425893D01*
X430964Y426054D01*
D02*
G37*
G36*
X51110Y419709D02*
X50310Y419550D01*
X49632Y419097D01*
X49179Y418419D01*
X49020Y417619D01*
X49179Y416819D01*
X49632Y416141D01*
X50310Y415688D01*
X51110Y415529D01*
X51910Y415688D01*
X52588Y416141D01*
X53041Y416819D01*
X53200Y417619D01*
X53041Y418419D01*
X52588Y419097D01*
X51910Y419550D01*
X51110Y419709D01*
D02*
G37*
G36*
X33310Y420457D02*
X32510Y420297D01*
X31832Y419844D01*
X31379Y419166D01*
X31220Y418366D01*
X31379Y417566D01*
X31635Y417184D01*
X31600Y417033D01*
X31378Y416668D01*
X30722Y416538D01*
X30044Y416085D01*
X29591Y415407D01*
X29432Y414607D01*
X29591Y413807D01*
X30044Y413129D01*
X30722Y412676D01*
X31522Y412516D01*
X32322Y412676D01*
X33000Y413129D01*
X33453Y413807D01*
X33612Y414607D01*
X33453Y415407D01*
X33198Y415789D01*
X33233Y415940D01*
X33454Y416305D01*
X34110Y416435D01*
X34788Y416888D01*
X35241Y417566D01*
X35400Y418366D01*
X35241Y419166D01*
X34788Y419844D01*
X34110Y420297D01*
X33310Y420457D01*
D02*
G37*
G36*
X-4000Y413090D02*
X-4800Y412931D01*
X-5478Y412478D01*
X-5931Y411800D01*
X-6090Y411000D01*
X-5931Y410200D01*
X-5478Y409522D01*
X-4800Y409069D01*
X-4000Y408910D01*
X-3200Y409069D01*
X-2522Y409522D01*
X-2069Y410200D01*
X-1910Y411000D01*
X-2069Y411800D01*
X-2522Y412478D01*
X-3200Y412931D01*
X-4000Y413090D01*
D02*
G37*
G36*
X51599Y412780D02*
X50799Y412621D01*
X50121Y412168D01*
X49668Y411490D01*
X49509Y410690D01*
X49668Y409890D01*
X50121Y409212D01*
X50389Y409033D01*
Y408533D01*
X50263Y408449D01*
X49810Y407771D01*
X49650Y406971D01*
X49810Y406171D01*
X50263Y405493D01*
X50941Y405040D01*
X51741Y404881D01*
X52540Y405040D01*
X53219Y405493D01*
X53672Y406171D01*
X53831Y406971D01*
X53672Y407771D01*
X53219Y408449D01*
X52951Y408628D01*
Y409128D01*
X53077Y409212D01*
X53530Y409890D01*
X53689Y410690D01*
X53530Y411490D01*
X53077Y412168D01*
X52399Y412621D01*
X51599Y412780D01*
D02*
G37*
G36*
X135535Y408134D02*
X134736Y407975D01*
X134057Y407522D01*
X133604Y406844D01*
X133445Y406044D01*
X133604Y405244D01*
X134057Y404566D01*
X134736Y404113D01*
X135535Y403954D01*
X136335Y404113D01*
X137013Y404566D01*
X137467Y405244D01*
X137626Y406044D01*
X137467Y406844D01*
X137013Y407522D01*
X136335Y407975D01*
X135535Y408134D01*
D02*
G37*
G36*
X-4000Y405090D02*
X-4800Y404931D01*
X-5478Y404478D01*
X-5931Y403800D01*
X-6090Y403000D01*
X-5931Y402200D01*
X-5478Y401522D01*
X-4800Y401069D01*
X-4000Y400910D01*
X-3200Y401069D01*
X-2522Y401522D01*
X-2069Y402200D01*
X-1910Y403000D01*
X-2069Y403800D01*
X-2522Y404478D01*
X-3200Y404931D01*
X-4000Y405090D01*
D02*
G37*
G36*
X39700Y403961D02*
X38900Y403802D01*
X38222Y403349D01*
X37769Y402671D01*
X37610Y401871D01*
X37769Y401071D01*
X38222Y400393D01*
X38900Y399940D01*
X39700Y399781D01*
X40500Y399940D01*
X41178Y400393D01*
X41631Y401071D01*
X41790Y401871D01*
X41631Y402671D01*
X41178Y403349D01*
X40500Y403802D01*
X39700Y403961D01*
D02*
G37*
G36*
X143186Y403085D02*
X142386Y402926D01*
X141708Y402473D01*
X141255Y401795D01*
X141096Y400995D01*
X141255Y400195D01*
X141708Y399517D01*
X142386Y399064D01*
X143186Y398905D01*
X143986Y399064D01*
X144664Y399517D01*
X145117Y400195D01*
X145276Y400995D01*
X145117Y401795D01*
X144664Y402473D01*
X143986Y402926D01*
X143186Y403085D01*
D02*
G37*
G36*
X141453Y397746D02*
X140653Y397587D01*
X139975Y397134D01*
X139522Y396456D01*
X139363Y395656D01*
X139522Y394856D01*
X139975Y394178D01*
X140653Y393725D01*
X141453Y393566D01*
X142253Y393725D01*
X142931Y394178D01*
X143384Y394856D01*
X143543Y395656D01*
X143384Y396456D01*
X142931Y397134D01*
X142253Y397587D01*
X141453Y397746D01*
D02*
G37*
G36*
X-4152Y390831D02*
X-4952Y390672D01*
X-5630Y390219D01*
X-6084Y389541D01*
X-6243Y388741D01*
X-6084Y387941D01*
X-5630Y387263D01*
X-4952Y386810D01*
X-4152Y386650D01*
X-3353Y386810D01*
X-2674Y387263D01*
X-2221Y387941D01*
X-2062Y388741D01*
X-2221Y389541D01*
X-2674Y390219D01*
X-3353Y390672D01*
X-4152Y390831D01*
D02*
G37*
G36*
X709000Y396785D02*
Y386000D01*
X719785D01*
X719717Y386856D01*
X719283Y388666D01*
X718570Y390386D01*
X717598Y391973D01*
X716389Y393389D01*
X714973Y394598D01*
X713386Y395570D01*
X711666Y396283D01*
X709856Y396717D01*
X709000Y396785D01*
D02*
G37*
G36*
X707000D02*
X706144Y396717D01*
X704334Y396283D01*
X702614Y395570D01*
X701027Y394598D01*
X699611Y393389D01*
X698402Y391973D01*
X697430Y390386D01*
X696717Y388666D01*
X696283Y386856D01*
X696215Y386000D01*
X707000D01*
Y396785D01*
D02*
G37*
G36*
X445000D02*
Y386000D01*
X455785D01*
X455717Y386856D01*
X455283Y388666D01*
X454570Y390386D01*
X453598Y391973D01*
X452389Y393389D01*
X450973Y394598D01*
X449386Y395570D01*
X447666Y396283D01*
X445856Y396717D01*
X445000Y396785D01*
D02*
G37*
G36*
X443000D02*
X442144Y396717D01*
X440334Y396283D01*
X438614Y395570D01*
X437027Y394598D01*
X435611Y393389D01*
X434402Y391973D01*
X433430Y390386D01*
X432717Y388666D01*
X432283Y386856D01*
X432215Y386000D01*
X443000D01*
Y396785D01*
D02*
G37*
G36*
X181000D02*
Y386000D01*
X191785D01*
X191717Y386856D01*
X191283Y388666D01*
X190570Y390386D01*
X189598Y391973D01*
X188389Y393389D01*
X186973Y394598D01*
X185386Y395570D01*
X183666Y396283D01*
X181856Y396717D01*
X181000Y396785D01*
D02*
G37*
G36*
X179000D02*
X178144Y396717D01*
X176334Y396283D01*
X174614Y395570D01*
X173027Y394598D01*
X171611Y393389D01*
X170402Y391973D01*
X169430Y390386D01*
X168717Y388666D01*
X168283Y386856D01*
X168215Y386000D01*
X179000D01*
Y396785D01*
D02*
G37*
G36*
X120527Y384737D02*
X119727Y384578D01*
X119049Y384125D01*
X118596Y383447D01*
X118437Y382647D01*
X118596Y381847D01*
X119049Y381169D01*
X119727Y380716D01*
X120527Y380557D01*
X121327Y380716D01*
X122005Y381169D01*
X122458Y381847D01*
X122617Y382647D01*
X122458Y383447D01*
X122005Y384125D01*
X121327Y384578D01*
X120527Y384737D01*
D02*
G37*
G36*
X134118Y386275D02*
X133318Y386116D01*
X132640Y385663D01*
X132187Y384985D01*
X132028Y384185D01*
X132187Y383385D01*
X132640Y382707D01*
X133318Y382254D01*
X134118Y382095D01*
X134651Y382201D01*
X135083Y381809D01*
X135029Y381535D01*
X135188Y380735D01*
X135641Y380057D01*
X136319Y379604D01*
X137119Y379445D01*
X137919Y379604D01*
X138597Y380057D01*
X139050Y380735D01*
X139209Y381535D01*
X139050Y382335D01*
X138597Y383013D01*
X137919Y383466D01*
X137119Y383625D01*
X136585Y383519D01*
X136154Y383911D01*
X136208Y384185D01*
X136049Y384985D01*
X135596Y385663D01*
X134918Y386116D01*
X134118Y386275D01*
D02*
G37*
G36*
X-4050Y380341D02*
X-4849Y380182D01*
X-5528Y379729D01*
X-5981Y379051D01*
X-6140Y378251D01*
X-5981Y377451D01*
X-5528Y376773D01*
X-4849Y376320D01*
X-4050Y376161D01*
X-3250Y376320D01*
X-2572Y376773D01*
X-2119Y377451D01*
X-1960Y378251D01*
X-2119Y379051D01*
X-2572Y379729D01*
X-3250Y380182D01*
X-4050Y380341D01*
D02*
G37*
G36*
X59024Y378774D02*
X58224Y378615D01*
X57546Y378162D01*
X57093Y377484D01*
X56934Y376684D01*
X57093Y375884D01*
X57546Y375206D01*
X58224Y374753D01*
X59024Y374594D01*
X59824Y374753D01*
X60502Y375206D01*
X60955Y375884D01*
X61115Y376684D01*
X60955Y377484D01*
X60502Y378162D01*
X59824Y378615D01*
X59024Y378774D01*
D02*
G37*
G36*
X117583Y378755D02*
X116783Y378596D01*
X116105Y378143D01*
X115652Y377465D01*
X115493Y376665D01*
X115652Y375865D01*
X116105Y375187D01*
X116783Y374734D01*
X117583Y374575D01*
X118383Y374734D01*
X119061Y375187D01*
X119515Y375865D01*
X119674Y376665D01*
X119515Y377465D01*
X119061Y378143D01*
X118383Y378596D01*
X117583Y378755D01*
D02*
G37*
G36*
X39291Y377890D02*
X38491Y377731D01*
X37813Y377278D01*
X37360Y376600D01*
X37201Y375800D01*
X37360Y375000D01*
X37813Y374322D01*
X38491Y373869D01*
X39291Y373710D01*
X40091Y373869D01*
X40769Y374322D01*
X41222Y375000D01*
X41381Y375800D01*
X41222Y376600D01*
X40769Y377278D01*
X40091Y377731D01*
X39291Y377890D01*
D02*
G37*
G36*
X719785Y384000D02*
X709000D01*
Y373215D01*
X709856Y373283D01*
X711666Y373717D01*
X713386Y374430D01*
X714973Y375402D01*
X716389Y376611D01*
X717598Y378027D01*
X718570Y379614D01*
X719283Y381334D01*
X719717Y383144D01*
X719785Y384000D01*
D02*
G37*
G36*
X707000D02*
X696215D01*
X696283Y383144D01*
X696717Y381334D01*
X697430Y379614D01*
X698402Y378027D01*
X699611Y376611D01*
X701027Y375402D01*
X702614Y374430D01*
X704334Y373717D01*
X706144Y373283D01*
X707000Y373215D01*
Y384000D01*
D02*
G37*
G36*
X455785D02*
X445000D01*
Y373215D01*
X445856Y373283D01*
X447666Y373717D01*
X449386Y374430D01*
X450973Y375402D01*
X452389Y376611D01*
X453598Y378027D01*
X454570Y379614D01*
X455283Y381334D01*
X455717Y383144D01*
X455785Y384000D01*
D02*
G37*
G36*
X443000D02*
X432215D01*
X432283Y383144D01*
X432717Y381334D01*
X433430Y379614D01*
X434402Y378027D01*
X435611Y376611D01*
X437027Y375402D01*
X438614Y374430D01*
X440334Y373717D01*
X442144Y373283D01*
X443000Y373215D01*
Y384000D01*
D02*
G37*
G36*
X191785D02*
X181000D01*
Y373215D01*
X181856Y373283D01*
X183666Y373717D01*
X185386Y374430D01*
X186973Y375402D01*
X188389Y376611D01*
X189598Y378027D01*
X190570Y379614D01*
X191283Y381334D01*
X191717Y383144D01*
X191785Y384000D01*
D02*
G37*
G36*
X179000D02*
X168215D01*
X168283Y383144D01*
X168717Y381334D01*
X169430Y379614D01*
X170402Y378027D01*
X171611Y376611D01*
X173027Y375402D01*
X174614Y374430D01*
X176334Y373717D01*
X178144Y373283D01*
X179000Y373215D01*
Y384000D01*
D02*
G37*
G36*
X86137Y376862D02*
X85337Y376703D01*
X84658Y376250D01*
X84205Y375572D01*
X84046Y374772D01*
X84205Y373972D01*
X84658Y373294D01*
X85337Y372841D01*
X86137Y372682D01*
X86936Y372841D01*
X87615Y373294D01*
X88068Y373972D01*
X88227Y374772D01*
X88068Y375572D01*
X87615Y376250D01*
X86936Y376703D01*
X86137Y376862D01*
D02*
G37*
G36*
X81094Y365093D02*
X80295Y364934D01*
X79616Y364481D01*
X79449Y364231D01*
X78848D01*
X78709Y364439D01*
X78031Y364892D01*
X77231Y365051D01*
X76431Y364892D01*
X75753Y364439D01*
X75300Y363760D01*
X75141Y362961D01*
X75300Y362161D01*
X75753Y361483D01*
X76431Y361030D01*
X77231Y360871D01*
X78031Y361030D01*
X78709Y361483D01*
X78876Y361733D01*
X79478D01*
X79616Y361525D01*
X80295Y361072D01*
X81094Y360913D01*
X81894Y361072D01*
X82572Y361525D01*
X83025Y362203D01*
X83046Y362307D01*
X83556D01*
X83632Y361924D01*
X84085Y361246D01*
X84763Y360793D01*
X85563Y360634D01*
X86363Y360793D01*
X87041Y361246D01*
X87494Y361924D01*
X87653Y362724D01*
X87494Y363524D01*
X87041Y364202D01*
X86363Y364655D01*
X85563Y364814D01*
X84763Y364655D01*
X84085Y364202D01*
X83632Y363524D01*
X83612Y363420D01*
X83102D01*
X83025Y363803D01*
X82572Y364481D01*
X81894Y364934D01*
X81094Y365093D01*
D02*
G37*
G36*
X110480Y365079D02*
X109680Y364919D01*
X109002Y364466D01*
X108549Y363788D01*
X108390Y362988D01*
X108549Y362189D01*
X109002Y361510D01*
X109680Y361057D01*
X110480Y360898D01*
X111280Y361057D01*
X111958Y361510D01*
X112411Y362189D01*
X112570Y362988D01*
X112411Y363788D01*
X111958Y364466D01*
X111280Y364919D01*
X110480Y365079D01*
D02*
G37*
G36*
X100416Y364890D02*
X99616Y364731D01*
X98938Y364278D01*
X98485Y363600D01*
X98326Y362800D01*
X98485Y362000D01*
X98938Y361322D01*
X99616Y360869D01*
X100416Y360710D01*
X101216Y360869D01*
X101894Y361322D01*
X102347Y362000D01*
X102506Y362800D01*
X102347Y363600D01*
X101894Y364278D01*
X101216Y364731D01*
X100416Y364890D01*
D02*
G37*
G36*
X72692Y364172D02*
X71892Y364013D01*
X71214Y363559D01*
X70761Y362881D01*
X70602Y362081D01*
X70761Y361281D01*
X71214Y360603D01*
X71892Y360150D01*
X72692Y359991D01*
X73492Y360150D01*
X74170Y360603D01*
X74623Y361281D01*
X74783Y362081D01*
X74623Y362881D01*
X74170Y363559D01*
X73492Y364013D01*
X72692Y364172D01*
D02*
G37*
G36*
X133000Y363090D02*
X132200Y362931D01*
X131522Y362478D01*
X131069Y361800D01*
X130910Y361000D01*
X131069Y360200D01*
X131522Y359522D01*
X132200Y359069D01*
X133000Y358910D01*
X133800Y359069D01*
X134478Y359522D01*
X134931Y360200D01*
X135090Y361000D01*
X134931Y361800D01*
X134478Y362478D01*
X133800Y362931D01*
X133000Y363090D01*
D02*
G37*
G36*
X66528Y361562D02*
X65728Y361403D01*
X65050Y360950D01*
X64597Y360272D01*
X64438Y359472D01*
X64597Y358672D01*
X65050Y357994D01*
X65728Y357541D01*
X66528Y357382D01*
X67328Y357541D01*
X68006Y357994D01*
X68459Y358672D01*
X68618Y359472D01*
X68459Y360272D01*
X68006Y360950D01*
X67328Y361403D01*
X66528Y361562D01*
D02*
G37*
G36*
X102273Y360337D02*
X101473Y360178D01*
X100795Y359725D01*
X100341Y359047D01*
X100182Y358247D01*
X100341Y357447D01*
X100795Y356769D01*
X101473Y356316D01*
X102273Y356157D01*
X103073Y356316D01*
X103751Y356769D01*
X104204Y357447D01*
X104363Y358247D01*
X104204Y359047D01*
X103751Y359725D01*
X103073Y360178D01*
X102273Y360337D01*
D02*
G37*
G36*
X68291Y354890D02*
X67491Y354731D01*
X66813Y354278D01*
X66360Y353600D01*
X66201Y352800D01*
X66360Y352000D01*
X66813Y351322D01*
X67491Y350869D01*
X68291Y350710D01*
X69091Y350869D01*
X69769Y351322D01*
X70222Y352000D01*
X70381Y352800D01*
X70222Y353600D01*
X69769Y354278D01*
X69091Y354731D01*
X68291Y354890D01*
D02*
G37*
G36*
X7791Y358985D02*
X-3209D01*
Y347985D01*
X7791D01*
Y358985D01*
D02*
G37*
G36*
X635651Y357013D02*
X626277D01*
Y347639D01*
X635651D01*
Y357013D01*
D02*
G37*
G36*
X455651D02*
X446277D01*
Y347639D01*
X455651D01*
Y357013D01*
D02*
G37*
G36*
X620964Y357054D02*
X619740Y356893D01*
X618600Y356420D01*
X617621Y355669D01*
X616870Y354690D01*
X616398Y353550D01*
X616236Y352326D01*
X616398Y351103D01*
X616870Y349963D01*
X617621Y348984D01*
X618600Y348232D01*
X619740Y347760D01*
X620964Y347599D01*
X622188Y347760D01*
X623328Y348232D01*
X624307Y348984D01*
X625058Y349963D01*
X625530Y351103D01*
X625691Y352326D01*
X625530Y353550D01*
X625058Y354690D01*
X624307Y355669D01*
X623328Y356420D01*
X622188Y356893D01*
X620964Y357054D01*
D02*
G37*
G36*
X610964D02*
X609740Y356893D01*
X608600Y356420D01*
X607621Y355669D01*
X606870Y354690D01*
X606398Y353550D01*
X606237Y352326D01*
X606398Y351103D01*
X606870Y349963D01*
X607621Y348984D01*
X608600Y348232D01*
X609740Y347760D01*
X610964Y347599D01*
X612187Y347760D01*
X613328Y348232D01*
X614307Y348984D01*
X615058Y349963D01*
X615530Y351103D01*
X615691Y352326D01*
X615530Y353550D01*
X615058Y354690D01*
X614307Y355669D01*
X613328Y356420D01*
X612187Y356893D01*
X610964Y357054D01*
D02*
G37*
G36*
X440964D02*
X439740Y356893D01*
X438600Y356420D01*
X437621Y355669D01*
X436870Y354690D01*
X436398Y353550D01*
X436236Y352326D01*
X436398Y351103D01*
X436870Y349963D01*
X437621Y348984D01*
X438600Y348232D01*
X439740Y347760D01*
X440964Y347599D01*
X442188Y347760D01*
X443328Y348232D01*
X444307Y348984D01*
X445058Y349963D01*
X445530Y351103D01*
X445691Y352326D01*
X445530Y353550D01*
X445058Y354690D01*
X444307Y355669D01*
X443328Y356420D01*
X442188Y356893D01*
X440964Y357054D01*
D02*
G37*
G36*
X430964D02*
X429740Y356893D01*
X428600Y356420D01*
X427621Y355669D01*
X426870Y354690D01*
X426398Y353550D01*
X426236Y352326D01*
X426398Y351103D01*
X426870Y349963D01*
X427621Y348984D01*
X428600Y348232D01*
X429740Y347760D01*
X430964Y347599D01*
X432188Y347760D01*
X433328Y348232D01*
X434307Y348984D01*
X435058Y349963D01*
X435530Y351103D01*
X435691Y352326D01*
X435530Y353550D01*
X435058Y354690D01*
X434307Y355669D01*
X433328Y356420D01*
X432188Y356893D01*
X430964Y357054D01*
D02*
G37*
G36*
X54291Y349890D02*
X53491Y349731D01*
X52813Y349278D01*
X52360Y348600D01*
X52201Y347800D01*
X52360Y347000D01*
X52813Y346322D01*
X53491Y345869D01*
X54291Y345710D01*
X55091Y345869D01*
X55769Y346322D01*
X56222Y347000D01*
X56381Y347800D01*
X56222Y348600D01*
X55769Y349278D01*
X55091Y349731D01*
X54291Y349890D01*
D02*
G37*
G36*
X124047Y345134D02*
X123247Y344975D01*
X122569Y344522D01*
X122116Y343844D01*
X121957Y343044D01*
X122116Y342244D01*
X122569Y341566D01*
X123247Y341113D01*
X124047Y340954D01*
X124847Y341113D01*
X125525Y341566D01*
X125978Y342244D01*
X126137Y343044D01*
X125978Y343844D01*
X125525Y344522D01*
X124847Y344975D01*
X124047Y345134D01*
D02*
G37*
G36*
X95706Y345097D02*
X94906Y344938D01*
X94228Y344485D01*
X93775Y343807D01*
X93616Y343007D01*
X93775Y342207D01*
X94228Y341529D01*
X94906Y341076D01*
X95706Y340916D01*
X96505Y341076D01*
X97184Y341529D01*
X97637Y342207D01*
X97796Y343007D01*
X97637Y343807D01*
X97184Y344485D01*
X96505Y344938D01*
X95706Y345097D01*
D02*
G37*
G36*
X79291Y340890D02*
X78491Y340731D01*
X77813Y340278D01*
X77360Y339600D01*
X77201Y338800D01*
X77360Y338000D01*
X77813Y337322D01*
X78491Y336869D01*
X79291Y336710D01*
X80091Y336869D01*
X80769Y337322D01*
X81222Y338000D01*
X81381Y338800D01*
X81222Y339600D01*
X80769Y340278D01*
X80091Y340731D01*
X79291Y340890D01*
D02*
G37*
G36*
X111349Y340861D02*
X110549Y340702D01*
X109871Y340249D01*
X109418Y339571D01*
X109259Y338771D01*
X109418Y337971D01*
X109871Y337293D01*
X110549Y336840D01*
X111349Y336681D01*
X112149Y336840D01*
X112827Y337293D01*
X113280Y337971D01*
X113439Y338771D01*
X113280Y339571D01*
X112827Y340249D01*
X112149Y340702D01*
X111349Y340861D01*
D02*
G37*
G36*
X292552Y340847D02*
X291752Y340688D01*
X291074Y340235D01*
X290621Y339557D01*
X290462Y338757D01*
X290621Y337957D01*
X291074Y337279D01*
X291752Y336826D01*
X292552Y336667D01*
X293352Y336826D01*
X294030Y337279D01*
X294483Y337957D01*
X294642Y338757D01*
X294483Y339557D01*
X294030Y340235D01*
X293352Y340688D01*
X292552Y340847D01*
D02*
G37*
G36*
X642520Y345153D02*
X641296Y344991D01*
X640156Y344519D01*
X639177Y343768D01*
X638426Y342789D01*
X637953Y341649D01*
X637792Y340425D01*
X637953Y339201D01*
X638426Y338061D01*
X639177Y337082D01*
X640156Y336331D01*
X641296Y335859D01*
X642520Y335698D01*
X643743Y335859D01*
X644883Y336331D01*
X645863Y337082D01*
X646614Y338061D01*
X647086Y339201D01*
X647247Y340425D01*
X647086Y341649D01*
X646614Y342789D01*
X645863Y343768D01*
X644883Y344519D01*
X643743Y344991D01*
X642520Y345153D01*
D02*
G37*
G36*
X462520D02*
X461296Y344991D01*
X460156Y344519D01*
X459177Y343768D01*
X458426Y342789D01*
X457953Y341649D01*
X457792Y340425D01*
X457953Y339201D01*
X458426Y338061D01*
X459177Y337082D01*
X460156Y336331D01*
X461296Y335859D01*
X462520Y335698D01*
X463743Y335859D01*
X464884Y336331D01*
X465863Y337082D01*
X466614Y338061D01*
X467086Y339201D01*
X467247Y340425D01*
X467086Y341649D01*
X466614Y342789D01*
X465863Y343768D01*
X464884Y344519D01*
X463743Y344991D01*
X462520Y345153D01*
D02*
G37*
G36*
X282520D02*
X281296Y344991D01*
X280156Y344519D01*
X279177Y343768D01*
X278426Y342789D01*
X277953Y341649D01*
X277792Y340425D01*
X277953Y339201D01*
X278426Y338061D01*
X279177Y337082D01*
X280156Y336331D01*
X281296Y335859D01*
X282520Y335698D01*
X283743Y335859D01*
X284883Y336331D01*
X285863Y337082D01*
X286614Y338061D01*
X287086Y339201D01*
X287247Y340425D01*
X287086Y341649D01*
X286614Y342789D01*
X285863Y343768D01*
X284883Y344519D01*
X283743Y344991D01*
X282520Y345153D01*
D02*
G37*
G36*
X102520D02*
X101296Y344991D01*
X100156Y344519D01*
X99177Y343768D01*
X98426Y342789D01*
X97953Y341649D01*
X97792Y340425D01*
X97953Y339201D01*
X98426Y338061D01*
X99177Y337082D01*
X100156Y336331D01*
X101296Y335859D01*
X102520Y335698D01*
X103743Y335859D01*
X104884Y336331D01*
X105863Y337082D01*
X106614Y338061D01*
X107086Y339201D01*
X107247Y340425D01*
X107086Y341649D01*
X106614Y342789D01*
X105863Y343768D01*
X104884Y344519D01*
X103743Y344991D01*
X102520Y345153D01*
D02*
G37*
G36*
X2291Y339348D02*
X855Y339158D01*
X-482Y338604D01*
X-1631Y337723D01*
X-2513Y336574D01*
X-3067Y335236D01*
X-3256Y333800D01*
X-3067Y332364D01*
X-2513Y331026D01*
X-1631Y329877D01*
X-482Y328996D01*
X855Y328442D01*
X2291Y328253D01*
X3727Y328442D01*
X5065Y328996D01*
X6214Y329877D01*
X7096Y331026D01*
X7650Y332364D01*
X7839Y333800D01*
X7650Y335236D01*
X7096Y336574D01*
X6214Y337723D01*
X5065Y338604D01*
X3727Y339158D01*
X2291Y339348D01*
D02*
G37*
G36*
X642520Y335153D02*
X641296Y334992D01*
X640156Y334519D01*
X639177Y333768D01*
X638426Y332789D01*
X637953Y331649D01*
X637792Y330425D01*
X637953Y329202D01*
X638426Y328061D01*
X639177Y327082D01*
X640156Y326331D01*
X641296Y325859D01*
X642520Y325698D01*
X643743Y325859D01*
X644883Y326331D01*
X645863Y327082D01*
X646614Y328061D01*
X647086Y329202D01*
X647247Y330425D01*
X647086Y331649D01*
X646614Y332789D01*
X645863Y333768D01*
X644883Y334519D01*
X643743Y334992D01*
X642520Y335153D01*
D02*
G37*
G36*
X462520D02*
X461296Y334992D01*
X460156Y334519D01*
X459177Y333768D01*
X458426Y332789D01*
X457953Y331649D01*
X457792Y330425D01*
X457953Y329202D01*
X458426Y328061D01*
X459177Y327082D01*
X460156Y326331D01*
X461296Y325859D01*
X462520Y325698D01*
X463743Y325859D01*
X464884Y326331D01*
X465863Y327082D01*
X466614Y328061D01*
X467086Y329202D01*
X467247Y330425D01*
X467086Y331649D01*
X466614Y332789D01*
X465863Y333768D01*
X464884Y334519D01*
X463743Y334992D01*
X462520Y335153D01*
D02*
G37*
G36*
X282520D02*
X281296Y334992D01*
X280156Y334519D01*
X279177Y333768D01*
X278426Y332789D01*
X277953Y331649D01*
X277792Y330425D01*
X277953Y329202D01*
X278426Y328061D01*
X279177Y327082D01*
X280156Y326331D01*
X281296Y325859D01*
X282520Y325698D01*
X283743Y325859D01*
X284883Y326331D01*
X285863Y327082D01*
X286614Y328061D01*
X287086Y329202D01*
X287247Y330425D01*
X287086Y331649D01*
X286614Y332789D01*
X285863Y333768D01*
X284883Y334519D01*
X283743Y334992D01*
X282520Y335153D01*
D02*
G37*
G36*
X102520D02*
X101296Y334992D01*
X100156Y334519D01*
X99177Y333768D01*
X98426Y332789D01*
X97953Y331649D01*
X97792Y330425D01*
X97953Y329202D01*
X98426Y328061D01*
X99177Y327082D01*
X100156Y326331D01*
X101296Y325859D01*
X102520Y325698D01*
X103743Y325859D01*
X104884Y326331D01*
X105863Y327082D01*
X106614Y328061D01*
X107086Y329202D01*
X107247Y330425D01*
X107086Y331649D01*
X106614Y332789D01*
X105863Y333768D01*
X104884Y334519D01*
X103743Y334992D01*
X102520Y335153D01*
D02*
G37*
G36*
X642520Y325153D02*
X641296Y324991D01*
X640156Y324519D01*
X639177Y323768D01*
X638426Y322789D01*
X637953Y321649D01*
X637792Y320425D01*
X637953Y319201D01*
X638426Y318061D01*
X639177Y317082D01*
X640156Y316331D01*
X641296Y315859D01*
X642520Y315698D01*
X643743Y315859D01*
X644883Y316331D01*
X645863Y317082D01*
X646614Y318061D01*
X647086Y319201D01*
X647247Y320425D01*
X647086Y321649D01*
X646614Y322789D01*
X645863Y323768D01*
X644883Y324519D01*
X643743Y324991D01*
X642520Y325153D01*
D02*
G37*
G36*
X462520D02*
X461296Y324991D01*
X460156Y324519D01*
X459177Y323768D01*
X458426Y322789D01*
X457953Y321649D01*
X457792Y320425D01*
X457953Y319201D01*
X458426Y318061D01*
X459177Y317082D01*
X460156Y316331D01*
X461296Y315859D01*
X462520Y315698D01*
X463743Y315859D01*
X464884Y316331D01*
X465863Y317082D01*
X466614Y318061D01*
X467086Y319201D01*
X467247Y320425D01*
X467086Y321649D01*
X466614Y322789D01*
X465863Y323768D01*
X464884Y324519D01*
X463743Y324991D01*
X462520Y325153D01*
D02*
G37*
G36*
X282520D02*
X281296Y324991D01*
X280156Y324519D01*
X279177Y323768D01*
X278426Y322789D01*
X277953Y321649D01*
X277792Y320425D01*
X277953Y319201D01*
X278426Y318061D01*
X279177Y317082D01*
X280156Y316331D01*
X281296Y315859D01*
X282520Y315698D01*
X283743Y315859D01*
X284883Y316331D01*
X285863Y317082D01*
X286614Y318061D01*
X287086Y319201D01*
X287247Y320425D01*
X287086Y321649D01*
X286614Y322789D01*
X285863Y323768D01*
X284883Y324519D01*
X283743Y324991D01*
X282520Y325153D01*
D02*
G37*
G36*
X102520D02*
X101296Y324991D01*
X100156Y324519D01*
X99177Y323768D01*
X98426Y322789D01*
X97953Y321649D01*
X97792Y320425D01*
X97953Y319201D01*
X98426Y318061D01*
X99177Y317082D01*
X100156Y316331D01*
X101296Y315859D01*
X102520Y315698D01*
X103743Y315859D01*
X104884Y316331D01*
X105863Y317082D01*
X106614Y318061D01*
X107086Y319201D01*
X107247Y320425D01*
X107086Y321649D01*
X106614Y322789D01*
X105863Y323768D01*
X104884Y324519D01*
X103743Y324991D01*
X102520Y325153D01*
D02*
G37*
G36*
X76291Y314890D02*
X75491Y314731D01*
X74813Y314278D01*
X74360Y313600D01*
X74201Y312800D01*
X74360Y312000D01*
X74813Y311322D01*
Y311278D01*
X74360Y310600D01*
X74201Y309800D01*
X74360Y309000D01*
X74813Y308322D01*
Y308278D01*
X74360Y307600D01*
X74201Y306800D01*
X74360Y306000D01*
X74813Y305322D01*
X75491Y304869D01*
X76291Y304710D01*
X77091Y304869D01*
X77769Y305322D01*
X78222Y306000D01*
X78382Y306800D01*
X78222Y307600D01*
X77769Y308278D01*
Y308322D01*
X78222Y309000D01*
X78382Y309800D01*
X78222Y310600D01*
X77769Y311278D01*
Y311322D01*
X78222Y312000D01*
X78382Y312800D01*
X78222Y313600D01*
X77769Y314278D01*
X77091Y314731D01*
X76291Y314890D01*
D02*
G37*
G36*
X102520Y315153D02*
X101296Y314991D01*
X100156Y314519D01*
X99177Y313768D01*
X98426Y312789D01*
X97953Y311649D01*
X97792Y310425D01*
X97953Y309202D01*
X98426Y308061D01*
X99177Y307082D01*
X100156Y306331D01*
X101296Y305859D01*
X101717Y305803D01*
Y305299D01*
X101231Y305235D01*
X100030Y304738D01*
X98999Y303946D01*
X98207Y302915D01*
X97710Y301714D01*
X97672Y301425D01*
X102520D01*
X107368D01*
X107330Y301714D01*
X106832Y302915D01*
X106041Y303946D01*
X105010Y304738D01*
X103809Y305235D01*
X103323Y305299D01*
Y305803D01*
X103743Y305859D01*
X104884Y306331D01*
X105863Y307082D01*
X106614Y308061D01*
X107086Y309202D01*
X107247Y310425D01*
X107086Y311649D01*
X106614Y312789D01*
X105863Y313768D01*
X104884Y314519D01*
X103743Y314991D01*
X102520Y315153D01*
D02*
G37*
G36*
X462520D02*
X461296Y314991D01*
X460156Y314519D01*
X459177Y313768D01*
X458426Y312789D01*
X457953Y311649D01*
X457792Y310425D01*
X457953Y309202D01*
X458426Y308061D01*
X459177Y307082D01*
X460156Y306331D01*
X461296Y305859D01*
X461717Y305803D01*
Y305299D01*
X461231Y305235D01*
X460030Y304738D01*
X458999Y303946D01*
X458207Y302915D01*
X457710Y301714D01*
X457672Y301425D01*
X462520D01*
X467368D01*
X467330Y301714D01*
X466832Y302915D01*
X466041Y303946D01*
X465010Y304738D01*
X463809Y305235D01*
X463323Y305299D01*
Y305803D01*
X463743Y305859D01*
X464884Y306331D01*
X465863Y307082D01*
X466614Y308061D01*
X467086Y309202D01*
X467247Y310425D01*
X467086Y311649D01*
X466614Y312789D01*
X465863Y313768D01*
X464884Y314519D01*
X463743Y314991D01*
X462520Y315153D01*
D02*
G37*
G36*
X282520D02*
X281296Y314991D01*
X280156Y314519D01*
X279177Y313768D01*
X278426Y312789D01*
X277953Y311649D01*
X277792Y310425D01*
X277953Y309202D01*
X278426Y308061D01*
X279177Y307082D01*
X280156Y306331D01*
X281296Y305859D01*
X281717Y305803D01*
Y305299D01*
X281231Y305235D01*
X280030Y304738D01*
X278999Y303946D01*
X278207Y302915D01*
X277710Y301714D01*
X277672Y301425D01*
X282520D01*
X287368D01*
X287330Y301714D01*
X286832Y302915D01*
X286041Y303946D01*
X285010Y304738D01*
X283809Y305235D01*
X283323Y305299D01*
Y305803D01*
X283743Y305859D01*
X284883Y306331D01*
X285863Y307082D01*
X286614Y308061D01*
X287086Y309202D01*
X287247Y310425D01*
X287086Y311649D01*
X286614Y312789D01*
X285863Y313768D01*
X284883Y314519D01*
X283743Y314991D01*
X282520Y315153D01*
D02*
G37*
G36*
X642520D02*
X641296Y314991D01*
X640156Y314519D01*
X639177Y313768D01*
X638426Y312789D01*
X637953Y311649D01*
X637792Y310425D01*
X637953Y309202D01*
X638426Y308061D01*
X639177Y307082D01*
X640156Y306331D01*
X641296Y305859D01*
X641717Y305803D01*
Y305299D01*
X641231Y305235D01*
X640030Y304738D01*
X638999Y303946D01*
X638207Y302915D01*
X637710Y301714D01*
X637672Y301425D01*
X642520D01*
X647368D01*
X647330Y301714D01*
X646832Y302915D01*
X646041Y303946D01*
X645010Y304738D01*
X643809Y305235D01*
X643323Y305299D01*
Y305803D01*
X643743Y305859D01*
X644883Y306331D01*
X645863Y307082D01*
X646614Y308061D01*
X647086Y309202D01*
X647247Y310425D01*
X647086Y311649D01*
X646614Y312789D01*
X645863Y313768D01*
X644883Y314519D01*
X643743Y314991D01*
X642520Y315153D01*
D02*
G37*
G36*
X647368Y299425D02*
X642520D01*
X637672D01*
X637710Y299136D01*
X638207Y297935D01*
X638999Y296904D01*
X640030Y296113D01*
X641231Y295615D01*
X641717Y295551D01*
Y295047D01*
X641296Y294991D01*
X640156Y294519D01*
X639177Y293768D01*
X638426Y292789D01*
X637953Y291649D01*
X637792Y290425D01*
X637953Y289201D01*
X638426Y288061D01*
X639177Y287082D01*
X640156Y286331D01*
X641296Y285859D01*
X642520Y285698D01*
X643743Y285859D01*
X644883Y286331D01*
X645863Y287082D01*
X646614Y288061D01*
X647086Y289201D01*
X647247Y290425D01*
X647086Y291649D01*
X646614Y292789D01*
X645863Y293768D01*
X644883Y294519D01*
X643743Y294991D01*
X643323Y295047D01*
Y295551D01*
X643809Y295615D01*
X645010Y296113D01*
X646041Y296904D01*
X646832Y297935D01*
X647330Y299136D01*
X647368Y299425D01*
D02*
G37*
G36*
X467368Y299425D02*
X462520D01*
X457672D01*
X457710Y299136D01*
X458207Y297935D01*
X458999Y296904D01*
X460030Y296113D01*
X461231Y295615D01*
X461717Y295551D01*
Y295047D01*
X461296Y294991D01*
X460156Y294519D01*
X459177Y293768D01*
X458426Y292789D01*
X457953Y291649D01*
X457792Y290425D01*
X457953Y289201D01*
X458426Y288061D01*
X459177Y287082D01*
X460156Y286331D01*
X461296Y285859D01*
X462520Y285698D01*
X463743Y285859D01*
X464884Y286331D01*
X465863Y287082D01*
X466614Y288061D01*
X467086Y289201D01*
X467247Y290425D01*
X467086Y291649D01*
X466614Y292789D01*
X465863Y293768D01*
X464884Y294519D01*
X463743Y294991D01*
X463323Y295047D01*
Y295551D01*
X463809Y295615D01*
X465010Y296113D01*
X466041Y296904D01*
X466832Y297935D01*
X467330Y299136D01*
X467368Y299425D01*
D02*
G37*
G36*
X287368D02*
X282520D01*
X277672D01*
X277710Y299136D01*
X278207Y297935D01*
X278999Y296904D01*
X280030Y296113D01*
X281231Y295615D01*
X281717Y295551D01*
Y295047D01*
X281296Y294991D01*
X280156Y294519D01*
X279177Y293768D01*
X278426Y292789D01*
X277953Y291649D01*
X277792Y290425D01*
X277953Y289201D01*
X278426Y288061D01*
X279177Y287082D01*
X280156Y286331D01*
X281296Y285859D01*
X282520Y285698D01*
X283743Y285859D01*
X284883Y286331D01*
X285863Y287082D01*
X286614Y288061D01*
X287086Y289201D01*
X287247Y290425D01*
X287086Y291649D01*
X286614Y292789D01*
X285863Y293768D01*
X284883Y294519D01*
X283743Y294991D01*
X283323Y295047D01*
Y295551D01*
X283809Y295615D01*
X285010Y296113D01*
X286041Y296904D01*
X286832Y297935D01*
X287330Y299136D01*
X287368Y299425D01*
D02*
G37*
G36*
X107368D02*
X102520D01*
X97672D01*
X97710Y299136D01*
X98207Y297935D01*
X98999Y296904D01*
X100030Y296113D01*
X101231Y295615D01*
X101717Y295551D01*
Y295047D01*
X101296Y294991D01*
X100156Y294519D01*
X99177Y293768D01*
X98426Y292789D01*
X97953Y291649D01*
X97792Y290425D01*
X97953Y289201D01*
X98426Y288061D01*
X99177Y287082D01*
X100156Y286331D01*
X101296Y285859D01*
X102520Y285698D01*
X103743Y285859D01*
X104884Y286331D01*
X105863Y287082D01*
X106614Y288061D01*
X107086Y289201D01*
X107247Y290425D01*
X107086Y291649D01*
X106614Y292789D01*
X105863Y293768D01*
X104884Y294519D01*
X103743Y294991D01*
X103323Y295047D01*
Y295551D01*
X103809Y295615D01*
X105010Y296113D01*
X106041Y296904D01*
X106832Y297935D01*
X107330Y299136D01*
X107368Y299425D01*
D02*
G37*
G36*
X647207Y285112D02*
X637833D01*
Y275738D01*
X647207D01*
Y285112D01*
D02*
G37*
G36*
X467207D02*
X457833D01*
Y275738D01*
X467207D01*
Y285112D01*
D02*
G37*
G36*
X287207D02*
X277833D01*
Y275738D01*
X287207D01*
Y285112D01*
D02*
G37*
G36*
X107207D02*
X97833D01*
Y275738D01*
X107207D01*
Y285112D01*
D02*
G37*
G36*
X773552Y260693D02*
Y249909D01*
X784336D01*
X784269Y250765D01*
X783834Y252575D01*
X783122Y254295D01*
X782149Y255882D01*
X780940Y257297D01*
X779525Y258506D01*
X777938Y259479D01*
X776218Y260191D01*
X774407Y260626D01*
X773552Y260693D01*
D02*
G37*
G36*
X771552D02*
X770696Y260626D01*
X768886Y260191D01*
X767166Y259479D01*
X765579Y258506D01*
X764163Y257297D01*
X762954Y255882D01*
X761981Y254295D01*
X761269Y252575D01*
X760834Y250765D01*
X760767Y249909D01*
X771552D01*
Y260693D01*
D02*
G37*
G36*
X593552D02*
Y249909D01*
X604336D01*
X604269Y250765D01*
X603834Y252575D01*
X603122Y254295D01*
X602149Y255882D01*
X600940Y257297D01*
X599525Y258506D01*
X597937Y259479D01*
X596218Y260191D01*
X594408Y260626D01*
X593552Y260693D01*
D02*
G37*
G36*
X591552D02*
X590696Y260626D01*
X588886Y260191D01*
X587166Y259479D01*
X585578Y258506D01*
X584163Y257297D01*
X582954Y255882D01*
X581981Y254295D01*
X581269Y252575D01*
X580834Y250765D01*
X580767Y249909D01*
X591552D01*
Y260693D01*
D02*
G37*
G36*
X413552D02*
Y249909D01*
X424336D01*
X424269Y250765D01*
X423834Y252575D01*
X423122Y254295D01*
X422149Y255882D01*
X420940Y257297D01*
X419525Y258506D01*
X417938Y259479D01*
X416218Y260191D01*
X414407Y260626D01*
X413552Y260693D01*
D02*
G37*
G36*
X411552D02*
X410696Y260626D01*
X408886Y260191D01*
X407166Y259479D01*
X405579Y258506D01*
X404163Y257297D01*
X402954Y255882D01*
X401981Y254295D01*
X401269Y252575D01*
X400834Y250765D01*
X400767Y249909D01*
X411552D01*
Y260693D01*
D02*
G37*
G36*
X233552D02*
Y249909D01*
X244336D01*
X244269Y250765D01*
X243834Y252575D01*
X243122Y254295D01*
X242149Y255882D01*
X240940Y257297D01*
X239525Y258506D01*
X237937Y259479D01*
X236218Y260191D01*
X234407Y260626D01*
X233552Y260693D01*
D02*
G37*
G36*
X231552D02*
X230696Y260626D01*
X228886Y260191D01*
X227166Y259479D01*
X225578Y258506D01*
X224163Y257297D01*
X222954Y255882D01*
X221981Y254295D01*
X221269Y252575D01*
X220834Y250765D01*
X220767Y249909D01*
X231552D01*
Y260693D01*
D02*
G37*
G36*
X366000Y249328D02*
X365139Y249215D01*
X364336Y248883D01*
X363646Y248354D01*
X363354D01*
X362664Y248883D01*
X361861Y249215D01*
X361000Y249328D01*
X360139Y249215D01*
X359336Y248883D01*
X358646Y248354D01*
X358354D01*
X357664Y248883D01*
X356861Y249215D01*
X356000Y249328D01*
X355138Y249215D01*
X354336Y248883D01*
X353646Y248354D01*
X353117Y247664D01*
X352785Y246862D01*
X352672Y246000D01*
X352785Y245139D01*
X353117Y244336D01*
X353646Y243646D01*
Y243354D01*
X353117Y242664D01*
X352785Y241862D01*
X352672Y241000D01*
X352785Y240139D01*
X353117Y239336D01*
X353483Y238859D01*
X353599Y238500D01*
X353483Y238141D01*
X353117Y237664D01*
X352785Y236861D01*
X352672Y236000D01*
X352785Y235139D01*
X353117Y234336D01*
X353646Y233646D01*
X354336Y233118D01*
X355138Y232785D01*
X356000Y232671D01*
X356861Y232785D01*
X357664Y233118D01*
X358354Y233646D01*
X358646D01*
X359336Y233118D01*
X360139Y232785D01*
X361000Y232671D01*
X361861Y232785D01*
X362664Y233118D01*
X363354Y233646D01*
X363646D01*
X364336Y233118D01*
X365139Y232785D01*
X366000Y232671D01*
X366862Y232785D01*
X367664Y233118D01*
X368354Y233646D01*
X368882Y234336D01*
X369215Y235139D01*
X369328Y236000D01*
X369215Y236861D01*
X368882Y237664D01*
X368517Y238141D01*
X368401Y238500D01*
X368517Y238859D01*
X368882Y239336D01*
X369215Y240139D01*
X369328Y241000D01*
X369215Y241862D01*
X368882Y242664D01*
X368354Y243354D01*
Y243646D01*
X368882Y244336D01*
X369215Y245139D01*
X369328Y246000D01*
X369215Y246862D01*
X368882Y247664D01*
X368354Y248354D01*
X367664Y248883D01*
X366862Y249215D01*
X366000Y249328D01*
D02*
G37*
G36*
X332000D02*
X331138Y249215D01*
X330336Y248883D01*
X329646Y248354D01*
X329354D01*
X328664Y248883D01*
X327861Y249215D01*
X327000Y249328D01*
X326138Y249215D01*
X325336Y248883D01*
X324646Y248354D01*
X324354D01*
X323664Y248883D01*
X322862Y249215D01*
X322000Y249328D01*
X321139Y249215D01*
X320336Y248883D01*
X319646Y248354D01*
X319117Y247664D01*
X318785Y246862D01*
X318671Y246000D01*
X318785Y245139D01*
X319117Y244336D01*
X319646Y243646D01*
Y243354D01*
X319117Y242664D01*
X318785Y241862D01*
X318671Y241000D01*
X318785Y240139D01*
X319117Y239336D01*
X319483Y238859D01*
X319599Y238500D01*
X319483Y238141D01*
X319117Y237664D01*
X318785Y236861D01*
X318671Y236000D01*
X318785Y235139D01*
X319117Y234336D01*
X319646Y233646D01*
X320336Y233118D01*
X321139Y232785D01*
X322000Y232671D01*
X322862Y232785D01*
X323664Y233118D01*
X324354Y233646D01*
X324646D01*
X325336Y233118D01*
X326138Y232785D01*
X327000Y232671D01*
X327861Y232785D01*
X328664Y233118D01*
X329354Y233646D01*
X329646D01*
X330336Y233118D01*
X331138Y232785D01*
X332000Y232671D01*
X332861Y232785D01*
X333664Y233118D01*
X334354Y233646D01*
X334882Y234336D01*
X335215Y235139D01*
X335329Y236000D01*
X335215Y236861D01*
X334882Y237664D01*
X334354Y238354D01*
Y238646D01*
X334882Y239336D01*
X335215Y240139D01*
X335329Y241000D01*
X335215Y241862D01*
X334882Y242664D01*
X334354Y243354D01*
Y243646D01*
X334882Y244336D01*
X335215Y245139D01*
X335329Y246000D01*
X335215Y246862D01*
X334882Y247664D01*
X334354Y248354D01*
X333664Y248883D01*
X332861Y249215D01*
X332000Y249328D01*
D02*
G37*
G36*
X24000Y249994D02*
X22656Y249817D01*
X21403Y249298D01*
X20327Y248473D01*
X19650Y247590D01*
X19150Y247759D01*
Y249950D01*
X8850D01*
Y239650D01*
X19150D01*
Y241841D01*
X19650Y242010D01*
X20327Y241127D01*
X21403Y240302D01*
X22656Y239783D01*
X24000Y239606D01*
X25344Y239783D01*
X26597Y240302D01*
X27673Y241127D01*
X28498Y242203D01*
X29017Y243456D01*
X29194Y244800D01*
X29017Y246144D01*
X28498Y247397D01*
X27673Y248473D01*
X26597Y249298D01*
X25344Y249817D01*
X24000Y249994D01*
D02*
G37*
G36*
X64000D02*
X62656Y249817D01*
X61403Y249298D01*
X60327Y248473D01*
X59502Y247397D01*
X59250Y246789D01*
X58750D01*
X58498Y247397D01*
X57673Y248473D01*
X56597Y249298D01*
X55344Y249817D01*
X54000Y249994D01*
X52656Y249817D01*
X51403Y249298D01*
X50327Y248473D01*
X49502Y247397D01*
X48983Y246144D01*
X48806Y244800D01*
X48983Y243456D01*
X49502Y242203D01*
X50327Y241127D01*
X51403Y240302D01*
X52656Y239783D01*
X54000Y239606D01*
X55344Y239783D01*
X56597Y240302D01*
X57673Y241127D01*
X58498Y242203D01*
X58750Y242811D01*
X59250D01*
X59502Y242203D01*
X60327Y241127D01*
X61403Y240302D01*
X62656Y239783D01*
X64000Y239606D01*
X65344Y239783D01*
X66597Y240302D01*
X67673Y241127D01*
X68498Y242203D01*
X69017Y243456D01*
X69194Y244800D01*
X69017Y246144D01*
X68498Y247397D01*
X67673Y248473D01*
X66597Y249298D01*
X65344Y249817D01*
X64000Y249994D01*
D02*
G37*
G36*
X75000Y248854D02*
Y245800D01*
X78054D01*
X78043Y245883D01*
X77625Y246893D01*
X76960Y247760D01*
X76093Y248425D01*
X75083Y248843D01*
X75000Y248854D01*
D02*
G37*
G36*
X73000D02*
X72917Y248843D01*
X71907Y248425D01*
X71040Y247760D01*
X70375Y246893D01*
X69957Y245883D01*
X69946Y245800D01*
X73000D01*
Y248854D01*
D02*
G37*
G36*
X84000Y248733D02*
X82982Y248599D01*
X82033Y248206D01*
X81219Y247581D01*
X80594Y246767D01*
X80201Y245818D01*
X80067Y244800D01*
X80201Y243782D01*
X80594Y242833D01*
X81219Y242019D01*
X82033Y241394D01*
X82982Y241001D01*
X84000Y240867D01*
X85018Y241001D01*
X85967Y241394D01*
X86781Y242019D01*
X87406Y242833D01*
X87799Y243782D01*
X87933Y244800D01*
X87799Y245818D01*
X87406Y246767D01*
X86781Y247581D01*
X85967Y248206D01*
X85018Y248599D01*
X84000Y248733D01*
D02*
G37*
G36*
X34000D02*
X32982Y248599D01*
X32033Y248206D01*
X31219Y247581D01*
X30594Y246767D01*
X30201Y245818D01*
X30067Y244800D01*
X30201Y243782D01*
X30594Y242833D01*
X31219Y242019D01*
X32033Y241394D01*
X32982Y241001D01*
X34000Y240867D01*
X35018Y241001D01*
X35967Y241394D01*
X36781Y242019D01*
X37406Y242833D01*
X37799Y243782D01*
X37933Y244800D01*
X37799Y245818D01*
X37406Y246767D01*
X36781Y247581D01*
X35967Y248206D01*
X35018Y248599D01*
X34000Y248733D01*
D02*
G37*
G36*
X78054Y243800D02*
X75000D01*
Y240746D01*
X75083Y240757D01*
X76093Y241175D01*
X76960Y241841D01*
X77625Y242707D01*
X78043Y243717D01*
X78054Y243800D01*
D02*
G37*
G36*
X73000D02*
X69946D01*
X69957Y243717D01*
X70375Y242707D01*
X71040Y241841D01*
X71907Y241175D01*
X72917Y240757D01*
X73000Y240746D01*
Y243800D01*
D02*
G37*
G36*
X784336Y247909D02*
X773552D01*
Y237124D01*
X774407Y237192D01*
X776218Y237626D01*
X777938Y238338D01*
X779525Y239311D01*
X780940Y240520D01*
X782149Y241936D01*
X783122Y243523D01*
X783834Y245243D01*
X784269Y247053D01*
X784336Y247909D01*
D02*
G37*
G36*
X771552D02*
X760767D01*
X760834Y247053D01*
X761269Y245243D01*
X761981Y243523D01*
X762954Y241936D01*
X764163Y240520D01*
X765579Y239311D01*
X767166Y238338D01*
X768886Y237626D01*
X770696Y237192D01*
X771552Y237124D01*
Y247909D01*
D02*
G37*
G36*
X604336D02*
X593552D01*
Y237124D01*
X594408Y237192D01*
X596218Y237626D01*
X597937Y238338D01*
X599525Y239311D01*
X600940Y240520D01*
X602149Y241936D01*
X603122Y243523D01*
X603834Y245243D01*
X604269Y247053D01*
X604336Y247909D01*
D02*
G37*
G36*
X591552D02*
X580767D01*
X580834Y247053D01*
X581269Y245243D01*
X581981Y243523D01*
X582954Y241936D01*
X584163Y240520D01*
X585578Y239311D01*
X587166Y238338D01*
X588886Y237626D01*
X590696Y237192D01*
X591552Y237124D01*
Y247909D01*
D02*
G37*
G36*
X424336D02*
X413552D01*
Y237124D01*
X414407Y237192D01*
X416218Y237626D01*
X417938Y238338D01*
X419525Y239311D01*
X420940Y240520D01*
X422149Y241936D01*
X423122Y243523D01*
X423834Y245243D01*
X424269Y247053D01*
X424336Y247909D01*
D02*
G37*
G36*
X411552D02*
X400767D01*
X400834Y247053D01*
X401269Y245243D01*
X401981Y243523D01*
X402954Y241936D01*
X404163Y240520D01*
X405579Y239311D01*
X407166Y238338D01*
X408886Y237626D01*
X410696Y237192D01*
X411552Y237124D01*
Y247909D01*
D02*
G37*
G36*
X244336D02*
X233552D01*
Y237124D01*
X234407Y237192D01*
X236218Y237626D01*
X237937Y238338D01*
X239525Y239311D01*
X240940Y240520D01*
X242149Y241936D01*
X243122Y243523D01*
X243834Y245243D01*
X244269Y247053D01*
X244336Y247909D01*
D02*
G37*
G36*
X231552D02*
X220767D01*
X220834Y247053D01*
X221269Y245243D01*
X221981Y243523D01*
X222954Y241936D01*
X224163Y240520D01*
X225578Y239311D01*
X227166Y238338D01*
X228886Y237626D01*
X230696Y237192D01*
X231552Y237124D01*
Y247909D01*
D02*
G37*
G36*
X24000Y200194D02*
X22656Y200017D01*
X21403Y199498D01*
X20327Y198673D01*
X19650Y197790D01*
X19150Y197959D01*
Y200150D01*
X8850D01*
Y189850D01*
X19150D01*
Y192041D01*
X19650Y192210D01*
X20327Y191327D01*
X21403Y190502D01*
X22656Y189983D01*
X24000Y189806D01*
X25344Y189983D01*
X26597Y190502D01*
X27673Y191327D01*
X28498Y192403D01*
X29017Y193656D01*
X29194Y195000D01*
X29017Y196344D01*
X28498Y197597D01*
X27673Y198673D01*
X26597Y199498D01*
X25344Y200017D01*
X24000Y200194D01*
D02*
G37*
G36*
X64000D02*
X62656Y200017D01*
X61403Y199498D01*
X60327Y198673D01*
X59502Y197597D01*
X59250Y196989D01*
X58750D01*
X58498Y197597D01*
X57673Y198673D01*
X56597Y199498D01*
X55344Y200017D01*
X54000Y200194D01*
X52656Y200017D01*
X51403Y199498D01*
X50327Y198673D01*
X49502Y197597D01*
X48983Y196344D01*
X48806Y195000D01*
X48983Y193656D01*
X49502Y192403D01*
X50327Y191327D01*
X51403Y190502D01*
X52656Y189983D01*
X54000Y189806D01*
X55344Y189983D01*
X56597Y190502D01*
X57673Y191327D01*
X58498Y192403D01*
X58750Y193011D01*
X59250D01*
X59502Y192403D01*
X60327Y191327D01*
X61403Y190502D01*
X62656Y189983D01*
X64000Y189806D01*
X65344Y189983D01*
X66597Y190502D01*
X67673Y191327D01*
X68498Y192403D01*
X69017Y193656D01*
X69194Y195000D01*
X69017Y196344D01*
X68498Y197597D01*
X67673Y198673D01*
X66597Y199498D01*
X65344Y200017D01*
X64000Y200194D01*
D02*
G37*
G36*
X75000Y199054D02*
Y196000D01*
X78054D01*
X78043Y196083D01*
X77625Y197093D01*
X76960Y197959D01*
X76093Y198625D01*
X75083Y199043D01*
X75000Y199054D01*
D02*
G37*
G36*
X73000D02*
X72917Y199043D01*
X71907Y198625D01*
X71040Y197959D01*
X70375Y197093D01*
X69957Y196083D01*
X69946Y196000D01*
X73000D01*
Y199054D01*
D02*
G37*
G36*
X84000Y198933D02*
X82982Y198799D01*
X82033Y198406D01*
X81219Y197781D01*
X80594Y196967D01*
X80201Y196018D01*
X80067Y195000D01*
X80201Y193982D01*
X80594Y193033D01*
X81219Y192219D01*
X82033Y191594D01*
X82982Y191201D01*
X84000Y191067D01*
X85018Y191201D01*
X85967Y191594D01*
X86781Y192219D01*
X87406Y193033D01*
X87799Y193982D01*
X87933Y195000D01*
X87799Y196018D01*
X87406Y196967D01*
X86781Y197781D01*
X85967Y198406D01*
X85018Y198799D01*
X84000Y198933D01*
D02*
G37*
G36*
X34000D02*
X32982Y198799D01*
X32033Y198406D01*
X31219Y197781D01*
X30594Y196967D01*
X30201Y196018D01*
X30067Y195000D01*
X30201Y193982D01*
X30594Y193033D01*
X31219Y192219D01*
X32033Y191594D01*
X32982Y191201D01*
X34000Y191067D01*
X35018Y191201D01*
X35967Y191594D01*
X36781Y192219D01*
X37406Y193033D01*
X37799Y193982D01*
X37933Y195000D01*
X37799Y196018D01*
X37406Y196967D01*
X36781Y197781D01*
X35967Y198406D01*
X35018Y198799D01*
X34000Y198933D01*
D02*
G37*
G36*
X78054Y194000D02*
X75000D01*
Y190946D01*
X75083Y190957D01*
X76093Y191375D01*
X76960Y192041D01*
X77625Y192907D01*
X78043Y193917D01*
X78054Y194000D01*
D02*
G37*
G36*
X73000D02*
X69946D01*
X69957Y193917D01*
X70375Y192907D01*
X71040Y192041D01*
X71907Y191375D01*
X72917Y190957D01*
X73000Y190946D01*
Y194000D01*
D02*
G37*
G36*
X397349Y159458D02*
X396487Y159344D01*
X395685Y159012D01*
X394995Y158483D01*
X394466Y157793D01*
X394134Y156991D01*
X394020Y156129D01*
X394134Y155268D01*
X394466Y154465D01*
X394785Y154050D01*
X394428Y153693D01*
X394013Y154012D01*
X393210Y154344D01*
X392349Y154457D01*
X391487Y154344D01*
X390685Y154012D01*
X389995Y153483D01*
X389466Y152793D01*
X389134Y151990D01*
X389020Y151129D01*
X389134Y150268D01*
X389466Y149465D01*
X389995Y148775D01*
Y148483D01*
X389466Y147793D01*
X389134Y146991D01*
X389020Y146129D01*
X389134Y145267D01*
X389466Y144465D01*
X389995Y143775D01*
X390685Y143246D01*
X391487Y142914D01*
X392349Y142800D01*
X393210Y142914D01*
X394013Y143246D01*
X394703Y143775D01*
X394995D01*
X395685Y143246D01*
X396487Y142914D01*
X397349Y142800D01*
X398210Y142914D01*
X399013Y143246D01*
X399703Y143775D01*
X400231Y144465D01*
X400564Y145267D01*
X400677Y146129D01*
X400564Y146991D01*
X400231Y147793D01*
X399866Y148270D01*
X399750Y148629D01*
X399866Y148988D01*
X400231Y149465D01*
X400564Y150268D01*
X400677Y151129D01*
X400564Y151990D01*
X400231Y152793D01*
X399703Y153483D01*
Y153775D01*
X400231Y154465D01*
X400564Y155268D01*
X400677Y156129D01*
X400564Y156991D01*
X400231Y157793D01*
X399703Y158483D01*
X399013Y159012D01*
X398210Y159344D01*
X397349Y159458D01*
D02*
G37*
G36*
X211741Y158128D02*
X210879Y158015D01*
X210076Y157683D01*
X209387Y157154D01*
X208858Y156464D01*
X208526Y155661D01*
X208412Y154800D01*
X208526Y153938D01*
X208858Y153136D01*
X209177Y152721D01*
X208820Y152364D01*
X208405Y152682D01*
X207602Y153015D01*
X206741Y153129D01*
X205879Y153015D01*
X205076Y152682D01*
X204387Y152154D01*
X203858Y151464D01*
X203526Y150662D01*
X203412Y149800D01*
X203526Y148939D01*
X203858Y148136D01*
X204387Y147446D01*
Y147154D01*
X203858Y146464D01*
X203526Y145661D01*
X203412Y144800D01*
X203526Y143939D01*
X203858Y143136D01*
X204387Y142446D01*
X205076Y141917D01*
X205879Y141585D01*
X206741Y141472D01*
X207602Y141585D01*
X208405Y141917D01*
X209094Y142446D01*
X209387D01*
X210076Y141917D01*
X210879Y141585D01*
X211741Y141472D01*
X212602Y141585D01*
X213405Y141917D01*
X214094Y142446D01*
X214623Y143136D01*
X214956Y143939D01*
X215069Y144800D01*
X214956Y145661D01*
X214623Y146464D01*
X214094Y147154D01*
Y147446D01*
X214623Y148136D01*
X214956Y148939D01*
X215069Y149800D01*
X214956Y150662D01*
X214623Y151464D01*
X214094Y152154D01*
Y152446D01*
X214623Y153136D01*
X214956Y153938D01*
X215069Y154800D01*
X214956Y155661D01*
X214623Y156464D01*
X214094Y157154D01*
X213405Y157683D01*
X212602Y158015D01*
X211741Y158128D01*
D02*
G37*
G36*
X24000Y149025D02*
X22656Y148848D01*
X21403Y148329D01*
X20327Y147504D01*
X19650Y146621D01*
X19150Y146791D01*
Y148981D01*
X8850D01*
Y138682D01*
X19150D01*
Y140872D01*
X19650Y141042D01*
X20327Y140159D01*
X21403Y139333D01*
X22656Y138814D01*
X24000Y138637D01*
X25344Y138814D01*
X26597Y139333D01*
X27673Y140159D01*
X28498Y141234D01*
X29017Y142487D01*
X29194Y143831D01*
X29017Y145176D01*
X28498Y146428D01*
X27673Y147504D01*
X26597Y148329D01*
X25344Y148848D01*
X24000Y149025D01*
D02*
G37*
G36*
X64000D02*
X62656Y148848D01*
X61403Y148329D01*
X60327Y147504D01*
X59502Y146428D01*
X59250Y145820D01*
X58750D01*
X58498Y146428D01*
X57673Y147504D01*
X56597Y148329D01*
X55344Y148848D01*
X54000Y149025D01*
X52656Y148848D01*
X51403Y148329D01*
X50327Y147504D01*
X49502Y146428D01*
X48983Y145176D01*
X48806Y143831D01*
X48983Y142487D01*
X49502Y141234D01*
X50327Y140159D01*
X51403Y139333D01*
X52656Y138814D01*
X54000Y138637D01*
X55344Y138814D01*
X56597Y139333D01*
X57673Y140159D01*
X58498Y141234D01*
X58750Y141842D01*
X59250D01*
X59502Y141234D01*
X60327Y140159D01*
X61403Y139333D01*
X62656Y138814D01*
X64000Y138637D01*
X65344Y138814D01*
X66597Y139333D01*
X67673Y140159D01*
X68498Y141234D01*
X69017Y142487D01*
X69194Y143831D01*
X69017Y145176D01*
X68498Y146428D01*
X67673Y147504D01*
X66597Y148329D01*
X65344Y148848D01*
X64000Y149025D01*
D02*
G37*
G36*
X75000Y147885D02*
Y144831D01*
X78054D01*
X78043Y144915D01*
X77625Y145924D01*
X76960Y146791D01*
X76093Y147456D01*
X75083Y147874D01*
X75000Y147885D01*
D02*
G37*
G36*
X73000D02*
X72917Y147874D01*
X71907Y147456D01*
X71040Y146791D01*
X70375Y145924D01*
X69957Y144915D01*
X69946Y144831D01*
X73000D01*
Y147885D01*
D02*
G37*
G36*
X84000Y147765D02*
X82982Y147631D01*
X82033Y147238D01*
X81219Y146613D01*
X80594Y145798D01*
X80201Y144849D01*
X80067Y143831D01*
X80201Y142813D01*
X80594Y141865D01*
X81219Y141050D01*
X82033Y140425D01*
X82982Y140032D01*
X84000Y139898D01*
X85018Y140032D01*
X85967Y140425D01*
X86781Y141050D01*
X87406Y141865D01*
X87799Y142813D01*
X87933Y143831D01*
X87799Y144849D01*
X87406Y145798D01*
X86781Y146613D01*
X85967Y147238D01*
X85018Y147631D01*
X84000Y147765D01*
D02*
G37*
G36*
X34000D02*
X32982Y147631D01*
X32033Y147238D01*
X31219Y146613D01*
X30594Y145798D01*
X30201Y144849D01*
X30067Y143831D01*
X30201Y142813D01*
X30594Y141865D01*
X31219Y141050D01*
X32033Y140425D01*
X32982Y140032D01*
X34000Y139898D01*
X35018Y140032D01*
X35967Y140425D01*
X36781Y141050D01*
X37406Y141865D01*
X37799Y142813D01*
X37933Y143831D01*
X37799Y144849D01*
X37406Y145798D01*
X36781Y146613D01*
X35967Y147238D01*
X35018Y147631D01*
X34000Y147765D01*
D02*
G37*
G36*
X78054Y142831D02*
X75000D01*
Y139778D01*
X75083Y139788D01*
X76093Y140207D01*
X76960Y140872D01*
X77625Y141739D01*
X78043Y142748D01*
X78054Y142831D01*
D02*
G37*
G36*
X73000D02*
X69946D01*
X69957Y142748D01*
X70375Y141739D01*
X71040Y140872D01*
X71907Y140207D01*
X72917Y139788D01*
X73000Y139778D01*
Y142831D01*
D02*
G37*
G36*
X577449Y107048D02*
X576649Y106889D01*
X575971Y106436D01*
X575518Y105757D01*
X575359Y104958D01*
X575518Y104158D01*
X575971Y103480D01*
X576649Y103027D01*
X577449Y102867D01*
X578249Y103027D01*
X578927Y103480D01*
X579380Y104158D01*
X579539Y104958D01*
X579380Y105757D01*
X578927Y106436D01*
X578249Y106889D01*
X577449Y107048D01*
D02*
G37*
G36*
X531583Y106847D02*
X530783Y106687D01*
X530105Y106234D01*
X529652Y105556D01*
X529493Y104756D01*
X529652Y103957D01*
X530105Y103279D01*
X530783Y102825D01*
X531583Y102666D01*
X532383Y102825D01*
X533061Y103279D01*
X533514Y103957D01*
X533673Y104756D01*
X533514Y105556D01*
X533061Y106234D01*
X532383Y106687D01*
X531583Y106847D01*
D02*
G37*
G36*
X577449Y102048D02*
X576649Y101889D01*
X575971Y101436D01*
X575518Y100758D01*
X575359Y99958D01*
X575518Y99158D01*
X575971Y98480D01*
X576649Y98027D01*
X577449Y97868D01*
X578249Y98027D01*
X578927Y98480D01*
X579380Y99158D01*
X579539Y99958D01*
X579380Y100758D01*
X578927Y101436D01*
X578249Y101889D01*
X577449Y102048D01*
D02*
G37*
G36*
X572449D02*
X571649Y101889D01*
X570971Y101436D01*
X570518Y100758D01*
X570359Y99958D01*
X570518Y99158D01*
X570971Y98480D01*
X571649Y98027D01*
X572449Y97868D01*
X573249Y98027D01*
X573927Y98480D01*
X574380Y99158D01*
X574539Y99958D01*
X574380Y100758D01*
X573927Y101436D01*
X573249Y101889D01*
X572449Y102048D01*
D02*
G37*
G36*
X531583Y101847D02*
X530783Y101688D01*
X530105Y101234D01*
X529652Y100556D01*
X529493Y99756D01*
X529652Y98957D01*
X530105Y98278D01*
X530783Y97825D01*
X531583Y97666D01*
X532383Y97825D01*
X533061Y98278D01*
X533514Y98957D01*
X533673Y99756D01*
X533514Y100556D01*
X533061Y101234D01*
X532383Y101688D01*
X531583Y101847D01*
D02*
G37*
G36*
X526583D02*
X525783Y101688D01*
X525105Y101234D01*
X524652Y100556D01*
X524493Y99756D01*
X524652Y98957D01*
X525105Y98278D01*
X525783Y97825D01*
X526583Y97666D01*
X527383Y97825D01*
X528061Y98278D01*
X528514Y98957D01*
X528673Y99756D01*
X528514Y100556D01*
X528061Y101234D01*
X527383Y101688D01*
X526583Y101847D01*
D02*
G37*
G36*
X24000Y99215D02*
X22656Y99038D01*
X21403Y98519D01*
X20327Y97694D01*
X19650Y96811D01*
X19150Y96980D01*
Y99171D01*
X8850D01*
Y88871D01*
X19150D01*
Y91062D01*
X19650Y91231D01*
X20327Y90348D01*
X21403Y89523D01*
X22656Y89004D01*
X24000Y88827D01*
X25344Y89004D01*
X26597Y89523D01*
X27673Y90348D01*
X28498Y91424D01*
X29017Y92677D01*
X29194Y94021D01*
X29017Y95365D01*
X28498Y96618D01*
X27673Y97694D01*
X26597Y98519D01*
X25344Y99038D01*
X24000Y99215D01*
D02*
G37*
G36*
X65000Y98075D02*
Y95021D01*
X68054D01*
X68043Y95104D01*
X67625Y96114D01*
X66960Y96981D01*
X66093Y97646D01*
X65083Y98064D01*
X65000Y98075D01*
D02*
G37*
G36*
X63000D02*
X62917Y98064D01*
X61907Y97646D01*
X61041Y96981D01*
X60375Y96114D01*
X59957Y95104D01*
X59946Y95021D01*
X63000D01*
Y98075D01*
D02*
G37*
G36*
X577449Y97048D02*
X576649Y96889D01*
X575971Y96436D01*
X575518Y95758D01*
X575359Y94958D01*
X575518Y94158D01*
X575971Y93480D01*
X576649Y93027D01*
X577449Y92867D01*
X578249Y93027D01*
X578927Y93480D01*
X579380Y94158D01*
X579539Y94958D01*
X579380Y95758D01*
X578927Y96436D01*
X578249Y96889D01*
X577449Y97048D01*
D02*
G37*
G36*
X572449D02*
X571649Y96889D01*
X570971Y96436D01*
X570518Y95758D01*
X570359Y94958D01*
X570518Y94158D01*
X570971Y93480D01*
X571649Y93027D01*
X572449Y92867D01*
X573249Y93027D01*
X573927Y93480D01*
X574380Y94158D01*
X574539Y94958D01*
X574380Y95758D01*
X573927Y96436D01*
X573249Y96889D01*
X572449Y97048D01*
D02*
G37*
G36*
X531583Y96847D02*
X530783Y96688D01*
X530105Y96235D01*
X529652Y95556D01*
X529493Y94757D01*
X529652Y93957D01*
X530105Y93278D01*
X530783Y92825D01*
X531583Y92666D01*
X532383Y92825D01*
X533061Y93278D01*
X533514Y93957D01*
X533673Y94757D01*
X533514Y95556D01*
X533061Y96235D01*
X532383Y96688D01*
X531583Y96847D01*
D02*
G37*
G36*
X526583D02*
X525783Y96688D01*
X525105Y96235D01*
X524652Y95556D01*
X524493Y94757D01*
X524652Y93957D01*
X525105Y93278D01*
X525783Y92825D01*
X526583Y92666D01*
X527383Y92825D01*
X528061Y93278D01*
X528514Y93957D01*
X528673Y94757D01*
X528514Y95556D01*
X528061Y96235D01*
X527383Y96688D01*
X526583Y96847D01*
D02*
G37*
G36*
X84000Y97954D02*
X82982Y97820D01*
X82033Y97427D01*
X81219Y96802D01*
X80594Y95988D01*
X80201Y95039D01*
X80067Y94021D01*
X80201Y93003D01*
X80594Y92054D01*
X81219Y91240D01*
X82033Y90615D01*
X82982Y90222D01*
X84000Y90088D01*
X85018Y90222D01*
X85967Y90615D01*
X86781Y91240D01*
X87406Y92054D01*
X87799Y93003D01*
X87933Y94021D01*
X87799Y95039D01*
X87406Y95988D01*
X86781Y96802D01*
X85967Y97427D01*
X85018Y97820D01*
X84000Y97954D01*
D02*
G37*
G36*
X34000D02*
X32982Y97820D01*
X32033Y97427D01*
X31219Y96802D01*
X30594Y95988D01*
X30201Y95039D01*
X30067Y94021D01*
X30201Y93003D01*
X30594Y92054D01*
X31219Y91240D01*
X32033Y90615D01*
X32982Y90222D01*
X34000Y90088D01*
X35018Y90222D01*
X35967Y90615D01*
X36781Y91240D01*
X37406Y92054D01*
X37799Y93003D01*
X37933Y94021D01*
X37799Y95039D01*
X37406Y95988D01*
X36781Y96802D01*
X35967Y97427D01*
X35018Y97820D01*
X34000Y97954D01*
D02*
G37*
G36*
X68054Y93021D02*
X65000D01*
Y89967D01*
X65083Y89978D01*
X66093Y90396D01*
X66960Y91061D01*
X67625Y91928D01*
X68043Y92938D01*
X68054Y93021D01*
D02*
G37*
G36*
X63000D02*
X59946D01*
X59957Y92938D01*
X60375Y91928D01*
X61041Y91061D01*
X61907Y90396D01*
X62917Y89978D01*
X63000Y89967D01*
Y93021D01*
D02*
G37*
G36*
X74000Y99215D02*
X72656Y99038D01*
X71403Y98519D01*
X70327Y97694D01*
X69502Y96618D01*
X68983Y95365D01*
X68806Y94021D01*
X68983Y92677D01*
X69502Y91424D01*
X70327Y90348D01*
X71403Y89523D01*
X72656Y89004D01*
X74000Y88827D01*
X75344Y89004D01*
X76597Y89523D01*
X77673Y90348D01*
X78498Y91424D01*
X79017Y92677D01*
X79194Y94021D01*
X79017Y95365D01*
X78498Y96618D01*
X77673Y97694D01*
X76597Y98519D01*
X75344Y99038D01*
X74000Y99215D01*
D02*
G37*
G36*
X54000D02*
X52656Y99038D01*
X51403Y98519D01*
X50327Y97694D01*
X49502Y96618D01*
X48983Y95365D01*
X48806Y94021D01*
X48983Y92677D01*
X49502Y91424D01*
X50327Y90348D01*
X51403Y89523D01*
X52656Y89004D01*
X54000Y88827D01*
X55344Y89004D01*
X56597Y89523D01*
X57673Y90348D01*
X58498Y91424D01*
X59017Y92677D01*
X59194Y94021D01*
X59017Y95365D01*
X58498Y96618D01*
X57673Y97694D01*
X56597Y98519D01*
X55344Y99038D01*
X54000Y99215D01*
D02*
G37*
G36*
X213549Y94106D02*
X212688Y93992D01*
X211885Y93660D01*
X211195Y93131D01*
X210666Y92441D01*
X210334Y91639D01*
X210221Y90777D01*
X210334Y89916D01*
X210666Y89113D01*
X210985Y88698D01*
X210629Y88341D01*
X210213Y88660D01*
X209411Y88992D01*
X208549Y89106D01*
X207688Y88992D01*
X206885Y88660D01*
X206195Y88131D01*
X205666Y87441D01*
X205334Y86639D01*
X205221Y85777D01*
X205334Y84916D01*
X205666Y84113D01*
X206195Y83424D01*
Y83131D01*
X205666Y82442D01*
X205334Y81639D01*
X205221Y80777D01*
X205334Y79916D01*
X205666Y79113D01*
X206195Y78424D01*
X206885Y77895D01*
X207688Y77562D01*
X208549Y77449D01*
X209411Y77562D01*
X210213Y77895D01*
X210903Y78424D01*
X211195D01*
X211885Y77895D01*
X212688Y77562D01*
X213549Y77449D01*
X214410Y77562D01*
X215213Y77895D01*
X215903Y78424D01*
X216432Y79113D01*
X216764Y79916D01*
X216878Y80777D01*
X216764Y81639D01*
X216432Y82442D01*
X215903Y83131D01*
Y83424D01*
X216432Y84113D01*
X216764Y84916D01*
X216878Y85777D01*
X216764Y86639D01*
X216432Y87441D01*
X215903Y88131D01*
Y88424D01*
X216432Y89113D01*
X216764Y89916D01*
X216878Y90777D01*
X216764Y91639D01*
X216432Y92441D01*
X215903Y93131D01*
X215213Y93660D01*
X214410Y93992D01*
X213549Y94106D01*
D02*
G37*
G36*
X760093Y86338D02*
X752595D01*
Y76174D01*
X760093D01*
Y86338D01*
D02*
G37*
G36*
X24000Y49994D02*
X22656Y49817D01*
X21403Y49298D01*
X20327Y48473D01*
X19650Y47590D01*
X19150Y47759D01*
Y49950D01*
X8850D01*
Y39650D01*
X19150D01*
Y41841D01*
X19650Y42010D01*
X20327Y41127D01*
X21403Y40302D01*
X22656Y39783D01*
X24000Y39606D01*
X25344Y39783D01*
X26597Y40302D01*
X27673Y41127D01*
X28498Y42203D01*
X29017Y43456D01*
X29194Y44800D01*
X29017Y46144D01*
X28498Y47397D01*
X27673Y48473D01*
X26597Y49298D01*
X25344Y49817D01*
X24000Y49994D01*
D02*
G37*
G36*
X65000Y48854D02*
Y45800D01*
X68054D01*
X68043Y45883D01*
X67625Y46893D01*
X66960Y47760D01*
X66093Y48425D01*
X65083Y48843D01*
X65000Y48854D01*
D02*
G37*
G36*
X63000D02*
X62917Y48843D01*
X61907Y48425D01*
X61041Y47760D01*
X60375Y46893D01*
X59957Y45883D01*
X59946Y45800D01*
X63000D01*
Y48854D01*
D02*
G37*
G36*
X784936Y58366D02*
X773062D01*
Y46492D01*
X775407D01*
X775567Y46018D01*
X775478Y45950D01*
X774687Y44919D01*
X774189Y43718D01*
X774151Y43429D01*
X778999D01*
X783847D01*
X783809Y43718D01*
X783312Y44919D01*
X782520Y45950D01*
X782431Y46018D01*
X782592Y46492D01*
X784936D01*
Y58366D01*
D02*
G37*
G36*
X604936D02*
X593062D01*
Y46492D01*
X595407D01*
X595567Y46018D01*
X595478Y45950D01*
X594687Y44919D01*
X594189Y43718D01*
X594151Y43429D01*
X598999D01*
X603847D01*
X603809Y43718D01*
X603312Y44919D01*
X602520Y45950D01*
X602431Y46018D01*
X602592Y46492D01*
X604936D01*
Y58366D01*
D02*
G37*
G36*
X424936D02*
X413062D01*
Y46492D01*
X415407D01*
X415567Y46018D01*
X415478Y45950D01*
X414687Y44919D01*
X414189Y43718D01*
X414151Y43429D01*
X418999D01*
X423847D01*
X423809Y43718D01*
X423312Y44919D01*
X422520Y45950D01*
X422431Y46018D01*
X422592Y46492D01*
X424936D01*
Y58366D01*
D02*
G37*
G36*
X244936D02*
X233062D01*
Y46492D01*
X235407D01*
X235567Y46018D01*
X235478Y45950D01*
X234687Y44919D01*
X234189Y43718D01*
X234151Y43429D01*
X238999D01*
X243847D01*
X243809Y43718D01*
X243312Y44919D01*
X242520Y45950D01*
X242431Y46018D01*
X242592Y46492D01*
X244936D01*
Y58366D01*
D02*
G37*
G36*
X84000Y48733D02*
X82982Y48599D01*
X82033Y48206D01*
X81219Y47581D01*
X80594Y46767D01*
X80201Y45818D01*
X80067Y44800D01*
X80201Y43782D01*
X80594Y42833D01*
X81219Y42019D01*
X82033Y41394D01*
X82982Y41001D01*
X84000Y40867D01*
X85018Y41001D01*
X85967Y41394D01*
X86781Y42019D01*
X87406Y42833D01*
X87799Y43782D01*
X87933Y44800D01*
X87799Y45818D01*
X87406Y46767D01*
X86781Y47581D01*
X85967Y48206D01*
X85018Y48599D01*
X84000Y48733D01*
D02*
G37*
G36*
X34000D02*
X32982Y48599D01*
X32033Y48206D01*
X31219Y47581D01*
X30594Y46767D01*
X30201Y45818D01*
X30067Y44800D01*
X30201Y43782D01*
X30594Y42833D01*
X31219Y42019D01*
X32033Y41394D01*
X32982Y41001D01*
X34000Y40867D01*
X35018Y41001D01*
X35967Y41394D01*
X36781Y42019D01*
X37406Y42833D01*
X37799Y43782D01*
X37933Y44800D01*
X37799Y45818D01*
X37406Y46767D01*
X36781Y47581D01*
X35967Y48206D01*
X35018Y48599D01*
X34000Y48733D01*
D02*
G37*
G36*
X68054Y43800D02*
X65000D01*
Y40746D01*
X65083Y40757D01*
X66093Y41175D01*
X66960Y41840D01*
X67625Y42707D01*
X68043Y43717D01*
X68054Y43800D01*
D02*
G37*
G36*
X63000D02*
X59946D01*
X59957Y43717D01*
X60375Y42707D01*
X61041Y41840D01*
X61907Y41175D01*
X62917Y40757D01*
X63000Y40746D01*
Y43800D01*
D02*
G37*
G36*
X74000Y49994D02*
X72656Y49817D01*
X71403Y49298D01*
X70327Y48473D01*
X69502Y47397D01*
X68983Y46144D01*
X68806Y44800D01*
X68983Y43456D01*
X69502Y42203D01*
X70327Y41127D01*
X71403Y40302D01*
X72656Y39783D01*
X74000Y39606D01*
X75344Y39783D01*
X76597Y40302D01*
X77673Y41127D01*
X78498Y42203D01*
X79017Y43456D01*
X79194Y44800D01*
X79017Y46144D01*
X78498Y47397D01*
X77673Y48473D01*
X76597Y49298D01*
X75344Y49817D01*
X74000Y49994D01*
D02*
G37*
G36*
X54000D02*
X52656Y49817D01*
X51403Y49298D01*
X50327Y48473D01*
X49502Y47397D01*
X48983Y46144D01*
X48806Y44800D01*
X48983Y43456D01*
X49502Y42203D01*
X50327Y41127D01*
X51403Y40302D01*
X52656Y39783D01*
X54000Y39606D01*
X55344Y39783D01*
X56597Y40302D01*
X57673Y41127D01*
X58498Y42203D01*
X59017Y43456D01*
X59194Y44800D01*
X59017Y46144D01*
X58498Y47397D01*
X57673Y48473D01*
X56597Y49298D01*
X55344Y49817D01*
X54000Y49994D01*
D02*
G37*
G36*
X783847Y41429D02*
X778999D01*
X774151D01*
X774189Y41140D01*
X774687Y39939D01*
X775478Y38908D01*
X776294Y38282D01*
X776270Y37702D01*
X776270Y37702D01*
X775685Y37389D01*
X774781Y36647D01*
X774039Y35743D01*
X773488Y34712D01*
X773148Y33593D01*
X773034Y32429D01*
X773148Y31265D01*
X773488Y30146D01*
X774039Y29115D01*
X774781Y28211D01*
X775685Y27469D01*
X776716Y26917D01*
X777836Y26578D01*
X778999Y26463D01*
X780163Y26578D01*
X781282Y26917D01*
X782314Y27469D01*
X783218Y28211D01*
X783960Y29115D01*
X784511Y30146D01*
X784850Y31265D01*
X784965Y32429D01*
X784850Y33593D01*
X784511Y34712D01*
X783960Y35743D01*
X783218Y36647D01*
X782314Y37389D01*
X781728Y37702D01*
X781728Y37702D01*
X781705Y38282D01*
X782520Y38908D01*
X783312Y39939D01*
X783809Y41140D01*
X783847Y41429D01*
D02*
G37*
G36*
X603847D02*
X598999D01*
X594151D01*
X594189Y41140D01*
X594687Y39939D01*
X595478Y38908D01*
X596294Y38282D01*
X596271Y37702D01*
X596270Y37702D01*
X595685Y37389D01*
X594781Y36647D01*
X594039Y35743D01*
X593488Y34712D01*
X593148Y33593D01*
X593034Y32429D01*
X593148Y31265D01*
X593488Y30146D01*
X594039Y29115D01*
X594781Y28211D01*
X595685Y27469D01*
X596716Y26917D01*
X597835Y26578D01*
X598999Y26463D01*
X600163Y26578D01*
X601282Y26917D01*
X602314Y27469D01*
X603218Y28211D01*
X603960Y29115D01*
X604511Y30146D01*
X604850Y31265D01*
X604965Y32429D01*
X604850Y33593D01*
X604511Y34712D01*
X603960Y35743D01*
X603218Y36647D01*
X602314Y37389D01*
X601728Y37702D01*
X601728Y37702D01*
X601705Y38282D01*
X602520Y38908D01*
X603312Y39939D01*
X603809Y41140D01*
X603847Y41429D01*
D02*
G37*
G36*
X423847Y41429D02*
X418999D01*
X414151D01*
X414189Y41140D01*
X414687Y39939D01*
X415478Y38908D01*
X416294Y38282D01*
X416270Y37702D01*
X416270Y37702D01*
X415685Y37389D01*
X414781Y36647D01*
X414039Y35743D01*
X413488Y34712D01*
X413148Y33593D01*
X413034Y32429D01*
X413148Y31265D01*
X413488Y30146D01*
X414039Y29115D01*
X414781Y28211D01*
X415685Y27469D01*
X416716Y26917D01*
X417836Y26578D01*
X418999Y26463D01*
X420163Y26578D01*
X421282Y26917D01*
X422314Y27469D01*
X423218Y28211D01*
X423960Y29115D01*
X424511Y30146D01*
X424850Y31265D01*
X424965Y32429D01*
X424850Y33593D01*
X424511Y34712D01*
X423960Y35743D01*
X423218Y36647D01*
X422314Y37389D01*
X421728Y37702D01*
X421728Y37702D01*
X421705Y38282D01*
X422520Y38908D01*
X423312Y39939D01*
X423809Y41140D01*
X423847Y41429D01*
D02*
G37*
G36*
X243847D02*
X238999D01*
X234151D01*
X234189Y41140D01*
X234687Y39939D01*
X235478Y38908D01*
X236294Y38282D01*
X236270Y37702D01*
X236270Y37702D01*
X235685Y37389D01*
X234781Y36647D01*
X234039Y35743D01*
X233488Y34712D01*
X233148Y33593D01*
X233034Y32429D01*
X233148Y31265D01*
X233488Y30146D01*
X234039Y29115D01*
X234781Y28211D01*
X235685Y27469D01*
X236716Y26917D01*
X237835Y26578D01*
X238999Y26463D01*
X240163Y26578D01*
X241282Y26917D01*
X242314Y27469D01*
X243218Y28211D01*
X243960Y29115D01*
X244511Y30146D01*
X244850Y31265D01*
X244965Y32429D01*
X244850Y33593D01*
X244511Y34712D01*
X243960Y35743D01*
X243218Y36647D01*
X242314Y37389D01*
X241728Y37702D01*
X241728Y37702D01*
X241705Y38282D01*
X242520Y38908D01*
X243312Y39939D01*
X243809Y41140D01*
X243847Y41429D01*
D02*
G37*
G36*
X621000Y11785D02*
Y1000D01*
X631785D01*
X631717Y1856D01*
X631283Y3666D01*
X630570Y5386D01*
X629598Y6973D01*
X628389Y8389D01*
X626973Y9598D01*
X625386Y10570D01*
X623666Y11283D01*
X621856Y11717D01*
X621000Y11785D01*
D02*
G37*
G36*
X619000D02*
X618144Y11717D01*
X616334Y11283D01*
X614614Y10570D01*
X613027Y9598D01*
X611611Y8389D01*
X610402Y6973D01*
X609430Y5386D01*
X608717Y3666D01*
X608283Y1856D01*
X608215Y1000D01*
X619000D01*
Y11785D01*
D02*
G37*
G36*
X441000D02*
Y1000D01*
X451785D01*
X451717Y1856D01*
X451283Y3666D01*
X450570Y5386D01*
X449598Y6973D01*
X448389Y8389D01*
X446973Y9598D01*
X445386Y10570D01*
X443666Y11283D01*
X441856Y11717D01*
X441000Y11785D01*
D02*
G37*
G36*
X439000D02*
X438144Y11717D01*
X436334Y11283D01*
X434614Y10570D01*
X433027Y9598D01*
X431611Y8389D01*
X430402Y6973D01*
X429430Y5386D01*
X428717Y3666D01*
X428283Y1856D01*
X428215Y1000D01*
X439000D01*
Y11785D01*
D02*
G37*
G36*
X265000D02*
Y1000D01*
X275785D01*
X275717Y1856D01*
X275283Y3666D01*
X274570Y5386D01*
X273598Y6973D01*
X272389Y8389D01*
X270973Y9598D01*
X269386Y10570D01*
X267666Y11283D01*
X265856Y11717D01*
X265000Y11785D01*
D02*
G37*
G36*
X263000D02*
X262144Y11717D01*
X260334Y11283D01*
X258614Y10570D01*
X257027Y9598D01*
X255611Y8389D01*
X254402Y6973D01*
X253430Y5386D01*
X252717Y3666D01*
X252283Y1856D01*
X252215Y1000D01*
X263000D01*
Y11785D01*
D02*
G37*
G36*
X1000D02*
Y1000D01*
X11785D01*
X11717Y1856D01*
X11283Y3666D01*
X10570Y5386D01*
X9598Y6973D01*
X8389Y8389D01*
X6973Y9598D01*
X5386Y10570D01*
X3666Y11283D01*
X1856Y11717D01*
X1000Y11785D01*
D02*
G37*
G36*
X-1000D02*
X-1856Y11717D01*
X-3666Y11283D01*
X-5386Y10570D01*
X-6973Y9598D01*
X-8389Y8389D01*
X-9598Y6973D01*
X-10570Y5386D01*
X-11283Y3666D01*
X-11717Y1856D01*
X-11785Y1000D01*
X-1000D01*
Y11785D01*
D02*
G37*
G36*
X651552Y11693D02*
Y909D01*
X662336D01*
X662269Y1765D01*
X661834Y3575D01*
X661122Y5295D01*
X660149Y6882D01*
X658940Y8297D01*
X657525Y9506D01*
X655937Y10479D01*
X654218Y11191D01*
X652408Y11626D01*
X651552Y11693D01*
D02*
G37*
G36*
X649552D02*
X648696Y11626D01*
X646886Y11191D01*
X645166Y10479D01*
X643578Y9506D01*
X642163Y8297D01*
X640954Y6882D01*
X639981Y5295D01*
X639269Y3575D01*
X638834Y1765D01*
X638767Y909D01*
X649552D01*
Y11693D01*
D02*
G37*
G36*
X471552D02*
Y909D01*
X482336D01*
X482269Y1765D01*
X481834Y3575D01*
X481122Y5295D01*
X480149Y6882D01*
X478940Y8297D01*
X477525Y9506D01*
X475938Y10479D01*
X474218Y11191D01*
X472407Y11626D01*
X471552Y11693D01*
D02*
G37*
G36*
X469552D02*
X468696Y11626D01*
X466886Y11191D01*
X465166Y10479D01*
X463579Y9506D01*
X462163Y8297D01*
X460954Y6882D01*
X459981Y5295D01*
X459269Y3575D01*
X458834Y1765D01*
X458767Y909D01*
X469552D01*
Y11693D01*
D02*
G37*
G36*
X291552D02*
Y909D01*
X302336D01*
X302269Y1765D01*
X301834Y3575D01*
X301122Y5295D01*
X300149Y6882D01*
X298940Y8297D01*
X297525Y9506D01*
X295937Y10479D01*
X294218Y11191D01*
X292407Y11626D01*
X291552Y11693D01*
D02*
G37*
G36*
X289552D02*
X288696Y11626D01*
X286886Y11191D01*
X285166Y10479D01*
X283578Y9506D01*
X282163Y8297D01*
X280954Y6882D01*
X279981Y5295D01*
X279269Y3575D01*
X278834Y1765D01*
X278767Y909D01*
X289552D01*
Y11693D01*
D02*
G37*
G36*
X111552D02*
Y909D01*
X122336D01*
X122269Y1765D01*
X121834Y3575D01*
X121122Y5295D01*
X120149Y6882D01*
X118940Y8297D01*
X117525Y9506D01*
X115937Y10479D01*
X114218Y11191D01*
X112408Y11626D01*
X111552Y11693D01*
D02*
G37*
G36*
X109552D02*
X108696Y11626D01*
X106886Y11191D01*
X105166Y10479D01*
X103578Y9506D01*
X102163Y8297D01*
X100954Y6882D01*
X99981Y5295D01*
X99269Y3575D01*
X98834Y1765D01*
X98767Y909D01*
X109552D01*
Y11693D01*
D02*
G37*
G36*
X60291Y5128D02*
X59430Y5015D01*
X58627Y4682D01*
X57938Y4154D01*
X57409Y3464D01*
X57076Y2661D01*
X56963Y1800D01*
X57076Y938D01*
X57409Y136D01*
X57938Y-554D01*
X58627Y-1082D01*
X59430Y-1415D01*
X60291Y-1529D01*
X61153Y-1415D01*
X61955Y-1082D01*
X62645Y-554D01*
X63174Y136D01*
X63506Y938D01*
X63620Y1800D01*
X63506Y2661D01*
X63174Y3464D01*
X62645Y4154D01*
X61955Y4682D01*
X61153Y5015D01*
X60291Y5128D01*
D02*
G37*
G36*
X48000Y4329D02*
X47139Y4215D01*
X46336Y3883D01*
X45646Y3354D01*
X45118Y2664D01*
X44785Y1861D01*
X44671Y1000D01*
X44785Y138D01*
X45118Y-664D01*
X45646Y-1354D01*
X46336Y-1883D01*
X47139Y-2215D01*
X48000Y-2328D01*
X48862Y-2215D01*
X49664Y-1883D01*
X50354Y-1354D01*
X50883Y-664D01*
X51215Y138D01*
X51328Y1000D01*
X51215Y1861D01*
X50883Y2664D01*
X50354Y3354D01*
X49664Y3883D01*
X48862Y4215D01*
X48000Y4329D01*
D02*
G37*
G36*
X85445Y4282D02*
X84583Y4169D01*
X83781Y3836D01*
X83091Y3307D01*
X82562Y2618D01*
X82230Y1815D01*
X82116Y953D01*
X82230Y92D01*
X82562Y-711D01*
X83091Y-1400D01*
X83781Y-1929D01*
X84583Y-2262D01*
X85445Y-2375D01*
X86306Y-2262D01*
X87109Y-1929D01*
X87798Y-1400D01*
X88327Y-711D01*
X88660Y92D01*
X88773Y953D01*
X88660Y1815D01*
X88327Y2618D01*
X87798Y3307D01*
X87109Y3836D01*
X86306Y4169D01*
X85445Y4282D01*
D02*
G37*
G36*
X72894Y3267D02*
X72032Y3153D01*
X71230Y2821D01*
X70540Y2292D01*
X70012Y1602D01*
X69679Y800D01*
X69565Y-62D01*
X69679Y-923D01*
X70012Y-1726D01*
X70540Y-2415D01*
X71230Y-2944D01*
X72032Y-3277D01*
X72894Y-3390D01*
X73756Y-3277D01*
X74558Y-2944D01*
X75248Y-2415D01*
X75776Y-1726D01*
X76109Y-923D01*
X76222Y-62D01*
X76109Y800D01*
X75776Y1602D01*
X75248Y2292D01*
X74558Y2821D01*
X73756Y3153D01*
X72894Y3267D01*
D02*
G37*
G36*
X451785Y-1000D02*
X441000D01*
Y-11785D01*
X441856Y-11717D01*
X443666Y-11283D01*
X445386Y-10570D01*
X446973Y-9598D01*
X448389Y-8389D01*
X449598Y-6973D01*
X450570Y-5386D01*
X451283Y-3666D01*
X451717Y-1856D01*
X451785Y-1000D01*
D02*
G37*
G36*
X439000D02*
X428215D01*
X428283Y-1856D01*
X428717Y-3666D01*
X429430Y-5386D01*
X430402Y-6973D01*
X431611Y-8389D01*
X433027Y-9598D01*
X434614Y-10570D01*
X436334Y-11283D01*
X438144Y-11717D01*
X439000Y-11785D01*
Y-1000D01*
D02*
G37*
G36*
X275785D02*
X265000D01*
Y-11785D01*
X265856Y-11717D01*
X267666Y-11283D01*
X269386Y-10570D01*
X270973Y-9598D01*
X272389Y-8389D01*
X273598Y-6973D01*
X274570Y-5386D01*
X275283Y-3666D01*
X275717Y-1856D01*
X275785Y-1000D01*
D02*
G37*
G36*
X263000D02*
X252215D01*
X252283Y-1856D01*
X252717Y-3666D01*
X253430Y-5386D01*
X254402Y-6973D01*
X255611Y-8389D01*
X257027Y-9598D01*
X258614Y-10570D01*
X260334Y-11283D01*
X262144Y-11717D01*
X263000Y-11785D01*
Y-1000D01*
D02*
G37*
G36*
X631785D02*
X621000D01*
Y-11785D01*
X621856Y-11717D01*
X623666Y-11283D01*
X625386Y-10570D01*
X626973Y-9598D01*
X628389Y-8389D01*
X629598Y-6973D01*
X630570Y-5386D01*
X631283Y-3666D01*
X631717Y-1856D01*
X631785Y-1000D01*
D02*
G37*
G36*
X619000D02*
X608215D01*
X608283Y-1856D01*
X608717Y-3666D01*
X609430Y-5386D01*
X610402Y-6973D01*
X611611Y-8389D01*
X613027Y-9598D01*
X614614Y-10570D01*
X616334Y-11283D01*
X618144Y-11717D01*
X619000Y-11785D01*
Y-1000D01*
D02*
G37*
G36*
X11785D02*
X1000D01*
Y-11785D01*
X1856Y-11717D01*
X3666Y-11283D01*
X5386Y-10570D01*
X6973Y-9598D01*
X8389Y-8389D01*
X9598Y-6973D01*
X10570Y-5386D01*
X11283Y-3666D01*
X11717Y-1856D01*
X11785Y-1000D01*
D02*
G37*
G36*
X-1000D02*
X-11785D01*
X-11717Y-1856D01*
X-11283Y-3666D01*
X-10570Y-5386D01*
X-9598Y-6973D01*
X-8389Y-8389D01*
X-6973Y-9598D01*
X-5386Y-10570D01*
X-3666Y-11283D01*
X-1856Y-11717D01*
X-1000Y-11785D01*
Y-1000D01*
D02*
G37*
G36*
X662336Y-1091D02*
X651552D01*
Y-11876D01*
X652408Y-11808D01*
X654218Y-11374D01*
X655937Y-10662D01*
X657525Y-9689D01*
X658940Y-8480D01*
X660149Y-7064D01*
X661122Y-5477D01*
X661834Y-3757D01*
X662269Y-1947D01*
X662336Y-1091D01*
D02*
G37*
G36*
X649552D02*
X638767D01*
X638834Y-1947D01*
X639269Y-3757D01*
X639981Y-5477D01*
X640954Y-7064D01*
X642163Y-8480D01*
X643578Y-9689D01*
X645166Y-10662D01*
X646886Y-11374D01*
X648696Y-11808D01*
X649552Y-11876D01*
Y-1091D01*
D02*
G37*
G36*
X482336D02*
X471552D01*
Y-11876D01*
X472407Y-11808D01*
X474218Y-11374D01*
X475938Y-10662D01*
X477525Y-9689D01*
X478940Y-8480D01*
X480149Y-7064D01*
X481122Y-5477D01*
X481834Y-3757D01*
X482269Y-1947D01*
X482336Y-1091D01*
D02*
G37*
G36*
X469552D02*
X458767D01*
X458834Y-1947D01*
X459269Y-3757D01*
X459981Y-5477D01*
X460954Y-7064D01*
X462163Y-8480D01*
X463579Y-9689D01*
X465166Y-10662D01*
X466886Y-11374D01*
X468696Y-11808D01*
X469552Y-11876D01*
Y-1091D01*
D02*
G37*
G36*
X302336D02*
X291552D01*
Y-11876D01*
X292407Y-11808D01*
X294218Y-11374D01*
X295937Y-10662D01*
X297525Y-9689D01*
X298940Y-8480D01*
X300149Y-7064D01*
X301122Y-5477D01*
X301834Y-3757D01*
X302269Y-1947D01*
X302336Y-1091D01*
D02*
G37*
G36*
X289552D02*
X278767D01*
X278834Y-1947D01*
X279269Y-3757D01*
X279981Y-5477D01*
X280954Y-7064D01*
X282163Y-8480D01*
X283578Y-9689D01*
X285166Y-10662D01*
X286886Y-11374D01*
X288696Y-11808D01*
X289552Y-11876D01*
Y-1091D01*
D02*
G37*
G36*
X122336D02*
X111552D01*
Y-11876D01*
X112408Y-11808D01*
X114218Y-11374D01*
X115937Y-10662D01*
X117525Y-9689D01*
X118940Y-8480D01*
X120149Y-7064D01*
X121122Y-5477D01*
X121834Y-3757D01*
X122269Y-1947D01*
X122336Y-1091D01*
D02*
G37*
G36*
X109552D02*
X98767D01*
X98834Y-1947D01*
X99269Y-3757D01*
X99981Y-5477D01*
X100954Y-7064D01*
X102163Y-8480D01*
X103578Y-9689D01*
X105166Y-10662D01*
X106886Y-11374D01*
X108696Y-11808D01*
X109552Y-11876D01*
Y-1091D01*
D02*
G37*
%LPD*%
G36*
X40000Y560348D02*
X38383Y558731D01*
X30000Y558731D01*
X30000Y645000D01*
X32000Y647000D01*
X40000D01*
X40000Y560348D01*
D02*
G37*
%LPC*%
G36*
X36509Y626309D02*
X35710Y626150D01*
X35031Y625697D01*
X34578Y625019D01*
X34419Y624219D01*
X34578Y623419D01*
X35031Y622741D01*
X35710Y622288D01*
X36509Y622129D01*
X37309Y622288D01*
X37987Y622741D01*
X38440Y623419D01*
X38600Y624219D01*
X38440Y625019D01*
X37987Y625697D01*
X37309Y626150D01*
X36509Y626309D01*
D02*
G37*
G36*
X36543Y620975D02*
X35743Y620816D01*
X35065Y620363D01*
X34612Y619685D01*
X34453Y618885D01*
X34612Y618085D01*
X35065Y617407D01*
X35743Y616954D01*
X36543Y616795D01*
X37343Y616954D01*
X38021Y617407D01*
X38474Y618085D01*
X38633Y618885D01*
X38474Y619685D01*
X38021Y620363D01*
X37343Y620816D01*
X36543Y620975D01*
D02*
G37*
G36*
X36883Y610104D02*
X36083Y609945D01*
X35405Y609492D01*
X34952Y608813D01*
X34793Y608014D01*
X34952Y607214D01*
X35405Y606536D01*
X36083Y606082D01*
X36883Y605923D01*
X37683Y606082D01*
X38361Y606536D01*
X38814Y607214D01*
X38973Y608014D01*
X38814Y608813D01*
X38361Y609492D01*
X37683Y609945D01*
X36883Y610104D01*
D02*
G37*
G36*
X37291Y581890D02*
X36491Y581731D01*
X35813Y581278D01*
X35360Y580600D01*
X35201Y579800D01*
X35360Y579000D01*
X35813Y578322D01*
X36491Y577869D01*
X37291Y577710D01*
X38091Y577869D01*
X38769Y578322D01*
X39222Y579000D01*
X39382Y579800D01*
X39222Y580600D01*
X38769Y581278D01*
X38091Y581731D01*
X37291Y581890D01*
D02*
G37*
G36*
X36741Y576840D02*
X35941Y576681D01*
X35263Y576228D01*
X34810Y575550D01*
X34651Y574750D01*
X34810Y573950D01*
X35263Y573272D01*
X35941Y572819D01*
X36741Y572660D01*
X37541Y572819D01*
X38219Y573272D01*
X38672Y573950D01*
X38831Y574750D01*
X38672Y575550D01*
X38219Y576228D01*
X37541Y576681D01*
X36741Y576840D01*
D02*
G37*
G36*
X1000Y651334D02*
X299Y651278D01*
X-1361Y650880D01*
X-2938Y650227D01*
X-4393Y649335D01*
X-5691Y648227D01*
X-6799Y646929D01*
X-7691Y645474D01*
X-8344Y643897D01*
X-8742Y642238D01*
X-8797Y641536D01*
X1000D01*
Y651334D01*
D02*
G37*
G36*
Y639536D02*
X-8797D01*
X-8742Y638835D01*
X-8344Y637175D01*
X-7691Y635599D01*
X-6799Y634143D01*
X-5691Y632846D01*
X-4393Y631737D01*
X-2938Y630846D01*
X-1361Y630193D01*
X299Y629794D01*
X1000Y629739D01*
Y639536D01*
D02*
G37*
G36*
X12797D02*
X3000D01*
Y629739D01*
X3701Y629794D01*
X5361Y630193D01*
X6938Y630846D01*
X8393Y631737D01*
X9691Y632846D01*
X10799Y634143D01*
X11691Y635599D01*
X12344Y637175D01*
X12742Y638835D01*
X12797Y639536D01*
D02*
G37*
G36*
X3000Y613912D02*
Y604115D01*
X12797D01*
X12742Y604816D01*
X12344Y606476D01*
X11691Y608053D01*
X10799Y609508D01*
X9691Y610806D01*
X8393Y611914D01*
X6938Y612806D01*
X5361Y613459D01*
X3701Y613857D01*
X3000Y613912D01*
D02*
G37*
G36*
X1000D02*
X299Y613857D01*
X-1361Y613459D01*
X-2938Y612806D01*
X-4393Y611914D01*
X-5691Y610806D01*
X-6799Y609508D01*
X-7691Y608053D01*
X-8344Y606476D01*
X-8742Y604816D01*
X-8797Y604115D01*
X1000D01*
Y613912D01*
D02*
G37*
G36*
Y602115D02*
X-8797D01*
X-8742Y601414D01*
X-8344Y599754D01*
X-7691Y598177D01*
X-6799Y596722D01*
X-5691Y595424D01*
X-4393Y594316D01*
X-2938Y593424D01*
X-1361Y592771D01*
X299Y592373D01*
X1000Y592318D01*
Y602115D01*
D02*
G37*
G36*
X12797D02*
X3000D01*
Y592318D01*
X3701Y592373D01*
X5361Y592771D01*
X6938Y593424D01*
X8393Y594316D01*
X9691Y595424D01*
X10799Y596722D01*
X11691Y598177D01*
X12344Y599754D01*
X12742Y601414D01*
X12797Y602115D01*
D02*
G37*
%LPD*%
D10*
X754345Y77924D02*
X758344D01*
Y80590D01*
Y84588D02*
Y81923D01*
X755678Y84588D01*
X755011D01*
X754345Y83922D01*
Y82589D01*
X755011Y81923D01*
D83*
X238999Y32429D02*
X239549Y31879D01*
X238449Y32979D02*
X238999Y32429D01*
X462698Y740307D02*
X463476D01*
X11727Y526656D02*
X32531Y547460D01*
Y561373D01*
X-1727Y526656D02*
X11727D01*
X-8000Y532929D02*
Y536895D01*
Y532929D02*
X-1727Y526656D01*
X238999Y52429D02*
X239549Y52979D01*
X418222Y32429D02*
X418999D01*
X419549Y32979D01*
X418999Y52429D02*
Y53207D01*
X2000Y738922D02*
X23291Y717631D01*
Y661828D02*
Y717631D01*
X2000Y640536D02*
X23291Y661828D01*
D92*
X779964Y472326D02*
D03*
X599964D02*
D03*
X419964D02*
D03*
X642520Y300425D02*
D03*
X462520D02*
D03*
X239964Y472326D02*
D03*
X102520Y300425D02*
D03*
X282520D02*
D03*
X103476Y730307D02*
D03*
X238999Y42429D02*
D03*
Y32429D02*
D03*
X598999Y42429D02*
D03*
X643476Y730307D02*
D03*
X283476D02*
D03*
X418999Y42429D02*
D03*
Y32429D02*
D03*
X778999Y42429D02*
D03*
X463476Y730307D02*
D03*
Y740307D02*
D03*
D93*
X238999Y52429D02*
D03*
X418999D02*
D03*
D95*
X74000Y143831D02*
D03*
X64000Y94021D02*
D03*
X74000Y195000D02*
D03*
X64000Y44800D02*
D03*
X74000Y244800D02*
D03*
D97*
X2000Y603115D02*
D03*
Y640536D02*
D03*
Y738922D02*
D03*
D98*
X-8000Y536895D02*
D03*
Y699631D02*
D03*
Y708607D02*
D03*
D102*
X180000Y385000D02*
D03*
X110000Y523800D02*
D03*
X412000Y772800D02*
D03*
X440000D02*
D03*
X592000D02*
D03*
X620000D02*
D03*
X444000Y385000D02*
D03*
X708000D02*
D03*
X650552Y-91D02*
D03*
X620000Y0D02*
D03*
X290552Y-91D02*
D03*
X264000Y0D02*
D03*
X0D02*
D03*
X772000Y772800D02*
D03*
X440000Y0D02*
D03*
X412552Y248909D02*
D03*
X772552D02*
D03*
X592552D02*
D03*
X232552D02*
D03*
X232000Y772800D02*
D03*
X264000D02*
D03*
X650000Y523800D02*
D03*
X470000D02*
D03*
X470552Y-91D02*
D03*
X110552D02*
D03*
X290000Y523800D02*
D03*
X-0Y772800D02*
D03*
D103*
X73958Y358491D02*
D03*
X135241Y418200D02*
D03*
X135169Y411483D02*
D03*
X53451Y359347D02*
D03*
X57291Y341800D02*
D03*
X122713Y377199D02*
D03*
X81453Y597962D02*
D03*
X619921Y764541D02*
D03*
X628421Y773041D02*
D03*
X611421D02*
D03*
X619921Y781541D02*
D03*
Y-8259D02*
D03*
X628421Y241D02*
D03*
X611421D02*
D03*
X619921Y8741D02*
D03*
X443922Y393741D02*
D03*
X435422Y385241D02*
D03*
X452422D02*
D03*
X443922Y376741D02*
D03*
X707922Y393741D02*
D03*
X699422Y385241D02*
D03*
X716422D02*
D03*
X707922Y376741D02*
D03*
X179921Y393741D02*
D03*
X171422Y385241D02*
D03*
X188421D02*
D03*
X179921Y376741D02*
D03*
X263921Y8741D02*
D03*
X255421Y241D02*
D03*
X272422D02*
D03*
X263921Y-8259D02*
D03*
X439922Y8741D02*
D03*
X431422Y241D02*
D03*
X448421D02*
D03*
X439922Y-8259D02*
D03*
X-78Y8741D02*
D03*
X-8579Y241D02*
D03*
X8422D02*
D03*
X-78Y-8259D02*
D03*
X439922Y781541D02*
D03*
X431422Y773041D02*
D03*
X448421D02*
D03*
X439922Y764541D02*
D03*
X263921Y781541D02*
D03*
X255421Y773041D02*
D03*
X272422D02*
D03*
X263921Y764541D02*
D03*
X-78D02*
D03*
X8422Y773041D02*
D03*
X-8579D02*
D03*
X-78Y781541D02*
D03*
X71756Y479756D02*
D03*
X135000Y484000D02*
D03*
X130000Y473000D02*
D03*
X133000Y356000D02*
D03*
X54492Y446206D02*
D03*
X36781Y613415D02*
D03*
X50000Y497000D02*
D03*
X72791Y321209D02*
D03*
X67791D02*
D03*
X62791D02*
D03*
X57791D02*
D03*
X101000Y349000D02*
D03*
X134000Y462000D02*
D03*
X139000D02*
D03*
X98000Y243000D02*
D03*
X94000D02*
D03*
X102000Y24600D02*
D03*
X98000Y24000D02*
D03*
X74237Y17854D02*
D03*
X94687Y23313D02*
D03*
X198899Y167101D02*
D03*
X102000Y139000D02*
D03*
Y243000D02*
D03*
X93000Y190000D02*
D03*
X102000D02*
D03*
X102809Y71221D02*
D03*
X93809D02*
D03*
X98809D02*
D03*
X94584Y138432D02*
D03*
X97927Y189927D02*
D03*
X98584Y138831D02*
D03*
X37341Y488537D02*
D03*
X29000Y418000D02*
D03*
X110175Y349342D02*
D03*
X141556Y390556D02*
D03*
X115291Y347291D02*
D03*
X36826Y560885D02*
D03*
X36000Y592000D02*
D03*
X37000Y644000D02*
D03*
X37291Y653800D02*
D03*
X22000Y625000D02*
D03*
Y619000D02*
D03*
X-9200Y463800D02*
D03*
Y458800D02*
D03*
X-3000Y444000D02*
D03*
X570814Y185609D02*
D03*
X565814D02*
D03*
X560814D02*
D03*
X555814D02*
D03*
X550814D02*
D03*
X545814D02*
D03*
X570814Y190609D02*
D03*
X565814D02*
D03*
X560814D02*
D03*
X555814D02*
D03*
X550814D02*
D03*
X545814D02*
D03*
X501453Y190700D02*
D03*
X506453D02*
D03*
X511453D02*
D03*
X516453D02*
D03*
X521453D02*
D03*
X526453D02*
D03*
X501453Y185700D02*
D03*
X506453D02*
D03*
X511453D02*
D03*
X516453D02*
D03*
X521453D02*
D03*
X526453D02*
D03*
X507820Y110410D02*
D03*
X513827Y110418D02*
D03*
X332425Y132900D02*
D03*
Y129900D02*
D03*
X335425Y132900D02*
D03*
Y129900D02*
D03*
X347425D02*
D03*
Y132900D02*
D03*
X338425D02*
D03*
Y129900D02*
D03*
X344425D02*
D03*
X341425D02*
D03*
X344425Y132900D02*
D03*
X341425D02*
D03*
X388795Y164000D02*
D03*
X374291Y67800D02*
D03*
X371291D02*
D03*
X368291D02*
D03*
X374291Y70800D02*
D03*
X371291D02*
D03*
X368291D02*
D03*
X37291Y705800D02*
D03*
X37402Y677305D02*
D03*
X96285Y473071D02*
D03*
X83941Y566729D02*
D03*
X102081Y487716D02*
D03*
X116659Y494800D02*
D03*
X51296Y403050D02*
D03*
X52291Y421800D02*
D03*
X156425Y132100D02*
D03*
X159425D02*
D03*
X156425Y129100D02*
D03*
X159425D02*
D03*
X153425D02*
D03*
Y132100D02*
D03*
X162425D02*
D03*
Y129100D02*
D03*
X150425D02*
D03*
Y132100D02*
D03*
X147425Y129100D02*
D03*
Y132100D02*
D03*
X185100Y67021D02*
D03*
X188100D02*
D03*
X191100D02*
D03*
X185100Y64021D02*
D03*
X188100D02*
D03*
X191100D02*
D03*
X56803Y299288D02*
D03*
X444806Y479975D02*
D03*
X21291Y466550D02*
D03*
X261291Y300800D02*
D03*
X264291Y471800D02*
D03*
X74362Y581729D02*
D03*
X73362Y633729D02*
D03*
X81291Y649800D02*
D03*
X68291Y485288D02*
D03*
X76535Y466556D02*
D03*
X101764Y446273D02*
D03*
X82079Y374587D02*
D03*
X51000Y388091D02*
D03*
X80110Y446981D02*
D03*
X122567Y423524D02*
D03*
X123331Y403839D02*
D03*
X111606Y376485D02*
D03*
X56803Y294800D02*
D03*
X84291Y300800D02*
D03*
X85039Y618729D02*
D03*
X32291Y-200D02*
D03*
X40535Y17556D02*
D03*
X50535D02*
D03*
X62535D02*
D03*
X30535Y405556D02*
D03*
X71047Y466556D02*
D03*
X63047D02*
D03*
X30535Y372044D02*
D03*
D104*
X598936Y42492D02*
X598999Y42429D01*
M02*
