G04*
G04 #@! TF.GenerationSoftware,Altium Limited,Altium Designer,19.1.8 (144)*
G04*
G04 Layer_Physical_Order=2*
G04 Layer_Color=16711680*
%FSLAX25Y25*%
%MOIN*%
G70*
G01*
G75*
%ADD12C,0.01000*%
%ADD13C,0.01500*%
%ADD46R,0.07874X0.07874*%
%ADD47C,0.07874*%
%ADD48R,0.07874X0.07874*%
%ADD49C,0.09449*%
%ADD50C,0.21654*%
%ADD51C,0.03000*%
G36*
X245480Y374674D02*
X244981Y374533D01*
X244098Y375973D01*
X242889Y377389D01*
X241473Y378598D01*
X239886Y379570D01*
X238166Y380283D01*
X236356Y380717D01*
X235000Y380824D01*
Y369000D01*
Y357176D01*
X236356Y357283D01*
X238166Y357717D01*
X239886Y358430D01*
X241473Y359402D01*
X242889Y360611D01*
X244098Y362027D01*
X244981Y363468D01*
X245480Y363327D01*
Y177037D01*
X236463D01*
Y167963D01*
X240841D01*
X240874Y167463D01*
X239711Y167310D01*
X238510Y166813D01*
X237479Y166021D01*
X236687Y164990D01*
X236190Y163789D01*
X236086Y163000D01*
X241000D01*
Y162000D01*
X236086D01*
X236190Y161211D01*
X236687Y160010D01*
X237479Y158979D01*
X238510Y158187D01*
X239711Y157690D01*
X240772Y157550D01*
Y157046D01*
X239816Y156920D01*
X238712Y156463D01*
X237764Y155736D01*
X237037Y154788D01*
X236659Y153876D01*
X233070D01*
X222376Y164570D01*
Y168394D01*
X222514Y168486D01*
X222978Y169181D01*
X223141Y170000D01*
X222978Y170819D01*
X222514Y171514D01*
X221819Y171978D01*
X221000Y172141D01*
X220181Y171978D01*
X219486Y171514D01*
X219022Y170819D01*
X218859Y170000D01*
X219022Y169181D01*
X219486Y168486D01*
X219623Y168394D01*
Y164000D01*
X219728Y163473D01*
X220027Y163027D01*
X231527Y151527D01*
X231527Y151527D01*
X231973Y151228D01*
X232500Y151123D01*
X232500Y151124D01*
X236659D01*
X237037Y150212D01*
X237764Y149264D01*
X238712Y148537D01*
X239816Y148080D01*
X241000Y147924D01*
X242184Y148080D01*
X243288Y148537D01*
X244236Y149264D01*
X244963Y150212D01*
X244981Y150254D01*
X245480Y150154D01*
Y108519D01*
X116995D01*
X116896Y109019D01*
X117886Y109430D01*
X119473Y110402D01*
X120889Y111611D01*
X122098Y113027D01*
X123070Y114614D01*
X123783Y116334D01*
X124217Y118144D01*
X124324Y119500D01*
X112500D01*
Y120000D01*
X112000D01*
Y131824D01*
X110644Y131717D01*
X108834Y131283D01*
X107114Y130570D01*
X105527Y129598D01*
X104111Y128389D01*
X102902Y126973D01*
X101930Y125386D01*
X101520Y124396D01*
X101020Y124495D01*
Y395463D01*
X109537D01*
Y404537D01*
X101020D01*
Y406913D01*
X101520Y407083D01*
X101764Y406764D01*
X102712Y406037D01*
X103816Y405580D01*
X105000Y405424D01*
X106184Y405580D01*
X107288Y406037D01*
X108236Y406764D01*
X108963Y407712D01*
X109420Y408816D01*
X109576Y410000D01*
X109420Y411184D01*
X108963Y412288D01*
X108236Y413236D01*
X107288Y413963D01*
X106184Y414420D01*
X105228Y414546D01*
Y415050D01*
X106289Y415190D01*
X107490Y415688D01*
X108521Y416479D01*
X109312Y417510D01*
X109810Y418711D01*
X109914Y419500D01*
X105000D01*
Y420500D01*
X109914D01*
X109810Y421289D01*
X109312Y422490D01*
X108521Y423521D01*
X107490Y424312D01*
X106289Y424810D01*
X105228Y424950D01*
Y425454D01*
X106184Y425580D01*
X107288Y426037D01*
X108236Y426764D01*
X108963Y427712D01*
X109420Y428816D01*
X109576Y430000D01*
X109420Y431184D01*
X108963Y432288D01*
X108236Y433236D01*
X107288Y433963D01*
X106184Y434420D01*
X105000Y434576D01*
X103816Y434420D01*
X102712Y433963D01*
X101764Y433236D01*
X101520Y432917D01*
X101020Y433087D01*
Y436913D01*
X101520Y437083D01*
X101764Y436764D01*
X102712Y436037D01*
X103816Y435580D01*
X105000Y435424D01*
X106184Y435580D01*
X107288Y436037D01*
X108236Y436764D01*
X108963Y437712D01*
X109420Y438816D01*
X109576Y440000D01*
X109420Y441184D01*
X108963Y442288D01*
X108236Y443236D01*
X107288Y443963D01*
X106184Y444420D01*
X105000Y444576D01*
X103816Y444420D01*
X102712Y443963D01*
X101764Y443236D01*
X101520Y442917D01*
X101020Y443087D01*
Y446913D01*
X101520Y447083D01*
X101764Y446764D01*
X102712Y446037D01*
X103816Y445580D01*
X105000Y445424D01*
X106184Y445580D01*
X107288Y446037D01*
X108236Y446764D01*
X108963Y447712D01*
X109420Y448816D01*
X109576Y450000D01*
X109420Y451184D01*
X108963Y452288D01*
X108236Y453236D01*
X107288Y453963D01*
X106184Y454420D01*
X105000Y454576D01*
X103816Y454420D01*
X102712Y453963D01*
X101764Y453236D01*
X101520Y452917D01*
X101020Y453087D01*
Y456913D01*
X101520Y457083D01*
X101764Y456764D01*
X102712Y456037D01*
X103816Y455580D01*
X105000Y455424D01*
X106184Y455580D01*
X107288Y456037D01*
X108236Y456764D01*
X108963Y457712D01*
X109420Y458816D01*
X109576Y460000D01*
X109420Y461184D01*
X108963Y462288D01*
X108236Y463236D01*
X107917Y463481D01*
X108087Y463980D01*
X245480D01*
Y374674D01*
D02*
G37*
%LPC*%
G36*
X192500Y453449D02*
Y451500D01*
X194449D01*
X194355Y451975D01*
X193802Y452802D01*
X192975Y453355D01*
X192500Y453449D01*
D02*
G37*
G36*
X191500D02*
X191024Y453355D01*
X190198Y452802D01*
X189645Y451975D01*
X189550Y451500D01*
X191500D01*
Y453449D01*
D02*
G37*
G36*
X194449Y450500D02*
X192500D01*
Y448551D01*
X192975Y448645D01*
X193802Y449198D01*
X194355Y450025D01*
X194449Y450500D01*
D02*
G37*
G36*
X191500D02*
X189550D01*
X189645Y450025D01*
X190198Y449198D01*
X191024Y448645D01*
X191500Y448551D01*
Y450500D01*
D02*
G37*
G36*
X228500Y420449D02*
Y418500D01*
X230450D01*
X230355Y418975D01*
X229802Y419802D01*
X228976Y420355D01*
X228500Y420449D01*
D02*
G37*
G36*
X227500D02*
X227025Y420355D01*
X226198Y419802D01*
X225645Y418975D01*
X225551Y418500D01*
X227500D01*
Y420449D01*
D02*
G37*
G36*
X230450Y417500D02*
X228500D01*
Y415551D01*
X228976Y415645D01*
X229802Y416198D01*
X230355Y417025D01*
X230450Y417500D01*
D02*
G37*
G36*
X227500D02*
X225551D01*
X225645Y417025D01*
X226198Y416198D01*
X227025Y415645D01*
X227500Y415551D01*
Y417500D01*
D02*
G37*
G36*
X208500Y412450D02*
Y410500D01*
X210450D01*
X210355Y410976D01*
X209802Y411802D01*
X208976Y412355D01*
X208500Y412450D01*
D02*
G37*
G36*
X207500D02*
X207025Y412355D01*
X206198Y411802D01*
X205645Y410976D01*
X205551Y410500D01*
X207500D01*
Y412450D01*
D02*
G37*
G36*
X210450Y409500D02*
X208500D01*
Y407550D01*
X208976Y407645D01*
X209802Y408198D01*
X210355Y409024D01*
X210450Y409500D01*
D02*
G37*
G36*
X207500D02*
X205551D01*
X205645Y409024D01*
X206198Y408198D01*
X207025Y407645D01*
X207500Y407550D01*
Y409500D01*
D02*
G37*
G36*
X141000Y421141D02*
X140181Y420978D01*
X139486Y420514D01*
X139022Y419819D01*
X138859Y419000D01*
X139022Y418181D01*
X139486Y417486D01*
X139624Y417394D01*
Y411606D01*
X139486Y411514D01*
X139022Y410819D01*
X138859Y410000D01*
X139022Y409181D01*
X139486Y408486D01*
X140181Y408022D01*
X141000Y407859D01*
X141162Y407891D01*
X154027Y395027D01*
X154473Y394728D01*
X155000Y394623D01*
X181000D01*
X181527Y394728D01*
X181973Y395027D01*
X188838Y401891D01*
X189000Y401859D01*
X189819Y402022D01*
X190514Y402486D01*
X190978Y403181D01*
X191141Y404000D01*
X190978Y404819D01*
X190514Y405514D01*
X189819Y405978D01*
X189000Y406141D01*
X188181Y405978D01*
X187486Y405514D01*
X187022Y404819D01*
X186859Y404000D01*
X186891Y403838D01*
X180430Y397376D01*
X155570D01*
X143109Y409838D01*
X143141Y410000D01*
X142978Y410819D01*
X142514Y411514D01*
X142376Y411606D01*
Y417394D01*
X142514Y417486D01*
X142978Y418181D01*
X143141Y419000D01*
X142978Y419819D01*
X142514Y420514D01*
X141819Y420978D01*
X141000Y421141D01*
D02*
G37*
G36*
X146500Y400450D02*
Y398500D01*
X148450D01*
X148355Y398975D01*
X147802Y399802D01*
X146976Y400355D01*
X146500Y400450D01*
D02*
G37*
G36*
X145500D02*
X145025Y400355D01*
X144198Y399802D01*
X143645Y398975D01*
X143551Y398500D01*
X145500D01*
Y400450D01*
D02*
G37*
G36*
X148450Y397500D02*
X146500D01*
Y395550D01*
X146976Y395645D01*
X147802Y396198D01*
X148355Y397024D01*
X148450Y397500D01*
D02*
G37*
G36*
X145500D02*
X143551D01*
X143645Y397024D01*
X144198Y396198D01*
X145025Y395645D01*
X145500Y395550D01*
Y397500D01*
D02*
G37*
G36*
X139500Y392449D02*
Y390500D01*
X141449D01*
X141355Y390975D01*
X140802Y391802D01*
X139976Y392355D01*
X139500Y392449D01*
D02*
G37*
G36*
X138500D02*
X138024Y392355D01*
X137198Y391802D01*
X136645Y390975D01*
X136550Y390500D01*
X138500D01*
Y392449D01*
D02*
G37*
G36*
X208500Y390450D02*
Y388500D01*
X210450D01*
X210355Y388976D01*
X209802Y389802D01*
X208976Y390355D01*
X208500Y390450D01*
D02*
G37*
G36*
X207500D02*
X207025Y390355D01*
X206198Y389802D01*
X205645Y388976D01*
X205551Y388500D01*
X207500D01*
Y390450D01*
D02*
G37*
G36*
X141449Y389500D02*
X139500D01*
Y387550D01*
X139976Y387645D01*
X140802Y388198D01*
X141355Y389024D01*
X141449Y389500D01*
D02*
G37*
G36*
X138500D02*
X136550D01*
X136645Y389024D01*
X137198Y388198D01*
X138024Y387645D01*
X138500Y387550D01*
Y389500D01*
D02*
G37*
G36*
X155500Y389450D02*
Y387500D01*
X157449D01*
X157355Y387976D01*
X156802Y388802D01*
X155975Y389355D01*
X155500Y389450D01*
D02*
G37*
G36*
X154500D02*
X154025Y389355D01*
X153198Y388802D01*
X152645Y387976D01*
X152550Y387500D01*
X154500D01*
Y389450D01*
D02*
G37*
G36*
X210450Y387500D02*
X208500D01*
Y385550D01*
X208976Y385645D01*
X209802Y386198D01*
X210355Y387024D01*
X210450Y387500D01*
D02*
G37*
G36*
X207500D02*
X205551D01*
X205645Y387024D01*
X206198Y386198D01*
X207025Y385645D01*
X207500Y385550D01*
Y387500D01*
D02*
G37*
G36*
X157449Y386500D02*
X155500D01*
Y384550D01*
X155975Y384645D01*
X156802Y385198D01*
X157355Y386024D01*
X157449Y386500D01*
D02*
G37*
G36*
X154500D02*
X152550D01*
X152645Y386024D01*
X153198Y385198D01*
X154025Y384645D01*
X154500Y384550D01*
Y386500D01*
D02*
G37*
G36*
X186500Y385450D02*
Y383500D01*
X188450D01*
X188355Y383976D01*
X187802Y384802D01*
X186976Y385355D01*
X186500Y385450D01*
D02*
G37*
G36*
X185500D02*
X185024Y385355D01*
X184198Y384802D01*
X183645Y383976D01*
X183551Y383500D01*
X185500D01*
Y385450D01*
D02*
G37*
G36*
X188450Y382500D02*
X186500D01*
Y380551D01*
X186976Y380645D01*
X187802Y381198D01*
X188355Y382025D01*
X188450Y382500D01*
D02*
G37*
G36*
X185500D02*
X183551D01*
X183645Y382025D01*
X184198Y381198D01*
X185024Y380645D01*
X185500Y380551D01*
Y382500D01*
D02*
G37*
G36*
X212500Y379450D02*
Y377500D01*
X214450D01*
X214355Y377976D01*
X213802Y378802D01*
X212976Y379355D01*
X212500Y379450D01*
D02*
G37*
G36*
X211500D02*
X211024Y379355D01*
X210198Y378802D01*
X209645Y377976D01*
X209550Y377500D01*
X211500D01*
Y379450D01*
D02*
G37*
G36*
X214450Y376500D02*
X212500D01*
Y374551D01*
X212976Y374645D01*
X213802Y375198D01*
X214355Y376025D01*
X214450Y376500D01*
D02*
G37*
G36*
X211500D02*
X209550D01*
X209645Y376025D01*
X210198Y375198D01*
X211024Y374645D01*
X211500Y374551D01*
Y376500D01*
D02*
G37*
G36*
X234000Y380824D02*
X232644Y380717D01*
X230834Y380283D01*
X229114Y379570D01*
X227527Y378598D01*
X226111Y377389D01*
X224902Y375973D01*
X223930Y374386D01*
X223217Y372666D01*
X222783Y370856D01*
X222676Y369500D01*
X234000D01*
Y380824D01*
D02*
G37*
G36*
X128500Y363450D02*
Y361500D01*
X130449D01*
X130355Y361975D01*
X129802Y362802D01*
X128975Y363355D01*
X128500Y363450D01*
D02*
G37*
G36*
X127500D02*
X127025Y363355D01*
X126198Y362802D01*
X125645Y361975D01*
X125550Y361500D01*
X127500D01*
Y363450D01*
D02*
G37*
G36*
X130449Y360500D02*
X128500D01*
Y358551D01*
X128975Y358645D01*
X129802Y359198D01*
X130355Y360024D01*
X130449Y360500D01*
D02*
G37*
G36*
X127500D02*
X125550D01*
X125645Y360024D01*
X126198Y359198D01*
X127025Y358645D01*
X127500Y358551D01*
Y360500D01*
D02*
G37*
G36*
X234000Y368500D02*
X222676D01*
X222783Y367144D01*
X223217Y365334D01*
X223930Y363614D01*
X224902Y362027D01*
X226111Y360611D01*
X227527Y359402D01*
X229114Y358430D01*
X230834Y357717D01*
X232644Y357283D01*
X234000Y357176D01*
Y368500D01*
D02*
G37*
G36*
X141942Y356891D02*
Y354942D01*
X143891D01*
X143797Y355417D01*
X143244Y356244D01*
X142417Y356797D01*
X141942Y356891D01*
D02*
G37*
G36*
X140942D02*
X140466Y356797D01*
X139639Y356244D01*
X139087Y355417D01*
X138992Y354942D01*
X140942D01*
Y356891D01*
D02*
G37*
G36*
X143891Y353942D02*
X141942D01*
Y351992D01*
X142417Y352087D01*
X143244Y352640D01*
X143797Y353466D01*
X143891Y353942D01*
D02*
G37*
G36*
X140942D02*
X138992D01*
X139087Y353466D01*
X139639Y352640D01*
X140466Y352087D01*
X140942Y351992D01*
Y353942D01*
D02*
G37*
G36*
X164500Y351449D02*
Y349500D01*
X166449D01*
X166355Y349975D01*
X165802Y350802D01*
X164976Y351355D01*
X164500Y351449D01*
D02*
G37*
G36*
X163500D02*
X163024Y351355D01*
X162198Y350802D01*
X161645Y349975D01*
X161550Y349500D01*
X163500D01*
Y351449D01*
D02*
G37*
G36*
X154500D02*
Y349500D01*
X156449D01*
X156355Y349975D01*
X155802Y350802D01*
X154975Y351355D01*
X154500Y351449D01*
D02*
G37*
G36*
X153500D02*
X153024Y351355D01*
X152198Y350802D01*
X151645Y349975D01*
X151550Y349500D01*
X153500D01*
Y351449D01*
D02*
G37*
G36*
X166449Y348500D02*
X164500D01*
Y346550D01*
X164976Y346645D01*
X165802Y347198D01*
X166355Y348025D01*
X166449Y348500D01*
D02*
G37*
G36*
X163500D02*
X161550D01*
X161645Y348025D01*
X162198Y347198D01*
X163024Y346645D01*
X163500Y346550D01*
Y348500D01*
D02*
G37*
G36*
X156449D02*
X154500D01*
Y346550D01*
X154975Y346645D01*
X155802Y347198D01*
X156355Y348025D01*
X156449Y348500D01*
D02*
G37*
G36*
X153500D02*
X151550D01*
X151645Y348025D01*
X152198Y347198D01*
X153024Y346645D01*
X153500Y346550D01*
Y348500D01*
D02*
G37*
G36*
X221500Y348449D02*
Y346500D01*
X223449D01*
X223355Y346975D01*
X222802Y347802D01*
X221975Y348355D01*
X221500Y348449D01*
D02*
G37*
G36*
X220500D02*
X220024Y348355D01*
X219198Y347802D01*
X218645Y346975D01*
X218550Y346500D01*
X220500D01*
Y348449D01*
D02*
G37*
G36*
X223449Y345500D02*
X221500D01*
Y343550D01*
X221975Y343645D01*
X222802Y344198D01*
X223355Y345024D01*
X223449Y345500D01*
D02*
G37*
G36*
X220500D02*
X218550D01*
X218645Y345024D01*
X219198Y344198D01*
X220024Y343645D01*
X220500Y343550D01*
Y345500D01*
D02*
G37*
G36*
X219683Y334450D02*
Y332500D01*
X221633D01*
X221538Y332976D01*
X220986Y333802D01*
X220159Y334355D01*
X219683Y334450D01*
D02*
G37*
G36*
X218683D02*
X218208Y334355D01*
X217381Y333802D01*
X216828Y332976D01*
X216734Y332500D01*
X218683D01*
Y334450D01*
D02*
G37*
G36*
X229500Y332450D02*
Y330500D01*
X231450D01*
X231355Y330976D01*
X230802Y331802D01*
X229976Y332355D01*
X229500Y332450D01*
D02*
G37*
G36*
X228500D02*
X228025Y332355D01*
X227198Y331802D01*
X226645Y330976D01*
X226551Y330500D01*
X228500D01*
Y332450D01*
D02*
G37*
G36*
X221633Y331500D02*
X219683D01*
Y329551D01*
X220159Y329645D01*
X220986Y330198D01*
X221538Y331025D01*
X221633Y331500D01*
D02*
G37*
G36*
X218683D02*
X216734D01*
X216828Y331025D01*
X217381Y330198D01*
X218208Y329645D01*
X218683Y329551D01*
Y331500D01*
D02*
G37*
G36*
X231450Y329500D02*
X229500D01*
Y327551D01*
X229976Y327645D01*
X230802Y328198D01*
X231355Y329025D01*
X231450Y329500D01*
D02*
G37*
G36*
X228500D02*
X226551D01*
X226645Y329025D01*
X227198Y328198D01*
X228025Y327645D01*
X228500Y327551D01*
Y329500D01*
D02*
G37*
G36*
X107500Y329450D02*
Y327500D01*
X109450D01*
X109355Y327976D01*
X108802Y328802D01*
X107975Y329355D01*
X107500Y329450D01*
D02*
G37*
G36*
X106500D02*
X106025Y329355D01*
X105198Y328802D01*
X104645Y327976D01*
X104551Y327500D01*
X106500D01*
Y329450D01*
D02*
G37*
G36*
X147500Y327449D02*
Y325500D01*
X149450D01*
X149355Y325975D01*
X148802Y326802D01*
X147976Y327355D01*
X147500Y327449D01*
D02*
G37*
G36*
X146500D02*
X146025Y327355D01*
X145198Y326802D01*
X144645Y325975D01*
X144551Y325500D01*
X146500D01*
Y327449D01*
D02*
G37*
G36*
X109450Y326500D02*
X107500D01*
Y324551D01*
X107975Y324645D01*
X108802Y325198D01*
X109355Y326025D01*
X109450Y326500D01*
D02*
G37*
G36*
X106500D02*
X104551D01*
X104645Y326025D01*
X105198Y325198D01*
X106025Y324645D01*
X106500Y324551D01*
Y326500D01*
D02*
G37*
G36*
X149450Y324500D02*
X147500D01*
Y322551D01*
X147976Y322645D01*
X148802Y323198D01*
X149355Y324025D01*
X149450Y324500D01*
D02*
G37*
G36*
X146500D02*
X144551D01*
X144645Y324025D01*
X145198Y323198D01*
X146025Y322645D01*
X146500Y322551D01*
Y324500D01*
D02*
G37*
G36*
X169367Y333774D02*
X168547Y333611D01*
X167853Y333147D01*
X167389Y332453D01*
X167226Y331633D01*
X167389Y330814D01*
X167853Y330119D01*
X168547Y329655D01*
X169367Y329492D01*
X169830Y329584D01*
X175878Y323535D01*
Y314776D01*
X175486Y314514D01*
X175224Y314122D01*
X172776D01*
X172514Y314514D01*
X171819Y314978D01*
X171000Y315141D01*
X170181Y314978D01*
X169486Y314514D01*
X169022Y313819D01*
X168859Y313000D01*
X169022Y312181D01*
X169486Y311486D01*
X170181Y311022D01*
X171000Y310859D01*
X171819Y311022D01*
X172514Y311486D01*
X172776Y311878D01*
X175224D01*
X175486Y311486D01*
X176181Y311022D01*
X177000Y310859D01*
X177819Y311022D01*
X178514Y311486D01*
X178978Y312181D01*
X179141Y313000D01*
X178978Y313819D01*
X178514Y314514D01*
X178122Y314776D01*
Y324000D01*
X178122Y324000D01*
X178036Y324429D01*
X177793Y324793D01*
X171416Y331170D01*
X171508Y331633D01*
X171345Y332453D01*
X170881Y333147D01*
X170186Y333611D01*
X169367Y333774D01*
D02*
G37*
G36*
X203500Y303450D02*
Y301500D01*
X205450D01*
X205355Y301975D01*
X204802Y302802D01*
X203976Y303355D01*
X203500Y303450D01*
D02*
G37*
G36*
X202500D02*
X202025Y303355D01*
X201198Y302802D01*
X200645Y301975D01*
X200551Y301500D01*
X202500D01*
Y303450D01*
D02*
G37*
G36*
X205450Y300500D02*
X203500D01*
Y298551D01*
X203976Y298645D01*
X204802Y299198D01*
X205355Y300025D01*
X205450Y300500D01*
D02*
G37*
G36*
X202500D02*
X200551D01*
X200645Y300025D01*
X201198Y299198D01*
X202025Y298645D01*
X202500Y298551D01*
Y300500D01*
D02*
G37*
G36*
X159500Y292449D02*
Y290500D01*
X161450D01*
X161355Y290975D01*
X160802Y291802D01*
X159976Y292355D01*
X159500Y292449D01*
D02*
G37*
G36*
X158500D02*
X158025Y292355D01*
X157198Y291802D01*
X156645Y290975D01*
X156551Y290500D01*
X158500D01*
Y292449D01*
D02*
G37*
G36*
X161450Y289500D02*
X159500D01*
Y287550D01*
X159976Y287645D01*
X160802Y288198D01*
X161355Y289024D01*
X161450Y289500D01*
D02*
G37*
G36*
X158500D02*
X156551D01*
X156645Y289024D01*
X157198Y288198D01*
X158025Y287645D01*
X158500Y287550D01*
Y289500D01*
D02*
G37*
G36*
X175000Y292141D02*
X174181Y291978D01*
X173486Y291514D01*
X173022Y290819D01*
X172859Y290000D01*
X173022Y289181D01*
X173486Y288486D01*
X173878Y288224D01*
Y285465D01*
X166963Y278549D01*
X166500Y278641D01*
X165681Y278478D01*
X164986Y278014D01*
X164522Y277320D01*
X164359Y276500D01*
X164522Y275681D01*
X164986Y274986D01*
X165681Y274522D01*
X166500Y274359D01*
X167319Y274522D01*
X168014Y274986D01*
X168478Y275681D01*
X168641Y276500D01*
X168549Y276963D01*
X175793Y284207D01*
X175793Y284207D01*
X176036Y284571D01*
X176122Y285000D01*
Y288224D01*
X176514Y288486D01*
X176978Y289181D01*
X177141Y290000D01*
X176978Y290819D01*
X176514Y291514D01*
X175819Y291978D01*
X175000Y292141D01*
D02*
G37*
G36*
X168000D02*
X167181Y291978D01*
X166486Y291514D01*
X166022Y290819D01*
X165859Y290000D01*
X166022Y289181D01*
X166486Y288486D01*
X166878Y288224D01*
Y285465D01*
X160621Y279207D01*
X160378Y278843D01*
X160293Y278414D01*
X160293Y278414D01*
Y273929D01*
X160293Y273929D01*
X160378Y273500D01*
X160621Y273136D01*
X163049Y270708D01*
X163049Y270708D01*
X163413Y270465D01*
X163842Y270379D01*
X169725D01*
X169987Y269987D01*
X170682Y269523D01*
X171501Y269360D01*
X172320Y269523D01*
X173015Y269987D01*
X173479Y270682D01*
X173642Y271501D01*
X173479Y272320D01*
X173015Y273015D01*
X172320Y273479D01*
X171501Y273642D01*
X170682Y273479D01*
X169987Y273015D01*
X169725Y272622D01*
X164307D01*
X162536Y274394D01*
Y277950D01*
X168793Y284207D01*
X168793Y284207D01*
X169036Y284571D01*
X169122Y285000D01*
Y288224D01*
X169514Y288486D01*
X169978Y289181D01*
X170141Y290000D01*
X169978Y290819D01*
X169514Y291514D01*
X168819Y291978D01*
X168000Y292141D01*
D02*
G37*
G36*
X235537Y276537D02*
X226463D01*
Y267463D01*
X235537D01*
Y276537D01*
D02*
G37*
G36*
X231000Y256891D02*
X229816Y256735D01*
X228712Y256278D01*
X227764Y255551D01*
X227037Y254603D01*
X226580Y253499D01*
X226424Y252315D01*
X226580Y251131D01*
X227037Y250027D01*
X227764Y249079D01*
X228712Y248352D01*
X229816Y247895D01*
X231000Y247739D01*
X232184Y247895D01*
X233288Y248352D01*
X234236Y249079D01*
X234963Y250027D01*
X235420Y251131D01*
X235576Y252315D01*
X235420Y253499D01*
X234963Y254603D01*
X234236Y255551D01*
X233288Y256278D01*
X232184Y256735D01*
X231000Y256891D01*
D02*
G37*
G36*
X111500Y207450D02*
Y205500D01*
X113450D01*
X113355Y205976D01*
X112802Y206802D01*
X111976Y207355D01*
X111500Y207450D01*
D02*
G37*
G36*
X110500D02*
X110024Y207355D01*
X109198Y206802D01*
X108645Y205976D01*
X108551Y205500D01*
X110500D01*
Y207450D01*
D02*
G37*
G36*
X185573Y207693D02*
X184183Y207510D01*
X182888Y206974D01*
X181775Y206120D01*
X180922Y205008D01*
X180385Y203713D01*
X180350Y203444D01*
X166150D01*
X166114Y203713D01*
X165578Y205008D01*
X164725Y206120D01*
X163612Y206974D01*
X162317Y207510D01*
X160927Y207693D01*
X159537Y207510D01*
X158242Y206974D01*
X157130Y206120D01*
X156276Y205008D01*
X155740Y203713D01*
X155557Y202323D01*
X155740Y200933D01*
X156276Y199638D01*
X157130Y198525D01*
X158242Y197672D01*
X159537Y197135D01*
X159806Y197100D01*
Y182900D01*
X159537Y182864D01*
X158242Y182328D01*
X157130Y181475D01*
X156276Y180362D01*
X155740Y179067D01*
X155557Y177677D01*
X155740Y176287D01*
X156276Y174992D01*
X157130Y173880D01*
X158242Y173026D01*
X159537Y172490D01*
X160927Y172307D01*
X162317Y172490D01*
X163612Y173026D01*
X164725Y173880D01*
X165578Y174992D01*
X166114Y176287D01*
X166297Y177677D01*
X166114Y179067D01*
X165578Y180362D01*
X164725Y181475D01*
X163612Y182328D01*
X162317Y182864D01*
X162049Y182900D01*
Y197100D01*
X162317Y197135D01*
X163612Y197672D01*
X164725Y198525D01*
X165578Y199638D01*
X166114Y200933D01*
X166150Y201201D01*
X180350D01*
X180385Y200933D01*
X180922Y199638D01*
X181775Y198525D01*
X182888Y197672D01*
X184183Y197135D01*
X185573Y196952D01*
X186963Y197135D01*
X188258Y197672D01*
X189370Y198525D01*
X190224Y199638D01*
X190760Y200933D01*
X190943Y202323D01*
X190760Y203713D01*
X190224Y205008D01*
X189370Y206120D01*
X188258Y206974D01*
X186963Y207510D01*
X185573Y207693D01*
D02*
G37*
G36*
X113450Y204500D02*
X111500D01*
Y202551D01*
X111976Y202645D01*
X112802Y203198D01*
X113355Y204025D01*
X113450Y204500D01*
D02*
G37*
G36*
X110500D02*
X108551D01*
X108645Y204025D01*
X109198Y203198D01*
X110024Y202645D01*
X110500Y202551D01*
Y204500D01*
D02*
G37*
G36*
X177787Y194537D02*
X168713D01*
Y185463D01*
X177787D01*
Y194537D01*
D02*
G37*
G36*
X131500Y178449D02*
Y176500D01*
X133449D01*
X133355Y176976D01*
X132802Y177802D01*
X131975Y178355D01*
X131500Y178449D01*
D02*
G37*
G36*
X130500D02*
X130025Y178355D01*
X129198Y177802D01*
X128645Y176976D01*
X128551Y176500D01*
X130500D01*
Y178449D01*
D02*
G37*
G36*
X133449Y175500D02*
X131500D01*
Y173550D01*
X131975Y173645D01*
X132802Y174198D01*
X133355Y175024D01*
X133449Y175500D01*
D02*
G37*
G36*
X130500D02*
X128551D01*
X128645Y175024D01*
X129198Y174198D01*
X130025Y173645D01*
X130500Y173550D01*
Y175500D01*
D02*
G37*
G36*
X185573Y183047D02*
X184183Y182864D01*
X182888Y182328D01*
X181775Y181475D01*
X180922Y180362D01*
X180385Y179067D01*
X180202Y177677D01*
X180385Y176287D01*
X180922Y174992D01*
X181775Y173880D01*
X182888Y173026D01*
X184183Y172490D01*
X185573Y172307D01*
X186963Y172490D01*
X188258Y173026D01*
X189370Y173880D01*
X190224Y174992D01*
X190760Y176287D01*
X190943Y177677D01*
X190760Y179067D01*
X190224Y180362D01*
X189370Y181475D01*
X188258Y182328D01*
X186963Y182864D01*
X185573Y183047D01*
D02*
G37*
G36*
X233000Y139076D02*
X231816Y138920D01*
X230712Y138463D01*
X229764Y137736D01*
X229037Y136788D01*
X228580Y135684D01*
X228424Y134500D01*
X228580Y133316D01*
X229037Y132212D01*
X229764Y131264D01*
X230712Y130537D01*
X231816Y130080D01*
X232731Y129959D01*
X232772Y129954D01*
Y129450D01*
X232731Y129444D01*
X231711Y129310D01*
X230510Y128813D01*
X229479Y128021D01*
X228688Y126990D01*
X228190Y125789D01*
X228086Y125000D01*
X233000D01*
X237914D01*
X237810Y125789D01*
X237313Y126990D01*
X236521Y128021D01*
X235490Y128813D01*
X234289Y129310D01*
X233270Y129444D01*
X233228Y129450D01*
Y129954D01*
X233270Y129959D01*
X234184Y130080D01*
X235288Y130537D01*
X236236Y131264D01*
X236963Y132212D01*
X237420Y133316D01*
X237576Y134500D01*
X237420Y135684D01*
X236963Y136788D01*
X236236Y137736D01*
X235288Y138463D01*
X234184Y138920D01*
X233000Y139076D01*
D02*
G37*
G36*
X113000Y131824D02*
Y120500D01*
X124324D01*
X124217Y121856D01*
X123783Y123666D01*
X123070Y125386D01*
X122098Y126973D01*
X120889Y128389D01*
X119473Y129598D01*
X117886Y130570D01*
X116166Y131283D01*
X114356Y131717D01*
X113000Y131824D01*
D02*
G37*
G36*
X237914Y124000D02*
X233000D01*
X228086D01*
X228190Y123211D01*
X228688Y122010D01*
X229479Y120979D01*
X230510Y120187D01*
X231711Y119690D01*
X232731Y119556D01*
X232772Y119550D01*
Y119046D01*
X232731Y119041D01*
X231816Y118920D01*
X230712Y118463D01*
X229764Y117736D01*
X229037Y116788D01*
X228580Y115684D01*
X228424Y114500D01*
X228580Y113316D01*
X229037Y112212D01*
X229764Y111264D01*
X230712Y110537D01*
X231816Y110080D01*
X233000Y109924D01*
X234184Y110080D01*
X235288Y110537D01*
X236236Y111264D01*
X236963Y112212D01*
X237420Y113316D01*
X237576Y114500D01*
X237420Y115684D01*
X236963Y116788D01*
X236236Y117736D01*
X235288Y118463D01*
X234184Y118920D01*
X233270Y119041D01*
X233228Y119046D01*
Y119550D01*
X233270Y119556D01*
X234289Y119690D01*
X235490Y120187D01*
X236521Y120979D01*
X237313Y122010D01*
X237810Y123211D01*
X237914Y124000D01*
D02*
G37*
%LPD*%
D12*
X177000Y313000D02*
Y324000D01*
X169367Y331633D02*
X177000Y324000D01*
X171000Y313000D02*
X177000D01*
X160927Y202323D02*
X185573D01*
X160927Y177677D02*
Y202323D01*
X161414Y273929D02*
Y278414D01*
Y273929D02*
X163842Y271501D01*
X161414Y278414D02*
X168000Y285000D01*
X163842Y271501D02*
X171501D01*
X175000Y285000D02*
Y290000D01*
X166500Y276500D02*
X175000Y285000D01*
X168000Y285000D02*
Y290000D01*
D13*
X141000Y410000D02*
Y419000D01*
X181000Y396000D02*
X189000Y404000D01*
X155000Y396000D02*
X181000D01*
X141000Y410000D02*
X155000Y396000D01*
X232500Y152500D02*
X241000D01*
X221000Y164000D02*
X232500Y152500D01*
X221000Y164000D02*
Y170000D01*
D46*
X231000Y272000D02*
D03*
X241000Y172500D02*
D03*
X105000Y400000D02*
D03*
D47*
X231000Y252315D02*
D03*
X241000Y162500D02*
D03*
Y152500D02*
D03*
X105000Y450000D02*
D03*
Y430000D02*
D03*
Y440000D02*
D03*
Y420000D02*
D03*
Y410000D02*
D03*
Y460000D02*
D03*
X233000Y114500D02*
D03*
Y124500D02*
D03*
Y134500D02*
D03*
D48*
X173250Y190000D02*
D03*
D49*
X160927Y202323D02*
D03*
X185573D02*
D03*
Y177677D02*
D03*
X160927D02*
D03*
D50*
X234500Y369000D02*
D03*
X112500Y120000D02*
D03*
D51*
X186000Y383000D02*
D03*
X164000Y349000D02*
D03*
X154000D02*
D03*
X141000Y419000D02*
D03*
X189000Y404000D02*
D03*
X221000Y170000D02*
D03*
X192000Y451000D02*
D03*
X141000Y410000D02*
D03*
X146000Y398000D02*
D03*
X141442Y354442D02*
D03*
X228000Y418000D02*
D03*
X208000Y410000D02*
D03*
Y388000D02*
D03*
X212000Y377000D02*
D03*
X229000Y330000D02*
D03*
X203000Y301000D02*
D03*
X128000Y361000D02*
D03*
X139000Y390000D02*
D03*
X155000Y387000D02*
D03*
X107000Y327000D02*
D03*
X177000Y313000D02*
D03*
X169367Y331633D02*
D03*
X171000Y313000D02*
D03*
X219183Y332000D02*
D03*
X221000Y346000D02*
D03*
X111000Y205000D02*
D03*
X131000Y176000D02*
D03*
X166500Y276500D02*
D03*
X171501Y271501D02*
D03*
X159000Y290000D02*
D03*
X175000D02*
D03*
X168000D02*
D03*
X147000Y325000D02*
D03*
M02*
