M48
;Layer_Color=9474304
;FILE_FORMAT=2:5
INCH,LZ
;TYPE=PLATED
T1F00S00C0.01500
T2F00S00C0.04331
T3F00S00C0.05118
T4F00S00C0.05512
T5F00S00C0.12992
%
T01
X0221Y017
X0203Y0301
X0175Y029
X0168
X0159
X01665Y02765
X0171501Y0271501
X0111Y0205
X0131Y0176
X0147Y0325
X0154Y0349
X0141442Y0354442
X0128Y0361
X0139Y039
X0146Y0398
X0141Y041
Y0419
X0155Y0387
X0107Y0327
X0169367Y0331633
X0171Y0313
X0177
X0164Y0349
X0186Y0383
X0189Y0404
X0208Y041
Y0388
X0212Y0377
X0221Y0346
X0219183Y0332
X0229Y033
X0228Y0418
X0192Y0451
T02
X0233Y01145
Y01245
Y01345
X0241Y01525
Y01625
Y01725
X017325Y019
X0105Y04
Y041
Y042
Y043
Y044
Y045
Y046
T03
X0231Y0252315
Y0272
T04
X0160927Y0177677
Y0202323
X0185573
Y0177677
T05
X01125Y012
X02345Y0369
M30
