G04*
G04 #@! TF.GenerationSoftware,Altium Limited,Altium Designer,19.1.8 (144)*
G04*
G04 Layer_Color=65535*
%FSLAX25Y25*%
%MOIN*%
G70*
G01*
G75*
%ADD10C,0.00984*%
%ADD11C,0.02362*%
%ADD12C,0.01000*%
%ADD13C,0.00800*%
%ADD14C,0.00787*%
%ADD15C,0.01200*%
%ADD16C,0.01500*%
%ADD17C,0.01300*%
%ADD18C,0.03000*%
G36*
X186500Y122230D02*
Y109000D01*
X128000D01*
Y122230D01*
D01*
Y134000D01*
X186500D01*
Y122230D01*
D02*
G37*
%LPC*%
G36*
X180158Y129677D02*
X180121D01*
D01*
X180158D01*
D02*
G37*
G36*
X159587D02*
X156358Y129677D01*
X156754Y129677D01*
X156688Y129671D01*
X156628Y129665D01*
X156574Y129653D01*
X156538Y129641D01*
X156502Y129622D01*
X156478Y129611D01*
X156466Y129604D01*
X156460Y129598D01*
X156424Y129568D01*
X156400Y129538D01*
X156382Y129502D01*
X156369Y129472D01*
X156363Y129442D01*
X156358Y129418D01*
Y129418D01*
Y125548D01*
Y129394D01*
X156369Y129322D01*
X156394Y129256D01*
X156424Y129208D01*
X156466Y129172D01*
X156502Y129142D01*
X156538Y129118D01*
X156562Y129112D01*
X156568Y129106D01*
X156628Y129088D01*
X156676Y129070D01*
X156712Y129058D01*
X156736Y129046D01*
X156754Y129040D01*
X156766D01*
X156772Y129034D01*
X156796Y129022D01*
X156814Y128998D01*
X156832Y128980D01*
X156838Y128973D01*
X156862Y128937D01*
X156874Y128895D01*
X156898Y128805D01*
Y128769D01*
X156904Y128733D01*
Y128709D01*
Y128703D01*
Y123348D01*
Y123282D01*
X156892Y123222D01*
X156886Y123174D01*
X156874Y123138D01*
X156862Y123108D01*
X156850Y123090D01*
X156844Y123078D01*
X156838Y123072D01*
X156814Y123042D01*
X156790Y123024D01*
X156778Y123012D01*
X156772D01*
X156754Y123005D01*
X156730Y122994D01*
X156700Y122982D01*
X156664Y122969D01*
X156628Y122957D01*
X156598Y122951D01*
X156574Y122939D01*
X156568D01*
X156496Y122909D01*
X156448Y122861D01*
X156412Y122819D01*
X156382Y122771D01*
X156369Y122723D01*
X156363Y122687D01*
X156358Y122663D01*
Y122663D01*
Y122651D01*
X156363Y122603D01*
X156376Y122561D01*
X156388Y122531D01*
X156412Y122501D01*
X156430Y122477D01*
X156442Y122459D01*
X156454Y122453D01*
X156460Y122447D01*
X156502Y122423D01*
X156550Y122405D01*
X156646Y122387D01*
X156688Y122380D01*
X156724Y122374D01*
X159549D01*
X159615Y122387D01*
X159675Y122392D01*
X159717Y122405D01*
X159753Y122416D01*
X159777Y122423D01*
X159789Y122435D01*
X159795D01*
X159843Y122471D01*
X159879Y122507D01*
X159903Y122543D01*
X159922Y122579D01*
X159933Y122615D01*
X159940Y122639D01*
Y122657D01*
Y122663D01*
Y122705D01*
X159927Y122741D01*
X159897Y122807D01*
X159855Y122861D01*
X159813Y122897D01*
X159765Y122927D01*
X159723Y122945D01*
X159693Y122957D01*
X159681D01*
X159609Y122976D01*
X159555Y122987D01*
X159513Y123000D01*
X159477Y123005D01*
X159459Y123012D01*
X159447Y123018D01*
X159435D01*
X159405Y123036D01*
X159380Y123060D01*
X159362Y123084D01*
X159356Y123090D01*
X159333Y123126D01*
X159314Y123174D01*
X159290Y123276D01*
X159284Y123318D01*
X159278Y123354D01*
Y123378D01*
Y123390D01*
Y129677D01*
X159587D01*
D02*
G37*
G36*
X139974Y129677D02*
X136885D01*
X137282D01*
X137216Y129671D01*
X137156Y129665D01*
X137101Y129653D01*
X137065Y129641D01*
X137029Y129622D01*
X137005Y129611D01*
X136993Y129604D01*
X136987Y129598D01*
X136951Y129568D01*
X136927Y129538D01*
X136909Y129502D01*
X136897Y129472D01*
X136891Y129442D01*
X136885Y129418D01*
D01*
Y122651D01*
X136891Y122603D01*
X136903Y122561D01*
X136915Y122531D01*
X136939Y122501D01*
X136957Y122477D01*
X136969Y122459D01*
X136981Y122453D01*
X136987Y122447D01*
X137029Y122423D01*
X137077Y122405D01*
X137174Y122387D01*
X137216Y122380D01*
X137252Y122374D01*
X136885D01*
X142510D01*
Y124340D01*
X142499Y124400D01*
X142492Y124454D01*
X142480Y124496D01*
X142468Y124526D01*
X142462Y124550D01*
X142450Y124562D01*
Y124568D01*
X142426Y124598D01*
X142390Y124622D01*
X142360Y124634D01*
X142324Y124646D01*
X142288Y124652D01*
X142264Y124658D01*
X142198D01*
X142162Y124646D01*
X142108Y124628D01*
X142072Y124604D01*
X142066Y124598D01*
X142060Y124592D01*
X142036Y124568D01*
X142018Y124532D01*
X141976Y124454D01*
X141964Y124418D01*
X141952Y124394D01*
X141939Y124370D01*
Y124364D01*
X141892Y124238D01*
X141849Y124129D01*
X141807Y124033D01*
X141765Y123949D01*
X141729Y123883D01*
X141705Y123841D01*
X141687Y123811D01*
X141681Y123799D01*
X141627Y123721D01*
X141567Y123649D01*
X141507Y123576D01*
X141447Y123516D01*
X141393Y123462D01*
X141350Y123426D01*
X141326Y123402D01*
X141314Y123390D01*
X141230Y123324D01*
X141146Y123264D01*
X141068Y123216D01*
X141002Y123174D01*
X140942Y123144D01*
X140900Y123120D01*
X140870Y123108D01*
X140858Y123102D01*
X140768Y123066D01*
X140671Y123036D01*
X140575Y123012D01*
X140485Y122994D01*
X140407Y122976D01*
X140347Y122963D01*
X140323Y122957D01*
X140305Y122951D01*
X140287D01*
Y122374D01*
X139806D01*
Y129677D01*
X139974D01*
D02*
G37*
G36*
X149416Y129334D02*
Y129322D01*
D01*
Y129334D01*
D02*
G37*
G36*
Y129208D02*
D01*
D01*
D01*
D02*
G37*
G36*
Y129160D02*
Y129154D01*
D01*
Y129160D01*
D02*
G37*
G36*
Y129112D02*
Y129106D01*
D01*
Y129112D01*
D02*
G37*
G36*
Y129106D02*
Y129100D01*
D01*
Y129106D01*
D02*
G37*
G36*
Y129088D02*
D01*
D01*
D01*
D02*
G37*
G36*
Y129046D02*
D01*
D01*
D01*
D02*
G37*
G36*
Y128979D02*
Y128973D01*
D01*
Y128979D01*
D02*
G37*
G36*
Y128973D02*
Y128967D01*
D01*
Y128973D01*
D02*
G37*
G36*
Y128961D02*
D01*
D01*
D01*
D02*
G37*
G36*
Y128853D02*
Y128847D01*
D01*
Y128853D01*
D02*
G37*
G36*
Y128799D02*
D01*
D01*
D01*
D02*
G37*
G36*
Y128763D02*
Y128751D01*
D01*
Y128763D01*
D02*
G37*
G36*
Y128445D02*
D01*
D01*
D01*
D02*
G37*
G36*
Y128409D02*
Y128378D01*
D01*
Y128409D01*
D02*
G37*
G36*
Y128354D02*
Y128336D01*
D01*
Y128354D01*
D02*
G37*
G36*
Y128264D02*
Y128252D01*
D01*
Y128264D01*
D02*
G37*
G36*
Y128060D02*
D01*
D01*
D01*
D02*
G37*
G36*
Y127802D02*
Y127777D01*
D01*
Y127802D01*
D02*
G37*
G36*
Y127741D02*
D01*
D01*
D01*
D02*
G37*
G36*
Y127687D02*
Y127669D01*
D01*
Y127687D01*
D02*
G37*
G36*
Y127603D02*
D01*
D01*
D01*
D02*
G37*
G36*
Y127525D02*
Y127513D01*
D01*
Y127525D01*
D02*
G37*
G36*
Y127471D02*
D01*
D01*
D01*
D02*
G37*
G36*
X155480Y129677D02*
X153323D01*
Y129046D01*
X153437Y129034D01*
X153545Y129009D01*
X153647Y128986D01*
X153743Y128961D01*
X153833Y128931D01*
X153918Y128895D01*
X153996Y128859D01*
X154068Y128829D01*
X154128Y128793D01*
X154182Y128763D01*
X154230Y128733D01*
X154266Y128709D01*
X154296Y128685D01*
X154320Y128667D01*
X154332Y128661D01*
X154338Y128655D01*
X154410Y128589D01*
X154476Y128523D01*
X154603Y128372D01*
X154705Y128216D01*
X154789Y128060D01*
X154825Y127988D01*
X154855Y127922D01*
X154879Y127868D01*
X154903Y127813D01*
X154915Y127771D01*
X154927Y127741D01*
X154939Y127717D01*
Y127711D01*
X154957Y127657D01*
X154975Y127615D01*
X154993Y127585D01*
X155005Y127555D01*
X155017Y127537D01*
X155029Y127525D01*
X155035Y127513D01*
X155059Y127495D01*
X155083Y127483D01*
X155143Y127471D01*
X155167Y127465D01*
X155210D01*
X155258Y127471D01*
X155300Y127477D01*
X155336Y127489D01*
X155366Y127501D01*
X155384Y127513D01*
X155402Y127525D01*
X155414Y127537D01*
X155438Y127567D01*
X155450Y127609D01*
X155474Y127687D01*
Y127723D01*
X155480Y127753D01*
Y127771D01*
Y127777D01*
Y129677D01*
D02*
G37*
G36*
X142438D02*
X140281D01*
Y129046D01*
X140395Y129034D01*
X140503Y129009D01*
X140605Y128986D01*
X140701Y128961D01*
X140792Y128931D01*
X140876Y128895D01*
X140954Y128859D01*
X141026Y128829D01*
X141086Y128793D01*
X141140Y128763D01*
X141188Y128733D01*
X141224Y128709D01*
X141254Y128685D01*
X141278Y128667D01*
X141290Y128661D01*
X141297Y128655D01*
X141369Y128589D01*
X141435Y128523D01*
X141561Y128372D01*
X141663Y128216D01*
X141747Y128060D01*
X141783Y127988D01*
X141813Y127922D01*
X141837Y127868D01*
X141861Y127813D01*
X141873Y127771D01*
X141885Y127741D01*
X141897Y127717D01*
Y127711D01*
X141916Y127657D01*
X141934Y127615D01*
X141952Y127585D01*
X141964Y127555D01*
X141976Y127537D01*
X141988Y127525D01*
X141994Y127513D01*
X142018Y127495D01*
X142042Y127483D01*
X142102Y127471D01*
X142126Y127465D01*
X142168D01*
X142216Y127471D01*
X142258Y127477D01*
X142294Y127489D01*
X142324Y127501D01*
X142342Y127513D01*
X142360Y127525D01*
X142372Y127537D01*
X142396Y127567D01*
X142408Y127609D01*
X142432Y127687D01*
Y127723D01*
X142438Y127753D01*
Y127771D01*
Y127777D01*
Y129677D01*
D02*
G37*
G36*
X149416Y127417D02*
Y127411D01*
D01*
Y127417D01*
D02*
G37*
G36*
Y127387D02*
D01*
D01*
D01*
D02*
G37*
G36*
Y127345D02*
Y127315D01*
D01*
Y127345D01*
D02*
G37*
G36*
X166929Y129791D02*
X166899D01*
Y129202D01*
X167007Y129172D01*
X167109Y129136D01*
X167296Y129052D01*
X167380Y129009D01*
X167464Y128961D01*
X167536Y128913D01*
X167602Y128865D01*
X167662Y128817D01*
X167716Y128775D01*
X167759Y128733D01*
X167801Y128703D01*
X167825Y128673D01*
X167849Y128649D01*
X167861Y128637D01*
X167867Y128631D01*
X167939Y128547D01*
X167999Y128463D01*
X168059Y128378D01*
X168107Y128300D01*
X168149Y128234D01*
X168179Y128180D01*
X168197Y128144D01*
X168203Y128138D01*
Y128132D01*
X168251Y128030D01*
X168293Y127934D01*
X168329Y127844D01*
X168359Y127759D01*
X168384Y127693D01*
X168396Y127639D01*
X168408Y127609D01*
Y127603D01*
Y127597D01*
X168420Y127549D01*
X168426Y127501D01*
X168438Y127465D01*
X168444Y127441D01*
X168450Y127417D01*
X168456Y127399D01*
X168462Y127393D01*
Y127387D01*
X168486Y127345D01*
X168510Y127315D01*
X168534Y127291D01*
X168540Y127285D01*
X168576Y127261D01*
X168612Y127249D01*
X168672Y127225D01*
X168702D01*
X168720Y127218D01*
X168738D01*
X168786Y127225D01*
X168834Y127237D01*
X168870Y127249D01*
X168906Y127267D01*
X168930Y127285D01*
X168948Y127303D01*
X168960Y127309D01*
X168966Y127315D01*
X168997Y127351D01*
X169021Y127393D01*
X169033Y127435D01*
X169045Y127477D01*
X169051Y127513D01*
X169057Y127543D01*
Y127561D01*
Y127567D01*
Y129334D01*
Y129412D01*
X169045Y129478D01*
X169033Y129532D01*
X169021Y129580D01*
X169009Y129616D01*
X168997Y129641D01*
X168991Y129653D01*
X168984Y129659D01*
X168955Y129695D01*
X168924Y129719D01*
X168888Y129743D01*
X168852Y129755D01*
X168822Y129761D01*
X168798Y129767D01*
X168774D01*
X168732Y129761D01*
X168690Y129749D01*
X168624Y129707D01*
X168600Y129683D01*
X168582Y129665D01*
X168570Y129653D01*
X168564Y129647D01*
X168450Y129496D01*
X168432Y129472D01*
X168408Y129460D01*
X168359Y129436D01*
X168317Y129430D01*
X168299D01*
X168239Y129436D01*
X168185Y129454D01*
X168161Y129460D01*
X168143Y129466D01*
X168131Y129472D01*
X168125D01*
X167969Y129532D01*
X167837Y129580D01*
X167722Y129622D01*
X167626Y129653D01*
X167548Y129677D01*
X167494Y129695D01*
X167464Y129707D01*
X167452D01*
X167362Y129731D01*
X167266Y129749D01*
X167175Y129761D01*
X167085Y129773D01*
X167013Y129785D01*
X166953D01*
X166929Y129791D01*
D02*
G37*
G36*
X133664Y129791D02*
X133634D01*
Y129202D01*
X133742Y129172D01*
X133844Y129136D01*
X134030Y129052D01*
X134115Y129009D01*
X134199Y128961D01*
X134271Y128913D01*
X134337Y128865D01*
X134397Y128817D01*
X134451Y128775D01*
X134493Y128733D01*
X134535Y128703D01*
X134559Y128673D01*
X134583Y128649D01*
X134595Y128637D01*
X134601Y128631D01*
X134673Y128547D01*
X134733Y128463D01*
X134794Y128378D01*
X134842Y128300D01*
X134884Y128234D01*
X134914Y128180D01*
X134932Y128144D01*
X134938Y128138D01*
Y128132D01*
X134986Y128030D01*
X135028Y127934D01*
X135064Y127844D01*
X135094Y127759D01*
X135118Y127693D01*
X135130Y127639D01*
X135142Y127609D01*
Y127603D01*
Y127597D01*
X135154Y127549D01*
X135160Y127501D01*
X135172Y127465D01*
X135178Y127441D01*
X135184Y127417D01*
X135190Y127399D01*
X135196Y127393D01*
Y127387D01*
X135220Y127345D01*
X135244Y127315D01*
X135268Y127291D01*
X135274Y127285D01*
X135310Y127261D01*
X135347Y127249D01*
X135407Y127225D01*
X135437D01*
X135455Y127218D01*
X135473D01*
X135521Y127225D01*
X135569Y127237D01*
X135605Y127249D01*
X135641Y127267D01*
X135665Y127285D01*
X135683Y127303D01*
X135695Y127309D01*
X135701Y127315D01*
X135731Y127351D01*
X135755Y127393D01*
X135767Y127435D01*
X135779Y127477D01*
X135785Y127513D01*
X135791Y127543D01*
Y127561D01*
Y127567D01*
Y129334D01*
Y129412D01*
X135779Y129478D01*
X135767Y129532D01*
X135755Y129580D01*
X135743Y129616D01*
X135731Y129641D01*
X135725Y129653D01*
X135719Y129659D01*
X135689Y129695D01*
X135659Y129719D01*
X135623Y129743D01*
X135587Y129755D01*
X135557Y129761D01*
X135533Y129767D01*
X135509D01*
X135467Y129761D01*
X135425Y129749D01*
X135359Y129707D01*
X135335Y129683D01*
X135317Y129665D01*
X135304Y129653D01*
X135299Y129647D01*
X135184Y129496D01*
X135166Y129472D01*
X135142Y129460D01*
X135094Y129436D01*
X135052Y129430D01*
X135034D01*
X134974Y129436D01*
X134920Y129454D01*
X134896Y129460D01*
X134878Y129466D01*
X134866Y129472D01*
X134860D01*
X134704Y129532D01*
X134571Y129580D01*
X134457Y129622D01*
X134361Y129653D01*
X134283Y129677D01*
X134229Y129695D01*
X134199Y129707D01*
X134187D01*
X134097Y129731D01*
X134000Y129749D01*
X133910Y129761D01*
X133820Y129773D01*
X133748Y129785D01*
X133688D01*
X133664Y129791D01*
D02*
G37*
G36*
X149416Y127200D02*
Y127194D01*
D01*
Y127200D01*
D02*
G37*
G36*
Y127122D02*
Y127116D01*
D01*
Y127122D01*
D02*
G37*
G36*
Y126455D02*
D01*
D01*
D01*
D02*
G37*
G36*
Y126335D02*
Y126329D01*
D01*
Y126335D01*
D02*
G37*
G36*
Y125854D02*
Y125782D01*
D01*
Y125854D01*
D02*
G37*
G36*
X183385Y129677D02*
X181936D01*
X181870Y129665D01*
X181822Y129653D01*
X181774Y129641D01*
X181744Y129629D01*
X181720Y129616D01*
X181708Y129611D01*
X181702Y129604D01*
X181672Y129575D01*
X181648Y129544D01*
X181636Y129508D01*
X181624Y129472D01*
X181618Y129442D01*
X181612Y129418D01*
Y129400D01*
Y129394D01*
X181618Y129328D01*
X181636Y129280D01*
X181648Y129250D01*
X181654Y129238D01*
X181672Y129214D01*
X181696Y129196D01*
X181750Y129160D01*
X181774Y129142D01*
X181792Y129136D01*
X181804Y129124D01*
X181810D01*
X181924Y129058D01*
X182020Y128986D01*
X182104Y128913D01*
X182165Y128853D01*
X182212Y128793D01*
X182249Y128751D01*
X182267Y128721D01*
X182273Y128709D01*
X182315Y128613D01*
X182351Y128505D01*
X182375Y128391D01*
X182387Y128276D01*
X182399Y128180D01*
Y128138D01*
X182405Y128096D01*
Y128066D01*
Y128042D01*
Y128030D01*
Y128024D01*
Y126545D01*
X182970Y125584D01*
Y128024D01*
X182976Y128156D01*
X182988Y128276D01*
X183000Y128378D01*
X183018Y128463D01*
X183036Y128529D01*
X183054Y128577D01*
X183060Y128607D01*
X183066Y128619D01*
X183126Y128727D01*
X183192Y128817D01*
X183264Y128889D01*
X183336Y128955D01*
X183403Y129004D01*
X183451Y129040D01*
X183487Y129058D01*
X183493Y129064D01*
X183499D01*
X183565Y129100D01*
X183619Y129130D01*
X183661Y129154D01*
X183691Y129178D01*
X183715Y129190D01*
X183727Y129202D01*
X183739Y129214D01*
X183769Y129268D01*
X183787Y129322D01*
X183793Y129346D01*
Y129382D01*
X183787Y129424D01*
X183781Y129466D01*
X183745Y129532D01*
X183727Y129556D01*
X183715Y129575D01*
X183703Y129580D01*
X183697Y129587D01*
X183655Y129616D01*
X183607Y129641D01*
X183547Y129653D01*
X183487Y129665D01*
X183433Y129671D01*
X183385Y129677D01*
D02*
G37*
G36*
X149416Y125524D02*
D01*
D01*
D01*
D02*
G37*
G36*
Y125085D02*
Y125079D01*
D01*
Y125085D01*
D02*
G37*
G36*
X149043Y129677D02*
X147649D01*
X147577Y129671D01*
X147511Y129665D01*
X147457Y129653D01*
X147409Y129641D01*
X147373Y129622D01*
X147348Y129611D01*
X147330Y129604D01*
X147325Y129598D01*
X147288Y129568D01*
X147258Y129532D01*
X147240Y129496D01*
X147222Y129460D01*
X147216Y129424D01*
X147210Y129400D01*
Y129382D01*
Y129376D01*
X147216Y129304D01*
X147240Y129250D01*
X147276Y129202D01*
X147312Y129160D01*
X147348Y129136D01*
X147385Y129112D01*
X147409Y129106D01*
X147415Y129100D01*
X147595Y129040D01*
X147661Y129009D01*
X147715Y128973D01*
X147757Y128937D01*
X147799Y128895D01*
X147829Y128853D01*
X147847Y128823D01*
X147859Y128799D01*
X147865Y128793D01*
X147883Y128739D01*
X147901Y128691D01*
X147907Y128649D01*
X147914Y128607D01*
X147919Y128577D01*
Y128553D01*
Y128535D01*
Y128529D01*
X147914Y128505D01*
X147907Y128469D01*
X147895Y128427D01*
X147883Y128378D01*
X147871Y128336D01*
X147865Y128300D01*
X147853Y128276D01*
Y128264D01*
X147234Y126016D01*
X147517Y125007D01*
X148382Y128138D01*
X148418Y128252D01*
X148454Y128354D01*
X148496Y128445D01*
X148532Y128523D01*
X148569Y128589D01*
X148599Y128637D01*
X148617Y128667D01*
X148623Y128679D01*
X148683Y128763D01*
X148743Y128829D01*
X148797Y128883D01*
X148845Y128931D01*
X148887Y128961D01*
X148923Y128979D01*
X148947Y128991D01*
X148953Y128998D01*
X149224Y129130D01*
X149260Y129148D01*
X149296Y129166D01*
X149338Y129202D01*
X149368Y129226D01*
X149374Y129232D01*
X149398Y129280D01*
X149410Y129334D01*
X149416Y129358D01*
Y129400D01*
Y129394D01*
X149410Y129448D01*
X149398Y129496D01*
X149374Y129532D01*
X149350Y129562D01*
X149326Y129593D01*
X149302Y129611D01*
X149290Y129616D01*
X149284Y129622D01*
X149248Y129641D01*
X149206Y129653D01*
X149152Y129665D01*
X149097Y129671D01*
X149043Y129677D01*
D02*
G37*
G36*
X149416Y124766D02*
Y124760D01*
D01*
Y124766D01*
D02*
G37*
G36*
X136044Y129821D02*
X133803D01*
X136044D01*
Y124754D01*
X136038Y124923D01*
X136014Y125085D01*
X135984Y125241D01*
X135942Y125391D01*
X135893Y125530D01*
X135839Y125656D01*
X135785Y125782D01*
X135725Y125890D01*
X135665Y125987D01*
X135611Y126077D01*
X135557Y126155D01*
X135509Y126215D01*
X135467Y126269D01*
X135437Y126305D01*
X135413Y126329D01*
X135407Y126335D01*
X135317Y126425D01*
X135232Y126509D01*
X135148Y126582D01*
X135070Y126642D01*
X135004Y126690D01*
X134956Y126726D01*
X134920Y126750D01*
X134914Y126756D01*
X134908D01*
X134800Y126822D01*
X134679Y126888D01*
X134553Y126948D01*
X134439Y127008D01*
X134331Y127056D01*
X134283Y127080D01*
X134241Y127098D01*
X134211Y127116D01*
X134187Y127122D01*
X134169Y127134D01*
X134163D01*
X134018Y127194D01*
X133892Y127255D01*
X133772Y127309D01*
X133670Y127357D01*
X133574Y127399D01*
X133495Y127435D01*
X133417Y127471D01*
X133357Y127501D01*
X133303Y127525D01*
X133261Y127549D01*
X133225Y127567D01*
X133195Y127579D01*
X133171Y127591D01*
X133159Y127597D01*
X133147Y127603D01*
X133033Y127669D01*
X132937Y127741D01*
X132858Y127802D01*
X132792Y127862D01*
X132738Y127910D01*
X132708Y127946D01*
X132684Y127976D01*
X132678Y127982D01*
X132630Y128060D01*
X132594Y128144D01*
X132570Y128222D01*
X132552Y128294D01*
X132540Y128360D01*
X132534Y128409D01*
Y128445D01*
Y128457D01*
X132540Y128559D01*
X132558Y128643D01*
X132588Y128727D01*
X132618Y128793D01*
X132648Y128847D01*
X132678Y128883D01*
X132696Y128913D01*
X132702Y128919D01*
X132774Y128986D01*
X132858Y129046D01*
X132943Y129094D01*
X133021Y129136D01*
X133099Y129166D01*
X133159Y129184D01*
X133183Y129190D01*
X133201Y129196D01*
X133207Y129202D01*
X133213D01*
Y129821D01*
D01*
X133045Y129809D01*
X132876Y129785D01*
X132726Y129761D01*
X132576Y129725D01*
X132438Y129689D01*
X132311Y129647D01*
X132191Y129604D01*
X132083Y129562D01*
X131987Y129514D01*
X131903Y129478D01*
X131831Y129436D01*
X131771Y129406D01*
X131722Y129376D01*
X131686Y129352D01*
X131662Y129340D01*
X131656Y129334D01*
X131494Y129208D01*
X131356Y129070D01*
X131236Y128931D01*
X131133Y128799D01*
X131055Y128679D01*
X131025Y128631D01*
X131001Y128583D01*
X130977Y128547D01*
X130965Y128523D01*
X130959Y128505D01*
X130953Y128499D01*
X130869Y128300D01*
X130809Y128108D01*
X130767Y127916D01*
X130749Y127825D01*
X130737Y127741D01*
X130725Y127663D01*
X130719Y127597D01*
X130713Y127531D01*
Y127477D01*
X130707Y127435D01*
Y127375D01*
X130719Y127158D01*
X130749Y126948D01*
X130797Y126756D01*
X130863Y126569D01*
X130941Y126401D01*
X131025Y126245D01*
X131115Y126101D01*
X131212Y125968D01*
X131302Y125854D01*
X131392Y125752D01*
X131476Y125668D01*
X131554Y125596D01*
X131620Y125536D01*
X131668Y125500D01*
X131699Y125470D01*
X131711Y125464D01*
X131879Y125349D01*
X131957Y125295D01*
X132023Y125253D01*
X132083Y125217D01*
X132131Y125193D01*
X132161Y125175D01*
X132173Y125169D01*
X132221Y125145D01*
X132281Y125115D01*
X132348Y125085D01*
X132420Y125055D01*
X132570Y124989D01*
X132720Y124923D01*
X132792Y124887D01*
X132858Y124857D01*
X132919Y124832D01*
X132973Y124809D01*
X133021Y124791D01*
X133051Y124773D01*
X133075Y124766D01*
X133081Y124760D01*
X133189Y124712D01*
X133285Y124670D01*
X133375Y124622D01*
X133459Y124580D01*
X133531Y124544D01*
X133598Y124508D01*
X133658Y124472D01*
X133712Y124442D01*
X133754Y124418D01*
X133790Y124394D01*
X133826Y124370D01*
X133850Y124352D01*
X133868Y124340D01*
X133880Y124328D01*
X133892Y124322D01*
X133952Y124268D01*
X134000Y124220D01*
X134042Y124165D01*
X134078Y124111D01*
X134139Y124003D01*
X134175Y123907D01*
X134199Y123817D01*
X134211Y123751D01*
X134217Y123727D01*
Y123709D01*
Y123697D01*
Y123691D01*
X134211Y123571D01*
X134187Y123462D01*
X134151Y123372D01*
X134115Y123294D01*
X134072Y123228D01*
X134042Y123186D01*
X134018Y123162D01*
X134006Y123150D01*
X133964Y123114D01*
X133922Y123078D01*
X133814Y123018D01*
X133706Y122963D01*
X133598Y122921D01*
X133495Y122885D01*
X133453Y122867D01*
X133417Y122861D01*
X133381Y122849D01*
X133357Y122843D01*
X133345Y122837D01*
X133339D01*
Y122230D01*
D01*
X133465Y122236D01*
X133592Y122248D01*
X133712Y122260D01*
X133820Y122278D01*
X133910Y122296D01*
X133952Y122302D01*
X133982Y122314D01*
X134012Y122320D01*
X134030D01*
X134042Y122326D01*
X134048D01*
X134187Y122369D01*
X134319Y122411D01*
X134439Y122453D01*
X134547Y122501D01*
X134637Y122537D01*
X134673Y122555D01*
X134704Y122567D01*
X134728Y122579D01*
X134746Y122591D01*
X134752Y122597D01*
X134758D01*
X134866Y122663D01*
X134968Y122729D01*
X135064Y122801D01*
X135154Y122873D01*
X135238Y122951D01*
X135317Y123023D01*
X135389Y123096D01*
X135449Y123168D01*
X135509Y123234D01*
X135557Y123294D01*
X135599Y123348D01*
X135635Y123396D01*
X135659Y123438D01*
X135677Y123468D01*
X135689Y123486D01*
X135695Y123492D01*
X135755Y123600D01*
X135809Y123715D01*
X135857Y123823D01*
X135899Y123931D01*
X135930Y124039D01*
X135960Y124147D01*
X135984Y124244D01*
X136002Y124340D01*
X136014Y124430D01*
X136026Y124508D01*
X136032Y124580D01*
X136038Y124640D01*
X136044Y124688D01*
Y122374D01*
Y129821D01*
D02*
G37*
G36*
X149416Y124688D02*
Y124676D01*
D01*
Y124688D01*
D02*
G37*
G36*
Y124646D02*
D01*
D01*
D01*
D02*
G37*
G36*
X154314Y127561D02*
X154284D01*
X154242Y127555D01*
X154200Y127549D01*
X154140Y127525D01*
X154116Y127507D01*
X154098Y127495D01*
X154092Y127489D01*
X154086Y127483D01*
X154062Y127447D01*
X154044Y127405D01*
X154008Y127315D01*
X153996Y127267D01*
X153984Y127237D01*
X153978Y127213D01*
Y127200D01*
X153947Y127098D01*
X153911Y127002D01*
X153875Y126924D01*
X153839Y126852D01*
X153809Y126798D01*
X153779Y126756D01*
X153761Y126732D01*
X153755Y126726D01*
X153695Y126660D01*
X153623Y126600D01*
X153545Y126545D01*
X153473Y126497D01*
X153401Y126455D01*
X153347Y126425D01*
X153310Y126407D01*
X153304Y126401D01*
X153298D01*
Y125782D01*
X153395Y125752D01*
X153479Y125716D01*
X153551Y125668D01*
X153617Y125626D01*
X153665Y125584D01*
X153701Y125548D01*
X153725Y125524D01*
X153731Y125518D01*
X153791Y125440D01*
X153845Y125343D01*
X153887Y125253D01*
X153923Y125163D01*
X153954Y125079D01*
X153972Y125013D01*
X153978Y124989D01*
X153984Y124971D01*
X153990Y124959D01*
Y124953D01*
X154008Y124893D01*
X154026Y124839D01*
X154044Y124796D01*
X154062Y124760D01*
X154074Y124730D01*
X154086Y124712D01*
X154098Y124706D01*
Y124700D01*
X154128Y124676D01*
X154158Y124658D01*
X154224Y124640D01*
X154254Y124634D01*
X154278Y124628D01*
X154296D01*
X154350Y124634D01*
X154392Y124640D01*
X154428Y124658D01*
X154452Y124676D01*
X154476Y124688D01*
X154488Y124706D01*
X154500Y124712D01*
Y124718D01*
X154518Y124760D01*
X154536Y124814D01*
X154554Y124929D01*
X154560Y124983D01*
Y125025D01*
Y125055D01*
Y125067D01*
Y127104D01*
Y127189D01*
X154554Y127261D01*
X154549Y127315D01*
X154543Y127357D01*
X154531Y127387D01*
X154525Y127411D01*
X154518Y127417D01*
Y127423D01*
X154488Y127471D01*
X154458Y127501D01*
X154416Y127525D01*
X154380Y127543D01*
X154344Y127555D01*
X154314Y127561D01*
D02*
G37*
G36*
X141272D02*
X141242D01*
X141200Y127555D01*
X141158Y127549D01*
X141098Y127525D01*
X141074Y127507D01*
X141056Y127495D01*
X141050Y127489D01*
X141044Y127483D01*
X141020Y127447D01*
X141002Y127405D01*
X140966Y127315D01*
X140954Y127267D01*
X140942Y127237D01*
X140936Y127213D01*
Y127200D01*
X140906Y127098D01*
X140870Y127002D01*
X140834Y126924D01*
X140798Y126852D01*
X140768Y126798D01*
X140737Y126756D01*
X140719Y126732D01*
X140714Y126726D01*
X140653Y126660D01*
X140581Y126600D01*
X140503Y126545D01*
X140431Y126497D01*
X140359Y126455D01*
X140305Y126425D01*
X140269Y126407D01*
X140263Y126401D01*
X140257D01*
Y125782D01*
X140353Y125752D01*
X140437Y125716D01*
X140509Y125668D01*
X140575Y125626D01*
X140623Y125584D01*
X140659Y125548D01*
X140683Y125524D01*
X140690Y125518D01*
X140750Y125440D01*
X140804Y125343D01*
X140846Y125253D01*
X140882Y125163D01*
X140912Y125079D01*
X140930Y125013D01*
X140936Y124989D01*
X140942Y124971D01*
X140948Y124959D01*
Y124953D01*
X140966Y124893D01*
X140984Y124839D01*
X141002Y124796D01*
X141020Y124760D01*
X141032Y124730D01*
X141044Y124712D01*
X141056Y124706D01*
Y124700D01*
X141086Y124676D01*
X141116Y124658D01*
X141182Y124640D01*
X141212Y124634D01*
X141236Y124628D01*
X141254D01*
X141308Y124634D01*
X141350Y124640D01*
X141387Y124658D01*
X141411Y124676D01*
X141435Y124688D01*
X141447Y124706D01*
X141459Y124712D01*
Y124718D01*
X141477Y124760D01*
X141495Y124814D01*
X141513Y124929D01*
X141519Y124983D01*
Y125025D01*
Y125055D01*
Y125067D01*
Y127104D01*
Y127189D01*
X141513Y127261D01*
X141507Y127315D01*
X141501Y127357D01*
X141489Y127387D01*
X141483Y127411D01*
X141477Y127417D01*
Y127423D01*
X141447Y127471D01*
X141417Y127501D01*
X141375Y127525D01*
X141339Y127543D01*
X141303Y127555D01*
X141272Y127561D01*
D02*
G37*
G36*
X149416Y123907D02*
Y123883D01*
D01*
Y123907D01*
D02*
G37*
G36*
Y123847D02*
Y123841D01*
D01*
Y123847D01*
D02*
G37*
G36*
X163437Y129677D02*
Y123384D01*
X163431Y123420D01*
X163425Y123456D01*
X163389Y123516D01*
X163371Y123540D01*
X163359Y123558D01*
X163347Y123571D01*
X163341Y123576D01*
X163305Y123612D01*
X163275Y123637D01*
X163245Y123655D01*
X163215Y123667D01*
X163197Y123673D01*
X163179Y123679D01*
X163161D01*
X163107Y123673D01*
X163059Y123649D01*
X163011Y123618D01*
X162969Y123589D01*
X162938Y123552D01*
X162908Y123522D01*
X162890Y123498D01*
X162884Y123492D01*
X162848Y123450D01*
X162824Y123420D01*
X162806Y123408D01*
X162800Y123402D01*
X162776Y123390D01*
X162752Y123384D01*
X162734Y123378D01*
X162728D01*
X162692Y123384D01*
X162668Y123402D01*
X162644Y123432D01*
X162632Y123462D01*
X162626Y123492D01*
X162620Y123522D01*
Y123540D01*
Y123546D01*
Y124658D01*
X162614Y124754D01*
X162602Y124839D01*
X162578Y124923D01*
X162560Y124995D01*
X162536Y125055D01*
X162512Y125097D01*
X162500Y125127D01*
X162494Y125139D01*
X162446Y125223D01*
X162392Y125301D01*
X162331Y125367D01*
X162277Y125427D01*
X162229Y125470D01*
X162187Y125506D01*
X162163Y125530D01*
X162151Y125536D01*
X162073Y125590D01*
X161989Y125638D01*
X161911Y125680D01*
X161833Y125716D01*
X161773Y125746D01*
X161718Y125764D01*
X161688Y125776D01*
X161682Y125782D01*
X161676D01*
X161568Y125818D01*
X161448Y125848D01*
X161322Y125878D01*
X161202Y125902D01*
X161087Y125920D01*
X161039Y125932D01*
X161003Y125938D01*
X160967Y125944D01*
X160943D01*
X160925Y125950D01*
X160919D01*
X161015Y125980D01*
X161111Y126011D01*
X161196Y126035D01*
X161274Y126065D01*
X161346Y126089D01*
X161412Y126113D01*
X161472Y126137D01*
X161526Y126155D01*
X161574Y126173D01*
X161610Y126191D01*
X161646Y126203D01*
X161676Y126215D01*
X161694Y126227D01*
X161712Y126233D01*
X161724Y126239D01*
X161821Y126287D01*
X161911Y126341D01*
X161989Y126401D01*
X162055Y126449D01*
X162109Y126497D01*
X162151Y126533D01*
X162181Y126563D01*
X162187Y126569D01*
X162271Y126666D01*
X162344Y126762D01*
X162410Y126864D01*
X162464Y126966D01*
X162506Y127068D01*
X162548Y127171D01*
X162578Y127273D01*
X162602Y127369D01*
X162620Y127459D01*
X162638Y127543D01*
X162650Y127615D01*
X162656Y127681D01*
X162662Y127735D01*
Y127771D01*
Y127802D01*
Y127807D01*
X162656Y127976D01*
X162632Y128132D01*
X162596Y128282D01*
X162554Y128414D01*
X162500Y128547D01*
X162440Y128661D01*
X162373Y128769D01*
X162313Y128859D01*
X162247Y128943D01*
X162181Y129022D01*
X162121Y129082D01*
X162067Y129136D01*
X162025Y129172D01*
X161989Y129202D01*
X161965Y129220D01*
X161959Y129226D01*
X161869Y129286D01*
X161773Y129346D01*
X161676Y129394D01*
X161580Y129436D01*
X161394Y129508D01*
X161220Y129556D01*
X161142Y129580D01*
X161069Y129593D01*
X161009Y129604D01*
X160955Y129616D01*
X160907Y129622D01*
X160877Y129629D01*
X160847D01*
X160685Y129647D01*
X160516Y129659D01*
X160348Y129665D01*
X160186Y129671D01*
X160114D01*
X160048Y129677D01*
X159699D01*
Y129082D01*
X159819Y129046D01*
X159915Y128998D01*
X160000Y128955D01*
X160066Y128913D01*
X160114Y128877D01*
X160150Y128847D01*
X160168Y128823D01*
X160174Y128817D01*
X160216Y128745D01*
X160252Y128667D01*
X160276Y128583D01*
X160288Y128505D01*
X160300Y128427D01*
X160306Y128366D01*
Y128342D01*
Y128324D01*
Y128318D01*
Y128312D01*
Y126900D01*
Y126816D01*
X160300Y126738D01*
X160294Y126678D01*
X160288Y126623D01*
X160276Y126587D01*
X160270Y126557D01*
X160264Y126539D01*
Y126533D01*
X160246Y126491D01*
X160222Y126449D01*
X160174Y126383D01*
X160150Y126353D01*
X160132Y126335D01*
X160120Y126323D01*
X160114Y126317D01*
X160060Y126281D01*
X160000Y126251D01*
X159867Y126203D01*
X159801Y126185D01*
X159753Y126173D01*
X159717Y126167D01*
X159705D01*
Y125590D01*
X159807Y125572D01*
X159897Y125542D01*
X159976Y125506D01*
X160036Y125470D01*
X160084Y125434D01*
X160120Y125403D01*
X160144Y125380D01*
X160150Y125373D01*
X160192Y125313D01*
X160222Y125247D01*
X160252Y125187D01*
X160270Y125127D01*
X160282Y125079D01*
X160294Y125037D01*
X160300Y125013D01*
Y125001D01*
Y124971D01*
X160306Y124929D01*
Y124869D01*
Y124814D01*
Y124754D01*
Y124706D01*
Y124670D01*
Y124664D01*
Y124658D01*
Y123757D01*
X160312Y123625D01*
X160324Y123504D01*
X160342Y123384D01*
X160366Y123276D01*
X160396Y123174D01*
X160432Y123084D01*
X160462Y123000D01*
X160504Y122927D01*
X160540Y122855D01*
X160571Y122801D01*
X160607Y122747D01*
X160637Y122705D01*
X160661Y122675D01*
X160679Y122651D01*
X160691Y122639D01*
X160697Y122633D01*
X160775Y122561D01*
X160859Y122501D01*
X160949Y122447D01*
X161039Y122398D01*
X161129Y122362D01*
X161220Y122326D01*
X161400Y122278D01*
X161484Y122266D01*
X161556Y122254D01*
X161628Y122242D01*
X161688Y122236D01*
X161737Y122230D01*
X163437D01*
Y129677D01*
D02*
G37*
G36*
X173426Y129821D02*
X173402D01*
Y129238D01*
X173462Y129220D01*
X173510Y129196D01*
X173552Y129178D01*
X173588Y129160D01*
X173618Y129142D01*
X173636Y129130D01*
X173648Y129124D01*
X173654Y129118D01*
X173714Y129064D01*
X173763Y129004D01*
X173781Y128980D01*
X173793Y128961D01*
X173804Y128949D01*
Y128943D01*
X173841Y128877D01*
X173865Y128805D01*
X173883Y128727D01*
X173895Y128655D01*
X173901Y128589D01*
X173907Y128541D01*
Y128505D01*
Y128499D01*
Y128493D01*
Y123709D01*
X173901Y123552D01*
X173883Y123420D01*
X173859Y123306D01*
X173835Y123210D01*
X173804Y123138D01*
X173781Y123090D01*
X173763Y123060D01*
X173757Y123048D01*
X173708Y122982D01*
X173666Y122939D01*
X173630Y122909D01*
X173624Y122897D01*
X173618D01*
X173552Y122861D01*
X173480Y122837D01*
X173450Y122825D01*
X173426Y122819D01*
X173408Y122813D01*
X173402D01*
Y122230D01*
X173148D01*
X176443D01*
Y122447D01*
Y122230D01*
X173402D01*
X173618Y122254D01*
X173829Y122296D01*
X174027Y122350D01*
X174213Y122411D01*
X174393Y122477D01*
X174556Y122555D01*
X174706Y122633D01*
X174844Y122711D01*
X174970Y122789D01*
X175079Y122861D01*
X175175Y122933D01*
X175253Y122994D01*
X175313Y123048D01*
X175361Y123084D01*
X175385Y123114D01*
X175397Y123120D01*
X175493Y123222D01*
X175584Y123324D01*
X175740Y123540D01*
X175884Y123775D01*
X176004Y124009D01*
X176100Y124250D01*
X176190Y124496D01*
X176257Y124730D01*
X176311Y124959D01*
X176353Y125175D01*
X176389Y125373D01*
X176413Y125554D01*
X176419Y125638D01*
X176425Y125710D01*
X176431Y125776D01*
X176437Y125836D01*
Y125890D01*
X176443Y125932D01*
Y122447D01*
Y125932D01*
Y126191D01*
X176431Y126359D01*
X176395Y126690D01*
X176341Y126990D01*
X176275Y127279D01*
X176190Y127543D01*
X176094Y127784D01*
X175998Y128006D01*
X175896Y128204D01*
X175794Y128384D01*
X175698Y128535D01*
X175601Y128667D01*
X175517Y128775D01*
X175451Y128865D01*
X175421Y128895D01*
X175397Y128925D01*
X175379Y128943D01*
X175361Y128961D01*
X175355Y128973D01*
X175349D01*
X175193Y129118D01*
X175037Y129238D01*
X174886Y129340D01*
X174748Y129430D01*
X174682Y129466D01*
X174628Y129496D01*
X174580Y129520D01*
X174538Y129544D01*
X174502Y129556D01*
X174478Y129568D01*
X174460Y129580D01*
X174454D01*
X174273Y129653D01*
X174087Y129707D01*
X173913Y129749D01*
X173750Y129779D01*
X173678Y129791D01*
X173612Y129803D01*
X173552Y129809D01*
X173498Y129815D01*
X173456D01*
X173426Y129821D01*
D02*
G37*
G36*
X180121Y129677D02*
X177639D01*
X177585Y129671D01*
X177531D01*
X177483Y129665D01*
X177447D01*
X177381Y129659D01*
X177332Y129647D01*
X177302Y129641D01*
X177290Y129634D01*
X177284D01*
X177230Y129604D01*
X177194Y129568D01*
X177164Y129538D01*
X177158Y129532D01*
Y129526D01*
X177128Y129466D01*
X177116Y129412D01*
X177110Y129388D01*
Y129376D01*
Y129364D01*
Y129358D01*
X177116Y129298D01*
X177134Y129250D01*
X177152Y129214D01*
X177158Y129208D01*
Y129202D01*
X177200Y129160D01*
X177242Y129130D01*
X177272Y129112D01*
X177278Y129106D01*
X177284D01*
X177489Y129034D01*
X177567Y128998D01*
X177627Y128955D01*
X177645Y128943D01*
X177663Y128925D01*
X177669Y128919D01*
X177675Y128913D01*
X177705Y128877D01*
X177741Y128835D01*
X177801Y128745D01*
X177831Y128697D01*
X177855Y128667D01*
X177867Y128643D01*
X177873Y128631D01*
X181509Y122374D01*
X178817D01*
X178907Y122380D01*
X178985Y122387D01*
X179045Y122398D01*
X179093Y122411D01*
X179129Y122423D01*
X179153Y122429D01*
X179165Y122441D01*
X179172D01*
X179208Y122471D01*
X179232Y122507D01*
X179250Y122543D01*
X179262Y122573D01*
X179268Y122603D01*
X179274Y122627D01*
Y122639D01*
Y122645D01*
X179268Y122705D01*
X179250Y122753D01*
X179226Y122795D01*
X179201Y122825D01*
X179177Y122849D01*
X179153Y122873D01*
X179135Y122879D01*
X179129Y122885D01*
X178973Y122976D01*
X178877Y123036D01*
X178793Y123102D01*
X178727Y123168D01*
X178667Y123234D01*
X178625Y123288D01*
X178595Y123330D01*
X178577Y123360D01*
X178570Y123372D01*
X178528Y123468D01*
X178498Y123571D01*
X178480Y123673D01*
X178468Y123769D01*
X178456Y123853D01*
X178450Y123925D01*
Y123949D01*
Y123967D01*
Y123979D01*
Y123985D01*
Y126852D01*
X177885Y127796D01*
Y123985D01*
X177879Y123853D01*
X177861Y123727D01*
X177837Y123612D01*
X177807Y123510D01*
X177765Y123414D01*
X177723Y123330D01*
X177675Y123258D01*
X177627Y123192D01*
X177579Y123138D01*
X177531Y123084D01*
X177489Y123048D01*
X177447Y123012D01*
X177417Y122987D01*
X177392Y122969D01*
X177374Y122963D01*
X177368Y122957D01*
X177308Y122921D01*
X177260Y122891D01*
X177224Y122867D01*
X177194Y122843D01*
X177170Y122825D01*
X177158Y122813D01*
X177146Y122801D01*
X177116Y122753D01*
X177104Y122705D01*
X177098Y122669D01*
Y129677D01*
D01*
D01*
Y122374D01*
Y122651D01*
X177104Y122603D01*
X177122Y122561D01*
X177146Y122525D01*
X177176Y122489D01*
X177254Y122441D01*
X177344Y122411D01*
X177429Y122387D01*
X177507Y122380D01*
X177543Y122374D01*
X177098D01*
X183793D01*
X182970D01*
Y124730D01*
X180121Y129677D01*
D02*
G37*
G36*
X152848Y129677D02*
X150323D01*
X150257Y129671D01*
X150197Y129665D01*
X150143Y129653D01*
X150107Y129641D01*
X150071Y129622D01*
X150047Y129611D01*
X150035Y129604D01*
X150029Y129598D01*
X149993Y129568D01*
X149969Y129538D01*
X149951Y129502D01*
X149939Y129472D01*
X149933Y129442D01*
X149927Y129418D01*
Y122651D01*
X149933Y122603D01*
X149945Y122561D01*
X149957Y122531D01*
X149981Y122501D01*
X149999Y122477D01*
X150011Y122459D01*
X150023Y122453D01*
X150029Y122447D01*
X150071Y122423D01*
X150119Y122405D01*
X150215Y122387D01*
X150257Y122380D01*
X150293Y122374D01*
X149927D01*
X155552D01*
Y124340D01*
X155540Y124400D01*
X155534Y124454D01*
X155522Y124496D01*
X155510Y124526D01*
X155504Y124550D01*
X155492Y124562D01*
Y124568D01*
X155468Y124598D01*
X155432Y124622D01*
X155402Y124634D01*
X155366Y124646D01*
X155330Y124652D01*
X155306Y124658D01*
X155240D01*
X155204Y124646D01*
X155149Y124628D01*
X155113Y124604D01*
X155107Y124598D01*
X155101Y124592D01*
X155077Y124568D01*
X155059Y124532D01*
X155017Y124454D01*
X155005Y124418D01*
X154993Y124394D01*
X154981Y124370D01*
Y124364D01*
X154933Y124238D01*
X154891Y124129D01*
X154849Y124033D01*
X154807Y123949D01*
X154771Y123883D01*
X154747Y123841D01*
X154729Y123811D01*
X154723Y123799D01*
X154669Y123721D01*
X154609Y123649D01*
X154549Y123576D01*
X154488Y123516D01*
X154434Y123462D01*
X154392Y123426D01*
X154368Y123402D01*
X154356Y123390D01*
X154272Y123324D01*
X154188Y123264D01*
X154110Y123216D01*
X154044Y123174D01*
X153984Y123144D01*
X153942Y123120D01*
X153911Y123108D01*
X153899Y123102D01*
X153809Y123066D01*
X153713Y123036D01*
X153617Y123012D01*
X153527Y122994D01*
X153449Y122976D01*
X153389Y122963D01*
X153365Y122957D01*
X153347Y122951D01*
X153329D01*
Y122374D01*
X152848D01*
Y129677D01*
D02*
G37*
G36*
X146038D02*
X143442D01*
X143364Y129665D01*
X143304Y129653D01*
X143250Y129641D01*
X143214Y129629D01*
X143190Y129616D01*
X143172Y129611D01*
X143166Y129604D01*
X143117Y129568D01*
X143081Y129526D01*
X143057Y129484D01*
X143039Y129442D01*
X143027Y129406D01*
X143021Y129376D01*
Y122374D01*
X149416D01*
X146808D01*
X147312Y124244D01*
X146074Y128601D01*
X146068Y128649D01*
X146062Y128697D01*
Y128739D01*
Y128745D01*
Y128751D01*
X146068Y128841D01*
X146080Y128871D01*
X146086Y128901D01*
X146098Y128925D01*
X146105Y128943D01*
X146110Y128949D01*
Y128955D01*
X146134Y128979D01*
X146159Y129009D01*
X146225Y129052D01*
X146249Y129070D01*
X146273Y129082D01*
X146291Y129094D01*
X146297D01*
X146363Y129130D01*
X146411Y129178D01*
X146441Y129226D01*
X146465Y129274D01*
X146477Y129316D01*
X146489Y129352D01*
Y129376D01*
Y129382D01*
X146483Y129430D01*
X146471Y129466D01*
X146453Y129496D01*
X146447Y129508D01*
X146417Y129556D01*
X146387Y129593D01*
X146369Y129616D01*
X146357Y129622D01*
X146315Y129641D01*
X146267Y129653D01*
X146231Y129665D01*
X146219D01*
X146183Y129671D01*
X146141D01*
X146038Y129677D01*
D02*
G37*
G36*
X166478Y129821D02*
D01*
X166310Y129809D01*
X166142Y129785D01*
X165992Y129761D01*
X165841Y129725D01*
X165703Y129689D01*
X165577Y129647D01*
X165457Y129604D01*
X165348Y129562D01*
X165252Y129514D01*
X165168Y129478D01*
X165096Y129436D01*
X165036Y129406D01*
X164988Y129376D01*
X164952Y129352D01*
X164928Y129340D01*
X164922Y129334D01*
X164760Y129208D01*
X164621Y129070D01*
X164501Y128931D01*
X164399Y128799D01*
X164321Y128679D01*
X164291Y128631D01*
X164267Y128583D01*
X164243Y128547D01*
X164231Y128523D01*
X164225Y128505D01*
X164219Y128499D01*
X164135Y128300D01*
X164074Y128108D01*
X164032Y127916D01*
X164014Y127825D01*
X164002Y127741D01*
X163990Y127663D01*
X163984Y127597D01*
X163978Y127531D01*
Y127477D01*
X163972Y127435D01*
Y127375D01*
X163984Y127158D01*
X164014Y126948D01*
X164062Y126756D01*
X164128Y126569D01*
X164207Y126401D01*
X164291Y126245D01*
X164381Y126101D01*
X164477Y125969D01*
X164567Y125854D01*
X164657Y125752D01*
X164742Y125668D01*
X164820Y125596D01*
X164886Y125536D01*
X164934Y125500D01*
X164964Y125470D01*
X164976Y125464D01*
X165144Y125349D01*
X165222Y125295D01*
X165288Y125253D01*
X165348Y125217D01*
X165397Y125193D01*
X165427Y125175D01*
X165439Y125169D01*
X165487Y125145D01*
X165547Y125115D01*
X165613Y125085D01*
X165685Y125055D01*
X165835Y124989D01*
X165986Y124923D01*
X166058Y124887D01*
X166124Y124857D01*
X166184Y124833D01*
X166238Y124809D01*
X166286Y124791D01*
X166316Y124773D01*
X166340Y124767D01*
X166346Y124760D01*
X166454Y124712D01*
X166551Y124670D01*
X166641Y124622D01*
X166725Y124580D01*
X166797Y124544D01*
X166863Y124508D01*
X166923Y124472D01*
X166977Y124442D01*
X167019Y124418D01*
X167055Y124394D01*
X167091Y124370D01*
X167115Y124352D01*
X167133Y124340D01*
X167146Y124328D01*
X167157Y124322D01*
X167218Y124268D01*
X167266Y124220D01*
X167308Y124165D01*
X167344Y124111D01*
X167404Y124003D01*
X167440Y123907D01*
X167464Y123817D01*
X167476Y123751D01*
X167482Y123727D01*
Y123709D01*
Y123697D01*
Y123691D01*
X167476Y123571D01*
X167452Y123462D01*
X167416Y123372D01*
X167380Y123294D01*
X167338Y123228D01*
X167308Y123186D01*
X167284Y123162D01*
X167272Y123150D01*
X167230Y123114D01*
X167188Y123078D01*
X167079Y123018D01*
X166971Y122963D01*
X166863Y122921D01*
X166761Y122885D01*
X166719Y122867D01*
X166683Y122861D01*
X166647Y122849D01*
X166623Y122843D01*
X166611Y122837D01*
X166605D01*
Y122230D01*
D01*
X166731Y122236D01*
X166857Y122248D01*
X166977Y122260D01*
X167085Y122278D01*
X167175Y122296D01*
X167218Y122302D01*
X167248Y122314D01*
X167278Y122320D01*
X167296D01*
X167308Y122326D01*
X167314D01*
X167452Y122369D01*
X167584Y122411D01*
X167704Y122453D01*
X167813Y122501D01*
X167903Y122537D01*
X167939Y122555D01*
X167969Y122567D01*
X167993Y122579D01*
X168011Y122591D01*
X168017Y122597D01*
X168023D01*
X168131Y122663D01*
X168233Y122729D01*
X168329Y122801D01*
X168420Y122873D01*
X168504Y122951D01*
X168582Y123024D01*
X168654Y123096D01*
X168714Y123168D01*
X168774Y123234D01*
X168822Y123294D01*
X168864Y123348D01*
X168900Y123396D01*
X168924Y123438D01*
X168942Y123468D01*
X168955Y123486D01*
X168960Y123492D01*
X169021Y123600D01*
X169075Y123715D01*
X169123Y123823D01*
X169165Y123931D01*
X169195Y124039D01*
X169225Y124147D01*
X169249Y124244D01*
X169267Y124340D01*
X169279Y124430D01*
X169291Y124508D01*
X169297Y124580D01*
X169303Y124640D01*
X169309Y124688D01*
Y122362D01*
Y124688D01*
Y124754D01*
X169303Y124923D01*
X169279Y125085D01*
X169249Y125241D01*
X169207Y125391D01*
X169159Y125530D01*
X169105Y125656D01*
X169051Y125782D01*
X168991Y125890D01*
X168930Y125987D01*
X168876Y126077D01*
X168822Y126155D01*
X168774Y126215D01*
X168732Y126269D01*
X168702Y126305D01*
X168678Y126329D01*
X168672Y126335D01*
X168582Y126425D01*
X168498Y126509D01*
X168414Y126582D01*
X168335Y126642D01*
X168269Y126690D01*
X168221Y126726D01*
X168185Y126750D01*
X168179Y126756D01*
X168173D01*
X168065Y126822D01*
X167945Y126888D01*
X167819Y126948D01*
X167704Y127008D01*
X167596Y127056D01*
X167548Y127080D01*
X167506Y127098D01*
X167476Y127116D01*
X167452Y127122D01*
X167434Y127134D01*
X167428D01*
X167284Y127194D01*
X167157Y127255D01*
X167037Y127309D01*
X166935Y127357D01*
X166839Y127399D01*
X166761Y127435D01*
X166683Y127471D01*
X166623Y127501D01*
X166569Y127525D01*
X166526Y127549D01*
X166490Y127567D01*
X166460Y127579D01*
X166436Y127591D01*
X166424Y127597D01*
X166412Y127603D01*
X166298Y127669D01*
X166202Y127741D01*
X166124Y127802D01*
X166058Y127862D01*
X166004Y127910D01*
X165973Y127946D01*
X165949Y127976D01*
X165944Y127982D01*
X165895Y128060D01*
X165859Y128144D01*
X165835Y128222D01*
X165817Y128294D01*
X165805Y128360D01*
X165799Y128409D01*
Y128445D01*
Y128457D01*
X165805Y128559D01*
X165823Y128643D01*
X165853Y128727D01*
X165883Y128793D01*
X165913Y128847D01*
X165944Y128883D01*
X165962Y128913D01*
X165968Y128919D01*
X166040Y128986D01*
X166124Y129046D01*
X166208Y129094D01*
X166286Y129136D01*
X166364Y129166D01*
X166424Y129184D01*
X166448Y129190D01*
X166466Y129196D01*
X166472Y129202D01*
X166478D01*
Y129821D01*
D02*
G37*
G36*
X173148D02*
X169934D01*
X172963D01*
X172753Y129803D01*
X172555Y129773D01*
X172374Y129731D01*
X172296Y129713D01*
X172218Y129689D01*
X172152Y129671D01*
X172086Y129647D01*
X172038Y129629D01*
X171990Y129616D01*
X171953Y129598D01*
X171929Y129593D01*
X171911Y129580D01*
X171905D01*
X171731Y129496D01*
X171569Y129400D01*
X171419Y129298D01*
X171286Y129202D01*
X171226Y129154D01*
X171178Y129112D01*
X171130Y129076D01*
X171094Y129040D01*
X171064Y129009D01*
X171040Y128991D01*
X171028Y128980D01*
X171022Y128973D01*
X170926Y128871D01*
X170830Y128769D01*
X170746Y128661D01*
X170667Y128553D01*
X170595Y128445D01*
X170523Y128342D01*
X170463Y128240D01*
X170409Y128138D01*
X170361Y128048D01*
X170319Y127964D01*
X170283Y127892D01*
X170259Y127825D01*
X170235Y127771D01*
X170217Y127735D01*
X170211Y127705D01*
X170205Y127699D01*
X170157Y127555D01*
X170114Y127411D01*
X170048Y127122D01*
X170000Y126840D01*
X169982Y126702D01*
X169970Y126576D01*
X169958Y126461D01*
X169946Y126353D01*
X169940Y126257D01*
Y126173D01*
X169934Y126107D01*
Y126016D01*
X169940Y125842D01*
X169946Y125680D01*
X169976Y125361D01*
X170030Y125061D01*
X170096Y124778D01*
X170175Y124520D01*
X170265Y124286D01*
X170355Y124069D01*
X170457Y123871D01*
X170553Y123697D01*
X170643Y123546D01*
X170733Y123420D01*
X170812Y123312D01*
X170878Y123228D01*
X170932Y123168D01*
X170950Y123150D01*
X170962Y123132D01*
X170974Y123126D01*
Y123120D01*
X171130Y122982D01*
X171286Y122855D01*
X171455Y122741D01*
X171623Y122645D01*
X171791Y122561D01*
X171953Y122489D01*
X172116Y122429D01*
X172266Y122380D01*
X172410Y122338D01*
X172543Y122302D01*
X172663Y122278D01*
X172765Y122260D01*
X172849Y122242D01*
X172909Y122236D01*
X172933D01*
X172951Y122230D01*
X172963D01*
Y122813D01*
X172867Y122843D01*
X172795Y122879D01*
X172729Y122921D01*
X172681Y122957D01*
X172639Y122994D01*
X172615Y123024D01*
X172602Y123042D01*
X172597Y123048D01*
X172573Y123090D01*
X172555Y123132D01*
X172524Y123234D01*
X172500Y123342D01*
X172488Y123450D01*
X172476Y123552D01*
Y123594D01*
X172470Y123631D01*
Y123667D01*
Y123691D01*
Y123703D01*
Y123709D01*
Y128493D01*
X172476Y128607D01*
X172488Y128703D01*
X172506Y128787D01*
X172524Y128853D01*
X172543Y128907D01*
X172561Y128943D01*
X172573Y128967D01*
X172579Y128973D01*
X172627Y129034D01*
X172687Y129088D01*
X172753Y129130D01*
X172813Y129172D01*
X172873Y129196D01*
X172921Y129220D01*
X172951Y129232D01*
X172963Y129238D01*
Y129821D01*
X173148D01*
D02*
G37*
G36*
X164291Y125073D02*
X164273D01*
X164225Y125067D01*
X164189Y125055D01*
X164122Y125013D01*
X164098Y124995D01*
X164080Y124977D01*
X164068Y124965D01*
X164062Y124959D01*
X164032Y124917D01*
X164014Y124875D01*
X163990Y124796D01*
X163984Y124760D01*
X163978Y124730D01*
Y124712D01*
Y124706D01*
Y122759D01*
X163984Y122681D01*
X163990Y122609D01*
X164008Y122549D01*
X164026Y122495D01*
X164044Y122453D01*
X164074Y122416D01*
X164098Y122387D01*
X164128Y122362D01*
X164182Y122326D01*
X164225Y122308D01*
X164261Y122302D01*
X164273D01*
X164315Y122308D01*
X164357Y122320D01*
X164423Y122362D01*
X164447Y122380D01*
X164465Y122398D01*
X164477Y122411D01*
X164483Y122416D01*
X164525Y122465D01*
X164561Y122501D01*
X164591Y122531D01*
X164615Y122555D01*
X164627Y122573D01*
X164639Y122585D01*
X164651Y122591D01*
X164699Y122615D01*
X164753Y122621D01*
X164778Y122627D01*
X164814D01*
X164868Y122621D01*
X164916Y122615D01*
X164946Y122603D01*
X164952Y122597D01*
X164958D01*
X164994Y122585D01*
X165036Y122567D01*
X165126Y122531D01*
X165168Y122507D01*
X165204Y122495D01*
X165228Y122483D01*
X165234Y122477D01*
X165427Y122392D01*
X165607Y122332D01*
X165775Y122290D01*
X165847Y122272D01*
X165919Y122260D01*
X165980Y122248D01*
X166034Y122242D01*
X166082Y122236D01*
X166124D01*
X166160Y122230D01*
X163972D01*
X166547D01*
X166202D01*
Y122837D01*
X166052Y122873D01*
X165913Y122927D01*
X165787Y122987D01*
X165685Y123048D01*
X165595Y123108D01*
X165559Y123138D01*
X165529Y123156D01*
X165505Y123180D01*
X165487Y123192D01*
X165481Y123198D01*
X165475Y123204D01*
X165360Y123312D01*
X165258Y123432D01*
X165162Y123540D01*
X165084Y123649D01*
X165018Y123745D01*
X164994Y123781D01*
X164970Y123817D01*
X164952Y123847D01*
X164940Y123865D01*
X164928Y123877D01*
Y123883D01*
X164850Y124033D01*
X164778Y124189D01*
X164717Y124334D01*
X164663Y124466D01*
X164645Y124526D01*
X164627Y124580D01*
X164609Y124628D01*
X164597Y124670D01*
X164585Y124700D01*
X164579Y124730D01*
X164573Y124742D01*
Y124748D01*
X164555Y124809D01*
X164537Y124863D01*
X164519Y124911D01*
X164501Y124941D01*
X164483Y124971D01*
X164471Y124989D01*
X164465Y124995D01*
X164459Y125001D01*
X164435Y125025D01*
X164405Y125043D01*
X164339Y125067D01*
X164315D01*
X164291Y125073D01*
D02*
G37*
G36*
X131025Y125073D02*
X131007D01*
X130959Y125067D01*
X130923Y125055D01*
X130857Y125013D01*
X130833Y124995D01*
X130815Y124977D01*
X130803Y124965D01*
X130797Y124959D01*
X130767Y124917D01*
X130749Y124875D01*
X130725Y124796D01*
X130719Y124760D01*
X130713Y124730D01*
Y124712D01*
Y124706D01*
Y122759D01*
X130719Y122681D01*
X130725Y122609D01*
X130743Y122549D01*
X130761Y122495D01*
X130779Y122453D01*
X130809Y122416D01*
X130833Y122387D01*
X130863Y122362D01*
X130917Y122326D01*
X130959Y122308D01*
X130995Y122302D01*
X131007D01*
X131049Y122308D01*
X131091Y122320D01*
X131158Y122362D01*
X131182Y122380D01*
X131200Y122398D01*
X131212Y122411D01*
X131218Y122416D01*
X131260Y122465D01*
X131296Y122501D01*
X131326Y122531D01*
X131350Y122555D01*
X131362Y122573D01*
X131374Y122585D01*
X131386Y122591D01*
X131434Y122615D01*
X131488Y122621D01*
X131512Y122627D01*
X131548D01*
X131602Y122621D01*
X131650Y122615D01*
X131681Y122603D01*
X131686Y122597D01*
X131693D01*
X131728Y122585D01*
X131771Y122567D01*
X131861Y122531D01*
X131903Y122507D01*
X131939Y122495D01*
X131963Y122483D01*
X131969Y122477D01*
X132161Y122392D01*
X132342Y122332D01*
X132510Y122290D01*
X132582Y122272D01*
X132654Y122260D01*
X132714Y122248D01*
X132768Y122242D01*
X132816Y122236D01*
X132858D01*
X132895Y122230D01*
X130707D01*
X133060D01*
X132937D01*
Y122837D01*
X132786Y122873D01*
X132648Y122927D01*
X132522Y122987D01*
X132420Y123048D01*
X132329Y123108D01*
X132293Y123138D01*
X132263Y123156D01*
X132239Y123180D01*
X132221Y123192D01*
X132215Y123198D01*
X132209Y123204D01*
X132095Y123312D01*
X131993Y123432D01*
X131897Y123540D01*
X131819Y123649D01*
X131753Y123745D01*
X131728Y123781D01*
X131704Y123817D01*
X131686Y123847D01*
X131675Y123865D01*
X131662Y123877D01*
Y123883D01*
X131584Y124033D01*
X131512Y124189D01*
X131452Y124334D01*
X131398Y124466D01*
X131380Y124526D01*
X131362Y124580D01*
X131344Y124628D01*
X131332Y124670D01*
X131320Y124700D01*
X131314Y124730D01*
X131308Y124742D01*
Y124748D01*
X131290Y124809D01*
X131272Y124863D01*
X131254Y124911D01*
X131236Y124941D01*
X131218Y124971D01*
X131206Y124989D01*
X131200Y124995D01*
X131194Y125001D01*
X131170Y125025D01*
X131140Y125043D01*
X131073Y125067D01*
X131049D01*
X131025Y125073D01*
D02*
G37*
G36*
X145789Y120770D02*
X145266D01*
X145212Y120764D01*
X145170Y120746D01*
X145128Y120728D01*
X145092Y120704D01*
X145062Y120674D01*
X145044Y120656D01*
X145032Y120638D01*
X145026Y120632D01*
X144978Y120565D01*
X144936Y120517D01*
X144905Y120475D01*
X144881Y120445D01*
X144863Y120427D01*
X144851Y120415D01*
X144839Y120403D01*
X144803Y120385D01*
X144761Y120373D01*
X144725Y120367D01*
X144713D01*
X144677Y120373D01*
X144635Y120379D01*
X144551Y120403D01*
X144509Y120415D01*
X144485Y120427D01*
X144461Y120439D01*
X144455D01*
X144346Y120481D01*
X144232Y120523D01*
X143998Y120589D01*
X143757Y120650D01*
X143643Y120674D01*
X143529Y120692D01*
X143427Y120710D01*
X143331Y120722D01*
X143241Y120740D01*
X143169Y120746D01*
X143108Y120752D01*
X143060Y120758D01*
X143036Y120764D01*
X143024D01*
Y120187D01*
X143169Y120175D01*
X143301Y120151D01*
X143415Y120127D01*
X143511Y120103D01*
X143589Y120079D01*
X143649Y120055D01*
X143685Y120043D01*
X143698Y120037D01*
X143800Y119983D01*
X143890Y119922D01*
X143974Y119856D01*
X144046Y119796D01*
X144106Y119736D01*
X144154Y119688D01*
X144178Y119658D01*
X144190Y119652D01*
Y119646D01*
X144262Y119550D01*
X144334Y119448D01*
X144401Y119339D01*
X144467Y119237D01*
X144515Y119147D01*
X144539Y119111D01*
X144557Y119075D01*
X144575Y119045D01*
X144581Y119027D01*
X144593Y119015D01*
Y119009D01*
X144665Y118865D01*
X144725Y118732D01*
X144779Y118612D01*
X144815Y118510D01*
X144845Y118426D01*
X144863Y118366D01*
X144875Y118342D01*
Y118324D01*
X144881Y118318D01*
Y118312D01*
X144905Y118234D01*
X144930Y118161D01*
X144954Y118107D01*
X144978Y118065D01*
X144996Y118035D01*
X145008Y118017D01*
X145014Y118005D01*
X145020Y117999D01*
X145050Y117975D01*
X145086Y117957D01*
X145158Y117933D01*
X145188Y117927D01*
X145218Y117921D01*
X145242D01*
X145296Y117927D01*
X145344Y117939D01*
X145380Y117957D01*
X145416Y117987D01*
X145470Y118053D01*
X145507Y118125D01*
X145525Y118203D01*
X145536Y118264D01*
X145543Y118294D01*
Y118312D01*
Y118324D01*
Y118330D01*
Y120409D01*
Y120475D01*
X145530Y120535D01*
X145525Y120583D01*
X145512Y120619D01*
X145501Y120650D01*
X145488Y120668D01*
X145482Y120680D01*
X145476Y120686D01*
X145452Y120716D01*
X145416Y120734D01*
X145350Y120758D01*
X145314Y120764D01*
X145290Y120770D01*
X145789D01*
D02*
G37*
G36*
X142586D02*
X142483D01*
X142387Y120764D01*
X142303Y120752D01*
X142231Y120746D01*
X142171Y120734D01*
X142129Y120722D01*
X142105Y120716D01*
X142093D01*
X141906Y120662D01*
X141732Y120596D01*
X141570Y120523D01*
X141432Y120451D01*
X141372Y120421D01*
X141317Y120391D01*
X141269Y120361D01*
X141227Y120337D01*
X141191Y120319D01*
X141167Y120301D01*
X141155Y120295D01*
X141149Y120289D01*
X141011Y120193D01*
X140885Y120085D01*
X140759Y119976D01*
X140650Y119862D01*
X140542Y119748D01*
X140446Y119634D01*
X140362Y119520D01*
X140284Y119412D01*
X140212Y119309D01*
X140152Y119213D01*
X140103Y119129D01*
X140061Y119051D01*
X140025Y118991D01*
X140001Y118949D01*
X139989Y118919D01*
X139983Y118907D01*
X139911Y118738D01*
X139851Y118564D01*
X139797Y118390D01*
X139749Y118216D01*
X139713Y118047D01*
X139677Y117879D01*
X139653Y117717D01*
X139629Y117560D01*
X139617Y117422D01*
X139605Y117290D01*
X139593Y117176D01*
X139587Y117074D01*
X139581Y116996D01*
Y120770D01*
D01*
Y113179D01*
X145789D01*
D01*
X142940D01*
X143042Y113185D01*
X143150Y113191D01*
X143253Y113203D01*
X143349Y113215D01*
X143427Y113227D01*
X143493Y113239D01*
X143517Y113245D01*
X143535Y113251D01*
X143553D01*
X143685Y113281D01*
X143806Y113311D01*
X143914Y113335D01*
X144010Y113365D01*
X144088Y113390D01*
X144148Y113408D01*
X144166Y113414D01*
X144184Y113420D01*
X144190Y113426D01*
X144196D01*
X144316Y113480D01*
X144437Y113540D01*
X144551Y113594D01*
X144653Y113654D01*
X144743Y113702D01*
X144779Y113726D01*
X144809Y113744D01*
X144833Y113756D01*
X144851Y113768D01*
X144863Y113780D01*
X144869D01*
X144996Y113864D01*
X145110Y113942D01*
X145206Y114015D01*
X145290Y114081D01*
X145356Y114135D01*
X145398Y114177D01*
X145428Y114201D01*
X145440Y114213D01*
Y116040D01*
Y116100D01*
X145446Y116148D01*
Y116190D01*
X145452Y116220D01*
X145458Y116244D01*
Y116262D01*
X145464Y116274D01*
X145476Y116298D01*
X145494Y116322D01*
X145543Y116370D01*
X145579Y116401D01*
X145591Y116407D01*
X145597Y116412D01*
X145633Y116437D01*
X145669Y116467D01*
X145711Y116509D01*
X145741Y116539D01*
X145747Y116551D01*
X145771Y116611D01*
X145783Y116665D01*
X145789Y116689D01*
Y116725D01*
X145783Y116779D01*
X145771Y116827D01*
X145759Y116869D01*
X145741Y116899D01*
X145717Y116923D01*
X145705Y116941D01*
X145693Y116953D01*
X145687D01*
X145645Y116978D01*
X145591Y116996D01*
X145482Y117020D01*
X145428D01*
X145386Y117026D01*
X143211D01*
X143126Y117020D01*
X143054Y117014D01*
X142994Y117001D01*
X142946Y116990D01*
X142904Y116972D01*
X142880Y116959D01*
X142862Y116953D01*
X142856Y116947D01*
X142820Y116917D01*
X142790Y116881D01*
X142772Y116845D01*
X142754Y116815D01*
X142748Y116779D01*
X142742Y116755D01*
Y116737D01*
Y116731D01*
X142754Y116653D01*
X142784Y116587D01*
X142820Y116533D01*
X142868Y116497D01*
X142916Y116467D01*
X142952Y116449D01*
X142982Y116443D01*
X142994Y116437D01*
X143066Y116419D01*
X143121Y116407D01*
X143163Y116394D01*
X143199Y116388D01*
X143217Y116376D01*
X143235D01*
X143241Y116370D01*
X143265Y116352D01*
X143289Y116334D01*
X143307Y116310D01*
X143313Y116304D01*
X143343Y116268D01*
X143361Y116220D01*
X143385Y116118D01*
X143391Y116076D01*
X143397Y116040D01*
Y116016D01*
Y116004D01*
Y114441D01*
X143391Y114351D01*
X143385Y114267D01*
X143367Y114195D01*
X143349Y114135D01*
X143331Y114087D01*
X143319Y114051D01*
X143307Y114027D01*
X143301Y114021D01*
X143259Y113954D01*
X143217Y113912D01*
X143181Y113882D01*
X143175Y113870D01*
X143169D01*
X143139Y113852D01*
X143103Y113834D01*
X143030Y113804D01*
X142994Y113792D01*
X142964Y113786D01*
X142946Y113780D01*
X142940D01*
Y113179D01*
X142489D01*
Y113780D01*
X142411Y113816D01*
X142345Y113852D01*
X142297Y113888D01*
X142255Y113924D01*
X142231Y113954D01*
X142207Y113979D01*
X142201Y113997D01*
X142195Y114003D01*
X142171Y114063D01*
X142153Y114135D01*
X142135Y114207D01*
X142129Y114279D01*
X142123Y114345D01*
X142117Y114393D01*
Y114429D01*
Y114435D01*
Y114441D01*
Y119424D01*
X142123Y119538D01*
X142135Y119640D01*
X142159Y119730D01*
X142189Y119808D01*
X142225Y119880D01*
X142267Y119940D01*
X142309Y119994D01*
X142351Y120037D01*
X142393Y120073D01*
X142435Y120103D01*
X142477Y120127D01*
X142514Y120145D01*
X142543Y120163D01*
X142568Y120169D01*
X142580Y120175D01*
X142586D01*
Y120770D01*
D02*
G37*
G36*
X172077Y120626D02*
X171975D01*
Y120043D01*
X172071Y120025D01*
X172149Y120001D01*
X172221Y119971D01*
X172281Y119934D01*
X172329Y119904D01*
X172359Y119880D01*
X172383Y119862D01*
X172389Y119856D01*
X172431Y119820D01*
X172461Y119778D01*
X172485Y119742D01*
X172509Y119706D01*
X172521Y119676D01*
X172533Y119652D01*
X172539Y119634D01*
Y119628D01*
X172552Y119580D01*
X172564Y119520D01*
X172575Y119399D01*
X172582Y119345D01*
Y119303D01*
Y119273D01*
Y119261D01*
Y117548D01*
X172575Y117422D01*
X172564Y117308D01*
X172546Y117212D01*
X172527Y117134D01*
X172503Y117068D01*
X172485Y117020D01*
X172473Y116996D01*
X172467Y116983D01*
X172413Y116905D01*
X172359Y116851D01*
X172323Y116815D01*
X172311Y116809D01*
X172305Y116803D01*
X172263Y116779D01*
X172215Y116761D01*
X172113Y116725D01*
X172065Y116707D01*
X172023Y116701D01*
X171999Y116689D01*
X171986D01*
Y116118D01*
X172173D01*
X172341Y116124D01*
X172503Y116136D01*
X172654Y116148D01*
X172792Y116166D01*
X172918Y116178D01*
X173038Y116196D01*
X173140Y116220D01*
X173231Y116238D01*
X173315Y116256D01*
X173381Y116268D01*
X173435Y116286D01*
X173483Y116298D01*
X173513Y116310D01*
X173531Y116316D01*
X173537D01*
X173657Y116365D01*
X173772Y116419D01*
X173874Y116479D01*
X173970Y116539D01*
X174066Y116605D01*
X174144Y116665D01*
X174222Y116731D01*
X174288Y116791D01*
X174348Y116851D01*
X174402Y116905D01*
X174451Y116953D01*
X174487Y116996D01*
X174517Y117032D01*
X174535Y117056D01*
X174547Y117074D01*
X174553Y117080D01*
X174619Y117182D01*
X174673Y117290D01*
X174721Y117398D01*
X174763Y117512D01*
X174799Y117627D01*
X174829Y117735D01*
X174853Y117849D01*
X174871Y117951D01*
X174889Y118053D01*
X174901Y118143D01*
X174907Y118222D01*
X174913Y118294D01*
X174919Y118354D01*
Y118432D01*
X174913Y118564D01*
X174901Y118696D01*
X174883Y118817D01*
X174865Y118937D01*
X174835Y119045D01*
X174805Y119147D01*
X174775Y119243D01*
X174739Y119327D01*
X174703Y119405D01*
X174673Y119478D01*
X174643Y119538D01*
X174613Y119586D01*
X174595Y119622D01*
X174577Y119652D01*
X174565Y119670D01*
X174559Y119676D01*
X174493Y119766D01*
X174415Y119850D01*
X174258Y120001D01*
X174102Y120127D01*
X173946Y120235D01*
X173880Y120277D01*
X173814Y120313D01*
X173753Y120343D01*
X173705Y120367D01*
X173663Y120391D01*
X173627Y120403D01*
X173609Y120415D01*
X173603D01*
X173495Y120451D01*
X173381Y120487D01*
X173255Y120511D01*
X173128Y120535D01*
X172858Y120571D01*
X172720Y120589D01*
X172593Y120601D01*
X172467Y120607D01*
X172353Y120614D01*
X172245Y120620D01*
X172155D01*
X172077Y120626D01*
D02*
G37*
G36*
X171548D02*
X168609D01*
Y118648D01*
Y120343D01*
X168621Y120271D01*
X168645Y120205D01*
X168675Y120157D01*
X168717Y120121D01*
X168753Y120091D01*
X168789Y120067D01*
X168813Y120061D01*
X168819Y120055D01*
X168879Y120037D01*
X168927Y120019D01*
X168964Y120007D01*
X168988Y119994D01*
X169006Y119989D01*
X169018D01*
X169024Y119983D01*
X169048Y119971D01*
X169066Y119946D01*
X169084Y119928D01*
X169090Y119922D01*
X169114Y119886D01*
X169126Y119844D01*
X169150Y119754D01*
Y119718D01*
X169156Y119682D01*
Y119658D01*
Y119652D01*
Y114297D01*
Y114231D01*
X169144Y114171D01*
X169138Y114123D01*
X169126Y114087D01*
X169114Y114057D01*
X169102Y114039D01*
X169096Y114027D01*
X169090Y114021D01*
X169066Y113990D01*
X169042Y113972D01*
X169030Y113961D01*
X169024D01*
X169006Y113954D01*
X168982Y113942D01*
X168951Y113930D01*
X168915Y113918D01*
X168879Y113906D01*
X168849Y113900D01*
X168825Y113888D01*
X168819D01*
X168747Y113858D01*
X168699Y113810D01*
X168663Y113768D01*
X168633Y113720D01*
X168621Y113672D01*
X168615Y113636D01*
X168609Y113612D01*
Y113642D01*
Y113323D01*
Y113600D01*
X168615Y113552D01*
X168627Y113510D01*
X168639Y113480D01*
X168663Y113450D01*
X168681Y113426D01*
X168693Y113408D01*
X168705Y113401D01*
X168711Y113396D01*
X168753Y113372D01*
X168801Y113354D01*
X168897Y113335D01*
X168939Y113329D01*
X168975Y113323D01*
X168609D01*
X174919D01*
D01*
X171800D01*
X171866Y113335D01*
X171926Y113341D01*
X171968Y113354D01*
X172004Y113365D01*
X172029Y113372D01*
X172041Y113383D01*
X172047D01*
X172095Y113420D01*
X172131Y113456D01*
X172155Y113492D01*
X172173Y113528D01*
X172185Y113564D01*
X172191Y113588D01*
Y113606D01*
Y113612D01*
Y113654D01*
X172179Y113690D01*
X172149Y113756D01*
X172107Y113810D01*
X172065Y113846D01*
X172017Y113876D01*
X171975Y113894D01*
X171944Y113906D01*
X171932D01*
X171860Y113924D01*
X171806Y113936D01*
X171764Y113949D01*
X171728Y113954D01*
X171710Y113961D01*
X171698Y113967D01*
X171686D01*
X171656Y113985D01*
X171632Y114008D01*
X171614Y114033D01*
X171608Y114039D01*
X171584Y114075D01*
X171566Y114123D01*
X171542Y114225D01*
X171536Y114267D01*
X171530Y114303D01*
Y114327D01*
Y114339D01*
Y120626D01*
X171548D01*
D02*
G37*
G36*
X149509Y120625D02*
X146588D01*
X146985D01*
X146919Y120619D01*
X146859Y120614D01*
X146805Y120601D01*
X146769Y120589D01*
X146732Y120571D01*
X146709Y120559D01*
X146696Y120553D01*
X146690Y120547D01*
X146654Y120517D01*
X146630Y120487D01*
X146612Y120451D01*
X146600Y120421D01*
X146594Y120391D01*
X146588Y120367D01*
Y113179D01*
D01*
Y113600D01*
X146594Y113552D01*
X146606Y113510D01*
X146618Y113480D01*
X146642Y113450D01*
X146660Y113426D01*
X146672Y113408D01*
X146684Y113401D01*
X146690Y113396D01*
X146732Y113372D01*
X146781Y113353D01*
X146877Y113335D01*
X146919Y113329D01*
X146955Y113323D01*
X149780D01*
X149846Y113335D01*
X149906Y113341D01*
X149948Y113353D01*
X149984Y113365D01*
X150008Y113372D01*
X150020Y113383D01*
X150026D01*
X150074Y113420D01*
X150110Y113456D01*
X150134Y113492D01*
X150152Y113528D01*
X150164Y113564D01*
X150170Y113588D01*
Y113606D01*
Y113612D01*
Y113654D01*
X150158Y113690D01*
X150128Y113756D01*
X150086Y113810D01*
X150044Y113846D01*
X149996Y113876D01*
X149954Y113894D01*
X149924Y113906D01*
X149912D01*
X149840Y113924D01*
X149786Y113936D01*
X149743Y113948D01*
X149707Y113954D01*
X149689Y113961D01*
X149677Y113967D01*
X149665D01*
X149635Y113985D01*
X149611Y114008D01*
X149593Y114033D01*
X149587Y114039D01*
X149563Y114075D01*
X149545Y114123D01*
X149521Y114225D01*
X149515Y114267D01*
X149509Y114303D01*
Y114327D01*
Y114339D01*
Y120625D01*
D02*
G37*
G36*
X167419Y120626D02*
X165426D01*
X165940D01*
X165868Y120614D01*
X165814Y120607D01*
X165766Y120596D01*
X165730Y120583D01*
X165706Y120578D01*
X165694Y120565D01*
X165688D01*
X165658Y120541D01*
X165634Y120511D01*
X165616Y120475D01*
X165604Y120445D01*
X165598Y120415D01*
X165592Y120391D01*
Y120373D01*
Y120367D01*
X165598Y120289D01*
X165616Y120235D01*
X165634Y120199D01*
X165640Y120187D01*
X165664Y120163D01*
X165694Y120139D01*
X165766Y120091D01*
X165802Y120067D01*
X165832Y120055D01*
X165850Y120043D01*
X165856Y120037D01*
X165958Y119976D01*
X166043Y119910D01*
X166121Y119838D01*
X166181Y119754D01*
X166235Y119670D01*
X166283Y119586D01*
X166319Y119502D01*
X166349Y119418D01*
X166373Y119339D01*
X166391Y119261D01*
X166403Y119195D01*
X166415Y119135D01*
Y119087D01*
X166421Y119045D01*
Y119021D01*
Y119015D01*
Y115529D01*
X166415Y115385D01*
X166403Y115247D01*
X166385Y115120D01*
X166355Y115006D01*
X166325Y114898D01*
X166295Y114796D01*
X166253Y114706D01*
X166217Y114628D01*
X166181Y114556D01*
X166145Y114489D01*
X166109Y114435D01*
X166079Y114393D01*
X166049Y114357D01*
X166031Y114333D01*
X166019Y114321D01*
X166013Y114315D01*
X165940Y114249D01*
X165868Y114189D01*
X165796Y114141D01*
X165718Y114093D01*
X165574Y114015D01*
X165430Y113961D01*
X165364Y113936D01*
X165303Y113918D01*
X165255Y113906D01*
X165207Y113894D01*
X165171Y113888D01*
X165141Y113882D01*
X165123Y113876D01*
X165117D01*
Y113179D01*
X165008D01*
X167804D01*
X165117D01*
X165249Y113203D01*
X165375Y113233D01*
X165484Y113263D01*
X165574Y113293D01*
X165652Y113323D01*
X165706Y113347D01*
X165742Y113359D01*
X165754Y113365D01*
X165946Y113468D01*
X166031Y113522D01*
X166115Y113582D01*
X166187Y113636D01*
X166259Y113696D01*
X166319Y113750D01*
X166373Y113804D01*
X166427Y113852D01*
X166469Y113900D01*
X166505Y113942D01*
X166535Y113979D01*
X166560Y114008D01*
X166577Y114033D01*
X166584Y114045D01*
X166589Y114051D01*
X166662Y114165D01*
X166722Y114279D01*
X166776Y114399D01*
X166818Y114525D01*
X166860Y114646D01*
X166890Y114772D01*
X166914Y114892D01*
X166938Y115006D01*
X166956Y115108D01*
X166968Y115210D01*
X166974Y115301D01*
X166980Y115373D01*
X166986Y115439D01*
Y115481D01*
Y115511D01*
Y115523D01*
Y119015D01*
X166992Y119141D01*
X167004Y119255D01*
X167028Y119357D01*
X167052Y119448D01*
X167076Y119520D01*
X167100Y119574D01*
X167112Y119610D01*
X167118Y119622D01*
X167173Y119712D01*
X167233Y119796D01*
X167293Y119862D01*
X167353Y119916D01*
X167407Y119958D01*
X167449Y119989D01*
X167473Y120007D01*
X167485Y120012D01*
X167551Y120055D01*
X167605Y120085D01*
X167647Y120109D01*
X167677Y120133D01*
X167695Y120145D01*
X167707Y120151D01*
X167713Y120157D01*
X167744Y120187D01*
X167768Y120223D01*
X167780Y120253D01*
X167791Y120283D01*
X167798Y120313D01*
X167804Y120337D01*
Y120355D01*
X167798Y120403D01*
X167780Y120445D01*
X167755Y120487D01*
X167731Y120517D01*
X167707Y120541D01*
X167683Y120559D01*
X167665Y120565D01*
X167659Y120571D01*
X167623Y120596D01*
X167587Y120607D01*
X167563Y120614D01*
X167551D01*
X167527Y120620D01*
X167491D01*
X167419Y120626D01*
D02*
G37*
G36*
X164167D02*
X161102D01*
X161499D01*
X161433Y120620D01*
X161373Y120614D01*
X161319Y120601D01*
X161283Y120589D01*
X161247Y120571D01*
X161223Y120559D01*
X161211Y120553D01*
X161205Y120547D01*
X161169Y120517D01*
X161144Y120487D01*
X161126Y120451D01*
X161114Y120415D01*
X161108Y120385D01*
X161102Y120361D01*
Y120337D01*
X161114Y120265D01*
X161138Y120205D01*
X161169Y120157D01*
X161211Y120115D01*
X161247Y120091D01*
X161283Y120067D01*
X161307Y120061D01*
X161313Y120055D01*
X161373Y120037D01*
X161421Y120019D01*
X161457Y120007D01*
X161481Y119994D01*
X161499Y119989D01*
X161511D01*
X161517Y119983D01*
X161541Y119971D01*
X161559Y119946D01*
X161577Y119928D01*
X161583Y119922D01*
X161607Y119886D01*
X161619Y119844D01*
X161643Y119754D01*
Y119718D01*
X161649Y119682D01*
Y119658D01*
Y119652D01*
Y115457D01*
Y115325D01*
X161655Y115205D01*
X161667Y115090D01*
X161679Y114982D01*
X161691Y114886D01*
X161709Y114796D01*
X161721Y114712D01*
X161740Y114640D01*
X161758Y114574D01*
X161776Y114519D01*
X161788Y114471D01*
X161800Y114435D01*
X161812Y114405D01*
X161824Y114381D01*
X161830Y114369D01*
Y114363D01*
X161902Y114237D01*
X161992Y114117D01*
X162082Y114008D01*
X162178Y113912D01*
X162262Y113834D01*
X162335Y113774D01*
X162364Y113756D01*
X162382Y113738D01*
X162395Y113732D01*
X162401Y113726D01*
X162557Y113630D01*
X162719Y113540D01*
X162881Y113468D01*
X163032Y113408D01*
X163098Y113383D01*
X163158Y113365D01*
X163212Y113347D01*
X163260Y113329D01*
X163296Y113317D01*
X163326Y113311D01*
X163344Y113305D01*
X163350D01*
X163530Y113263D01*
X163729Y113233D01*
X163921Y113209D01*
X164101Y113197D01*
X164186Y113191D01*
X164264Y113185D01*
X164336D01*
X164396Y113179D01*
X164624D01*
Y113876D01*
X164540Y113906D01*
X164474Y113930D01*
X164414Y113954D01*
X164372Y113972D01*
X164342Y113985D01*
X164318Y113997D01*
X164306Y114008D01*
X164300D01*
X164270Y114033D01*
X164240Y114063D01*
X164192Y114129D01*
X164173Y114159D01*
X164155Y114177D01*
X164149Y114195D01*
X164144Y114201D01*
X164095Y114315D01*
X164083Y114369D01*
X164071Y114417D01*
X164059Y114459D01*
X164053Y114495D01*
X164047Y114519D01*
Y114525D01*
X164041Y114561D01*
Y114603D01*
X164035Y114700D01*
X164029Y114808D01*
Y114910D01*
X164023Y115006D01*
Y115048D01*
Y115090D01*
Y115120D01*
Y115144D01*
Y115156D01*
Y115163D01*
Y119652D01*
Y119718D01*
X164035Y119772D01*
X164041Y119820D01*
X164053Y119856D01*
X164065Y119886D01*
X164071Y119904D01*
X164083Y119916D01*
Y119922D01*
X164107Y119952D01*
X164125Y119971D01*
X164137Y119983D01*
X164144D01*
X164162Y119989D01*
X164192Y120001D01*
X164222Y120012D01*
X164258Y120025D01*
X164294Y120037D01*
X164324Y120043D01*
X164348Y120055D01*
X164354D01*
X164426Y120085D01*
X164480Y120127D01*
X164516Y120175D01*
X164546Y120223D01*
X164558Y120265D01*
X164564Y120301D01*
X164570Y120331D01*
Y120337D01*
X164558Y120403D01*
X164540Y120457D01*
X164522Y120487D01*
X164510Y120499D01*
X164462Y120547D01*
X164414Y120578D01*
X164378Y120596D01*
X164366Y120601D01*
X164360D01*
X164167Y120626D01*
D02*
G37*
G36*
X161102Y119892D02*
Y113179D01*
D01*
Y119892D01*
D02*
G37*
G36*
X157520Y120770D02*
X157496D01*
Y120187D01*
X157556Y120169D01*
X157605Y120145D01*
X157647Y120127D01*
X157683Y120109D01*
X157713Y120091D01*
X157731Y120079D01*
X157743Y120073D01*
X157749Y120067D01*
X157809Y120012D01*
X157857Y119952D01*
X157875Y119928D01*
X157887Y119910D01*
X157899Y119898D01*
Y119892D01*
X157935Y119826D01*
X157959Y119754D01*
X157977Y119676D01*
X157989Y119604D01*
X157995Y119538D01*
X158001Y119490D01*
Y119454D01*
Y119448D01*
Y119442D01*
Y114658D01*
X157995Y114501D01*
X157977Y114369D01*
X157953Y114255D01*
X157929Y114159D01*
X157899Y114087D01*
X157875Y114039D01*
X157857Y114008D01*
X157851Y113997D01*
X157803Y113930D01*
X157761Y113888D01*
X157725Y113858D01*
X157719Y113846D01*
X157713D01*
X157647Y113810D01*
X157574Y113786D01*
X157545Y113774D01*
X157520Y113768D01*
X157502Y113762D01*
X157496D01*
Y113179D01*
X157058D01*
Y113762D01*
X156962Y113792D01*
X156889Y113828D01*
X156823Y113870D01*
X156775Y113906D01*
X156733Y113942D01*
X156709Y113972D01*
X156697Y113990D01*
X156691Y113997D01*
X156667Y114039D01*
X156649Y114081D01*
X156619Y114183D01*
X156595Y114291D01*
X156583Y114399D01*
X156571Y114501D01*
Y114543D01*
X156565Y114579D01*
Y114616D01*
Y114640D01*
Y114652D01*
Y114658D01*
Y119442D01*
X156571Y119556D01*
X156583Y119652D01*
X156601Y119736D01*
X156619Y119802D01*
X156637Y119856D01*
X156655Y119892D01*
X156667Y119916D01*
X156673Y119922D01*
X156721Y119983D01*
X156781Y120037D01*
X156847Y120079D01*
X156907Y120121D01*
X156967Y120145D01*
X157016Y120169D01*
X157046Y120181D01*
X157058Y120187D01*
Y120770D01*
D01*
X156847Y120752D01*
X156649Y120722D01*
X156469Y120680D01*
X156391Y120662D01*
X156312Y120638D01*
X156246Y120619D01*
X156180Y120596D01*
X156132Y120578D01*
X156084Y120565D01*
X156048Y120547D01*
X156024Y120541D01*
X156006Y120529D01*
X156000D01*
X155826Y120445D01*
X155663Y120349D01*
X155513Y120247D01*
X155381Y120151D01*
X155321Y120103D01*
X155273Y120061D01*
X155225Y120025D01*
X155189Y119989D01*
X155158Y119958D01*
X155134Y119940D01*
X155122Y119928D01*
X155116Y119922D01*
X155020Y119820D01*
X154924Y119718D01*
X154840Y119610D01*
X154762Y119502D01*
X154690Y119394D01*
X154618Y119291D01*
X154558Y119189D01*
X154503Y119087D01*
X154455Y118997D01*
X154413Y118913D01*
X154377Y118841D01*
X154353Y118774D01*
X154329Y118720D01*
X154311Y118684D01*
X154305Y118654D01*
X154299Y118648D01*
X154251Y118504D01*
X154209Y118360D01*
X154143Y118071D01*
X154095Y117789D01*
X154077Y117651D01*
X154065Y117524D01*
X154053Y117410D01*
X154041Y117302D01*
X154035Y117206D01*
Y117122D01*
X154029Y117056D01*
Y120770D01*
D01*
Y113179D01*
X160538Y113179D01*
X157496D01*
X157713Y113203D01*
X157923Y113245D01*
X158122Y113299D01*
X158308Y113359D01*
X158488Y113426D01*
X158650Y113504D01*
X158801Y113582D01*
X158939Y113660D01*
X159065Y113738D01*
X159173Y113810D01*
X159269Y113882D01*
X159347Y113942D01*
X159408Y113997D01*
X159456Y114033D01*
X159480Y114063D01*
X159492Y114069D01*
X159588Y114171D01*
X159678Y114273D01*
X159834Y114489D01*
X159978Y114724D01*
X160099Y114958D01*
X160195Y115199D01*
X160285Y115445D01*
X160351Y115679D01*
X160405Y115908D01*
X160447Y116124D01*
X160483Y116322D01*
X160507Y116503D01*
X160513Y116587D01*
X160519Y116659D01*
X160526Y116725D01*
X160531Y116785D01*
Y116839D01*
X160538Y116881D01*
Y117140D01*
X160526Y117308D01*
X160489Y117639D01*
X160435Y117939D01*
X160369Y118228D01*
X160285Y118492D01*
X160189Y118732D01*
X160093Y118955D01*
X159991Y119153D01*
X159888Y119333D01*
X159792Y119484D01*
X159696Y119616D01*
X159612Y119724D01*
X159546Y119814D01*
X159516Y119844D01*
X159492Y119874D01*
X159474Y119892D01*
X159456Y119910D01*
X159450Y119922D01*
X159444D01*
X159287Y120067D01*
X159131Y120187D01*
X158981Y120289D01*
X158843Y120379D01*
X158776Y120415D01*
X158722Y120445D01*
X158674Y120469D01*
X158632Y120493D01*
X158596Y120505D01*
X158572Y120517D01*
X158554Y120529D01*
X158548D01*
X158368Y120601D01*
X158182Y120656D01*
X158007Y120698D01*
X157845Y120728D01*
X157773Y120740D01*
X157707Y120752D01*
X157647Y120758D01*
X157593Y120764D01*
X157551D01*
X157520Y120770D01*
D02*
G37*
G36*
X150278Y120625D02*
X149930D01*
Y120031D01*
X150050Y119994D01*
X150146Y119946D01*
X150230Y119904D01*
X150296Y119862D01*
X150345Y119826D01*
X150381Y119796D01*
X150399Y119772D01*
X150405Y119766D01*
X150447Y119694D01*
X150483Y119616D01*
X150507Y119532D01*
X150519Y119454D01*
X150531Y119376D01*
X150537Y119315D01*
Y119291D01*
Y119273D01*
Y119267D01*
Y119261D01*
Y117849D01*
Y117765D01*
X150531Y117687D01*
X150525Y117627D01*
X150519Y117572D01*
X150507Y117536D01*
X150501Y117506D01*
X150495Y117488D01*
Y117482D01*
X150477Y117440D01*
X150453Y117398D01*
X150405Y117332D01*
X150381Y117302D01*
X150363Y117284D01*
X150350Y117272D01*
X150345Y117266D01*
X150290Y117230D01*
X150230Y117200D01*
X150098Y117152D01*
X150032Y117134D01*
X149984Y117122D01*
X149948Y117116D01*
X149936D01*
Y116539D01*
X150038Y116521D01*
X150128Y116491D01*
X150206Y116455D01*
X150266Y116419D01*
X150314Y116383D01*
X150350Y116352D01*
X150375Y116328D01*
X150381Y116322D01*
X150423Y116262D01*
X150453Y116196D01*
X150483Y116136D01*
X150501Y116076D01*
X150513Y116028D01*
X150525Y115986D01*
X150531Y115962D01*
Y115950D01*
Y115920D01*
X150537Y115878D01*
Y115818D01*
Y115763D01*
Y115703D01*
Y115655D01*
Y115619D01*
Y115613D01*
Y115607D01*
Y114706D01*
X150543Y114574D01*
X150555Y114453D01*
X150573Y114333D01*
X150597Y114225D01*
X150627Y114123D01*
X150663Y114033D01*
X150693Y113948D01*
X150735Y113876D01*
X150771Y113804D01*
X150801Y113750D01*
X150837Y113696D01*
X150867Y113654D01*
X150891Y113624D01*
X150909Y113600D01*
X150921Y113588D01*
X150927Y113582D01*
X151006Y113510D01*
X151090Y113450D01*
X151180Y113396D01*
X151270Y113347D01*
X151360Y113311D01*
X151450Y113275D01*
X151631Y113227D01*
X151715Y113215D01*
X151787Y113203D01*
X151859Y113191D01*
X151919Y113185D01*
X151967Y113179D01*
X146588D01*
X153668D01*
D01*
X152033D01*
X152160Y113185D01*
X152274Y113191D01*
X152376Y113203D01*
X152466Y113221D01*
X152538Y113233D01*
X152592Y113245D01*
X152622Y113251D01*
X152634Y113257D01*
X152731Y113287D01*
X152821Y113329D01*
X152899Y113372D01*
X152971Y113414D01*
X153031Y113450D01*
X153079Y113480D01*
X153103Y113504D01*
X153115Y113510D01*
X153199Y113582D01*
X153277Y113654D01*
X153343Y113726D01*
X153398Y113792D01*
X153446Y113846D01*
X153476Y113888D01*
X153500Y113918D01*
X153506Y113930D01*
X153560Y114015D01*
X153602Y114093D01*
X153626Y114165D01*
X153650Y114225D01*
X153662Y114267D01*
X153668Y114303D01*
Y114339D01*
Y114333D01*
X153662Y114369D01*
X153656Y114405D01*
X153620Y114465D01*
X153602Y114489D01*
X153590Y114507D01*
X153578Y114519D01*
X153572Y114525D01*
X153536Y114561D01*
X153506Y114585D01*
X153476Y114603D01*
X153446Y114616D01*
X153428Y114622D01*
X153410Y114628D01*
X153392D01*
X153338Y114622D01*
X153289Y114597D01*
X153241Y114567D01*
X153199Y114537D01*
X153169Y114501D01*
X153139Y114471D01*
X153121Y114447D01*
X153115Y114441D01*
X153079Y114399D01*
X153055Y114369D01*
X153037Y114357D01*
X153031Y114351D01*
X153007Y114339D01*
X152983Y114333D01*
X152965Y114327D01*
X152959D01*
X152923Y114333D01*
X152899Y114351D01*
X152875Y114381D01*
X152863Y114411D01*
X152857Y114441D01*
X152851Y114471D01*
Y114489D01*
Y114495D01*
Y115607D01*
X152845Y115703D01*
X152833Y115787D01*
X152809Y115872D01*
X152791Y115944D01*
X152767Y116004D01*
X152743Y116046D01*
X152731Y116076D01*
X152725Y116088D01*
X152676Y116172D01*
X152622Y116250D01*
X152562Y116316D01*
X152508Y116376D01*
X152460Y116419D01*
X152418Y116455D01*
X152394Y116479D01*
X152382Y116485D01*
X152304Y116539D01*
X152220Y116587D01*
X152141Y116629D01*
X152063Y116665D01*
X152003Y116695D01*
X151949Y116713D01*
X151919Y116725D01*
X151913Y116731D01*
X151907D01*
X151799Y116767D01*
X151679Y116797D01*
X151552Y116827D01*
X151432Y116851D01*
X151318Y116869D01*
X151270Y116881D01*
X151234Y116887D01*
X151198Y116893D01*
X151174D01*
X151156Y116899D01*
X151150D01*
X151246Y116929D01*
X151342Y116959D01*
X151426Y116983D01*
X151504Y117014D01*
X151577Y117038D01*
X151643Y117062D01*
X151703Y117086D01*
X151757Y117104D01*
X151805Y117122D01*
X151841Y117140D01*
X151877Y117152D01*
X151907Y117164D01*
X151925Y117176D01*
X151943Y117182D01*
X151955Y117188D01*
X152051Y117236D01*
X152141Y117290D01*
X152220Y117350D01*
X152286Y117398D01*
X152340Y117446D01*
X152382Y117482D01*
X152412Y117512D01*
X152418Y117518D01*
X152502Y117614D01*
X152574Y117711D01*
X152640Y117813D01*
X152694Y117915D01*
X152736Y118017D01*
X152779Y118119D01*
X152809Y118222D01*
X152833Y118318D01*
X152851Y118408D01*
X152869Y118492D01*
X152881Y118564D01*
X152887Y118630D01*
X152893Y118684D01*
Y118720D01*
Y118750D01*
Y118756D01*
X152887Y118925D01*
X152863Y119081D01*
X152827Y119231D01*
X152785Y119363D01*
X152731Y119496D01*
X152670Y119610D01*
X152604Y119718D01*
X152544Y119808D01*
X152478Y119892D01*
X152412Y119971D01*
X152352Y120031D01*
X152298Y120085D01*
X152256Y120121D01*
X152220Y120151D01*
X152196Y120169D01*
X152190Y120175D01*
X152099Y120235D01*
X152003Y120295D01*
X151907Y120343D01*
X151811Y120385D01*
X151625Y120457D01*
X151450Y120505D01*
X151372Y120529D01*
X151300Y120541D01*
X151240Y120553D01*
X151186Y120565D01*
X151138Y120571D01*
X151108Y120578D01*
X151078D01*
X150916Y120596D01*
X150747Y120607D01*
X150579Y120614D01*
X150417Y120619D01*
X150345D01*
X150278Y120625D01*
D02*
G37*
%LPD*%
G36*
X136897Y129322D02*
X136921Y129256D01*
X136951Y129208D01*
X136993Y129172D01*
X137029Y129142D01*
X137065Y129118D01*
X137090Y129112D01*
X137095Y129106D01*
X137156Y129088D01*
X137204Y129070D01*
X137240Y129058D01*
X137264Y129046D01*
X137282Y129040D01*
X137294D01*
X137300Y129034D01*
X137324Y129022D01*
X137342Y128998D01*
X137360Y128979D01*
X137366Y128973D01*
X137390Y128937D01*
X137402Y128895D01*
X137426Y128805D01*
Y128769D01*
X137432Y128733D01*
Y128709D01*
Y128703D01*
Y123348D01*
Y123282D01*
X137420Y123222D01*
X137414Y123174D01*
X137402Y123138D01*
X137390Y123108D01*
X137378Y123090D01*
X137372Y123078D01*
X137366Y123072D01*
X137342Y123042D01*
X137318Y123023D01*
X137306Y123012D01*
X137300D01*
X137282Y123005D01*
X137258Y122994D01*
X137228Y122982D01*
X137192Y122969D01*
X137156Y122957D01*
X137126Y122951D01*
X137101Y122939D01*
X137095D01*
X137023Y122909D01*
X136975Y122861D01*
X136939Y122819D01*
X136909Y122771D01*
X136897Y122723D01*
X136891Y122687D01*
X136885Y122663D01*
Y129394D01*
X136897Y129322D01*
D02*
G37*
G36*
X163437Y122230D02*
X161803D01*
X161929Y122236D01*
X162043Y122242D01*
X162145Y122254D01*
X162235Y122272D01*
X162307Y122284D01*
X162362Y122296D01*
X162392Y122302D01*
X162404Y122308D01*
X162500Y122338D01*
X162590Y122380D01*
X162668Y122423D01*
X162740Y122465D01*
X162800Y122501D01*
X162848Y122531D01*
X162872Y122555D01*
X162884Y122561D01*
X162969Y122633D01*
X163047Y122705D01*
X163113Y122777D01*
X163167Y122843D01*
X163215Y122897D01*
X163245Y122939D01*
X163269Y122969D01*
X163275Y122982D01*
X163329Y123066D01*
X163371Y123144D01*
X163395Y123216D01*
X163419Y123276D01*
X163431Y123318D01*
X163437Y123354D01*
Y122230D01*
D02*
G37*
G36*
X149939Y129322D02*
X149963Y129256D01*
X149993Y129208D01*
X150035Y129172D01*
X150071Y129142D01*
X150107Y129118D01*
X150131Y129112D01*
X150137Y129106D01*
X150197Y129088D01*
X150245Y129070D01*
X150281Y129058D01*
X150305Y129046D01*
X150323Y129040D01*
X150336D01*
X150341Y129034D01*
X150366Y129022D01*
X150384Y128998D01*
X150402Y128979D01*
X150408Y128973D01*
X150432Y128937D01*
X150444Y128895D01*
X150468Y128805D01*
Y128769D01*
X150474Y128733D01*
Y128709D01*
Y128703D01*
Y123348D01*
Y123282D01*
X150462Y123222D01*
X150456Y123174D01*
X150444Y123138D01*
X150432Y123108D01*
X150420Y123090D01*
X150414Y123078D01*
X150408Y123072D01*
X150384Y123042D01*
X150359Y123023D01*
X150347Y123012D01*
X150341D01*
X150323Y123005D01*
X150299Y122994D01*
X150269Y122982D01*
X150233Y122969D01*
X150197Y122957D01*
X150167Y122951D01*
X150143Y122939D01*
X150137D01*
X150065Y122909D01*
X150017Y122861D01*
X149981Y122819D01*
X149951Y122771D01*
X149939Y122723D01*
X149933Y122687D01*
X149927Y122663D01*
Y129394D01*
X149939Y129322D01*
D02*
G37*
G36*
X143027Y129274D02*
X143045Y129220D01*
X143063Y129190D01*
X143069Y129178D01*
X143094Y129154D01*
X143130Y129130D01*
X143202Y129088D01*
X143238Y129070D01*
X143268Y129058D01*
X143292Y129052D01*
X143298Y129046D01*
X143346Y129016D01*
X143382Y128986D01*
X143406Y128967D01*
X143412Y128955D01*
X143430Y128931D01*
X143442Y128907D01*
X143472Y128841D01*
X143478Y128811D01*
X143490Y128787D01*
X143496Y128769D01*
Y128763D01*
X145401Y122374D01*
X143021D01*
Y129352D01*
X143027Y129274D01*
D02*
G37*
G36*
X139587Y116665D02*
X139599Y116455D01*
X139623Y116256D01*
X139653Y116064D01*
X139683Y115890D01*
X139725Y115721D01*
X139767Y115565D01*
X139809Y115421D01*
X139851Y115295D01*
X139887Y115181D01*
X139929Y115078D01*
X139959Y114994D01*
X139989Y114934D01*
X140013Y114886D01*
X140025Y114856D01*
X140031Y114844D01*
X140146Y114646D01*
X140272Y114465D01*
X140398Y114303D01*
X140458Y114231D01*
X140512Y114165D01*
X140566Y114105D01*
X140620Y114051D01*
X140662Y114003D01*
X140705Y113967D01*
X140735Y113936D01*
X140759Y113912D01*
X140771Y113900D01*
X140777Y113894D01*
X140951Y113756D01*
X141131Y113642D01*
X141299Y113540D01*
X141462Y113462D01*
X141528Y113426D01*
X141594Y113396D01*
X141654Y113372D01*
X141702Y113353D01*
X141744Y113335D01*
X141774Y113323D01*
X141792Y113317D01*
X141798D01*
X141882Y113287D01*
X141955Y113263D01*
X142021Y113245D01*
X142075Y113233D01*
X142117Y113221D01*
X142147Y113215D01*
X142165Y113209D01*
X142171D01*
X142279Y113191D01*
X142333Y113185D01*
X142387D01*
X142429Y113179D01*
X139581D01*
Y116881D01*
X139587Y116665D01*
D02*
G37*
G36*
X168939Y120620D02*
X168879Y120614D01*
X168825Y120601D01*
X168789Y120589D01*
X168753Y120571D01*
X168729Y120559D01*
X168717Y120553D01*
X168711Y120547D01*
X168675Y120517D01*
X168651Y120487D01*
X168633Y120451D01*
X168621Y120421D01*
X168615Y120391D01*
X168609Y120367D01*
Y120626D01*
X169006D01*
X168939Y120620D01*
D02*
G37*
G36*
X146600Y120271D02*
X146624Y120205D01*
X146654Y120157D01*
X146696Y120121D01*
X146732Y120091D01*
X146769Y120067D01*
X146793Y120061D01*
X146799Y120055D01*
X146859Y120037D01*
X146907Y120018D01*
X146943Y120007D01*
X146967Y119994D01*
X146985Y119989D01*
X146997D01*
X147003Y119983D01*
X147027Y119971D01*
X147045Y119946D01*
X147063Y119928D01*
X147069Y119922D01*
X147093Y119886D01*
X147105Y119844D01*
X147129Y119754D01*
Y119718D01*
X147135Y119682D01*
Y119658D01*
Y119652D01*
Y114297D01*
Y114231D01*
X147123Y114171D01*
X147117Y114123D01*
X147105Y114087D01*
X147093Y114057D01*
X147081Y114039D01*
X147075Y114027D01*
X147069Y114021D01*
X147045Y113990D01*
X147021Y113972D01*
X147009Y113961D01*
X147003D01*
X146985Y113954D01*
X146961Y113942D01*
X146931Y113930D01*
X146895Y113918D01*
X146859Y113906D01*
X146829Y113900D01*
X146805Y113888D01*
X146799D01*
X146727Y113858D01*
X146678Y113810D01*
X146642Y113768D01*
X146612Y113720D01*
X146600Y113672D01*
X146594Y113636D01*
X146588Y113612D01*
Y120343D01*
X146600Y120271D01*
D02*
G37*
G36*
X154035Y116791D02*
X154041Y116629D01*
X154071Y116310D01*
X154125Y116010D01*
X154191Y115727D01*
X154269Y115469D01*
X154359Y115235D01*
X154449Y115018D01*
X154551Y114820D01*
X154648Y114646D01*
X154738Y114495D01*
X154828Y114369D01*
X154906Y114261D01*
X154972Y114177D01*
X155026Y114117D01*
X155044Y114099D01*
X155056Y114081D01*
X155068Y114075D01*
Y114069D01*
X155225Y113930D01*
X155381Y113804D01*
X155549Y113690D01*
X155718Y113594D01*
X155886Y113510D01*
X156048Y113438D01*
X156210Y113377D01*
X156360Y113329D01*
X156505Y113287D01*
X156637Y113251D01*
X156757Y113227D01*
X156859Y113209D01*
X156944Y113191D01*
X157004Y113185D01*
X157028D01*
X157046Y113179D01*
X154029Y113179D01*
Y116965D01*
X154035Y116791D01*
D02*
G37*
D10*
X136390Y385559D02*
G03*
X136390Y385559I-492J0D01*
G01*
X220010Y355252D02*
G03*
X220010Y355252I-492J0D01*
G01*
X158646Y261272D02*
G03*
X158646Y261272I-492J0D01*
G01*
X173799Y389240D02*
G03*
X173799Y389240I-492J0D01*
G01*
X163764Y323847D02*
G03*
X163764Y323847I-492J0D01*
G01*
D11*
X164276Y269638D02*
G03*
X164276Y269638I-1181J0D01*
G01*
X179016Y397410D02*
G03*
X179016Y397410I-1181J0D01*
G01*
X172819Y318905D02*
G03*
X172819Y318905I-1181J0D01*
G01*
D12*
X184077Y208752D02*
G03*
X162423Y208752I-10827J-18753D01*
G01*
X154498Y200827D02*
G03*
X154498Y179173I18753J-10827D01*
G01*
X162423Y171247D02*
G03*
X184077Y171247I10827J18753D01*
G01*
X192002Y179173D02*
G03*
X192002Y200827I-18753J10827D01*
G01*
X231000Y199000D02*
Y217000D01*
X222000Y190000D02*
X231000Y199000D01*
X145000Y424000D02*
X148000Y427000D01*
X145000Y430000D02*
X148000Y427000D01*
X139000D02*
X148000D01*
X132000Y434000D02*
X139000Y427000D01*
X114000Y434000D02*
X132000D01*
X246748Y242473D02*
Y281842D01*
X215252D02*
X246748D01*
X215252Y242473D02*
X246748D01*
X215252D02*
Y281842D01*
X242811Y262158D02*
X246748D01*
X117000Y364000D02*
X125000D01*
Y352000D02*
Y364000D01*
X117000Y352000D02*
X125000D01*
X117000D02*
Y364000D01*
X103000D02*
X111000D01*
Y352000D02*
Y364000D01*
X103000Y352000D02*
X111000D01*
X103000D02*
Y364000D01*
X191000Y368000D02*
X199000D01*
Y356000D02*
Y368000D01*
X191000Y356000D02*
X199000D01*
X191000D02*
Y368000D01*
X151000Y433000D02*
X159000D01*
Y421000D02*
Y433000D01*
X151000Y421000D02*
X159000D01*
X151000D02*
Y433000D01*
X187500D02*
X195500D01*
Y421000D02*
Y433000D01*
X187500Y421000D02*
X195500D01*
X187500D02*
Y433000D01*
X130000Y252000D02*
Y260000D01*
X118000Y252000D02*
X130000D01*
X118000D02*
Y260000D01*
X130000D01*
X169250Y433000D02*
X177250D01*
Y421000D02*
Y433000D01*
X169250Y421000D02*
X177250D01*
X169250D02*
Y433000D01*
X205750D02*
X213750D01*
Y421000D02*
Y433000D01*
X205750Y421000D02*
X213750D01*
X205750D02*
Y433000D01*
X171000Y368000D02*
X179000D01*
Y356000D02*
Y368000D01*
X171000Y356000D02*
X179000D01*
X171000D02*
Y368000D01*
X142000Y334000D02*
Y342000D01*
X130000Y334000D02*
X142000D01*
X130000D02*
Y342000D01*
X142000D01*
X130000Y227000D02*
Y235000D01*
X118000Y227000D02*
X130000D01*
X118000D02*
Y235000D01*
X130000D01*
X220500Y108500D02*
Y140500D01*
X246000D01*
Y108500D02*
Y140500D01*
X220500Y108500D02*
X246000D01*
X186500Y456500D02*
Y458000D01*
Y455000D02*
Y456500D01*
X109250Y201500D02*
X110750D01*
X112250D01*
X123000D02*
X124500D01*
X126000D01*
X103000Y324000D02*
X111000D01*
Y312000D02*
Y324000D01*
X103000Y312000D02*
X111000D01*
X103000D02*
Y324000D01*
X225000Y327000D02*
X233000D01*
Y315000D02*
Y327000D01*
X225000Y315000D02*
X233000D01*
X225000D02*
Y327000D01*
X224000Y433000D02*
X232000D01*
Y421000D02*
Y433000D01*
X224000Y421000D02*
X232000D01*
X224000D02*
Y433000D01*
X231000Y239133D02*
X234000Y236133D01*
X228000D02*
X231000Y239133D01*
Y217000D02*
Y239133D01*
X199545Y190000D02*
X202545Y187000D01*
X199545Y190000D02*
X202545Y193000D01*
X199545Y190000D02*
X222000D01*
X212000Y145261D02*
X215000Y142261D01*
X218000Y145261D01*
X215000Y142261D02*
Y159000D01*
X144300Y231000D02*
Y236000D01*
X134211Y231000D02*
X144300D01*
X134211D02*
X136211Y229000D01*
X134211Y231000D02*
X136211Y233000D01*
X133911Y256000D02*
X135911Y258000D01*
X133911Y256000D02*
X135911Y254000D01*
X133911Y256000D02*
X144000D01*
Y261000D01*
X210000Y457000D02*
X220000D01*
X210000D02*
X212000Y459000D01*
X210000Y457000D02*
X212000Y455000D01*
X227496Y459998D02*
X224164D01*
Y457499D01*
X225830Y458332D01*
X226663D01*
X227496Y457499D01*
Y455833D01*
X226663Y455000D01*
X224997D01*
X224164Y455833D01*
X229162Y459998D02*
Y456666D01*
X230828Y455000D01*
X232494Y456666D01*
Y459998D01*
X235667Y424490D02*
X235001Y423824D01*
Y422491D01*
X235667Y421825D01*
X238333D01*
X238999Y422491D01*
Y423824D01*
X238333Y424490D01*
X237000D01*
Y423158D01*
X238999Y425823D02*
X235001D01*
X238999Y428489D01*
X235001D01*
Y429822D02*
X238999D01*
Y431821D01*
X238333Y432488D01*
X235667D01*
X235001Y431821D01*
Y429822D01*
X111824Y243666D02*
X110991Y244499D01*
X109325D01*
X108492Y243666D01*
Y240334D01*
X109325Y239501D01*
X110991D01*
X111824Y240334D01*
X115989Y239501D02*
X114323D01*
X113490Y240334D01*
Y242000D01*
X114323Y242833D01*
X115989D01*
X116822Y242000D01*
Y241167D01*
X113490D01*
X118488Y239501D02*
Y242833D01*
X120987D01*
X121820Y242000D01*
Y239501D01*
X124320Y243666D02*
Y242833D01*
X123487D01*
X125153D01*
X124320D01*
Y240334D01*
X125153Y239501D01*
X130151D02*
X128485D01*
X127652Y240334D01*
Y242000D01*
X128485Y242833D01*
X130151D01*
X130984Y242000D01*
Y241167D01*
X127652D01*
X132650Y242833D02*
Y239501D01*
Y241167D01*
X133483Y242000D01*
X134316Y242833D01*
X135150D01*
X142647Y242000D02*
X145979D01*
X144313Y243666D02*
Y240334D01*
X128000Y138000D02*
Y142998D01*
X130499D01*
X131332Y142165D01*
Y140499D01*
X130499Y139666D01*
X128000D01*
X129666D02*
X131332Y138000D01*
X136331Y142998D02*
X132998D01*
Y138000D01*
X136331D01*
X132998Y140499D02*
X134664D01*
X137997Y142998D02*
Y139666D01*
X139663Y138000D01*
X141329Y139666D01*
Y142998D01*
X146327Y138000D02*
X142995D01*
X146327Y141332D01*
Y142165D01*
X145494Y142998D01*
X143828D01*
X142995Y142165D01*
X147994D02*
X148827Y142998D01*
X150493D01*
X151326Y142165D01*
Y138833D01*
X150493Y138000D01*
X148827D01*
X147994Y138833D01*
Y142165D01*
X156324Y138000D02*
X152992D01*
X156324Y141332D01*
Y142165D01*
X155491Y142998D01*
X153825D01*
X152992Y142165D01*
X157990D02*
X158823Y142998D01*
X160489D01*
X161322Y142165D01*
Y138833D01*
X160489Y138000D01*
X158823D01*
X157990Y138833D01*
Y142165D01*
X162989D02*
X163822Y142998D01*
X165488D01*
X166321Y142165D01*
Y138833D01*
X165488Y138000D01*
X163822D01*
X162989Y138833D01*
Y142165D01*
X171319Y142998D02*
X169653Y142165D01*
X167987Y140499D01*
Y138833D01*
X168820Y138000D01*
X170486D01*
X171319Y138833D01*
Y139666D01*
X170486Y140499D01*
X167987D01*
X172985Y138000D02*
X174652D01*
X173819D01*
Y142998D01*
X172985Y142165D01*
X180483Y138000D02*
X177151D01*
X180483Y141332D01*
Y142165D01*
X179650Y142998D01*
X177984D01*
X177151Y142165D01*
X182149Y138000D02*
Y141332D01*
X183815Y142998D01*
X185481Y141332D01*
Y138000D01*
Y140499D01*
X182149D01*
X123501Y208499D02*
Y211165D01*
X125500Y212498D02*
Y213830D01*
Y213164D01*
X121501D01*
X122168Y212498D01*
X121501Y218496D02*
Y215830D01*
X123501D01*
X122834Y217163D01*
Y217829D01*
X123501Y218496D01*
X124834D01*
X125500Y217829D01*
Y216496D01*
X124834Y215830D01*
X121501Y219829D02*
X124167D01*
X125500Y221161D01*
X124167Y222494D01*
X121501D01*
X207332Y126165D02*
X206499Y126998D01*
X204833D01*
X204000Y126165D01*
Y122833D01*
X204833Y122000D01*
X206499D01*
X207332Y122833D01*
Y124499D01*
X205666D01*
X208998Y122000D02*
Y126998D01*
X212331Y122000D01*
Y126998D01*
X213997D02*
Y122000D01*
X216496D01*
X217329Y122833D01*
Y126165D01*
X216496Y126998D01*
X213997D01*
X237168Y318490D02*
X236502Y317824D01*
Y316491D01*
X237168Y315825D01*
X239834D01*
X240500Y316491D01*
Y317824D01*
X239834Y318490D01*
X238501D01*
Y317158D01*
X240500Y319823D02*
X236502D01*
X240500Y322489D01*
X236502D01*
Y323822D02*
X240500D01*
Y325821D01*
X239834Y326488D01*
X237168D01*
X236502Y325821D01*
Y323822D01*
X171826Y376500D02*
Y379166D01*
X173159Y380499D01*
X174492Y379166D01*
Y376500D01*
Y378499D01*
X171826D01*
X175825Y380499D02*
Y376500D01*
X177824D01*
X178490Y377166D01*
Y379832D01*
X177824Y380499D01*
X175825D01*
X182489Y379832D02*
X181823Y380499D01*
X180490D01*
X179823Y379832D01*
Y377166D01*
X180490Y376500D01*
X181823D01*
X182489Y377166D01*
X183822Y378499D02*
X186488D01*
X185155Y379832D02*
Y377166D01*
X200000Y134499D02*
X203332D01*
X204998Y132000D02*
X206664D01*
X205831D01*
Y136998D01*
X204998Y136165D01*
X212496Y136998D02*
X209164D01*
Y134499D01*
X210830Y135332D01*
X211663D01*
X212496Y134499D01*
Y132833D01*
X211663Y132000D01*
X209997D01*
X209164Y132833D01*
X214162Y136998D02*
Y133666D01*
X215828Y132000D01*
X217494Y133666D01*
Y136998D01*
X180917Y420492D02*
X180251Y419825D01*
Y418492D01*
X180917Y417826D01*
X181583D01*
X182250Y418492D01*
Y419825D01*
X182916Y420492D01*
X183583D01*
X184249Y419825D01*
Y418492D01*
X183583Y417826D01*
X180917Y424490D02*
X180251Y423824D01*
Y422491D01*
X180917Y421825D01*
X183583D01*
X184249Y422491D01*
Y423824D01*
X183583Y424490D01*
X180251Y425823D02*
X184249D01*
Y428489D01*
X180251Y429822D02*
X184249D01*
X182916D01*
X180251Y432488D01*
X182250Y430488D01*
X184249Y432488D01*
X110501Y208499D02*
Y211165D01*
X109168Y209832D02*
X111834D01*
X112500Y212498D02*
Y213830D01*
Y213164D01*
X108501D01*
X109168Y212498D01*
X108501Y218496D02*
Y215830D01*
X110501D01*
X109834Y217163D01*
Y217829D01*
X110501Y218496D01*
X111834D01*
X112500Y217829D01*
Y216496D01*
X111834Y215830D01*
X108501Y219829D02*
X111167D01*
X112500Y221161D01*
X111167Y222494D01*
X108501D01*
X198501Y417826D02*
X202499D01*
Y419825D01*
X201833Y420492D01*
X199167D01*
X198501Y419825D01*
Y417826D01*
Y423824D02*
Y422491D01*
X199167Y421825D01*
X201833D01*
X202499Y422491D01*
Y423824D01*
X201833Y424490D01*
X199167D01*
X198501Y423824D01*
Y425823D02*
X201833D01*
X202499Y426490D01*
Y427823D01*
X201833Y428489D01*
X198501D01*
Y429822D02*
Y432488D01*
Y431155D01*
X202499D01*
X200000Y114499D02*
X203332D01*
X201666Y116165D02*
Y112833D01*
X204998Y112000D02*
X206664D01*
X205831D01*
Y116998D01*
X204998Y116165D01*
X212496Y116998D02*
X209164D01*
Y114499D01*
X210830Y115332D01*
X211663D01*
X212496Y114499D01*
Y112833D01*
X211663Y112000D01*
X209997D01*
X209164Y112833D01*
X214162Y116998D02*
Y113666D01*
X215828Y112000D01*
X217494Y113666D01*
Y116998D01*
X191826Y376500D02*
Y379166D01*
X193159Y380499D01*
X194492Y379166D01*
Y376500D01*
Y378499D01*
X191826D01*
X195825Y380499D02*
Y376500D01*
X197824D01*
X198490Y377166D01*
Y379832D01*
X197824Y380499D01*
X195825D01*
X202489Y379832D02*
X201823Y380499D01*
X200490D01*
X199823Y379832D01*
Y377166D01*
X200490Y376500D01*
X201823D01*
X202489Y377166D01*
X203822Y378499D02*
X206488D01*
X129826Y330499D02*
Y327833D01*
X131159Y326500D01*
X132492Y327833D01*
Y330499D01*
X135824D02*
X134491D01*
X133825Y329832D01*
Y327166D01*
X134491Y326500D01*
X135824D01*
X136490Y327166D01*
Y329832D01*
X135824Y330499D01*
X137823D02*
Y327166D01*
X138490Y326500D01*
X139823D01*
X140489Y327166D01*
Y330499D01*
X141822D02*
X144488D01*
X143155D01*
Y326500D01*
X200499Y178461D02*
X198833D01*
X198000Y177628D01*
Y174295D01*
X198833Y173462D01*
X200499D01*
X201332Y174295D01*
Y177628D01*
X200499Y178461D01*
X202998Y171796D02*
Y176795D01*
X205498D01*
X206331Y175961D01*
Y174295D01*
X205498Y173462D01*
X202998D01*
X208830Y177628D02*
Y176795D01*
X207997D01*
X209663D01*
X208830D01*
Y174295D01*
X209663Y173462D01*
X212162D02*
X213828D01*
X212995D01*
Y176795D01*
X212162D01*
X217161Y173462D02*
X218827D01*
X219660Y174295D01*
Y175961D01*
X218827Y176795D01*
X217161D01*
X216327Y175961D01*
Y174295D01*
X217161Y173462D01*
X221326D02*
Y176795D01*
X223825D01*
X224658Y175961D01*
Y173462D01*
X227157Y176795D02*
X228823D01*
X229656Y175961D01*
Y173462D01*
X227157D01*
X226324Y174295D01*
X227157Y175128D01*
X229656D01*
X231323Y173462D02*
X232989D01*
X232156D01*
Y178461D01*
X231323D01*
X198000Y163398D02*
Y168396D01*
X200499D01*
X201332Y167563D01*
Y165897D01*
X200499Y165064D01*
X198000D01*
X203831Y163398D02*
X205498D01*
X206331Y164231D01*
Y165897D01*
X205498Y166730D01*
X203831D01*
X202998Y165897D01*
Y164231D01*
X203831Y163398D01*
X207997Y166730D02*
Y164231D01*
X208830Y163398D01*
X209663Y164231D01*
X210496Y163398D01*
X211329Y164231D01*
Y166730D01*
X215494Y163398D02*
X213828D01*
X212995Y164231D01*
Y165897D01*
X213828Y166730D01*
X215494D01*
X216327Y165897D01*
Y165064D01*
X212995D01*
X217993Y166730D02*
Y163398D01*
Y165064D01*
X218827Y165897D01*
X219660Y166730D01*
X220493D01*
X200499Y159998D02*
X198833D01*
X198000Y159165D01*
Y155833D01*
X198833Y155000D01*
X200499D01*
X201332Y155833D01*
Y159165D01*
X200499Y159998D01*
X202998Y158332D02*
Y155833D01*
X203831Y155000D01*
X206331D01*
Y158332D01*
X208830Y159165D02*
Y158332D01*
X207997D01*
X209663D01*
X208830D01*
Y155833D01*
X209663Y155000D01*
X115168Y315490D02*
X114501Y314824D01*
Y313491D01*
X115168Y312825D01*
X117834D01*
X118500Y313491D01*
Y314824D01*
X117834Y315490D01*
X116501D01*
Y314158D01*
X118500Y316823D02*
X114501D01*
X118500Y319489D01*
X114501D01*
Y320822D02*
X118500D01*
Y322821D01*
X117834Y323488D01*
X115168D01*
X114501Y322821D01*
Y320822D01*
X217417Y412494D02*
X216751Y411828D01*
Y410495D01*
X217417Y409829D01*
X220083D01*
X220749Y410495D01*
Y411828D01*
X220083Y412494D01*
X216751Y415827D02*
Y414494D01*
X217417Y413827D01*
X220083D01*
X220749Y414494D01*
Y415827D01*
X220083Y416493D01*
X217417D01*
X216751Y415827D01*
X220749Y417826D02*
X216751D01*
X220749Y420492D01*
X216751D01*
Y421825D02*
X219416D01*
X220749Y423158D01*
X219416Y424490D01*
X216751D01*
X217417Y428489D02*
X216751Y427823D01*
Y426490D01*
X217417Y425823D01*
X218084D01*
X218750Y426490D01*
Y427823D01*
X219416Y428489D01*
X220083D01*
X220749Y427823D01*
Y426490D01*
X220083Y425823D01*
X216751Y429822D02*
Y432488D01*
Y431155D01*
X220749D01*
X108500Y370666D02*
Y368000D01*
X105834Y370666D01*
X105168D01*
X104501Y369999D01*
Y368666D01*
X105168Y368000D01*
X108500Y371999D02*
X107834D01*
Y372665D01*
X108500D01*
Y371999D01*
X105168Y375331D02*
X104501Y375997D01*
Y377330D01*
X105168Y377997D01*
X107834D01*
X108500Y377330D01*
Y375997D01*
X107834Y375331D01*
X105168D01*
X108500Y381329D02*
X104501D01*
X106501Y379330D01*
Y381996D01*
X105168Y383328D02*
X104501Y383995D01*
Y385328D01*
X105168Y385994D01*
X105834D01*
X106501Y385328D01*
X107167Y385994D01*
X107834D01*
X108500Y385328D01*
Y383995D01*
X107834Y383328D01*
X107167D01*
X106501Y383995D01*
X105834Y383328D01*
X105168D01*
X106501Y383995D02*
Y385328D01*
X104501Y387327D02*
X107167D01*
X108500Y388660D01*
X107167Y389993D01*
X104501D01*
X162001Y422491D02*
X165999D01*
Y424490D01*
X165333Y425157D01*
X162667D01*
X162001Y424490D01*
Y422491D01*
Y426490D02*
Y427823D01*
Y427156D01*
X165999D01*
Y426490D01*
Y427823D01*
Y429822D02*
X162001D01*
X165999Y432488D01*
X162001D01*
X122500Y369999D02*
X118501D01*
X120501Y368000D01*
Y370666D01*
X122500Y371999D02*
X121834D01*
Y372665D01*
X122500D01*
Y371999D01*
X119168Y375331D02*
X118501Y375997D01*
Y377330D01*
X119168Y377997D01*
X121834D01*
X122500Y377330D01*
Y375997D01*
X121834Y375331D01*
X119168D01*
X121834Y379330D02*
X122500Y379996D01*
Y381329D01*
X121834Y381996D01*
X119168D01*
X118501Y381329D01*
Y379996D01*
X119168Y379330D01*
X119834D01*
X120501Y379996D01*
Y381996D01*
X118501Y385994D02*
X119168Y384661D01*
X120501Y383328D01*
X121834D01*
X122500Y383995D01*
Y385328D01*
X121834Y385994D01*
X121167D01*
X120501Y385328D01*
Y383328D01*
X118501Y387327D02*
X121167D01*
X122500Y388660D01*
X121167Y389993D01*
X118501D01*
X115989Y269499D02*
X114323D01*
X113490Y268666D01*
Y265334D01*
X114323Y264501D01*
X115989D01*
X116822Y265334D01*
Y268666D01*
X115989Y269499D01*
X118488Y267833D02*
Y265334D01*
X119321Y264501D01*
X121820D01*
Y267833D01*
X124320Y268666D02*
Y267833D01*
X123487D01*
X125153D01*
X124320D01*
Y265334D01*
X125153Y264501D01*
X130151D02*
X128485D01*
X127652Y265334D01*
Y267000D01*
X128485Y267833D01*
X130151D01*
X130984Y267000D01*
Y266167D01*
X127652D01*
X132650Y267833D02*
Y264501D01*
Y266167D01*
X133483Y267000D01*
X134316Y267833D01*
X135150D01*
X142647Y267000D02*
X145979D01*
X233666Y288332D02*
X232999Y288999D01*
X231666D01*
X231000Y288332D01*
Y285666D01*
X231666Y285000D01*
X232999D01*
X233666Y285666D01*
X236998Y288999D02*
X235665D01*
X234999Y288332D01*
Y285666D01*
X235665Y285000D01*
X236998D01*
X237665Y285666D01*
Y288332D01*
X236998Y288999D01*
X238997Y285000D02*
Y288999D01*
X241663Y285000D01*
Y288999D01*
X242996Y285000D02*
X244329D01*
X243663D01*
Y288999D01*
X242996Y288332D01*
X202001Y356000D02*
Y358666D01*
Y357333D01*
X206000D01*
Y359999D02*
X202001D01*
Y361998D01*
X202668Y362665D01*
X204001D01*
X204667Y361998D01*
Y359999D01*
X205334Y363997D02*
X206000Y364664D01*
Y365997D01*
X205334Y366663D01*
X202668D01*
X202001Y365997D01*
Y364664D01*
X202668Y363997D01*
X203334D01*
X204001Y364664D01*
Y366663D01*
X182001Y356000D02*
Y358666D01*
Y357333D01*
X186000D01*
Y359999D02*
X182001D01*
Y361998D01*
X182668Y362665D01*
X184001D01*
X184667Y361998D01*
Y359999D01*
X182668Y363997D02*
X182001Y364664D01*
Y365997D01*
X182668Y366663D01*
X183334D01*
X184001Y365997D01*
Y365330D01*
Y365997D01*
X184667Y366663D01*
X185334D01*
X186000Y365997D01*
Y364664D01*
X185334Y363997D01*
X152001Y266000D02*
X155333D01*
X156000Y266666D01*
Y267999D01*
X155333Y268666D01*
X152001D01*
X152668Y269999D02*
X152001Y270665D01*
Y271998D01*
X152668Y272664D01*
X153334D01*
X154001Y271998D01*
Y271332D01*
Y271998D01*
X154667Y272664D01*
X155333D01*
X156000Y271998D01*
Y270665D01*
X155333Y269999D01*
X211666Y308332D02*
X210999Y308999D01*
X209666D01*
X209000Y308332D01*
Y305666D01*
X209666Y305000D01*
X210999D01*
X211666Y305666D01*
X215665Y308999D02*
X212999D01*
Y306999D01*
X214332Y307666D01*
X214998D01*
X215665Y306999D01*
Y305666D01*
X214998Y305000D01*
X213665D01*
X212999Y305666D01*
X135666Y320332D02*
X134999Y320999D01*
X133667D01*
X133000Y320332D01*
Y317666D01*
X133667Y317000D01*
X134999D01*
X135666Y317666D01*
X139664Y317000D02*
X136999D01*
X139664Y319666D01*
Y320332D01*
X138998Y320999D01*
X137665D01*
X136999Y320332D01*
X142668Y348666D02*
X142001Y347999D01*
Y346666D01*
X142668Y346000D01*
X145334D01*
X146000Y346666D01*
Y347999D01*
X145334Y348666D01*
X146000Y349999D02*
Y351332D01*
Y350665D01*
X142001D01*
X142668Y349999D01*
X142001Y355997D02*
Y353331D01*
X144001D01*
X143334Y354664D01*
Y355330D01*
X144001Y355997D01*
X145334D01*
X146000Y355330D01*
Y353997D01*
X145334Y353331D01*
X221624Y339482D02*
X220958Y340148D01*
X219625D01*
X218959Y339482D01*
Y336816D01*
X219625Y336150D01*
X220958D01*
X221624Y336816D01*
X222957Y336150D02*
X224290D01*
X223624D01*
Y340148D01*
X222957Y339482D01*
X226290D02*
X226956Y340148D01*
X228289D01*
X228955Y339482D01*
Y338815D01*
X228289Y338149D01*
X227622D01*
X228289D01*
X228955Y337483D01*
Y336816D01*
X228289Y336150D01*
X226956D01*
X226290Y336816D01*
X214666Y405332D02*
X213999Y405999D01*
X212666D01*
X212000Y405332D01*
Y402666D01*
X212666Y402000D01*
X213999D01*
X214666Y402666D01*
X215999Y402000D02*
X217332D01*
X216665D01*
Y405999D01*
X215999Y405332D01*
X219331Y402000D02*
X220664D01*
X219997D01*
Y405999D01*
X219331Y405332D01*
X152668Y369666D02*
X152001Y368999D01*
Y367666D01*
X152668Y367000D01*
X155333D01*
X156000Y367666D01*
Y368999D01*
X155333Y369666D01*
X152001Y370999D02*
Y373664D01*
X152668D01*
X155333Y370999D01*
X156000D01*
X180000Y294000D02*
Y297999D01*
X181999D01*
X182666Y297332D01*
Y295999D01*
X181999Y295333D01*
X180000D01*
X181333D02*
X182666Y294000D01*
X183999Y297332D02*
X184665Y297999D01*
X185998D01*
X186664Y297332D01*
Y296666D01*
X185998Y295999D01*
X185332D01*
X185998D01*
X186664Y295333D01*
Y294666D01*
X185998Y294000D01*
X184665D01*
X183999Y294666D01*
X149000Y383999D02*
Y380666D01*
X149667Y380000D01*
X150999D01*
X151666Y380666D01*
Y383999D01*
X155665D02*
X152999D01*
Y381999D01*
X154332Y382666D01*
X154998D01*
X155665Y381999D01*
Y380666D01*
X154998Y380000D01*
X153665D01*
X152999Y380666D01*
X119001Y336000D02*
Y338666D01*
Y337333D01*
X123000D01*
Y339999D02*
X119001D01*
Y341998D01*
X119668Y342665D01*
X121001D01*
X121667Y341998D01*
Y339999D01*
X123000Y343997D02*
Y345330D01*
Y344664D01*
X119001D01*
X119668Y343997D01*
X123000Y347330D02*
Y348663D01*
Y347996D01*
X119001D01*
X119668Y347330D01*
X105001Y335000D02*
Y337666D01*
Y336333D01*
X109000D01*
Y338999D02*
X105001D01*
Y340998D01*
X105668Y341665D01*
X107001D01*
X107667Y340998D01*
Y338999D01*
X109000Y342997D02*
Y344330D01*
Y343664D01*
X105001D01*
X105668Y342997D01*
Y346330D02*
X105001Y346996D01*
Y348329D01*
X105668Y348995D01*
X108334D01*
X109000Y348329D01*
Y346996D01*
X108334Y346330D01*
X105668D01*
X149666Y172667D02*
Y175332D01*
X148999Y175999D01*
X147667D01*
X147000Y175332D01*
Y172667D01*
X147667Y172000D01*
X148999D01*
X148333Y173333D02*
X149666Y172000D01*
X148999D02*
X149666Y172667D01*
X150999Y172000D02*
X152332D01*
X151665D01*
Y175999D01*
X150999Y175332D01*
X190000Y458499D02*
Y454500D01*
X192666D01*
X196665Y458499D02*
X193999D01*
Y454500D01*
X196665D01*
X193999Y456499D02*
X195332D01*
X197997Y458499D02*
Y454500D01*
X199997D01*
X200663Y455166D01*
Y457832D01*
X199997Y458499D01*
X197997D01*
X201996Y457832D02*
X202663Y458499D01*
X203995D01*
X204662Y457832D01*
Y457166D01*
X203995Y456499D01*
X203329D01*
X203995D01*
X204662Y455833D01*
Y455166D01*
X203995Y454500D01*
X202663D01*
X201996Y455166D01*
X102001Y190000D02*
X106000D01*
Y192666D01*
X102001Y196665D02*
Y193999D01*
X106000D01*
Y196665D01*
X104001Y193999D02*
Y195332D01*
X102001Y197997D02*
X106000D01*
Y199997D01*
X105333Y200663D01*
X102668D01*
X102001Y199997D01*
Y197997D01*
X106000Y204662D02*
Y201996D01*
X103334Y204662D01*
X102668D01*
X102001Y203995D01*
Y202663D01*
X102668Y201996D01*
X116001Y190000D02*
X120000D01*
Y192666D01*
X116001Y196665D02*
Y193999D01*
X120000D01*
Y196665D01*
X118001Y193999D02*
Y195332D01*
X116001Y197997D02*
X120000D01*
Y199997D01*
X119334Y200663D01*
X116668D01*
X116001Y199997D01*
Y197997D01*
X120000Y201996D02*
Y203329D01*
Y202663D01*
X116001D01*
X116668Y201996D01*
X105668Y301666D02*
X105001Y300999D01*
Y299666D01*
X105668Y299000D01*
X108334D01*
X109000Y299666D01*
Y300999D01*
X108334Y301666D01*
X107001D01*
Y300333D01*
X109000Y302999D02*
X105001D01*
Y304998D01*
X105668Y305664D01*
X107001D01*
X107667Y304998D01*
Y302999D01*
X105668Y306997D02*
X105001Y307664D01*
Y308997D01*
X105668Y309663D01*
X106334D01*
X107001Y308997D01*
Y308330D01*
Y308997D01*
X107667Y309663D01*
X108334D01*
X109000Y308997D01*
Y307664D01*
X108334Y306997D01*
X227668Y304666D02*
X227001Y303999D01*
Y302666D01*
X227668Y302000D01*
X230334D01*
X231000Y302666D01*
Y303999D01*
X230334Y304666D01*
X229001D01*
Y303333D01*
X231000Y305999D02*
X227001D01*
Y307998D01*
X227668Y308664D01*
X229001D01*
X229667Y307998D01*
Y305999D01*
X231000Y312663D02*
Y309997D01*
X228334Y312663D01*
X227668D01*
X227001Y311997D01*
Y310664D01*
X227668Y309997D01*
X226668Y438666D02*
X226001Y437999D01*
Y436666D01*
X226668Y436000D01*
X229334D01*
X230000Y436666D01*
Y437999D01*
X229334Y438666D01*
X228001D01*
Y437333D01*
X230000Y439999D02*
X226001D01*
Y441998D01*
X226668Y442664D01*
X228001D01*
X228667Y441998D01*
Y439999D01*
X230000Y443997D02*
Y445330D01*
Y444664D01*
X226001D01*
X226668Y443997D01*
X133000Y299999D02*
Y296000D01*
X135666D01*
X138998D02*
Y299999D01*
X136999Y297999D01*
X139664D01*
X209000Y328999D02*
Y325000D01*
X211666D01*
X212999Y328332D02*
X213665Y328999D01*
X214998D01*
X215665Y328332D01*
Y327666D01*
X214998Y326999D01*
X214332D01*
X214998D01*
X215665Y326333D01*
Y325666D01*
X214998Y325000D01*
X213665D01*
X212999Y325666D01*
X129197Y415384D02*
Y411386D01*
X131863D01*
X135861D02*
X133196D01*
X135861Y414052D01*
Y414718D01*
X135195Y415384D01*
X133862D01*
X133196Y414718D01*
X129197Y405384D02*
Y401386D01*
X131863D01*
X133196D02*
X134529D01*
X133862D01*
Y405384D01*
X133196Y404718D01*
X153001Y436000D02*
Y438666D01*
Y437333D01*
X157000D01*
Y439999D02*
X153001D01*
Y441998D01*
X153668Y442664D01*
X155001D01*
X155667Y441998D01*
Y439999D01*
X153668Y443997D02*
X153001Y444664D01*
Y445997D01*
X153668Y446663D01*
X154334D01*
X155001Y445997D01*
X155667Y446663D01*
X156333D01*
X157000Y445997D01*
Y444664D01*
X156333Y443997D01*
X155667D01*
X155001Y444664D01*
X154334Y443997D01*
X153668D01*
X155001Y444664D02*
Y445997D01*
X104000Y257999D02*
X106666D01*
X105333D01*
Y254000D01*
X107999D02*
Y257999D01*
X109998D01*
X110664Y257332D01*
Y255999D01*
X109998Y255333D01*
X107999D01*
X114663Y257999D02*
X113330Y257332D01*
X111997Y255999D01*
Y254666D01*
X112664Y254000D01*
X113997D01*
X114663Y254666D01*
Y255333D01*
X113997Y255999D01*
X111997D01*
X189501Y436000D02*
Y438666D01*
Y437333D01*
X193500D01*
Y439999D02*
X189501D01*
Y441998D01*
X190168Y442664D01*
X191501D01*
X192167Y441998D01*
Y439999D01*
X189501Y443997D02*
Y446663D01*
X190168D01*
X192833Y443997D01*
X193500D01*
X171251Y436000D02*
Y438666D01*
Y437333D01*
X175250D01*
Y439999D02*
X171251D01*
Y441998D01*
X171918Y442664D01*
X173251D01*
X173917Y441998D01*
Y439999D01*
X171251Y446663D02*
Y443997D01*
X173251D01*
X172584Y445330D01*
Y445997D01*
X173251Y446663D01*
X174583D01*
X175250Y445997D01*
Y444664D01*
X174583Y443997D01*
X207751Y436000D02*
Y438666D01*
Y437333D01*
X211750D01*
Y439999D02*
X207751D01*
Y441998D01*
X208418Y442664D01*
X209751D01*
X210417Y441998D01*
Y439999D01*
X211750Y445997D02*
X207751D01*
X209751Y443997D01*
Y446663D01*
X161000Y331999D02*
Y328666D01*
X161667Y328000D01*
X162999D01*
X163666Y328666D01*
Y331999D01*
X164999Y328000D02*
X166332D01*
X165665D01*
Y331999D01*
X164999Y331332D01*
X222959Y357148D02*
Y353816D01*
X223625Y353150D01*
X224958D01*
X225624Y353816D01*
Y357148D01*
X228957Y353150D02*
Y357148D01*
X226957Y355149D01*
X229623D01*
X189001Y394000D02*
X192333D01*
X193000Y394666D01*
Y395999D01*
X192333Y396666D01*
X189001D01*
X193000Y400665D02*
Y397999D01*
X190334Y400665D01*
X189668D01*
X189001Y399998D01*
Y398665D01*
X189668Y397999D01*
X104000Y232999D02*
X106666D01*
X105333D01*
Y229000D01*
X107999D02*
Y232999D01*
X109998D01*
X110664Y232332D01*
Y230999D01*
X109998Y230333D01*
X107999D01*
X111997Y229000D02*
X113330D01*
X112664D01*
Y232999D01*
X111997Y232332D01*
X145000Y339999D02*
X147666D01*
X146333D01*
Y336000D01*
X148999D02*
Y339999D01*
X150998D01*
X151664Y339332D01*
Y337999D01*
X150998Y337333D01*
X148999D01*
X155663Y336000D02*
X152997D01*
X155663Y338666D01*
Y339332D01*
X154997Y339999D01*
X153664D01*
X152997Y339332D01*
X192000Y336000D02*
Y339999D01*
X193999D01*
X194666Y339332D01*
Y337999D01*
X193999Y337333D01*
X192000D01*
X193333D02*
X194666Y336000D01*
X198664D02*
X195999D01*
X198664Y338666D01*
Y339332D01*
X197998Y339999D01*
X196665D01*
X195999Y339332D01*
X166000Y336000D02*
Y339999D01*
X167999D01*
X168666Y339332D01*
Y337999D01*
X167999Y337333D01*
X166000D01*
X167333D02*
X168666Y336000D01*
X169999D02*
X171332D01*
X170665D01*
Y339999D01*
X169999Y339332D01*
X160000Y455000D02*
Y458999D01*
X161999D01*
X162666Y458332D01*
Y456999D01*
X161999Y456333D01*
X160000D01*
X161333D02*
X162666Y455000D01*
X166665Y458999D02*
X165332Y458332D01*
X163999Y456999D01*
Y455666D01*
X164665Y455000D01*
X165998D01*
X166665Y455666D01*
Y456333D01*
X165998Y456999D01*
X163999D01*
X106000Y174000D02*
X102001D01*
Y175999D01*
X102668Y176666D01*
X104001D01*
X104667Y175999D01*
Y174000D01*
Y175333D02*
X106000Y176666D01*
X102001Y180665D02*
Y177999D01*
X104001D01*
X103334Y179332D01*
Y179998D01*
X104001Y180665D01*
X105333D01*
X106000Y179998D01*
Y178665D01*
X105333Y177999D01*
X120000Y174000D02*
X116001D01*
Y175999D01*
X116668Y176666D01*
X118001D01*
X118667Y175999D01*
Y174000D01*
Y175333D02*
X120000Y176666D01*
Y179998D02*
X116001D01*
X118001Y177999D01*
Y180665D01*
X221000Y144000D02*
Y147999D01*
X222999D01*
X223666Y147332D01*
Y145999D01*
X222999Y145333D01*
X221000D01*
X224999Y144000D02*
X226332D01*
X225665D01*
Y147999D01*
X224999Y147332D01*
X131668Y348666D02*
X131001Y347999D01*
Y346666D01*
X131668Y346000D01*
X134334D01*
X135000Y346666D01*
Y347999D01*
X134334Y348666D01*
X135000Y349999D02*
Y351332D01*
Y350665D01*
X131001D01*
X131668Y349999D01*
X135000Y355330D02*
X131001D01*
X133001Y353331D01*
Y355997D01*
X217668Y365666D02*
X217001Y364999D01*
Y363666D01*
X217668Y363000D01*
X220334D01*
X221000Y363666D01*
Y364999D01*
X220334Y365666D01*
X221000Y366999D02*
Y368332D01*
Y367665D01*
X217001D01*
X217668Y366999D01*
X221000Y372997D02*
Y370331D01*
X218334Y372997D01*
X217668D01*
X217001Y372330D01*
Y370997D01*
X217668Y370331D01*
X142666Y404332D02*
X141999Y404999D01*
X140666D01*
X140000Y404332D01*
Y401666D01*
X140666Y401000D01*
X141999D01*
X142666Y401666D01*
X143999Y401000D02*
X145332D01*
X144665D01*
Y404999D01*
X143999Y404332D01*
X147331D02*
X147997Y404999D01*
X149330D01*
X149997Y404332D01*
Y401666D01*
X149330Y401000D01*
X147997D01*
X147331Y401666D01*
Y404332D01*
X145666Y394332D02*
X144999Y394999D01*
X143667D01*
X143000Y394332D01*
Y391666D01*
X143667Y391000D01*
X144999D01*
X145666Y391666D01*
X146999Y394332D02*
X147665Y394999D01*
X148998D01*
X149664Y394332D01*
Y393666D01*
X148998Y392999D01*
X149664Y392333D01*
Y391666D01*
X148998Y391000D01*
X147665D01*
X146999Y391666D01*
Y392333D01*
X147665Y392999D01*
X146999Y393666D01*
Y394332D01*
X147665Y392999D02*
X148998D01*
X162668Y369666D02*
X162001Y368999D01*
Y367666D01*
X162668Y367000D01*
X165333D01*
X166000Y367666D01*
Y368999D01*
X165333Y369666D01*
X162001Y373664D02*
X162668Y372332D01*
X164001Y370999D01*
X165333D01*
X166000Y371665D01*
Y372998D01*
X165333Y373664D01*
X164667D01*
X164001Y372998D01*
Y370999D01*
X211666Y318332D02*
X210999Y318999D01*
X209666D01*
X209000Y318332D01*
Y315666D01*
X209666Y315000D01*
X210999D01*
X211666Y315666D01*
X214998Y315000D02*
Y318999D01*
X212999Y316999D01*
X215665D01*
X135666Y310332D02*
X134999Y310999D01*
X133667D01*
X133000Y310332D01*
Y307666D01*
X133667Y307000D01*
X134999D01*
X135666Y307666D01*
X136999Y310332D02*
X137665Y310999D01*
X138998D01*
X139664Y310332D01*
Y309666D01*
X138998Y308999D01*
X138332D01*
X138998D01*
X139664Y308333D01*
Y307666D01*
X138998Y307000D01*
X137665D01*
X136999Y307666D01*
X191666Y350332D02*
X190999Y350999D01*
X189666D01*
X189000Y350332D01*
Y347666D01*
X189666Y347000D01*
X190999D01*
X191666Y347666D01*
X192999Y347000D02*
X194332D01*
X193665D01*
Y350999D01*
X192999Y350332D01*
X214666Y395332D02*
X213999Y395999D01*
X212666D01*
X212000Y395332D01*
Y392666D01*
X212666Y392000D01*
X213999D01*
X214666Y392666D01*
X215999D02*
X216665Y392000D01*
X217998D01*
X218665Y392666D01*
Y395332D01*
X217998Y395999D01*
X216665D01*
X215999Y395332D01*
Y394666D01*
X216665Y393999D01*
X218665D01*
D13*
X116000Y307000D02*
Y309000D01*
X113000Y307000D02*
X116000D01*
X113000D02*
X114000Y308000D01*
X113000Y307000D02*
X114000Y306000D01*
X235000Y310000D02*
X236000Y309000D01*
X235000Y310000D02*
X236000Y311000D01*
X235000Y310000D02*
X238000D01*
Y312000D01*
X195000Y370000D02*
Y374000D01*
X194000Y371000D02*
X195000Y370000D01*
X196000Y371000D01*
X147000Y329000D02*
X149000D01*
Y332000D01*
X150000Y331000D01*
X148000D02*
X149000Y332000D01*
X175000Y370000D02*
X176000Y371000D01*
X174000D02*
X175000Y370000D01*
Y374000D01*
X164000Y436000D02*
Y438000D01*
X161000D02*
X164000D01*
X161000D02*
X162000Y439000D01*
X161000Y438000D02*
X162000Y437000D01*
X182000Y436000D02*
Y438000D01*
X179000D02*
X182000D01*
X179000D02*
X180000Y439000D01*
X179000Y438000D02*
X180000Y437000D01*
X200000Y436000D02*
Y438000D01*
X197000D02*
X200000D01*
X197000D02*
X198000Y439000D01*
X197000Y438000D02*
X198000Y437000D01*
X219000Y436000D02*
Y438000D01*
X216000D02*
X219000D01*
X216000D02*
X217000Y439000D01*
X216000Y438000D02*
X217000Y437000D01*
X234000Y438000D02*
X235000Y437000D01*
X234000Y438000D02*
X235000Y439000D01*
X234000Y438000D02*
X237000D01*
Y436000D02*
Y438000D01*
D14*
X133339Y379063D02*
Y383000D01*
X136488D01*
X145150Y379063D02*
Y383000D01*
X142000D02*
X145150D01*
X213021Y357811D02*
X216959D01*
Y354661D02*
Y357811D01*
X213021Y346000D02*
X216959D01*
Y349150D01*
X159158Y265701D02*
X178842D01*
X159158Y278299D02*
X178842D01*
X159158Y265701D02*
Y278299D01*
X178842Y265701D02*
Y278299D01*
X186102Y393472D02*
Y402528D01*
X173898Y393472D02*
Y402528D01*
X186102D01*
X173898Y393472D02*
X186102D01*
X167701Y303157D02*
Y322843D01*
X180299Y303157D02*
Y322843D01*
X167701D02*
X180299D01*
X167701Y303157D02*
X180299D01*
X147803Y299614D02*
X148197D01*
X147803Y296386D02*
X148197D01*
X199803Y325386D02*
X200197D01*
X199803Y328614D02*
X200197D01*
X120000Y415000D02*
X120394D01*
X120000Y411772D02*
X120394D01*
X120000Y405000D02*
X120394D01*
X120000Y401772D02*
X120394D01*
D15*
X151000Y455000D02*
Y458000D01*
X109250Y179000D02*
X112250D01*
X123000D02*
X126000D01*
X172000Y294500D02*
Y297500D01*
X185500Y335000D02*
X188500D01*
X174500D02*
X177500D01*
X180000Y455000D02*
Y456500D01*
Y458000D01*
X110750Y195000D02*
X112250D01*
X109250D02*
X110750D01*
X124500D02*
X126000D01*
X123000D02*
X124500D01*
X142500Y364000D02*
X145500D01*
X132500D02*
X135500D01*
X209959Y336650D02*
Y339650D01*
X210500Y368000D02*
X213500D01*
X204000Y402500D02*
Y405500D01*
X159000Y401500D02*
Y404500D01*
X204000Y392500D02*
Y395500D01*
X159000Y391500D02*
Y394500D01*
X152500Y358000D02*
X155500D01*
X162500D02*
X165500D01*
X200000Y305500D02*
Y308500D01*
Y315500D02*
Y318500D01*
X148000Y307500D02*
Y310500D01*
Y317500D02*
Y320500D01*
X181000Y347500D02*
Y350500D01*
D16*
X207000Y272685D02*
X212000D01*
X209500Y250500D02*
Y255500D01*
X207000Y253000D02*
X212000D01*
X188500Y275183D02*
Y271184D01*
X190499Y269185D01*
X192499Y271184D01*
Y275183D01*
X194498D02*
X196497D01*
X195498D01*
Y269185D01*
X194498D01*
X196497D01*
X199496D02*
Y275183D01*
X203495Y269185D01*
Y275183D01*
X119331Y444332D02*
X118165Y445498D01*
X115833D01*
X114666Y444332D01*
Y443165D01*
X115833Y441999D01*
X118165D01*
X119331Y440833D01*
Y439666D01*
X118165Y438500D01*
X115833D01*
X114666Y439666D01*
X121664Y438500D02*
Y445498D01*
X125163D01*
X126329Y444332D01*
Y441999D01*
X125163Y440833D01*
X121664D01*
X128662Y445498D02*
X130994D01*
X129828D01*
Y438500D01*
X128662D01*
X130994D01*
X188500Y255498D02*
Y251499D01*
X190499Y249500D01*
X192499Y251499D01*
Y255498D01*
X194498D02*
X196497D01*
X195498D01*
Y249500D01*
X194498D01*
X196497D01*
X199496D02*
Y255498D01*
X203495Y249500D01*
Y255498D01*
X162165Y156165D02*
X160833Y157497D01*
X158167D01*
X156834Y156165D01*
Y150833D01*
X158167Y149500D01*
X160833D01*
X162165Y150833D01*
X166164Y154832D02*
X168830D01*
X170163Y153499D01*
Y149500D01*
X166164D01*
X164831Y150833D01*
X166164Y152166D01*
X170163D01*
X172829Y154832D02*
Y149500D01*
Y152166D01*
X174162Y153499D01*
X175495Y154832D01*
X176827D01*
X186158Y157497D02*
Y149500D01*
X182159D01*
X180826Y150833D01*
Y153499D01*
X182159Y154832D01*
X186158D01*
X106500Y149166D02*
Y154497D01*
X109166Y157163D01*
X111832Y154497D01*
Y149166D01*
Y153165D01*
X106500D01*
X114497Y149166D02*
Y154497D01*
X118496D01*
X119829Y153165D01*
Y149166D01*
X123828Y154497D02*
X126494D01*
X127826Y153165D01*
Y149166D01*
X123828D01*
X122495Y150499D01*
X123828Y151832D01*
X127826D01*
X130492Y149166D02*
X133158D01*
X131825D01*
Y157163D01*
X130492D01*
X138490Y149166D02*
X141155D01*
X142488Y150499D01*
Y153165D01*
X141155Y154497D01*
X138490D01*
X137157Y153165D01*
Y150499D01*
X138490Y149166D01*
X147820Y146500D02*
X149153D01*
X150486Y147833D01*
Y154497D01*
X146487D01*
X145154Y153165D01*
Y150499D01*
X146487Y149166D01*
X150486D01*
D17*
X104039Y282496D02*
Y276498D01*
X107038D01*
X108038Y277498D01*
Y278498D01*
X107038Y279497D01*
X104039D01*
X107038D01*
X108038Y280497D01*
Y281497D01*
X107038Y282496D01*
X104039D01*
X110037Y276498D02*
Y282496D01*
X114036Y276498D01*
Y282496D01*
X120034Y281497D02*
X119035Y282496D01*
X117035D01*
X116035Y281497D01*
Y277498D01*
X117035Y276498D01*
X119035D01*
X120034Y277498D01*
X128032Y282496D02*
X132030D01*
X130031D01*
Y276498D01*
X134030D02*
Y282496D01*
X137029D01*
X138028Y281497D01*
Y279497D01*
X137029Y278498D01*
X134030D01*
X140028Y276498D02*
X143027D01*
X144026Y277498D01*
X143027Y278498D01*
X141027D01*
X140028Y279497D01*
X141027Y280497D01*
X144026D01*
D18*
X209004Y200000D02*
X217001D01*
X221000Y203999D01*
X217001Y207997D01*
X209004D01*
Y211996D02*
Y215995D01*
Y213996D01*
X221000D01*
Y211996D01*
Y215995D01*
Y221993D02*
X209004D01*
X221000Y229990D01*
X209004D01*
M02*
