G04*
G04 #@! TF.GenerationSoftware,Altium Limited,Altium Designer,19.1.8 (144)*
G04*
G04 Layer_Color=8388736*
%FSLAX25Y25*%
%MOIN*%
G70*
G01*
G75*
%ADD19R,0.03162X0.04147*%
%ADD20R,0.04147X0.03162*%
%ADD21O,0.03162X0.06509*%
%ADD22O,0.01981X0.06115*%
%ADD23O,0.06509X0.03162*%
G04:AMPARAMS|DCode=24|XSize=86.74mil|YSize=55.24mil|CornerRadius=6.36mil|HoleSize=0mil|Usage=FLASHONLY|Rotation=90.000|XOffset=0mil|YOffset=0mil|HoleType=Round|Shape=RoundedRectangle|*
%AMROUNDEDRECTD24*
21,1,0.08674,0.04252,0,0,90.0*
21,1,0.07402,0.05524,0,0,90.0*
1,1,0.01272,0.02126,0.03701*
1,1,0.01272,0.02126,-0.03701*
1,1,0.01272,-0.02126,-0.03701*
1,1,0.01272,-0.02126,0.03701*
%
%ADD24ROUNDEDRECTD24*%
G04:AMPARAMS|DCode=25|XSize=86.74mil|YSize=55.24mil|CornerRadius=6.36mil|HoleSize=0mil|Usage=FLASHONLY|Rotation=0.000|XOffset=0mil|YOffset=0mil|HoleType=Round|Shape=RoundedRectangle|*
%AMROUNDEDRECTD25*
21,1,0.08674,0.04252,0,0,0.0*
21,1,0.07402,0.05524,0,0,0.0*
1,1,0.01272,0.03701,-0.02126*
1,1,0.01272,-0.03701,-0.02126*
1,1,0.01272,-0.03701,0.02126*
1,1,0.01272,0.03701,0.02126*
%
%ADD25ROUNDEDRECTD25*%
%ADD26R,0.04540X0.04540*%
%ADD27R,0.04540X0.04540*%
%ADD28R,0.03989X0.04816*%
%ADD29R,0.08674X0.08674*%
%ADD30C,0.08674*%
%ADD31R,0.08674X0.08674*%
%ADD32C,0.10249*%
%ADD33C,0.22453*%
D19*
X135504Y376012D02*
D03*
X142984D02*
D03*
X139244Y384476D02*
D03*
D20*
X209970Y355646D02*
D03*
Y348165D02*
D03*
X218435Y351905D02*
D03*
D21*
X161500Y261272D02*
D03*
X166500D02*
D03*
X171500D02*
D03*
X176500D02*
D03*
X161500Y282728D02*
D03*
X166500D02*
D03*
X171500D02*
D03*
X176500D02*
D03*
D22*
X183937Y406760D02*
D03*
X181968D02*
D03*
X180000D02*
D03*
X178032D02*
D03*
X176063D02*
D03*
X183937Y389240D02*
D03*
X181968D02*
D03*
X180000D02*
D03*
X178032D02*
D03*
X176063D02*
D03*
D23*
X163272Y320500D02*
D03*
Y315500D02*
D03*
Y310500D02*
D03*
Y305500D02*
D03*
X184728Y320500D02*
D03*
Y315500D02*
D03*
Y310500D02*
D03*
Y305500D02*
D03*
D24*
X121000Y358000D02*
D03*
X107000D02*
D03*
X195000Y362000D02*
D03*
X155000Y427000D02*
D03*
X191500D02*
D03*
X173250D02*
D03*
X209750D02*
D03*
X175000Y362000D02*
D03*
X107000Y318000D02*
D03*
X229000Y321000D02*
D03*
X228000Y427000D02*
D03*
D25*
X124000Y256000D02*
D03*
X136000Y338000D02*
D03*
X124000Y231000D02*
D03*
D26*
X147653Y456500D02*
D03*
X154347D02*
D03*
X168654Y296000D02*
D03*
X175347D02*
D03*
X183346Y456500D02*
D03*
X176654D02*
D03*
X213305Y338150D02*
D03*
X206612D02*
D03*
X207347Y404000D02*
D03*
X200654D02*
D03*
X155654Y403000D02*
D03*
X162346D02*
D03*
X207347Y394000D02*
D03*
X200654D02*
D03*
X155654Y393000D02*
D03*
X162346D02*
D03*
X203346Y307000D02*
D03*
X196653D02*
D03*
X203346Y317000D02*
D03*
X196653D02*
D03*
X144653Y309000D02*
D03*
X151347D02*
D03*
X144653Y319000D02*
D03*
X151347D02*
D03*
X184346Y349000D02*
D03*
X177654D02*
D03*
D27*
X110750Y175654D02*
D03*
Y182346D02*
D03*
X124500Y175654D02*
D03*
Y182346D02*
D03*
X187000Y331653D02*
D03*
Y338347D02*
D03*
X176000Y331653D02*
D03*
Y338347D02*
D03*
X110750Y198346D02*
D03*
Y191654D02*
D03*
X124500Y198346D02*
D03*
Y191654D02*
D03*
X144000Y360653D02*
D03*
Y367347D02*
D03*
X134000Y360653D02*
D03*
Y367347D02*
D03*
X212000Y371346D02*
D03*
Y364653D02*
D03*
X154000Y354654D02*
D03*
Y361347D02*
D03*
X164000Y354654D02*
D03*
Y361347D02*
D03*
D28*
X144752Y298000D02*
D03*
X151248D02*
D03*
X203248Y327000D02*
D03*
X196752D02*
D03*
X116949Y413386D02*
D03*
X123445D02*
D03*
X116949Y403386D02*
D03*
X123445D02*
D03*
D29*
X231000Y272000D02*
D03*
X241000Y172500D02*
D03*
X105000Y400000D02*
D03*
D30*
X231000Y252315D02*
D03*
X241000Y162500D02*
D03*
Y152500D02*
D03*
X105000Y450000D02*
D03*
Y430000D02*
D03*
Y440000D02*
D03*
Y420000D02*
D03*
Y410000D02*
D03*
Y460000D02*
D03*
X233000Y114500D02*
D03*
Y124500D02*
D03*
Y134500D02*
D03*
D31*
X173250Y190000D02*
D03*
D32*
X160927Y202323D02*
D03*
X185573D02*
D03*
Y177677D02*
D03*
X160927D02*
D03*
D33*
X234500Y369000D02*
D03*
X112500Y120000D02*
D03*
M02*
